M48
; DRILL file {KiCad 7.0.5-4d25ed1034~172~ubuntu22.04.1} date Thu 01 Jun 2023 08:36:14 AM EDT
; FORMAT={-:-/ absolute / inch / decimal}
; #@! TF.CreationDate,2023-06-01T08:36:14-04:00
; #@! TF.GenerationSoftware,Kicad,Pcbnew,7.0.5-4d25ed1034~172~ubuntu22.04.1
; #@! TF.FileFunction,Plated,1,2,PTH
FMAT,2
INCH
; #@! TA.AperFunction,Plated,PTH,ViaDrill
T1C0.0160
; #@! TA.AperFunction,Plated,PTH,ComponentDrill
T2C0.0236
; #@! TA.AperFunction,Plated,PTH,ComponentDrill
T3C0.0256
; #@! TA.AperFunction,Plated,PTH,ComponentDrill
T4C0.0350
; #@! TA.AperFunction,Plated,PTH,ComponentDrill
T5C0.0394
; #@! TA.AperFunction,Plated,PTH,ComponentDrill
T6C0.0430
; #@! TA.AperFunction,Plated,PTH,ComponentDrill
T7C0.0791
%
G90
G05
T1
X1.135Y-1.755
X1.16Y-2.97
X1.35Y-2.93
X1.385Y-3.08
X1.484Y-1.725
X1.635Y-2.955
X1.905Y-2.51
X2.03Y-2.485
X2.13Y-2.425
X2.185Y-2.385
X2.35Y-2.485
X2.355Y-3.97
X2.375Y-2.39
X2.405Y-2.675
X2.405Y-2.785
X2.535Y-4.585
X2.57Y-2.43
X2.5933Y-3.04
X2.61Y-2.765
X2.73Y-3.1
X2.83Y-3.04
X2.83Y-3.84
X2.88Y-3.915
X2.885Y-2.535
X2.935Y-2.485
X3.03Y-2.475
X3.04Y-4.06
X3.095Y-2.405
X3.12Y-4.795
X3.12Y-4.925
X3.16Y-2.34
X3.205Y-3.18
X3.21Y-4.02
X3.22Y-2.475
X3.3Y-4.115
X3.345Y-3.965
X3.355Y-2.675
X3.355Y-2.785
X3.365Y-4.97
X3.37Y-3.84
X3.37Y-4.06
X3.375Y-2.34
X3.38Y-3.915
X3.39Y-4.01
X3.415Y-4.115
X3.46Y-3.56
X3.465Y-4.88
X3.4767Y-4.2083
X3.4801Y-3.7299
X3.53Y-2.41
X3.54Y-3.035
X3.54Y-3.185
X3.565Y-4.685
X3.6052Y-2.7502
X3.665Y-4.585
X3.67Y-3.1
X3.71Y-3.035
X3.745Y-4.06
X3.745Y-4.16
X3.78Y-2.495
X3.78Y-3.89
X3.785Y-4.01
X3.785Y-4.115
X3.79Y-3.945
X3.91Y-2.405
X3.91Y-4.06
X3.995Y-2.37
X4.02Y-4.675
X4.0225Y-3.5525
X4.07Y-2.3
X4.09Y-2.41
X4.1Y-2.61
X4.175Y-4.165
X4.23Y-2.78
X4.24Y-2.67
X4.33Y-4.875
X4.38Y-2.315
X4.385Y-4.115
X4.395Y-3.035
X4.4566Y-2.5816
X4.535Y-2.79
X4.54Y-3.095
X4.565Y-2.37
X4.6566Y-3.0384
X4.825Y-3.805
X4.87Y-2.505
X5.035Y-2.495
X5.08Y-2.42
X5.125Y-2.355
X5.175Y-2.31
X5.205Y-2.495
X5.27Y-3.94
X5.33Y-2.785
X5.335Y-2.67
X5.345Y-4.915
X5.375Y-2.35
X5.47Y-2.305
X5.4833Y-3.515
X5.49Y-3.035
X5.565Y-2.42
X5.63Y-2.79
X5.63Y-3.095
X5.775Y-3.03
T4
X1.9316Y-2.1803
X2.0316Y-2.1803
X2.9316Y-2.1803
X3.0316Y-2.1803
X3.9316Y-2.1803
X4.0316Y-2.1803
X4.9316Y-2.1803
X5.0316Y-2.1803
T5
X1.3716Y-2.5803
X1.4716Y-2.5803
X1.5716Y-2.5803
X3.1654Y-5.142
X3.2654Y-5.142
X3.3654Y-5.142
X3.4654Y-5.142
X3.5654Y-5.142
X3.6654Y-5.142
X3.7654Y-5.142
X4.045Y-5.14
T6
X2.4616Y-1.9303
X2.4616Y-2.1303
X2.6616Y-1.9303
X2.6616Y-2.1303
X3.4616Y-1.9303
X3.4616Y-2.1303
X3.6616Y-1.9303
X3.6616Y-2.1303
X4.4566Y-1.9253
X4.4566Y-2.1253
X4.6566Y-1.9253
X4.6566Y-2.1253
X5.4666Y-1.9303
X5.4666Y-2.1303
X5.6666Y-1.9303
X5.6666Y-2.1303
T7
X1.8316Y-1.9803
X2.2316Y-1.9803
X2.8316Y-1.9803
X3.2316Y-1.9803
X3.8316Y-1.9803
X4.2316Y-1.9803
X4.8316Y-1.9803
X5.2316Y-1.9803
T2
G00X1.3191Y-1.7409
M15
G01X1.3191Y-1.7133
M16
G05
G00X1.6478Y-1.7409
M15
G01X1.6478Y-1.7133
M16
G05
T3
G00X1.3959Y-1.8492
M15
G01X1.3959Y-1.8413
M16
G05
G00X1.5711Y-1.8492
M15
G01X1.5711Y-1.8413
M16
G05
T0
M30
