%TF.GenerationSoftware,KiCad,Pcbnew,7.0.5-4d25ed1034~172~ubuntu22.04.1*%
%TF.CreationDate,2023-06-01T08:36:11-04:00*%
%TF.ProjectId,trigger-board,74726967-6765-4722-9d62-6f6172642e6b,rev?*%
%TF.SameCoordinates,Original*%
%TF.FileFunction,Profile,NP*%
%FSLAX46Y46*%
G04 Gerber Fmt 4.6, Leading zero omitted, Abs format (unit mm)*
G04 Created by KiCad (PCBNEW 7.0.5-4d25ed1034~172~ubuntu22.04.1) date 2023-06-01 08:36:11*
%MOMM*%
%LPD*%
G01*
G04 APERTURE LIST*
%TA.AperFunction,Profile*%
%ADD10C,0.200000*%
%TD*%
%TA.AperFunction,Profile*%
%ADD11C,0.100000*%
%TD*%
G04 APERTURE END LIST*
D10*
X27058000Y-164719000D02*
X27058000Y-109739000D01*
X97608000Y-136719000D02*
X78548000Y-136719000D01*
X51638000Y-135719000D02*
G75*
G03*
X51638000Y-135719000I-1760000J0D01*
G01*
X33227999Y-109739000D02*
G75*
G03*
X33228000Y-97399000I1J6170000D01*
G01*
X51638000Y-71419000D02*
G75*
G03*
X51638000Y-71419000I-1760000J0D01*
G01*
X27058000Y-97399000D02*
X27058000Y-42419000D01*
X149098000Y-164719000D02*
X97608000Y-164719000D01*
D11*
X41430000Y-42419000D02*
X149098000Y-42419000D01*
D10*
X128038000Y-71419000D02*
G75*
G03*
X128038000Y-71419000I-1760000J0D01*
G01*
X78548000Y-164719000D02*
X27058000Y-164719000D01*
X149098000Y-97399000D02*
X149098000Y-42419000D01*
X27058000Y-97399000D02*
X33228000Y-97399000D01*
X149098000Y-164719000D02*
X149098000Y-109739000D01*
X27058000Y-109739000D02*
X33228000Y-109739000D01*
X142928000Y-97399000D02*
G75*
G03*
X142928001Y-109739000I0J-6170000D01*
G01*
X149098000Y-109739000D02*
X142928000Y-109739000D01*
X51638000Y-103569000D02*
G75*
G03*
X51638000Y-103569000I-1760000J0D01*
G01*
X27058000Y-42419000D02*
X33930000Y-42419000D01*
X78548000Y-164719000D02*
X78548000Y-136719000D01*
X128038000Y-103569000D02*
G75*
G03*
X128038000Y-103569000I-1760000J0D01*
G01*
X149098000Y-97399000D02*
X142928000Y-97399000D01*
X128038000Y-135719000D02*
G75*
G03*
X128038000Y-135719000I-1760000J0D01*
G01*
X97608000Y-164719000D02*
X97608000Y-136719000D01*
D11*
%TO.C,J5*%
X41430000Y-42419000D02*
X40480000Y-42419000D01*
X40480000Y-43994000D02*
X40480000Y-42419000D01*
X39630000Y-43994000D02*
X39630000Y-42419000D01*
X39630000Y-42419000D02*
X35730000Y-42419000D01*
X35730000Y-43994000D02*
X35730000Y-42419000D01*
X34880000Y-43994000D02*
X34880000Y-42419000D01*
X34880000Y-42419000D02*
X33930000Y-42419000D01*
X39630000Y-43994000D02*
G75*
G03*
X40480000Y-43994000I425000J0D01*
G01*
X34880000Y-43994000D02*
G75*
G03*
X35730000Y-43994000I425000J0D01*
G01*
%TD*%
M02*
