%TF.GenerationSoftware,KiCad,Pcbnew,7.0.5-4d25ed1034~172~ubuntu22.04.1*%
%TF.CreationDate,2023-06-01T08:36:11-04:00*%
%TF.ProjectId,trigger-board,74726967-6765-4722-9d62-6f6172642e6b,rev?*%
%TF.SameCoordinates,Original*%
%TF.FileFunction,Soldermask,Bot*%
%TF.FilePolarity,Negative*%
%FSLAX46Y46*%
G04 Gerber Fmt 4.6, Leading zero omitted, Abs format (unit mm)*
G04 Created by KiCad (PCBNEW 7.0.5-4d25ed1034~172~ubuntu22.04.1) date 2023-06-01 08:36:11*
%MOMM*%
%LPD*%
G01*
G04 APERTURE LIST*
%ADD10C,1.600200*%
%ADD11R,1.700000X1.700000*%
%ADD12O,1.700000X1.700000*%
%ADD13O,1.000000X1.900000*%
%ADD14O,1.050000X1.250000*%
%ADD15O,1.600000X2.500000*%
%ADD16O,3.500000X7.000000*%
%ADD17C,1.524000*%
G04 APERTURE END LIST*
D10*
%TO.C,SW1*%
X62524000Y-54108800D03*
X67604000Y-54108800D03*
X62524000Y-49028800D03*
X67604000Y-49028800D03*
%TD*%
D11*
%TO.C,J6*%
X80401000Y-130607800D03*
D12*
X82941000Y-130607800D03*
X85481000Y-130607800D03*
X88021000Y-130607800D03*
X90561000Y-130607800D03*
X93101000Y-130607800D03*
X95641000Y-130607800D03*
%TD*%
D13*
%TO.C,J5*%
X41855000Y-43869000D03*
D14*
X39905000Y-46869000D03*
X35455000Y-46869000D03*
D13*
X33505000Y-43869000D03*
%TD*%
D15*
%TO.C,J2*%
X77002000Y-55378800D03*
D16*
X71922000Y-50298800D03*
D15*
X74462000Y-55378800D03*
D16*
X82082000Y-50298800D03*
%TD*%
D10*
%TO.C,SW2*%
X87924000Y-54108800D03*
X93004000Y-54108800D03*
X87924000Y-49028800D03*
X93004000Y-49028800D03*
%TD*%
%TO.C,SW3*%
X113197000Y-53981800D03*
X118277000Y-53981800D03*
X113197000Y-48901800D03*
X118277000Y-48901800D03*
%TD*%
D15*
%TO.C,J3*%
X102402000Y-55378800D03*
D16*
X97322000Y-50298800D03*
D15*
X99862000Y-55378800D03*
D16*
X107482000Y-50298800D03*
%TD*%
D17*
%TO.C,N1*%
X126405000Y-71380800D03*
X50005000Y-71380800D03*
X126405000Y-103530800D03*
X50005000Y-103530800D03*
X126405000Y-135680800D03*
X50005000Y-135680800D03*
%TD*%
D15*
%TO.C,J4*%
X127802000Y-55378800D03*
D16*
X122722000Y-50298800D03*
D15*
X125262000Y-55378800D03*
D16*
X132882000Y-50298800D03*
%TD*%
D11*
%TO.C,JP1*%
X39918000Y-65538800D03*
D12*
X37378000Y-65538800D03*
X34838000Y-65538800D03*
%TD*%
D11*
%TO.C,AE1*%
X102743000Y-130556000D03*
%TD*%
D10*
%TO.C,SW4*%
X138851000Y-54108800D03*
X143931000Y-54108800D03*
X138851000Y-49028800D03*
X143931000Y-49028800D03*
%TD*%
D15*
%TO.C,J1*%
X51602000Y-55378800D03*
D16*
X46522000Y-50298800D03*
D15*
X49062000Y-55378800D03*
D16*
X56682000Y-50298800D03*
%TD*%
M02*
