%TF.GenerationSoftware,KiCad,Pcbnew,7.0.8-7.0.8~ubuntu22.04.1*%
%TF.CreationDate,2023-10-12T09:59:29-04:00*%
%TF.ProjectId,flex-IQ80xL,666c6578-2d49-4513-9830-784c2e6b6963,rev?*%
%TF.SameCoordinates,Original*%
%TF.FileFunction,Copper,L1,Top*%
%TF.FilePolarity,Positive*%
%FSLAX46Y46*%
G04 Gerber Fmt 4.6, Leading zero omitted, Abs format (unit mm)*
G04 Created by KiCad (PCBNEW 7.0.8-7.0.8~ubuntu22.04.1) date 2023-10-12 09:59:29*
%MOMM*%
%LPD*%
G01*
G04 APERTURE LIST*
%TA.AperFunction,SMDPad,CuDef*%
%ADD10R,2.400000X0.740000*%
%TD*%
%TA.AperFunction,ComponentPad*%
%ADD11C,1.143000*%
%TD*%
%TA.AperFunction,ViaPad*%
%ADD12C,0.400000*%
%TD*%
%TA.AperFunction,Conductor*%
%ADD13C,0.500000*%
%TD*%
G04 APERTURE END LIST*
D10*
%TO.P,J1,1,Pin_1*%
%TO.N,VSS*%
X505325000Y-75160000D03*
%TO.P,J1,2,Pin_2*%
%TO.N,Net-(J1-Pin_2)*%
X501425000Y-75160000D03*
%TO.P,J1,3,Pin_3*%
%TO.N,VCC*%
X505325000Y-73890000D03*
%TO.P,J1,4,Pin_4*%
%TO.N,GND*%
X501425000Y-73890000D03*
%TD*%
D11*
%TO.P,U1,1,GND*%
%TO.N,GND*%
X57675000Y-68615000D03*
%TO.P,U1,2,OUT*%
%TO.N,Net-(U1-OUT)*%
X60215000Y-66075000D03*
%TO.P,U1,3,V+*%
%TO.N,VCC*%
X57675000Y-63535000D03*
%TO.P,U1,4,V-*%
%TO.N,VSS*%
X55135000Y-66075000D03*
%TO.P,U1,5,CASE*%
%TO.N,GND*%
X57675000Y-66075000D03*
%TD*%
D12*
%TO.N,GND*%
X54600000Y-68200000D03*
%TO.N,VCC*%
X60800000Y-68600000D03*
X503500000Y-73900000D03*
X58400000Y-70900000D03*
%TO.N,VSS*%
X503500000Y-75100000D03*
%TO.N,Net-(J1-Pin_2)*%
X498600000Y-74600002D03*
%TD*%
D13*
%TO.N,VCC*%
X60164636Y-68600000D02*
X60800000Y-68600000D01*
X58400000Y-70364636D02*
X60164636Y-68600000D01*
X58400000Y-70900000D02*
X58400000Y-70364636D01*
X505325000Y-73890000D02*
X503510000Y-73890000D01*
X503510000Y-73890000D02*
X503500000Y-73900000D01*
%TO.N,VSS*%
X505325000Y-75160000D02*
X503560000Y-75160000D01*
X503560000Y-75160000D02*
X503500000Y-75100000D01*
%TO.N,Net-(J1-Pin_2)*%
X501425000Y-75160000D02*
X499159998Y-75160000D01*
X499159998Y-75160000D02*
X498600000Y-74600002D01*
%TD*%
%TA.AperFunction,Conductor*%
%TO.N,GND*%
G36*
X58099510Y-61796546D02*
G01*
X58103076Y-61796898D01*
X58521730Y-61858993D01*
X58525241Y-61859691D01*
X58935778Y-61962524D01*
X58939217Y-61963567D01*
X59337688Y-62106140D01*
X59341030Y-62107524D01*
X59723612Y-62288475D01*
X59726797Y-62290178D01*
X60089781Y-62507740D01*
X60089786Y-62507743D01*
X60092803Y-62509758D01*
X60432714Y-62761844D01*
X60432715Y-62761845D01*
X60435524Y-62764151D01*
X60749078Y-63048343D01*
X60751646Y-63050911D01*
X61035839Y-63364467D01*
X61038145Y-63367276D01*
X61290231Y-63707187D01*
X61292246Y-63710203D01*
X61415449Y-63915757D01*
X61509804Y-64073179D01*
X61511516Y-64076382D01*
X61692464Y-64458957D01*
X61693853Y-64462311D01*
X61809911Y-64786678D01*
X61836415Y-64860751D01*
X61837467Y-64864220D01*
X61940294Y-65274732D01*
X61940999Y-65278275D01*
X62003089Y-65696895D01*
X62003444Y-65700498D01*
X62024219Y-66123172D01*
X62024219Y-66126808D01*
X62003444Y-66549482D01*
X62003088Y-66553087D01*
X61968936Y-66783351D01*
X61941001Y-66971695D01*
X61940293Y-66975252D01*
X61929026Y-67020236D01*
X61837470Y-67385752D01*
X61836415Y-67389229D01*
X61693854Y-67787666D01*
X61692464Y-67791023D01*
X61511516Y-68173598D01*
X61509804Y-68176801D01*
X61320432Y-68492752D01*
X61281129Y-68524651D01*
X61230516Y-68523823D01*
X61192277Y-68490656D01*
X61186583Y-68477580D01*
X61185646Y-68474699D01*
X61185646Y-68474696D01*
X61128050Y-68361658D01*
X61038342Y-68271950D01*
X60925304Y-68214354D01*
X60925302Y-68214353D01*
X60925301Y-68214353D01*
X60831520Y-68199500D01*
X60831519Y-68199500D01*
X60228069Y-68199500D01*
X60101203Y-68199500D01*
X60090381Y-68203015D01*
X60076387Y-68207562D01*
X60065103Y-68210270D01*
X60039338Y-68214351D01*
X60039334Y-68214353D01*
X60016080Y-68226200D01*
X60005360Y-68230640D01*
X59980546Y-68238703D01*
X59980544Y-68238704D01*
X59959440Y-68254038D01*
X59949540Y-68260105D01*
X59926294Y-68271949D01*
X59903727Y-68294517D01*
X58094520Y-70103722D01*
X58094516Y-70103726D01*
X58094516Y-70103727D01*
X58094513Y-70103730D01*
X58071950Y-70126294D01*
X58063321Y-70143229D01*
X58060107Y-70149536D01*
X58054043Y-70159432D01*
X58038703Y-70180547D01*
X58038702Y-70180548D01*
X58030641Y-70205358D01*
X58026200Y-70216082D01*
X58014352Y-70239335D01*
X58014351Y-70239338D01*
X58010270Y-70265103D01*
X58007562Y-70276387D01*
X58000013Y-70299626D01*
X57999500Y-70301204D01*
X57999500Y-70931519D01*
X58014353Y-71025301D01*
X58014353Y-71025302D01*
X58014354Y-71025304D01*
X58071950Y-71138342D01*
X58161658Y-71228050D01*
X58274696Y-71285646D01*
X58400000Y-71305492D01*
X58525304Y-71285646D01*
X58638342Y-71228050D01*
X58648172Y-71218220D01*
X58694048Y-71196828D01*
X58742943Y-71209929D01*
X58771977Y-71251393D01*
X58774498Y-71270546D01*
X58774498Y-73273510D01*
X58771977Y-73292660D01*
X58769189Y-73303066D01*
X58769189Y-73303067D01*
X58773704Y-73319917D01*
X58773707Y-73319933D01*
X58790062Y-73380970D01*
X58790063Y-73380971D01*
X58847093Y-73438002D01*
X58924998Y-73458876D01*
X58933648Y-73456558D01*
X58935404Y-73456088D01*
X58954555Y-73453567D01*
X500001000Y-73453567D01*
X500048566Y-73470880D01*
X500073876Y-73514717D01*
X500075000Y-73527567D01*
X500075000Y-73815000D01*
X502774999Y-73815000D01*
X502774999Y-73527567D01*
X502792312Y-73480001D01*
X502836149Y-73454691D01*
X502848999Y-73453567D01*
X503201389Y-73453567D01*
X503248955Y-73470880D01*
X503274265Y-73514717D01*
X503265475Y-73564567D01*
X503253715Y-73579893D01*
X503249091Y-73584517D01*
X503194516Y-73639091D01*
X503194513Y-73639094D01*
X503181952Y-73651654D01*
X503181947Y-73651661D01*
X503176525Y-73662302D01*
X503170461Y-73672198D01*
X503138703Y-73715910D01*
X503138702Y-73715911D01*
X503099500Y-73836565D01*
X503099500Y-73963432D01*
X503138705Y-74084092D01*
X503213272Y-74186724D01*
X503213275Y-74186727D01*
X503315907Y-74261294D01*
X503315910Y-74261296D01*
X503436567Y-74300500D01*
X503563432Y-74300500D01*
X503563433Y-74300500D01*
X503583063Y-74294121D01*
X503605930Y-74290500D01*
X503924822Y-74290500D01*
X503972388Y-74307813D01*
X503986351Y-74323388D01*
X504016254Y-74368143D01*
X504016496Y-74368504D01*
X504066278Y-74401767D01*
X504110180Y-74410500D01*
X504110181Y-74410500D01*
X506539819Y-74410500D01*
X506539820Y-74410500D01*
X506583722Y-74401767D01*
X506633504Y-74368504D01*
X506666767Y-74318722D01*
X506675500Y-74274820D01*
X506675500Y-73527567D01*
X506692813Y-73480001D01*
X506736650Y-73454691D01*
X506749500Y-73453567D01*
X507450420Y-73453567D01*
X507497986Y-73470880D01*
X507523296Y-73514717D01*
X507524420Y-73527567D01*
X507524420Y-75578562D01*
X507507107Y-75626128D01*
X507463270Y-75651438D01*
X507450420Y-75652562D01*
X506744238Y-75652562D01*
X506696672Y-75635249D01*
X506671362Y-75591412D01*
X506671660Y-75564126D01*
X506675500Y-75544820D01*
X506675500Y-74775180D01*
X506672381Y-74759500D01*
X506666767Y-74731278D01*
X506633504Y-74681496D01*
X506583722Y-74648233D01*
X506539820Y-74639500D01*
X504110180Y-74639500D01*
X504088229Y-74643866D01*
X504066277Y-74648233D01*
X504016496Y-74681495D01*
X504016495Y-74681496D01*
X503986351Y-74726612D01*
X503945530Y-74756543D01*
X503924822Y-74759500D01*
X503736757Y-74759500D01*
X503693261Y-74745367D01*
X503684091Y-74738705D01*
X503684090Y-74738704D01*
X503563433Y-74699500D01*
X503436567Y-74699500D01*
X503315907Y-74738705D01*
X503213275Y-74813272D01*
X503213272Y-74813275D01*
X503138705Y-74915907D01*
X503099500Y-75036567D01*
X503099500Y-75163432D01*
X503138704Y-75284090D01*
X503138706Y-75284094D01*
X503194512Y-75360904D01*
X503194516Y-75360909D01*
X503194521Y-75360914D01*
X503300222Y-75466615D01*
X503300232Y-75466624D01*
X503321658Y-75488050D01*
X503344903Y-75499894D01*
X503354803Y-75505961D01*
X503372330Y-75518695D01*
X503400636Y-75560659D01*
X503395345Y-75611001D01*
X503358933Y-75646164D01*
X503328834Y-75652562D01*
X502844238Y-75652562D01*
X502796672Y-75635249D01*
X502771362Y-75591412D01*
X502771660Y-75564126D01*
X502775500Y-75544820D01*
X502775500Y-74775180D01*
X502772381Y-74759500D01*
X502766767Y-74731278D01*
X502733504Y-74681496D01*
X502683722Y-74648233D01*
X502639820Y-74639500D01*
X500210180Y-74639500D01*
X500188229Y-74643866D01*
X500166277Y-74648233D01*
X500116496Y-74681495D01*
X500116495Y-74681496D01*
X500086351Y-74726612D01*
X500045530Y-74756543D01*
X500024822Y-74759500D01*
X499356543Y-74759500D01*
X499308977Y-74742187D01*
X499304217Y-74737826D01*
X498860914Y-74294523D01*
X498860909Y-74294518D01*
X498860906Y-74294515D01*
X498860904Y-74294514D01*
X498784094Y-74238708D01*
X498784090Y-74238706D01*
X498663433Y-74199502D01*
X498536567Y-74199502D01*
X498415907Y-74238707D01*
X498313275Y-74313274D01*
X498313272Y-74313277D01*
X498238705Y-74415909D01*
X498238704Y-74415911D01*
X498238704Y-74415912D01*
X498199500Y-74536569D01*
X498199500Y-74663435D01*
X498229753Y-74756543D01*
X498238704Y-74784092D01*
X498238706Y-74784096D01*
X498294512Y-74860906D01*
X498294516Y-74860911D01*
X498294521Y-74860916D01*
X498900220Y-75466615D01*
X498900230Y-75466624D01*
X498921656Y-75488050D01*
X498944901Y-75499894D01*
X498954801Y-75505961D01*
X498972328Y-75518695D01*
X499000634Y-75560659D01*
X498995343Y-75611001D01*
X498958931Y-75646164D01*
X498928832Y-75652562D01*
X56649502Y-75652562D01*
X56601936Y-75635249D01*
X56576626Y-75591412D01*
X56575502Y-75578562D01*
X56575502Y-73965000D01*
X500075001Y-73965000D01*
X500075001Y-74274778D01*
X500083701Y-74318524D01*
X500116855Y-74368143D01*
X500116856Y-74368144D01*
X500166472Y-74401296D01*
X500210226Y-74409999D01*
X501350000Y-74409999D01*
X501350000Y-73965000D01*
X501500000Y-73965000D01*
X501500000Y-74409999D01*
X502639779Y-74409999D01*
X502683524Y-74401298D01*
X502733143Y-74368144D01*
X502733144Y-74368143D01*
X502766296Y-74318527D01*
X502775000Y-74274773D01*
X502775000Y-73965000D01*
X501500000Y-73965000D01*
X501350000Y-73965000D01*
X500075001Y-73965000D01*
X56575502Y-73965000D01*
X56575502Y-70494853D01*
X56576232Y-70488939D01*
X56575502Y-70444092D01*
X56575502Y-70425509D01*
X56575502Y-70425498D01*
X56575499Y-70425487D01*
X56575434Y-70424995D01*
X56575121Y-70420766D01*
X56574826Y-70402543D01*
X56570247Y-70394902D01*
X56562243Y-70376016D01*
X56559937Y-70367408D01*
X56551002Y-70358473D01*
X56539858Y-70344190D01*
X56533368Y-70333360D01*
X56533365Y-70333358D01*
X56525575Y-70329027D01*
X56509209Y-70316679D01*
X56502907Y-70310377D01*
X56502906Y-70310376D01*
X56485309Y-70305661D01*
X56481298Y-70304336D01*
X56480812Y-70304144D01*
X56462785Y-70299626D01*
X56415604Y-70286985D01*
X56415698Y-70286632D01*
X56407334Y-70285179D01*
X56012323Y-70143845D01*
X56008966Y-70142455D01*
X55626391Y-69961507D01*
X55623194Y-69959798D01*
X55260217Y-69742240D01*
X55257196Y-69740222D01*
X54917285Y-69488136D01*
X54914476Y-69485830D01*
X54600920Y-69201637D01*
X54598352Y-69199069D01*
X54314160Y-68885515D01*
X54311854Y-68882706D01*
X54207278Y-68741697D01*
X54113317Y-68615000D01*
X56948935Y-68615000D01*
X56967139Y-68776565D01*
X56967141Y-68776573D01*
X57020836Y-68930023D01*
X57020838Y-68930028D01*
X57107339Y-69067692D01*
X57111790Y-69072143D01*
X57431374Y-68752559D01*
X57448172Y-68786293D01*
X57525367Y-68856666D01*
X57535481Y-68860584D01*
X57217856Y-69178209D01*
X57222307Y-69182660D01*
X57359971Y-69269161D01*
X57359976Y-69269163D01*
X57513426Y-69322858D01*
X57513434Y-69322860D01*
X57675000Y-69341064D01*
X57836565Y-69322860D01*
X57836573Y-69322858D01*
X57990023Y-69269163D01*
X57990028Y-69269161D01*
X58127692Y-69182660D01*
X58132143Y-69178209D01*
X57812450Y-68858516D01*
X57866491Y-68825056D01*
X57920113Y-68754047D01*
X58238209Y-69072143D01*
X58242660Y-69067692D01*
X58329161Y-68930028D01*
X58329163Y-68930023D01*
X58382858Y-68776573D01*
X58382860Y-68776565D01*
X58401064Y-68615000D01*
X58382860Y-68453434D01*
X58382858Y-68453426D01*
X58329163Y-68299976D01*
X58329161Y-68299971D01*
X58242660Y-68162307D01*
X58238209Y-68157856D01*
X57918625Y-68477440D01*
X57901828Y-68443707D01*
X57824633Y-68373334D01*
X57814518Y-68369415D01*
X58132144Y-68051790D01*
X58127692Y-68047339D01*
X57990028Y-67960838D01*
X57990023Y-67960836D01*
X57836573Y-67907141D01*
X57836565Y-67907139D01*
X57675000Y-67888935D01*
X57513434Y-67907139D01*
X57513426Y-67907141D01*
X57359976Y-67960836D01*
X57359971Y-67960838D01*
X57222307Y-68047339D01*
X57217856Y-68051790D01*
X57537549Y-68371483D01*
X57483509Y-68404944D01*
X57429886Y-68475952D01*
X57111790Y-68157856D01*
X57107339Y-68162307D01*
X57020838Y-68299971D01*
X57020836Y-68299976D01*
X56967141Y-68453426D01*
X56967139Y-68453434D01*
X56948935Y-68615000D01*
X54113317Y-68615000D01*
X54059767Y-68542794D01*
X54057752Y-68539777D01*
X54039266Y-68508934D01*
X53840187Y-68176788D01*
X53838482Y-68173598D01*
X53831036Y-68157856D01*
X53657533Y-67791021D01*
X53656149Y-67787679D01*
X53513576Y-67389208D01*
X53512533Y-67385769D01*
X53409700Y-66975232D01*
X53409002Y-66971721D01*
X53346907Y-66553067D01*
X53346555Y-66549501D01*
X53325779Y-66126801D01*
X53325779Y-66123172D01*
X53328147Y-66075000D01*
X54408431Y-66075000D01*
X54426648Y-66236677D01*
X54426650Y-66236685D01*
X54480382Y-66390243D01*
X54480383Y-66390245D01*
X54566944Y-66528007D01*
X54681992Y-66643055D01*
X54819754Y-66729616D01*
X54819756Y-66729617D01*
X54971911Y-66782858D01*
X54973323Y-66783352D01*
X55135000Y-66801569D01*
X55296677Y-66783352D01*
X55450246Y-66729616D01*
X55588008Y-66643055D01*
X55703055Y-66528008D01*
X55789616Y-66390246D01*
X55843352Y-66236677D01*
X55861569Y-66075000D01*
X56948935Y-66075000D01*
X56967139Y-66236565D01*
X56967141Y-66236573D01*
X57020836Y-66390023D01*
X57020838Y-66390028D01*
X57107339Y-66527692D01*
X57111790Y-66532143D01*
X57431374Y-66212559D01*
X57448172Y-66246293D01*
X57525367Y-66316666D01*
X57535481Y-66320584D01*
X57217856Y-66638209D01*
X57222307Y-66642660D01*
X57359971Y-66729161D01*
X57359976Y-66729163D01*
X57513426Y-66782858D01*
X57513434Y-66782860D01*
X57675000Y-66801064D01*
X57836565Y-66782860D01*
X57836573Y-66782858D01*
X57990023Y-66729163D01*
X57990028Y-66729161D01*
X58127692Y-66642660D01*
X58132143Y-66638209D01*
X57812450Y-66318516D01*
X57866491Y-66285056D01*
X57920113Y-66214047D01*
X58238209Y-66532143D01*
X58242660Y-66527692D01*
X58329161Y-66390028D01*
X58329163Y-66390023D01*
X58382858Y-66236573D01*
X58382860Y-66236565D01*
X58401064Y-66075000D01*
X59488431Y-66075000D01*
X59506648Y-66236677D01*
X59506650Y-66236685D01*
X59560382Y-66390243D01*
X59560383Y-66390245D01*
X59646944Y-66528007D01*
X59761992Y-66643055D01*
X59899754Y-66729616D01*
X59899756Y-66729617D01*
X60051911Y-66782858D01*
X60053323Y-66783352D01*
X60215000Y-66801569D01*
X60376677Y-66783352D01*
X60530246Y-66729616D01*
X60668008Y-66643055D01*
X60783055Y-66528008D01*
X60869616Y-66390246D01*
X60923352Y-66236677D01*
X60941569Y-66075000D01*
X60923352Y-65913323D01*
X60919987Y-65903707D01*
X60869617Y-65759756D01*
X60869616Y-65759754D01*
X60783055Y-65621992D01*
X60668007Y-65506944D01*
X60530245Y-65420383D01*
X60530243Y-65420382D01*
X60376685Y-65366650D01*
X60376677Y-65366648D01*
X60215000Y-65348431D01*
X60053322Y-65366648D01*
X60053314Y-65366650D01*
X59899756Y-65420382D01*
X59899754Y-65420383D01*
X59761992Y-65506944D01*
X59646944Y-65621992D01*
X59560383Y-65759754D01*
X59560382Y-65759756D01*
X59506650Y-65913314D01*
X59506648Y-65913322D01*
X59488431Y-66075000D01*
X58401064Y-66075000D01*
X58382860Y-65913434D01*
X58382858Y-65913426D01*
X58329163Y-65759976D01*
X58329161Y-65759971D01*
X58242660Y-65622307D01*
X58238209Y-65617856D01*
X57918625Y-65937440D01*
X57901828Y-65903707D01*
X57824633Y-65833334D01*
X57814518Y-65829415D01*
X58132144Y-65511790D01*
X58127692Y-65507339D01*
X57990028Y-65420838D01*
X57990023Y-65420836D01*
X57836573Y-65367141D01*
X57836565Y-65367139D01*
X57675000Y-65348935D01*
X57513434Y-65367139D01*
X57513426Y-65367141D01*
X57359976Y-65420836D01*
X57359971Y-65420838D01*
X57222307Y-65507339D01*
X57217856Y-65511790D01*
X57537549Y-65831483D01*
X57483509Y-65864944D01*
X57429886Y-65935952D01*
X57111790Y-65617856D01*
X57107339Y-65622307D01*
X57020838Y-65759971D01*
X57020836Y-65759976D01*
X56967141Y-65913426D01*
X56967139Y-65913434D01*
X56948935Y-66075000D01*
X55861569Y-66075000D01*
X55843352Y-65913323D01*
X55839987Y-65903707D01*
X55789617Y-65759756D01*
X55789616Y-65759754D01*
X55703055Y-65621992D01*
X55588007Y-65506944D01*
X55450245Y-65420383D01*
X55450243Y-65420382D01*
X55296685Y-65366650D01*
X55296677Y-65366648D01*
X55135000Y-65348431D01*
X54973322Y-65366648D01*
X54973314Y-65366650D01*
X54819756Y-65420382D01*
X54819754Y-65420383D01*
X54681992Y-65506944D01*
X54566944Y-65621992D01*
X54480383Y-65759754D01*
X54480382Y-65759756D01*
X54426650Y-65913314D01*
X54426648Y-65913322D01*
X54408431Y-66075000D01*
X53328147Y-66075000D01*
X53346556Y-65700477D01*
X53346906Y-65696915D01*
X53409002Y-65278256D01*
X53409699Y-65274752D01*
X53512535Y-64864205D01*
X53513574Y-64860778D01*
X53656151Y-64462294D01*
X53657534Y-64458957D01*
X53838488Y-64076369D01*
X53840182Y-64073200D01*
X54057759Y-63710191D01*
X54059767Y-63707187D01*
X54187464Y-63535000D01*
X56948431Y-63535000D01*
X56966648Y-63696677D01*
X56966650Y-63696685D01*
X57020382Y-63850243D01*
X57020383Y-63850245D01*
X57106944Y-63988007D01*
X57221992Y-64103055D01*
X57359754Y-64189616D01*
X57359756Y-64189617D01*
X57513314Y-64243349D01*
X57513323Y-64243352D01*
X57675000Y-64261569D01*
X57836677Y-64243352D01*
X57990246Y-64189616D01*
X58128008Y-64103055D01*
X58243055Y-63988008D01*
X58329616Y-63850246D01*
X58383352Y-63696677D01*
X58401569Y-63535000D01*
X58383352Y-63373323D01*
X58381236Y-63367276D01*
X58329617Y-63219756D01*
X58329616Y-63219754D01*
X58243055Y-63081992D01*
X58128007Y-62966944D01*
X57990245Y-62880383D01*
X57990243Y-62880382D01*
X57836685Y-62826650D01*
X57836677Y-62826648D01*
X57675000Y-62808431D01*
X57513322Y-62826648D01*
X57513314Y-62826650D01*
X57359756Y-62880382D01*
X57359754Y-62880383D01*
X57221992Y-62966944D01*
X57106944Y-63081992D01*
X57020383Y-63219754D01*
X57020382Y-63219756D01*
X56966650Y-63373314D01*
X56966648Y-63373322D01*
X56948431Y-63535000D01*
X54187464Y-63535000D01*
X54311861Y-63367264D01*
X54314160Y-63364465D01*
X54598352Y-63050911D01*
X54600920Y-63048343D01*
X54914476Y-62764150D01*
X54917275Y-62761851D01*
X55257209Y-62509748D01*
X55260213Y-62507743D01*
X55623209Y-62290173D01*
X55626378Y-62288479D01*
X56008978Y-62107519D01*
X56012306Y-62106141D01*
X56410783Y-61963566D01*
X56414210Y-61962527D01*
X56824761Y-61859690D01*
X56828265Y-61858993D01*
X57246924Y-61796897D01*
X57250486Y-61796547D01*
X57673188Y-61775770D01*
X57676810Y-61775770D01*
X58099510Y-61796546D01*
G37*
%TD.AperFunction*%
%TD*%
M02*
