%TF.GenerationSoftware,KiCad,Pcbnew,7.0.8-7.0.8~ubuntu22.04.1*%
%TF.CreationDate,2023-10-12T09:59:29-04:00*%
%TF.ProjectId,flex-IQ80xL,666c6578-2d49-4513-9830-784c2e6b6963,rev?*%
%TF.SameCoordinates,Original*%
%TF.FileFunction,Copper,L2,Bot*%
%TF.FilePolarity,Positive*%
%FSLAX46Y46*%
G04 Gerber Fmt 4.6, Leading zero omitted, Abs format (unit mm)*
G04 Created by KiCad (PCBNEW 7.0.8-7.0.8~ubuntu22.04.1) date 2023-10-12 09:59:29*
%MOMM*%
%LPD*%
G01*
G04 APERTURE LIST*
G04 Aperture macros list*
%AMRoundRect*
0 Rectangle with rounded corners*
0 $1 Rounding radius*
0 $2 $3 $4 $5 $6 $7 $8 $9 X,Y pos of 4 corners*
0 Add a 4 corners polygon primitive as box body*
4,1,4,$2,$3,$4,$5,$6,$7,$8,$9,$2,$3,0*
0 Add four circle primitives for the rounded corners*
1,1,$1+$1,$2,$3*
1,1,$1+$1,$4,$5*
1,1,$1+$1,$6,$7*
1,1,$1+$1,$8,$9*
0 Add four rect primitives between the rounded corners*
20,1,$1+$1,$2,$3,$4,$5,0*
20,1,$1+$1,$4,$5,$6,$7,0*
20,1,$1+$1,$6,$7,$8,$9,0*
20,1,$1+$1,$8,$9,$2,$3,0*%
G04 Aperture macros list end*
%TA.AperFunction,ComponentPad*%
%ADD10C,1.143000*%
%TD*%
%TA.AperFunction,SMDPad,CuDef*%
%ADD11RoundRect,0.225000X-0.250000X0.225000X-0.250000X-0.225000X0.250000X-0.225000X0.250000X0.225000X0*%
%TD*%
%TA.AperFunction,SMDPad,CuDef*%
%ADD12RoundRect,0.200000X-0.275000X0.200000X-0.275000X-0.200000X0.275000X-0.200000X0.275000X0.200000X0*%
%TD*%
%TA.AperFunction,ViaPad*%
%ADD13C,0.400000*%
%TD*%
%TA.AperFunction,Conductor*%
%ADD14C,0.500000*%
%TD*%
%TA.AperFunction,Conductor*%
%ADD15C,0.250000*%
%TD*%
G04 APERTURE END LIST*
D10*
%TO.P,U1,1,GND*%
%TO.N,GND*%
X57675000Y-68615000D03*
%TO.P,U1,2,OUT*%
%TO.N,Net-(U1-OUT)*%
X60215000Y-66075000D03*
%TO.P,U1,3,V+*%
%TO.N,VCC*%
X57675000Y-63535000D03*
%TO.P,U1,4,V-*%
%TO.N,VSS*%
X55135000Y-66075000D03*
%TO.P,U1,5,CASE*%
%TO.N,GND*%
X57675000Y-66075000D03*
%TD*%
D11*
%TO.P,C2,1*%
%TO.N,VSS*%
X55675000Y-67300000D03*
%TO.P,C2,2*%
%TO.N,GND*%
X55675000Y-68850000D03*
%TD*%
%TO.P,C1,1*%
%TO.N,VCC*%
X59175000Y-62800000D03*
%TO.P,C1,2*%
%TO.N,GND*%
X59175000Y-64350000D03*
%TD*%
D12*
%TO.P,R1,1*%
%TO.N,Net-(U1-OUT)*%
X59675000Y-67325000D03*
%TO.P,R1,2*%
%TO.N,Net-(J1-Pin_2)*%
X59675000Y-68975000D03*
%TD*%
D13*
%TO.N,GND*%
X54600000Y-68200000D03*
%TO.N,VCC*%
X60800000Y-68600000D03*
X503500000Y-73900000D03*
X58400000Y-70900000D03*
%TO.N,VSS*%
X503500000Y-75100000D03*
%TO.N,Net-(J1-Pin_2)*%
X498600000Y-74600002D03*
%TD*%
D14*
%TO.N,GND*%
X55675000Y-68850000D02*
X55250000Y-68850000D01*
X55250000Y-68850000D02*
X54600000Y-68200000D01*
%TO.N,VCC*%
X58400000Y-70800000D02*
X58400000Y-70900000D01*
D15*
X58410000Y-62800000D02*
X57675000Y-63535000D01*
D14*
X503500000Y-73900000D02*
X58400000Y-73900000D01*
X61136500Y-68263500D02*
X61136500Y-64761500D01*
X58400000Y-73900000D02*
X58400000Y-70900000D01*
X61136500Y-64761500D02*
X59175000Y-62800000D01*
D15*
X59175000Y-62800000D02*
X58410000Y-62800000D01*
D14*
X60800000Y-68600000D02*
X61136500Y-68263500D01*
%TO.N,GND*%
X59175000Y-64575000D02*
X57675000Y-66075000D01*
X59175000Y-64350000D02*
X59175000Y-64575000D01*
%TO.N,VSS*%
X503500000Y-75100000D02*
X503196938Y-75403062D01*
D15*
X55675000Y-67300000D02*
X55675000Y-66615000D01*
D14*
X56700000Y-67700000D02*
X56300000Y-67300000D01*
X56700000Y-68943198D02*
X56700000Y-67700000D01*
X57000000Y-69243198D02*
X56700000Y-68943198D01*
X57000000Y-75403062D02*
X57000000Y-69243198D01*
X56300000Y-67300000D02*
X55675000Y-67300000D01*
X503196938Y-75403062D02*
X57000000Y-75403062D01*
D15*
X55675000Y-66615000D02*
X55135000Y-66075000D01*
D14*
%TO.N,Net-(J1-Pin_2)*%
X57800002Y-74600002D02*
X498600000Y-74600002D01*
X59200000Y-68975000D02*
X57700000Y-70475000D01*
X57700000Y-74500000D02*
X57800002Y-74600002D01*
X59675000Y-68975000D02*
X59200000Y-68975000D01*
X57700000Y-70475000D02*
X57700000Y-74500000D01*
D15*
%TO.N,Net-(U1-OUT)*%
X59675000Y-67325000D02*
X59675000Y-66615000D01*
X59675000Y-66615000D02*
X60215000Y-66075000D01*
%TD*%
M02*
