%TF.GenerationSoftware,KiCad,Pcbnew,7.0.8-7.0.8~ubuntu22.04.1*%
%TF.CreationDate,2023-10-12T09:59:29-04:00*%
%TF.ProjectId,flex-IQ80xL,666c6578-2d49-4513-9830-784c2e6b6963,rev?*%
%TF.SameCoordinates,Original*%
%TF.FileFunction,Profile,NP*%
%FSLAX46Y46*%
G04 Gerber Fmt 4.6, Leading zero omitted, Abs format (unit mm)*
G04 Created by KiCad (PCBNEW 7.0.8-7.0.8~ubuntu22.04.1) date 2023-10-12 09:59:29*
%MOMM*%
%LPD*%
G01*
G04 APERTURE LIST*
%TA.AperFunction,Profile*%
%ADD10C,0.007874*%
%TD*%
G04 APERTURE END LIST*
D10*
X58981267Y-61818770D02*
X58552897Y-61711470D01*
X58924998Y-70445312D02*
X58981267Y-70431212D01*
X61981221Y-67431258D02*
X62088521Y-67002888D01*
X56425002Y-70445312D02*
X56425002Y-75803062D01*
X58924998Y-73303067D02*
X58924998Y-70445312D01*
X53261479Y-67002888D02*
X53368779Y-67431258D01*
X60175055Y-69866594D02*
X60529764Y-69603534D01*
X62174991Y-66124991D02*
X62153311Y-65683921D01*
X507674920Y-75803062D02*
X507674920Y-73303067D01*
X55553724Y-62156359D02*
X55174945Y-62383388D01*
X60856974Y-69306965D02*
X61153543Y-68979755D01*
X61153543Y-63270227D02*
X60856974Y-62943017D01*
X54493026Y-62943017D02*
X54196457Y-63270227D01*
X57233930Y-61646680D02*
X56797103Y-61711470D01*
X61416603Y-63624936D02*
X61153543Y-63270227D01*
X59397057Y-61967539D02*
X58981267Y-61818770D01*
X54196457Y-68979755D02*
X54493026Y-69306965D01*
X58116070Y-61646680D02*
X57675000Y-61625000D01*
X58981267Y-70431212D02*
X59397057Y-70282443D01*
X60529764Y-62646448D02*
X60175055Y-62383388D01*
X53368779Y-64818724D02*
X53261479Y-65247094D01*
X507674920Y-73303067D02*
X58924998Y-73303067D01*
X54820236Y-69603534D02*
X55174945Y-69866594D01*
X53175009Y-66124991D02*
X53196689Y-66566061D01*
X61832452Y-67847048D02*
X61981221Y-67431258D01*
X59796276Y-62156359D02*
X59397057Y-61967539D01*
X53517548Y-64402934D02*
X53368779Y-64818724D01*
X57675000Y-61625000D02*
X57233930Y-61646680D01*
X55174945Y-69866594D02*
X55553724Y-70093623D01*
X55174945Y-62383388D02*
X54820236Y-62646448D01*
X53517548Y-67847048D02*
X53706368Y-68246267D01*
X55553724Y-70093623D02*
X55952943Y-70282443D01*
X62153311Y-66566061D02*
X62174991Y-66124991D01*
X53196689Y-65683921D02*
X53175009Y-66124991D01*
X60529764Y-69603534D02*
X60856974Y-69306965D01*
X53196689Y-66566061D02*
X53261479Y-67002888D01*
X53261479Y-65247094D02*
X53196689Y-65683921D01*
X54196457Y-63270227D02*
X53933397Y-63624936D01*
X60856974Y-62943017D02*
X60529764Y-62646448D01*
X61981221Y-64818724D02*
X61832452Y-64402934D01*
X60175055Y-62383388D02*
X59796276Y-62156359D01*
X62088521Y-65247094D02*
X61981221Y-64818724D01*
X61832452Y-64402934D02*
X61643632Y-64003715D01*
X61153543Y-68979755D02*
X61416603Y-68625046D01*
X54820236Y-62646448D02*
X54493026Y-62943017D01*
X61416603Y-68625046D02*
X61643632Y-68246267D01*
X55952943Y-70282443D02*
X56368733Y-70431212D01*
X53933397Y-68625046D02*
X54196457Y-68979755D01*
X58552897Y-61711470D02*
X58116070Y-61646680D01*
X62153311Y-65683921D02*
X62088521Y-65247094D01*
X56368733Y-61818770D02*
X55952943Y-61967539D01*
X59796276Y-70093623D02*
X60175055Y-69866594D01*
X54493026Y-69306965D02*
X54820236Y-69603534D01*
X56797103Y-61711470D02*
X56368733Y-61818770D01*
X61643632Y-64003715D02*
X61416603Y-63624936D01*
X61643632Y-68246267D02*
X61832452Y-67847048D01*
X55952943Y-61967539D02*
X55553724Y-62156359D01*
X56368733Y-70431212D02*
X56425002Y-70445312D01*
X56425002Y-75803062D02*
X507674920Y-75803062D01*
X53706368Y-68246267D02*
X53933397Y-68625046D01*
X53368779Y-67431258D02*
X53517548Y-67847048D01*
X53706368Y-64003715D02*
X53517548Y-64402934D01*
X53933397Y-63624936D02*
X53706368Y-64003715D01*
X62088521Y-67002888D02*
X62153311Y-66566061D01*
X59397057Y-70282443D02*
X59796276Y-70093623D01*
M02*
