%TF.GenerationSoftware,KiCad,Pcbnew,7.0.9-7.0.9~ubuntu22.04.1*%
%TF.CreationDate,2024-01-17T07:25:15-05:00*%
%TF.ProjectId,imu-board,696d752d-626f-4617-9264-2e6b69636164,rev?*%
%TF.SameCoordinates,Original*%
%TF.FileFunction,Copper,L2,Inr*%
%TF.FilePolarity,Positive*%
%FSLAX46Y46*%
G04 Gerber Fmt 4.6, Leading zero omitted, Abs format (unit mm)*
G04 Created by KiCad (PCBNEW 7.0.9-7.0.9~ubuntu22.04.1) date 2024-01-17 07:25:15*
%MOMM*%
%LPD*%
G01*
G04 APERTURE LIST*
%TA.AperFunction,ComponentPad*%
%ADD10R,1.000000X1.000000*%
%TD*%
%TA.AperFunction,ComponentPad*%
%ADD11O,1.000000X1.000000*%
%TD*%
%TA.AperFunction,ComponentPad*%
%ADD12R,0.850000X0.850000*%
%TD*%
%TA.AperFunction,ComponentPad*%
%ADD13O,0.850000X0.850000*%
%TD*%
%TA.AperFunction,ViaPad*%
%ADD14C,0.508000*%
%TD*%
G04 APERTURE END LIST*
D10*
%TO.N,VCC*%
%TO.C,J1*%
X51200000Y-58090000D03*
D11*
%TO.N,/TXD*%
X51200000Y-59360000D03*
%TO.N,/RXD*%
X51200000Y-60630000D03*
%TO.N,GND*%
X51200000Y-61900000D03*
%TD*%
D12*
%TO.N,/MISO*%
%TO.C,J3*%
X51200000Y-56200000D03*
D13*
%TO.N,VCC*%
X52200000Y-56200000D03*
%TO.N,/SCK*%
X53200000Y-56200000D03*
%TO.N,/MOSI*%
X54200000Y-56200000D03*
%TO.N,/nRESET*%
X55200000Y-56200000D03*
%TO.N,GND*%
X56200000Y-56200000D03*
%TD*%
D14*
%TO.N,VCC*%
X54400000Y-62500000D03*
X57800000Y-61500000D03*
X55600000Y-57300000D03*
X61546000Y-60400000D03*
X61400000Y-57700000D03*
X59800000Y-58600000D03*
%TO.N,GND*%
X60600000Y-58800000D03*
X59300000Y-55600000D03*
X55100000Y-58500000D03*
X57800000Y-62200000D03*
X55100000Y-61000000D03*
X60900000Y-62400000D03*
X60000000Y-59500000D03*
%TO.N,/nRESET*%
X58893598Y-57600000D03*
%TO.N,/TXD*%
X57500000Y-57900000D03*
%TO.N,/RXD*%
X58175272Y-57842024D03*
%TO.N,/SCK*%
X53300000Y-62500000D03*
%TD*%
%TA.AperFunction,Conductor*%
%TO.N,GND*%
G36*
X61607696Y-55201719D02*
G01*
X61622753Y-55204103D01*
X61646162Y-55207811D01*
X61675614Y-55217379D01*
X61703294Y-55231483D01*
X61728347Y-55249685D01*
X61750314Y-55271652D01*
X61768517Y-55296707D01*
X61782618Y-55324381D01*
X61792188Y-55353835D01*
X61798281Y-55392302D01*
X61799500Y-55407790D01*
X61799500Y-57235172D01*
X61780593Y-57293363D01*
X61731093Y-57329327D01*
X61669907Y-57329327D01*
X61646977Y-57318457D01*
X61618257Y-57300000D01*
X61590748Y-57282321D01*
X61490822Y-57252980D01*
X61465348Y-57245500D01*
X61465347Y-57245500D01*
X61334653Y-57245500D01*
X61334651Y-57245500D01*
X61209252Y-57282321D01*
X61209247Y-57282323D01*
X61099309Y-57352976D01*
X61099304Y-57352980D01*
X61013719Y-57451749D01*
X60959425Y-57570638D01*
X60959424Y-57570641D01*
X60940826Y-57699997D01*
X60940826Y-57700002D01*
X60959424Y-57829358D01*
X60959425Y-57829361D01*
X61013719Y-57948250D01*
X61056511Y-57997634D01*
X61099305Y-58047021D01*
X61209252Y-58117679D01*
X61334653Y-58154500D01*
X61334654Y-58154500D01*
X61465346Y-58154500D01*
X61465347Y-58154500D01*
X61590748Y-58117679D01*
X61646978Y-58081542D01*
X61706152Y-58065988D01*
X61763168Y-58088187D01*
X61796248Y-58139659D01*
X61799500Y-58164827D01*
X61799500Y-59868497D01*
X61780593Y-59926688D01*
X61731093Y-59962652D01*
X61672609Y-59963487D01*
X61611351Y-59945500D01*
X61611347Y-59945500D01*
X61480653Y-59945500D01*
X61480651Y-59945500D01*
X61355252Y-59982321D01*
X61355247Y-59982323D01*
X61245309Y-60052976D01*
X61245304Y-60052980D01*
X61159719Y-60151749D01*
X61105425Y-60270638D01*
X61105424Y-60270641D01*
X61086826Y-60399997D01*
X61086826Y-60400002D01*
X61105424Y-60529358D01*
X61105425Y-60529361D01*
X61105425Y-60529362D01*
X61105426Y-60529364D01*
X61151385Y-60630001D01*
X61159719Y-60648250D01*
X61202511Y-60697634D01*
X61245305Y-60747021D01*
X61355252Y-60817679D01*
X61480653Y-60854500D01*
X61480654Y-60854500D01*
X61611346Y-60854500D01*
X61611347Y-60854500D01*
X61672608Y-60836512D01*
X61733769Y-60838259D01*
X61782222Y-60875622D01*
X61799500Y-60931502D01*
X61799500Y-62592209D01*
X61798281Y-62607697D01*
X61792188Y-62646164D01*
X61782617Y-62675620D01*
X61769941Y-62700500D01*
X61768520Y-62703288D01*
X61750314Y-62728347D01*
X61728347Y-62750314D01*
X61703289Y-62768518D01*
X61679593Y-62780593D01*
X61675621Y-62782617D01*
X61646164Y-62792188D01*
X61618848Y-62796514D01*
X61607695Y-62798281D01*
X61592210Y-62799500D01*
X54916923Y-62799500D01*
X54858732Y-62780593D01*
X54822768Y-62731093D01*
X54822768Y-62669907D01*
X54826869Y-62659375D01*
X54832902Y-62646164D01*
X54840574Y-62629364D01*
X54850645Y-62559318D01*
X54859174Y-62500002D01*
X54859174Y-62499997D01*
X54840575Y-62370641D01*
X54840574Y-62370638D01*
X54840574Y-62370636D01*
X54786282Y-62251752D01*
X54786280Y-62251750D01*
X54786280Y-62251749D01*
X54750201Y-62210112D01*
X54700695Y-62152979D01*
X54670779Y-62133753D01*
X54590752Y-62082323D01*
X54590749Y-62082322D01*
X54590748Y-62082321D01*
X54528047Y-62063910D01*
X54465348Y-62045500D01*
X54465347Y-62045500D01*
X54334653Y-62045500D01*
X54334651Y-62045500D01*
X54209252Y-62082321D01*
X54209247Y-62082323D01*
X54099309Y-62152976D01*
X54099304Y-62152980D01*
X54013719Y-62251749D01*
X53959425Y-62370638D01*
X53959424Y-62370641D01*
X53947992Y-62450156D01*
X53922136Y-62502743D01*
X53937559Y-62517732D01*
X53947992Y-62549843D01*
X53959424Y-62629358D01*
X53959426Y-62629364D01*
X53973131Y-62659375D01*
X53980105Y-62720162D01*
X53950017Y-62773438D01*
X53894361Y-62798855D01*
X53883077Y-62799500D01*
X53816923Y-62799500D01*
X53758732Y-62780593D01*
X53722768Y-62731093D01*
X53722768Y-62669907D01*
X53726869Y-62659375D01*
X53732902Y-62646164D01*
X53740574Y-62629364D01*
X53740738Y-62628224D01*
X53752008Y-62549843D01*
X53777863Y-62497254D01*
X53762441Y-62482267D01*
X53752008Y-62450156D01*
X53740575Y-62370641D01*
X53740574Y-62370638D01*
X53740574Y-62370636D01*
X53686282Y-62251752D01*
X53686280Y-62251750D01*
X53686280Y-62251749D01*
X53650201Y-62210112D01*
X53600695Y-62152979D01*
X53570779Y-62133753D01*
X53490752Y-62082323D01*
X53490749Y-62082322D01*
X53490748Y-62082321D01*
X53428047Y-62063910D01*
X53365348Y-62045500D01*
X53365347Y-62045500D01*
X53234653Y-62045500D01*
X53234651Y-62045500D01*
X53109252Y-62082321D01*
X53109247Y-62082323D01*
X52999309Y-62152976D01*
X52999304Y-62152980D01*
X52913719Y-62251749D01*
X52859425Y-62370638D01*
X52859424Y-62370641D01*
X52840826Y-62499997D01*
X52840826Y-62500002D01*
X52859424Y-62629358D01*
X52859426Y-62629364D01*
X52873131Y-62659375D01*
X52880105Y-62720162D01*
X52850017Y-62773438D01*
X52794361Y-62798855D01*
X52783077Y-62799500D01*
X51290928Y-62799500D01*
X51281992Y-62796596D01*
X51272474Y-62799500D01*
X51127526Y-62799500D01*
X51120587Y-62797245D01*
X51109072Y-62799500D01*
X50299500Y-62799500D01*
X50241309Y-62780593D01*
X50205345Y-62731093D01*
X50200500Y-62700500D01*
X50200500Y-62647274D01*
X50195701Y-62629364D01*
X50173207Y-62545413D01*
X50157225Y-62517732D01*
X50135624Y-62480318D01*
X50120480Y-62454087D01*
X50045913Y-62379520D01*
X50045910Y-62379518D01*
X50045909Y-62379517D01*
X50040764Y-62375569D01*
X50042287Y-62373583D01*
X50008555Y-62336113D01*
X50000000Y-62295854D01*
X50000000Y-60630000D01*
X50494355Y-60630000D01*
X50514860Y-60798872D01*
X50575182Y-60957930D01*
X50671817Y-61097929D01*
X50777133Y-61191231D01*
X50808152Y-61243970D01*
X50802247Y-61304870D01*
X50777134Y-61339435D01*
X50672195Y-61432403D01*
X50672194Y-61432405D01*
X50575628Y-61572306D01*
X50575626Y-61572309D01*
X50515351Y-61731241D01*
X50515349Y-61731250D01*
X50507000Y-61800000D01*
X50890539Y-61800000D01*
X50875000Y-61842694D01*
X50875000Y-61957306D01*
X50890539Y-62000000D01*
X50507001Y-62000000D01*
X50515349Y-62068749D01*
X50515351Y-62068758D01*
X50575626Y-62227690D01*
X50575628Y-62227693D01*
X50672194Y-62367594D01*
X50672199Y-62367600D01*
X50799431Y-62480318D01*
X50949952Y-62559317D01*
X50949955Y-62559318D01*
X51099999Y-62596301D01*
X51100000Y-62596300D01*
X51100000Y-62212381D01*
X51171564Y-62225000D01*
X51228436Y-62225000D01*
X51300000Y-62212381D01*
X51300000Y-62596301D01*
X51450044Y-62559318D01*
X51450047Y-62559317D01*
X51600568Y-62480318D01*
X51600569Y-62480318D01*
X51727800Y-62367600D01*
X51727805Y-62367594D01*
X51824371Y-62227693D01*
X51824373Y-62227690D01*
X51884648Y-62068758D01*
X51884650Y-62068749D01*
X51892999Y-62000000D01*
X51509461Y-62000000D01*
X51525000Y-61957306D01*
X51525000Y-61842694D01*
X51509461Y-61800000D01*
X51892999Y-61800000D01*
X51884650Y-61731250D01*
X51884648Y-61731241D01*
X51824373Y-61572309D01*
X51824371Y-61572306D01*
X51774464Y-61500002D01*
X57340826Y-61500002D01*
X57359424Y-61629358D01*
X57359425Y-61629361D01*
X57413719Y-61748250D01*
X57456511Y-61797634D01*
X57499305Y-61847021D01*
X57609252Y-61917679D01*
X57734653Y-61954500D01*
X57734654Y-61954500D01*
X57865346Y-61954500D01*
X57865347Y-61954500D01*
X57990748Y-61917679D01*
X58100695Y-61847021D01*
X58186282Y-61748248D01*
X58240574Y-61629364D01*
X58246250Y-61589888D01*
X58259174Y-61500002D01*
X58259174Y-61499997D01*
X58240575Y-61370641D01*
X58240574Y-61370638D01*
X58240574Y-61370636D01*
X58186282Y-61251752D01*
X58186280Y-61251750D01*
X58186280Y-61251749D01*
X58150740Y-61210734D01*
X58100695Y-61152979D01*
X58070779Y-61133753D01*
X57990752Y-61082323D01*
X57990749Y-61082322D01*
X57990748Y-61082321D01*
X57928047Y-61063910D01*
X57865348Y-61045500D01*
X57865347Y-61045500D01*
X57734653Y-61045500D01*
X57734651Y-61045500D01*
X57609252Y-61082321D01*
X57609247Y-61082323D01*
X57499309Y-61152976D01*
X57499304Y-61152980D01*
X57413719Y-61251749D01*
X57359425Y-61370638D01*
X57359424Y-61370641D01*
X57340826Y-61499997D01*
X57340826Y-61500002D01*
X51774464Y-61500002D01*
X51727805Y-61432405D01*
X51727800Y-61432399D01*
X51622866Y-61339435D01*
X51591847Y-61286695D01*
X51597753Y-61225796D01*
X51622863Y-61191233D01*
X51728183Y-61097929D01*
X51824818Y-60957930D01*
X51885140Y-60798872D01*
X51905645Y-60630000D01*
X51885140Y-60461128D01*
X51824818Y-60302070D01*
X51728183Y-60162071D01*
X51623242Y-60069102D01*
X51592224Y-60016363D01*
X51598129Y-59955463D01*
X51623243Y-59920897D01*
X51728183Y-59827929D01*
X51824818Y-59687930D01*
X51885140Y-59528872D01*
X51905645Y-59360000D01*
X51885140Y-59191128D01*
X51824818Y-59032070D01*
X51747597Y-58920196D01*
X51730102Y-58861570D01*
X51750409Y-58803853D01*
X51774071Y-58781646D01*
X51778229Y-58778867D01*
X51778231Y-58778867D01*
X51844552Y-58734552D01*
X51888867Y-58668231D01*
X51900500Y-58609748D01*
X51900500Y-58600002D01*
X59340826Y-58600002D01*
X59359424Y-58729358D01*
X59359425Y-58729361D01*
X59359425Y-58729362D01*
X59359426Y-58729364D01*
X59382033Y-58778867D01*
X59413719Y-58848250D01*
X59450619Y-58890834D01*
X59499305Y-58947021D01*
X59609252Y-59017679D01*
X59734653Y-59054500D01*
X59734654Y-59054500D01*
X59865346Y-59054500D01*
X59865347Y-59054500D01*
X59990748Y-59017679D01*
X60100695Y-58947021D01*
X60186282Y-58848248D01*
X60240574Y-58729364D01*
X60240575Y-58729358D01*
X60259174Y-58600002D01*
X60259174Y-58599997D01*
X60240575Y-58470641D01*
X60240574Y-58470638D01*
X60240574Y-58470636D01*
X60186282Y-58351752D01*
X60186280Y-58351750D01*
X60186280Y-58351749D01*
X60106520Y-58259702D01*
X60100695Y-58252979D01*
X60037739Y-58212520D01*
X59990752Y-58182323D01*
X59990749Y-58182322D01*
X59990748Y-58182321D01*
X59928047Y-58163910D01*
X59865348Y-58145500D01*
X59865347Y-58145500D01*
X59734653Y-58145500D01*
X59734651Y-58145500D01*
X59609252Y-58182321D01*
X59609247Y-58182323D01*
X59499309Y-58252976D01*
X59499304Y-58252980D01*
X59413719Y-58351749D01*
X59359425Y-58470638D01*
X59359424Y-58470641D01*
X59340826Y-58599997D01*
X59340826Y-58600002D01*
X51900500Y-58600002D01*
X51900500Y-57900002D01*
X57040826Y-57900002D01*
X57059424Y-58029358D01*
X57059425Y-58029361D01*
X57059425Y-58029362D01*
X57059426Y-58029364D01*
X57099757Y-58117678D01*
X57113719Y-58148250D01*
X57137245Y-58175400D01*
X57199305Y-58247021D01*
X57309252Y-58317679D01*
X57434653Y-58354500D01*
X57434654Y-58354500D01*
X57565346Y-58354500D01*
X57565347Y-58354500D01*
X57690748Y-58317679D01*
X57800695Y-58247021D01*
X57803210Y-58244119D01*
X57805955Y-58242463D01*
X57806048Y-58242383D01*
X57806061Y-58242399D01*
X57855604Y-58212520D01*
X57916565Y-58217753D01*
X57931548Y-58225658D01*
X57984524Y-58259703D01*
X58109925Y-58296524D01*
X58109926Y-58296524D01*
X58240618Y-58296524D01*
X58240619Y-58296524D01*
X58366020Y-58259703D01*
X58475967Y-58189045D01*
X58561554Y-58090272D01*
X58572242Y-58066867D01*
X58613611Y-58021791D01*
X58673577Y-58009638D01*
X58696000Y-58015875D01*
X58696057Y-58015684D01*
X58702848Y-58017678D01*
X58702850Y-58017679D01*
X58828251Y-58054500D01*
X58828252Y-58054500D01*
X58958944Y-58054500D01*
X58958945Y-58054500D01*
X59084346Y-58017679D01*
X59194293Y-57947021D01*
X59279880Y-57848248D01*
X59334172Y-57729364D01*
X59338394Y-57700000D01*
X59352772Y-57600002D01*
X59352772Y-57599997D01*
X59334173Y-57470641D01*
X59334172Y-57470638D01*
X59334172Y-57470636D01*
X59279880Y-57351752D01*
X59279878Y-57351750D01*
X59279878Y-57351749D01*
X59244879Y-57311358D01*
X59194293Y-57252979D01*
X59164377Y-57233753D01*
X59084350Y-57182323D01*
X59084347Y-57182322D01*
X59084346Y-57182321D01*
X59013944Y-57161649D01*
X58958946Y-57145500D01*
X58958945Y-57145500D01*
X58828251Y-57145500D01*
X58828249Y-57145500D01*
X58702850Y-57182321D01*
X58702845Y-57182323D01*
X58592907Y-57252976D01*
X58592902Y-57252980D01*
X58507316Y-57351751D01*
X58496627Y-57375157D01*
X58455255Y-57420234D01*
X58395288Y-57432385D01*
X58372869Y-57426148D01*
X58372813Y-57426340D01*
X58366021Y-57424345D01*
X58366020Y-57424345D01*
X58296720Y-57403996D01*
X58240620Y-57387524D01*
X58240619Y-57387524D01*
X58109925Y-57387524D01*
X58109923Y-57387524D01*
X57984524Y-57424345D01*
X57984519Y-57424347D01*
X57874576Y-57495002D01*
X57872053Y-57497915D01*
X57869300Y-57499574D01*
X57869225Y-57499640D01*
X57869213Y-57499626D01*
X57819654Y-57529506D01*
X57758693Y-57524265D01*
X57743716Y-57516361D01*
X57690752Y-57482323D01*
X57690749Y-57482322D01*
X57690748Y-57482321D01*
X57628047Y-57463910D01*
X57565348Y-57445500D01*
X57565347Y-57445500D01*
X57434653Y-57445500D01*
X57434651Y-57445500D01*
X57309252Y-57482321D01*
X57309247Y-57482323D01*
X57199309Y-57552976D01*
X57199304Y-57552980D01*
X57113719Y-57651749D01*
X57059425Y-57770638D01*
X57059424Y-57770641D01*
X57040826Y-57899997D01*
X57040826Y-57900002D01*
X51900500Y-57900002D01*
X51900500Y-57570252D01*
X51888867Y-57511769D01*
X51844552Y-57445448D01*
X51844548Y-57445445D01*
X51778233Y-57401134D01*
X51778231Y-57401133D01*
X51778228Y-57401132D01*
X51778227Y-57401132D01*
X51719758Y-57389501D01*
X51719748Y-57389500D01*
X50680252Y-57389500D01*
X50680251Y-57389500D01*
X50680241Y-57389501D01*
X50621772Y-57401132D01*
X50621766Y-57401134D01*
X50555451Y-57445445D01*
X50555445Y-57445451D01*
X50511134Y-57511766D01*
X50511132Y-57511772D01*
X50499501Y-57570241D01*
X50499500Y-57570253D01*
X50499500Y-58609746D01*
X50499501Y-58609758D01*
X50511132Y-58668227D01*
X50511133Y-58668231D01*
X50555448Y-58734552D01*
X50555451Y-58734554D01*
X50625928Y-58781646D01*
X50663807Y-58829696D01*
X50666209Y-58890834D01*
X50652401Y-58920199D01*
X50575182Y-59032070D01*
X50514860Y-59191128D01*
X50494355Y-59360000D01*
X50514860Y-59528872D01*
X50575182Y-59687930D01*
X50671817Y-59827929D01*
X50671820Y-59827931D01*
X50671823Y-59827935D01*
X50776756Y-59920898D01*
X50807775Y-59973638D01*
X50801869Y-60034537D01*
X50776756Y-60069102D01*
X50671823Y-60162064D01*
X50671819Y-60162069D01*
X50671817Y-60162071D01*
X50575182Y-60302070D01*
X50514860Y-60461128D01*
X50494355Y-60630000D01*
X50000000Y-60630000D01*
X50000000Y-57595617D01*
X50018907Y-57537426D01*
X50023838Y-57531652D01*
X50036032Y-57516361D01*
X50111675Y-57421507D01*
X50170389Y-57299588D01*
X50200500Y-57167660D01*
X50200500Y-57100000D01*
X50200500Y-57060118D01*
X50200500Y-56644746D01*
X50574500Y-56644746D01*
X50574501Y-56644758D01*
X50586132Y-56703227D01*
X50586134Y-56703233D01*
X50625844Y-56762662D01*
X50630448Y-56769552D01*
X50696769Y-56813867D01*
X50741231Y-56822711D01*
X50755241Y-56825498D01*
X50755246Y-56825498D01*
X50755252Y-56825500D01*
X50755253Y-56825500D01*
X51644747Y-56825500D01*
X51644748Y-56825500D01*
X51703231Y-56813867D01*
X51769552Y-56769552D01*
X51769554Y-56769548D01*
X51776441Y-56762662D01*
X51830956Y-56734882D01*
X51891389Y-56744452D01*
X51892433Y-56744991D01*
X51976566Y-56789148D01*
X52124051Y-56825500D01*
X52124054Y-56825500D01*
X52275946Y-56825500D01*
X52275949Y-56825500D01*
X52423434Y-56789148D01*
X52557934Y-56718557D01*
X52634351Y-56650858D01*
X52690445Y-56626423D01*
X52750189Y-56639626D01*
X52765649Y-56650858D01*
X52842066Y-56718557D01*
X52976566Y-56789148D01*
X53124051Y-56825500D01*
X53124054Y-56825500D01*
X53275946Y-56825500D01*
X53275949Y-56825500D01*
X53423434Y-56789148D01*
X53557934Y-56718557D01*
X53634351Y-56650858D01*
X53690445Y-56626423D01*
X53750189Y-56639626D01*
X53765649Y-56650858D01*
X53842066Y-56718557D01*
X53976566Y-56789148D01*
X54124051Y-56825500D01*
X54124054Y-56825500D01*
X54275946Y-56825500D01*
X54275949Y-56825500D01*
X54423434Y-56789148D01*
X54557934Y-56718557D01*
X54634351Y-56650858D01*
X54690445Y-56626423D01*
X54750189Y-56639626D01*
X54765649Y-56650858D01*
X54842066Y-56718557D01*
X54976566Y-56789148D01*
X55124051Y-56825500D01*
X55124054Y-56825500D01*
X55192987Y-56825500D01*
X55251178Y-56844407D01*
X55287142Y-56893907D01*
X55287142Y-56955093D01*
X55267806Y-56989331D01*
X55213719Y-57051749D01*
X55159425Y-57170638D01*
X55159424Y-57170641D01*
X55140826Y-57299997D01*
X55140826Y-57300002D01*
X55159424Y-57429358D01*
X55159425Y-57429361D01*
X55159425Y-57429362D01*
X55159426Y-57429364D01*
X55213718Y-57548248D01*
X55213719Y-57548250D01*
X55254763Y-57595617D01*
X55299305Y-57647021D01*
X55409252Y-57717679D01*
X55534653Y-57754500D01*
X55534654Y-57754500D01*
X55665346Y-57754500D01*
X55665347Y-57754500D01*
X55790748Y-57717679D01*
X55900695Y-57647021D01*
X55986282Y-57548248D01*
X56040574Y-57429364D01*
X56041009Y-57426340D01*
X56059174Y-57300002D01*
X56059174Y-57299997D01*
X56040575Y-57170641D01*
X56040574Y-57170638D01*
X56040574Y-57170636D01*
X55986282Y-57051752D01*
X55986280Y-57051750D01*
X55986280Y-57051749D01*
X55903106Y-56955761D01*
X55879288Y-56899402D01*
X55893147Y-56839806D01*
X55939387Y-56799739D01*
X56000348Y-56794503D01*
X56001618Y-56794807D01*
X56100000Y-56819056D01*
X56100000Y-56433854D01*
X56102455Y-56435495D01*
X56175376Y-56450000D01*
X56224624Y-56450000D01*
X56297545Y-56435495D01*
X56300000Y-56433854D01*
X56300000Y-56819057D01*
X56423254Y-56788677D01*
X56557649Y-56718140D01*
X56671254Y-56617496D01*
X56671254Y-56617495D01*
X56757473Y-56492585D01*
X56811294Y-56350670D01*
X56811294Y-56350669D01*
X56817448Y-56300000D01*
X56433855Y-56300000D01*
X56435495Y-56297545D01*
X56454898Y-56200000D01*
X56435495Y-56102455D01*
X56433855Y-56100000D01*
X56817447Y-56100000D01*
X56811294Y-56049330D01*
X56811294Y-56049329D01*
X56757473Y-55907414D01*
X56671254Y-55782504D01*
X56671254Y-55782503D01*
X56557649Y-55681859D01*
X56423256Y-55611323D01*
X56300000Y-55580942D01*
X56300000Y-55966145D01*
X56297545Y-55964505D01*
X56224624Y-55950000D01*
X56175376Y-55950000D01*
X56102455Y-55964505D01*
X56100000Y-55966145D01*
X56100000Y-55580942D01*
X56099999Y-55580942D01*
X55976743Y-55611323D01*
X55842350Y-55681859D01*
X55766026Y-55749476D01*
X55709931Y-55773911D01*
X55650188Y-55760708D01*
X55634728Y-55749476D01*
X55575230Y-55696766D01*
X55557934Y-55681443D01*
X55423434Y-55610852D01*
X55423433Y-55610851D01*
X55423432Y-55610851D01*
X55275951Y-55574500D01*
X55275949Y-55574500D01*
X55124051Y-55574500D01*
X55124048Y-55574500D01*
X54976567Y-55610851D01*
X54842064Y-55681444D01*
X54765649Y-55749142D01*
X54709555Y-55773577D01*
X54649811Y-55760374D01*
X54634351Y-55749142D01*
X54575230Y-55696766D01*
X54557934Y-55681443D01*
X54423434Y-55610852D01*
X54423433Y-55610851D01*
X54423432Y-55610851D01*
X54275951Y-55574500D01*
X54275949Y-55574500D01*
X54124051Y-55574500D01*
X54124048Y-55574500D01*
X53976567Y-55610851D01*
X53842064Y-55681444D01*
X53765649Y-55749142D01*
X53709555Y-55773577D01*
X53649811Y-55760374D01*
X53634351Y-55749142D01*
X53575230Y-55696766D01*
X53557934Y-55681443D01*
X53423434Y-55610852D01*
X53423433Y-55610851D01*
X53423432Y-55610851D01*
X53275951Y-55574500D01*
X53275949Y-55574500D01*
X53124051Y-55574500D01*
X53124048Y-55574500D01*
X52976567Y-55610851D01*
X52842064Y-55681444D01*
X52765649Y-55749142D01*
X52709555Y-55773577D01*
X52649811Y-55760374D01*
X52634351Y-55749142D01*
X52575230Y-55696766D01*
X52557934Y-55681443D01*
X52423434Y-55610852D01*
X52423433Y-55610851D01*
X52423432Y-55610851D01*
X52275951Y-55574500D01*
X52275949Y-55574500D01*
X52124051Y-55574500D01*
X52124048Y-55574500D01*
X51976569Y-55610850D01*
X51892454Y-55654997D01*
X51832142Y-55665297D01*
X51777294Y-55638180D01*
X51776443Y-55637340D01*
X51769554Y-55630451D01*
X51769552Y-55630448D01*
X51740225Y-55610852D01*
X51703233Y-55586134D01*
X51703231Y-55586133D01*
X51703228Y-55586132D01*
X51703227Y-55586132D01*
X51644758Y-55574501D01*
X51644748Y-55574500D01*
X50755252Y-55574500D01*
X50755251Y-55574500D01*
X50755241Y-55574501D01*
X50696772Y-55586132D01*
X50696766Y-55586134D01*
X50630451Y-55630445D01*
X50630445Y-55630451D01*
X50586134Y-55696766D01*
X50586132Y-55696772D01*
X50574501Y-55755241D01*
X50574500Y-55755253D01*
X50574500Y-56644746D01*
X50200500Y-56644746D01*
X50200500Y-55407790D01*
X50201719Y-55392304D01*
X50207811Y-55353837D01*
X50217379Y-55324387D01*
X50231485Y-55296702D01*
X50249682Y-55271655D01*
X50271655Y-55249682D01*
X50296702Y-55231485D01*
X50324387Y-55217379D01*
X50353835Y-55207811D01*
X50382883Y-55203210D01*
X50392304Y-55201719D01*
X50407790Y-55200500D01*
X50439882Y-55200500D01*
X61560118Y-55200500D01*
X61592210Y-55200500D01*
X61607696Y-55201719D01*
G37*
%TD.AperFunction*%
%TD*%
M02*
