  0
SECTION
  2
HEADER
  9
$ANGBASE
  50
0.0
  9
$ANGDIR
  70
1
  9
$MEASUREMENT
  70
0
  0
ENDSEC
  0
SECTION
  2
TABLES
  0
TABLE
  2
LTYPE
  70
4
  0
LTYPE
  5
40F
  2
CONTINUOUS
  70
0
  3
Solid line
  72
65
  73
0
  40
0.0
  0
LTYPE
  5
410
  2
DASHDOT
 70
0
  3
Dash Dot ____ _ ____ _
 72
65
 73
4
 40
2.0
 49
1.25
 49
-0.25
 49
0.25
 49
-0.25
  0
LTYPE
  5
411
  2
DASHED
 70
0
  3
Dashed __ __ __ __ __
 72
65
 73
2
 40
0.75
 49
0.5
 49
-0.25
  0
LTYPE
  5
43B
  2
DOTTED
 70
0
  3
Dotted .  .  .  .
 72
65
 73
2
 40
0.2
 49
0.0
 49
-0.2
  0
ENDTAB
  0
TABLE
  2
STYLE
  70
4
  0
STYLE
  2
KICAD
  70
0
  40
0
  41
1
  42
1
  50
0
  71
0
  3
isocp.shx
  0
STYLE
  2
KICADB
  70
0
  40
0
  41
1
  42
1
  50
0
  71
0
  3
isocp.shx
  0
STYLE
  2
KICADI
  70
0
  40
0
  41
1
  42
1
  50
15
  71
0
  3
isocp.shx
  0
STYLE
  2
KICADBI
  70
0
  40
0
  41
1
  42
1
  50
15
  71
0
  3
isocp.shx
  0
ENDTAB
  0
TABLE
  2
LAYER
  70
1
  0
LAYER
  2
BLACK
  70
0
  62
7
  6
CONTINUOUS
  0
ENDTAB
  0
ENDSEC
  0
SECTION
  2
ENTITIES
0
LINE
8
BLACK
6
CONTINUOUS
10
1.97638
20
-1.92126
11
1.97777
21
-1.92184
0
LINE
8
BLACK
6
CONTINUOUS
10
1.97777
20
-1.92184
11
2.01714
21
-1.96121
0
LINE
8
BLACK
6
CONTINUOUS
10
2.01714
20
-1.96121
11
2.01772
21
-1.9626
0
LINE
8
BLACK
6
CONTINUOUS
10
2.01772
20
-1.9626
11
2.01772
21
-2.01181
0
LINE
8
BLACK
6
CONTINUOUS
10
2.01772
20
-2.01181
11
2.01714
21
-2.0132
0
LINE
8
BLACK
6
CONTINUOUS
10
2.01714
20
-2.0132
11
2.01575
21
-2.01378
0
LINE
8
BLACK
6
CONTINUOUS
10
2.01575
20
-2.01378
11
1.91732
21
-2.01378
0
LINE
8
BLACK
6
CONTINUOUS
10
1.91732
20
-2.01378
11
1.91593
21
-2.0132
0
LINE
8
BLACK
6
CONTINUOUS
10
1.91593
20
-2.0132
11
1.91535
21
-2.01181
0
LINE
8
BLACK
6
CONTINUOUS
10
1.91535
20
-2.01181
11
1.91535
21
-2.01181
0
LINE
8
BLACK
6
CONTINUOUS
10
1.91535
20
-2.01181
11
1.91535
21
-1.92323
0
LINE
8
BLACK
6
CONTINUOUS
10
1.91535
20
-1.92323
11
1.91593
21
-1.92184
0
LINE
8
BLACK
6
CONTINUOUS
10
1.91593
20
-1.92184
11
1.91732
21
-1.92126
0
LINE
8
BLACK
6
CONTINUOUS
10
1.91732
20
-1.92126
11
1.97638
21
-1.92126
0
LINE
8
BLACK
6
CONTINUOUS
10
1.91929
20
-1.9252
11
1.91929
21
-2.00984
0
LINE
8
BLACK
6
CONTINUOUS
10
1.91929
20
-2.00984
11
2.01378
21
-2.00984
0
LINE
8
BLACK
6
CONTINUOUS
10
2.01378
20
-2.00984
11
2.01378
21
-1.96341
0
LINE
8
BLACK
6
CONTINUOUS
10
2.01378
20
-1.96341
11
1.97556
21
-1.9252
0
LINE
8
BLACK
6
CONTINUOUS
10
1.97556
20
-1.9252
11
1.91929
21
-1.9252
0
LINE
8
BLACK
6
CONTINUOUS
10
2.04921
20
-1.86417
11
2.0506
21
-1.86475
0
LINE
8
BLACK
6
CONTINUOUS
10
2.0506
20
-1.86475
11
2.05118
21
-1.86614
0
LINE
8
BLACK
6
CONTINUOUS
10
2.05118
20
-1.86614
11
2.05118
21
-2.07087
0
LINE
8
BLACK
6
CONTINUOUS
10
2.05118
20
-2.07087
11
2.0506
21
-2.07226
0
LINE
8
BLACK
6
CONTINUOUS
10
2.0506
20
-2.07226
11
2.04921
21
-2.07283
0
LINE
8
BLACK
6
CONTINUOUS
10
2.04921
20
-2.07283
11
1.8878
21
-2.07283
0
LINE
8
BLACK
6
CONTINUOUS
10
1.8878
20
-2.07283
11
1.8864
21
-2.07226
0
LINE
8
BLACK
6
CONTINUOUS
10
1.8864
20
-2.07226
11
1.88583
21
-2.07087
0
LINE
8
BLACK
6
CONTINUOUS
10
1.88583
20
-2.07087
11
1.88583
21
-1.86614
0
LINE
8
BLACK
6
CONTINUOUS
10
1.88583
20
-1.86614
11
1.8864
21
-1.86475
0
LINE
8
BLACK
6
CONTINUOUS
10
1.8864
20
-1.86475
11
1.8878
21
-1.86417
0
LINE
8
BLACK
6
CONTINUOUS
10
1.8878
20
-1.86417
11
2.04921
21
-1.86417
0
LINE
8
BLACK
6
CONTINUOUS
10
1.88976
20
-1.86811
11
1.88976
21
-2.0689
0
LINE
8
BLACK
6
CONTINUOUS
10
1.88976
20
-2.0689
11
2.04724
21
-2.0689
0
LINE
8
BLACK
6
CONTINUOUS
10
2.04724
20
-2.0689
11
2.04724
21
-1.86811
0
LINE
8
BLACK
6
CONTINUOUS
10
2.04724
20
-1.86811
11
1.88976
21
-1.86811
0
LINE
8
BLACK
6
CONTINUOUS
10
15.8586
20
-2.01664
11
15.8593
21
-2.01831
0
LINE
8
BLACK
6
CONTINUOUS
10
15.8593
20
-2.01831
11
15.8593
21
-2.02087
0
LINE
8
BLACK
6
CONTINUOUS
10
15.8593
20
-2.02087
11
15.8586
21
-2.02254
0
LINE
8
BLACK
6
CONTINUOUS
10
15.8586
20
-2.02254
11
15.8569
21
-2.02323
0
LINE
8
BLACK
6
CONTINUOUS
10
15.8569
20
-2.02323
11
15.7179
21
-2.02323
0
LINE
8
BLACK
6
CONTINUOUS
10
15.7179
20
-2.02323
11
15.7162
21
-2.02254
0
LINE
8
BLACK
6
CONTINUOUS
10
15.7162
20
-2.02254
11
15.7156
21
-2.02087
0
LINE
8
BLACK
6
CONTINUOUS
10
15.7156
20
-2.02087
11
15.7156
21
-2.02087
0
LINE
8
BLACK
6
CONTINUOUS
10
15.7156
20
-2.02087
11
15.7156
21
-2.01831
0
LINE
8
BLACK
6
CONTINUOUS
10
15.7156
20
-2.01831
11
15.7162
21
-2.01664
0
LINE
8
BLACK
6
CONTINUOUS
10
15.7162
20
-2.01664
11
15.7179
21
-2.01594
0
LINE
8
BLACK
6
CONTINUOUS
10
15.7179
20
-2.01594
11
15.7196
21
-2.01664
0
LINE
8
BLACK
6
CONTINUOUS
10
15.7196
20
-2.01664
11
15.7203
21
-2.01831
0
LINE
8
BLACK
6
CONTINUOUS
10
15.7203
20
-2.01831
11
15.7203
21
-2.0185
0
LINE
8
BLACK
6
CONTINUOUS
10
15.7203
20
-2.0185
11
15.8545
21
-2.0185
0
LINE
8
BLACK
6
CONTINUOUS
10
15.8545
20
-2.0185
11
15.8545
21
-2.01831
0
LINE
8
BLACK
6
CONTINUOUS
10
15.8545
20
-2.01831
11
15.8552
21
-2.01664
0
LINE
8
BLACK
6
CONTINUOUS
10
15.8552
20
-2.01664
11
15.8569
21
-2.01594
0
LINE
8
BLACK
6
CONTINUOUS
10
15.8569
20
-2.01594
11
15.8586
21
-2.01664
0
LINE
8
BLACK
6
CONTINUOUS
10
15.5354
20
-1.94613
11
15.5361
21
-1.94802
0
LINE
8
BLACK
6
CONTINUOUS
10
15.5361
20
-1.94802
11
15.5361
21
-1.97615
0
LINE
8
BLACK
6
CONTINUOUS
10
15.5361
20
-1.97615
11
15.5359
21
-1.97702
0
LINE
8
BLACK
6
CONTINUOUS
10
15.5359
20
-1.97702
11
15.5359
21
-1.97708
0
LINE
8
BLACK
6
CONTINUOUS
10
15.5359
20
-1.97708
11
15.5341
21
-1.9827
0
LINE
8
BLACK
6
CONTINUOUS
10
15.5341
20
-1.9827
11
15.5336
21
-1.98361
0
LINE
8
BLACK
6
CONTINUOUS
10
15.5336
20
-1.98361
11
15.5334
21
-1.9837
0
LINE
8
BLACK
6
CONTINUOUS
10
15.5334
20
-1.9837
11
15.5333
21
-1.98386
0
LINE
8
BLACK
6
CONTINUOUS
10
15.5333
20
-1.98386
11
15.5296
21
-1.98761
0
LINE
8
BLACK
6
CONTINUOUS
10
15.5296
20
-1.98761
11
15.5288
21
-1.9882
0
LINE
8
BLACK
6
CONTINUOUS
10
15.5288
20
-1.9882
11
15.5286
21
-1.98821
0
LINE
8
BLACK
6
CONTINUOUS
10
15.5286
20
-1.98821
11
15.5284
21
-1.98832
0
LINE
8
BLACK
6
CONTINUOUS
10
15.5284
20
-1.98832
11
15.5228
21
-1.9902
0
LINE
8
BLACK
6
CONTINUOUS
10
15.5228
20
-1.9902
11
15.5219
21
-1.99033
0
LINE
8
BLACK
6
CONTINUOUS
10
15.5219
20
-1.99033
11
15.5219
21
-1.99035
0
LINE
8
BLACK
6
CONTINUOUS
10
15.5219
20
-1.99035
11
15.5181
21
-1.99035
0
LINE
8
BLACK
6
CONTINUOUS
10
15.5181
20
-1.99035
11
15.5171
21
-1.99017
0
LINE
8
BLACK
6
CONTINUOUS
10
15.5171
20
-1.99017
11
15.5156
21
-1.98887
0
LINE
8
BLACK
6
CONTINUOUS
10
15.5156
20
-1.98887
11
15.5152
21
-1.98688
0
LINE
8
BLACK
6
CONTINUOUS
10
15.5152
20
-1.98688
11
15.5162
21
-1.98513
0
LINE
8
BLACK
6
CONTINUOUS
10
15.5162
20
-1.98513
11
15.5181
21
-1.98444
0
LINE
8
BLACK
6
CONTINUOUS
10
15.5181
20
-1.98444
11
15.5214
21
-1.98444
0
LINE
8
BLACK
6
CONTINUOUS
10
15.5214
20
-1.98444
11
15.5259
21
-1.98294
0
LINE
8
BLACK
6
CONTINUOUS
10
15.5259
20
-1.98294
11
15.5287
21
-1.98018
0
LINE
8
BLACK
6
CONTINUOUS
10
15.5287
20
-1.98018
11
15.5302
21
-1.97567
0
LINE
8
BLACK
6
CONTINUOUS
10
15.5302
20
-1.97567
11
15.5302
21
-1.94802
0
LINE
8
BLACK
6
CONTINUOUS
10
15.5302
20
-1.94802
11
15.5304
21
-1.94701
0
LINE
8
BLACK
6
CONTINUOUS
10
15.5304
20
-1.94701
11
15.5317
21
-1.94547
0
LINE
8
BLACK
6
CONTINUOUS
10
15.5317
20
-1.94547
11
15.5336
21
-1.94512
0
LINE
8
BLACK
6
CONTINUOUS
10
15.5336
20
-1.94512
11
15.5354
21
-1.94613
0
LINE
8
BLACK
6
CONTINUOUS
10
15.5616
20
-1.94515
11
15.5618
21
-1.94512
0
LINE
8
BLACK
6
CONTINUOUS
10
15.5618
20
-1.94512
11
15.5625
21
-1.94554
0
LINE
8
BLACK
6
CONTINUOUS
10
15.5625
20
-1.94554
11
15.5633
21
-1.94589
0
LINE
8
BLACK
6
CONTINUOUS
10
15.5633
20
-1.94589
11
15.5634
21
-1.94604
0
LINE
8
BLACK
6
CONTINUOUS
10
15.5634
20
-1.94604
11
15.5635
21
-1.94613
0
LINE
8
BLACK
6
CONTINUOUS
10
15.5635
20
-1.94613
11
15.5638
21
-1.94693
0
LINE
8
BLACK
6
CONTINUOUS
10
15.5638
20
-1.94693
11
15.5642
21
-1.9477
0
LINE
8
BLACK
6
CONTINUOUS
10
15.5642
20
-1.9477
11
15.5642
21
-1.94786
0
LINE
8
BLACK
6
CONTINUOUS
10
15.5642
20
-1.94786
11
15.5642
21
-1.94802
0
LINE
8
BLACK
6
CONTINUOUS
10
15.5642
20
-1.94802
11
15.5642
21
-1.98444
0
LINE
8
BLACK
6
CONTINUOUS
10
15.5642
20
-1.98444
11
15.5725
21
-1.98444
0
LINE
8
BLACK
6
CONTINUOUS
10
15.5725
20
-1.98444
11
15.5735
21
-1.98462
0
LINE
8
BLACK
6
CONTINUOUS
10
15.5735
20
-1.98462
11
15.5751
21
-1.98592
0
LINE
8
BLACK
6
CONTINUOUS
10
15.5751
20
-1.98592
11
15.5754
21
-1.98791
0
LINE
8
BLACK
6
CONTINUOUS
10
15.5754
20
-1.98791
11
15.5744
21
-1.98966
0
LINE
8
BLACK
6
CONTINUOUS
10
15.5744
20
-1.98966
11
15.5725
21
-1.99035
0
LINE
8
BLACK
6
CONTINUOUS
10
15.5725
20
-1.99035
11
15.55
21
-1.99035
0
LINE
8
BLACK
6
CONTINUOUS
10
15.55
20
-1.99035
11
15.549
21
-1.99017
0
LINE
8
BLACK
6
CONTINUOUS
10
15.549
20
-1.99017
11
15.5475
21
-1.98887
0
LINE
8
BLACK
6
CONTINUOUS
10
15.5475
20
-1.98887
11
15.5471
21
-1.98688
0
LINE
8
BLACK
6
CONTINUOUS
10
15.5471
20
-1.98688
11
15.5481
21
-1.98513
0
LINE
8
BLACK
6
CONTINUOUS
10
15.5481
20
-1.98513
11
15.55
21
-1.98444
0
LINE
8
BLACK
6
CONTINUOUS
10
15.55
20
-1.98444
11
15.5583
21
-1.98444
0
LINE
8
BLACK
6
CONTINUOUS
10
15.5583
20
-1.98444
11
15.5583
21
-1.95703
0
LINE
8
BLACK
6
CONTINUOUS
10
15.5583
20
-1.95703
11
15.5558
21
-1.95949
0
LINE
8
BLACK
6
CONTINUOUS
10
15.5558
20
-1.95949
11
15.5551
21
-1.95999
0
LINE
8
BLACK
6
CONTINUOUS
10
15.5551
20
-1.95999
11
15.5551
21
-1.96004
0
LINE
8
BLACK
6
CONTINUOUS
10
15.5551
20
-1.96004
11
15.5513
21
-1.96191
0
LINE
8
BLACK
6
CONTINUOUS
10
15.5513
20
-1.96191
11
15.5503
21
-1.96221
0
LINE
8
BLACK
6
CONTINUOUS
10
15.5503
20
-1.96221
11
15.5484
21
-1.96174
0
LINE
8
BLACK
6
CONTINUOUS
10
15.5484
20
-1.96174
11
15.5472
21
-1.96011
0
LINE
8
BLACK
6
CONTINUOUS
10
15.5472
20
-1.96011
11
15.5473
21
-1.9581
0
LINE
8
BLACK
6
CONTINUOUS
10
15.5473
20
-1.9581
11
15.5487
21
-1.95663
0
LINE
8
BLACK
6
CONTINUOUS
10
15.5487
20
-1.95663
11
15.552
21
-1.95497
0
LINE
8
BLACK
6
CONTINUOUS
10
15.552
20
-1.95497
11
15.5552
21
-1.95177
0
LINE
8
BLACK
6
CONTINUOUS
10
15.5552
20
-1.95177
11
15.5588
21
-1.94639
0
LINE
8
BLACK
6
CONTINUOUS
10
15.5588
20
-1.94639
11
15.5595
21
-1.94564
0
LINE
8
BLACK
6
CONTINUOUS
10
15.5595
20
-1.94564
11
15.5597
21
-1.9456
0
LINE
8
BLACK
6
CONTINUOUS
10
15.5597
20
-1.9456
11
15.5598
21
-1.94547
0
LINE
8
BLACK
6
CONTINUOUS
10
15.5598
20
-1.94547
11
15.5606
21
-1.94532
0
LINE
8
BLACK
6
CONTINUOUS
10
15.5606
20
-1.94532
11
15.5614
21
-1.94508
0
LINE
8
BLACK
6
CONTINUOUS
10
15.5614
20
-1.94508
11
15.5616
21
-1.94515
0
LINE
8
BLACK
6
CONTINUOUS
10
2.18675
20
-1.94486
11
2.18688
21
-1.94497
0
LINE
8
BLACK
6
CONTINUOUS
10
2.18688
20
-1.94497
11
2.18706
21
-1.94499
0
LINE
8
BLACK
6
CONTINUOUS
10
2.18706
20
-1.94499
11
2.19081
21
-1.94686
0
LINE
8
BLACK
6
CONTINUOUS
10
2.19081
20
-1.94686
11
2.19152
21
-1.94739
0
LINE
8
BLACK
6
CONTINUOUS
10
2.19152
20
-1.94739
11
2.19157
21
-1.94742
0
LINE
8
BLACK
6
CONTINUOUS
10
2.19157
20
-1.94742
11
2.19532
21
-1.95117
0
LINE
8
BLACK
6
CONTINUOUS
10
2.19532
20
-1.95117
11
2.19591
21
-1.95201
0
LINE
8
BLACK
6
CONTINUOUS
10
2.19591
20
-1.95201
11
2.19594
21
-1.9523
0
LINE
8
BLACK
6
CONTINUOUS
10
2.19594
20
-1.9523
11
2.1961
21
-1.95254
0
LINE
8
BLACK
6
CONTINUOUS
10
2.1961
20
-1.95254
11
2.19798
21
-1.96004
0
LINE
8
BLACK
6
CONTINUOUS
10
2.19798
20
-1.96004
11
2.19802
21
-1.96063
0
LINE
8
BLACK
6
CONTINUOUS
10
2.19802
20
-1.96063
11
2.19806
21
-1.96075
0
LINE
8
BLACK
6
CONTINUOUS
10
2.19806
20
-1.96075
11
2.19806
21
-1.97388
0
LINE
8
BLACK
6
CONTINUOUS
10
2.19806
20
-1.97388
11
2.19796
21
-1.97446
0
LINE
8
BLACK
6
CONTINUOUS
10
2.19796
20
-1.97446
11
2.19798
21
-1.97459
0
LINE
8
BLACK
6
CONTINUOUS
10
2.19798
20
-1.97459
11
2.1961
21
-1.98209
0
LINE
8
BLACK
6
CONTINUOUS
10
2.1961
20
-1.98209
11
2.19568
21
-1.98303
0
LINE
8
BLACK
6
CONTINUOUS
10
2.19568
20
-1.98303
11
2.19545
21
-1.9832
0
LINE
8
BLACK
6
CONTINUOUS
10
2.19545
20
-1.9832
11
2.19532
21
-1.98346
0
LINE
8
BLACK
6
CONTINUOUS
10
2.19532
20
-1.98346
11
2.19157
21
-1.98721
0
LINE
8
BLACK
6
CONTINUOUS
10
2.19157
20
-1.98721
11
2.19085
21
-1.98772
0
LINE
8
BLACK
6
CONTINUOUS
10
2.19085
20
-1.98772
11
2.19081
21
-1.98777
0
LINE
8
BLACK
6
CONTINUOUS
10
2.19081
20
-1.98777
11
2.18706
21
-1.98964
0
LINE
8
BLACK
6
CONTINUOUS
10
2.18706
20
-1.98964
11
2.18607
21
-1.98993
0
LINE
8
BLACK
6
CONTINUOUS
10
2.18607
20
-1.98993
11
2.1859
21
-1.98989
0
LINE
8
BLACK
6
CONTINUOUS
10
2.1859
20
-1.98989
11
2.18574
21
-1.98995
0
LINE
8
BLACK
6
CONTINUOUS
10
2.18574
20
-1.98995
11
2.17824
21
-1.98995
0
LINE
8
BLACK
6
CONTINUOUS
10
2.17824
20
-1.98995
11
2.17723
21
-1.98978
0
LINE
8
BLACK
6
CONTINUOUS
10
2.17723
20
-1.98978
11
2.17709
21
-1.98966
0
LINE
8
BLACK
6
CONTINUOUS
10
2.17709
20
-1.98966
11
2.17692
21
-1.98964
0
LINE
8
BLACK
6
CONTINUOUS
10
2.17692
20
-1.98964
11
2.17317
21
-1.98777
0
LINE
8
BLACK
6
CONTINUOUS
10
2.17317
20
-1.98777
11
2.17246
21
-1.98724
0
LINE
8
BLACK
6
CONTINUOUS
10
2.17246
20
-1.98724
11
2.1724
21
-1.98721
0
LINE
8
BLACK
6
CONTINUOUS
10
2.1724
20
-1.98721
11
2.16865
21
-1.98346
0
LINE
8
BLACK
6
CONTINUOUS
10
2.16865
20
-1.98346
11
2.16806
21
-1.98262
0
LINE
8
BLACK
6
CONTINUOUS
10
2.16806
20
-1.98262
11
2.16804
21
-1.98233
0
LINE
8
BLACK
6
CONTINUOUS
10
2.16804
20
-1.98233
11
2.16787
21
-1.98209
0
LINE
8
BLACK
6
CONTINUOUS
10
2.16787
20
-1.98209
11
2.166
21
-1.97459
0
LINE
8
BLACK
6
CONTINUOUS
10
2.166
20
-1.97459
11
2.16596
21
-1.97401
0
LINE
8
BLACK
6
CONTINUOUS
10
2.16596
20
-1.97401
11
2.16591
21
-1.97388
0
LINE
8
BLACK
6
CONTINUOUS
10
2.16591
20
-1.97388
11
2.16591
21
-1.96075
0
LINE
8
BLACK
6
CONTINUOUS
10
2.16591
20
-1.96075
11
2.16601
21
-1.96017
0
LINE
8
BLACK
6
CONTINUOUS
10
2.16601
20
-1.96017
11
2.166
21
-1.96004
0
LINE
8
BLACK
6
CONTINUOUS
10
2.166
20
-1.96004
11
2.16787
21
-1.95254
0
LINE
8
BLACK
6
CONTINUOUS
10
2.16787
20
-1.95254
11
2.16829
21
-1.9516
0
LINE
8
BLACK
6
CONTINUOUS
10
2.16829
20
-1.9516
11
2.16853
21
-1.95143
0
LINE
8
BLACK
6
CONTINUOUS
10
2.16853
20
-1.95143
11
2.16865
21
-1.95117
0
LINE
8
BLACK
6
CONTINUOUS
10
2.16865
20
-1.95117
11
2.1724
21
-1.94742
0
LINE
8
BLACK
6
CONTINUOUS
10
2.1724
20
-1.94742
11
2.17312
21
-1.94691
0
LINE
8
BLACK
6
CONTINUOUS
10
2.17312
20
-1.94691
11
2.17317
21
-1.94686
0
LINE
8
BLACK
6
CONTINUOUS
10
2.17317
20
-1.94686
11
2.17692
21
-1.94499
0
LINE
8
BLACK
6
CONTINUOUS
10
2.17692
20
-1.94499
11
2.1779
21
-1.9447
0
LINE
8
BLACK
6
CONTINUOUS
10
2.1779
20
-1.9447
11
2.17807
21
-1.94474
0
LINE
8
BLACK
6
CONTINUOUS
10
2.17807
20
-1.94474
11
2.17824
21
-1.94468
0
LINE
8
BLACK
6
CONTINUOUS
10
2.17824
20
-1.94468
11
2.18574
21
-1.94468
0
LINE
8
BLACK
6
CONTINUOUS
10
2.18574
20
-1.94468
11
2.18675
21
-1.94486
0
LINE
8
BLACK
6
CONTINUOUS
10
2.17624
20
-1.95193
11
2.17341
21
-1.95476
0
LINE
8
BLACK
6
CONTINUOUS
10
2.17341
20
-1.95476
11
2.17182
21
-1.96112
0
LINE
8
BLACK
6
CONTINUOUS
10
2.17182
20
-1.96112
11
2.17182
21
-1.97351
0
LINE
8
BLACK
6
CONTINUOUS
10
2.17182
20
-1.97351
11
2.17341
21
-1.97987
0
LINE
8
BLACK
6
CONTINUOUS
10
2.17341
20
-1.97987
11
2.17624
21
-1.9827
0
LINE
8
BLACK
6
CONTINUOUS
10
2.17624
20
-1.9827
11
2.17894
21
-1.98405
0
LINE
8
BLACK
6
CONTINUOUS
10
2.17894
20
-1.98405
11
2.18504
21
-1.98405
0
LINE
8
BLACK
6
CONTINUOUS
10
2.18504
20
-1.98405
11
2.18774
21
-1.9827
0
LINE
8
BLACK
6
CONTINUOUS
10
2.18774
20
-1.9827
11
2.19057
21
-1.97987
0
LINE
8
BLACK
6
CONTINUOUS
10
2.19057
20
-1.97987
11
2.19216
21
-1.97351
0
LINE
8
BLACK
6
CONTINUOUS
10
2.19216
20
-1.97351
11
2.19216
21
-1.96112
0
LINE
8
BLACK
6
CONTINUOUS
10
2.19216
20
-1.96112
11
2.19057
21
-1.95476
0
LINE
8
BLACK
6
CONTINUOUS
10
2.19057
20
-1.95476
11
2.18774
21
-1.95193
0
LINE
8
BLACK
6
CONTINUOUS
10
2.18774
20
-1.95193
11
2.18504
21
-1.95058
0
LINE
8
BLACK
6
CONTINUOUS
10
2.18504
20
-1.95058
11
2.17894
21
-1.95058
0
LINE
8
BLACK
6
CONTINUOUS
10
2.17894
20
-1.95058
11
2.17624
21
-1.95193
0
LINE
8
BLACK
6
CONTINUOUS
10
2.3836
20
-1.94486
11
2.38515
21
-1.94615
0
LINE
8
BLACK
6
CONTINUOUS
10
2.38515
20
-1.94615
11
2.3855
21
-1.94814
0
LINE
8
BLACK
6
CONTINUOUS
10
2.3855
20
-1.94814
11
2.38449
21
-1.94989
0
LINE
8
BLACK
6
CONTINUOUS
10
2.38449
20
-1.94989
11
2.38259
21
-1.95058
0
LINE
8
BLACK
6
CONTINUOUS
10
2.38259
20
-1.95058
11
2.36679
21
-1.95058
0
LINE
8
BLACK
6
CONTINUOUS
10
2.36679
20
-1.95058
11
2.36679
21
-1.96343
0
LINE
8
BLACK
6
CONTINUOUS
10
2.36679
20
-1.96343
11
2.37696
21
-1.96343
0
LINE
8
BLACK
6
CONTINUOUS
10
2.37696
20
-1.96343
11
2.37797
21
-1.9636
0
LINE
8
BLACK
6
CONTINUOUS
10
2.37797
20
-1.9636
11
2.37952
21
-1.9649
0
LINE
8
BLACK
6
CONTINUOUS
10
2.37952
20
-1.9649
11
2.37987
21
-1.96689
0
LINE
8
BLACK
6
CONTINUOUS
10
2.37987
20
-1.96689
11
2.37886
21
-1.96864
0
LINE
8
BLACK
6
CONTINUOUS
10
2.37886
20
-1.96864
11
2.37696
21
-1.96933
0
LINE
8
BLACK
6
CONTINUOUS
10
2.37696
20
-1.96933
11
2.36679
21
-1.96933
0
LINE
8
BLACK
6
CONTINUOUS
10
2.36679
20
-1.96933
11
2.36679
21
-1.98405
0
LINE
8
BLACK
6
CONTINUOUS
10
2.36679
20
-1.98405
11
2.38259
21
-1.98405
0
LINE
8
BLACK
6
CONTINUOUS
10
2.38259
20
-1.98405
11
2.3836
21
-1.98423
0
LINE
8
BLACK
6
CONTINUOUS
10
2.3836
20
-1.98423
11
2.38515
21
-1.98552
0
LINE
8
BLACK
6
CONTINUOUS
10
2.38515
20
-1.98552
11
2.3855
21
-1.98751
0
LINE
8
BLACK
6
CONTINUOUS
10
2.3855
20
-1.98751
11
2.38449
21
-1.98926
0
LINE
8
BLACK
6
CONTINUOUS
10
2.38449
20
-1.98926
11
2.38259
21
-1.98995
0
LINE
8
BLACK
6
CONTINUOUS
10
2.38259
20
-1.98995
11
2.36384
21
-1.98995
0
LINE
8
BLACK
6
CONTINUOUS
10
2.36384
20
-1.98995
11
2.36346
21
-1.98989
0
LINE
8
BLACK
6
CONTINUOUS
10
2.36346
20
-1.98989
11
2.36333
21
-1.98991
0
LINE
8
BLACK
6
CONTINUOUS
10
2.36333
20
-1.98991
11
2.36321
21
-1.98984
0
LINE
8
BLACK
6
CONTINUOUS
10
2.36321
20
-1.98984
11
2.36283
21
-1.98978
0
LINE
8
BLACK
6
CONTINUOUS
10
2.36283
20
-1.98978
11
2.36224
21
-1.98928
0
LINE
8
BLACK
6
CONTINUOUS
10
2.36224
20
-1.98928
11
2.36158
21
-1.9889
0
LINE
8
BLACK
6
CONTINUOUS
10
2.36158
20
-1.9889
11
2.36149
21
-1.98865
0
LINE
8
BLACK
6
CONTINUOUS
10
2.36149
20
-1.98865
11
2.36128
21
-1.98848
0
LINE
8
BLACK
6
CONTINUOUS
10
2.36128
20
-1.98848
11
2.36115
21
-1.98772
0
LINE
8
BLACK
6
CONTINUOUS
10
2.36115
20
-1.98772
11
2.36089
21
-1.987
0
LINE
8
BLACK
6
CONTINUOUS
10
2.36089
20
-1.987
11
2.36089
21
-1.94763
0
LINE
8
BLACK
6
CONTINUOUS
10
2.36089
20
-1.94763
11
2.36096
21
-1.94725
0
LINE
8
BLACK
6
CONTINUOUS
10
2.36096
20
-1.94725
11
2.36093
21
-1.94712
0
LINE
8
BLACK
6
CONTINUOUS
10
2.36093
20
-1.94712
11
2.361
21
-1.947
0
LINE
8
BLACK
6
CONTINUOUS
10
2.361
20
-1.947
11
2.36107
21
-1.94662
0
LINE
8
BLACK
6
CONTINUOUS
10
2.36107
20
-1.94662
11
2.36156
21
-1.94603
0
LINE
8
BLACK
6
CONTINUOUS
10
2.36156
20
-1.94603
11
2.36194
21
-1.94537
0
LINE
8
BLACK
6
CONTINUOUS
10
2.36194
20
-1.94537
11
2.36219
21
-1.94528
0
LINE
8
BLACK
6
CONTINUOUS
10
2.36219
20
-1.94528
11
2.36236
21
-1.94507
0
LINE
8
BLACK
6
CONTINUOUS
10
2.36236
20
-1.94507
11
2.36312
21
-1.94494
0
LINE
8
BLACK
6
CONTINUOUS
10
2.36312
20
-1.94494
11
2.36384
21
-1.94468
0
LINE
8
BLACK
6
CONTINUOUS
10
2.36384
20
-1.94468
11
2.38259
21
-1.94468
0
LINE
8
BLACK
6
CONTINUOUS
10
2.38259
20
-1.94468
11
2.3836
21
-1.94486
0
LINE
8
BLACK
6
CONTINUOUS
10
2.4547
20
-1.94483
11
2.45476
21
-1.94483
0
LINE
8
BLACK
6
CONTINUOUS
10
2.45476
20
-1.94483
11
2.46039
21
-1.9467
0
LINE
8
BLACK
6
CONTINUOUS
10
2.46039
20
-1.9467
11
2.46129
21
-1.94719
0
LINE
8
BLACK
6
CONTINUOUS
10
2.46129
20
-1.94719
11
2.46138
21
-1.94734
0
LINE
8
BLACK
6
CONTINUOUS
10
2.46138
20
-1.94734
11
2.46154
21
-1.94742
0
LINE
8
BLACK
6
CONTINUOUS
10
2.46154
20
-1.94742
11
2.46529
21
-1.95117
0
LINE
8
BLACK
6
CONTINUOUS
10
2.46529
20
-1.95117
11
2.4658
21
-1.95189
0
LINE
8
BLACK
6
CONTINUOUS
10
2.4658
20
-1.95189
11
2.46584
21
-1.95193
0
LINE
8
BLACK
6
CONTINUOUS
10
2.46584
20
-1.95193
11
2.46772
21
-1.95568
0
LINE
8
BLACK
6
CONTINUOUS
10
2.46772
20
-1.95568
11
2.46786
21
-1.95617
0
LINE
8
BLACK
6
CONTINUOUS
10
2.46786
20
-1.95617
11
2.46794
21
-1.95629
0
LINE
8
BLACK
6
CONTINUOUS
10
2.46794
20
-1.95629
11
2.46982
21
-1.96379
0
LINE
8
BLACK
6
CONTINUOUS
10
2.46982
20
-1.96379
11
2.46986
21
-1.96438
0
LINE
8
BLACK
6
CONTINUOUS
10
2.46986
20
-1.96438
11
2.46991
21
-1.9645
0
LINE
8
BLACK
6
CONTINUOUS
10
2.46991
20
-1.9645
11
2.46991
21
-1.97013
0
LINE
8
BLACK
6
CONTINUOUS
10
2.46991
20
-1.97013
11
2.4698
21
-1.97071
0
LINE
8
BLACK
6
CONTINUOUS
10
2.4698
20
-1.97071
11
2.46982
21
-1.97084
0
LINE
8
BLACK
6
CONTINUOUS
10
2.46982
20
-1.97084
11
2.46794
21
-1.97834
0
LINE
8
BLACK
6
CONTINUOUS
10
2.46794
20
-1.97834
11
2.46773
21
-1.97881
0
LINE
8
BLACK
6
CONTINUOUS
10
2.46773
20
-1.97881
11
2.46772
21
-1.97895
0
LINE
8
BLACK
6
CONTINUOUS
10
2.46772
20
-1.97895
11
2.46584
21
-1.9827
0
LINE
8
BLACK
6
CONTINUOUS
10
2.46584
20
-1.9827
11
2.46532
21
-1.98341
0
LINE
8
BLACK
6
CONTINUOUS
10
2.46532
20
-1.98341
11
2.46529
21
-1.98346
0
LINE
8
BLACK
6
CONTINUOUS
10
2.46529
20
-1.98346
11
2.46154
21
-1.98721
0
LINE
8
BLACK
6
CONTINUOUS
10
2.46154
20
-1.98721
11
2.4607
21
-1.9878
0
LINE
8
BLACK
6
CONTINUOUS
10
2.4607
20
-1.9878
11
2.46053
21
-1.98782
0
LINE
8
BLACK
6
CONTINUOUS
10
2.46053
20
-1.98782
11
2.46039
21
-1.98793
0
LINE
8
BLACK
6
CONTINUOUS
10
2.46039
20
-1.98793
11
2.45476
21
-1.9898
0
LINE
8
BLACK
6
CONTINUOUS
10
2.45476
20
-1.9898
11
2.45389
21
-1.98993
0
LINE
8
BLACK
6
CONTINUOUS
10
2.45389
20
-1.98993
11
2.45383
21
-1.98995
0
LINE
8
BLACK
6
CONTINUOUS
10
2.45383
20
-1.98995
11
2.44446
21
-1.98995
0
LINE
8
BLACK
6
CONTINUOUS
10
2.44446
20
-1.98995
11
2.44407
21
-1.98989
0
LINE
8
BLACK
6
CONTINUOUS
10
2.44407
20
-1.98989
11
2.44394
21
-1.98991
0
LINE
8
BLACK
6
CONTINUOUS
10
2.44394
20
-1.98991
11
2.44383
21
-1.98984
0
LINE
8
BLACK
6
CONTINUOUS
10
2.44383
20
-1.98984
11
2.44345
21
-1.98978
0
LINE
8
BLACK
6
CONTINUOUS
10
2.44345
20
-1.98978
11
2.44286
21
-1.98928
0
LINE
8
BLACK
6
CONTINUOUS
10
2.44286
20
-1.98928
11
2.44219
21
-1.9889
0
LINE
8
BLACK
6
CONTINUOUS
10
2.44219
20
-1.9889
11
2.4421
21
-1.98865
0
LINE
8
BLACK
6
CONTINUOUS
10
2.4421
20
-1.98865
11
2.4419
21
-1.98848
0
LINE
8
BLACK
6
CONTINUOUS
10
2.4419
20
-1.98848
11
2.44176
21
-1.98772
0
LINE
8
BLACK
6
CONTINUOUS
10
2.44176
20
-1.98772
11
2.4415
21
-1.987
0
LINE
8
BLACK
6
CONTINUOUS
10
2.4415
20
-1.987
11
2.4415
21
-1.94763
0
LINE
8
BLACK
6
CONTINUOUS
10
2.4415
20
-1.94763
11
2.44157
21
-1.94725
0
LINE
8
BLACK
6
CONTINUOUS
10
2.44157
20
-1.94725
11
2.44155
21
-1.94712
0
LINE
8
BLACK
6
CONTINUOUS
10
2.44155
20
-1.94712
11
2.44161
21
-1.947
0
LINE
8
BLACK
6
CONTINUOUS
10
2.44161
20
-1.947
11
2.44168
21
-1.94662
0
LINE
8
BLACK
6
CONTINUOUS
10
2.44168
20
-1.94662
11
2.44217
21
-1.94603
0
LINE
8
BLACK
6
CONTINUOUS
10
2.44217
20
-1.94603
11
2.44256
21
-1.94537
0
LINE
8
BLACK
6
CONTINUOUS
10
2.44256
20
-1.94537
11
2.44281
21
-1.94528
0
LINE
8
BLACK
6
CONTINUOUS
10
2.44281
20
-1.94528
11
2.44298
21
-1.94507
0
LINE
8
BLACK
6
CONTINUOUS
10
2.44298
20
-1.94507
11
2.44373
21
-1.94494
0
LINE
8
BLACK
6
CONTINUOUS
10
2.44373
20
-1.94494
11
2.44446
21
-1.94468
0
LINE
8
BLACK
6
CONTINUOUS
10
2.44446
20
-1.94468
11
2.45383
21
-1.94468
0
LINE
8
BLACK
6
CONTINUOUS
10
2.45383
20
-1.94468
11
2.4547
21
-1.94483
0
LINE
8
BLACK
6
CONTINUOUS
10
2.44741
20
-1.98405
11
2.45335
21
-1.98405
0
LINE
8
BLACK
6
CONTINUOUS
10
2.45335
20
-1.98405
11
2.45786
21
-1.98255
0
LINE
8
BLACK
6
CONTINUOUS
10
2.45786
20
-1.98255
11
2.46078
21
-1.97963
0
LINE
8
BLACK
6
CONTINUOUS
10
2.46078
20
-1.97963
11
2.46229
21
-1.9766
0
LINE
8
BLACK
6
CONTINUOUS
10
2.46229
20
-1.9766
11
2.464
21
-1.96976
0
LINE
8
BLACK
6
CONTINUOUS
10
2.464
20
-1.96976
11
2.464
21
-1.96487
0
LINE
8
BLACK
6
CONTINUOUS
10
2.464
20
-1.96487
11
2.46229
21
-1.95804
0
LINE
8
BLACK
6
CONTINUOUS
10
2.46229
20
-1.95804
11
2.46078
21
-1.955
0
LINE
8
BLACK
6
CONTINUOUS
10
2.46078
20
-1.955
11
2.45786
21
-1.95209
0
LINE
8
BLACK
6
CONTINUOUS
10
2.45786
20
-1.95209
11
2.45335
21
-1.95058
0
LINE
8
BLACK
6
CONTINUOUS
10
2.45335
20
-1.95058
11
2.44741
21
-1.95058
0
LINE
8
BLACK
6
CONTINUOUS
10
2.44741
20
-1.95058
11
2.44741
21
-1.98405
0
LINE
8
BLACK
6
CONTINUOUS
10
2.55354
20
-1.94475
11
2.5537
21
-1.94472
0
LINE
8
BLACK
6
CONTINUOUS
10
2.5537
20
-1.94472
11
2.55445
21
-1.94515
0
LINE
8
BLACK
6
CONTINUOUS
10
2.55445
20
-1.94515
11
2.55523
21
-1.9455
0
LINE
8
BLACK
6
CONTINUOUS
10
2.55523
20
-1.9455
11
2.55531
21
-1.94565
0
LINE
8
BLACK
6
CONTINUOUS
10
2.55531
20
-1.94565
11
2.55545
21
-1.94573
0
LINE
8
BLACK
6
CONTINUOUS
10
2.55545
20
-1.94573
11
2.55575
21
-1.94654
0
LINE
8
BLACK
6
CONTINUOUS
10
2.55575
20
-1.94654
11
2.55613
21
-1.94731
0
LINE
8
BLACK
6
CONTINUOUS
10
2.55613
20
-1.94731
11
2.55609
21
-1.94747
0
LINE
8
BLACK
6
CONTINUOUS
10
2.55609
20
-1.94747
11
2.55614
21
-1.94763
0
LINE
8
BLACK
6
CONTINUOUS
10
2.55614
20
-1.94763
11
2.55614
21
-1.98405
0
LINE
8
BLACK
6
CONTINUOUS
10
2.55614
20
-1.98405
11
2.56444
21
-1.98405
0
LINE
8
BLACK
6
CONTINUOUS
10
2.56444
20
-1.98405
11
2.56545
21
-1.98423
0
LINE
8
BLACK
6
CONTINUOUS
10
2.56545
20
-1.98423
11
2.567
21
-1.98552
0
LINE
8
BLACK
6
CONTINUOUS
10
2.567
20
-1.98552
11
2.56735
21
-1.98751
0
LINE
8
BLACK
6
CONTINUOUS
10
2.56735
20
-1.98751
11
2.56634
21
-1.98926
0
LINE
8
BLACK
6
CONTINUOUS
10
2.56634
20
-1.98926
11
2.56444
21
-1.98995
0
LINE
8
BLACK
6
CONTINUOUS
10
2.56444
20
-1.98995
11
2.54194
21
-1.98995
0
LINE
8
BLACK
6
CONTINUOUS
10
2.54194
20
-1.98995
11
2.54093
21
-1.98978
0
LINE
8
BLACK
6
CONTINUOUS
10
2.54093
20
-1.98978
11
2.53939
21
-1.98848
0
LINE
8
BLACK
6
CONTINUOUS
10
2.53939
20
-1.98848
11
2.53904
21
-1.98649
0
LINE
8
BLACK
6
CONTINUOUS
10
2.53904
20
-1.98649
11
2.54004
21
-1.98474
0
LINE
8
BLACK
6
CONTINUOUS
10
2.54004
20
-1.98474
11
2.54194
21
-1.98405
0
LINE
8
BLACK
6
CONTINUOUS
10
2.54194
20
-1.98405
11
2.55024
21
-1.98405
0
LINE
8
BLACK
6
CONTINUOUS
10
2.55024
20
-1.98405
11
2.55024
21
-1.95663
0
LINE
8
BLACK
6
CONTINUOUS
10
2.55024
20
-1.95663
11
2.54778
21
-1.95909
0
LINE
8
BLACK
6
CONTINUOUS
10
2.54778
20
-1.95909
11
2.54706
21
-1.9596
0
LINE
8
BLACK
6
CONTINUOUS
10
2.54706
20
-1.9596
11
2.54701
21
-1.95965
0
LINE
8
BLACK
6
CONTINUOUS
10
2.54701
20
-1.95965
11
2.54326
21
-1.96152
0
LINE
8
BLACK
6
CONTINUOUS
10
2.54326
20
-1.96152
11
2.54228
21
-1.96181
0
LINE
8
BLACK
6
CONTINUOUS
10
2.54228
20
-1.96181
11
2.54032
21
-1.96134
0
LINE
8
BLACK
6
CONTINUOUS
10
2.54032
20
-1.96134
11
2.53911
21
-1.95972
0
LINE
8
BLACK
6
CONTINUOUS
10
2.53911
20
-1.95972
11
2.53923
21
-1.9577
0
LINE
8
BLACK
6
CONTINUOUS
10
2.53923
20
-1.9577
11
2.54062
21
-1.95624
0
LINE
8
BLACK
6
CONTINUOUS
10
2.54062
20
-1.95624
11
2.54394
21
-1.95458
0
LINE
8
BLACK
6
CONTINUOUS
10
2.54394
20
-1.95458
11
2.54715
21
-1.95137
0
LINE
8
BLACK
6
CONTINUOUS
10
2.54715
20
-1.95137
11
2.55073
21
-1.94599
0
LINE
8
BLACK
6
CONTINUOUS
10
2.55073
20
-1.94599
11
2.55144
21
-1.94525
0
LINE
8
BLACK
6
CONTINUOUS
10
2.55144
20
-1.94525
11
2.55161
21
-1.9452
0
LINE
8
BLACK
6
CONTINUOUS
10
2.55161
20
-1.9452
11
2.55172
21
-1.94507
0
LINE
8
BLACK
6
CONTINUOUS
10
2.55172
20
-1.94507
11
2.55256
21
-1.94492
0
LINE
8
BLACK
6
CONTINUOUS
10
2.55256
20
-1.94492
11
2.55338
21
-1.94468
0
LINE
8
BLACK
6
CONTINUOUS
10
2.55338
20
-1.94468
11
2.55354
21
-1.94475
0
LINE
8
BLACK
6
CONTINUOUS
10
2.61232
20
-1.94486
11
2.61245
21
-1.94497
0
LINE
8
BLACK
6
CONTINUOUS
10
2.61245
20
-1.94497
11
2.61263
21
-1.94499
0
LINE
8
BLACK
6
CONTINUOUS
10
2.61263
20
-1.94499
11
2.61638
21
-1.94686
0
LINE
8
BLACK
6
CONTINUOUS
10
2.61638
20
-1.94686
11
2.61709
21
-1.94739
0
LINE
8
BLACK
6
CONTINUOUS
10
2.61709
20
-1.94739
11
2.61715
21
-1.94742
0
LINE
8
BLACK
6
CONTINUOUS
10
2.61715
20
-1.94742
11
2.61902
21
-1.94929
0
LINE
8
BLACK
6
CONTINUOUS
10
2.61902
20
-1.94929
11
2.61953
21
-1.95002
0
LINE
8
BLACK
6
CONTINUOUS
10
2.61953
20
-1.95002
11
2.61957
21
-1.95006
0
LINE
8
BLACK
6
CONTINUOUS
10
2.61957
20
-1.95006
11
2.62145
21
-1.95381
0
LINE
8
BLACK
6
CONTINUOUS
10
2.62145
20
-1.95381
11
2.62159
21
-1.9543
0
LINE
8
BLACK
6
CONTINUOUS
10
2.62159
20
-1.9543
11
2.62167
21
-1.95441
0
LINE
8
BLACK
6
CONTINUOUS
10
2.62167
20
-1.95441
11
2.62355
21
-1.96191
0
LINE
8
BLACK
6
CONTINUOUS
10
2.62355
20
-1.96191
11
2.62359
21
-1.9625
0
LINE
8
BLACK
6
CONTINUOUS
10
2.62359
20
-1.9625
11
2.62364
21
-1.96263
0
LINE
8
BLACK
6
CONTINUOUS
10
2.62364
20
-1.96263
11
2.62364
21
-1.972
0
LINE
8
BLACK
6
CONTINUOUS
10
2.62364
20
-1.972
11
2.62353
21
-1.97258
0
LINE
8
BLACK
6
CONTINUOUS
10
2.62353
20
-1.97258
11
2.62355
21
-1.97272
0
LINE
8
BLACK
6
CONTINUOUS
10
2.62355
20
-1.97272
11
2.62167
21
-1.98022
0
LINE
8
BLACK
6
CONTINUOUS
10
2.62167
20
-1.98022
11
2.62147
21
-1.98068
0
LINE
8
BLACK
6
CONTINUOUS
10
2.62147
20
-1.98068
11
2.62145
21
-1.98082
0
LINE
8
BLACK
6
CONTINUOUS
10
2.62145
20
-1.98082
11
2.61957
21
-1.98457
0
LINE
8
BLACK
6
CONTINUOUS
10
2.61957
20
-1.98457
11
2.61905
21
-1.98528
0
LINE
8
BLACK
6
CONTINUOUS
10
2.61905
20
-1.98528
11
2.61902
21
-1.98534
0
LINE
8
BLACK
6
CONTINUOUS
10
2.61902
20
-1.98534
11
2.61715
21
-1.98721
0
LINE
8
BLACK
6
CONTINUOUS
10
2.61715
20
-1.98721
11
2.61642
21
-1.98772
0
LINE
8
BLACK
6
CONTINUOUS
10
2.61642
20
-1.98772
11
2.61638
21
-1.98777
0
LINE
8
BLACK
6
CONTINUOUS
10
2.61638
20
-1.98777
11
2.61263
21
-1.98964
0
LINE
8
BLACK
6
CONTINUOUS
10
2.61263
20
-1.98964
11
2.61165
21
-1.98993
0
LINE
8
BLACK
6
CONTINUOUS
10
2.61165
20
-1.98993
11
2.61148
21
-1.98989
0
LINE
8
BLACK
6
CONTINUOUS
10
2.61148
20
-1.98989
11
2.61131
21
-1.98995
0
LINE
8
BLACK
6
CONTINUOUS
10
2.61131
20
-1.98995
11
2.60756
21
-1.98995
0
LINE
8
BLACK
6
CONTINUOUS
10
2.60756
20
-1.98995
11
2.60655
21
-1.98978
0
LINE
8
BLACK
6
CONTINUOUS
10
2.60655
20
-1.98978
11
2.60641
21
-1.98966
0
LINE
8
BLACK
6
CONTINUOUS
10
2.60641
20
-1.98966
11
2.60624
21
-1.98964
0
LINE
8
BLACK
6
CONTINUOUS
10
2.60624
20
-1.98964
11
2.60249
21
-1.98777
0
LINE
8
BLACK
6
CONTINUOUS
10
2.60249
20
-1.98777
11
2.60178
21
-1.98724
0
LINE
8
BLACK
6
CONTINUOUS
10
2.60178
20
-1.98724
11
2.60172
21
-1.98721
0
LINE
8
BLACK
6
CONTINUOUS
10
2.60172
20
-1.98721
11
2.59985
21
-1.98534
0
LINE
8
BLACK
6
CONTINUOUS
10
2.59985
20
-1.98534
11
2.59934
21
-1.98462
0
LINE
8
BLACK
6
CONTINUOUS
10
2.59934
20
-1.98462
11
2.59929
21
-1.98457
0
LINE
8
BLACK
6
CONTINUOUS
10
2.59929
20
-1.98457
11
2.59742
21
-1.98082
0
LINE
8
BLACK
6
CONTINUOUS
10
2.59742
20
-1.98082
11
2.59727
21
-1.98033
0
LINE
8
BLACK
6
CONTINUOUS
10
2.59727
20
-1.98033
11
2.5972
21
-1.98022
0
LINE
8
BLACK
6
CONTINUOUS
10
2.5972
20
-1.98022
11
2.59532
21
-1.97272
0
LINE
8
BLACK
6
CONTINUOUS
10
2.59532
20
-1.97272
11
2.59528
21
-1.97213
0
LINE
8
BLACK
6
CONTINUOUS
10
2.59528
20
-1.97213
11
2.59523
21
-1.972
0
LINE
8
BLACK
6
CONTINUOUS
10
2.59523
20
-1.972
11
2.59523
21
-1.96263
0
LINE
8
BLACK
6
CONTINUOUS
10
2.59523
20
-1.96263
11
2.59534
21
-1.96205
0
LINE
8
BLACK
6
CONTINUOUS
10
2.59534
20
-1.96205
11
2.59532
21
-1.96191
0
LINE
8
BLACK
6
CONTINUOUS
10
2.59532
20
-1.96191
11
2.5972
21
-1.95441
0
LINE
8
BLACK
6
CONTINUOUS
10
2.5972
20
-1.95441
11
2.5974
21
-1.95395
0
LINE
8
BLACK
6
CONTINUOUS
10
2.5974
20
-1.95395
11
2.59742
21
-1.95381
0
LINE
8
BLACK
6
CONTINUOUS
10
2.59742
20
-1.95381
11
2.59929
21
-1.95006
0
LINE
8
BLACK
6
CONTINUOUS
10
2.59929
20
-1.95006
11
2.59982
21
-1.94935
0
LINE
8
BLACK
6
CONTINUOUS
10
2.59982
20
-1.94935
11
2.59985
21
-1.94929
0
LINE
8
BLACK
6
CONTINUOUS
10
2.59985
20
-1.94929
11
2.60172
21
-1.94742
0
LINE
8
BLACK
6
CONTINUOUS
10
2.60172
20
-1.94742
11
2.60245
21
-1.94691
0
LINE
8
BLACK
6
CONTINUOUS
10
2.60245
20
-1.94691
11
2.60249
21
-1.94686
0
LINE
8
BLACK
6
CONTINUOUS
10
2.60249
20
-1.94686
11
2.60624
21
-1.94499
0
LINE
8
BLACK
6
CONTINUOUS
10
2.60624
20
-1.94499
11
2.60722
21
-1.9447
0
LINE
8
BLACK
6
CONTINUOUS
10
2.60722
20
-1.9447
11
2.60739
21
-1.94474
0
LINE
8
BLACK
6
CONTINUOUS
10
2.60739
20
-1.94474
11
2.60756
21
-1.94468
0
LINE
8
BLACK
6
CONTINUOUS
10
2.60756
20
-1.94468
11
2.61131
21
-1.94468
0
LINE
8
BLACK
6
CONTINUOUS
10
2.61131
20
-1.94468
11
2.61232
21
-1.94486
0
LINE
8
BLACK
6
CONTINUOUS
10
2.60556
20
-1.95193
11
2.60436
21
-1.95313
0
LINE
8
BLACK
6
CONTINUOUS
10
2.60436
20
-1.95313
11
2.60285
21
-1.95616
0
LINE
8
BLACK
6
CONTINUOUS
10
2.60285
20
-1.95616
11
2.60114
21
-1.96299
0
LINE
8
BLACK
6
CONTINUOUS
10
2.60114
20
-1.96299
11
2.60114
21
-1.97164
0
LINE
8
BLACK
6
CONTINUOUS
10
2.60114
20
-1.97164
11
2.60285
21
-1.97847
0
LINE
8
BLACK
6
CONTINUOUS
10
2.60285
20
-1.97847
11
2.60436
21
-1.9815
0
LINE
8
BLACK
6
CONTINUOUS
10
2.60436
20
-1.9815
11
2.60556
21
-1.9827
0
LINE
8
BLACK
6
CONTINUOUS
10
2.60556
20
-1.9827
11
2.60826
21
-1.98405
0
LINE
8
BLACK
6
CONTINUOUS
10
2.60826
20
-1.98405
11
2.61061
21
-1.98405
0
LINE
8
BLACK
6
CONTINUOUS
10
2.61061
20
-1.98405
11
2.61331
21
-1.9827
0
LINE
8
BLACK
6
CONTINUOUS
10
2.61331
20
-1.9827
11
2.61451
21
-1.9815
0
LINE
8
BLACK
6
CONTINUOUS
10
2.61451
20
-1.9815
11
2.61602
21
-1.97847
0
LINE
8
BLACK
6
CONTINUOUS
10
2.61602
20
-1.97847
11
2.61773
21
-1.97164
0
LINE
8
BLACK
6
CONTINUOUS
10
2.61773
20
-1.97164
11
2.61773
21
-1.96299
0
LINE
8
BLACK
6
CONTINUOUS
10
2.61773
20
-1.96299
11
2.61602
21
-1.95616
0
LINE
8
BLACK
6
CONTINUOUS
10
2.61602
20
-1.95616
11
2.61451
21
-1.95313
0
LINE
8
BLACK
6
CONTINUOUS
10
2.61451
20
-1.95313
11
2.61331
21
-1.95193
0
LINE
8
BLACK
6
CONTINUOUS
10
2.61331
20
-1.95193
11
2.61061
21
-1.95058
0
LINE
8
BLACK
6
CONTINUOUS
10
2.61061
20
-1.95058
11
2.60826
21
-1.95058
0
LINE
8
BLACK
6
CONTINUOUS
10
2.60826
20
-1.95058
11
2.60556
21
-1.95193
0
LINE
8
BLACK
6
CONTINUOUS
10
2.71731
20
-1.94486
11
2.71885
21
-1.94615
0
LINE
8
BLACK
6
CONTINUOUS
10
2.71885
20
-1.94615
11
2.7192
21
-1.94814
0
LINE
8
BLACK
6
CONTINUOUS
10
2.7192
20
-1.94814
11
2.71819
21
-1.94989
0
LINE
8
BLACK
6
CONTINUOUS
10
2.71819
20
-1.94989
11
2.7163
21
-1.95058
0
LINE
8
BLACK
6
CONTINUOUS
10
2.7163
20
-1.95058
11
2.7005
21
-1.95058
0
LINE
8
BLACK
6
CONTINUOUS
10
2.7005
20
-1.95058
11
2.7005
21
-1.96343
0
LINE
8
BLACK
6
CONTINUOUS
10
2.7005
20
-1.96343
11
2.71067
21
-1.96343
0
LINE
8
BLACK
6
CONTINUOUS
10
2.71067
20
-1.96343
11
2.71168
21
-1.9636
0
LINE
8
BLACK
6
CONTINUOUS
10
2.71168
20
-1.9636
11
2.71323
21
-1.9649
0
LINE
8
BLACK
6
CONTINUOUS
10
2.71323
20
-1.9649
11
2.71358
21
-1.96689
0
LINE
8
BLACK
6
CONTINUOUS
10
2.71358
20
-1.96689
11
2.71257
21
-1.96864
0
LINE
8
BLACK
6
CONTINUOUS
10
2.71257
20
-1.96864
11
2.71067
21
-1.96933
0
LINE
8
BLACK
6
CONTINUOUS
10
2.71067
20
-1.96933
11
2.7005
21
-1.96933
0
LINE
8
BLACK
6
CONTINUOUS
10
2.7005
20
-1.96933
11
2.7005
21
-1.98405
0
LINE
8
BLACK
6
CONTINUOUS
10
2.7005
20
-1.98405
11
2.7163
21
-1.98405
0
LINE
8
BLACK
6
CONTINUOUS
10
2.7163
20
-1.98405
11
2.71731
21
-1.98423
0
LINE
8
BLACK
6
CONTINUOUS
10
2.71731
20
-1.98423
11
2.71885
21
-1.98552
0
LINE
8
BLACK
6
CONTINUOUS
10
2.71885
20
-1.98552
11
2.7192
21
-1.98751
0
LINE
8
BLACK
6
CONTINUOUS
10
2.7192
20
-1.98751
11
2.71819
21
-1.98926
0
LINE
8
BLACK
6
CONTINUOUS
10
2.71819
20
-1.98926
11
2.7163
21
-1.98995
0
LINE
8
BLACK
6
CONTINUOUS
10
2.7163
20
-1.98995
11
2.69755
21
-1.98995
0
LINE
8
BLACK
6
CONTINUOUS
10
2.69755
20
-1.98995
11
2.69716
21
-1.98989
0
LINE
8
BLACK
6
CONTINUOUS
10
2.69716
20
-1.98989
11
2.69704
21
-1.98991
0
LINE
8
BLACK
6
CONTINUOUS
10
2.69704
20
-1.98991
11
2.69692
21
-1.98984
0
LINE
8
BLACK
6
CONTINUOUS
10
2.69692
20
-1.98984
11
2.69654
21
-1.98978
0
LINE
8
BLACK
6
CONTINUOUS
10
2.69654
20
-1.98978
11
2.69595
21
-1.98928
0
LINE
8
BLACK
6
CONTINUOUS
10
2.69595
20
-1.98928
11
2.69529
21
-1.9889
0
LINE
8
BLACK
6
CONTINUOUS
10
2.69529
20
-1.9889
11
2.6952
21
-1.98865
0
LINE
8
BLACK
6
CONTINUOUS
10
2.6952
20
-1.98865
11
2.69499
21
-1.98848
0
LINE
8
BLACK
6
CONTINUOUS
10
2.69499
20
-1.98848
11
2.69486
21
-1.98772
0
LINE
8
BLACK
6
CONTINUOUS
10
2.69486
20
-1.98772
11
2.6946
21
-1.987
0
LINE
8
BLACK
6
CONTINUOUS
10
2.6946
20
-1.987
11
2.6946
21
-1.94763
0
LINE
8
BLACK
6
CONTINUOUS
10
2.6946
20
-1.94763
11
2.69466
21
-1.94725
0
LINE
8
BLACK
6
CONTINUOUS
10
2.69466
20
-1.94725
11
2.69464
21
-1.94712
0
LINE
8
BLACK
6
CONTINUOUS
10
2.69464
20
-1.94712
11
2.69471
21
-1.947
0
LINE
8
BLACK
6
CONTINUOUS
10
2.69471
20
-1.947
11
2.69477
21
-1.94662
0
LINE
8
BLACK
6
CONTINUOUS
10
2.69477
20
-1.94662
11
2.69527
21
-1.94603
0
LINE
8
BLACK
6
CONTINUOUS
10
2.69527
20
-1.94603
11
2.69565
21
-1.94537
0
LINE
8
BLACK
6
CONTINUOUS
10
2.69565
20
-1.94537
11
2.6959
21
-1.94528
0
LINE
8
BLACK
6
CONTINUOUS
10
2.6959
20
-1.94528
11
2.69607
21
-1.94507
0
LINE
8
BLACK
6
CONTINUOUS
10
2.69607
20
-1.94507
11
2.69683
21
-1.94494
0
LINE
8
BLACK
6
CONTINUOUS
10
2.69683
20
-1.94494
11
2.69755
21
-1.94468
0
LINE
8
BLACK
6
CONTINUOUS
10
2.69755
20
-1.94468
11
2.7163
21
-1.94468
0
LINE
8
BLACK
6
CONTINUOUS
10
2.7163
20
-1.94468
11
2.71731
21
-1.94486
0
LINE
8
BLACK
6
CONTINUOUS
10
2.74904
20
-1.94483
11
2.7491
21
-1.94483
0
LINE
8
BLACK
6
CONTINUOUS
10
2.7491
20
-1.94483
11
2.75473
21
-1.9467
0
LINE
8
BLACK
6
CONTINUOUS
10
2.75473
20
-1.9467
11
2.75563
21
-1.94719
0
LINE
8
BLACK
6
CONTINUOUS
10
2.75563
20
-1.94719
11
2.75668
21
-1.94891
0
LINE
8
BLACK
6
CONTINUOUS
10
2.75668
20
-1.94891
11
2.75639
21
-1.95091
0
LINE
8
BLACK
6
CONTINUOUS
10
2.75639
20
-1.95091
11
2.75488
21
-1.95225
0
LINE
8
BLACK
6
CONTINUOUS
10
2.75488
20
-1.95225
11
2.75286
21
-1.95231
0
LINE
8
BLACK
6
CONTINUOUS
10
2.75286
20
-1.95231
11
2.74769
21
-1.95058
0
LINE
8
BLACK
6
CONTINUOUS
10
2.74769
20
-1.95058
11
2.73949
21
-1.95058
0
LINE
8
BLACK
6
CONTINUOUS
10
2.73949
20
-1.95058
11
2.73679
21
-1.95193
0
LINE
8
BLACK
6
CONTINUOUS
10
2.73679
20
-1.95193
11
2.7356
21
-1.95313
0
LINE
8
BLACK
6
CONTINUOUS
10
2.7356
20
-1.95313
11
2.73425
21
-1.95583
0
LINE
8
BLACK
6
CONTINUOUS
10
2.73425
20
-1.95583
11
2.73425
21
-1.95818
0
LINE
8
BLACK
6
CONTINUOUS
10
2.73425
20
-1.95818
11
2.7356
21
-1.96088
0
LINE
8
BLACK
6
CONTINUOUS
10
2.7356
20
-1.96088
11
2.73679
21
-1.96208
0
LINE
8
BLACK
6
CONTINUOUS
10
2.73679
20
-1.96208
11
2.73982
21
-1.96359
0
LINE
8
BLACK
6
CONTINUOUS
10
2.73982
20
-1.96359
11
2.74701
21
-1.96539
0
LINE
8
BLACK
6
CONTINUOUS
10
2.74701
20
-1.96539
11
2.74747
21
-1.9656
0
LINE
8
BLACK
6
CONTINUOUS
10
2.74747
20
-1.9656
11
2.74761
21
-1.96561
0
LINE
8
BLACK
6
CONTINUOUS
10
2.74761
20
-1.96561
11
2.75136
21
-1.96749
0
LINE
8
BLACK
6
CONTINUOUS
10
2.75136
20
-1.96749
11
2.75207
21
-1.96801
0
LINE
8
BLACK
6
CONTINUOUS
10
2.75207
20
-1.96801
11
2.75213
21
-1.96804
0
LINE
8
BLACK
6
CONTINUOUS
10
2.75213
20
-1.96804
11
2.754
21
-1.96991
0
LINE
8
BLACK
6
CONTINUOUS
10
2.754
20
-1.96991
11
2.75451
21
-1.97064
0
LINE
8
BLACK
6
CONTINUOUS
10
2.75451
20
-1.97064
11
2.75456
21
-1.97068
0
LINE
8
BLACK
6
CONTINUOUS
10
2.75456
20
-1.97068
11
2.75643
21
-1.97443
0
LINE
8
BLACK
6
CONTINUOUS
10
2.75643
20
-1.97443
11
2.75672
21
-1.97541
0
LINE
8
BLACK
6
CONTINUOUS
10
2.75672
20
-1.97541
11
2.75668
21
-1.97559
0
LINE
8
BLACK
6
CONTINUOUS
10
2.75668
20
-1.97559
11
2.75674
21
-1.97575
0
LINE
8
BLACK
6
CONTINUOUS
10
2.75674
20
-1.97575
11
2.75674
21
-1.9795
0
LINE
8
BLACK
6
CONTINUOUS
10
2.75674
20
-1.9795
11
2.75657
21
-1.98051
0
LINE
8
BLACK
6
CONTINUOUS
10
2.75657
20
-1.98051
11
2.75645
21
-1.98065
0
LINE
8
BLACK
6
CONTINUOUS
10
2.75645
20
-1.98065
11
2.75643
21
-1.98082
0
LINE
8
BLACK
6
CONTINUOUS
10
2.75643
20
-1.98082
11
2.75456
21
-1.98457
0
LINE
8
BLACK
6
CONTINUOUS
10
2.75456
20
-1.98457
11
2.75403
21
-1.98528
0
LINE
8
BLACK
6
CONTINUOUS
10
2.75403
20
-1.98528
11
2.754
21
-1.98534
0
LINE
8
BLACK
6
CONTINUOUS
10
2.754
20
-1.98534
11
2.75213
21
-1.98721
0
LINE
8
BLACK
6
CONTINUOUS
10
2.75213
20
-1.98721
11
2.75141
21
-1.98772
0
LINE
8
BLACK
6
CONTINUOUS
10
2.75141
20
-1.98772
11
2.75136
21
-1.98777
0
LINE
8
BLACK
6
CONTINUOUS
10
2.75136
20
-1.98777
11
2.74761
21
-1.98964
0
LINE
8
BLACK
6
CONTINUOUS
10
2.74761
20
-1.98964
11
2.74663
21
-1.98993
0
LINE
8
BLACK
6
CONTINUOUS
10
2.74663
20
-1.98993
11
2.74646
21
-1.98989
0
LINE
8
BLACK
6
CONTINUOUS
10
2.74646
20
-1.98989
11
2.74629
21
-1.98995
0
LINE
8
BLACK
6
CONTINUOUS
10
2.74629
20
-1.98995
11
2.73692
21
-1.98995
0
LINE
8
BLACK
6
CONTINUOUS
10
2.73692
20
-1.98995
11
2.73605
21
-1.9898
0
LINE
8
BLACK
6
CONTINUOUS
10
2.73605
20
-1.9898
11
2.73598
21
-1.9898
0
LINE
8
BLACK
6
CONTINUOUS
10
2.73598
20
-1.9898
11
2.73036
21
-1.98793
0
LINE
8
BLACK
6
CONTINUOUS
10
2.73036
20
-1.98793
11
2.72946
21
-1.98744
0
LINE
8
BLACK
6
CONTINUOUS
10
2.72946
20
-1.98744
11
2.7284
21
-1.98572
0
LINE
8
BLACK
6
CONTINUOUS
10
2.7284
20
-1.98572
11
2.7287
21
-1.98372
0
LINE
8
BLACK
6
CONTINUOUS
10
2.7287
20
-1.98372
11
2.73021
21
-1.98238
0
LINE
8
BLACK
6
CONTINUOUS
10
2.73021
20
-1.98238
11
2.73223
21
-1.98232
0
LINE
8
BLACK
6
CONTINUOUS
10
2.73223
20
-1.98232
11
2.7374
21
-1.98405
0
LINE
8
BLACK
6
CONTINUOUS
10
2.7374
20
-1.98405
11
2.7456
21
-1.98405
0
LINE
8
BLACK
6
CONTINUOUS
10
2.7456
20
-1.98405
11
2.74829
21
-1.9827
0
LINE
8
BLACK
6
CONTINUOUS
10
2.74829
20
-1.9827
11
2.74949
21
-1.9815
0
LINE
8
BLACK
6
CONTINUOUS
10
2.74949
20
-1.9815
11
2.75084
21
-1.9788
0
LINE
8
BLACK
6
CONTINUOUS
10
2.75084
20
-1.9788
11
2.75084
21
-1.97645
0
LINE
8
BLACK
6
CONTINUOUS
10
2.75084
20
-1.97645
11
2.74949
21
-1.97375
0
LINE
8
BLACK
6
CONTINUOUS
10
2.74949
20
-1.97375
11
2.74829
21
-1.97255
0
LINE
8
BLACK
6
CONTINUOUS
10
2.74829
20
-1.97255
11
2.74526
21
-1.97104
0
LINE
8
BLACK
6
CONTINUOUS
10
2.74526
20
-1.97104
11
2.73808
21
-1.96924
0
LINE
8
BLACK
6
CONTINUOUS
10
2.73808
20
-1.96924
11
2.73761
21
-1.96904
0
LINE
8
BLACK
6
CONTINUOUS
10
2.73761
20
-1.96904
11
2.73747
21
-1.96902
0
LINE
8
BLACK
6
CONTINUOUS
10
2.73747
20
-1.96902
11
2.73372
21
-1.96714
0
LINE
8
BLACK
6
CONTINUOUS
10
2.73372
20
-1.96714
11
2.73301
21
-1.96662
0
LINE
8
BLACK
6
CONTINUOUS
10
2.73301
20
-1.96662
11
2.73296
21
-1.96659
0
LINE
8
BLACK
6
CONTINUOUS
10
2.73296
20
-1.96659
11
2.73108
21
-1.96472
0
LINE
8
BLACK
6
CONTINUOUS
10
2.73108
20
-1.96472
11
2.73057
21
-1.96399
0
LINE
8
BLACK
6
CONTINUOUS
10
2.73057
20
-1.96399
11
2.73053
21
-1.96395
0
LINE
8
BLACK
6
CONTINUOUS
10
2.73053
20
-1.96395
11
2.72865
21
-1.9602
0
LINE
8
BLACK
6
CONTINUOUS
10
2.72865
20
-1.9602
11
2.72836
21
-1.95922
0
LINE
8
BLACK
6
CONTINUOUS
10
2.72836
20
-1.95922
11
2.7284
21
-1.95905
0
LINE
8
BLACK
6
CONTINUOUS
10
2.7284
20
-1.95905
11
2.72834
21
-1.95888
0
LINE
8
BLACK
6
CONTINUOUS
10
2.72834
20
-1.95888
11
2.72834
21
-1.95513
0
LINE
8
BLACK
6
CONTINUOUS
10
2.72834
20
-1.95513
11
2.72852
21
-1.95412
0
LINE
8
BLACK
6
CONTINUOUS
10
2.72852
20
-1.95412
11
2.72863
21
-1.95398
0
LINE
8
BLACK
6
CONTINUOUS
10
2.72863
20
-1.95398
11
2.72865
21
-1.95381
0
LINE
8
BLACK
6
CONTINUOUS
10
2.72865
20
-1.95381
11
2.73053
21
-1.95006
0
LINE
8
BLACK
6
CONTINUOUS
10
2.73053
20
-1.95006
11
2.73105
21
-1.94935
0
LINE
8
BLACK
6
CONTINUOUS
10
2.73105
20
-1.94935
11
2.73108
21
-1.94929
0
LINE
8
BLACK
6
CONTINUOUS
10
2.73108
20
-1.94929
11
2.73296
21
-1.94742
0
LINE
8
BLACK
6
CONTINUOUS
10
2.73296
20
-1.94742
11
2.73368
21
-1.94691
0
LINE
8
BLACK
6
CONTINUOUS
10
2.73368
20
-1.94691
11
2.73372
21
-1.94686
0
LINE
8
BLACK
6
CONTINUOUS
10
2.73372
20
-1.94686
11
2.73747
21
-1.94499
0
LINE
8
BLACK
6
CONTINUOUS
10
2.73747
20
-1.94499
11
2.73846
21
-1.9447
0
LINE
8
BLACK
6
CONTINUOUS
10
2.73846
20
-1.9447
11
2.73863
21
-1.94474
0
LINE
8
BLACK
6
CONTINUOUS
10
2.73863
20
-1.94474
11
2.73879
21
-1.94468
0
LINE
8
BLACK
6
CONTINUOUS
10
2.73879
20
-1.94468
11
2.74817
21
-1.94468
0
LINE
8
BLACK
6
CONTINUOUS
10
2.74817
20
-1.94468
11
2.74904
21
-1.94483
0
LINE
8
BLACK
6
CONTINUOUS
10
2.91603
20
-1.94486
11
2.91617
21
-1.94497
0
LINE
8
BLACK
6
CONTINUOUS
10
2.91617
20
-1.94497
11
2.91634
21
-1.94499
0
LINE
8
BLACK
6
CONTINUOUS
10
2.91634
20
-1.94499
11
2.92009
21
-1.94686
0
LINE
8
BLACK
6
CONTINUOUS
10
2.92009
20
-1.94686
11
2.9208
21
-1.94739
0
LINE
8
BLACK
6
CONTINUOUS
10
2.9208
20
-1.94739
11
2.92086
21
-1.94742
0
LINE
8
BLACK
6
CONTINUOUS
10
2.92086
20
-1.94742
11
2.92273
21
-1.94929
0
LINE
8
BLACK
6
CONTINUOUS
10
2.92273
20
-1.94929
11
2.92324
21
-1.95002
0
LINE
8
BLACK
6
CONTINUOUS
10
2.92324
20
-1.95002
11
2.92329
21
-1.95006
0
LINE
8
BLACK
6
CONTINUOUS
10
2.92329
20
-1.95006
11
2.92516
21
-1.95381
0
LINE
8
BLACK
6
CONTINUOUS
10
2.92516
20
-1.95381
11
2.92545
21
-1.95479
0
LINE
8
BLACK
6
CONTINUOUS
10
2.92545
20
-1.95479
11
2.92541
21
-1.95496
0
LINE
8
BLACK
6
CONTINUOUS
10
2.92541
20
-1.95496
11
2.92547
21
-1.95513
0
LINE
8
BLACK
6
CONTINUOUS
10
2.92547
20
-1.95513
11
2.92547
21
-1.95888
0
LINE
8
BLACK
6
CONTINUOUS
10
2.92547
20
-1.95888
11
2.92532
21
-1.95975
0
LINE
8
BLACK
6
CONTINUOUS
10
2.92532
20
-1.95975
11
2.92532
21
-1.95981
0
LINE
8
BLACK
6
CONTINUOUS
10
2.92532
20
-1.95981
11
2.92345
21
-1.96544
0
LINE
8
BLACK
6
CONTINUOUS
10
2.92345
20
-1.96544
11
2.92296
21
-1.96634
0
LINE
8
BLACK
6
CONTINUOUS
10
2.92296
20
-1.96634
11
2.92281
21
-1.96643
0
LINE
8
BLACK
6
CONTINUOUS
10
2.92281
20
-1.96643
11
2.92273
21
-1.96659
0
LINE
8
BLACK
6
CONTINUOUS
10
2.92273
20
-1.96659
11
2.90528
21
-1.98405
0
LINE
8
BLACK
6
CONTINUOUS
10
2.90528
20
-1.98405
11
2.92252
21
-1.98405
0
LINE
8
BLACK
6
CONTINUOUS
10
2.92252
20
-1.98405
11
2.92353
21
-1.98423
0
LINE
8
BLACK
6
CONTINUOUS
10
2.92353
20
-1.98423
11
2.92508
21
-1.98552
0
LINE
8
BLACK
6
CONTINUOUS
10
2.92508
20
-1.98552
11
2.92543
21
-1.98751
0
LINE
8
BLACK
6
CONTINUOUS
10
2.92543
20
-1.98751
11
2.92442
21
-1.98926
0
LINE
8
BLACK
6
CONTINUOUS
10
2.92442
20
-1.98926
11
2.92252
21
-1.98995
0
LINE
8
BLACK
6
CONTINUOUS
10
2.92252
20
-1.98995
11
2.89815
21
-1.98995
0
LINE
8
BLACK
6
CONTINUOUS
10
2.89815
20
-1.98995
11
2.89751
21
-1.98984
0
LINE
8
BLACK
6
CONTINUOUS
10
2.89751
20
-1.98984
11
2.89738
21
-1.98985
0
LINE
8
BLACK
6
CONTINUOUS
10
2.89738
20
-1.98985
11
2.89732
21
-1.98981
0
LINE
8
BLACK
6
CONTINUOUS
10
2.89732
20
-1.98981
11
2.89714
21
-1.98978
0
LINE
8
BLACK
6
CONTINUOUS
10
2.89714
20
-1.98978
11
2.89646
21
-1.9892
0
LINE
8
BLACK
6
CONTINUOUS
10
2.89646
20
-1.9892
11
2.89573
21
-1.98869
0
LINE
8
BLACK
6
CONTINUOUS
10
2.89573
20
-1.98869
11
2.89569
21
-1.98856
0
LINE
8
BLACK
6
CONTINUOUS
10
2.89569
20
-1.98856
11
2.89559
21
-1.98848
0
LINE
8
BLACK
6
CONTINUOUS
10
2.89559
20
-1.98848
11
2.89544
21
-1.9876
0
LINE
8
BLACK
6
CONTINUOUS
10
2.89544
20
-1.9876
11
2.89521
21
-1.98674
0
LINE
8
BLACK
6
CONTINUOUS
10
2.89521
20
-1.98674
11
2.89526
21
-1.98662
0
LINE
8
BLACK
6
CONTINUOUS
10
2.89526
20
-1.98662
11
2.89524
21
-1.98649
0
LINE
8
BLACK
6
CONTINUOUS
10
2.89524
20
-1.98649
11
2.89569
21
-1.98572
0
LINE
8
BLACK
6
CONTINUOUS
10
2.89569
20
-1.98572
11
2.89606
21
-1.98491
0
LINE
8
BLACK
6
CONTINUOUS
10
2.89606
20
-1.98491
11
2.91806
21
-1.96291
0
LINE
8
BLACK
6
CONTINUOUS
10
2.91806
20
-1.96291
11
2.91957
21
-1.9584
0
LINE
8
BLACK
6
CONTINUOUS
10
2.91957
20
-1.9584
11
2.91957
21
-1.95583
0
LINE
8
BLACK
6
CONTINUOUS
10
2.91957
20
-1.95583
11
2.91822
21
-1.95313
0
LINE
8
BLACK
6
CONTINUOUS
10
2.91822
20
-1.95313
11
2.91702
21
-1.95193
0
LINE
8
BLACK
6
CONTINUOUS
10
2.91702
20
-1.95193
11
2.91432
21
-1.95058
0
LINE
8
BLACK
6
CONTINUOUS
10
2.91432
20
-1.95058
11
2.90634
21
-1.95058
0
LINE
8
BLACK
6
CONTINUOUS
10
2.90634
20
-1.95058
11
2.90365
21
-1.95193
0
LINE
8
BLACK
6
CONTINUOUS
10
2.90365
20
-1.95193
11
2.90211
21
-1.95347
0
LINE
8
BLACK
6
CONTINUOUS
10
2.90211
20
-1.95347
11
2.90127
21
-1.95406
0
LINE
8
BLACK
6
CONTINUOUS
10
2.90127
20
-1.95406
11
2.89926
21
-1.95423
0
LINE
8
BLACK
6
CONTINUOUS
10
2.89926
20
-1.95423
11
2.8976
21
-1.95307
0
LINE
8
BLACK
6
CONTINUOUS
10
2.8976
20
-1.95307
11
2.89708
21
-1.95112
0
LINE
8
BLACK
6
CONTINUOUS
10
2.89708
20
-1.95112
11
2.89794
21
-1.94929
0
LINE
8
BLACK
6
CONTINUOUS
10
2.89794
20
-1.94929
11
2.89981
21
-1.94742
0
LINE
8
BLACK
6
CONTINUOUS
10
2.89981
20
-1.94742
11
2.90053
21
-1.94691
0
LINE
8
BLACK
6
CONTINUOUS
10
2.90053
20
-1.94691
11
2.90058
21
-1.94686
0
LINE
8
BLACK
6
CONTINUOUS
10
2.90058
20
-1.94686
11
2.90433
21
-1.94499
0
LINE
8
BLACK
6
CONTINUOUS
10
2.90433
20
-1.94499
11
2.90531
21
-1.9447
0
LINE
8
BLACK
6
CONTINUOUS
10
2.90531
20
-1.9447
11
2.90548
21
-1.94474
0
LINE
8
BLACK
6
CONTINUOUS
10
2.90548
20
-1.94474
11
2.90565
21
-1.94468
0
LINE
8
BLACK
6
CONTINUOUS
10
2.90565
20
-1.94468
11
2.91502
21
-1.94468
0
LINE
8
BLACK
6
CONTINUOUS
10
2.91502
20
-1.94468
11
2.91603
21
-1.94486
0
LINE
8
BLACK
6
CONTINUOUS
10
2.95165
20
-1.94486
11
2.95179
21
-1.94497
0
LINE
8
BLACK
6
CONTINUOUS
10
2.95179
20
-1.94497
11
2.95196
21
-1.94499
0
LINE
8
BLACK
6
CONTINUOUS
10
2.95196
20
-1.94499
11
2.95571
21
-1.94686
0
LINE
8
BLACK
6
CONTINUOUS
10
2.95571
20
-1.94686
11
2.95642
21
-1.94739
0
LINE
8
BLACK
6
CONTINUOUS
10
2.95642
20
-1.94739
11
2.95648
21
-1.94742
0
LINE
8
BLACK
6
CONTINUOUS
10
2.95648
20
-1.94742
11
2.95835
21
-1.94929
0
LINE
8
BLACK
6
CONTINUOUS
10
2.95835
20
-1.94929
11
2.95886
21
-1.95002
0
LINE
8
BLACK
6
CONTINUOUS
10
2.95886
20
-1.95002
11
2.95891
21
-1.95006
0
LINE
8
BLACK
6
CONTINUOUS
10
2.95891
20
-1.95006
11
2.96078
21
-1.95381
0
LINE
8
BLACK
6
CONTINUOUS
10
2.96078
20
-1.95381
11
2.96093
21
-1.9543
0
LINE
8
BLACK
6
CONTINUOUS
10
2.96093
20
-1.9543
11
2.96101
21
-1.95441
0
LINE
8
BLACK
6
CONTINUOUS
10
2.96101
20
-1.95441
11
2.96288
21
-1.96191
0
LINE
8
BLACK
6
CONTINUOUS
10
2.96288
20
-1.96191
11
2.96292
21
-1.9625
0
LINE
8
BLACK
6
CONTINUOUS
10
2.96292
20
-1.9625
11
2.96297
21
-1.96263
0
LINE
8
BLACK
6
CONTINUOUS
10
2.96297
20
-1.96263
11
2.96297
21
-1.972
0
LINE
8
BLACK
6
CONTINUOUS
10
2.96297
20
-1.972
11
2.96287
21
-1.97258
0
LINE
8
BLACK
6
CONTINUOUS
10
2.96287
20
-1.97258
11
2.96288
21
-1.97272
0
LINE
8
BLACK
6
CONTINUOUS
10
2.96288
20
-1.97272
11
2.96101
21
-1.98022
0
LINE
8
BLACK
6
CONTINUOUS
10
2.96101
20
-1.98022
11
2.9608
21
-1.98068
0
LINE
8
BLACK
6
CONTINUOUS
10
2.9608
20
-1.98068
11
2.96078
21
-1.98082
0
LINE
8
BLACK
6
CONTINUOUS
10
2.96078
20
-1.98082
11
2.95891
21
-1.98457
0
LINE
8
BLACK
6
CONTINUOUS
10
2.95891
20
-1.98457
11
2.95838
21
-1.98528
0
LINE
8
BLACK
6
CONTINUOUS
10
2.95838
20
-1.98528
11
2.95835
21
-1.98534
0
LINE
8
BLACK
6
CONTINUOUS
10
2.95835
20
-1.98534
11
2.95648
21
-1.98721
0
LINE
8
BLACK
6
CONTINUOUS
10
2.95648
20
-1.98721
11
2.95576
21
-1.98772
0
LINE
8
BLACK
6
CONTINUOUS
10
2.95576
20
-1.98772
11
2.95571
21
-1.98777
0
LINE
8
BLACK
6
CONTINUOUS
10
2.95571
20
-1.98777
11
2.95196
21
-1.98964
0
LINE
8
BLACK
6
CONTINUOUS
10
2.95196
20
-1.98964
11
2.95098
21
-1.98993
0
LINE
8
BLACK
6
CONTINUOUS
10
2.95098
20
-1.98993
11
2.95081
21
-1.98989
0
LINE
8
BLACK
6
CONTINUOUS
10
2.95081
20
-1.98989
11
2.95064
21
-1.98995
0
LINE
8
BLACK
6
CONTINUOUS
10
2.95064
20
-1.98995
11
2.94689
21
-1.98995
0
LINE
8
BLACK
6
CONTINUOUS
10
2.94689
20
-1.98995
11
2.94588
21
-1.98978
0
LINE
8
BLACK
6
CONTINUOUS
10
2.94588
20
-1.98978
11
2.94575
21
-1.98966
0
LINE
8
BLACK
6
CONTINUOUS
10
2.94575
20
-1.98966
11
2.94557
21
-1.98964
0
LINE
8
BLACK
6
CONTINUOUS
10
2.94557
20
-1.98964
11
2.94182
21
-1.98777
0
LINE
8
BLACK
6
CONTINUOUS
10
2.94182
20
-1.98777
11
2.94111
21
-1.98724
0
LINE
8
BLACK
6
CONTINUOUS
10
2.94111
20
-1.98724
11
2.94105
21
-1.98721
0
LINE
8
BLACK
6
CONTINUOUS
10
2.94105
20
-1.98721
11
2.93918
21
-1.98534
0
LINE
8
BLACK
6
CONTINUOUS
10
2.93918
20
-1.98534
11
2.93867
21
-1.98462
0
LINE
8
BLACK
6
CONTINUOUS
10
2.93867
20
-1.98462
11
2.93863
21
-1.98457
0
LINE
8
BLACK
6
CONTINUOUS
10
2.93863
20
-1.98457
11
2.93675
21
-1.98082
0
LINE
8
BLACK
6
CONTINUOUS
10
2.93675
20
-1.98082
11
2.93661
21
-1.98033
0
LINE
8
BLACK
6
CONTINUOUS
10
2.93661
20
-1.98033
11
2.93653
21
-1.98022
0
LINE
8
BLACK
6
CONTINUOUS
10
2.93653
20
-1.98022
11
2.93465
21
-1.97272
0
LINE
8
BLACK
6
CONTINUOUS
10
2.93465
20
-1.97272
11
2.93461
21
-1.97213
0
LINE
8
BLACK
6
CONTINUOUS
10
2.93461
20
-1.97213
11
2.93457
21
-1.972
0
LINE
8
BLACK
6
CONTINUOUS
10
2.93457
20
-1.972
11
2.93457
21
-1.96263
0
LINE
8
BLACK
6
CONTINUOUS
10
2.93457
20
-1.96263
11
2.93467
21
-1.96205
0
LINE
8
BLACK
6
CONTINUOUS
10
2.93467
20
-1.96205
11
2.93465
21
-1.96191
0
LINE
8
BLACK
6
CONTINUOUS
10
2.93465
20
-1.96191
11
2.93653
21
-1.95441
0
LINE
8
BLACK
6
CONTINUOUS
10
2.93653
20
-1.95441
11
2.93674
21
-1.95395
0
LINE
8
BLACK
6
CONTINUOUS
10
2.93674
20
-1.95395
11
2.93675
21
-1.95381
0
LINE
8
BLACK
6
CONTINUOUS
10
2.93675
20
-1.95381
11
2.93863
21
-1.95006
0
LINE
8
BLACK
6
CONTINUOUS
10
2.93863
20
-1.95006
11
2.93915
21
-1.94935
0
LINE
8
BLACK
6
CONTINUOUS
10
2.93915
20
-1.94935
11
2.93918
21
-1.94929
0
LINE
8
BLACK
6
CONTINUOUS
10
2.93918
20
-1.94929
11
2.94105
21
-1.94742
0
LINE
8
BLACK
6
CONTINUOUS
10
2.94105
20
-1.94742
11
2.94178
21
-1.94691
0
LINE
8
BLACK
6
CONTINUOUS
10
2.94178
20
-1.94691
11
2.94182
21
-1.94686
0
LINE
8
BLACK
6
CONTINUOUS
10
2.94182
20
-1.94686
11
2.94557
21
-1.94499
0
LINE
8
BLACK
6
CONTINUOUS
10
2.94557
20
-1.94499
11
2.94655
21
-1.9447
0
LINE
8
BLACK
6
CONTINUOUS
10
2.94655
20
-1.9447
11
2.94673
21
-1.94474
0
LINE
8
BLACK
6
CONTINUOUS
10
2.94673
20
-1.94474
11
2.94689
21
-1.94468
0
LINE
8
BLACK
6
CONTINUOUS
10
2.94689
20
-1.94468
11
2.95064
21
-1.94468
0
LINE
8
BLACK
6
CONTINUOUS
10
2.95064
20
-1.94468
11
2.95165
21
-1.94486
0
LINE
8
BLACK
6
CONTINUOUS
10
2.94489
20
-1.95193
11
2.94369
21
-1.95313
0
LINE
8
BLACK
6
CONTINUOUS
10
2.94369
20
-1.95313
11
2.94218
21
-1.95616
0
LINE
8
BLACK
6
CONTINUOUS
10
2.94218
20
-1.95616
11
2.94047
21
-1.96299
0
LINE
8
BLACK
6
CONTINUOUS
10
2.94047
20
-1.96299
11
2.94047
21
-1.97164
0
LINE
8
BLACK
6
CONTINUOUS
10
2.94047
20
-1.97164
11
2.94218
21
-1.97847
0
LINE
8
BLACK
6
CONTINUOUS
10
2.94218
20
-1.97847
11
2.94369
21
-1.9815
0
LINE
8
BLACK
6
CONTINUOUS
10
2.94369
20
-1.9815
11
2.94489
21
-1.9827
0
LINE
8
BLACK
6
CONTINUOUS
10
2.94489
20
-1.9827
11
2.94759
21
-1.98405
0
LINE
8
BLACK
6
CONTINUOUS
10
2.94759
20
-1.98405
11
2.94994
21
-1.98405
0
LINE
8
BLACK
6
CONTINUOUS
10
2.94994
20
-1.98405
11
2.95264
21
-1.9827
0
LINE
8
BLACK
6
CONTINUOUS
10
2.95264
20
-1.9827
11
2.95384
21
-1.9815
0
LINE
8
BLACK
6
CONTINUOUS
10
2.95384
20
-1.9815
11
2.95535
21
-1.97847
0
LINE
8
BLACK
6
CONTINUOUS
10
2.95535
20
-1.97847
11
2.95706
21
-1.97164
0
LINE
8
BLACK
6
CONTINUOUS
10
2.95706
20
-1.97164
11
2.95706
21
-1.96299
0
LINE
8
BLACK
6
CONTINUOUS
10
2.95706
20
-1.96299
11
2.95535
21
-1.95616
0
LINE
8
BLACK
6
CONTINUOUS
10
2.95535
20
-1.95616
11
2.95384
21
-1.95313
0
LINE
8
BLACK
6
CONTINUOUS
10
2.95384
20
-1.95313
11
2.95264
21
-1.95193
0
LINE
8
BLACK
6
CONTINUOUS
10
2.95264
20
-1.95193
11
2.94994
21
-1.95058
0
LINE
8
BLACK
6
CONTINUOUS
10
2.94994
20
-1.95058
11
2.94759
21
-1.95058
0
LINE
8
BLACK
6
CONTINUOUS
10
2.94759
20
-1.95058
11
2.94489
21
-1.95193
0
LINE
8
BLACK
6
CONTINUOUS
10
2.99102
20
-1.94486
11
2.99116
21
-1.94497
0
LINE
8
BLACK
6
CONTINUOUS
10
2.99116
20
-1.94497
11
2.99133
21
-1.94499
0
LINE
8
BLACK
6
CONTINUOUS
10
2.99133
20
-1.94499
11
2.99508
21
-1.94686
0
LINE
8
BLACK
6
CONTINUOUS
10
2.99508
20
-1.94686
11
2.99579
21
-1.94739
0
LINE
8
BLACK
6
CONTINUOUS
10
2.99579
20
-1.94739
11
2.99585
21
-1.94742
0
LINE
8
BLACK
6
CONTINUOUS
10
2.99585
20
-1.94742
11
2.99772
21
-1.94929
0
LINE
8
BLACK
6
CONTINUOUS
10
2.99772
20
-1.94929
11
2.99823
21
-1.95002
0
LINE
8
BLACK
6
CONTINUOUS
10
2.99823
20
-1.95002
11
2.99828
21
-1.95006
0
LINE
8
BLACK
6
CONTINUOUS
10
2.99828
20
-1.95006
11
3.00015
21
-1.95381
0
LINE
8
BLACK
6
CONTINUOUS
10
3.00015
20
-1.95381
11
3.00044
21
-1.95479
0
LINE
8
BLACK
6
CONTINUOUS
10
3.00044
20
-1.95479
11
3.0004
21
-1.95496
0
LINE
8
BLACK
6
CONTINUOUS
10
3.0004
20
-1.95496
11
3.00046
21
-1.95513
0
LINE
8
BLACK
6
CONTINUOUS
10
3.00046
20
-1.95513
11
3.00046
21
-1.95888
0
LINE
8
BLACK
6
CONTINUOUS
10
3.00046
20
-1.95888
11
3.00031
21
-1.95975
0
LINE
8
BLACK
6
CONTINUOUS
10
3.00031
20
-1.95975
11
3.00031
21
-1.95981
0
LINE
8
BLACK
6
CONTINUOUS
10
3.00031
20
-1.95981
11
2.99844
21
-1.96544
0
LINE
8
BLACK
6
CONTINUOUS
10
2.99844
20
-1.96544
11
2.99795
21
-1.96634
0
LINE
8
BLACK
6
CONTINUOUS
10
2.99795
20
-1.96634
11
2.9978
21
-1.96643
0
LINE
8
BLACK
6
CONTINUOUS
10
2.9978
20
-1.96643
11
2.99772
21
-1.96659
0
LINE
8
BLACK
6
CONTINUOUS
10
2.99772
20
-1.96659
11
2.98027
21
-1.98405
0
LINE
8
BLACK
6
CONTINUOUS
10
2.98027
20
-1.98405
11
2.99751
21
-1.98405
0
LINE
8
BLACK
6
CONTINUOUS
10
2.99751
20
-1.98405
11
2.99852
21
-1.98423
0
LINE
8
BLACK
6
CONTINUOUS
10
2.99852
20
-1.98423
11
3.00007
21
-1.98552
0
LINE
8
BLACK
6
CONTINUOUS
10
3.00007
20
-1.98552
11
3.00042
21
-1.98751
0
LINE
8
BLACK
6
CONTINUOUS
10
3.00042
20
-1.98751
11
2.99941
21
-1.98926
0
LINE
8
BLACK
6
CONTINUOUS
10
2.99941
20
-1.98926
11
2.99751
21
-1.98995
0
LINE
8
BLACK
6
CONTINUOUS
10
2.99751
20
-1.98995
11
2.97314
21
-1.98995
0
LINE
8
BLACK
6
CONTINUOUS
10
2.97314
20
-1.98995
11
2.9725
21
-1.98984
0
LINE
8
BLACK
6
CONTINUOUS
10
2.9725
20
-1.98984
11
2.97237
21
-1.98985
0
LINE
8
BLACK
6
CONTINUOUS
10
2.97237
20
-1.98985
11
2.97231
21
-1.98981
0
LINE
8
BLACK
6
CONTINUOUS
10
2.97231
20
-1.98981
11
2.97213
21
-1.98978
0
LINE
8
BLACK
6
CONTINUOUS
10
2.97213
20
-1.98978
11
2.97145
21
-1.9892
0
LINE
8
BLACK
6
CONTINUOUS
10
2.97145
20
-1.9892
11
2.97072
21
-1.98869
0
LINE
8
BLACK
6
CONTINUOUS
10
2.97072
20
-1.98869
11
2.97069
21
-1.98856
0
LINE
8
BLACK
6
CONTINUOUS
10
2.97069
20
-1.98856
11
2.97058
21
-1.98848
0
LINE
8
BLACK
6
CONTINUOUS
10
2.97058
20
-1.98848
11
2.97043
21
-1.9876
0
LINE
8
BLACK
6
CONTINUOUS
10
2.97043
20
-1.9876
11
2.9702
21
-1.98674
0
LINE
8
BLACK
6
CONTINUOUS
10
2.9702
20
-1.98674
11
2.97025
21
-1.98662
0
LINE
8
BLACK
6
CONTINUOUS
10
2.97025
20
-1.98662
11
2.97023
21
-1.98649
0
LINE
8
BLACK
6
CONTINUOUS
10
2.97023
20
-1.98649
11
2.97068
21
-1.98572
0
LINE
8
BLACK
6
CONTINUOUS
10
2.97068
20
-1.98572
11
2.97105
21
-1.98491
0
LINE
8
BLACK
6
CONTINUOUS
10
2.97105
20
-1.98491
11
2.99306
21
-1.96291
0
LINE
8
BLACK
6
CONTINUOUS
10
2.99306
20
-1.96291
11
2.99456
21
-1.9584
0
LINE
8
BLACK
6
CONTINUOUS
10
2.99456
20
-1.9584
11
2.99456
21
-1.95583
0
LINE
8
BLACK
6
CONTINUOUS
10
2.99456
20
-1.95583
11
2.99321
21
-1.95313
0
LINE
8
BLACK
6
CONTINUOUS
10
2.99321
20
-1.95313
11
2.99201
21
-1.95193
0
LINE
8
BLACK
6
CONTINUOUS
10
2.99201
20
-1.95193
11
2.98931
21
-1.95058
0
LINE
8
BLACK
6
CONTINUOUS
10
2.98931
20
-1.95058
11
2.98134
21
-1.95058
0
LINE
8
BLACK
6
CONTINUOUS
10
2.98134
20
-1.95058
11
2.97864
21
-1.95193
0
LINE
8
BLACK
6
CONTINUOUS
10
2.97864
20
-1.95193
11
2.9771
21
-1.95347
0
LINE
8
BLACK
6
CONTINUOUS
10
2.9771
20
-1.95347
11
2.97626
21
-1.95406
0
LINE
8
BLACK
6
CONTINUOUS
10
2.97626
20
-1.95406
11
2.97425
21
-1.95423
0
LINE
8
BLACK
6
CONTINUOUS
10
2.97425
20
-1.95423
11
2.9726
21
-1.95307
0
LINE
8
BLACK
6
CONTINUOUS
10
2.9726
20
-1.95307
11
2.97207
21
-1.95112
0
LINE
8
BLACK
6
CONTINUOUS
10
2.97207
20
-1.95112
11
2.97293
21
-1.94929
0
LINE
8
BLACK
6
CONTINUOUS
10
2.97293
20
-1.94929
11
2.9748
21
-1.94742
0
LINE
8
BLACK
6
CONTINUOUS
10
2.9748
20
-1.94742
11
2.97552
21
-1.94691
0
LINE
8
BLACK
6
CONTINUOUS
10
2.97552
20
-1.94691
11
2.97557
21
-1.94686
0
LINE
8
BLACK
6
CONTINUOUS
10
2.97557
20
-1.94686
11
2.97932
21
-1.94499
0
LINE
8
BLACK
6
CONTINUOUS
10
2.97932
20
-1.94499
11
2.9803
21
-1.9447
0
LINE
8
BLACK
6
CONTINUOUS
10
2.9803
20
-1.9447
11
2.98047
21
-1.94474
0
LINE
8
BLACK
6
CONTINUOUS
10
2.98047
20
-1.94474
11
2.98064
21
-1.94468
0
LINE
8
BLACK
6
CONTINUOUS
10
2.98064
20
-1.94468
11
2.99001
21
-1.94468
0
LINE
8
BLACK
6
CONTINUOUS
10
2.99001
20
-1.94468
11
2.99102
21
-1.94486
0
LINE
8
BLACK
6
CONTINUOUS
10
3.03544
20
-1.94476
11
3.03558
21
-1.94473
0
LINE
8
BLACK
6
CONTINUOUS
10
3.03558
20
-1.94473
11
3.03568
21
-1.9448
0
LINE
8
BLACK
6
CONTINUOUS
10
3.03568
20
-1.9448
11
3.03602
21
-1.94486
0
LINE
8
BLACK
6
CONTINUOUS
10
3.03602
20
-1.94486
11
3.03663
21
-1.94537
0
LINE
8
BLACK
6
CONTINUOUS
10
3.03663
20
-1.94537
11
3.03731
21
-1.94578
0
LINE
8
BLACK
6
CONTINUOUS
10
3.03731
20
-1.94578
11
3.03738
21
-1.946
0
LINE
8
BLACK
6
CONTINUOUS
10
3.03738
20
-1.946
11
3.03756
21
-1.94615
0
LINE
8
BLACK
6
CONTINUOUS
10
3.03756
20
-1.94615
11
3.0377
21
-1.94694
0
LINE
8
BLACK
6
CONTINUOUS
10
3.0377
20
-1.94694
11
3.03796
21
-1.94769
0
LINE
8
BLACK
6
CONTINUOUS
10
3.03796
20
-1.94769
11
3.03787
21
-1.94791
0
LINE
8
BLACK
6
CONTINUOUS
10
3.03787
20
-1.94791
11
3.03791
21
-1.94814
0
LINE
8
BLACK
6
CONTINUOUS
10
3.03791
20
-1.94814
11
3.03752
21
-1.94883
0
LINE
8
BLACK
6
CONTINUOUS
10
3.03752
20
-1.94883
11
3.03723
21
-1.94958
0
LINE
8
BLACK
6
CONTINUOUS
10
3.03723
20
-1.94958
11
3.02827
21
-1.95981
0
LINE
8
BLACK
6
CONTINUOUS
10
3.02827
20
-1.95981
11
3.02852
21
-1.95985
0
LINE
8
BLACK
6
CONTINUOUS
10
3.02852
20
-1.95985
11
3.02865
21
-1.95997
0
LINE
8
BLACK
6
CONTINUOUS
10
3.02865
20
-1.95997
11
3.02883
21
-1.95999
0
LINE
8
BLACK
6
CONTINUOUS
10
3.02883
20
-1.95999
11
3.03258
21
-1.96186
0
LINE
8
BLACK
6
CONTINUOUS
10
3.03258
20
-1.96186
11
3.03329
21
-1.96239
0
LINE
8
BLACK
6
CONTINUOUS
10
3.03329
20
-1.96239
11
3.03334
21
-1.96242
0
LINE
8
BLACK
6
CONTINUOUS
10
3.03334
20
-1.96242
11
3.03522
21
-1.96429
0
LINE
8
BLACK
6
CONTINUOUS
10
3.03522
20
-1.96429
11
3.03573
21
-1.96501
0
LINE
8
BLACK
6
CONTINUOUS
10
3.03573
20
-1.96501
11
3.03577
21
-1.96506
0
LINE
8
BLACK
6
CONTINUOUS
10
3.03577
20
-1.96506
11
3.03765
21
-1.96881
0
LINE
8
BLACK
6
CONTINUOUS
10
3.03765
20
-1.96881
11
3.03794
21
-1.96979
0
LINE
8
BLACK
6
CONTINUOUS
10
3.03794
20
-1.96979
11
3.0379
21
-1.96996
0
LINE
8
BLACK
6
CONTINUOUS
10
3.0379
20
-1.96996
11
3.03796
21
-1.97013
0
LINE
8
BLACK
6
CONTINUOUS
10
3.03796
20
-1.97013
11
3.03796
21
-1.9795
0
LINE
8
BLACK
6
CONTINUOUS
10
3.03796
20
-1.9795
11
3.03778
21
-1.98051
0
LINE
8
BLACK
6
CONTINUOUS
10
3.03778
20
-1.98051
11
3.03767
21
-1.98065
0
LINE
8
BLACK
6
CONTINUOUS
10
3.03767
20
-1.98065
11
3.03765
21
-1.98082
0
LINE
8
BLACK
6
CONTINUOUS
10
3.03765
20
-1.98082
11
3.03577
21
-1.98457
0
LINE
8
BLACK
6
CONTINUOUS
10
3.03577
20
-1.98457
11
3.03525
21
-1.98528
0
LINE
8
BLACK
6
CONTINUOUS
10
3.03525
20
-1.98528
11
3.03522
21
-1.98534
0
LINE
8
BLACK
6
CONTINUOUS
10
3.03522
20
-1.98534
11
3.03334
21
-1.98721
0
LINE
8
BLACK
6
CONTINUOUS
10
3.03334
20
-1.98721
11
3.03262
21
-1.98772
0
LINE
8
BLACK
6
CONTINUOUS
10
3.03262
20
-1.98772
11
3.03258
21
-1.98777
0
LINE
8
BLACK
6
CONTINUOUS
10
3.03258
20
-1.98777
11
3.02883
21
-1.98964
0
LINE
8
BLACK
6
CONTINUOUS
10
3.02883
20
-1.98964
11
3.02784
21
-1.98993
0
LINE
8
BLACK
6
CONTINUOUS
10
3.02784
20
-1.98993
11
3.02767
21
-1.98989
0
LINE
8
BLACK
6
CONTINUOUS
10
3.02767
20
-1.98989
11
3.02751
21
-1.98995
0
LINE
8
BLACK
6
CONTINUOUS
10
3.02751
20
-1.98995
11
3.01626
21
-1.98995
0
LINE
8
BLACK
6
CONTINUOUS
10
3.01626
20
-1.98995
11
3.01525
21
-1.98978
0
LINE
8
BLACK
6
CONTINUOUS
10
3.01525
20
-1.98978
11
3.01511
21
-1.98966
0
LINE
8
BLACK
6
CONTINUOUS
10
3.01511
20
-1.98966
11
3.01494
21
-1.98964
0
LINE
8
BLACK
6
CONTINUOUS
10
3.01494
20
-1.98964
11
3.01119
21
-1.98777
0
LINE
8
BLACK
6
CONTINUOUS
10
3.01119
20
-1.98777
11
3.01048
21
-1.98724
0
LINE
8
BLACK
6
CONTINUOUS
10
3.01048
20
-1.98724
11
3.01042
21
-1.98721
0
LINE
8
BLACK
6
CONTINUOUS
10
3.01042
20
-1.98721
11
3.00855
21
-1.98534
0
LINE
8
BLACK
6
CONTINUOUS
10
3.00855
20
-1.98534
11
3.00796
21
-1.9845
0
LINE
8
BLACK
6
CONTINUOUS
10
3.00796
20
-1.9845
11
3.00778
21
-1.98249
0
LINE
8
BLACK
6
CONTINUOUS
10
3.00778
20
-1.98249
11
3.00894
21
-1.98083
0
LINE
8
BLACK
6
CONTINUOUS
10
3.00894
20
-1.98083
11
3.01089
21
-1.98031
0
LINE
8
BLACK
6
CONTINUOUS
10
3.01089
20
-1.98031
11
3.01272
21
-1.98116
0
LINE
8
BLACK
6
CONTINUOUS
10
3.01272
20
-1.98116
11
3.01426
21
-1.9827
0
LINE
8
BLACK
6
CONTINUOUS
10
3.01426
20
-1.9827
11
3.01696
21
-1.98405
0
LINE
8
BLACK
6
CONTINUOUS
10
3.01696
20
-1.98405
11
3.02681
21
-1.98405
0
LINE
8
BLACK
6
CONTINUOUS
10
3.02681
20
-1.98405
11
3.02951
21
-1.9827
0
LINE
8
BLACK
6
CONTINUOUS
10
3.02951
20
-1.9827
11
3.0307
21
-1.9815
0
LINE
8
BLACK
6
CONTINUOUS
10
3.0307
20
-1.9815
11
3.03205
21
-1.9788
0
LINE
8
BLACK
6
CONTINUOUS
10
3.03205
20
-1.9788
11
3.03205
21
-1.97082
0
LINE
8
BLACK
6
CONTINUOUS
10
3.03205
20
-1.97082
11
3.0307
21
-1.96813
0
LINE
8
BLACK
6
CONTINUOUS
10
3.0307
20
-1.96813
11
3.02951
21
-1.96693
0
LINE
8
BLACK
6
CONTINUOUS
10
3.02951
20
-1.96693
11
3.02681
21
-1.96558
0
LINE
8
BLACK
6
CONTINUOUS
10
3.02681
20
-1.96558
11
3.02188
21
-1.96558
0
LINE
8
BLACK
6
CONTINUOUS
10
3.02188
20
-1.96558
11
3.02145
21
-1.9655
0
LINE
8
BLACK
6
CONTINUOUS
10
3.02145
20
-1.9655
11
3.02131
21
-1.96553
0
LINE
8
BLACK
6
CONTINUOUS
10
3.02131
20
-1.96553
11
3.02121
21
-1.96546
0
LINE
8
BLACK
6
CONTINUOUS
10
3.02121
20
-1.96546
11
3.02087
21
-1.9654
0
LINE
8
BLACK
6
CONTINUOUS
10
3.02087
20
-1.9654
11
3.02026
21
-1.96489
0
LINE
8
BLACK
6
CONTINUOUS
10
3.02026
20
-1.96489
11
3.01958
21
-1.96448
0
LINE
8
BLACK
6
CONTINUOUS
10
3.01958
20
-1.96448
11
3.01951
21
-1.96426
0
LINE
8
BLACK
6
CONTINUOUS
10
3.01951
20
-1.96426
11
3.01933
21
-1.96411
0
LINE
8
BLACK
6
CONTINUOUS
10
3.01933
20
-1.96411
11
3.01919
21
-1.96332
0
LINE
8
BLACK
6
CONTINUOUS
10
3.01919
20
-1.96332
11
3.01893
21
-1.96257
0
LINE
8
BLACK
6
CONTINUOUS
10
3.01893
20
-1.96257
11
3.01902
21
-1.96235
0
LINE
8
BLACK
6
CONTINUOUS
10
3.01902
20
-1.96235
11
3.01898
21
-1.96212
0
LINE
8
BLACK
6
CONTINUOUS
10
3.01898
20
-1.96212
11
3.01937
21
-1.96143
0
LINE
8
BLACK
6
CONTINUOUS
10
3.01937
20
-1.96143
11
3.01966
21
-1.96068
0
LINE
8
BLACK
6
CONTINUOUS
10
3.01966
20
-1.96068
11
3.0285
21
-1.95058
0
LINE
8
BLACK
6
CONTINUOUS
10
3.0285
20
-1.95058
11
3.01063
21
-1.95058
0
LINE
8
BLACK
6
CONTINUOUS
10
3.01063
20
-1.95058
11
3.00962
21
-1.95041
0
LINE
8
BLACK
6
CONTINUOUS
10
3.00962
20
-1.95041
11
3.00808
21
-1.94911
0
LINE
8
BLACK
6
CONTINUOUS
10
3.00808
20
-1.94911
11
3.00773
21
-1.94712
0
LINE
8
BLACK
6
CONTINUOUS
10
3.00773
20
-1.94712
11
3.00874
21
-1.94537
0
LINE
8
BLACK
6
CONTINUOUS
10
3.00874
20
-1.94537
11
3.01063
21
-1.94468
0
LINE
8
BLACK
6
CONTINUOUS
10
3.01063
20
-1.94468
11
3.03501
21
-1.94468
0
LINE
8
BLACK
6
CONTINUOUS
10
3.03501
20
-1.94468
11
3.03544
21
-1.94476
0
LINE
8
BLACK
6
CONTINUOUS
10
3.11288
20
-1.94486
11
3.11302
21
-1.94497
0
LINE
8
BLACK
6
CONTINUOUS
10
3.11302
20
-1.94497
11
3.11319
21
-1.94499
0
LINE
8
BLACK
6
CONTINUOUS
10
3.11319
20
-1.94499
11
3.11694
21
-1.94686
0
LINE
8
BLACK
6
CONTINUOUS
10
3.11694
20
-1.94686
11
3.11765
21
-1.94739
0
LINE
8
BLACK
6
CONTINUOUS
10
3.11765
20
-1.94739
11
3.11771
21
-1.94742
0
LINE
8
BLACK
6
CONTINUOUS
10
3.11771
20
-1.94742
11
3.11958
21
-1.94929
0
LINE
8
BLACK
6
CONTINUOUS
10
3.11958
20
-1.94929
11
3.12009
21
-1.95002
0
LINE
8
BLACK
6
CONTINUOUS
10
3.12009
20
-1.95002
11
3.12014
21
-1.95006
0
LINE
8
BLACK
6
CONTINUOUS
10
3.12014
20
-1.95006
11
3.12201
21
-1.95381
0
LINE
8
BLACK
6
CONTINUOUS
10
3.12201
20
-1.95381
11
3.12216
21
-1.9543
0
LINE
8
BLACK
6
CONTINUOUS
10
3.12216
20
-1.9543
11
3.12224
21
-1.95441
0
LINE
8
BLACK
6
CONTINUOUS
10
3.12224
20
-1.95441
11
3.12411
21
-1.96191
0
LINE
8
BLACK
6
CONTINUOUS
10
3.12411
20
-1.96191
11
3.12415
21
-1.9625
0
LINE
8
BLACK
6
CONTINUOUS
10
3.12415
20
-1.9625
11
3.1242
21
-1.96263
0
LINE
8
BLACK
6
CONTINUOUS
10
3.1242
20
-1.96263
11
3.1242
21
-1.972
0
LINE
8
BLACK
6
CONTINUOUS
10
3.1242
20
-1.972
11
3.1241
21
-1.97258
0
LINE
8
BLACK
6
CONTINUOUS
10
3.1241
20
-1.97258
11
3.12411
21
-1.97272
0
LINE
8
BLACK
6
CONTINUOUS
10
3.12411
20
-1.97272
11
3.12224
21
-1.98022
0
LINE
8
BLACK
6
CONTINUOUS
10
3.12224
20
-1.98022
11
3.12203
21
-1.98068
0
LINE
8
BLACK
6
CONTINUOUS
10
3.12203
20
-1.98068
11
3.12201
21
-1.98082
0
LINE
8
BLACK
6
CONTINUOUS
10
3.12201
20
-1.98082
11
3.12014
21
-1.98457
0
LINE
8
BLACK
6
CONTINUOUS
10
3.12014
20
-1.98457
11
3.11961
21
-1.98528
0
LINE
8
BLACK
6
CONTINUOUS
10
3.11961
20
-1.98528
11
3.11958
21
-1.98534
0
LINE
8
BLACK
6
CONTINUOUS
10
3.11958
20
-1.98534
11
3.11771
21
-1.98721
0
LINE
8
BLACK
6
CONTINUOUS
10
3.11771
20
-1.98721
11
3.11699
21
-1.98772
0
LINE
8
BLACK
6
CONTINUOUS
10
3.11699
20
-1.98772
11
3.11694
21
-1.98777
0
LINE
8
BLACK
6
CONTINUOUS
10
3.11694
20
-1.98777
11
3.11319
21
-1.98964
0
LINE
8
BLACK
6
CONTINUOUS
10
3.11319
20
-1.98964
11
3.11221
21
-1.98993
0
LINE
8
BLACK
6
CONTINUOUS
10
3.11221
20
-1.98993
11
3.11204
21
-1.98989
0
LINE
8
BLACK
6
CONTINUOUS
10
3.11204
20
-1.98989
11
3.11187
21
-1.98995
0
LINE
8
BLACK
6
CONTINUOUS
10
3.11187
20
-1.98995
11
3.10812
21
-1.98995
0
LINE
8
BLACK
6
CONTINUOUS
10
3.10812
20
-1.98995
11
3.10711
21
-1.98978
0
LINE
8
BLACK
6
CONTINUOUS
10
3.10711
20
-1.98978
11
3.10698
21
-1.98966
0
LINE
8
BLACK
6
CONTINUOUS
10
3.10698
20
-1.98966
11
3.1068
21
-1.98964
0
LINE
8
BLACK
6
CONTINUOUS
10
3.1068
20
-1.98964
11
3.10305
21
-1.98777
0
LINE
8
BLACK
6
CONTINUOUS
10
3.10305
20
-1.98777
11
3.10234
21
-1.98724
0
LINE
8
BLACK
6
CONTINUOUS
10
3.10234
20
-1.98724
11
3.10228
21
-1.98721
0
LINE
8
BLACK
6
CONTINUOUS
10
3.10228
20
-1.98721
11
3.10041
21
-1.98534
0
LINE
8
BLACK
6
CONTINUOUS
10
3.10041
20
-1.98534
11
3.0999
21
-1.98462
0
LINE
8
BLACK
6
CONTINUOUS
10
3.0999
20
-1.98462
11
3.09986
21
-1.98457
0
LINE
8
BLACK
6
CONTINUOUS
10
3.09986
20
-1.98457
11
3.09798
21
-1.98082
0
LINE
8
BLACK
6
CONTINUOUS
10
3.09798
20
-1.98082
11
3.09784
21
-1.98033
0
LINE
8
BLACK
6
CONTINUOUS
10
3.09784
20
-1.98033
11
3.09776
21
-1.98022
0
LINE
8
BLACK
6
CONTINUOUS
10
3.09776
20
-1.98022
11
3.09588
21
-1.97272
0
LINE
8
BLACK
6
CONTINUOUS
10
3.09588
20
-1.97272
11
3.09584
21
-1.97213
0
LINE
8
BLACK
6
CONTINUOUS
10
3.09584
20
-1.97213
11
3.0958
21
-1.972
0
LINE
8
BLACK
6
CONTINUOUS
10
3.0958
20
-1.972
11
3.0958
21
-1.96263
0
LINE
8
BLACK
6
CONTINUOUS
10
3.0958
20
-1.96263
11
3.0959
21
-1.96205
0
LINE
8
BLACK
6
CONTINUOUS
10
3.0959
20
-1.96205
11
3.09588
21
-1.96191
0
LINE
8
BLACK
6
CONTINUOUS
10
3.09588
20
-1.96191
11
3.09776
21
-1.95441
0
LINE
8
BLACK
6
CONTINUOUS
10
3.09776
20
-1.95441
11
3.09797
21
-1.95395
0
LINE
8
BLACK
6
CONTINUOUS
10
3.09797
20
-1.95395
11
3.09798
21
-1.95381
0
LINE
8
BLACK
6
CONTINUOUS
10
3.09798
20
-1.95381
11
3.09986
21
-1.95006
0
LINE
8
BLACK
6
CONTINUOUS
10
3.09986
20
-1.95006
11
3.10038
21
-1.94935
0
LINE
8
BLACK
6
CONTINUOUS
10
3.10038
20
-1.94935
11
3.10041
21
-1.94929
0
LINE
8
BLACK
6
CONTINUOUS
10
3.10041
20
-1.94929
11
3.10228
21
-1.94742
0
LINE
8
BLACK
6
CONTINUOUS
10
3.10228
20
-1.94742
11
3.10301
21
-1.94691
0
LINE
8
BLACK
6
CONTINUOUS
10
3.10301
20
-1.94691
11
3.10305
21
-1.94686
0
LINE
8
BLACK
6
CONTINUOUS
10
3.10305
20
-1.94686
11
3.1068
21
-1.94499
0
LINE
8
BLACK
6
CONTINUOUS
10
3.1068
20
-1.94499
11
3.10778
21
-1.9447
0
LINE
8
BLACK
6
CONTINUOUS
10
3.10778
20
-1.9447
11
3.10796
21
-1.94474
0
LINE
8
BLACK
6
CONTINUOUS
10
3.10796
20
-1.94474
11
3.10812
21
-1.94468
0
LINE
8
BLACK
6
CONTINUOUS
10
3.10812
20
-1.94468
11
3.11187
21
-1.94468
0
LINE
8
BLACK
6
CONTINUOUS
10
3.11187
20
-1.94468
11
3.11288
21
-1.94486
0
LINE
8
BLACK
6
CONTINUOUS
10
3.10612
20
-1.95193
11
3.10492
21
-1.95313
0
LINE
8
BLACK
6
CONTINUOUS
10
3.10492
20
-1.95313
11
3.10341
21
-1.95616
0
LINE
8
BLACK
6
CONTINUOUS
10
3.10341
20
-1.95616
11
3.1017
21
-1.96299
0
LINE
8
BLACK
6
CONTINUOUS
10
3.1017
20
-1.96299
11
3.1017
21
-1.97164
0
LINE
8
BLACK
6
CONTINUOUS
10
3.1017
20
-1.97164
11
3.10341
21
-1.97847
0
LINE
8
BLACK
6
CONTINUOUS
10
3.10341
20
-1.97847
11
3.10492
21
-1.9815
0
LINE
8
BLACK
6
CONTINUOUS
10
3.10492
20
-1.9815
11
3.10612
21
-1.9827
0
LINE
8
BLACK
6
CONTINUOUS
10
3.10612
20
-1.9827
11
3.10882
21
-1.98405
0
LINE
8
BLACK
6
CONTINUOUS
10
3.10882
20
-1.98405
11
3.11117
21
-1.98405
0
LINE
8
BLACK
6
CONTINUOUS
10
3.11117
20
-1.98405
11
3.11387
21
-1.9827
0
LINE
8
BLACK
6
CONTINUOUS
10
3.11387
20
-1.9827
11
3.11507
21
-1.9815
0
LINE
8
BLACK
6
CONTINUOUS
10
3.11507
20
-1.9815
11
3.11658
21
-1.97847
0
LINE
8
BLACK
6
CONTINUOUS
10
3.11658
20
-1.97847
11
3.11829
21
-1.97164
0
LINE
8
BLACK
6
CONTINUOUS
10
3.11829
20
-1.97164
11
3.11829
21
-1.96299
0
LINE
8
BLACK
6
CONTINUOUS
10
3.11829
20
-1.96299
11
3.11658
21
-1.95616
0
LINE
8
BLACK
6
CONTINUOUS
10
3.11658
20
-1.95616
11
3.11507
21
-1.95313
0
LINE
8
BLACK
6
CONTINUOUS
10
3.11507
20
-1.95313
11
3.11387
21
-1.95193
0
LINE
8
BLACK
6
CONTINUOUS
10
3.11387
20
-1.95193
11
3.11117
21
-1.95058
0
LINE
8
BLACK
6
CONTINUOUS
10
3.11117
20
-1.95058
11
3.10882
21
-1.95058
0
LINE
8
BLACK
6
CONTINUOUS
10
3.10882
20
-1.95058
11
3.10612
21
-1.95193
0
LINE
8
BLACK
6
CONTINUOUS
10
3.156
20
-1.94486
11
3.15755
21
-1.94615
0
LINE
8
BLACK
6
CONTINUOUS
10
3.15755
20
-1.94615
11
3.1579
21
-1.94814
0
LINE
8
BLACK
6
CONTINUOUS
10
3.1579
20
-1.94814
11
3.15689
21
-1.94989
0
LINE
8
BLACK
6
CONTINUOUS
10
3.15689
20
-1.94989
11
3.15499
21
-1.95058
0
LINE
8
BLACK
6
CONTINUOUS
10
3.15499
20
-1.95058
11
3.14819
21
-1.95058
0
LINE
8
BLACK
6
CONTINUOUS
10
3.14819
20
-1.95058
11
3.14549
21
-1.95193
0
LINE
8
BLACK
6
CONTINUOUS
10
3.14549
20
-1.95193
11
3.14416
21
-1.95326
0
LINE
8
BLACK
6
CONTINUOUS
10
3.14416
20
-1.95326
11
3.14086
21
-1.95822
0
LINE
8
BLACK
6
CONTINUOUS
10
3.14086
20
-1.95822
11
3.14013
21
-1.96113
0
LINE
8
BLACK
6
CONTINUOUS
10
3.14013
20
-1.96113
11
3.14242
21
-1.95999
0
LINE
8
BLACK
6
CONTINUOUS
10
3.14242
20
-1.95999
11
3.14341
21
-1.9597
0
LINE
8
BLACK
6
CONTINUOUS
10
3.14341
20
-1.9597
11
3.14358
21
-1.95974
0
LINE
8
BLACK
6
CONTINUOUS
10
3.14358
20
-1.95974
11
3.14374
21
-1.95968
0
LINE
8
BLACK
6
CONTINUOUS
10
3.14374
20
-1.95968
11
3.15124
21
-1.95968
0
LINE
8
BLACK
6
CONTINUOUS
10
3.15124
20
-1.95968
11
3.15225
21
-1.95985
0
LINE
8
BLACK
6
CONTINUOUS
10
3.15225
20
-1.95985
11
3.15239
21
-1.95997
0
LINE
8
BLACK
6
CONTINUOUS
10
3.15239
20
-1.95997
11
3.15256
21
-1.95999
0
LINE
8
BLACK
6
CONTINUOUS
10
3.15256
20
-1.95999
11
3.15631
21
-1.96186
0
LINE
8
BLACK
6
CONTINUOUS
10
3.15631
20
-1.96186
11
3.15702
21
-1.96239
0
LINE
8
BLACK
6
CONTINUOUS
10
3.15702
20
-1.96239
11
3.15708
21
-1.96242
0
LINE
8
BLACK
6
CONTINUOUS
10
3.15708
20
-1.96242
11
3.15895
21
-1.96429
0
LINE
8
BLACK
6
CONTINUOUS
10
3.15895
20
-1.96429
11
3.15946
21
-1.96501
0
LINE
8
BLACK
6
CONTINUOUS
10
3.15946
20
-1.96501
11
3.15951
21
-1.96506
0
LINE
8
BLACK
6
CONTINUOUS
10
3.15951
20
-1.96506
11
3.16138
21
-1.96881
0
LINE
8
BLACK
6
CONTINUOUS
10
3.16138
20
-1.96881
11
3.16167
21
-1.96979
0
LINE
8
BLACK
6
CONTINUOUS
10
3.16167
20
-1.96979
11
3.16163
21
-1.96996
0
LINE
8
BLACK
6
CONTINUOUS
10
3.16163
20
-1.96996
11
3.16169
21
-1.97013
0
LINE
8
BLACK
6
CONTINUOUS
10
3.16169
20
-1.97013
11
3.16169
21
-1.9795
0
LINE
8
BLACK
6
CONTINUOUS
10
3.16169
20
-1.9795
11
3.16152
21
-1.98051
0
LINE
8
BLACK
6
CONTINUOUS
10
3.16152
20
-1.98051
11
3.1614
21
-1.98065
0
LINE
8
BLACK
6
CONTINUOUS
10
3.1614
20
-1.98065
11
3.16138
21
-1.98082
0
LINE
8
BLACK
6
CONTINUOUS
10
3.16138
20
-1.98082
11
3.15951
21
-1.98457
0
LINE
8
BLACK
6
CONTINUOUS
10
3.15951
20
-1.98457
11
3.15898
21
-1.98528
0
LINE
8
BLACK
6
CONTINUOUS
10
3.15898
20
-1.98528
11
3.15895
21
-1.98534
0
LINE
8
BLACK
6
CONTINUOUS
10
3.15895
20
-1.98534
11
3.15708
21
-1.98721
0
LINE
8
BLACK
6
CONTINUOUS
10
3.15708
20
-1.98721
11
3.15636
21
-1.98772
0
LINE
8
BLACK
6
CONTINUOUS
10
3.15636
20
-1.98772
11
3.15631
21
-1.98777
0
LINE
8
BLACK
6
CONTINUOUS
10
3.15631
20
-1.98777
11
3.15256
21
-1.98964
0
LINE
8
BLACK
6
CONTINUOUS
10
3.15256
20
-1.98964
11
3.15158
21
-1.98993
0
LINE
8
BLACK
6
CONTINUOUS
10
3.15158
20
-1.98993
11
3.15141
21
-1.98989
0
LINE
8
BLACK
6
CONTINUOUS
10
3.15141
20
-1.98989
11
3.15124
21
-1.98995
0
LINE
8
BLACK
6
CONTINUOUS
10
3.15124
20
-1.98995
11
3.14374
21
-1.98995
0
LINE
8
BLACK
6
CONTINUOUS
10
3.14374
20
-1.98995
11
3.14273
21
-1.98978
0
LINE
8
BLACK
6
CONTINUOUS
10
3.14273
20
-1.98978
11
3.1426
21
-1.98966
0
LINE
8
BLACK
6
CONTINUOUS
10
3.1426
20
-1.98966
11
3.14242
21
-1.98964
0
LINE
8
BLACK
6
CONTINUOUS
10
3.14242
20
-1.98964
11
3.13867
21
-1.98777
0
LINE
8
BLACK
6
CONTINUOUS
10
3.13867
20
-1.98777
11
3.13796
21
-1.98724
0
LINE
8
BLACK
6
CONTINUOUS
10
3.13796
20
-1.98724
11
3.13791
21
-1.98721
0
LINE
8
BLACK
6
CONTINUOUS
10
3.13791
20
-1.98721
11
3.13603
21
-1.98534
0
LINE
8
BLACK
6
CONTINUOUS
10
3.13603
20
-1.98534
11
3.13552
21
-1.98462
0
LINE
8
BLACK
6
CONTINUOUS
10
3.13552
20
-1.98462
11
3.13548
21
-1.98457
0
LINE
8
BLACK
6
CONTINUOUS
10
3.13548
20
-1.98457
11
3.1336
21
-1.98082
0
LINE
8
BLACK
6
CONTINUOUS
10
3.1336
20
-1.98082
11
3.13331
21
-1.97984
0
LINE
8
BLACK
6
CONTINUOUS
10
3.13331
20
-1.97984
11
3.13335
21
-1.97967
0
LINE
8
BLACK
6
CONTINUOUS
10
3.13335
20
-1.97967
11
3.13329
21
-1.9795
0
LINE
8
BLACK
6
CONTINUOUS
10
3.13329
20
-1.9795
11
3.13329
21
-1.9645
0
LINE
8
BLACK
6
CONTINUOUS
10
3.13329
20
-1.9645
11
3.13339
21
-1.96392
0
LINE
8
BLACK
6
CONTINUOUS
10
3.13339
20
-1.96392
11
3.13338
21
-1.96379
0
LINE
8
BLACK
6
CONTINUOUS
10
3.13338
20
-1.96379
11
3.13525
21
-1.95629
0
LINE
8
BLACK
6
CONTINUOUS
10
3.13525
20
-1.95629
11
3.13566
21
-1.95538
0
LINE
8
BLACK
6
CONTINUOUS
10
3.13566
20
-1.95538
11
3.13566
21
-1.95537
0
LINE
8
BLACK
6
CONTINUOUS
10
3.13566
20
-1.95537
11
3.13941
21
-1.94974
0
LINE
8
BLACK
6
CONTINUOUS
10
3.13941
20
-1.94974
11
3.13972
21
-1.94942
0
LINE
8
BLACK
6
CONTINUOUS
10
3.13972
20
-1.94942
11
3.13978
21
-1.94929
0
LINE
8
BLACK
6
CONTINUOUS
10
3.13978
20
-1.94929
11
3.14165
21
-1.94742
0
LINE
8
BLACK
6
CONTINUOUS
10
3.14165
20
-1.94742
11
3.14238
21
-1.94691
0
LINE
8
BLACK
6
CONTINUOUS
10
3.14238
20
-1.94691
11
3.14242
21
-1.94686
0
LINE
8
BLACK
6
CONTINUOUS
10
3.14242
20
-1.94686
11
3.14617
21
-1.94499
0
LINE
8
BLACK
6
CONTINUOUS
10
3.14617
20
-1.94499
11
3.14715
21
-1.9447
0
LINE
8
BLACK
6
CONTINUOUS
10
3.14715
20
-1.9447
11
3.14733
21
-1.94474
0
LINE
8
BLACK
6
CONTINUOUS
10
3.14733
20
-1.94474
11
3.14749
21
-1.94468
0
LINE
8
BLACK
6
CONTINUOUS
10
3.14749
20
-1.94468
11
3.15499
21
-1.94468
0
LINE
8
BLACK
6
CONTINUOUS
10
3.15499
20
-1.94468
11
3.156
21
-1.94486
0
LINE
8
BLACK
6
CONTINUOUS
10
3.14174
20
-1.96693
11
3.14055
21
-1.96813
0
LINE
8
BLACK
6
CONTINUOUS
10
3.14055
20
-1.96813
11
3.1392
21
-1.97082
0
LINE
8
BLACK
6
CONTINUOUS
10
3.1392
20
-1.97082
11
3.1392
21
-1.9788
0
LINE
8
BLACK
6
CONTINUOUS
10
3.1392
20
-1.9788
11
3.14055
21
-1.9815
0
LINE
8
BLACK
6
CONTINUOUS
10
3.14055
20
-1.9815
11
3.14174
21
-1.9827
0
LINE
8
BLACK
6
CONTINUOUS
10
3.14174
20
-1.9827
11
3.14444
21
-1.98405
0
LINE
8
BLACK
6
CONTINUOUS
10
3.14444
20
-1.98405
11
3.15054
21
-1.98405
0
LINE
8
BLACK
6
CONTINUOUS
10
3.15054
20
-1.98405
11
3.15324
21
-1.9827
0
LINE
8
BLACK
6
CONTINUOUS
10
3.15324
20
-1.9827
11
3.15444
21
-1.9815
0
LINE
8
BLACK
6
CONTINUOUS
10
3.15444
20
-1.9815
11
3.15579
21
-1.9788
0
LINE
8
BLACK
6
CONTINUOUS
10
3.15579
20
-1.9788
11
3.15579
21
-1.97082
0
LINE
8
BLACK
6
CONTINUOUS
10
3.15579
20
-1.97082
11
3.15444
21
-1.96813
0
LINE
8
BLACK
6
CONTINUOUS
10
3.15444
20
-1.96813
11
3.15324
21
-1.96693
0
LINE
8
BLACK
6
CONTINUOUS
10
3.15324
20
-1.96693
11
3.15054
21
-1.96558
0
LINE
8
BLACK
6
CONTINUOUS
10
3.15054
20
-1.96558
11
3.14444
21
-1.96558
0
LINE
8
BLACK
6
CONTINUOUS
10
3.14444
20
-1.96558
11
3.14174
21
-1.96693
0
LINE
8
BLACK
6
CONTINUOUS
10
2.58169
20
-1.98037
11
2.58183
21
-1.98034
0
LINE
8
BLACK
6
CONTINUOUS
10
2.58183
20
-1.98034
11
2.58194
21
-1.98041
0
LINE
8
BLACK
6
CONTINUOUS
10
2.58194
20
-1.98041
11
2.58208
21
-1.9804
0
LINE
8
BLACK
6
CONTINUOUS
10
2.58208
20
-1.9804
11
2.58271
21
-1.98084
0
LINE
8
BLACK
6
CONTINUOUS
10
2.58271
20
-1.98084
11
2.5834
21
-1.98116
0
LINE
8
BLACK
6
CONTINUOUS
10
2.5834
20
-1.98116
11
2.58528
21
-1.98304
0
LINE
8
BLACK
6
CONTINUOUS
10
2.58528
20
-1.98304
11
2.5855
21
-1.98336
0
LINE
8
BLACK
6
CONTINUOUS
10
2.5855
20
-1.98336
11
2.58561
21
-1.98343
0
LINE
8
BLACK
6
CONTINUOUS
10
2.58561
20
-1.98343
11
2.58564
21
-1.98356
0
LINE
8
BLACK
6
CONTINUOUS
10
2.58564
20
-1.98356
11
2.58586
21
-1.98388
0
LINE
8
BLACK
6
CONTINUOUS
10
2.58586
20
-1.98388
11
2.58593
21
-1.98464
0
LINE
8
BLACK
6
CONTINUOUS
10
2.58593
20
-1.98464
11
2.58613
21
-1.98538
0
LINE
8
BLACK
6
CONTINUOUS
10
2.58613
20
-1.98538
11
2.58602
21
-1.98562
0
LINE
8
BLACK
6
CONTINUOUS
10
2.58602
20
-1.98562
11
2.58604
21
-1.98589
0
LINE
8
BLACK
6
CONTINUOUS
10
2.58604
20
-1.98589
11
2.5856
21
-1.98652
0
LINE
8
BLACK
6
CONTINUOUS
10
2.5856
20
-1.98652
11
2.58528
21
-1.98721
0
LINE
8
BLACK
6
CONTINUOUS
10
2.58528
20
-1.98721
11
2.5834
21
-1.98909
0
LINE
8
BLACK
6
CONTINUOUS
10
2.5834
20
-1.98909
11
2.58308
21
-1.98931
0
LINE
8
BLACK
6
CONTINUOUS
10
2.58308
20
-1.98931
11
2.58301
21
-1.98942
0
LINE
8
BLACK
6
CONTINUOUS
10
2.58301
20
-1.98942
11
2.58288
21
-1.98945
0
LINE
8
BLACK
6
CONTINUOUS
10
2.58288
20
-1.98945
11
2.58287
21
-1.98946
0
LINE
8
BLACK
6
CONTINUOUS
10
2.58287
20
-1.98946
11
2.58279
21
-1.98956
0
LINE
8
BLACK
6
CONTINUOUS
10
2.58279
20
-1.98956
11
2.58271
21
-1.98957
0
LINE
8
BLACK
6
CONTINUOUS
10
2.58271
20
-1.98957
11
2.58256
21
-1.98968
0
LINE
8
BLACK
6
CONTINUOUS
10
2.58256
20
-1.98968
11
2.5818
21
-1.98974
0
LINE
8
BLACK
6
CONTINUOUS
10
2.5818
20
-1.98974
11
2.58106
21
-1.98994
0
LINE
8
BLACK
6
CONTINUOUS
10
2.58106
20
-1.98994
11
2.58093
21
-1.98989
0
LINE
8
BLACK
6
CONTINUOUS
10
2.58093
20
-1.98989
11
2.5808
21
-1.98991
0
LINE
8
BLACK
6
CONTINUOUS
10
2.5808
20
-1.98991
11
2.58068
21
-1.98984
0
LINE
8
BLACK
6
CONTINUOUS
10
2.58068
20
-1.98984
11
2.58055
21
-1.98985
0
LINE
8
BLACK
6
CONTINUOUS
10
2.58055
20
-1.98985
11
2.57992
21
-1.98941
0
LINE
8
BLACK
6
CONTINUOUS
10
2.57992
20
-1.98941
11
2.57923
21
-1.98909
0
LINE
8
BLACK
6
CONTINUOUS
10
2.57923
20
-1.98909
11
2.57735
21
-1.98721
0
LINE
8
BLACK
6
CONTINUOUS
10
2.57735
20
-1.98721
11
2.57713
21
-1.98689
0
LINE
8
BLACK
6
CONTINUOUS
10
2.57713
20
-1.98689
11
2.57702
21
-1.98682
0
LINE
8
BLACK
6
CONTINUOUS
10
2.57702
20
-1.98682
11
2.57699
21
-1.98669
0
LINE
8
BLACK
6
CONTINUOUS
10
2.57699
20
-1.98669
11
2.57676
21
-1.98637
0
LINE
8
BLACK
6
CONTINUOUS
10
2.57676
20
-1.98637
11
2.5767
21
-1.98561
0
LINE
8
BLACK
6
CONTINUOUS
10
2.5767
20
-1.98561
11
2.5765
21
-1.98487
0
LINE
8
BLACK
6
CONTINUOUS
10
2.5765
20
-1.98487
11
2.57661
21
-1.98463
0
LINE
8
BLACK
6
CONTINUOUS
10
2.57661
20
-1.98463
11
2.57659
21
-1.98436
0
LINE
8
BLACK
6
CONTINUOUS
10
2.57659
20
-1.98436
11
2.57703
21
-1.98373
0
LINE
8
BLACK
6
CONTINUOUS
10
2.57703
20
-1.98373
11
2.57735
21
-1.98304
0
LINE
8
BLACK
6
CONTINUOUS
10
2.57735
20
-1.98304
11
2.57923
21
-1.98116
0
LINE
8
BLACK
6
CONTINUOUS
10
2.57923
20
-1.98116
11
2.57954
21
-1.98094
0
LINE
8
BLACK
6
CONTINUOUS
10
2.57954
20
-1.98094
11
2.57962
21
-1.98083
0
LINE
8
BLACK
6
CONTINUOUS
10
2.57962
20
-1.98083
11
2.57975
21
-1.9808
0
LINE
8
BLACK
6
CONTINUOUS
10
2.57975
20
-1.9808
11
2.57975
21
-1.98079
0
LINE
8
BLACK
6
CONTINUOUS
10
2.57975
20
-1.98079
11
2.57984
21
-1.98069
0
LINE
8
BLACK
6
CONTINUOUS
10
2.57984
20
-1.98069
11
2.57991
21
-1.98068
0
LINE
8
BLACK
6
CONTINUOUS
10
2.57991
20
-1.98068
11
2.58007
21
-1.98058
0
LINE
8
BLACK
6
CONTINUOUS
10
2.58007
20
-1.98058
11
2.58083
21
-1.98051
0
LINE
8
BLACK
6
CONTINUOUS
10
2.58083
20
-1.98051
11
2.58157
21
-1.98031
0
LINE
8
BLACK
6
CONTINUOUS
10
2.58157
20
-1.98031
11
2.58169
21
-1.98037
0
LINE
8
BLACK
6
CONTINUOUS
10
2.32602
20
-1.94511
11
2.32727
21
-1.9467
0
LINE
8
BLACK
6
CONTINUOUS
10
2.32727
20
-1.9467
11
2.33759
21
-1.97766
0
LINE
8
BLACK
6
CONTINUOUS
10
2.33759
20
-1.97766
11
2.34792
21
-1.9467
0
LINE
8
BLACK
6
CONTINUOUS
10
2.34792
20
-1.9467
11
2.3484
21
-1.9458
0
LINE
8
BLACK
6
CONTINUOUS
10
2.3484
20
-1.9458
11
2.35012
21
-1.94474
0
LINE
8
BLACK
6
CONTINUOUS
10
2.35012
20
-1.94474
11
2.35212
21
-1.94503
0
LINE
8
BLACK
6
CONTINUOUS
10
2.35212
20
-1.94503
11
2.35346
21
-1.94655
0
LINE
8
BLACK
6
CONTINUOUS
10
2.35346
20
-1.94655
11
2.35352
21
-1.94856
0
LINE
8
BLACK
6
CONTINUOUS
10
2.35352
20
-1.94856
11
2.34039
21
-1.98793
0
LINE
8
BLACK
6
CONTINUOUS
10
2.34039
20
-1.98793
11
2.33991
21
-1.98884
0
LINE
8
BLACK
6
CONTINUOUS
10
2.33991
20
-1.98884
11
2.33983
21
-1.98888
0
LINE
8
BLACK
6
CONTINUOUS
10
2.33983
20
-1.98888
11
2.3398
21
-1.98896
0
LINE
8
BLACK
6
CONTINUOUS
10
2.3398
20
-1.98896
11
2.33898
21
-1.9894
0
LINE
8
BLACK
6
CONTINUOUS
10
2.33898
20
-1.9894
11
2.33819
21
-1.98989
0
LINE
8
BLACK
6
CONTINUOUS
10
2.33819
20
-1.98989
11
2.3381
21
-1.98988
0
LINE
8
BLACK
6
CONTINUOUS
10
2.3381
20
-1.98988
11
2.33803
21
-1.98992
0
LINE
8
BLACK
6
CONTINUOUS
10
2.33803
20
-1.98992
11
2.33711
21
-1.98973
0
LINE
8
BLACK
6
CONTINUOUS
10
2.33711
20
-1.98973
11
2.33619
21
-1.9896
0
LINE
8
BLACK
6
CONTINUOUS
10
2.33619
20
-1.9896
11
2.33613
21
-1.98953
0
LINE
8
BLACK
6
CONTINUOUS
10
2.33613
20
-1.98953
11
2.33605
21
-1.98952
0
LINE
8
BLACK
6
CONTINUOUS
10
2.33605
20
-1.98952
11
2.33547
21
-1.98879
0
LINE
8
BLACK
6
CONTINUOUS
10
2.33547
20
-1.98879
11
2.33485
21
-1.98809
0
LINE
8
BLACK
6
CONTINUOUS
10
2.33485
20
-1.98809
11
2.33485
21
-1.988
0
LINE
8
BLACK
6
CONTINUOUS
10
2.33485
20
-1.988
11
2.33479
21
-1.98793
0
LINE
8
BLACK
6
CONTINUOUS
10
2.33479
20
-1.98793
11
2.32167
21
-1.94856
0
LINE
8
BLACK
6
CONTINUOUS
10
2.32167
20
-1.94856
11
2.32152
21
-1.94755
0
LINE
8
BLACK
6
CONTINUOUS
10
2.32152
20
-1.94755
11
2.32226
21
-1.94567
0
LINE
8
BLACK
6
CONTINUOUS
10
2.32226
20
-1.94567
11
2.32404
21
-1.94471
0
LINE
8
BLACK
6
CONTINUOUS
10
2.32404
20
-1.94471
11
2.32602
21
-1.94511
0
LINE
8
BLACK
6
CONTINUOUS
10
2.51156
20
-1.95821
11
2.51285
21
-1.95976
0
LINE
8
BLACK
6
CONTINUOUS
10
2.51285
20
-1.95976
11
2.51945
21
-1.97822
0
LINE
8
BLACK
6
CONTINUOUS
10
2.51945
20
-1.97822
11
2.52604
21
-1.95976
0
LINE
8
BLACK
6
CONTINUOUS
10
2.52604
20
-1.95976
11
2.52655
21
-1.95887
0
LINE
8
BLACK
6
CONTINUOUS
10
2.52655
20
-1.95887
11
2.52829
21
-1.95785
0
LINE
8
BLACK
6
CONTINUOUS
10
2.52829
20
-1.95785
11
2.53028
21
-1.95819
0
LINE
8
BLACK
6
CONTINUOUS
10
2.53028
20
-1.95819
11
2.53159
21
-1.95973
0
LINE
8
BLACK
6
CONTINUOUS
10
2.53159
20
-1.95973
11
2.5316
21
-1.96175
0
LINE
8
BLACK
6
CONTINUOUS
10
2.5316
20
-1.96175
11
2.52223
21
-1.98799
0
LINE
8
BLACK
6
CONTINUOUS
10
2.52223
20
-1.98799
11
2.52172
21
-1.98889
0
LINE
8
BLACK
6
CONTINUOUS
10
2.52172
20
-1.98889
11
2.5217
21
-1.98889
0
LINE
8
BLACK
6
CONTINUOUS
10
2.5217
20
-1.98889
11
2.5217
21
-1.98891
0
LINE
8
BLACK
6
CONTINUOUS
10
2.5217
20
-1.98891
11
2.52084
21
-1.9894
0
LINE
8
BLACK
6
CONTINUOUS
10
2.52084
20
-1.9894
11
2.51998
21
-1.98991
0
LINE
8
BLACK
6
CONTINUOUS
10
2.51998
20
-1.98991
11
2.51996
21
-1.9899
0
LINE
8
BLACK
6
CONTINUOUS
10
2.51996
20
-1.9899
11
2.51994
21
-1.98991
0
LINE
8
BLACK
6
CONTINUOUS
10
2.51994
20
-1.98991
11
2.51897
21
-1.98973
0
LINE
8
BLACK
6
CONTINUOUS
10
2.51897
20
-1.98973
11
2.51798
21
-1.98957
0
LINE
8
BLACK
6
CONTINUOUS
10
2.51798
20
-1.98957
11
2.51797
21
-1.98955
0
LINE
8
BLACK
6
CONTINUOUS
10
2.51797
20
-1.98955
11
2.51795
21
-1.98955
0
LINE
8
BLACK
6
CONTINUOUS
10
2.51795
20
-1.98955
11
2.51732
21
-1.98878
0
LINE
8
BLACK
6
CONTINUOUS
10
2.51732
20
-1.98878
11
2.51668
21
-1.98803
0
LINE
8
BLACK
6
CONTINUOUS
10
2.51668
20
-1.98803
11
2.51668
21
-1.98801
0
LINE
8
BLACK
6
CONTINUOUS
10
2.51668
20
-1.98801
11
2.51667
21
-1.98799
0
LINE
8
BLACK
6
CONTINUOUS
10
2.51667
20
-1.98799
11
2.50729
21
-1.96175
0
LINE
8
BLACK
6
CONTINUOUS
10
2.50729
20
-1.96175
11
2.50712
21
-1.96074
0
LINE
8
BLACK
6
CONTINUOUS
10
2.50712
20
-1.96074
11
2.50782
21
-1.95884
0
LINE
8
BLACK
6
CONTINUOUS
10
2.50782
20
-1.95884
11
2.50958
21
-1.95784
0
LINE
8
BLACK
6
CONTINUOUS
10
2.50958
20
-1.95784
11
2.51156
21
-1.95821
0
LINE
8
BLACK
6
CONTINUOUS
10
2.22799
20
-1.94486
11
2.22813
21
-1.94497
0
LINE
8
BLACK
6
CONTINUOUS
10
2.22813
20
-1.94497
11
2.2283
21
-1.94499
0
LINE
8
BLACK
6
CONTINUOUS
10
2.2283
20
-1.94499
11
2.23205
21
-1.94686
0
LINE
8
BLACK
6
CONTINUOUS
10
2.23205
20
-1.94686
11
2.23276
21
-1.94739
0
LINE
8
BLACK
6
CONTINUOUS
10
2.23276
20
-1.94739
11
2.23282
21
-1.94742
0
LINE
8
BLACK
6
CONTINUOUS
10
2.23282
20
-1.94742
11
2.23469
21
-1.94929
0
LINE
8
BLACK
6
CONTINUOUS
10
2.23469
20
-1.94929
11
2.2352
21
-1.95002
0
LINE
8
BLACK
6
CONTINUOUS
10
2.2352
20
-1.95002
11
2.23525
21
-1.95006
0
LINE
8
BLACK
6
CONTINUOUS
10
2.23525
20
-1.95006
11
2.23712
21
-1.95381
0
LINE
8
BLACK
6
CONTINUOUS
10
2.23712
20
-1.95381
11
2.23741
21
-1.95479
0
LINE
8
BLACK
6
CONTINUOUS
10
2.23741
20
-1.95479
11
2.23737
21
-1.95496
0
LINE
8
BLACK
6
CONTINUOUS
10
2.23737
20
-1.95496
11
2.23743
21
-1.95513
0
LINE
8
BLACK
6
CONTINUOUS
10
2.23743
20
-1.95513
11
2.23743
21
-1.96075
0
LINE
8
BLACK
6
CONTINUOUS
10
2.23743
20
-1.96075
11
2.23726
21
-1.96176
0
LINE
8
BLACK
6
CONTINUOUS
10
2.23726
20
-1.96176
11
2.23714
21
-1.9619
0
LINE
8
BLACK
6
CONTINUOUS
10
2.23714
20
-1.9619
11
2.23712
21
-1.96207
0
LINE
8
BLACK
6
CONTINUOUS
10
2.23712
20
-1.96207
11
2.23525
21
-1.96582
0
LINE
8
BLACK
6
CONTINUOUS
10
2.23525
20
-1.96582
11
2.23472
21
-1.96653
0
LINE
8
BLACK
6
CONTINUOUS
10
2.23472
20
-1.96653
11
2.23469
21
-1.96659
0
LINE
8
BLACK
6
CONTINUOUS
10
2.23469
20
-1.96659
11
2.23282
21
-1.96847
0
LINE
8
BLACK
6
CONTINUOUS
10
2.23282
20
-1.96847
11
2.2321
21
-1.96897
0
LINE
8
BLACK
6
CONTINUOUS
10
2.2321
20
-1.96897
11
2.23205
21
-1.96902
0
LINE
8
BLACK
6
CONTINUOUS
10
2.23205
20
-1.96902
11
2.2283
21
-1.97089
0
LINE
8
BLACK
6
CONTINUOUS
10
2.2283
20
-1.97089
11
2.22732
21
-1.97119
0
LINE
8
BLACK
6
CONTINUOUS
10
2.22732
20
-1.97119
11
2.22715
21
-1.97115
0
LINE
8
BLACK
6
CONTINUOUS
10
2.22715
20
-1.97115
11
2.22698
21
-1.97121
0
LINE
8
BLACK
6
CONTINUOUS
10
2.22698
20
-1.97121
11
2.21494
21
-1.97121
0
LINE
8
BLACK
6
CONTINUOUS
10
2.21494
20
-1.97121
11
2.21494
21
-1.987
0
LINE
8
BLACK
6
CONTINUOUS
10
2.21494
20
-1.987
11
2.21476
21
-1.98801
0
LINE
8
BLACK
6
CONTINUOUS
10
2.21476
20
-1.98801
11
2.21346
21
-1.98956
0
LINE
8
BLACK
6
CONTINUOUS
10
2.21346
20
-1.98956
11
2.21147
21
-1.98991
0
LINE
8
BLACK
6
CONTINUOUS
10
2.21147
20
-1.98991
11
2.20972
21
-1.9889
0
LINE
8
BLACK
6
CONTINUOUS
10
2.20972
20
-1.9889
11
2.20903
21
-1.987
0
LINE
8
BLACK
6
CONTINUOUS
10
2.20903
20
-1.987
11
2.20903
21
-1.94763
0
LINE
8
BLACK
6
CONTINUOUS
10
2.20903
20
-1.94763
11
2.2091
21
-1.94725
0
LINE
8
BLACK
6
CONTINUOUS
10
2.2091
20
-1.94725
11
2.20908
21
-1.94712
0
LINE
8
BLACK
6
CONTINUOUS
10
2.20908
20
-1.94712
11
2.20914
21
-1.947
0
LINE
8
BLACK
6
CONTINUOUS
10
2.20914
20
-1.947
11
2.20921
21
-1.94662
0
LINE
8
BLACK
6
CONTINUOUS
10
2.20921
20
-1.94662
11
2.2097
21
-1.94603
0
LINE
8
BLACK
6
CONTINUOUS
10
2.2097
20
-1.94603
11
2.21009
21
-1.94537
0
LINE
8
BLACK
6
CONTINUOUS
10
2.21009
20
-1.94537
11
2.21034
21
-1.94528
0
LINE
8
BLACK
6
CONTINUOUS
10
2.21034
20
-1.94528
11
2.21051
21
-1.94507
0
LINE
8
BLACK
6
CONTINUOUS
10
2.21051
20
-1.94507
11
2.21126
21
-1.94494
0
LINE
8
BLACK
6
CONTINUOUS
10
2.21126
20
-1.94494
11
2.21198
21
-1.94468
0
LINE
8
BLACK
6
CONTINUOUS
10
2.21198
20
-1.94468
11
2.22698
21
-1.94468
0
LINE
8
BLACK
6
CONTINUOUS
10
2.22698
20
-1.94468
11
2.22799
21
-1.94486
0
LINE
8
BLACK
6
CONTINUOUS
10
2.21494
20
-1.9653
11
2.22629
21
-1.9653
0
LINE
8
BLACK
6
CONTINUOUS
10
2.22629
20
-1.9653
11
2.22898
21
-1.96395
0
LINE
8
BLACK
6
CONTINUOUS
10
2.22898
20
-1.96395
11
2.23018
21
-1.96275
0
LINE
8
BLACK
6
CONTINUOUS
10
2.23018
20
-1.96275
11
2.23153
21
-1.96006
0
LINE
8
BLACK
6
CONTINUOUS
10
2.23153
20
-1.96006
11
2.23153
21
-1.95583
0
LINE
8
BLACK
6
CONTINUOUS
10
2.23153
20
-1.95583
11
2.23018
21
-1.95313
0
LINE
8
BLACK
6
CONTINUOUS
10
2.23018
20
-1.95313
11
2.22898
21
-1.95193
0
LINE
8
BLACK
6
CONTINUOUS
10
2.22898
20
-1.95193
11
2.22629
21
-1.95058
0
LINE
8
BLACK
6
CONTINUOUS
10
2.22629
20
-1.95058
11
2.21494
21
-1.95058
0
LINE
8
BLACK
6
CONTINUOUS
10
2.21494
20
-1.95058
11
2.21494
21
-1.9653
0
LINE
8
BLACK
6
CONTINUOUS
10
2.26924
20
-1.94486
11
2.27078
21
-1.94615
0
LINE
8
BLACK
6
CONTINUOUS
10
2.27078
20
-1.94615
11
2.27114
21
-1.94814
0
LINE
8
BLACK
6
CONTINUOUS
10
2.27114
20
-1.94814
11
2.27013
21
-1.94989
0
LINE
8
BLACK
6
CONTINUOUS
10
2.27013
20
-1.94989
11
2.26823
21
-1.95058
0
LINE
8
BLACK
6
CONTINUOUS
10
2.26823
20
-1.95058
11
2.25993
21
-1.95058
0
LINE
8
BLACK
6
CONTINUOUS
10
2.25993
20
-1.95058
11
2.25993
21
-1.987
0
LINE
8
BLACK
6
CONTINUOUS
10
2.25993
20
-1.987
11
2.25975
21
-1.98801
0
LINE
8
BLACK
6
CONTINUOUS
10
2.25975
20
-1.98801
11
2.25845
21
-1.98956
0
LINE
8
BLACK
6
CONTINUOUS
10
2.25845
20
-1.98956
11
2.25647
21
-1.98991
0
LINE
8
BLACK
6
CONTINUOUS
10
2.25647
20
-1.98991
11
2.25472
21
-1.9889
0
LINE
8
BLACK
6
CONTINUOUS
10
2.25472
20
-1.9889
11
2.25403
21
-1.987
0
LINE
8
BLACK
6
CONTINUOUS
10
2.25403
20
-1.987
11
2.25403
21
-1.95058
0
LINE
8
BLACK
6
CONTINUOUS
10
2.25403
20
-1.95058
11
2.24573
21
-1.95058
0
LINE
8
BLACK
6
CONTINUOUS
10
2.24573
20
-1.95058
11
2.24472
21
-1.95041
0
LINE
8
BLACK
6
CONTINUOUS
10
2.24472
20
-1.95041
11
2.24317
21
-1.94911
0
LINE
8
BLACK
6
CONTINUOUS
10
2.24317
20
-1.94911
11
2.24282
21
-1.94712
0
LINE
8
BLACK
6
CONTINUOUS
10
2.24282
20
-1.94712
11
2.24383
21
-1.94537
0
LINE
8
BLACK
6
CONTINUOUS
10
2.24383
20
-1.94537
11
2.24573
21
-1.94468
0
LINE
8
BLACK
6
CONTINUOUS
10
2.24573
20
-1.94468
11
2.26823
21
-1.94468
0
LINE
8
BLACK
6
CONTINUOUS
10
2.26823
20
-1.94468
11
2.26924
21
-1.94486
0
LINE
8
BLACK
6
CONTINUOUS
10
2.42583
20
-1.94479
11
2.42622
21
-1.94472
0
LINE
8
BLACK
6
CONTINUOUS
10
2.42622
20
-1.94472
11
2.42678
21
-1.94505
0
LINE
8
BLACK
6
CONTINUOUS
10
2.42678
20
-1.94505
11
2.4274
21
-1.94521
0
LINE
8
BLACK
6
CONTINUOUS
10
2.4274
20
-1.94521
11
2.42763
21
-1.94554
0
LINE
8
BLACK
6
CONTINUOUS
10
2.42763
20
-1.94554
11
2.42797
21
-1.94573
0
LINE
8
BLACK
6
CONTINUOUS
10
2.42797
20
-1.94573
11
2.42819
21
-1.94634
0
LINE
8
BLACK
6
CONTINUOUS
10
2.42819
20
-1.94634
11
2.42856
21
-1.94687
0
LINE
8
BLACK
6
CONTINUOUS
10
2.42856
20
-1.94687
11
2.42853
21
-1.94726
0
LINE
8
BLACK
6
CONTINUOUS
10
2.42853
20
-1.94726
11
2.42866
21
-1.94763
0
LINE
8
BLACK
6
CONTINUOUS
10
2.42866
20
-1.94763
11
2.42866
21
-1.987
0
LINE
8
BLACK
6
CONTINUOUS
10
2.42866
20
-1.987
11
2.42848
21
-1.98801
0
LINE
8
BLACK
6
CONTINUOUS
10
2.42848
20
-1.98801
11
2.42718
21
-1.98956
0
LINE
8
BLACK
6
CONTINUOUS
10
2.42718
20
-1.98956
11
2.42519
21
-1.98991
0
LINE
8
BLACK
6
CONTINUOUS
10
2.42519
20
-1.98991
11
2.42345
21
-1.9889
0
LINE
8
BLACK
6
CONTINUOUS
10
2.42345
20
-1.9889
11
2.42275
21
-1.987
0
LINE
8
BLACK
6
CONTINUOUS
10
2.42275
20
-1.987
11
2.42275
21
-1.96094
0
LINE
8
BLACK
6
CONTINUOUS
10
2.42275
20
-1.96094
11
2.41526
21
-1.977
0
LINE
8
BLACK
6
CONTINUOUS
10
2.41526
20
-1.977
11
2.41504
21
-1.97732
0
LINE
8
BLACK
6
CONTINUOUS
10
2.41504
20
-1.97732
11
2.415
21
-1.97745
0
LINE
8
BLACK
6
CONTINUOUS
10
2.415
20
-1.97745
11
2.4149
21
-1.97752
0
LINE
8
BLACK
6
CONTINUOUS
10
2.4149
20
-1.97752
11
2.41467
21
-1.97784
0
LINE
8
BLACK
6
CONTINUOUS
10
2.41467
20
-1.97784
11
2.41398
21
-1.97816
0
LINE
8
BLACK
6
CONTINUOUS
10
2.41398
20
-1.97816
11
2.41335
21
-1.9786
0
LINE
8
BLACK
6
CONTINUOUS
10
2.41335
20
-1.9786
11
2.41308
21
-1.97858
0
LINE
8
BLACK
6
CONTINUOUS
10
2.41308
20
-1.97858
11
2.41284
21
-1.97869
0
LINE
8
BLACK
6
CONTINUOUS
10
2.41284
20
-1.97869
11
2.4121
21
-1.9785
0
LINE
8
BLACK
6
CONTINUOUS
10
2.4121
20
-1.9785
11
2.41134
21
-1.97843
0
LINE
8
BLACK
6
CONTINUOUS
10
2.41134
20
-1.97843
11
2.41115
21
-1.97824
0
LINE
8
BLACK
6
CONTINUOUS
10
2.41115
20
-1.97824
11
2.41089
21
-1.97817
0
LINE
8
BLACK
6
CONTINUOUS
10
2.41089
20
-1.97817
11
2.41045
21
-1.97754
0
LINE
8
BLACK
6
CONTINUOUS
10
2.41045
20
-1.97754
11
2.40991
21
-1.977
0
LINE
8
BLACK
6
CONTINUOUS
10
2.40991
20
-1.977
11
2.40241
21
-1.96094
0
LINE
8
BLACK
6
CONTINUOUS
10
2.40241
20
-1.96094
11
2.40241
21
-1.987
0
LINE
8
BLACK
6
CONTINUOUS
10
2.40241
20
-1.987
11
2.40224
21
-1.98801
0
LINE
8
BLACK
6
CONTINUOUS
10
2.40224
20
-1.98801
11
2.40094
21
-1.98956
0
LINE
8
BLACK
6
CONTINUOUS
10
2.40094
20
-1.98956
11
2.39895
21
-1.98991
0
LINE
8
BLACK
6
CONTINUOUS
10
2.39895
20
-1.98991
11
2.3972
21
-1.9889
0
LINE
8
BLACK
6
CONTINUOUS
10
2.3972
20
-1.9889
11
2.39651
21
-1.987
0
LINE
8
BLACK
6
CONTINUOUS
10
2.39651
20
-1.987
11
2.39651
21
-1.94763
0
LINE
8
BLACK
6
CONTINUOUS
10
2.39651
20
-1.94763
11
2.39669
21
-1.94662
0
LINE
8
BLACK
6
CONTINUOUS
10
2.39669
20
-1.94662
11
2.39694
21
-1.94632
0
LINE
8
BLACK
6
CONTINUOUS
10
2.39694
20
-1.94632
11
2.39704
21
-1.94594
0
LINE
8
BLACK
6
CONTINUOUS
10
2.39704
20
-1.94594
11
2.39757
21
-1.94557
0
LINE
8
BLACK
6
CONTINUOUS
10
2.39757
20
-1.94557
11
2.39798
21
-1.94507
0
LINE
8
BLACK
6
CONTINUOUS
10
2.39798
20
-1.94507
11
2.39837
21
-1.945
0
LINE
8
BLACK
6
CONTINUOUS
10
2.39837
20
-1.945
11
2.3987
21
-1.94478
0
LINE
8
BLACK
6
CONTINUOUS
10
2.3987
20
-1.94478
11
2.39934
21
-1.94483
0
LINE
8
BLACK
6
CONTINUOUS
10
2.39934
20
-1.94483
11
2.39997
21
-1.94472
0
LINE
8
BLACK
6
CONTINUOUS
10
2.39997
20
-1.94472
11
2.40032
21
-1.94492
0
LINE
8
BLACK
6
CONTINUOUS
10
2.40032
20
-1.94492
11
2.40071
21
-1.94495
0
LINE
8
BLACK
6
CONTINUOUS
10
2.40071
20
-1.94495
11
2.40116
21
-1.94541
0
LINE
8
BLACK
6
CONTINUOUS
10
2.40116
20
-1.94541
11
2.40172
21
-1.94573
0
LINE
8
BLACK
6
CONTINUOUS
10
2.40172
20
-1.94573
11
2.40186
21
-1.9461
0
LINE
8
BLACK
6
CONTINUOUS
10
2.40186
20
-1.9461
11
2.40214
21
-1.94638
0
LINE
8
BLACK
6
CONTINUOUS
10
2.40214
20
-1.94638
11
2.41258
21
-1.96877
0
LINE
8
BLACK
6
CONTINUOUS
10
2.41258
20
-1.96877
11
2.42303
21
-1.94638
0
LINE
8
BLACK
6
CONTINUOUS
10
2.42303
20
-1.94638
11
2.42362
21
-1.94554
0
LINE
8
BLACK
6
CONTINUOUS
10
2.42362
20
-1.94554
11
2.42398
21
-1.94538
0
LINE
8
BLACK
6
CONTINUOUS
10
2.42398
20
-1.94538
11
2.42423
21
-1.94507
0
LINE
8
BLACK
6
CONTINUOUS
10
2.42423
20
-1.94507
11
2.42487
21
-1.94496
0
LINE
8
BLACK
6
CONTINUOUS
10
2.42487
20
-1.94496
11
2.42545
21
-1.94469
0
LINE
8
BLACK
6
CONTINUOUS
10
2.42545
20
-1.94469
11
2.42583
21
-1.94479
0
LINE
8
BLACK
6
CONTINUOUS
10
2.79542
20
-1.94573
11
2.79611
21
-1.94763
0
LINE
8
BLACK
6
CONTINUOUS
10
2.79611
20
-1.94763
11
2.79611
21
-1.987
0
LINE
8
BLACK
6
CONTINUOUS
10
2.79611
20
-1.987
11
2.79594
21
-1.98801
0
LINE
8
BLACK
6
CONTINUOUS
10
2.79594
20
-1.98801
11
2.79464
21
-1.98956
0
LINE
8
BLACK
6
CONTINUOUS
10
2.79464
20
-1.98956
11
2.79265
21
-1.98991
0
LINE
8
BLACK
6
CONTINUOUS
10
2.79265
20
-1.98991
11
2.7909
21
-1.9889
0
LINE
8
BLACK
6
CONTINUOUS
10
2.7909
20
-1.9889
11
2.79021
21
-1.987
0
LINE
8
BLACK
6
CONTINUOUS
10
2.79021
20
-1.987
11
2.79021
21
-1.96933
0
LINE
8
BLACK
6
CONTINUOUS
10
2.79021
20
-1.96933
11
2.77362
21
-1.96933
0
LINE
8
BLACK
6
CONTINUOUS
10
2.77362
20
-1.96933
11
2.77362
21
-1.987
0
LINE
8
BLACK
6
CONTINUOUS
10
2.77362
20
-1.987
11
2.77344
21
-1.98801
0
LINE
8
BLACK
6
CONTINUOUS
10
2.77344
20
-1.98801
11
2.77214
21
-1.98956
0
LINE
8
BLACK
6
CONTINUOUS
10
2.77214
20
-1.98956
11
2.77015
21
-1.98991
0
LINE
8
BLACK
6
CONTINUOUS
10
2.77015
20
-1.98991
11
2.7684
21
-1.9889
0
LINE
8
BLACK
6
CONTINUOUS
10
2.7684
20
-1.9889
11
2.76771
21
-1.987
0
LINE
8
BLACK
6
CONTINUOUS
10
2.76771
20
-1.987
11
2.76771
21
-1.94763
0
LINE
8
BLACK
6
CONTINUOUS
10
2.76771
20
-1.94763
11
2.76789
21
-1.94662
0
LINE
8
BLACK
6
CONTINUOUS
10
2.76789
20
-1.94662
11
2.76919
21
-1.94507
0
LINE
8
BLACK
6
CONTINUOUS
10
2.76919
20
-1.94507
11
2.77118
21
-1.94472
0
LINE
8
BLACK
6
CONTINUOUS
10
2.77118
20
-1.94472
11
2.77293
21
-1.94573
0
LINE
8
BLACK
6
CONTINUOUS
10
2.77293
20
-1.94573
11
2.77362
21
-1.94763
0
LINE
8
BLACK
6
CONTINUOUS
10
2.77362
20
-1.94763
11
2.77362
21
-1.96343
0
LINE
8
BLACK
6
CONTINUOUS
10
2.77362
20
-1.96343
11
2.79021
21
-1.96343
0
LINE
8
BLACK
6
CONTINUOUS
10
2.79021
20
-1.96343
11
2.79021
21
-1.94763
0
LINE
8
BLACK
6
CONTINUOUS
10
2.79021
20
-1.94763
11
2.79039
21
-1.94662
0
LINE
8
BLACK
6
CONTINUOUS
10
2.79039
20
-1.94662
11
2.79169
21
-1.94507
0
LINE
8
BLACK
6
CONTINUOUS
10
2.79169
20
-1.94507
11
2.79367
21
-1.94472
0
LINE
8
BLACK
6
CONTINUOUS
10
2.79367
20
-1.94472
11
2.79542
21
-1.94573
0
LINE
8
BLACK
6
CONTINUOUS
10
2.31236
20
-1.96923
11
2.3139
21
-1.97053
0
LINE
8
BLACK
6
CONTINUOUS
10
2.3139
20
-1.97053
11
2.31425
21
-1.97252
0
LINE
8
BLACK
6
CONTINUOUS
10
2.31425
20
-1.97252
11
2.31324
21
-1.97426
0
LINE
8
BLACK
6
CONTINUOUS
10
2.31324
20
-1.97426
11
2.31135
21
-1.97496
0
LINE
8
BLACK
6
CONTINUOUS
10
2.31135
20
-1.97496
11
2.28135
21
-1.97496
0
LINE
8
BLACK
6
CONTINUOUS
10
2.28135
20
-1.97496
11
2.28034
21
-1.97478
0
LINE
8
BLACK
6
CONTINUOUS
10
2.28034
20
-1.97478
11
2.27879
21
-1.97348
0
LINE
8
BLACK
6
CONTINUOUS
10
2.27879
20
-1.97348
11
2.27844
21
-1.97149
0
LINE
8
BLACK
6
CONTINUOUS
10
2.27844
20
-1.97149
11
2.27945
21
-1.96974
0
LINE
8
BLACK
6
CONTINUOUS
10
2.27945
20
-1.96974
11
2.28135
21
-1.96905
0
LINE
8
BLACK
6
CONTINUOUS
10
2.28135
20
-1.96905
11
2.31135
21
-1.96905
0
LINE
8
BLACK
6
CONTINUOUS
10
2.31135
20
-1.96905
11
2.31236
21
-1.96923
0
LINE
8
BLACK
6
CONTINUOUS
10
3.08289
20
-1.96923
11
3.08443
21
-1.97053
0
LINE
8
BLACK
6
CONTINUOUS
10
3.08443
20
-1.97053
11
3.08478
21
-1.97252
0
LINE
8
BLACK
6
CONTINUOUS
10
3.08478
20
-1.97252
11
3.08377
21
-1.97426
0
LINE
8
BLACK
6
CONTINUOUS
10
3.08377
20
-1.97426
11
3.08188
21
-1.97496
0
LINE
8
BLACK
6
CONTINUOUS
10
3.08188
20
-1.97496
11
3.05188
21
-1.97496
0
LINE
8
BLACK
6
CONTINUOUS
10
3.05188
20
-1.97496
11
3.05087
21
-1.97478
0
LINE
8
BLACK
6
CONTINUOUS
10
3.05087
20
-1.97478
11
3.04932
21
-1.97348
0
LINE
8
BLACK
6
CONTINUOUS
10
3.04932
20
-1.97348
11
3.04897
21
-1.97149
0
LINE
8
BLACK
6
CONTINUOUS
10
3.04897
20
-1.97149
11
3.04998
21
-1.96974
0
LINE
8
BLACK
6
CONTINUOUS
10
3.04998
20
-1.96974
11
3.05188
21
-1.96905
0
LINE
8
BLACK
6
CONTINUOUS
10
3.05188
20
-1.96905
11
3.08188
21
-1.96905
0
LINE
8
BLACK
6
CONTINUOUS
10
3.08188
20
-1.96905
11
3.08289
21
-1.96923
0
LINE
8
BLACK
6
CONTINUOUS
10
15.6229
20
-1.92674
11
15.6234
21
-1.92682
0
LINE
8
BLACK
6
CONTINUOUS
10
15.6234
20
-1.92682
11
15.6484
21
-1.94182
0
LINE
8
BLACK
6
CONTINUOUS
10
15.6484
20
-1.94182
11
15.6487
21
-1.9422
0
LINE
8
BLACK
6
CONTINUOUS
10
15.6487
20
-1.9422
11
15.6491
21
-1.94249
0
LINE
8
BLACK
6
CONTINUOUS
10
15.6491
20
-1.94249
11
15.6491
21
-1.94279
0
LINE
8
BLACK
6
CONTINUOUS
10
15.6491
20
-1.94279
11
15.6493
21
-1.94303
0
LINE
8
BLACK
6
CONTINUOUS
10
15.6493
20
-1.94303
11
15.6492
21
-1.9435
0
LINE
8
BLACK
6
CONTINUOUS
10
15.6492
20
-1.9435
11
15.6493
21
-1.94398
0
LINE
8
BLACK
6
CONTINUOUS
10
15.6493
20
-1.94398
11
15.6491
21
-1.94422
0
LINE
8
BLACK
6
CONTINUOUS
10
15.6491
20
-1.94422
11
15.6491
21
-1.94452
0
LINE
8
BLACK
6
CONTINUOUS
10
15.6491
20
-1.94452
11
15.6487
21
-1.9448
0
LINE
8
BLACK
6
CONTINUOUS
10
15.6487
20
-1.9448
11
15.6484
21
-1.94519
0
LINE
8
BLACK
6
CONTINUOUS
10
15.6484
20
-1.94519
11
15.6234
21
-1.96019
0
LINE
8
BLACK
6
CONTINUOUS
10
15.6234
20
-1.96019
11
15.6229
21
-1.96027
0
LINE
8
BLACK
6
CONTINUOUS
10
15.6229
20
-1.96027
11
15.6224
21
-1.96047
0
LINE
8
BLACK
6
CONTINUOUS
10
15.6224
20
-1.96047
11
15.6222
21
-1.96038
0
LINE
8
BLACK
6
CONTINUOUS
10
15.6222
20
-1.96038
11
15.6219
21
-1.96041
0
LINE
8
BLACK
6
CONTINUOUS
10
15.6219
20
-1.96041
11
15.6215
21
-1.9601
0
LINE
8
BLACK
6
CONTINUOUS
10
15.6215
20
-1.9601
11
15.621
21
-1.9599
0
LINE
8
BLACK
6
CONTINUOUS
10
15.621
20
-1.9599
11
15.6209
21
-1.95967
0
LINE
8
BLACK
6
CONTINUOUS
10
15.6209
20
-1.95967
11
15.6207
21
-1.95952
0
LINE
8
BLACK
6
CONTINUOUS
10
15.6207
20
-1.95952
11
15.6206
21
-1.95899
0
LINE
8
BLACK
6
CONTINUOUS
10
15.6206
20
-1.95899
11
15.6204
21
-1.9585
0
LINE
8
BLACK
6
CONTINUOUS
10
15.6204
20
-1.9585
11
15.6204
21
-1.9285
0
LINE
8
BLACK
6
CONTINUOUS
10
15.6204
20
-1.9285
11
15.6206
21
-1.92801
0
LINE
8
BLACK
6
CONTINUOUS
10
15.6206
20
-1.92801
11
15.6207
21
-1.92749
0
LINE
8
BLACK
6
CONTINUOUS
10
15.6207
20
-1.92749
11
15.6209
21
-1.92734
0
LINE
8
BLACK
6
CONTINUOUS
10
15.6209
20
-1.92734
11
15.621
21
-1.92711
0
LINE
8
BLACK
6
CONTINUOUS
10
15.621
20
-1.92711
11
15.6215
21
-1.92691
0
LINE
8
BLACK
6
CONTINUOUS
10
15.6215
20
-1.92691
11
15.6219
21
-1.92659
0
LINE
8
BLACK
6
CONTINUOUS
10
15.6219
20
-1.92659
11
15.6222
21
-1.92663
0
LINE
8
BLACK
6
CONTINUOUS
10
15.6222
20
-1.92663
11
15.6224
21
-1.92654
0
LINE
8
BLACK
6
CONTINUOUS
10
15.6224
20
-1.92654
11
15.6229
21
-1.92674
0
LINE
8
BLACK
6
CONTINUOUS
10
15.6244
20
-1.95503
11
15.6436
21
-1.9435
0
LINE
8
BLACK
6
CONTINUOUS
10
15.6436
20
-1.9435
11
15.6244
21
-1.93198
0
LINE
8
BLACK
6
CONTINUOUS
10
15.6244
20
-1.93198
11
15.6244
21
-1.95503
0
LINE
8
BLACK
6
CONTINUOUS
10
15.8569
20
-1.91378
11
15.8586
21
-1.91447
0
LINE
8
BLACK
6
CONTINUOUS
10
15.8586
20
-1.91447
11
15.8593
21
-1.91614
0
LINE
8
BLACK
6
CONTINUOUS
10
15.8593
20
-1.91614
11
15.8593
21
-1.9187
0
LINE
8
BLACK
6
CONTINUOUS
10
15.8593
20
-1.9187
11
15.8586
21
-1.92037
0
LINE
8
BLACK
6
CONTINUOUS
10
15.8586
20
-1.92037
11
15.8569
21
-1.92106
0
LINE
8
BLACK
6
CONTINUOUS
10
15.8569
20
-1.92106
11
15.8552
21
-1.92037
0
LINE
8
BLACK
6
CONTINUOUS
10
15.8552
20
-1.92037
11
15.8545
21
-1.9187
0
LINE
8
BLACK
6
CONTINUOUS
10
15.8545
20
-1.9187
11
15.8545
21
-1.9185
0
LINE
8
BLACK
6
CONTINUOUS
10
15.8545
20
-1.9185
11
15.7203
21
-1.9185
0
LINE
8
BLACK
6
CONTINUOUS
10
15.7203
20
-1.9185
11
15.7203
21
-1.9187
0
LINE
8
BLACK
6
CONTINUOUS
10
15.7203
20
-1.9187
11
15.7196
21
-1.92037
0
LINE
8
BLACK
6
CONTINUOUS
10
15.7196
20
-1.92037
11
15.7179
21
-1.92106
0
LINE
8
BLACK
6
CONTINUOUS
10
15.7179
20
-1.92106
11
15.6657
21
-1.92106
0
LINE
8
BLACK
6
CONTINUOUS
10
15.6657
20
-1.92106
11
15.6641
21
-1.92037
0
LINE
8
BLACK
6
CONTINUOUS
10
15.6641
20
-1.92037
11
15.6634
21
-1.9187
0
LINE
8
BLACK
6
CONTINUOUS
10
15.6634
20
-1.9187
11
15.6641
21
-1.91703
0
LINE
8
BLACK
6
CONTINUOUS
10
15.6641
20
-1.91703
11
15.6657
21
-1.91634
0
LINE
8
BLACK
6
CONTINUOUS
10
15.6657
20
-1.91634
11
15.7156
21
-1.91634
0
LINE
8
BLACK
6
CONTINUOUS
10
15.7156
20
-1.91634
11
15.7156
21
-1.91614
0
LINE
8
BLACK
6
CONTINUOUS
10
15.7156
20
-1.91614
11
15.7162
21
-1.91447
0
LINE
8
BLACK
6
CONTINUOUS
10
15.7162
20
-1.91447
11
15.7179
21
-1.91378
0
LINE
8
BLACK
6
CONTINUOUS
10
15.7179
20
-1.91378
11
15.8569
21
-1.91378
0
LINE
8
BLACK
6
CONTINUOUS
10
1.96904
20
-1.81559
11
1.96936
21
-1.81556
0
LINE
8
BLACK
6
CONTINUOUS
10
1.96936
20
-1.81556
11
1.97358
21
-1.81697
0
LINE
8
BLACK
6
CONTINUOUS
10
1.97358
20
-1.81697
11
1.97393
21
-1.81727
0
LINE
8
BLACK
6
CONTINUOUS
10
1.97393
20
-1.81727
11
1.97435
21
-1.81745
0
LINE
8
BLACK
6
CONTINUOUS
10
1.97435
20
-1.81745
11
1.97716
21
-1.82026
0
LINE
8
BLACK
6
CONTINUOUS
10
1.97716
20
-1.82026
11
1.97729
21
-1.82056
0
LINE
8
BLACK
6
CONTINUOUS
10
1.97729
20
-1.82056
11
1.97753
21
-1.82077
0
LINE
8
BLACK
6
CONTINUOUS
10
1.97753
20
-1.82077
11
1.97894
21
-1.82358
0
LINE
8
BLACK
6
CONTINUOUS
10
1.97894
20
-1.82358
11
1.97895
21
-1.8238
0
LINE
8
BLACK
6
CONTINUOUS
10
1.97895
20
-1.8238
11
1.97909
21
-1.82398
0
LINE
8
BLACK
6
CONTINUOUS
10
1.97909
20
-1.82398
11
1.98049
21
-1.82961
0
LINE
8
BLACK
6
CONTINUOUS
10
1.98049
20
-1.82961
11
1.98046
21
-1.82986
0
LINE
8
BLACK
6
CONTINUOUS
10
1.98046
20
-1.82986
11
1.98055
21
-1.83009
0
LINE
8
BLACK
6
CONTINUOUS
10
1.98055
20
-1.83009
11
1.98055
21
-1.8343
0
LINE
8
BLACK
6
CONTINUOUS
10
1.98055
20
-1.8343
11
1.98046
21
-1.83454
0
LINE
8
BLACK
6
CONTINUOUS
10
1.98046
20
-1.83454
11
1.98049
21
-1.83478
0
LINE
8
BLACK
6
CONTINUOUS
10
1.98049
20
-1.83478
11
1.97909
21
-1.84041
0
LINE
8
BLACK
6
CONTINUOUS
10
1.97909
20
-1.84041
11
1.97895
21
-1.84059
0
LINE
8
BLACK
6
CONTINUOUS
10
1.97895
20
-1.84059
11
1.97894
21
-1.84081
0
LINE
8
BLACK
6
CONTINUOUS
10
1.97894
20
-1.84081
11
1.97753
21
-1.84362
0
LINE
8
BLACK
6
CONTINUOUS
10
1.97753
20
-1.84362
11
1.97729
21
-1.84383
0
LINE
8
BLACK
6
CONTINUOUS
10
1.97729
20
-1.84383
11
1.97716
21
-1.84413
0
LINE
8
BLACK
6
CONTINUOUS
10
1.97716
20
-1.84413
11
1.97435
21
-1.84695
0
LINE
8
BLACK
6
CONTINUOUS
10
1.97435
20
-1.84695
11
1.97393
21
-1.84712
0
LINE
8
BLACK
6
CONTINUOUS
10
1.97393
20
-1.84712
11
1.97358
21
-1.84742
0
LINE
8
BLACK
6
CONTINUOUS
10
1.97358
20
-1.84742
11
1.96936
21
-1.84883
0
LINE
8
BLACK
6
CONTINUOUS
10
1.96936
20
-1.84883
11
1.96904
21
-1.8488
0
LINE
8
BLACK
6
CONTINUOUS
10
1.96904
20
-1.8488
11
1.96874
21
-1.84893
0
LINE
8
BLACK
6
CONTINUOUS
10
1.96874
20
-1.84893
11
1.96171
21
-1.84893
0
LINE
8
BLACK
6
CONTINUOUS
10
1.96171
20
-1.84893
11
1.96032
21
-1.84835
0
LINE
8
BLACK
6
CONTINUOUS
10
1.96032
20
-1.84835
11
1.95974
21
-1.84696
0
LINE
8
BLACK
6
CONTINUOUS
10
1.95974
20
-1.84696
11
1.95974
21
-1.81743
0
LINE
8
BLACK
6
CONTINUOUS
10
1.95974
20
-1.81743
11
1.96032
21
-1.81604
0
LINE
8
BLACK
6
CONTINUOUS
10
1.96032
20
-1.81604
11
1.96171
21
-1.81546
0
LINE
8
BLACK
6
CONTINUOUS
10
1.96171
20
-1.81546
11
1.96874
21
-1.81546
0
LINE
8
BLACK
6
CONTINUOUS
10
1.96874
20
-1.81546
11
1.96904
21
-1.81559
0
LINE
8
BLACK
6
CONTINUOUS
10
1.96368
20
-1.84499
11
1.96842
21
-1.84499
0
LINE
8
BLACK
6
CONTINUOUS
10
1.96842
20
-1.84499
11
1.97189
21
-1.84383
0
LINE
8
BLACK
6
CONTINUOUS
10
1.97189
20
-1.84383
11
1.97415
21
-1.84157
0
LINE
8
BLACK
6
CONTINUOUS
10
1.97415
20
-1.84157
11
1.97532
21
-1.83924
0
LINE
8
BLACK
6
CONTINUOUS
10
1.97532
20
-1.83924
11
1.97661
21
-1.83406
0
LINE
8
BLACK
6
CONTINUOUS
10
1.97661
20
-1.83406
11
1.97661
21
-1.83033
0
LINE
8
BLACK
6
CONTINUOUS
10
1.97661
20
-1.83033
11
1.97532
21
-1.82515
0
LINE
8
BLACK
6
CONTINUOUS
10
1.97532
20
-1.82515
11
1.97415
21
-1.82282
0
LINE
8
BLACK
6
CONTINUOUS
10
1.97415
20
-1.82282
11
1.97189
21
-1.82056
0
LINE
8
BLACK
6
CONTINUOUS
10
1.97189
20
-1.82056
11
1.96842
21
-1.8194
0
LINE
8
BLACK
6
CONTINUOUS
10
1.96842
20
-1.8194
11
1.96368
21
-1.8194
0
LINE
8
BLACK
6
CONTINUOUS
10
1.96368
20
-1.8194
11
1.96368
21
-1.84499
0
LINE
8
BLACK
6
CONTINUOUS
10
1.9988
20
-1.81568
11
1.99936
21
-1.81579
0
LINE
8
BLACK
6
CONTINUOUS
10
1.99936
20
-1.81579
11
1.99947
21
-1.81596
0
LINE
8
BLACK
6
CONTINUOUS
10
1.99947
20
-1.81596
11
1.99966
21
-1.81604
0
LINE
8
BLACK
6
CONTINUOUS
10
1.99966
20
-1.81604
11
1.99988
21
-1.81657
0
LINE
8
BLACK
6
CONTINUOUS
10
1.99988
20
-1.81657
11
2.0002
21
-1.81705
0
LINE
8
BLACK
6
CONTINUOUS
10
2.0002
20
-1.81705
11
2.00016
21
-1.81724
0
LINE
8
BLACK
6
CONTINUOUS
10
2.00016
20
-1.81724
11
2.00024
21
-1.81743
0
LINE
8
BLACK
6
CONTINUOUS
10
2.00024
20
-1.81743
11
2.00024
21
-1.84499
0
LINE
8
BLACK
6
CONTINUOUS
10
2.00024
20
-1.84499
11
2.0067
21
-1.84499
0
LINE
8
BLACK
6
CONTINUOUS
10
2.0067
20
-1.84499
11
2.0081
21
-1.84557
0
LINE
8
BLACK
6
CONTINUOUS
10
2.0081
20
-1.84557
11
2.00867
21
-1.84696
0
LINE
8
BLACK
6
CONTINUOUS
10
2.00867
20
-1.84696
11
2.0081
21
-1.84835
0
LINE
8
BLACK
6
CONTINUOUS
10
2.0081
20
-1.84835
11
2.0067
21
-1.84893
0
LINE
8
BLACK
6
CONTINUOUS
10
2.0067
20
-1.84893
11
1.99827
21
-1.84893
0
LINE
8
BLACK
6
CONTINUOUS
10
1.99827
20
-1.84893
11
1.98983
21
-1.84893
0
LINE
8
BLACK
6
CONTINUOUS
10
1.98983
20
-1.84893
11
1.98844
21
-1.84835
0
LINE
8
BLACK
6
CONTINUOUS
10
1.98844
20
-1.84835
11
1.98786
21
-1.84696
0
LINE
8
BLACK
6
CONTINUOUS
10
1.98786
20
-1.84696
11
1.98844
21
-1.84557
0
LINE
8
BLACK
6
CONTINUOUS
10
1.98844
20
-1.84557
11
1.98983
21
-1.84499
0
LINE
8
BLACK
6
CONTINUOUS
10
1.98983
20
-1.84499
11
1.9963
21
-1.84499
0
LINE
8
BLACK
6
CONTINUOUS
10
1.9963
20
-1.84499
11
1.9963
21
-1.82359
0
LINE
8
BLACK
6
CONTINUOUS
10
1.9963
20
-1.82359
11
1.99404
21
-1.82585
0
LINE
8
BLACK
6
CONTINUOUS
10
1.99404
20
-1.82585
11
1.99374
21
-1.82598
0
LINE
8
BLACK
6
CONTINUOUS
10
1.99374
20
-1.82598
11
1.99352
21
-1.82622
0
LINE
8
BLACK
6
CONTINUOUS
10
1.99352
20
-1.82622
11
1.99071
21
-1.82763
0
LINE
8
BLACK
6
CONTINUOUS
10
1.99071
20
-1.82763
11
1.98921
21
-1.82774
0
LINE
8
BLACK
6
CONTINUOUS
10
1.98921
20
-1.82774
11
1.98807
21
-1.82675
0
LINE
8
BLACK
6
CONTINUOUS
10
1.98807
20
-1.82675
11
1.98796
21
-1.82525
0
LINE
8
BLACK
6
CONTINUOUS
10
1.98796
20
-1.82525
11
1.98895
21
-1.82411
0
LINE
8
BLACK
6
CONTINUOUS
10
1.98895
20
-1.82411
11
1.99148
21
-1.82284
0
LINE
8
BLACK
6
CONTINUOUS
10
1.99148
20
-1.82284
11
1.99393
21
-1.8204
0
LINE
8
BLACK
6
CONTINUOUS
10
1.99393
20
-1.8204
11
1.99663
21
-1.81634
0
LINE
8
BLACK
6
CONTINUOUS
10
1.99663
20
-1.81634
11
1.9968
21
-1.81623
0
LINE
8
BLACK
6
CONTINUOUS
10
1.9968
20
-1.81623
11
1.99688
21
-1.81604
0
LINE
8
BLACK
6
CONTINUOUS
10
1.99688
20
-1.81604
11
1.99741
21
-1.81582
0
LINE
8
BLACK
6
CONTINUOUS
10
1.99741
20
-1.81582
11
1.99788
21
-1.8155
0
LINE
8
BLACK
6
CONTINUOUS
10
1.99788
20
-1.8155
11
1.99808
21
-1.81554
0
LINE
8
BLACK
6
CONTINUOUS
10
1.99808
20
-1.81554
11
1.99827
21
-1.81546
0
LINE
8
BLACK
6
CONTINUOUS
10
1.99827
20
-1.81546
11
1.9988
21
-1.81568
  0
ENDSEC
  0
EOF
