  0
SECTION
  2
HEADER
  9
$ANGBASE
  50
0.0
  9
$ANGDIR
  70
1
  9
$MEASUREMENT
  70
0
  0
ENDSEC
  0
SECTION
  2
TABLES
  0
TABLE
  2
LTYPE
  70
4
  0
LTYPE
  5
40F
  2
CONTINUOUS
  70
0
  3
Solid line
  72
65
  73
0
  40
0.0
  0
LTYPE
  5
410
  2
DASHDOT
 70
0
  3
Dash Dot ____ _ ____ _
 72
65
 73
4
 40
2.0
 49
1.25
 49
-0.25
 49
0.25
 49
-0.25
  0
LTYPE
  5
411
  2
DASHED
 70
0
  3
Dashed __ __ __ __ __
 72
65
 73
2
 40
0.75
 49
0.5
 49
-0.25
  0
LTYPE
  5
43B
  2
DOTTED
 70
0
  3
Dotted .  .  .  .
 72
65
 73
2
 40
0.2
 49
0.0
 49
-0.2
  0
ENDTAB
  0
TABLE
  2
STYLE
  70
4
  0
STYLE
  2
KICAD
  70
0
  40
0
  41
1
  42
1
  50
0
  71
0
  3
isocp.shx
  0
STYLE
  2
KICADB
  70
0
  40
0
  41
1
  42
1
  50
0
  71
0
  3
isocp.shx
  0
STYLE
  2
KICADI
  70
0
  40
0
  41
1
  42
1
  50
15
  71
0
  3
isocp.shx
  0
STYLE
  2
KICADBI
  70
0
  40
0
  41
1
  42
1
  50
15
  71
0
  3
isocp.shx
  0
ENDTAB
  0
TABLE
  2
LAYER
  70
1
  0
LAYER
  2
BLACK
  70
0
  62
7
  6
CONTINUOUS
  0
ENDTAB
  0
ENDSEC
  0
SECTION
  2
ENTITIES
0
LINE
8
BLACK
6
CONTINUOUS
10
1.95767
20
-2.00959
11
1.95985
21
-2.01233
0
LINE
8
BLACK
6
CONTINUOUS
10
1.95985
20
-2.01233
11
1.96063
21
-2.01575
0
LINE
8
BLACK
6
CONTINUOUS
10
1.96063
20
-2.01575
11
1.95985
21
-2.01916
0
LINE
8
BLACK
6
CONTINUOUS
10
1.95985
20
-2.01916
11
1.95767
21
-2.0219
0
LINE
8
BLACK
6
CONTINUOUS
10
1.95767
20
-2.0219
11
1.95451
21
-2.02342
0
LINE
8
BLACK
6
CONTINUOUS
10
1.95451
20
-2.02342
11
1.95343
21
-2.02342
0
LINE
8
BLACK
6
CONTINUOUS
10
1.95343
20
-2.02342
11
1.94512
21
-2.03174
0
LINE
8
BLACK
6
CONTINUOUS
10
1.94512
20
-2.03174
11
1.9454
21
-2.0318
0
LINE
8
BLACK
6
CONTINUOUS
10
1.9454
20
-2.0318
11
1.94668
21
-2.03265
0
LINE
8
BLACK
6
CONTINUOUS
10
1.94668
20
-2.03265
11
1.94753
21
-2.03393
0
LINE
8
BLACK
6
CONTINUOUS
10
1.94753
20
-2.03393
11
1.94783
21
-2.03543
0
LINE
8
BLACK
6
CONTINUOUS
10
1.94783
20
-2.03543
11
1.94783
21
-2.06693
0
LINE
8
BLACK
6
CONTINUOUS
10
1.94783
20
-2.06693
11
1.94753
21
-2.06844
0
LINE
8
BLACK
6
CONTINUOUS
10
1.94753
20
-2.06844
11
1.94668
21
-2.06971
0
LINE
8
BLACK
6
CONTINUOUS
10
1.94668
20
-2.06971
11
1.9454
21
-2.07057
0
LINE
8
BLACK
6
CONTINUOUS
10
1.9454
20
-2.07057
11
1.9439
21
-2.07087
0
LINE
8
BLACK
6
CONTINUOUS
10
1.9439
20
-2.07087
11
1.89075
21
-2.07087
0
LINE
8
BLACK
6
CONTINUOUS
10
1.89075
20
-2.07087
11
1.88924
21
-2.07057
0
LINE
8
BLACK
6
CONTINUOUS
10
1.88924
20
-2.07057
11
1.88796
21
-2.06971
0
LINE
8
BLACK
6
CONTINUOUS
10
1.88796
20
-2.06971
11
1.88711
21
-2.06844
0
LINE
8
BLACK
6
CONTINUOUS
10
1.88711
20
-2.06844
11
1.88681
21
-2.06693
0
LINE
8
BLACK
6
CONTINUOUS
10
1.88681
20
-2.06693
11
1.88681
21
-2.03543
0
LINE
8
BLACK
6
CONTINUOUS
10
1.88681
20
-2.03543
11
1.88711
21
-2.03393
0
LINE
8
BLACK
6
CONTINUOUS
10
1.88711
20
-2.03393
11
1.88796
21
-2.03265
0
LINE
8
BLACK
6
CONTINUOUS
10
1.88796
20
-2.03265
11
1.88924
21
-2.0318
0
LINE
8
BLACK
6
CONTINUOUS
10
1.88924
20
-2.0318
11
1.89075
21
-2.0315
0
LINE
8
BLACK
6
CONTINUOUS
10
1.89075
20
-2.0315
11
1.92866
21
-2.0315
0
LINE
8
BLACK
6
CONTINUOUS
10
1.92866
20
-2.0315
11
1.94502
21
-2.01513
0
LINE
8
BLACK
6
CONTINUOUS
10
1.94502
20
-2.01513
11
1.94566
21
-2.01233
0
LINE
8
BLACK
6
CONTINUOUS
10
1.94566
20
-2.01233
11
1.94785
21
-2.00959
0
LINE
8
BLACK
6
CONTINUOUS
10
1.94785
20
-2.00959
11
1.951
21
-2.00807
0
LINE
8
BLACK
6
CONTINUOUS
10
1.951
20
-2.00807
11
1.95451
21
-2.00807
0
LINE
8
BLACK
6
CONTINUOUS
10
1.95451
20
-2.00807
11
1.95767
21
-2.00959
0
LINE
8
BLACK
6
CONTINUOUS
10
1.88207
20
-1.98125
11
1.88426
21
-1.98399
0
LINE
8
BLACK
6
CONTINUOUS
10
1.88426
20
-1.98399
11
1.88504
21
-1.9874
0
LINE
8
BLACK
6
CONTINUOUS
10
1.88504
20
-1.9874
11
1.88426
21
-1.99082
0
LINE
8
BLACK
6
CONTINUOUS
10
1.88426
20
-1.99082
11
1.88207
21
-1.99356
0
LINE
8
BLACK
6
CONTINUOUS
10
1.88207
20
-1.99356
11
1.87892
21
-1.99508
0
LINE
8
BLACK
6
CONTINUOUS
10
1.87892
20
-1.99508
11
1.87541
21
-1.99508
0
LINE
8
BLACK
6
CONTINUOUS
10
1.87541
20
-1.99508
11
1.87226
21
-1.99356
0
LINE
8
BLACK
6
CONTINUOUS
10
1.87226
20
-1.99356
11
1.87007
21
-1.99082
0
LINE
8
BLACK
6
CONTINUOUS
10
1.87007
20
-1.99082
11
1.86929
21
-1.9874
0
LINE
8
BLACK
6
CONTINUOUS
10
1.86929
20
-1.9874
11
1.87007
21
-1.98399
0
LINE
8
BLACK
6
CONTINUOUS
10
1.87007
20
-1.98399
11
1.87226
21
-1.98125
0
LINE
8
BLACK
6
CONTINUOUS
10
1.87226
20
-1.98125
11
1.87541
21
-1.97972
0
LINE
8
BLACK
6
CONTINUOUS
10
1.87541
20
-1.97972
11
1.87892
21
-1.97972
0
LINE
8
BLACK
6
CONTINUOUS
10
1.87892
20
-1.97972
11
1.88207
21
-1.98125
0
LINE
8
BLACK
6
CONTINUOUS
10
1.98366
20
-1.80011
11
1.9838
21
-1.80013
0
LINE
8
BLACK
6
CONTINUOUS
10
1.9838
20
-1.80013
11
1.99955
21
-1.80231
0
LINE
8
BLACK
6
CONTINUOUS
10
1.99955
20
-1.80231
11
1.99968
21
-1.80233
0
LINE
8
BLACK
6
CONTINUOUS
10
1.99968
20
-1.80233
11
2.01516
21
-1.806
0
LINE
8
BLACK
6
CONTINUOUS
10
2.01516
20
-1.806
11
2.01529
21
-1.80604
0
LINE
8
BLACK
6
CONTINUOUS
10
2.01529
20
-1.80604
11
2.03035
21
-1.81115
0
LINE
8
BLACK
6
CONTINUOUS
10
2.03035
20
-1.81115
11
2.03048
21
-1.8112
0
LINE
8
BLACK
6
CONTINUOUS
10
2.03048
20
-1.8112
11
2.04498
21
-1.81772
0
LINE
8
BLACK
6
CONTINUOUS
10
2.04498
20
-1.81772
11
2.04511
21
-1.81778
0
LINE
8
BLACK
6
CONTINUOUS
10
2.04511
20
-1.81778
11
2.04634
21
-1.81848
0
LINE
8
BLACK
6
CONTINUOUS
10
2.04634
20
-1.81848
11
2.05893
21
-1.82565
0
LINE
8
BLACK
6
CONTINUOUS
10
2.05893
20
-1.82565
11
2.05905
21
-1.82572
0
LINE
8
BLACK
6
CONTINUOUS
10
2.05905
20
-1.82572
11
2.07206
21
-1.83486
0
LINE
8
BLACK
6
CONTINUOUS
10
2.07206
20
-1.83486
11
2.07217
21
-1.83494
0
LINE
8
BLACK
6
CONTINUOUS
10
2.07217
20
-1.83494
11
2.08426
21
-1.84527
0
LINE
8
BLACK
6
CONTINUOUS
10
2.08426
20
-1.84527
11
2.08436
21
-1.84537
0
LINE
8
BLACK
6
CONTINUOUS
10
2.08436
20
-1.84537
11
2.09542
21
-1.8568
0
LINE
8
BLACK
6
CONTINUOUS
10
2.09542
20
-1.8568
11
2.09551
21
-1.8569
0
LINE
8
BLACK
6
CONTINUOUS
10
2.09551
20
-1.8569
11
2.10296
21
-1.86623
0
LINE
8
BLACK
6
CONTINUOUS
10
2.10296
20
-1.86623
11
2.10543
21
-1.86933
0
LINE
8
BLACK
6
CONTINUOUS
10
2.10543
20
-1.86933
11
2.10551
21
-1.86944
0
LINE
8
BLACK
6
CONTINUOUS
10
2.10551
20
-1.86944
11
2.11422
21
-1.88275
0
LINE
8
BLACK
6
CONTINUOUS
10
2.11422
20
-1.88275
11
2.11429
21
-1.88287
0
LINE
8
BLACK
6
CONTINUOUS
10
2.11429
20
-1.88287
11
2.11504
21
-1.88431
0
LINE
8
BLACK
6
CONTINUOUS
10
2.11504
20
-1.88431
11
2.11531
21
-1.88628
0
LINE
8
BLACK
6
CONTINUOUS
10
2.11531
20
-1.88628
11
2.11425
21
-1.88797
0
LINE
8
BLACK
6
CONTINUOUS
10
2.11425
20
-1.88797
11
2.11246
21
-1.88858
0
LINE
8
BLACK
6
CONTINUOUS
10
2.11246
20
-1.88858
11
2.06401
21
-1.88858
0
LINE
8
BLACK
6
CONTINUOUS
10
2.06401
20
-1.88858
11
2.06326
21
-1.88848
0
LINE
8
BLACK
6
CONTINUOUS
10
2.06326
20
-1.88848
11
2.06285
21
-1.88837
0
LINE
8
BLACK
6
CONTINUOUS
10
2.06285
20
-1.88837
11
2.06207
21
-1.88858
0
LINE
8
BLACK
6
CONTINUOUS
10
2.06207
20
-1.88858
11
2.05978
21
-1.88919
0
LINE
8
BLACK
6
CONTINUOUS
10
2.05978
20
-1.88919
11
2.05913
21
-1.88985
0
LINE
8
BLACK
6
CONTINUOUS
10
2.05913
20
-1.88985
11
2.05732
21
-1.89069
0
LINE
8
BLACK
6
CONTINUOUS
10
2.05732
20
-1.89069
11
2.0554
21
-1.89017
0
LINE
8
BLACK
6
CONTINUOUS
10
2.0554
20
-1.89017
11
2.05425
21
-1.88854
0
LINE
8
BLACK
6
CONTINUOUS
10
2.05425
20
-1.88854
11
2.05415
21
-1.88779
0
LINE
8
BLACK
6
CONTINUOUS
10
2.05415
20
-1.88779
11
2.05415
21
-1.86911
0
LINE
8
BLACK
6
CONTINUOUS
10
2.05415
20
-1.86911
11
2.05415
21
-1.86911
0
LINE
8
BLACK
6
CONTINUOUS
10
2.05415
20
-1.86911
11
2.05358
21
-1.86623
0
LINE
8
BLACK
6
CONTINUOUS
10
2.05358
20
-1.86623
11
2.0514
21
-1.86297
0
LINE
8
BLACK
6
CONTINUOUS
10
2.0514
20
-1.86297
11
2.04814
21
-1.86079
0
LINE
8
BLACK
6
CONTINUOUS
10
2.04814
20
-1.86079
11
2.04526
21
-1.86022
0
LINE
8
BLACK
6
CONTINUOUS
10
2.04526
20
-1.86022
11
1.99017
21
-1.86022
0
LINE
8
BLACK
6
CONTINUOUS
10
1.99017
20
-1.86022
11
1.98825
21
-1.8606
0
LINE
8
BLACK
6
CONTINUOUS
10
1.98825
20
-1.8606
11
1.98729
21
-1.86079
0
LINE
8
BLACK
6
CONTINUOUS
10
1.98729
20
-1.86079
11
1.98403
21
-1.86297
0
LINE
8
BLACK
6
CONTINUOUS
10
1.98403
20
-1.86297
11
1.98403
21
-1.86297
0
LINE
8
BLACK
6
CONTINUOUS
10
1.98403
20
-1.86297
11
1.98185
21
-1.86623
0
LINE
8
BLACK
6
CONTINUOUS
10
1.98185
20
-1.86623
11
1.98128
21
-1.86911
0
LINE
8
BLACK
6
CONTINUOUS
10
1.98128
20
-1.86911
11
1.98128
21
-1.87108
0
LINE
8
BLACK
6
CONTINUOUS
10
1.98128
20
-1.87108
11
1.9806
21
-1.87296
0
LINE
8
BLACK
6
CONTINUOUS
10
1.9806
20
-1.87296
11
1.97887
21
-1.87395
0
LINE
8
BLACK
6
CONTINUOUS
10
1.97887
20
-1.87395
11
1.97837
21
-1.874
0
LINE
8
BLACK
6
CONTINUOUS
10
1.97837
20
-1.874
11
1.95667
21
-1.874
0
LINE
8
BLACK
6
CONTINUOUS
10
1.95667
20
-1.874
11
1.9548
21
-1.87331
0
LINE
8
BLACK
6
CONTINUOUS
10
1.9548
20
-1.87331
11
1.9538
21
-1.87159
0
LINE
8
BLACK
6
CONTINUOUS
10
1.9538
20
-1.87159
11
1.95376
21
-1.87108
0
LINE
8
BLACK
6
CONTINUOUS
10
1.95376
20
-1.87108
11
1.95376
21
-1.86911
0
LINE
8
BLACK
6
CONTINUOUS
10
1.95376
20
-1.86911
11
1.95376
21
-1.86911
0
LINE
8
BLACK
6
CONTINUOUS
10
1.95376
20
-1.86911
11
1.95319
21
-1.86623
0
LINE
8
BLACK
6
CONTINUOUS
10
1.95319
20
-1.86623
11
1.95101
21
-1.86297
0
LINE
8
BLACK
6
CONTINUOUS
10
1.95101
20
-1.86297
11
1.94775
21
-1.86079
0
LINE
8
BLACK
6
CONTINUOUS
10
1.94775
20
-1.86079
11
1.94487
21
-1.86022
0
LINE
8
BLACK
6
CONTINUOUS
10
1.94487
20
-1.86022
11
1.88978
21
-1.86022
0
LINE
8
BLACK
6
CONTINUOUS
10
1.88978
20
-1.86022
11
1.88786
21
-1.8606
0
LINE
8
BLACK
6
CONTINUOUS
10
1.88786
20
-1.8606
11
1.8869
21
-1.86079
0
LINE
8
BLACK
6
CONTINUOUS
10
1.8869
20
-1.86079
11
1.88364
21
-1.86297
0
LINE
8
BLACK
6
CONTINUOUS
10
1.88364
20
-1.86297
11
1.88364
21
-1.86297
0
LINE
8
BLACK
6
CONTINUOUS
10
1.88364
20
-1.86297
11
1.88146
21
-1.86623
0
LINE
8
BLACK
6
CONTINUOUS
10
1.88146
20
-1.86623
11
1.88146
21
-1.86623
0
LINE
8
BLACK
6
CONTINUOUS
10
1.88146
20
-1.86623
11
1.88146
21
-1.86623
0
LINE
8
BLACK
6
CONTINUOUS
10
1.88146
20
-1.86623
11
1.88089
21
-1.86911
0
LINE
8
BLACK
6
CONTINUOUS
10
1.88089
20
-1.86911
11
1.88089
21
-1.90255
0
LINE
8
BLACK
6
CONTINUOUS
10
1.88089
20
-1.90255
11
1.88146
21
-1.90542
0
LINE
8
BLACK
6
CONTINUOUS
10
1.88146
20
-1.90542
11
1.88345
21
-1.9084
0
LINE
8
BLACK
6
CONTINUOUS
10
1.88345
20
-1.9084
11
1.88364
21
-1.90869
0
LINE
8
BLACK
6
CONTINUOUS
10
1.88364
20
-1.90869
11
1.8869
21
-1.91086
0
LINE
8
BLACK
6
CONTINUOUS
10
1.8869
20
-1.91086
11
1.88978
21
-1.91144
0
LINE
8
BLACK
6
CONTINUOUS
10
1.88978
20
-1.91144
11
1.89815
21
-1.91144
0
LINE
8
BLACK
6
CONTINUOUS
10
1.89815
20
-1.91144
11
1.90002
21
-1.91212
0
LINE
8
BLACK
6
CONTINUOUS
10
1.90002
20
-1.91212
11
1.90102
21
-1.91384
0
LINE
8
BLACK
6
CONTINUOUS
10
1.90102
20
-1.91384
11
1.90075
21
-1.91567
0
LINE
8
BLACK
6
CONTINUOUS
10
1.90075
20
-1.91567
11
1.9001
21
-1.91694
0
LINE
8
BLACK
6
CONTINUOUS
10
1.9001
20
-1.91694
11
1.89941
21
-1.92126
0
LINE
8
BLACK
6
CONTINUOUS
10
1.89941
20
-1.92126
11
1.9001
21
-1.92558
0
LINE
8
BLACK
6
CONTINUOUS
10
1.9001
20
-1.92558
11
1.90037
21
-1.92611
0
LINE
8
BLACK
6
CONTINUOUS
10
1.90037
20
-1.92611
11
1.90208
21
-1.92947
0
LINE
8
BLACK
6
CONTINUOUS
10
1.90208
20
-1.92947
11
1.90517
21
-1.93256
0
LINE
8
BLACK
6
CONTINUOUS
10
1.90517
20
-1.93256
11
1.90907
21
-1.93455
0
LINE
8
BLACK
6
CONTINUOUS
10
1.90907
20
-1.93455
11
1.91339
21
-1.93523
0
LINE
8
BLACK
6
CONTINUOUS
10
1.91339
20
-1.93523
11
1.9177
21
-1.93455
0
LINE
8
BLACK
6
CONTINUOUS
10
1.9177
20
-1.93455
11
1.9216
21
-1.93256
0
LINE
8
BLACK
6
CONTINUOUS
10
1.9216
20
-1.93256
11
1.92469
21
-1.92947
0
LINE
8
BLACK
6
CONTINUOUS
10
1.92469
20
-1.92947
11
1.92667
21
-1.92558
0
LINE
8
BLACK
6
CONTINUOUS
10
1.92667
20
-1.92558
11
1.92736
21
-1.92126
0
LINE
8
BLACK
6
CONTINUOUS
10
1.92736
20
-1.92126
11
1.92667
21
-1.91694
0
LINE
8
BLACK
6
CONTINUOUS
10
1.92667
20
-1.91694
11
1.92603
21
-1.91567
0
LINE
8
BLACK
6
CONTINUOUS
10
1.92603
20
-1.91567
11
1.92578
21
-1.9137
0
LINE
8
BLACK
6
CONTINUOUS
10
1.92578
20
-1.9137
11
1.92687
21
-1.91202
0
LINE
8
BLACK
6
CONTINUOUS
10
1.92687
20
-1.91202
11
1.92862
21
-1.91144
0
LINE
8
BLACK
6
CONTINUOUS
10
1.92862
20
-1.91144
11
1.94487
21
-1.91144
0
LINE
8
BLACK
6
CONTINUOUS
10
1.94487
20
-1.91144
11
1.94487
21
-1.91144
0
LINE
8
BLACK
6
CONTINUOUS
10
1.94487
20
-1.91144
11
1.94775
21
-1.91086
0
LINE
8
BLACK
6
CONTINUOUS
10
1.94775
20
-1.91086
11
1.95101
21
-1.90869
0
LINE
8
BLACK
6
CONTINUOUS
10
1.95101
20
-1.90869
11
1.95319
21
-1.90542
0
LINE
8
BLACK
6
CONTINUOUS
10
1.95319
20
-1.90542
11
1.95376
21
-1.90255
0
LINE
8
BLACK
6
CONTINUOUS
10
1.95376
20
-1.90255
11
1.95376
21
-1.90057
0
LINE
8
BLACK
6
CONTINUOUS
10
1.95376
20
-1.90057
11
1.95444
21
-1.8987
0
LINE
8
BLACK
6
CONTINUOUS
10
1.95444
20
-1.8987
11
1.95617
21
-1.8977
0
LINE
8
BLACK
6
CONTINUOUS
10
1.95617
20
-1.8977
11
1.95667
21
-1.89766
0
LINE
8
BLACK
6
CONTINUOUS
10
1.95667
20
-1.89766
11
1.97837
21
-1.89766
0
LINE
8
BLACK
6
CONTINUOUS
10
1.97837
20
-1.89766
11
1.98024
21
-1.89834
0
LINE
8
BLACK
6
CONTINUOUS
10
1.98024
20
-1.89834
11
1.98124
21
-1.90006
0
LINE
8
BLACK
6
CONTINUOUS
10
1.98124
20
-1.90006
11
1.98128
21
-1.90057
0
LINE
8
BLACK
6
CONTINUOUS
10
1.98128
20
-1.90057
11
1.98128
21
-1.90255
0
LINE
8
BLACK
6
CONTINUOUS
10
1.98128
20
-1.90255
11
1.98185
21
-1.90542
0
LINE
8
BLACK
6
CONTINUOUS
10
1.98185
20
-1.90542
11
1.98384
21
-1.9084
0
LINE
8
BLACK
6
CONTINUOUS
10
1.98384
20
-1.9084
11
1.98403
21
-1.90869
0
LINE
8
BLACK
6
CONTINUOUS
10
1.98403
20
-1.90869
11
1.98729
21
-1.91086
0
LINE
8
BLACK
6
CONTINUOUS
10
1.98729
20
-1.91086
11
1.99017
21
-1.91144
0
LINE
8
BLACK
6
CONTINUOUS
10
1.99017
20
-1.91144
11
1.99017
21
-1.91144
0
LINE
8
BLACK
6
CONTINUOUS
10
1.99017
20
-1.91144
11
2.04526
21
-1.91144
0
LINE
8
BLACK
6
CONTINUOUS
10
2.04526
20
-1.91144
11
2.04526
21
-1.91144
0
LINE
8
BLACK
6
CONTINUOUS
10
2.04526
20
-1.91144
11
2.04814
21
-1.91086
0
LINE
8
BLACK
6
CONTINUOUS
10
2.04814
20
-1.91086
11
2.0514
21
-1.90869
0
LINE
8
BLACK
6
CONTINUOUS
10
2.0514
20
-1.90869
11
2.0514
21
-1.90868
0
LINE
8
BLACK
6
CONTINUOUS
10
2.0514
20
-1.90868
11
2.05159
21
-1.9084
0
LINE
8
BLACK
6
CONTINUOUS
10
2.05159
20
-1.9084
11
2.0532
21
-1.90723
0
LINE
8
BLACK
6
CONTINUOUS
10
2.0532
20
-1.90723
11
2.05519
21
-1.90736
0
LINE
8
BLACK
6
CONTINUOUS
10
2.05519
20
-1.90736
11
2.05662
21
-1.90873
0
LINE
8
BLACK
6
CONTINUOUS
10
2.05662
20
-1.90873
11
2.05693
21
-1.91002
0
LINE
8
BLACK
6
CONTINUOUS
10
2.05693
20
-1.91002
11
2.05693
21
-1.91834
0
LINE
8
BLACK
6
CONTINUOUS
10
2.05693
20
-1.91834
11
2.05683
21
-1.91909
0
LINE
8
BLACK
6
CONTINUOUS
10
2.05683
20
-1.91909
11
2.05672
21
-1.9195
0
LINE
8
BLACK
6
CONTINUOUS
10
2.05672
20
-1.9195
11
2.05672
21
-1.9195
0
LINE
8
BLACK
6
CONTINUOUS
10
2.05672
20
-1.9195
11
2.05689
21
-1.92017
0
LINE
8
BLACK
6
CONTINUOUS
10
2.05689
20
-1.92017
11
2.05689
21
-1.92017
0
LINE
8
BLACK
6
CONTINUOUS
10
2.05689
20
-1.92017
11
2.05754
21
-1.92257
0
LINE
8
BLACK
6
CONTINUOUS
10
2.05754
20
-1.92257
11
2.05754
21
-1.92257
0
LINE
8
BLACK
6
CONTINUOUS
10
2.05754
20
-1.92257
11
2.05978
21
-1.92482
0
LINE
8
BLACK
6
CONTINUOUS
10
2.05978
20
-1.92482
11
2.06285
21
-1.92564
0
LINE
8
BLACK
6
CONTINUOUS
10
2.06285
20
-1.92564
11
2.06319
21
-1.92555
0
LINE
8
BLACK
6
CONTINUOUS
10
2.06319
20
-1.92555
11
2.06326
21
-1.92553
0
LINE
8
BLACK
6
CONTINUOUS
10
2.06326
20
-1.92553
11
2.06401
21
-1.92543
0
LINE
8
BLACK
6
CONTINUOUS
10
2.06401
20
-1.92543
11
2.14107
21
-1.92543
0
LINE
8
BLACK
6
CONTINUOUS
10
2.14107
20
-1.92543
11
15.6526
21
-1.92543
0
LINE
8
BLACK
6
CONTINUOUS
10
15.6526
20
-1.92543
11
15.6545
21
-1.92611
0
LINE
8
BLACK
6
CONTINUOUS
10
15.6545
20
-1.92611
11
15.6555
21
-1.92784
0
LINE
8
BLACK
6
CONTINUOUS
10
15.6555
20
-1.92784
11
15.6555
21
-1.92834
0
LINE
8
BLACK
6
CONTINUOUS
10
15.6555
20
-1.92834
11
15.6555
21
-1.93563
0
LINE
8
BLACK
6
CONTINUOUS
10
15.6555
20
-1.93563
11
15.6634
21
-1.93563
0
LINE
8
BLACK
6
CONTINUOUS
10
15.6634
20
-1.93563
11
15.6634
21
-1.92894
0
LINE
8
BLACK
6
CONTINUOUS
10
15.6634
20
-1.92894
11
15.7579
21
-1.92894
0
LINE
8
BLACK
6
CONTINUOUS
10
15.7579
20
-1.92894
11
15.7579
21
-1.93957
0
LINE
8
BLACK
6
CONTINUOUS
10
15.7579
20
-1.93957
11
15.7657
21
-1.93957
0
LINE
8
BLACK
6
CONTINUOUS
10
15.7657
20
-1.93957
11
15.7657
21
-1.92834
0
LINE
8
BLACK
6
CONTINUOUS
10
15.7657
20
-1.92834
11
15.7664
21
-1.92647
0
LINE
8
BLACK
6
CONTINUOUS
10
15.7664
20
-1.92647
11
15.7682
21
-1.92547
0
LINE
8
BLACK
6
CONTINUOUS
10
15.7682
20
-1.92547
11
15.7687
21
-1.92543
0
LINE
8
BLACK
6
CONTINUOUS
10
15.7687
20
-1.92543
11
15.8081
21
-1.92543
0
LINE
8
BLACK
6
CONTINUOUS
10
15.8081
20
-1.92543
11
15.81
21
-1.92611
0
LINE
8
BLACK
6
CONTINUOUS
10
15.81
20
-1.92611
11
15.811
21
-1.92784
0
LINE
8
BLACK
6
CONTINUOUS
10
15.811
20
-1.92784
11
15.811
21
-1.92834
0
LINE
8
BLACK
6
CONTINUOUS
10
15.811
20
-1.92834
11
15.811
21
-1.95573
0
LINE
8
BLACK
6
CONTINUOUS
10
15.811
20
-1.95573
11
15.8103
21
-1.9576
0
LINE
8
BLACK
6
CONTINUOUS
10
15.8103
20
-1.9576
11
15.8086
21
-1.9586
0
LINE
8
BLACK
6
CONTINUOUS
10
15.8086
20
-1.9586
11
15.8081
21
-1.95864
0
LINE
8
BLACK
6
CONTINUOUS
10
15.8081
20
-1.95864
11
15.7687
21
-1.95864
0
LINE
8
BLACK
6
CONTINUOUS
10
15.7687
20
-1.95864
11
15.7668
21
-1.95796
0
LINE
8
BLACK
6
CONTINUOUS
10
15.7668
20
-1.95796
11
15.7658
21
-1.95623
0
LINE
8
BLACK
6
CONTINUOUS
10
15.7658
20
-1.95623
11
15.7657
21
-1.95573
0
LINE
8
BLACK
6
CONTINUOUS
10
15.7657
20
-1.95573
11
15.7657
21
-1.94744
0
LINE
8
BLACK
6
CONTINUOUS
10
15.7657
20
-1.94744
11
15.7579
21
-1.94744
0
LINE
8
BLACK
6
CONTINUOUS
10
15.7579
20
-1.94744
11
15.7579
21
-1.95807
0
LINE
8
BLACK
6
CONTINUOUS
10
15.7579
20
-1.95807
11
15.6634
21
-1.95807
0
LINE
8
BLACK
6
CONTINUOUS
10
15.6634
20
-1.95807
11
15.6634
21
-1.95138
0
LINE
8
BLACK
6
CONTINUOUS
10
15.6634
20
-1.95138
11
15.6555
21
-1.95138
0
LINE
8
BLACK
6
CONTINUOUS
10
15.6555
20
-1.95138
11
15.6555
21
-1.95573
0
LINE
8
BLACK
6
CONTINUOUS
10
15.6555
20
-1.95573
11
15.6548
21
-1.9576
0
LINE
8
BLACK
6
CONTINUOUS
10
15.6548
20
-1.9576
11
15.6531
21
-1.9586
0
LINE
8
BLACK
6
CONTINUOUS
10
15.6531
20
-1.9586
11
15.6526
21
-1.95864
0
LINE
8
BLACK
6
CONTINUOUS
10
15.6526
20
-1.95864
11
15.5963
21
-1.95864
0
LINE
8
BLACK
6
CONTINUOUS
10
15.5963
20
-1.95864
11
15.5944
21
-1.95796
0
LINE
8
BLACK
6
CONTINUOUS
10
15.5944
20
-1.95796
11
15.5943
21
-1.95779
0
LINE
8
BLACK
6
CONTINUOUS
10
15.5943
20
-1.95779
11
15.5921
21
-1.95559
0
LINE
8
BLACK
6
CONTINUOUS
10
15.5921
20
-1.95559
11
15.5921
21
-1.95559
0
LINE
8
BLACK
6
CONTINUOUS
10
15.5921
20
-1.95559
11
15.5876
21
-1.95332
0
LINE
8
BLACK
6
CONTINUOUS
10
15.5876
20
-1.95332
11
15.5876
21
-1.95332
0
LINE
8
BLACK
6
CONTINUOUS
10
15.5876
20
-1.95332
11
15.5876
21
-1.95332
0
LINE
8
BLACK
6
CONTINUOUS
10
15.5876
20
-1.95332
11
15.5839
21
-1.95274
0
LINE
8
BLACK
6
CONTINUOUS
10
15.5839
20
-1.95274
11
15.5839
21
-1.95274
0
LINE
8
BLACK
6
CONTINUOUS
10
15.5839
20
-1.95274
11
2.0775
21
-1.95274
0
LINE
8
BLACK
6
CONTINUOUS
10
2.0775
20
-1.95274
11
2.0775
21
-1.95274
0
LINE
8
BLACK
6
CONTINUOUS
10
2.0775
20
-1.95274
11
2.07381
21
-1.95332
0
LINE
8
BLACK
6
CONTINUOUS
10
2.07381
20
-1.95332
11
2.06936
21
-1.95559
0
LINE
8
BLACK
6
CONTINUOUS
10
2.06936
20
-1.95559
11
2.06582
21
-1.95912
0
LINE
8
BLACK
6
CONTINUOUS
10
2.06582
20
-1.95912
11
2.06356
21
-1.96357
0
LINE
8
BLACK
6
CONTINUOUS
10
2.06356
20
-1.96357
11
2.06278
21
-1.9685
0
LINE
8
BLACK
6
CONTINUOUS
10
2.06278
20
-1.9685
11
2.06356
21
-1.97344
0
LINE
8
BLACK
6
CONTINUOUS
10
2.06356
20
-1.97344
11
2.06356
21
-1.97344
0
LINE
8
BLACK
6
CONTINUOUS
10
2.06356
20
-1.97344
11
2.06356
21
-1.97344
0
LINE
8
BLACK
6
CONTINUOUS
10
2.06356
20
-1.97344
11
2.06582
21
-1.97789
0
LINE
8
BLACK
6
CONTINUOUS
10
2.06582
20
-1.97789
11
2.06936
21
-1.98142
0
LINE
8
BLACK
6
CONTINUOUS
10
2.06936
20
-1.98142
11
2.07381
21
-1.98369
0
LINE
8
BLACK
6
CONTINUOUS
10
2.07381
20
-1.98369
11
2.07524
21
-1.98391
0
LINE
8
BLACK
6
CONTINUOUS
10
2.07524
20
-1.98391
11
2.0775
21
-1.98427
0
LINE
8
BLACK
6
CONTINUOUS
10
2.0775
20
-1.98427
11
2.0775
21
-1.98427
0
LINE
8
BLACK
6
CONTINUOUS
10
2.0775
20
-1.98427
11
15.5839
21
-1.98427
0
LINE
8
BLACK
6
CONTINUOUS
10
15.5839
20
-1.98427
11
15.5848
21
-1.98413
0
LINE
8
BLACK
6
CONTINUOUS
10
15.5848
20
-1.98413
11
15.5876
21
-1.98369
0
LINE
8
BLACK
6
CONTINUOUS
10
15.5876
20
-1.98369
11
15.5921
21
-1.98142
0
LINE
8
BLACK
6
CONTINUOUS
10
15.5921
20
-1.98142
11
15.5943
21
-1.97922
0
LINE
8
BLACK
6
CONTINUOUS
10
15.5943
20
-1.97922
11
15.5961
21
-1.97838
0
LINE
8
BLACK
6
CONTINUOUS
10
15.5961
20
-1.97838
11
15.5963
21
-1.97837
0
LINE
8
BLACK
6
CONTINUOUS
10
15.5963
20
-1.97837
11
15.6356
21
-1.97837
0
LINE
8
BLACK
6
CONTINUOUS
10
15.6356
20
-1.97837
11
15.6375
21
-1.97905
0
LINE
8
BLACK
6
CONTINUOUS
10
15.6375
20
-1.97905
11
15.6385
21
-1.98077
0
LINE
8
BLACK
6
CONTINUOUS
10
15.6385
20
-1.98077
11
15.6382
21
-1.98274
0
LINE
8
BLACK
6
CONTINUOUS
10
15.6382
20
-1.98274
11
15.6377
21
-1.98334
0
LINE
8
BLACK
6
CONTINUOUS
10
15.6377
20
-1.98334
11
15.6357
21
-1.98529
0
LINE
8
BLACK
6
CONTINUOUS
10
15.6357
20
-1.98529
11
15.6338
21
-1.98919
0
LINE
8
BLACK
6
CONTINUOUS
10
15.6338
20
-1.98919
11
15.6331
21
-1.9935
0
LINE
8
BLACK
6
CONTINUOUS
10
15.6331
20
-1.9935
11
15.6338
21
-1.99782
0
LINE
8
BLACK
6
CONTINUOUS
10
15.6338
20
-1.99782
11
15.6357
21
-2.00172
0
LINE
8
BLACK
6
CONTINUOUS
10
15.6357
20
-2.00172
11
15.6388
21
-2.00481
0
LINE
8
BLACK
6
CONTINUOUS
10
15.6388
20
-2.00481
11
15.6413
21
-2.00607
0
LINE
8
BLACK
6
CONTINUOUS
10
15.6413
20
-2.00607
11
15.6427
21
-2.00753
0
LINE
8
BLACK
6
CONTINUOUS
10
15.6427
20
-2.00753
11
15.6428
21
-2.00952
0
LINE
8
BLACK
6
CONTINUOUS
10
15.6428
20
-2.00952
11
15.6416
21
-2.01111
0
LINE
8
BLACK
6
CONTINUOUS
10
15.6416
20
-2.01111
11
15.64
21
-2.01158
0
LINE
8
BLACK
6
CONTINUOUS
10
15.64
20
-2.01158
11
2.06401
21
-2.01158
0
LINE
8
BLACK
6
CONTINUOUS
10
2.06401
20
-2.01158
11
2.06326
21
-2.01148
0
LINE
8
BLACK
6
CONTINUOUS
10
2.06326
20
-2.01148
11
2.06285
21
-2.01137
0
LINE
8
BLACK
6
CONTINUOUS
10
2.06285
20
-2.01137
11
2.06207
21
-2.01158
0
LINE
8
BLACK
6
CONTINUOUS
10
2.06207
20
-2.01158
11
2.05978
21
-2.01219
0
LINE
8
BLACK
6
CONTINUOUS
10
2.05978
20
-2.01219
11
2.05754
21
-2.01444
0
LINE
8
BLACK
6
CONTINUOUS
10
2.05754
20
-2.01444
11
2.05754
21
-2.01444
0
LINE
8
BLACK
6
CONTINUOUS
10
2.05754
20
-2.01444
11
2.05754
21
-2.01444
0
LINE
8
BLACK
6
CONTINUOUS
10
2.05754
20
-2.01444
11
2.05672
21
-2.0175
0
LINE
8
BLACK
6
CONTINUOUS
10
2.05672
20
-2.0175
11
2.05683
21
-2.01791
0
LINE
8
BLACK
6
CONTINUOUS
10
2.05683
20
-2.01791
11
2.05693
21
-2.01867
0
LINE
8
BLACK
6
CONTINUOUS
10
2.05693
20
-2.01867
11
2.05693
21
-2.02699
0
LINE
8
BLACK
6
CONTINUOUS
10
2.05693
20
-2.02699
11
2.05624
21
-2.02886
0
LINE
8
BLACK
6
CONTINUOUS
10
2.05624
20
-2.02886
11
2.05452
21
-2.02985
0
LINE
8
BLACK
6
CONTINUOUS
10
2.05452
20
-2.02985
11
2.05256
21
-2.02951
0
LINE
8
BLACK
6
CONTINUOUS
10
2.05256
20
-2.02951
11
2.05159
21
-2.0286
0
LINE
8
BLACK
6
CONTINUOUS
10
2.05159
20
-2.0286
11
2.0514
21
-2.02832
0
LINE
8
BLACK
6
CONTINUOUS
10
2.0514
20
-2.02832
11
2.0514
21
-2.02832
0
LINE
8
BLACK
6
CONTINUOUS
10
2.0514
20
-2.02832
11
2.04814
21
-2.02614
0
LINE
8
BLACK
6
CONTINUOUS
10
2.04814
20
-2.02614
11
2.04526
21
-2.02557
0
LINE
8
BLACK
6
CONTINUOUS
10
2.04526
20
-2.02557
11
1.99017
21
-2.02557
0
LINE
8
BLACK
6
CONTINUOUS
10
1.99017
20
-2.02557
11
1.98825
21
-2.02595
0
LINE
8
BLACK
6
CONTINUOUS
10
1.98825
20
-2.02595
11
1.98729
21
-2.02614
0
LINE
8
BLACK
6
CONTINUOUS
10
1.98729
20
-2.02614
11
1.98403
21
-2.02832
0
LINE
8
BLACK
6
CONTINUOUS
10
1.98403
20
-2.02832
11
1.98403
21
-2.02832
0
LINE
8
BLACK
6
CONTINUOUS
10
1.98403
20
-2.02832
11
1.98185
21
-2.03158
0
LINE
8
BLACK
6
CONTINUOUS
10
1.98185
20
-2.03158
11
1.98185
21
-2.03159
0
LINE
8
BLACK
6
CONTINUOUS
10
1.98185
20
-2.03159
11
1.98185
21
-2.03159
0
LINE
8
BLACK
6
CONTINUOUS
10
1.98185
20
-2.03159
11
1.98128
21
-2.03446
0
LINE
8
BLACK
6
CONTINUOUS
10
1.98128
20
-2.03446
11
1.98128
21
-2.0679
0
LINE
8
BLACK
6
CONTINUOUS
10
1.98128
20
-2.0679
11
1.98185
21
-2.07078
0
LINE
8
BLACK
6
CONTINUOUS
10
1.98185
20
-2.07078
11
1.98403
21
-2.07404
0
LINE
8
BLACK
6
CONTINUOUS
10
1.98403
20
-2.07404
11
1.98729
21
-2.07622
0
LINE
8
BLACK
6
CONTINUOUS
10
1.98729
20
-2.07622
11
1.99017
21
-2.07679
0
LINE
8
BLACK
6
CONTINUOUS
10
1.99017
20
-2.07679
11
1.99017
21
-2.07679
0
LINE
8
BLACK
6
CONTINUOUS
10
1.99017
20
-2.07679
11
2.04526
21
-2.07679
0
LINE
8
BLACK
6
CONTINUOUS
10
2.04526
20
-2.07679
11
2.04526
21
-2.07679
0
LINE
8
BLACK
6
CONTINUOUS
10
2.04526
20
-2.07679
11
2.04814
21
-2.07622
0
LINE
8
BLACK
6
CONTINUOUS
10
2.04814
20
-2.07622
11
2.0514
21
-2.07404
0
LINE
8
BLACK
6
CONTINUOUS
10
2.0514
20
-2.07404
11
2.05358
21
-2.07078
0
LINE
8
BLACK
6
CONTINUOUS
10
2.05358
20
-2.07078
11
2.05415
21
-2.0679
0
LINE
8
BLACK
6
CONTINUOUS
10
2.05415
20
-2.0679
11
2.05415
21
-2.04922
0
LINE
8
BLACK
6
CONTINUOUS
10
2.05415
20
-2.04922
11
2.05484
21
-2.04735
0
LINE
8
BLACK
6
CONTINUOUS
10
2.05484
20
-2.04735
11
2.05656
21
-2.04635
0
LINE
8
BLACK
6
CONTINUOUS
10
2.05656
20
-2.04635
11
2.05852
21
-2.0467
0
LINE
8
BLACK
6
CONTINUOUS
10
2.05852
20
-2.0467
11
2.05913
21
-2.04716
0
LINE
8
BLACK
6
CONTINUOUS
10
2.05913
20
-2.04716
11
2.05978
21
-2.04782
0
LINE
8
BLACK
6
CONTINUOUS
10
2.05978
20
-2.04782
11
2.06285
21
-2.04864
0
LINE
8
BLACK
6
CONTINUOUS
10
2.06285
20
-2.04864
11
2.06319
21
-2.04855
0
LINE
8
BLACK
6
CONTINUOUS
10
2.06319
20
-2.04855
11
2.06326
21
-2.04853
0
LINE
8
BLACK
6
CONTINUOUS
10
2.06326
20
-2.04853
11
2.06401
21
-2.04843
0
LINE
8
BLACK
6
CONTINUOUS
10
2.06401
20
-2.04843
11
2.11246
21
-2.04843
0
LINE
8
BLACK
6
CONTINUOUS
10
2.11246
20
-2.04843
11
2.11434
21
-2.04911
0
LINE
8
BLACK
6
CONTINUOUS
10
2.11434
20
-2.04911
11
2.11533
21
-2.05084
0
LINE
8
BLACK
6
CONTINUOUS
10
2.11533
20
-2.05084
11
2.11504
21
-2.0527
0
LINE
8
BLACK
6
CONTINUOUS
10
2.11504
20
-2.0527
11
2.11429
21
-2.05414
0
LINE
8
BLACK
6
CONTINUOUS
10
2.11429
20
-2.05414
11
2.11422
21
-2.05425
0
LINE
8
BLACK
6
CONTINUOUS
10
2.11422
20
-2.05425
11
2.10551
21
-2.06757
0
LINE
8
BLACK
6
CONTINUOUS
10
2.10551
20
-2.06757
11
2.10543
21
-2.06768
0
LINE
8
BLACK
6
CONTINUOUS
10
2.10543
20
-2.06768
11
2.10035
21
-2.07404
0
LINE
8
BLACK
6
CONTINUOUS
10
2.10035
20
-2.07404
11
2.09643
21
-2.07895
0
LINE
8
BLACK
6
CONTINUOUS
10
2.09643
20
-2.07895
11
2.09551
21
-2.0801
0
LINE
8
BLACK
6
CONTINUOUS
10
2.09551
20
-2.0801
11
2.09542
21
-2.08021
0
LINE
8
BLACK
6
CONTINUOUS
10
2.09542
20
-2.08021
11
2.08436
21
-2.09164
0
LINE
8
BLACK
6
CONTINUOUS
10
2.08436
20
-2.09164
11
2.08426
21
-2.09173
0
LINE
8
BLACK
6
CONTINUOUS
10
2.08426
20
-2.09173
11
2.07217
21
-2.10206
0
LINE
8
BLACK
6
CONTINUOUS
10
2.07217
20
-2.10206
11
2.07206
21
-2.10215
0
LINE
8
BLACK
6
CONTINUOUS
10
2.07206
20
-2.10215
11
2.05905
21
-2.11129
0
LINE
8
BLACK
6
CONTINUOUS
10
2.05905
20
-2.11129
11
2.05893
21
-2.11136
0
LINE
8
BLACK
6
CONTINUOUS
10
2.05893
20
-2.11136
11
2.04511
21
-2.11923
0
LINE
8
BLACK
6
CONTINUOUS
10
2.04511
20
-2.11923
11
2.04498
21
-2.11929
0
LINE
8
BLACK
6
CONTINUOUS
10
2.04498
20
-2.11929
11
2.03048
21
-2.12581
0
LINE
8
BLACK
6
CONTINUOUS
10
2.03048
20
-2.12581
11
2.03035
21
-2.12586
0
LINE
8
BLACK
6
CONTINUOUS
10
2.03035
20
-2.12586
11
2.01529
21
-2.13097
0
LINE
8
BLACK
6
CONTINUOUS
10
2.01529
20
-2.13097
11
2.01516
21
-2.13101
0
LINE
8
BLACK
6
CONTINUOUS
10
2.01516
20
-2.13101
11
1.99969
21
-2.13468
0
LINE
8
BLACK
6
CONTINUOUS
10
1.99969
20
-2.13468
11
1.99955
21
-2.1347
0
LINE
8
BLACK
6
CONTINUOUS
10
1.99955
20
-2.1347
11
1.9838
21
-2.13688
0
LINE
8
BLACK
6
CONTINUOUS
10
1.9838
20
-2.13688
11
1.98366
21
-2.13689
0
LINE
8
BLACK
6
CONTINUOUS
10
1.98366
20
-2.13689
11
1.96777
21
-2.13757
0
LINE
8
BLACK
6
CONTINUOUS
10
1.96777
20
-2.13757
11
1.96763
21
-2.13757
0
LINE
8
BLACK
6
CONTINUOUS
10
1.96763
20
-2.13757
11
1.95321
21
-2.13682
0
LINE
8
BLACK
6
CONTINUOUS
10
1.95321
20
-2.13682
11
1.95175
21
-2.13674
0
LINE
8
BLACK
6
CONTINUOUS
10
1.95175
20
-2.13674
11
1.95161
21
-2.13673
0
LINE
8
BLACK
6
CONTINUOUS
10
1.95161
20
-2.13673
11
1.93588
21
-2.1344
0
LINE
8
BLACK
6
CONTINUOUS
10
1.93588
20
-2.1344
11
1.93575
21
-2.13437
0
LINE
8
BLACK
6
CONTINUOUS
10
1.93575
20
-2.13437
11
1.92213
21
-2.13101
0
LINE
8
BLACK
6
CONTINUOUS
10
1.92213
20
-2.13101
11
1.92031
21
-2.13056
0
LINE
8
BLACK
6
CONTINUOUS
10
1.92031
20
-2.13056
11
1.92018
21
-2.13052
0
LINE
8
BLACK
6
CONTINUOUS
10
1.92018
20
-2.13052
11
1.9138
21
-2.12829
0
LINE
8
BLACK
6
CONTINUOUS
10
1.9138
20
-2.12829
11
1.90517
21
-2.12526
0
LINE
8
BLACK
6
CONTINUOUS
10
1.90517
20
-2.12526
11
1.90504
21
-2.12521
0
LINE
8
BLACK
6
CONTINUOUS
10
1.90504
20
-2.12521
11
1.8906
21
-2.11856
0
LINE
8
BLACK
6
CONTINUOUS
10
1.8906
20
-2.11856
11
1.89047
21
-2.11849
0
LINE
8
BLACK
6
CONTINUOUS
10
1.89047
20
-2.11849
11
1.87673
21
-2.1105
0
LINE
8
BLACK
6
CONTINUOUS
10
1.87673
20
-2.1105
11
1.87661
21
-2.11042
0
LINE
8
BLACK
6
CONTINUOUS
10
1.87661
20
-2.11042
11
1.86368
21
-2.10116
0
LINE
8
BLACK
6
CONTINUOUS
10
1.86368
20
-2.10116
11
1.86357
21
-2.10107
0
LINE
8
BLACK
6
CONTINUOUS
10
1.86357
20
-2.10107
11
1.85158
21
-2.09063
0
LINE
8
BLACK
6
CONTINUOUS
10
1.85158
20
-2.09063
11
1.85148
21
-2.09053
0
LINE
8
BLACK
6
CONTINUOUS
10
1.85148
20
-2.09053
11
1.85074
21
-2.08975
0
LINE
8
BLACK
6
CONTINUOUS
10
1.85074
20
-2.08975
11
1.84053
21
-2.079
0
LINE
8
BLACK
6
CONTINUOUS
10
1.84053
20
-2.079
11
1.84044
21
-2.07889
0
LINE
8
BLACK
6
CONTINUOUS
10
1.84044
20
-2.07889
11
1.83183
21
-2.0679
0
LINE
8
BLACK
6
CONTINUOUS
10
1.83183
20
-2.0679
11
1.83064
21
-2.06637
0
LINE
8
BLACK
6
CONTINUOUS
10
1.83064
20
-2.06637
11
1.83056
21
-2.06626
0
LINE
8
BLACK
6
CONTINUOUS
10
1.83056
20
-2.06626
11
1.82198
21
-2.05287
0
LINE
8
BLACK
6
CONTINUOUS
10
1.82198
20
-2.05287
11
1.82192
21
-2.05275
0
LINE
8
BLACK
6
CONTINUOUS
10
1.82192
20
-2.05275
11
1.81465
21
-2.0386
0
LINE
8
BLACK
6
CONTINUOUS
10
1.81465
20
-2.0386
11
1.81459
21
-2.03848
0
LINE
8
BLACK
6
CONTINUOUS
10
1.81459
20
-2.03848
11
1.81404
21
-2.03709
0
LINE
8
BLACK
6
CONTINUOUS
10
1.81404
20
-2.03709
11
1.8087
21
-2.02371
0
LINE
8
BLACK
6
CONTINUOUS
10
1.8087
20
-2.02371
11
1.80865
21
-2.02358
0
LINE
8
BLACK
6
CONTINUOUS
10
1.80865
20
-2.02358
11
1.80861
21
-2.02343
0
LINE
8
BLACK
6
CONTINUOUS
10
1.80861
20
-2.02343
11
1.80419
21
-2.00831
0
LINE
8
BLACK
6
CONTINUOUS
10
1.80419
20
-2.00831
11
1.80415
21
-2.00818
0
LINE
8
BLACK
6
CONTINUOUS
10
1.80415
20
-2.00818
11
1.80115
21
-1.99256
0
LINE
8
BLACK
6
CONTINUOUS
10
1.80115
20
-1.99256
11
1.80113
21
-1.99243
0
LINE
8
BLACK
6
CONTINUOUS
10
1.80113
20
-1.99243
11
1.80065
21
-1.9874
0
LINE
8
BLACK
6
CONTINUOUS
10
1.80065
20
-1.9874
11
1.80003
21
-1.98082
0
LINE
8
BLACK
6
CONTINUOUS
10
1.80003
20
-1.98082
11
1.79963
21
-1.97659
0
LINE
8
BLACK
6
CONTINUOUS
10
1.79963
20
-1.97659
11
1.79962
21
-1.97646
0
LINE
8
BLACK
6
CONTINUOUS
10
1.79962
20
-1.97646
11
1.79962
21
-1.96055
0
LINE
8
BLACK
6
CONTINUOUS
10
1.79962
20
-1.96055
11
1.79963
21
-1.96041
0
LINE
8
BLACK
6
CONTINUOUS
10
1.79963
20
-1.96041
11
1.80009
21
-1.95559
0
LINE
8
BLACK
6
CONTINUOUS
10
1.80009
20
-1.95559
11
1.80113
21
-1.94458
0
LINE
8
BLACK
6
CONTINUOUS
10
1.80113
20
-1.94458
11
1.80115
21
-1.94445
0
LINE
8
BLACK
6
CONTINUOUS
10
1.80115
20
-1.94445
11
1.80209
21
-1.93957
0
LINE
8
BLACK
6
CONTINUOUS
10
1.80209
20
-1.93957
11
1.80288
21
-1.93548
0
LINE
8
BLACK
6
CONTINUOUS
10
1.80288
20
-1.93548
11
1.80415
21
-1.92883
0
LINE
8
BLACK
6
CONTINUOUS
10
1.80415
20
-1.92883
11
1.80419
21
-1.9287
0
LINE
8
BLACK
6
CONTINUOUS
10
1.80419
20
-1.9287
11
1.80865
21
-1.91343
0
LINE
8
BLACK
6
CONTINUOUS
10
1.80865
20
-1.91343
11
1.8087
21
-1.9133
0
LINE
8
BLACK
6
CONTINUOUS
10
1.8087
20
-1.9133
11
1.81459
21
-1.89853
0
LINE
8
BLACK
6
CONTINUOUS
10
1.81459
20
-1.89853
11
1.81465
21
-1.89841
0
LINE
8
BLACK
6
CONTINUOUS
10
1.81465
20
-1.89841
11
1.81501
21
-1.8977
0
LINE
8
BLACK
6
CONTINUOUS
10
1.81501
20
-1.8977
11
1.82192
21
-1.88426
0
LINE
8
BLACK
6
CONTINUOUS
10
1.82192
20
-1.88426
11
1.82198
21
-1.88414
0
LINE
8
BLACK
6
CONTINUOUS
10
1.82198
20
-1.88414
11
1.83056
21
-1.87075
0
LINE
8
BLACK
6
CONTINUOUS
10
1.83056
20
-1.87075
11
1.83064
21
-1.87063
0
LINE
8
BLACK
6
CONTINUOUS
10
1.83064
20
-1.87063
11
1.84044
21
-1.85811
0
LINE
8
BLACK
6
CONTINUOUS
10
1.84044
20
-1.85811
11
1.84053
21
-1.85801
0
LINE
8
BLACK
6
CONTINUOUS
10
1.84053
20
-1.85801
11
1.85148
21
-1.84647
0
LINE
8
BLACK
6
CONTINUOUS
10
1.85148
20
-1.84647
11
1.85158
21
-1.84638
0
LINE
8
BLACK
6
CONTINUOUS
10
1.85158
20
-1.84638
11
1.86357
21
-1.83593
0
LINE
8
BLACK
6
CONTINUOUS
10
1.86357
20
-1.83593
11
1.86368
21
-1.83585
0
LINE
8
BLACK
6
CONTINUOUS
10
1.86368
20
-1.83585
11
1.87661
21
-1.82659
0
LINE
8
BLACK
6
CONTINUOUS
10
1.87661
20
-1.82659
11
1.87673
21
-1.82651
0
LINE
8
BLACK
6
CONTINUOUS
10
1.87673
20
-1.82651
11
1.88423
21
-1.82215
0
LINE
8
BLACK
6
CONTINUOUS
10
1.88423
20
-1.82215
11
1.89047
21
-1.81852
0
LINE
8
BLACK
6
CONTINUOUS
10
1.89047
20
-1.81852
11
1.8906
21
-1.81845
0
LINE
8
BLACK
6
CONTINUOUS
10
1.8906
20
-1.81845
11
1.90504
21
-1.8118
0
LINE
8
BLACK
6
CONTINUOUS
10
1.90504
20
-1.8118
11
1.90517
21
-1.81174
0
LINE
8
BLACK
6
CONTINUOUS
10
1.90517
20
-1.81174
11
1.90672
21
-1.8112
0
LINE
8
BLACK
6
CONTINUOUS
10
1.90672
20
-1.8112
11
1.92018
21
-1.80649
0
LINE
8
BLACK
6
CONTINUOUS
10
1.92018
20
-1.80649
11
1.92031
21
-1.80645
0
LINE
8
BLACK
6
CONTINUOUS
10
1.92031
20
-1.80645
11
1.93575
21
-1.80264
0
LINE
8
BLACK
6
CONTINUOUS
10
1.93575
20
-1.80264
11
1.93588
21
-1.80261
0
LINE
8
BLACK
6
CONTINUOUS
10
1.93588
20
-1.80261
11
1.95161
21
-1.80028
0
LINE
8
BLACK
6
CONTINUOUS
10
1.95161
20
-1.80028
11
1.95175
21
-1.80026
0
LINE
8
BLACK
6
CONTINUOUS
10
1.95175
20
-1.80026
11
1.96763
21
-1.79943
0
LINE
8
BLACK
6
CONTINUOUS
10
1.96763
20
-1.79943
11
1.96777
21
-1.79943
0
LINE
8
BLACK
6
CONTINUOUS
10
1.96777
20
-1.79943
11
1.98366
21
-1.80011
0
LINE
8
BLACK
6
CONTINUOUS
10
1.88146
20
-2.07078
11
1.88364
21
-2.07404
0
LINE
8
BLACK
6
CONTINUOUS
10
1.88364
20
-2.07404
11
1.8869
21
-2.07622
0
LINE
8
BLACK
6
CONTINUOUS
10
1.8869
20
-2.07622
11
1.88978
21
-2.07679
0
LINE
8
BLACK
6
CONTINUOUS
10
1.88978
20
-2.07679
11
1.88978
21
-2.07679
0
LINE
8
BLACK
6
CONTINUOUS
10
1.88978
20
-2.07679
11
1.94487
21
-2.07679
0
LINE
8
BLACK
6
CONTINUOUS
10
1.94487
20
-2.07679
11
1.94487
21
-2.07679
0
LINE
8
BLACK
6
CONTINUOUS
10
1.94487
20
-2.07679
11
1.94775
21
-2.07622
0
LINE
8
BLACK
6
CONTINUOUS
10
1.94775
20
-2.07622
11
1.95101
21
-2.07404
0
LINE
8
BLACK
6
CONTINUOUS
10
1.95101
20
-2.07404
11
1.95319
21
-2.07078
0
LINE
8
BLACK
6
CONTINUOUS
10
1.95319
20
-2.07078
11
1.95376
21
-2.0679
0
LINE
8
BLACK
6
CONTINUOUS
10
1.95376
20
-2.0679
11
1.95376
21
-2.03446
0
LINE
8
BLACK
6
CONTINUOUS
10
1.95376
20
-2.03446
11
1.95357
21
-2.0335
0
LINE
8
BLACK
6
CONTINUOUS
10
1.95357
20
-2.0335
11
1.95387
21
-2.03153
0
LINE
8
BLACK
6
CONTINUOUS
10
1.95387
20
-2.03153
11
1.95437
21
-2.03087
0
LINE
8
BLACK
6
CONTINUOUS
10
1.95437
20
-2.03087
11
1.95537
21
-2.02987
0
LINE
8
BLACK
6
CONTINUOUS
10
1.95537
20
-2.02987
11
1.95686
21
-2.02911
0
LINE
8
BLACK
6
CONTINUOUS
10
1.95686
20
-2.02911
11
1.95686
21
-2.02911
0
LINE
8
BLACK
6
CONTINUOUS
10
1.95686
20
-2.02911
11
1.95688
21
-2.0291
0
LINE
8
BLACK
6
CONTINUOUS
10
1.95688
20
-2.0291
11
1.95697
21
-2.02905
0
LINE
8
BLACK
6
CONTINUOUS
10
1.95697
20
-2.02905
11
1.95707
21
-2.02904
0
LINE
8
BLACK
6
CONTINUOUS
10
1.95707
20
-2.02904
11
1.96097
21
-2.02705
0
LINE
8
BLACK
6
CONTINUOUS
10
1.96097
20
-2.02705
11
1.96406
21
-2.02396
0
LINE
8
BLACK
6
CONTINUOUS
10
1.96406
20
-2.02396
11
1.96604
21
-2.02007
0
LINE
8
BLACK
6
CONTINUOUS
10
1.96604
20
-2.02007
11
1.96673
21
-2.01575
0
LINE
8
BLACK
6
CONTINUOUS
10
1.96673
20
-2.01575
11
1.96604
21
-2.01143
0
LINE
8
BLACK
6
CONTINUOUS
10
1.96604
20
-2.01143
11
1.96406
21
-2.00754
0
LINE
8
BLACK
6
CONTINUOUS
10
1.96406
20
-2.00754
11
1.96097
21
-2.00445
0
LINE
8
BLACK
6
CONTINUOUS
10
1.96097
20
-2.00445
11
1.95897
21
-2.00343
0
LINE
8
BLACK
6
CONTINUOUS
10
1.95897
20
-2.00343
11
1.95707
21
-2.00246
0
LINE
8
BLACK
6
CONTINUOUS
10
1.95707
20
-2.00246
11
1.95276
21
-2.00178
0
LINE
8
BLACK
6
CONTINUOUS
10
1.95276
20
-2.00178
11
1.94844
21
-2.00246
0
LINE
8
BLACK
6
CONTINUOUS
10
1.94844
20
-2.00246
11
1.94454
21
-2.00445
0
LINE
8
BLACK
6
CONTINUOUS
10
1.94454
20
-2.00445
11
1.94145
21
-2.00754
0
LINE
8
BLACK
6
CONTINUOUS
10
1.94145
20
-2.00754
11
1.94106
21
-2.00831
0
LINE
8
BLACK
6
CONTINUOUS
10
1.94106
20
-2.00831
11
1.93947
21
-2.01143
0
LINE
8
BLACK
6
CONTINUOUS
10
1.93947
20
-2.01143
11
1.93945
21
-2.01153
0
LINE
8
BLACK
6
CONTINUOUS
10
1.93945
20
-2.01153
11
1.9394
21
-2.01163
0
LINE
8
BLACK
6
CONTINUOUS
10
1.9394
20
-2.01163
11
1.9394
21
-2.01165
0
LINE
8
BLACK
6
CONTINUOUS
10
1.9394
20
-2.01165
11
1.93939
21
-2.01165
0
LINE
8
BLACK
6
CONTINUOUS
10
1.93939
20
-2.01165
11
1.93863
21
-2.01314
0
LINE
8
BLACK
6
CONTINUOUS
10
1.93863
20
-2.01314
11
1.92706
21
-2.02472
0
LINE
8
BLACK
6
CONTINUOUS
10
1.92706
20
-2.02472
11
1.92525
21
-2.02556
0
LINE
8
BLACK
6
CONTINUOUS
10
1.92525
20
-2.02556
11
1.925
21
-2.02557
0
LINE
8
BLACK
6
CONTINUOUS
10
1.925
20
-2.02557
11
1.88978
21
-2.02557
0
LINE
8
BLACK
6
CONTINUOUS
10
1.88978
20
-2.02557
11
1.88786
21
-2.02595
0
LINE
8
BLACK
6
CONTINUOUS
10
1.88786
20
-2.02595
11
1.8869
21
-2.02614
0
LINE
8
BLACK
6
CONTINUOUS
10
1.8869
20
-2.02614
11
1.88364
21
-2.02832
0
LINE
8
BLACK
6
CONTINUOUS
10
1.88364
20
-2.02832
11
1.88364
21
-2.02832
0
LINE
8
BLACK
6
CONTINUOUS
10
1.88364
20
-2.02832
11
1.88146
21
-2.03158
0
LINE
8
BLACK
6
CONTINUOUS
10
1.88146
20
-2.03158
11
1.88146
21
-2.03159
0
LINE
8
BLACK
6
CONTINUOUS
10
1.88146
20
-2.03159
11
1.88146
21
-2.03159
0
LINE
8
BLACK
6
CONTINUOUS
10
1.88146
20
-2.03159
11
1.88089
21
-2.03446
0
LINE
8
BLACK
6
CONTINUOUS
10
1.88089
20
-2.03446
11
1.88089
21
-2.0679
0
LINE
8
BLACK
6
CONTINUOUS
10
1.88089
20
-2.0679
11
1.88146
21
-2.07078
0
LINE
8
BLACK
6
CONTINUOUS
10
1.86388
20
-1.99172
11
1.86479
21
-1.9935
0
LINE
8
BLACK
6
CONTINUOUS
10
1.86479
20
-1.9935
11
1.86586
21
-1.99561
0
LINE
8
BLACK
6
CONTINUOUS
10
1.86586
20
-1.99561
11
1.86895
21
-1.9987
0
LINE
8
BLACK
6
CONTINUOUS
10
1.86895
20
-1.9987
11
1.87285
21
-2.00069
0
LINE
8
BLACK
6
CONTINUOUS
10
1.87285
20
-2.00069
11
1.87717
21
-2.00137
0
LINE
8
BLACK
6
CONTINUOUS
10
1.87717
20
-2.00137
11
1.88148
21
-2.00069
0
LINE
8
BLACK
6
CONTINUOUS
10
1.88148
20
-2.00069
11
1.88538
21
-1.9987
0
LINE
8
BLACK
6
CONTINUOUS
10
1.88538
20
-1.9987
11
1.88847
21
-1.99561
0
LINE
8
BLACK
6
CONTINUOUS
10
1.88847
20
-1.99561
11
1.89045
21
-1.99172
0
LINE
8
BLACK
6
CONTINUOUS
10
1.89045
20
-1.99172
11
1.89114
21
-1.9874
0
LINE
8
BLACK
6
CONTINUOUS
10
1.89114
20
-1.9874
11
1.89045
21
-1.98308
0
LINE
8
BLACK
6
CONTINUOUS
10
1.89045
20
-1.98308
11
1.88847
21
-1.97919
0
LINE
8
BLACK
6
CONTINUOUS
10
1.88847
20
-1.97919
11
1.88538
21
-1.9761
0
LINE
8
BLACK
6
CONTINUOUS
10
1.88538
20
-1.9761
11
1.88538
21
-1.9761
0
LINE
8
BLACK
6
CONTINUOUS
10
1.88538
20
-1.9761
11
1.88148
21
-1.97411
0
LINE
8
BLACK
6
CONTINUOUS
10
1.88148
20
-1.97411
11
1.87717
21
-1.97343
0
LINE
8
BLACK
6
CONTINUOUS
10
1.87717
20
-1.97343
11
1.87285
21
-1.97411
0
LINE
8
BLACK
6
CONTINUOUS
10
1.87285
20
-1.97411
11
1.86895
21
-1.9761
0
LINE
8
BLACK
6
CONTINUOUS
10
1.86895
20
-1.9761
11
1.86586
21
-1.97919
0
LINE
8
BLACK
6
CONTINUOUS
10
1.86586
20
-1.97919
11
1.86388
21
-1.98308
0
LINE
8
BLACK
6
CONTINUOUS
10
1.86388
20
-1.98308
11
1.86319
21
-1.9874
0
LINE
8
BLACK
6
CONTINUOUS
10
1.86319
20
-1.9874
11
1.86388
21
-1.99172
0
LINE
8
BLACK
6
CONTINUOUS
10
2.0458
20
-2.0318
11
2.04708
21
-2.03265
0
LINE
8
BLACK
6
CONTINUOUS
10
2.04708
20
-2.03265
11
2.04793
21
-2.03393
0
LINE
8
BLACK
6
CONTINUOUS
10
2.04793
20
-2.03393
11
2.04823
21
-2.03543
0
LINE
8
BLACK
6
CONTINUOUS
10
2.04823
20
-2.03543
11
2.04823
21
-2.06693
0
LINE
8
BLACK
6
CONTINUOUS
10
2.04823
20
-2.06693
11
2.04793
21
-2.06844
0
LINE
8
BLACK
6
CONTINUOUS
10
2.04793
20
-2.06844
11
2.04708
21
-2.06971
0
LINE
8
BLACK
6
CONTINUOUS
10
2.04708
20
-2.06971
11
2.0458
21
-2.07057
0
LINE
8
BLACK
6
CONTINUOUS
10
2.0458
20
-2.07057
11
2.04429
21
-2.07087
0
LINE
8
BLACK
6
CONTINUOUS
10
2.04429
20
-2.07087
11
1.99114
21
-2.07087
0
LINE
8
BLACK
6
CONTINUOUS
10
1.99114
20
-2.07087
11
1.98964
21
-2.07057
0
LINE
8
BLACK
6
CONTINUOUS
10
1.98964
20
-2.07057
11
1.98836
21
-2.06971
0
LINE
8
BLACK
6
CONTINUOUS
10
1.98836
20
-2.06971
11
1.9875
21
-2.06844
0
LINE
8
BLACK
6
CONTINUOUS
10
1.9875
20
-2.06844
11
1.9872
21
-2.06693
0
LINE
8
BLACK
6
CONTINUOUS
10
1.9872
20
-2.06693
11
1.9872
21
-2.03543
0
LINE
8
BLACK
6
CONTINUOUS
10
1.9872
20
-2.03543
11
1.9875
21
-2.03393
0
LINE
8
BLACK
6
CONTINUOUS
10
1.9875
20
-2.03393
11
1.98836
21
-2.03265
0
LINE
8
BLACK
6
CONTINUOUS
10
1.98836
20
-2.03265
11
1.98964
21
-2.0318
0
LINE
8
BLACK
6
CONTINUOUS
10
1.98964
20
-2.0318
11
1.99114
21
-2.0315
0
LINE
8
BLACK
6
CONTINUOUS
10
1.99114
20
-2.0315
11
2.04429
21
-2.0315
0
LINE
8
BLACK
6
CONTINUOUS
10
2.04429
20
-2.0315
11
2.0458
21
-2.0318
0
LINE
8
BLACK
6
CONTINUOUS
10
15.7579
20
-1.98957
11
15.7722
21
-1.98957
0
LINE
8
BLACK
6
CONTINUOUS
10
15.7722
20
-1.98957
11
15.7724
21
-1.98871
0
LINE
8
BLACK
6
CONTINUOUS
10
15.7724
20
-1.98871
11
15.7746
21
-1.98597
0
LINE
8
BLACK
6
CONTINUOUS
10
15.7746
20
-1.98597
11
15.7778
21
-1.98445
0
LINE
8
BLACK
6
CONTINUOUS
10
15.7778
20
-1.98445
11
15.7813
21
-1.98445
0
LINE
8
BLACK
6
CONTINUOUS
10
15.7813
20
-1.98445
11
15.7844
21
-1.98597
0
LINE
8
BLACK
6
CONTINUOUS
10
15.7844
20
-1.98597
11
15.7866
21
-1.98871
0
LINE
8
BLACK
6
CONTINUOUS
10
15.7866
20
-1.98871
11
15.7874
21
-1.99213
0
LINE
8
BLACK
6
CONTINUOUS
10
15.7874
20
-1.99213
11
15.7866
21
-1.99554
0
LINE
8
BLACK
6
CONTINUOUS
10
15.7866
20
-1.99554
11
15.7844
21
-1.99828
0
LINE
8
BLACK
6
CONTINUOUS
10
15.7844
20
-1.99828
11
15.7813
21
-1.9998
0
LINE
8
BLACK
6
CONTINUOUS
10
15.7813
20
-1.9998
11
15.7778
21
-1.9998
0
LINE
8
BLACK
6
CONTINUOUS
10
15.7778
20
-1.9998
11
15.7746
21
-1.99828
0
LINE
8
BLACK
6
CONTINUOUS
10
15.7746
20
-1.99828
11
15.7739
21
-1.99744
0
LINE
8
BLACK
6
CONTINUOUS
10
15.7739
20
-1.99744
11
15.7579
21
-1.99744
0
LINE
8
BLACK
6
CONTINUOUS
10
15.7579
20
-1.99744
11
15.7579
21
-2.00807
0
LINE
8
BLACK
6
CONTINUOUS
10
15.7579
20
-2.00807
11
15.6634
21
-2.00807
0
LINE
8
BLACK
6
CONTINUOUS
10
15.6634
20
-2.00807
11
15.6634
21
-1.99744
0
LINE
8
BLACK
6
CONTINUOUS
10
15.6634
20
-1.99744
11
15.6537
21
-1.99744
0
LINE
8
BLACK
6
CONTINUOUS
10
15.6537
20
-1.99744
11
15.652
21
-1.99966
0
LINE
8
BLACK
6
CONTINUOUS
10
15.652
20
-1.99966
11
15.6488
21
-2.00118
0
LINE
8
BLACK
6
CONTINUOUS
10
15.6488
20
-2.00118
11
15.6453
21
-2.00118
0
LINE
8
BLACK
6
CONTINUOUS
10
15.6453
20
-2.00118
11
15.6421
21
-1.99966
0
LINE
8
BLACK
6
CONTINUOUS
10
15.6421
20
-1.99966
11
15.64
21
-1.99692
0
LINE
8
BLACK
6
CONTINUOUS
10
15.64
20
-1.99692
11
15.6392
21
-1.9935
0
LINE
8
BLACK
6
CONTINUOUS
10
15.6392
20
-1.9935
11
15.64
21
-1.99009
0
LINE
8
BLACK
6
CONTINUOUS
10
15.64
20
-1.99009
11
15.6421
21
-1.98735
0
LINE
8
BLACK
6
CONTINUOUS
10
15.6421
20
-1.98735
11
15.6453
21
-1.98583
0
LINE
8
BLACK
6
CONTINUOUS
10
15.6453
20
-1.98583
11
15.6488
21
-1.98583
0
LINE
8
BLACK
6
CONTINUOUS
10
15.6488
20
-1.98583
11
15.652
21
-1.98735
0
LINE
8
BLACK
6
CONTINUOUS
10
15.652
20
-1.98735
11
15.6537
21
-1.98957
0
LINE
8
BLACK
6
CONTINUOUS
10
15.6537
20
-1.98957
11
15.6634
21
-1.98957
0
LINE
8
BLACK
6
CONTINUOUS
10
15.6634
20
-1.98957
11
15.6634
21
-1.97894
0
LINE
8
BLACK
6
CONTINUOUS
10
15.6634
20
-1.97894
11
15.7579
21
-1.97894
0
LINE
8
BLACK
6
CONTINUOUS
10
15.7579
20
-1.97894
11
15.7579
21
-1.98957
0
LINE
8
BLACK
6
CONTINUOUS
10
15.5864
20
-1.95941
11
15.5896
21
-1.96154
0
LINE
8
BLACK
6
CONTINUOUS
10
15.5896
20
-1.96154
11
15.5917
21
-1.96457
0
LINE
8
BLACK
6
CONTINUOUS
10
15.5917
20
-1.96457
11
15.8392
21
-1.96457
0
LINE
8
BLACK
6
CONTINUOUS
10
15.8392
20
-1.96457
11
15.8395
21
-1.96467
0
LINE
8
BLACK
6
CONTINUOUS
10
15.8395
20
-1.96467
11
15.8398
21
-1.96462
0
LINE
8
BLACK
6
CONTINUOUS
10
15.8398
20
-1.96462
11
15.8406
21
-1.96503
0
LINE
8
BLACK
6
CONTINUOUS
10
15.8406
20
-1.96503
11
15.8415
21
-1.96532
0
LINE
8
BLACK
6
CONTINUOUS
10
15.8415
20
-1.96532
11
15.8417
21
-1.96558
0
LINE
8
BLACK
6
CONTINUOUS
10
15.8417
20
-1.96558
11
15.842
21
-1.96572
0
LINE
8
BLACK
6
CONTINUOUS
10
15.842
20
-1.96572
11
15.8552
21
-1.97894
0
LINE
8
BLACK
6
CONTINUOUS
10
15.8552
20
-1.97894
11
15.9114
21
-1.97894
0
LINE
8
BLACK
6
CONTINUOUS
10
15.9114
20
-1.97894
11
15.9114
21
-2.00807
0
LINE
8
BLACK
6
CONTINUOUS
10
15.9114
20
-2.00807
11
15.8169
21
-2.00807
0
LINE
8
BLACK
6
CONTINUOUS
10
15.8169
20
-2.00807
11
15.8169
21
-1.97894
0
LINE
8
BLACK
6
CONTINUOUS
10
15.8169
20
-1.97894
11
15.844
21
-1.97894
0
LINE
8
BLACK
6
CONTINUOUS
10
15.844
20
-1.97894
11
15.8375
21
-1.97244
0
LINE
8
BLACK
6
CONTINUOUS
10
15.8375
20
-1.97244
11
15.5917
21
-1.97244
0
LINE
8
BLACK
6
CONTINUOUS
10
15.5917
20
-1.97244
11
15.5896
21
-1.97546
0
LINE
8
BLACK
6
CONTINUOUS
10
15.5896
20
-1.97546
11
15.5864
21
-1.9776
0
LINE
8
BLACK
6
CONTINUOUS
10
15.5864
20
-1.9776
11
15.5827
21
-1.97835
0
LINE
8
BLACK
6
CONTINUOUS
10
15.5827
20
-1.97835
11
2.07874
21
-1.97835
0
LINE
8
BLACK
6
CONTINUOUS
10
2.07874
20
-1.97835
11
2.07497
21
-1.9776
0
LINE
8
BLACK
6
CONTINUOUS
10
2.07497
20
-1.9776
11
2.07178
21
-1.97546
0
LINE
8
BLACK
6
CONTINUOUS
10
2.07178
20
-1.97546
11
2.06965
21
-1.97227
0
LINE
8
BLACK
6
CONTINUOUS
10
2.06965
20
-1.97227
11
2.0689
21
-1.9685
0
LINE
8
BLACK
6
CONTINUOUS
10
2.0689
20
-1.9685
11
2.06965
21
-1.96474
0
LINE
8
BLACK
6
CONTINUOUS
10
2.06965
20
-1.96474
11
2.07178
21
-1.96154
0
LINE
8
BLACK
6
CONTINUOUS
10
2.07178
20
-1.96154
11
2.07497
21
-1.95941
0
LINE
8
BLACK
6
CONTINUOUS
10
2.07497
20
-1.95941
11
2.07874
21
-1.95866
0
LINE
8
BLACK
6
CONTINUOUS
10
2.07874
20
-1.95866
11
15.5827
21
-1.95866
0
LINE
8
BLACK
6
CONTINUOUS
10
15.5827
20
-1.95866
11
15.5864
21
-1.95941
0
LINE
8
BLACK
6
CONTINUOUS
10
15.9114
20
-1.95807
11
15.8169
21
-1.95807
0
LINE
8
BLACK
6
CONTINUOUS
10
15.8169
20
-1.95807
11
15.8169
21
-1.92894
0
LINE
8
BLACK
6
CONTINUOUS
10
15.8169
20
-1.92894
11
15.9114
21
-1.92894
0
LINE
8
BLACK
6
CONTINUOUS
10
15.9114
20
-1.92894
11
15.9114
21
-1.95807
0
LINE
8
BLACK
6
CONTINUOUS
10
1.9454
20
-1.86644
11
1.94668
21
-1.86729
0
LINE
8
BLACK
6
CONTINUOUS
10
1.94668
20
-1.86729
11
1.94753
21
-1.86857
0
LINE
8
BLACK
6
CONTINUOUS
10
1.94753
20
-1.86857
11
1.94783
21
-1.87008
0
LINE
8
BLACK
6
CONTINUOUS
10
1.94783
20
-1.87008
11
1.94783
21
-1.87992
0
LINE
8
BLACK
6
CONTINUOUS
10
1.94783
20
-1.87992
11
1.9872
21
-1.87992
0
LINE
8
BLACK
6
CONTINUOUS
10
1.9872
20
-1.87992
11
1.9872
21
-1.87008
0
LINE
8
BLACK
6
CONTINUOUS
10
1.9872
20
-1.87008
11
1.9875
21
-1.86857
0
LINE
8
BLACK
6
CONTINUOUS
10
1.9875
20
-1.86857
11
1.98836
21
-1.86729
0
LINE
8
BLACK
6
CONTINUOUS
10
1.98836
20
-1.86729
11
1.98964
21
-1.86644
0
LINE
8
BLACK
6
CONTINUOUS
10
1.98964
20
-1.86644
11
1.99114
21
-1.86614
0
LINE
8
BLACK
6
CONTINUOUS
10
1.99114
20
-1.86614
11
2.04429
21
-1.86614
0
LINE
8
BLACK
6
CONTINUOUS
10
2.04429
20
-1.86614
11
2.0458
21
-1.86644
0
LINE
8
BLACK
6
CONTINUOUS
10
2.0458
20
-1.86644
11
2.04708
21
-1.86729
0
LINE
8
BLACK
6
CONTINUOUS
10
2.04708
20
-1.86729
11
2.04793
21
-1.86857
0
LINE
8
BLACK
6
CONTINUOUS
10
2.04793
20
-1.86857
11
2.04823
21
-1.87008
0
LINE
8
BLACK
6
CONTINUOUS
10
2.04823
20
-1.87008
11
2.04823
21
-1.90157
0
LINE
8
BLACK
6
CONTINUOUS
10
2.04823
20
-1.90157
11
2.04793
21
-1.90308
0
LINE
8
BLACK
6
CONTINUOUS
10
2.04793
20
-1.90308
11
2.04708
21
-1.90436
0
LINE
8
BLACK
6
CONTINUOUS
10
2.04708
20
-1.90436
11
2.0458
21
-1.90521
0
LINE
8
BLACK
6
CONTINUOUS
10
2.0458
20
-1.90521
11
2.04429
21
-1.90551
0
LINE
8
BLACK
6
CONTINUOUS
10
2.04429
20
-1.90551
11
1.99114
21
-1.90551
0
LINE
8
BLACK
6
CONTINUOUS
10
1.99114
20
-1.90551
11
1.98964
21
-1.90521
0
LINE
8
BLACK
6
CONTINUOUS
10
1.98964
20
-1.90521
11
1.98836
21
-1.90436
0
LINE
8
BLACK
6
CONTINUOUS
10
1.98836
20
-1.90436
11
1.9875
21
-1.90308
0
LINE
8
BLACK
6
CONTINUOUS
10
1.9875
20
-1.90308
11
1.9872
21
-1.90157
0
LINE
8
BLACK
6
CONTINUOUS
10
1.9872
20
-1.90157
11
1.9872
21
-1.89173
0
LINE
8
BLACK
6
CONTINUOUS
10
1.9872
20
-1.89173
11
1.94783
21
-1.89173
0
LINE
8
BLACK
6
CONTINUOUS
10
1.94783
20
-1.89173
11
1.94783
21
-1.90157
0
LINE
8
BLACK
6
CONTINUOUS
10
1.94783
20
-1.90157
11
1.94753
21
-1.90308
0
LINE
8
BLACK
6
CONTINUOUS
10
1.94753
20
-1.90308
11
1.94668
21
-1.90436
0
LINE
8
BLACK
6
CONTINUOUS
10
1.94668
20
-1.90436
11
1.9454
21
-1.90521
0
LINE
8
BLACK
6
CONTINUOUS
10
1.9454
20
-1.90521
11
1.9439
21
-1.90551
0
LINE
8
BLACK
6
CONTINUOUS
10
1.9439
20
-1.90551
11
1.91732
21
-1.90551
0
LINE
8
BLACK
6
CONTINUOUS
10
1.91732
20
-1.90551
11
1.91732
21
-1.91464
0
LINE
8
BLACK
6
CONTINUOUS
10
1.91732
20
-1.91464
11
1.9183
21
-1.9151
0
LINE
8
BLACK
6
CONTINUOUS
10
1.9183
20
-1.9151
11
1.92048
21
-1.91784
0
LINE
8
BLACK
6
CONTINUOUS
10
1.92048
20
-1.91784
11
1.92126
21
-1.92126
0
LINE
8
BLACK
6
CONTINUOUS
10
1.92126
20
-1.92126
11
1.92048
21
-1.92468
0
LINE
8
BLACK
6
CONTINUOUS
10
1.92048
20
-1.92468
11
1.9183
21
-1.92742
0
LINE
8
BLACK
6
CONTINUOUS
10
1.9183
20
-1.92742
11
1.91514
21
-1.92894
0
LINE
8
BLACK
6
CONTINUOUS
10
1.91514
20
-1.92894
11
1.91163
21
-1.92894
0
LINE
8
BLACK
6
CONTINUOUS
10
1.91163
20
-1.92894
11
1.90848
21
-1.92742
0
LINE
8
BLACK
6
CONTINUOUS
10
1.90848
20
-1.92742
11
1.90629
21
-1.92468
0
LINE
8
BLACK
6
CONTINUOUS
10
1.90629
20
-1.92468
11
1.90551
21
-1.92126
0
LINE
8
BLACK
6
CONTINUOUS
10
1.90551
20
-1.92126
11
1.90629
21
-1.91784
0
LINE
8
BLACK
6
CONTINUOUS
10
1.90629
20
-1.91784
11
1.90848
21
-1.9151
0
LINE
8
BLACK
6
CONTINUOUS
10
1.90848
20
-1.9151
11
1.90945
21
-1.91464
0
LINE
8
BLACK
6
CONTINUOUS
10
1.90945
20
-1.91464
11
1.90945
21
-1.90551
0
LINE
8
BLACK
6
CONTINUOUS
10
1.90945
20
-1.90551
11
1.89075
21
-1.90551
0
LINE
8
BLACK
6
CONTINUOUS
10
1.89075
20
-1.90551
11
1.88924
21
-1.90521
0
LINE
8
BLACK
6
CONTINUOUS
10
1.88924
20
-1.90521
11
1.88796
21
-1.90436
0
LINE
8
BLACK
6
CONTINUOUS
10
1.88796
20
-1.90436
11
1.88711
21
-1.90308
0
LINE
8
BLACK
6
CONTINUOUS
10
1.88711
20
-1.90308
11
1.88681
21
-1.90157
0
LINE
8
BLACK
6
CONTINUOUS
10
1.88681
20
-1.90157
11
1.88681
21
-1.87008
0
LINE
8
BLACK
6
CONTINUOUS
10
1.88681
20
-1.87008
11
1.88711
21
-1.86857
0
LINE
8
BLACK
6
CONTINUOUS
10
1.88711
20
-1.86857
11
1.88796
21
-1.86729
0
LINE
8
BLACK
6
CONTINUOUS
10
1.88796
20
-1.86729
11
1.88924
21
-1.86644
0
LINE
8
BLACK
6
CONTINUOUS
10
1.88924
20
-1.86644
11
1.89075
21
-1.86614
0
LINE
8
BLACK
6
CONTINUOUS
10
1.89075
20
-1.86614
11
1.9439
21
-1.86614
0
LINE
8
BLACK
6
CONTINUOUS
10
1.9439
20
-1.86614
11
1.9454
21
-1.86644
0
CIRCLE
8
BLACK
10
1.87402
20
-1.94488
40
0.00393701
0
CIRCLE
8
BLACK
10
1.96063
20
-1.92126
40
0.00393701
0
CIRCLE
8
BLACK
10
1.87717
20
-1.9874
40
0.00393701
0
CIRCLE
8
BLACK
10
15.647
20
-1.9935
40
0.00393701
0
CIRCLE
8
BLACK
10
15.7795
20
-1.99213
40
0.00393701
0
CIRCLE
8
BLACK
10
1.95276
20
-2.01575
40
0.00393701
0
CIRCLE
8
BLACK
10
1.91339
20
-1.92126
40
0.00393701
0
CIRCLE
8
BLACK
10
2.07874
20
-1.9685
40
0.00393701
  0
ENDSEC
  0
EOF
