  0
SECTION
  2
HEADER
  9
$ANGBASE
  50
0.0
  9
$ANGDIR
  70
1
  9
$MEASUREMENT
  70
0
  0
ENDSEC
  0
SECTION
  2
TABLES
  0
TABLE
  2
LTYPE
  70
4
  0
LTYPE
  5
40F
  2
CONTINUOUS
  70
0
  3
Solid line
  72
65
  73
0
  40
0.0
  0
LTYPE
  5
410
  2
DASHDOT
 70
0
  3
Dash Dot ____ _ ____ _
 72
65
 73
4
 40
2.0
 49
1.25
 49
-0.25
 49
0.25
 49
-0.25
  0
LTYPE
  5
411
  2
DASHED
 70
0
  3
Dashed __ __ __ __ __
 72
65
 73
2
 40
0.75
 49
0.5
 49
-0.25
  0
LTYPE
  5
43B
  2
DOTTED
 70
0
  3
Dotted .  .  .  .
 72
65
 73
2
 40
0.2
 49
0.0
 49
-0.2
  0
ENDTAB
  0
TABLE
  2
STYLE
  70
4
  0
STYLE
  2
KICAD
  70
0
  40
0
  41
1
  42
1
  50
0
  71
0
  3
isocp.shx
  0
STYLE
  2
KICADB
  70
0
  40
0
  41
1
  42
1
  50
0
  71
0
  3
isocp.shx
  0
STYLE
  2
KICADI
  70
0
  40
0
  41
1
  42
1
  50
15
  71
0
  3
isocp.shx
  0
STYLE
  2
KICADBI
  70
0
  40
0
  41
1
  42
1
  50
15
  71
0
  3
isocp.shx
  0
ENDTAB
  0
TABLE
  2
LAYER
  70
1
  0
LAYER
  2
BLACK
  70
0
  62
7
  6
CONTINUOUS
  0
ENDTAB
  0
ENDSEC
  0
SECTION
  2
ENTITIES
0
LINE
8
BLACK
6
CONTINUOUS
10
1.9454
20
-2.0318
11
1.94668
21
-2.03265
0
LINE
8
BLACK
6
CONTINUOUS
10
1.94668
20
-2.03265
11
1.94753
21
-2.03393
0
LINE
8
BLACK
6
CONTINUOUS
10
1.94753
20
-2.03393
11
1.94783
21
-2.03543
0
LINE
8
BLACK
6
CONTINUOUS
10
1.94783
20
-2.03543
11
1.94783
21
-2.06693
0
LINE
8
BLACK
6
CONTINUOUS
10
1.94783
20
-2.06693
11
1.94753
21
-2.06844
0
LINE
8
BLACK
6
CONTINUOUS
10
1.94753
20
-2.06844
11
1.94668
21
-2.06971
0
LINE
8
BLACK
6
CONTINUOUS
10
1.94668
20
-2.06971
11
1.9454
21
-2.07057
0
LINE
8
BLACK
6
CONTINUOUS
10
1.9454
20
-2.07057
11
1.9439
21
-2.07087
0
LINE
8
BLACK
6
CONTINUOUS
10
1.9439
20
-2.07087
11
1.89075
21
-2.07087
0
LINE
8
BLACK
6
CONTINUOUS
10
1.89075
20
-2.07087
11
1.88924
21
-2.07057
0
LINE
8
BLACK
6
CONTINUOUS
10
1.88924
20
-2.07057
11
1.88796
21
-2.06971
0
LINE
8
BLACK
6
CONTINUOUS
10
1.88796
20
-2.06971
11
1.88711
21
-2.06844
0
LINE
8
BLACK
6
CONTINUOUS
10
1.88711
20
-2.06844
11
1.88681
21
-2.06693
0
LINE
8
BLACK
6
CONTINUOUS
10
1.88681
20
-2.06693
11
1.88681
21
-2.03543
0
LINE
8
BLACK
6
CONTINUOUS
10
1.88681
20
-2.03543
11
1.88711
21
-2.03393
0
LINE
8
BLACK
6
CONTINUOUS
10
1.88711
20
-2.03393
11
1.88796
21
-2.03265
0
LINE
8
BLACK
6
CONTINUOUS
10
1.88796
20
-2.03265
11
1.88924
21
-2.0318
0
LINE
8
BLACK
6
CONTINUOUS
10
1.88924
20
-2.0318
11
1.89075
21
-2.0315
0
LINE
8
BLACK
6
CONTINUOUS
10
1.89075
20
-2.0315
11
1.9439
21
-2.0315
0
LINE
8
BLACK
6
CONTINUOUS
10
1.9439
20
-2.0315
11
1.9454
21
-2.0318
0
LINE
8
BLACK
6
CONTINUOUS
10
2.0458
20
-2.0318
11
2.04708
21
-2.03265
0
LINE
8
BLACK
6
CONTINUOUS
10
2.04708
20
-2.03265
11
2.04793
21
-2.03393
0
LINE
8
BLACK
6
CONTINUOUS
10
2.04793
20
-2.03393
11
2.04823
21
-2.03543
0
LINE
8
BLACK
6
CONTINUOUS
10
2.04823
20
-2.03543
11
2.04823
21
-2.06693
0
LINE
8
BLACK
6
CONTINUOUS
10
2.04823
20
-2.06693
11
2.04793
21
-2.06844
0
LINE
8
BLACK
6
CONTINUOUS
10
2.04793
20
-2.06844
11
2.04708
21
-2.06971
0
LINE
8
BLACK
6
CONTINUOUS
10
2.04708
20
-2.06971
11
2.0458
21
-2.07057
0
LINE
8
BLACK
6
CONTINUOUS
10
2.0458
20
-2.07057
11
2.04429
21
-2.07087
0
LINE
8
BLACK
6
CONTINUOUS
10
2.04429
20
-2.07087
11
1.99114
21
-2.07087
0
LINE
8
BLACK
6
CONTINUOUS
10
1.99114
20
-2.07087
11
1.98964
21
-2.07057
0
LINE
8
BLACK
6
CONTINUOUS
10
1.98964
20
-2.07057
11
1.98836
21
-2.06971
0
LINE
8
BLACK
6
CONTINUOUS
10
1.98836
20
-2.06971
11
1.9875
21
-2.06844
0
LINE
8
BLACK
6
CONTINUOUS
10
1.9875
20
-2.06844
11
1.9872
21
-2.06693
0
LINE
8
BLACK
6
CONTINUOUS
10
1.9872
20
-2.06693
11
1.9872
21
-2.03543
0
LINE
8
BLACK
6
CONTINUOUS
10
1.9872
20
-2.03543
11
1.9875
21
-2.03393
0
LINE
8
BLACK
6
CONTINUOUS
10
1.9875
20
-2.03393
11
1.98836
21
-2.03265
0
LINE
8
BLACK
6
CONTINUOUS
10
1.98836
20
-2.03265
11
1.98964
21
-2.0318
0
LINE
8
BLACK
6
CONTINUOUS
10
1.98964
20
-2.0318
11
1.99114
21
-2.0315
0
LINE
8
BLACK
6
CONTINUOUS
10
1.99114
20
-2.0315
11
2.04429
21
-2.0315
0
LINE
8
BLACK
6
CONTINUOUS
10
2.04429
20
-2.0315
11
2.0458
21
-2.0318
0
LINE
8
BLACK
6
CONTINUOUS
10
15.7579
20
-2.00807
11
15.6634
21
-2.00807
0
LINE
8
BLACK
6
CONTINUOUS
10
15.6634
20
-2.00807
11
15.6634
21
-1.97894
0
LINE
8
BLACK
6
CONTINUOUS
10
15.6634
20
-1.97894
11
15.7579
21
-1.97894
0
LINE
8
BLACK
6
CONTINUOUS
10
15.7579
20
-1.97894
11
15.7579
21
-2.00807
0
LINE
8
BLACK
6
CONTINUOUS
10
15.9114
20
-2.00807
11
15.8169
21
-2.00807
0
LINE
8
BLACK
6
CONTINUOUS
10
15.8169
20
-2.00807
11
15.8169
21
-1.97894
0
LINE
8
BLACK
6
CONTINUOUS
10
15.8169
20
-1.97894
11
15.9114
21
-1.97894
0
LINE
8
BLACK
6
CONTINUOUS
10
15.9114
20
-1.97894
11
15.9114
21
-2.00807
0
LINE
8
BLACK
6
CONTINUOUS
10
15.7579
20
-1.95807
11
15.6634
21
-1.95807
0
LINE
8
BLACK
6
CONTINUOUS
10
15.6634
20
-1.95807
11
15.6634
21
-1.92894
0
LINE
8
BLACK
6
CONTINUOUS
10
15.6634
20
-1.92894
11
15.7579
21
-1.92894
0
LINE
8
BLACK
6
CONTINUOUS
10
15.7579
20
-1.92894
11
15.7579
21
-1.95807
0
LINE
8
BLACK
6
CONTINUOUS
10
15.9114
20
-1.95807
11
15.8169
21
-1.95807
0
LINE
8
BLACK
6
CONTINUOUS
10
15.8169
20
-1.95807
11
15.8169
21
-1.92894
0
LINE
8
BLACK
6
CONTINUOUS
10
15.8169
20
-1.92894
11
15.9114
21
-1.92894
0
LINE
8
BLACK
6
CONTINUOUS
10
15.9114
20
-1.92894
11
15.9114
21
-1.95807
0
LINE
8
BLACK
6
CONTINUOUS
10
1.9454
20
-1.86644
11
1.94668
21
-1.86729
0
LINE
8
BLACK
6
CONTINUOUS
10
1.94668
20
-1.86729
11
1.94753
21
-1.86857
0
LINE
8
BLACK
6
CONTINUOUS
10
1.94753
20
-1.86857
11
1.94783
21
-1.87008
0
LINE
8
BLACK
6
CONTINUOUS
10
1.94783
20
-1.87008
11
1.94783
21
-1.90157
0
LINE
8
BLACK
6
CONTINUOUS
10
1.94783
20
-1.90157
11
1.94753
21
-1.90308
0
LINE
8
BLACK
6
CONTINUOUS
10
1.94753
20
-1.90308
11
1.94668
21
-1.90436
0
LINE
8
BLACK
6
CONTINUOUS
10
1.94668
20
-1.90436
11
1.9454
21
-1.90521
0
LINE
8
BLACK
6
CONTINUOUS
10
1.9454
20
-1.90521
11
1.9439
21
-1.90551
0
LINE
8
BLACK
6
CONTINUOUS
10
1.9439
20
-1.90551
11
1.89075
21
-1.90551
0
LINE
8
BLACK
6
CONTINUOUS
10
1.89075
20
-1.90551
11
1.88924
21
-1.90521
0
LINE
8
BLACK
6
CONTINUOUS
10
1.88924
20
-1.90521
11
1.88796
21
-1.90436
0
LINE
8
BLACK
6
CONTINUOUS
10
1.88796
20
-1.90436
11
1.88711
21
-1.90308
0
LINE
8
BLACK
6
CONTINUOUS
10
1.88711
20
-1.90308
11
1.88681
21
-1.90157
0
LINE
8
BLACK
6
CONTINUOUS
10
1.88681
20
-1.90157
11
1.88681
21
-1.87008
0
LINE
8
BLACK
6
CONTINUOUS
10
1.88681
20
-1.87008
11
1.88711
21
-1.86857
0
LINE
8
BLACK
6
CONTINUOUS
10
1.88711
20
-1.86857
11
1.88796
21
-1.86729
0
LINE
8
BLACK
6
CONTINUOUS
10
1.88796
20
-1.86729
11
1.88924
21
-1.86644
0
LINE
8
BLACK
6
CONTINUOUS
10
1.88924
20
-1.86644
11
1.89075
21
-1.86614
0
LINE
8
BLACK
6
CONTINUOUS
10
1.89075
20
-1.86614
11
1.9439
21
-1.86614
0
LINE
8
BLACK
6
CONTINUOUS
10
1.9439
20
-1.86614
11
1.9454
21
-1.86644
0
LINE
8
BLACK
6
CONTINUOUS
10
2.0458
20
-1.86644
11
2.04708
21
-1.86729
0
LINE
8
BLACK
6
CONTINUOUS
10
2.04708
20
-1.86729
11
2.04793
21
-1.86857
0
LINE
8
BLACK
6
CONTINUOUS
10
2.04793
20
-1.86857
11
2.04823
21
-1.87008
0
LINE
8
BLACK
6
CONTINUOUS
10
2.04823
20
-1.87008
11
2.04823
21
-1.90157
0
LINE
8
BLACK
6
CONTINUOUS
10
2.04823
20
-1.90157
11
2.04793
21
-1.90308
0
LINE
8
BLACK
6
CONTINUOUS
10
2.04793
20
-1.90308
11
2.04708
21
-1.90436
0
LINE
8
BLACK
6
CONTINUOUS
10
2.04708
20
-1.90436
11
2.0458
21
-1.90521
0
LINE
8
BLACK
6
CONTINUOUS
10
2.0458
20
-1.90521
11
2.04429
21
-1.90551
0
LINE
8
BLACK
6
CONTINUOUS
10
2.04429
20
-1.90551
11
1.99114
21
-1.90551
0
LINE
8
BLACK
6
CONTINUOUS
10
1.99114
20
-1.90551
11
1.98964
21
-1.90521
0
LINE
8
BLACK
6
CONTINUOUS
10
1.98964
20
-1.90521
11
1.98836
21
-1.90436
0
LINE
8
BLACK
6
CONTINUOUS
10
1.98836
20
-1.90436
11
1.9875
21
-1.90308
0
LINE
8
BLACK
6
CONTINUOUS
10
1.9875
20
-1.90308
11
1.9872
21
-1.90157
0
LINE
8
BLACK
6
CONTINUOUS
10
1.9872
20
-1.90157
11
1.9872
21
-1.87008
0
LINE
8
BLACK
6
CONTINUOUS
10
1.9872
20
-1.87008
11
1.9875
21
-1.86857
0
LINE
8
BLACK
6
CONTINUOUS
10
1.9875
20
-1.86857
11
1.98836
21
-1.86729
0
LINE
8
BLACK
6
CONTINUOUS
10
1.98836
20
-1.86729
11
1.98964
21
-1.86644
0
LINE
8
BLACK
6
CONTINUOUS
10
1.98964
20
-1.86644
11
1.99114
21
-1.86614
0
LINE
8
BLACK
6
CONTINUOUS
10
1.99114
20
-1.86614
11
2.04429
21
-1.86614
0
LINE
8
BLACK
6
CONTINUOUS
10
2.04429
20
-1.86614
11
2.0458
21
-1.86644
  0
ENDSEC
  0
EOF
