  0
SECTION
  2
HEADER
  9
$ANGBASE
  50
0.0
  9
$ANGDIR
  70
1
  9
$MEASUREMENT
  70
0
  0
ENDSEC
  0
SECTION
  2
TABLES
  0
TABLE
  2
LTYPE
  70
4
  0
LTYPE
  5
40F
  2
CONTINUOUS
  70
0
  3
Solid line
  72
65
  73
0
  40
0.0
  0
LTYPE
  5
410
  2
DASHDOT
 70
0
  3
Dash Dot ____ _ ____ _
 72
65
 73
4
 40
2.0
 49
1.25
 49
-0.25
 49
0.25
 49
-0.25
  0
LTYPE
  5
411
  2
DASHED
 70
0
  3
Dashed __ __ __ __ __
 72
65
 73
2
 40
0.75
 49
0.5
 49
-0.25
  0
LTYPE
  5
43B
  2
DOTTED
 70
0
  3
Dotted .  .  .  .
 72
65
 73
2
 40
0.2
 49
0.0
 49
-0.2
  0
ENDTAB
  0
TABLE
  2
STYLE
  70
4
  0
STYLE
  2
KICAD
  70
0
  40
0
  41
1
  42
1
  50
0
  71
0
  3
isocp.shx
  0
STYLE
  2
KICADB
  70
0
  40
0
  41
1
  42
1
  50
0
  71
0
  3
isocp.shx
  0
STYLE
  2
KICADI
  70
0
  40
0
  41
1
  42
1
  50
15
  71
0
  3
isocp.shx
  0
STYLE
  2
KICADBI
  70
0
  40
0
  41
1
  42
1
  50
15
  71
0
  3
isocp.shx
  0
ENDTAB
  0
TABLE
  2
LAYER
  70
1
  0
LAYER
  2
BLACK
  70
0
  62
7
  6
CONTINUOUS
  0
ENDTAB
  0
ENDSEC
  0
SECTION
  2
ENTITIES
0
LINE
8
BLACK
6
CONTINUOUS
10
1.99091
20
-1.79098
11
2.00707
21
-1.79377
0
LINE
8
BLACK
6
CONTINUOUS
10
2.00707
20
-1.79377
11
2.02291
21
-1.79804
0
LINE
8
BLACK
6
CONTINUOUS
10
2.02291
20
-1.79804
11
2.03829
21
-1.80374
0
LINE
8
BLACK
6
CONTINUOUS
10
2.03829
20
-1.80374
11
2.05309
21
-1.81082
0
LINE
8
BLACK
6
CONTINUOUS
10
2.05309
20
-1.81082
11
2.06717
21
-1.81923
0
LINE
8
BLACK
6
CONTINUOUS
10
2.06717
20
-1.81923
11
2.08042
21
-1.82889
0
LINE
8
BLACK
6
CONTINUOUS
10
2.08042
20
-1.82889
11
2.09274
21
-1.83972
0
LINE
8
BLACK
6
CONTINUOUS
10
2.09274
20
-1.83972
11
2.10401
21
-1.85164
0
LINE
8
BLACK
6
CONTINUOUS
10
2.10401
20
-1.85164
11
2.11414
21
-1.86454
0
LINE
8
BLACK
6
CONTINUOUS
10
2.11414
20
-1.86454
11
2.12305
21
-1.87831
0
LINE
8
BLACK
6
CONTINUOUS
10
2.12305
20
-1.87831
11
2.13066
21
-1.89284
0
LINE
8
BLACK
6
CONTINUOUS
10
2.13066
20
-1.89284
11
2.13066
21
-1.89284
0
LINE
8
BLACK
6
CONTINUOUS
10
2.13066
20
-1.89284
11
2.1307
21
-1.89311
0
LINE
8
BLACK
6
CONTINUOUS
10
2.1307
20
-1.89311
11
2.13083
21
-1.89329
0
LINE
8
BLACK
6
CONTINUOUS
10
2.13083
20
-1.89329
11
2.13083
21
-1.89384
0
LINE
8
BLACK
6
CONTINUOUS
10
2.13083
20
-1.89384
11
2.13101
21
-1.89485
0
LINE
8
BLACK
6
CONTINUOUS
10
2.13101
20
-1.89485
11
2.13083
21
-1.89533
0
LINE
8
BLACK
6
CONTINUOUS
10
2.13083
20
-1.89533
11
2.13083
21
-1.89572
0
LINE
8
BLACK
6
CONTINUOUS
10
2.13083
20
-1.89572
11
2.13055
21
-1.89611
0
LINE
8
BLACK
6
CONTINUOUS
10
2.13055
20
-1.89611
11
2.13031
21
-1.89676
0
LINE
8
BLACK
6
CONTINUOUS
10
2.13031
20
-1.89676
11
2.12971
21
-1.89727
0
LINE
8
BLACK
6
CONTINUOUS
10
2.12971
20
-1.89727
11
2.1294
21
-1.89769
0
LINE
8
BLACK
6
CONTINUOUS
10
2.1294
20
-1.89769
11
2.12909
21
-1.89779
0
LINE
8
BLACK
6
CONTINUOUS
10
2.12909
20
-1.89779
11
2.12875
21
-1.89807
0
LINE
8
BLACK
6
CONTINUOUS
10
2.12875
20
-1.89807
11
2.1276
21
-1.89828
0
LINE
8
BLACK
6
CONTINUOUS
10
2.1276
20
-1.89828
11
2.12709
21
-1.89844
0
LINE
8
BLACK
6
CONTINUOUS
10
2.12709
20
-1.89844
11
2.06679
21
-1.89844
0
LINE
8
BLACK
6
CONTINUOUS
10
2.06679
20
-1.89844
11
2.06679
21
-1.91557
0
LINE
8
BLACK
6
CONTINUOUS
10
2.06679
20
-1.91557
11
2.14185
21
-1.91557
0
LINE
8
BLACK
6
CONTINUOUS
10
2.14185
20
-1.91557
11
15.9685
21
-1.91557
0
LINE
8
BLACK
6
CONTINUOUS
10
15.9685
20
-1.91557
11
15.9691
21
-1.91576
0
LINE
8
BLACK
6
CONTINUOUS
10
15.9691
20
-1.91576
11
15.9697
21
-1.91576
0
LINE
8
BLACK
6
CONTINUOUS
10
15.9697
20
-1.91576
11
15.9702
21
-1.91613
0
LINE
8
BLACK
6
CONTINUOUS
10
15.9702
20
-1.91613
11
15.9708
21
-1.91632
0
LINE
8
BLACK
6
CONTINUOUS
10
15.9708
20
-1.91632
11
15.9712
21
-1.91682
0
LINE
8
BLACK
6
CONTINUOUS
10
15.9712
20
-1.91682
11
15.9717
21
-1.91719
0
LINE
8
BLACK
6
CONTINUOUS
10
15.9717
20
-1.91719
11
15.9719
21
-1.91778
0
LINE
8
BLACK
6
CONTINUOUS
10
15.9719
20
-1.91778
11
15.9722
21
-1.91829
0
LINE
8
BLACK
6
CONTINUOUS
10
15.9722
20
-1.91829
11
15.9722
21
-1.91891
0
LINE
8
BLACK
6
CONTINUOUS
10
15.9722
20
-1.91891
11
15.9724
21
-1.9195
0
LINE
8
BLACK
6
CONTINUOUS
10
15.9724
20
-1.9195
11
15.9724
21
-2.0175
0
LINE
8
BLACK
6
CONTINUOUS
10
15.9724
20
-2.0175
11
15.9722
21
-2.0181
0
LINE
8
BLACK
6
CONTINUOUS
10
15.9722
20
-2.0181
11
15.9722
21
-2.01872
0
LINE
8
BLACK
6
CONTINUOUS
10
15.9722
20
-2.01872
11
15.9719
21
-2.01923
0
LINE
8
BLACK
6
CONTINUOUS
10
15.9719
20
-2.01923
11
15.9717
21
-2.01982
0
LINE
8
BLACK
6
CONTINUOUS
10
15.9717
20
-2.01982
11
15.9712
21
-2.02018
0
LINE
8
BLACK
6
CONTINUOUS
10
15.9712
20
-2.02018
11
15.9708
21
-2.02069
0
LINE
8
BLACK
6
CONTINUOUS
10
15.9708
20
-2.02069
11
15.9702
21
-2.02088
0
LINE
8
BLACK
6
CONTINUOUS
10
15.9702
20
-2.02088
11
15.9697
21
-2.02125
0
LINE
8
BLACK
6
CONTINUOUS
10
15.9697
20
-2.02125
11
15.9691
21
-2.02125
0
LINE
8
BLACK
6
CONTINUOUS
10
15.9691
20
-2.02125
11
15.9685
21
-2.02144
0
LINE
8
BLACK
6
CONTINUOUS
10
15.9685
20
-2.02144
11
2.14185
21
-2.02144
0
LINE
8
BLACK
6
CONTINUOUS
10
2.14185
20
-2.02144
11
2.06679
21
-2.02144
0
LINE
8
BLACK
6
CONTINUOUS
10
2.06679
20
-2.02144
11
2.06679
21
-2.03857
0
LINE
8
BLACK
6
CONTINUOUS
10
2.06679
20
-2.03857
11
2.12709
21
-2.03857
0
LINE
8
BLACK
6
CONTINUOUS
10
2.12709
20
-2.03857
11
2.1276
21
-2.03873
0
LINE
8
BLACK
6
CONTINUOUS
10
2.1276
20
-2.03873
11
2.12875
21
-2.03894
0
LINE
8
BLACK
6
CONTINUOUS
10
2.12875
20
-2.03894
11
2.12909
21
-2.03922
0
LINE
8
BLACK
6
CONTINUOUS
10
2.12909
20
-2.03922
11
2.1294
21
-2.03932
0
LINE
8
BLACK
6
CONTINUOUS
10
2.1294
20
-2.03932
11
2.12971
21
-2.03974
0
LINE
8
BLACK
6
CONTINUOUS
10
2.12971
20
-2.03974
11
2.13031
21
-2.04025
0
LINE
8
BLACK
6
CONTINUOUS
10
2.13031
20
-2.04025
11
2.13055
21
-2.0409
0
LINE
8
BLACK
6
CONTINUOUS
10
2.13055
20
-2.0409
11
2.13083
21
-2.04129
0
LINE
8
BLACK
6
CONTINUOUS
10
2.13083
20
-2.04129
11
2.13083
21
-2.04167
0
LINE
8
BLACK
6
CONTINUOUS
10
2.13083
20
-2.04167
11
2.13101
21
-2.04216
0
LINE
8
BLACK
6
CONTINUOUS
10
2.13101
20
-2.04216
11
2.13083
21
-2.04317
0
LINE
8
BLACK
6
CONTINUOUS
10
2.13083
20
-2.04317
11
2.13083
21
-2.04372
0
LINE
8
BLACK
6
CONTINUOUS
10
2.13083
20
-2.04372
11
2.1307
21
-2.0439
0
LINE
8
BLACK
6
CONTINUOUS
10
2.1307
20
-2.0439
11
2.13066
21
-2.04417
0
LINE
8
BLACK
6
CONTINUOUS
10
2.13066
20
-2.04417
11
2.13066
21
-2.04417
0
LINE
8
BLACK
6
CONTINUOUS
10
2.13066
20
-2.04417
11
2.12305
21
-2.0587
0
LINE
8
BLACK
6
CONTINUOUS
10
2.12305
20
-2.0587
11
2.11414
21
-2.07247
0
LINE
8
BLACK
6
CONTINUOUS
10
2.11414
20
-2.07247
11
2.10401
21
-2.08537
0
LINE
8
BLACK
6
CONTINUOUS
10
2.10401
20
-2.08537
11
2.09274
21
-2.09729
0
LINE
8
BLACK
6
CONTINUOUS
10
2.09274
20
-2.09729
11
2.08042
21
-2.10812
0
LINE
8
BLACK
6
CONTINUOUS
10
2.08042
20
-2.10812
11
2.06717
21
-2.11778
0
LINE
8
BLACK
6
CONTINUOUS
10
2.06717
20
-2.11778
11
2.05309
21
-2.12619
0
LINE
8
BLACK
6
CONTINUOUS
10
2.05309
20
-2.12619
11
2.03829
21
-2.13327
0
LINE
8
BLACK
6
CONTINUOUS
10
2.03829
20
-2.13327
11
2.02291
21
-2.13897
0
LINE
8
BLACK
6
CONTINUOUS
10
2.02291
20
-2.13897
11
2.00707
21
-2.14323
0
LINE
8
BLACK
6
CONTINUOUS
10
2.00707
20
-2.14323
11
1.99091
21
-2.14603
0
LINE
8
BLACK
6
CONTINUOUS
10
1.99091
20
-2.14603
11
1.97456
21
-2.14734
0
LINE
8
BLACK
6
CONTINUOUS
10
1.97456
20
-2.14734
11
1.95816
21
-2.14714
0
LINE
8
BLACK
6
CONTINUOUS
10
1.95816
20
-2.14714
11
1.94185
21
-2.14544
0
LINE
8
BLACK
6
CONTINUOUS
10
1.94185
20
-2.14544
11
1.92576
21
-2.14226
0
LINE
8
BLACK
6
CONTINUOUS
10
1.92576
20
-2.14226
11
1.91003
21
-2.13762
0
LINE
8
BLACK
6
CONTINUOUS
10
1.91003
20
-2.13762
11
1.89479
21
-2.13155
0
LINE
8
BLACK
6
CONTINUOUS
10
1.89479
20
-2.13155
11
1.88017
21
-2.12412
0
LINE
8
BLACK
6
CONTINUOUS
10
1.88017
20
-2.12412
11
1.86629
21
-2.11537
0
LINE
8
BLACK
6
CONTINUOUS
10
1.86629
20
-2.11537
11
1.85327
21
-2.1054
0
LINE
8
BLACK
6
CONTINUOUS
10
1.85327
20
-2.1054
11
1.84122
21
-2.09427
0
LINE
8
BLACK
6
CONTINUOUS
10
1.84122
20
-2.09427
11
1.83024
21
-2.08209
0
LINE
8
BLACK
6
CONTINUOUS
10
1.83024
20
-2.08209
11
1.82042
21
-2.06895
0
LINE
8
BLACK
6
CONTINUOUS
10
1.82042
20
-2.06895
11
1.81184
21
-2.05497
0
LINE
8
BLACK
6
CONTINUOUS
10
1.81184
20
-2.05497
11
1.80458
21
-2.04026
0
LINE
8
BLACK
6
CONTINUOUS
10
1.80458
20
-2.04026
11
1.7987
21
-2.02495
0
LINE
8
BLACK
6
CONTINUOUS
10
1.7987
20
-2.02495
11
1.79425
21
-2.00916
0
LINE
8
BLACK
6
CONTINUOUS
10
1.79425
20
-2.00916
11
1.79126
21
-1.99304
0
LINE
8
BLACK
6
CONTINUOUS
10
1.79126
20
-1.99304
11
1.78975
21
-1.9767
0
LINE
8
BLACK
6
CONTINUOUS
10
1.78975
20
-1.9767
11
1.78975
21
-1.9603
0
LINE
8
BLACK
6
CONTINUOUS
10
1.78975
20
-1.9603
11
1.79126
21
-1.94397
0
LINE
8
BLACK
6
CONTINUOUS
10
1.79126
20
-1.94397
11
1.79425
21
-1.92784
0
LINE
8
BLACK
6
CONTINUOUS
10
1.79425
20
-1.92784
11
1.7987
21
-1.91206
0
LINE
8
BLACK
6
CONTINUOUS
10
1.7987
20
-1.91206
11
1.80458
21
-1.89675
0
LINE
8
BLACK
6
CONTINUOUS
10
1.80458
20
-1.89675
11
1.81184
21
-1.88204
0
LINE
8
BLACK
6
CONTINUOUS
10
1.81184
20
-1.88204
11
1.82042
21
-1.86806
0
LINE
8
BLACK
6
CONTINUOUS
10
1.82042
20
-1.86806
11
1.83024
21
-1.85492
0
LINE
8
BLACK
6
CONTINUOUS
10
1.83024
20
-1.85492
11
1.84122
21
-1.84274
0
LINE
8
BLACK
6
CONTINUOUS
10
1.84122
20
-1.84274
11
1.85327
21
-1.83161
0
LINE
8
BLACK
6
CONTINUOUS
10
1.85327
20
-1.83161
11
1.86629
21
-1.82163
0
LINE
8
BLACK
6
CONTINUOUS
10
1.86629
20
-1.82163
11
1.88017
21
-1.81289
0
LINE
8
BLACK
6
CONTINUOUS
10
1.88017
20
-1.81289
11
1.89479
21
-1.80546
0
LINE
8
BLACK
6
CONTINUOUS
10
1.89479
20
-1.80546
11
1.91003
21
-1.79939
0
LINE
8
BLACK
6
CONTINUOUS
10
1.91003
20
-1.79939
11
1.92576
21
-1.79475
0
LINE
8
BLACK
6
CONTINUOUS
10
1.92576
20
-1.79475
11
1.94185
21
-1.79156
0
LINE
8
BLACK
6
CONTINUOUS
10
1.94185
20
-1.79156
11
1.95816
21
-1.78987
0
LINE
8
BLACK
6
CONTINUOUS
10
1.95816
20
-1.78987
11
1.97456
21
-1.78967
0
LINE
8
BLACK
6
CONTINUOUS
10
1.97456
20
-1.78967
11
1.99091
21
-1.79098
0
LINE
8
BLACK
6
CONTINUOUS
10
1.95957
20
-1.79748
11
1.9434
21
-1.7991
0
LINE
8
BLACK
6
CONTINUOUS
10
1.9434
20
-1.7991
11
1.92746
21
-1.80224
0
LINE
8
BLACK
6
CONTINUOUS
10
1.92746
20
-1.80224
11
1.91189
21
-1.80688
0
LINE
8
BLACK
6
CONTINUOUS
10
1.91189
20
-1.80688
11
1.89682
21
-1.81297
0
LINE
8
BLACK
6
CONTINUOUS
10
1.89682
20
-1.81297
11
1.88241
21
-1.82046
0
LINE
8
BLACK
6
CONTINUOUS
10
1.88241
20
-1.82046
11
1.86876
21
-1.82929
0
LINE
8
BLACK
6
CONTINUOUS
10
1.86876
20
-1.82929
11
1.85602
21
-1.83937
0
LINE
8
BLACK
6
CONTINUOUS
10
1.85602
20
-1.83937
11
1.84429
21
-1.85061
0
LINE
8
BLACK
6
CONTINUOUS
10
1.84429
20
-1.85061
11
1.83367
21
-1.86291
0
LINE
8
BLACK
6
CONTINUOUS
10
1.83367
20
-1.86291
11
1.82427
21
-1.87616
0
LINE
8
BLACK
6
CONTINUOUS
10
1.82427
20
-1.87616
11
1.81617
21
-1.89025
0
LINE
8
BLACK
6
CONTINUOUS
10
1.81617
20
-1.89025
11
1.80944
21
-1.90504
0
LINE
8
BLACK
6
CONTINUOUS
10
1.80944
20
-1.90504
11
1.80414
21
-1.9204
0
LINE
8
BLACK
6
CONTINUOUS
10
1.80414
20
-1.9204
11
1.80032
21
-1.93619
0
LINE
8
BLACK
6
CONTINUOUS
10
1.80032
20
-1.93619
11
1.79802
21
-1.95227
0
LINE
8
BLACK
6
CONTINUOUS
10
1.79802
20
-1.95227
11
1.79725
21
-1.9685
0
LINE
8
BLACK
6
CONTINUOUS
10
1.79725
20
-1.9685
11
1.79802
21
-1.98473
0
LINE
8
BLACK
6
CONTINUOUS
10
1.79802
20
-1.98473
11
1.80032
21
-2.00082
0
LINE
8
BLACK
6
CONTINUOUS
10
1.80032
20
-2.00082
11
1.80414
21
-2.01661
0
LINE
8
BLACK
6
CONTINUOUS
10
1.80414
20
-2.01661
11
1.80944
21
-2.03197
0
LINE
8
BLACK
6
CONTINUOUS
10
1.80944
20
-2.03197
11
1.81617
21
-2.04676
0
LINE
8
BLACK
6
CONTINUOUS
10
1.81617
20
-2.04676
11
1.82427
21
-2.06084
0
LINE
8
BLACK
6
CONTINUOUS
10
1.82427
20
-2.06084
11
1.83367
21
-2.0741
0
LINE
8
BLACK
6
CONTINUOUS
10
1.83367
20
-2.0741
11
1.84429
21
-2.0864
0
LINE
8
BLACK
6
CONTINUOUS
10
1.84429
20
-2.0864
11
1.85602
21
-2.09764
0
LINE
8
BLACK
6
CONTINUOUS
10
1.85602
20
-2.09764
11
1.86876
21
-2.10772
0
LINE
8
BLACK
6
CONTINUOUS
10
1.86876
20
-2.10772
11
1.88241
21
-2.11655
0
LINE
8
BLACK
6
CONTINUOUS
10
1.88241
20
-2.11655
11
1.89682
21
-2.12404
0
LINE
8
BLACK
6
CONTINUOUS
10
1.89682
20
-2.12404
11
1.91189
21
-2.13013
0
LINE
8
BLACK
6
CONTINUOUS
10
1.91189
20
-2.13013
11
1.92746
21
-2.13477
0
LINE
8
BLACK
6
CONTINUOUS
10
1.92746
20
-2.13477
11
1.9434
21
-2.13791
0
LINE
8
BLACK
6
CONTINUOUS
10
1.9434
20
-2.13791
11
1.95957
21
-2.13953
0
LINE
8
BLACK
6
CONTINUOUS
10
1.95957
20
-2.13953
11
1.97582
21
-2.1396
0
LINE
8
BLACK
6
CONTINUOUS
10
1.97582
20
-2.1396
11
1.992
21
-2.13814
0
LINE
8
BLACK
6
CONTINUOUS
10
1.992
20
-2.13814
11
2.00797
21
-2.13515
0
LINE
8
BLACK
6
CONTINUOUS
10
2.00797
20
-2.13515
11
2.02358
21
-2.13066
0
LINE
8
BLACK
6
CONTINUOUS
10
2.02358
20
-2.13066
11
2.0387
21
-2.12471
0
LINE
8
BLACK
6
CONTINUOUS
10
2.0387
20
-2.12471
11
2.05319
21
-2.11736
0
LINE
8
BLACK
6
CONTINUOUS
10
2.05319
20
-2.11736
11
2.06692
21
-2.10866
0
LINE
8
BLACK
6
CONTINUOUS
10
2.06692
20
-2.10866
11
2.07976
21
-2.0987
0
LINE
8
BLACK
6
CONTINUOUS
10
2.07976
20
-2.0987
11
2.0916
21
-2.08757
0
LINE
8
BLACK
6
CONTINUOUS
10
2.0916
20
-2.08757
11
2.10233
21
-2.07537
0
LINE
8
BLACK
6
CONTINUOUS
10
2.10233
20
-2.07537
11
2.11185
21
-2.06221
0
LINE
8
BLACK
6
CONTINUOUS
10
2.11185
20
-2.06221
11
2.12009
21
-2.0482
0
LINE
8
BLACK
6
CONTINUOUS
10
2.12009
20
-2.0482
11
2.12091
21
-2.04644
0
LINE
8
BLACK
6
CONTINUOUS
10
2.12091
20
-2.04644
11
2.06285
21
-2.04644
0
LINE
8
BLACK
6
CONTINUOUS
10
2.06285
20
-2.04644
11
2.06226
21
-2.04625
0
LINE
8
BLACK
6
CONTINUOUS
10
2.06226
20
-2.04625
11
2.06163
21
-2.04625
0
LINE
8
BLACK
6
CONTINUOUS
10
2.06163
20
-2.04625
11
2.06113
21
-2.04588
0
LINE
8
BLACK
6
CONTINUOUS
10
2.06113
20
-2.04588
11
2.06054
21
-2.04569
0
LINE
8
BLACK
6
CONTINUOUS
10
2.06054
20
-2.04569
11
2.06017
21
-2.04518
0
LINE
8
BLACK
6
CONTINUOUS
10
2.06017
20
-2.04518
11
2.05967
21
-2.04482
0
LINE
8
BLACK
6
CONTINUOUS
10
2.05967
20
-2.04482
11
2.05947
21
-2.04422
0
LINE
8
BLACK
6
CONTINUOUS
10
2.05947
20
-2.04422
11
2.05911
21
-2.04372
0
LINE
8
BLACK
6
CONTINUOUS
10
2.05911
20
-2.04372
11
2.05911
21
-2.0431
0
LINE
8
BLACK
6
CONTINUOUS
10
2.05911
20
-2.0431
11
2.05891
21
-2.0425
0
LINE
8
BLACK
6
CONTINUOUS
10
2.05891
20
-2.0425
11
2.05891
21
-2.0175
0
LINE
8
BLACK
6
CONTINUOUS
10
2.05891
20
-2.0175
11
2.05911
21
-2.01691
0
LINE
8
BLACK
6
CONTINUOUS
10
2.05911
20
-2.01691
11
2.05911
21
-2.01629
0
LINE
8
BLACK
6
CONTINUOUS
10
2.05911
20
-2.01629
11
2.05947
21
-2.01578
0
LINE
8
BLACK
6
CONTINUOUS
10
2.05947
20
-2.01578
11
2.05967
21
-2.01519
0
LINE
8
BLACK
6
CONTINUOUS
10
2.05967
20
-2.01519
11
2.06017
21
-2.01482
0
LINE
8
BLACK
6
CONTINUOUS
10
2.06017
20
-2.01482
11
2.06054
21
-2.01432
0
LINE
8
BLACK
6
CONTINUOUS
10
2.06054
20
-2.01432
11
2.06113
21
-2.01413
0
LINE
8
BLACK
6
CONTINUOUS
10
2.06113
20
-2.01413
11
2.06163
21
-2.01376
0
LINE
8
BLACK
6
CONTINUOUS
10
2.06163
20
-2.01376
11
2.06226
21
-2.01376
0
LINE
8
BLACK
6
CONTINUOUS
10
2.06226
20
-2.01376
11
2.06285
21
-2.01357
0
LINE
8
BLACK
6
CONTINUOUS
10
2.06285
20
-2.01357
11
2.14185
21
-2.01357
0
LINE
8
BLACK
6
CONTINUOUS
10
2.14185
20
-2.01357
11
15.9646
21
-2.01357
0
LINE
8
BLACK
6
CONTINUOUS
10
15.9646
20
-2.01357
11
15.9646
21
-1.92344
0
LINE
8
BLACK
6
CONTINUOUS
10
15.9646
20
-1.92344
11
2.14185
21
-1.92344
0
LINE
8
BLACK
6
CONTINUOUS
10
2.14185
20
-1.92344
11
2.06285
21
-1.92344
0
LINE
8
BLACK
6
CONTINUOUS
10
2.06285
20
-1.92344
11
2.06226
21
-1.92325
0
LINE
8
BLACK
6
CONTINUOUS
10
2.06226
20
-1.92325
11
2.06163
21
-1.92325
0
LINE
8
BLACK
6
CONTINUOUS
10
2.06163
20
-1.92325
11
2.06113
21
-1.92288
0
LINE
8
BLACK
6
CONTINUOUS
10
2.06113
20
-1.92288
11
2.06054
21
-1.92269
0
LINE
8
BLACK
6
CONTINUOUS
10
2.06054
20
-1.92269
11
2.06017
21
-1.92218
0
LINE
8
BLACK
6
CONTINUOUS
10
2.06017
20
-1.92218
11
2.05967
21
-1.92182
0
LINE
8
BLACK
6
CONTINUOUS
10
2.05967
20
-1.92182
11
2.05947
21
-1.92122
0
LINE
8
BLACK
6
CONTINUOUS
10
2.05947
20
-1.92122
11
2.05911
21
-1.92072
0
LINE
8
BLACK
6
CONTINUOUS
10
2.05911
20
-1.92072
11
2.05911
21
-1.9201
0
LINE
8
BLACK
6
CONTINUOUS
10
2.05911
20
-1.9201
11
2.05891
21
-1.9195
0
LINE
8
BLACK
6
CONTINUOUS
10
2.05891
20
-1.9195
11
2.05891
21
-1.8945
0
LINE
8
BLACK
6
CONTINUOUS
10
2.05891
20
-1.8945
11
2.05911
21
-1.89391
0
LINE
8
BLACK
6
CONTINUOUS
10
2.05911
20
-1.89391
11
2.05911
21
-1.89329
0
LINE
8
BLACK
6
CONTINUOUS
10
2.05911
20
-1.89329
11
2.05947
21
-1.89278
0
LINE
8
BLACK
6
CONTINUOUS
10
2.05947
20
-1.89278
11
2.05967
21
-1.89219
0
LINE
8
BLACK
6
CONTINUOUS
10
2.05967
20
-1.89219
11
2.06017
21
-1.89182
0
LINE
8
BLACK
6
CONTINUOUS
10
2.06017
20
-1.89182
11
2.06054
21
-1.89132
0
LINE
8
BLACK
6
CONTINUOUS
10
2.06054
20
-1.89132
11
2.06113
21
-1.89113
0
LINE
8
BLACK
6
CONTINUOUS
10
2.06113
20
-1.89113
11
2.06163
21
-1.89076
0
LINE
8
BLACK
6
CONTINUOUS
10
2.06163
20
-1.89076
11
2.06226
21
-1.89076
0
LINE
8
BLACK
6
CONTINUOUS
10
2.06226
20
-1.89076
11
2.06285
21
-1.89057
0
LINE
8
BLACK
6
CONTINUOUS
10
2.06285
20
-1.89057
11
2.12091
21
-1.89057
0
LINE
8
BLACK
6
CONTINUOUS
10
2.12091
20
-1.89057
11
2.12009
21
-1.88881
0
LINE
8
BLACK
6
CONTINUOUS
10
2.12009
20
-1.88881
11
2.11185
21
-1.8748
0
LINE
8
BLACK
6
CONTINUOUS
10
2.11185
20
-1.8748
11
2.10233
21
-1.86164
0
LINE
8
BLACK
6
CONTINUOUS
10
2.10233
20
-1.86164
11
2.0916
21
-1.84943
0
LINE
8
BLACK
6
CONTINUOUS
10
2.0916
20
-1.84943
11
2.07976
21
-1.83831
0
LINE
8
BLACK
6
CONTINUOUS
10
2.07976
20
-1.83831
11
2.06692
21
-1.82835
0
LINE
8
BLACK
6
CONTINUOUS
10
2.06692
20
-1.82835
11
2.05319
21
-1.81965
0
LINE
8
BLACK
6
CONTINUOUS
10
2.05319
20
-1.81965
11
2.0387
21
-1.8123
0
LINE
8
BLACK
6
CONTINUOUS
10
2.0387
20
-1.8123
11
2.02358
21
-1.80635
0
LINE
8
BLACK
6
CONTINUOUS
10
2.02358
20
-1.80635
11
2.00797
21
-1.80186
0
LINE
8
BLACK
6
CONTINUOUS
10
2.00797
20
-1.80186
11
1.992
21
-1.79887
0
LINE
8
BLACK
6
CONTINUOUS
10
1.992
20
-1.79887
11
1.97582
21
-1.7974
0
LINE
8
BLACK
6
CONTINUOUS
10
1.97582
20
-1.7974
11
1.95957
21
-1.79748
  0
ENDSEC
  0
EOF
