                                                                        S      1
,,13HEnd Plate.ipt,27HNo Iges File Name specified,23HAutoDesk Inventor RG      1
12.0,37HAutoDesk Inventor Iges Exporter R12.0,32,38,6,99,15,13HEnd PlateG      2
.ipt,1.0D0,2,2HMM,1,.08D0,15H20071025.153055,.01D0,10000.0D0,19HNo AuthoG      3
r specified,25HNo Organization specified,11,0,,33HNo Application ProtocoG      4
l specified;                                                            G      5
     406       1       0       0       1       0       0       000000000D      1
     406       0       0       1       3                               0D      2
     116       2       0       0       0       0       0       000010000D      3
     116       0       0       1       0                               0D      4
     123       3       0       0       0       0       0       000010200D      5
     123       0       0       1       0                               0D      6
     190       4       0       0       0       0       0       000010000D      7
     190       0       0       1       1                               0D      8
     123       5       0       0       0       0       0       000010200D      9
     123       0       0       1       0                               0D     10
     502       6       0       0       0       0       0       000010000D     11
     502       0       0       4       1                               0D     12
     110      10       0       0       0       0       0       000010000D     13
     110       0       0       1       0                               0D     14
     504      11       0       0       0       0       0       000010001D     15
     504       0       0       3       1                               0D     16
     110      14       0       0       0       0       0       000010000D     17
     110       0       0       1       0                               0D     18
     110      15       0       0       0       0       0       000010000D     19
     110       0       0       1       0                               0D     20
     110      16       0       0       0       0       0       000010000D     21
     110       0       0       1       0                               0D     22
     508      17       0       0       0       0       0       000010000D     23
     508       0       0       1       1                               0D     24
     510      18       0       0       0       0       0       000010001D     25
     510       0       0       1       1                               0D     26
     116      19       0       0       0       0       0       000010000D     27
     116       0       0       1       0                               0D     28
     123      20       0       0       0       0       0       000010200D     29
     123       0       0       1       0                               0D     30
     190      21       0       0       0       0       0       000010000D     31
     190       0       0       1       1                               0D     32
     123      22       0       0       0       0       0       000010200D     33
     123       0       0       1       0                               0D     34
     110      23       0       0       0       0       0       000010000D     35
     110       0       0       1       0                               0D     36
     110      24       0       0       0       0       0       000010000D     37
     110       0       0       1       0                               0D     38
     110      25       0       0       0       0       0       000010000D     39
     110       0       0       1       0                               0D     40
     508      26       0       0       0       0       0       000010000D     41
     508       0       0       1       1                               0D     42
     510      27       0       0       0       0       0       000010001D     43
     510       0       0       1       1                               0D     44
     116      28       0       0       0       0       0       000010000D     45
     116       0       0       1       0                               0D     46
     123      29       0       0       0       0       0       000010200D     47
     123       0       0       1       0                               0D     48
     190      30       0       0       0       0       0       000010000D     49
     190       0       0       1       1                               0D     50
     123      31       0       0       0       0       0       000010200D     51
     123       0       0       1       0                               0D     52
     110      32       0       0       0       0       0       000010000D     53
     110       0       0       1       0                               0D     54
     110      33       0       0       0       0       0       000010000D     55
     110       0       0       1       0                               0D     56
     508      34       0       0       0       0       0       000010000D     57
     508       0       0       1       1                               0D     58
     510      35       0       0       0       0       0       000010001D     59
     510       0       0       1       1                               0D     60
     116      36       0       0       0       0       0       000010000D     61
     116       0       0       1       0                               0D     62
     123      37       0       0       0       0       0       000010200D     63
     123       0       0       1       0                               0D     64
     190      38       0       0       0       0       0       000010000D     65
     190       0       0       1       1                               0D     66
     123      39       0       0       0       0       0       000010200D     67
     123       0       0       1       0                               0D     68
     110      40       0       0       0       0       0       000010000D     69
     110       0       0       1       0                               0D     70
     110      41       0       0       0       0       0       000010000D     71
     110       0       0       1       0                               0D     72
     508      42       0       0       0       0       0       000010000D     73
     508       0       0       1       1                               0D     74
     510      43       0       0       0       0       0       000010001D     75
     510       0       0       1       1                               0D     76
     116      44       0       0       0       0       0       000010000D     77
     116       0       0       1       0                               0D     78
     123      45       0       0       0       0       0       000010200D     79
     123       0       0       1       0                               0D     80
     190      46       0       0       0       0       0       000010000D     81
     190       0       0       1       1                               0D     82
     123      47       0       0       0       0       0       000010200D     83
     123       0       0       1       0                               0D     84
     110      48       0       0       0       0       0       000010000D     85
     110       0       0       1       0                               0D     86
     508      49       0       0       0       0       0       000010000D     87
     508       0       0       1       1                               0D     88
     510      50       0       0       0       0       0       000010001D     89
     510       0       0       1       1                               0D     90
     116      51       0       0       0       0       0       000010000D     91
     116       0       0       1       0                               0D     92
     123      52       0       0       0       0       0       000010200D     93
     123       0       0       1       0                               0D     94
     190      53       0       0       0       0       0       000010000D     95
     190       0       0       1       1                               0D     96
     123      54       0       0       0       0       0       000010200D     97
     123       0       0       1       0                               0D     98
     508      55       0       0       0       0       0       000010000D     99
     508       0       0       1       1                               0D    100
     510      56       0       0       0       0       0       000010001D    101
     510       0       0       1       1                               0D    102
     514      57       0       0       0       0       0       000010000D    103
     514       0       0       1       1                               0D    104
     186      58       0       0       1       0       0       000000000D    105
     186       0    -107       1       0                               0D    106
     314      59       0       0       0       0       0       000000200D    107
     314       0       0       2       0                               0D    108
406,2,0,9HEnd Plate;                                                   1P      1
116,-8.45939771784804D-17,-7.7715611723761D-15,-.825D0,0;              3P      2
123,0.0D0,0.0D0,-1.0D0;                                                5P      3
190,3,5,9;                                                             7P      4
123,-1.0D0,0.0D0,0.0D0;                                                9P      5
502,8,-64.0D0,-22.5D0,-.825D0,64.0D0,-22.5D0,-.825D0,-64.0D0,         11P      6
22.5D0,-.825D0,64.0D0,22.5D0,-.825D0,-64.0D0,22.5D0,.825D0,           11P      7
64.0D0,22.5D0,.825D0,64.0D0,-22.5D0,.825D0,-64.0D0,-22.5D0,           11P      8
.825D0;                                                               11P      9
110,-64.0D0,-22.5D0,-.825D0,64.0D0,-22.5D0,-.825D0;                   13P     10
504,12,13,11,1,11,2,17,11,3,11,1,19,11,4,11,3,21,11,2,11,4,35,        15P     11
11,5,11,6,37,11,6,11,4,39,11,5,11,3,53,11,6,11,7,55,11,7,11,2,        15P     12
69,11,7,11,8,71,11,1,11,8,85,11,8,11,5;                               15P     13
110,-64.0D0,22.5D0,-.825D0,-64.0D0,-22.5D0,-.825D0;                   17P     14
110,64.0D0,22.5D0,-.825D0,-64.0D0,22.5D0,-.825D0;                     19P     15
110,64.0D0,-22.5D0,-.825D0,64.0D0,22.5D0,-.825D0;                     21P     16
508,4,0,15,1,0,0,0,15,2,0,0,0,15,3,0,0,0,15,4,0,0;                    23P     17
510,7,1,1,23;                                                         25P     18
116,-64.0D0,22.5D0,0.0D0,0;                                           27P     19
123,0.0D0,1.0D0,0.0D0;                                                29P     20
190,27,29,33;                                                         31P     21
123,0.0D0,0.0D0,1.0D0;                                                33P     22
110,-64.0D0,22.5D0,.825D0,64.0D0,22.5D0,.825D0;                       35P     23
110,64.0D0,22.5D0,.825D0,64.0D0,22.5D0,-.825D0;                       37P     24
110,-64.0D0,22.5D0,.825D0,-64.0D0,22.5D0,-.825D0;                     39P     25
508,4,0,15,5,1,0,0,15,6,1,0,0,15,3,1,0,0,15,7,0,0;                    41P     26
510,31,1,1,41;                                                        43P     27
116,64.0D0,22.5D0,0.0D0,0;                                            45P     28
123,1.0D0,0.0D0,0.0D0;                                                47P     29
190,45,47,51;                                                         49P     30
123,0.0D0,0.0D0,-1.0D0;                                               51P     31
110,64.0D0,22.5D0,.825D0,64.0D0,-22.5D0,.825D0;                       53P     32
110,64.0D0,-22.5D0,.825D0,64.0D0,-22.5D0,-.825D0;                     55P     33
508,4,0,15,8,1,0,0,15,9,1,0,0,15,4,1,0,0,15,6,0,0;                    57P     34
510,49,1,1,57;                                                        59P     35
116,64.0D0,-22.5D0,0.0D0,0;                                           61P     36
123,0.0D0,-1.0D0,0.0D0;                                               63P     37
190,61,63,67;                                                         65P     38
123,0.0D0,0.0D0,-1.0D0;                                               67P     39
110,64.0D0,-22.5D0,.825D0,-64.0D0,-22.5D0,.825D0;                     69P     40
110,-64.0D0,-22.5D0,-.825D0,-64.0D0,-22.5D0,.825D0;                   71P     41
508,4,0,15,10,1,0,0,15,11,0,0,0,15,1,1,0,0,15,9,0,0;                  73P     42
510,65,1,1,73;                                                        75P     43
116,-64.0D0,-22.5D0,0.0D0,0;                                          77P     44
123,-1.0D0,0.0D0,0.0D0;                                               79P     45
190,77,79,83;                                                         81P     46
123,0.0D0,0.0D0,1.0D0;                                                83P     47
110,-64.0D0,-22.5D0,.825D0,-64.0D0,22.5D0,.825D0;                     85P     48
508,4,0,15,12,1,0,0,15,7,1,0,0,15,2,1,0,0,15,11,1,0;                  87P     49
510,81,1,1,87;                                                        89P     50
116,8.45939771784804D-17,-7.7715611723761D-15,.825D0,0;               91P     51
123,0.0D0,0.0D0,1.0D0;                                                93P     52
190,91,93,97;                                                         95P     53
123,1.0D0,0.0D0,0.0D0;                                                97P     54
508,4,0,15,5,0,0,0,15,12,0,0,0,15,10,0,0,0,15,8,0,0;                  99P     55
510,95,1,1,99;                                                       101P     56
514,6,25,1,43,1,59,1,75,1,89,1,101,1;                                103P     57
186,103,1,0;                                                         105P     58
314,94.9020028114319D0,92.5490021705627D0,93.3332979679108D0,        107P     59
19HAluminum (Polished);                                              107P     60
S      1G      5D    108P     60                                        T      1
