%TF.GenerationSoftware,KiCad,Pcbnew,8.0.1-8.0.1-1~ubuntu22.04.1*%
%TF.CreationDate,2024-05-08T14:36:01-04:00*%
%TF.ProjectId,imu-splitter,696d752d-7370-46c6-9974-7465722e6b69,rev?*%
%TF.SameCoordinates,Original*%
%TF.FileFunction,Copper,L1,Top*%
%TF.FilePolarity,Positive*%
%FSLAX46Y46*%
G04 Gerber Fmt 4.6, Leading zero omitted, Abs format (unit mm)*
G04 Created by KiCad (PCBNEW 8.0.1-8.0.1-1~ubuntu22.04.1) date 2024-05-08 14:36:01*
%MOMM*%
%LPD*%
G01*
G04 APERTURE LIST*
G04 Aperture macros list*
%AMRoundRect*
0 Rectangle with rounded corners*
0 $1 Rounding radius*
0 $2 $3 $4 $5 $6 $7 $8 $9 X,Y pos of 4 corners*
0 Add a 4 corners polygon primitive as box body*
4,1,4,$2,$3,$4,$5,$6,$7,$8,$9,$2,$3,0*
0 Add four circle primitives for the rounded corners*
1,1,$1+$1,$2,$3*
1,1,$1+$1,$4,$5*
1,1,$1+$1,$6,$7*
1,1,$1+$1,$8,$9*
0 Add four rect primitives between the rounded corners*
20,1,$1+$1,$2,$3,$4,$5,0*
20,1,$1+$1,$4,$5,$6,$7,0*
20,1,$1+$1,$6,$7,$8,$9,0*
20,1,$1+$1,$8,$9,$2,$3,0*%
G04 Aperture macros list end*
%TA.AperFunction,ComponentPad*%
%ADD10C,1.524000*%
%TD*%
%TA.AperFunction,ComponentPad*%
%ADD11C,4.000000*%
%TD*%
%TA.AperFunction,SMDPad,CuDef*%
%ADD12RoundRect,0.250000X-0.475000X0.337500X-0.475000X-0.337500X0.475000X-0.337500X0.475000X0.337500X0*%
%TD*%
%TA.AperFunction,ComponentPad*%
%ADD13R,1.000000X1.000000*%
%TD*%
%TA.AperFunction,ComponentPad*%
%ADD14O,1.000000X1.000000*%
%TD*%
%TA.AperFunction,ComponentPad*%
%ADD15R,1.090000X1.090000*%
%TD*%
%TA.AperFunction,ComponentPad*%
%ADD16C,1.090000*%
%TD*%
%TA.AperFunction,SMDPad,CuDef*%
%ADD17RoundRect,0.250000X-0.325000X-0.450000X0.325000X-0.450000X0.325000X0.450000X-0.325000X0.450000X0*%
%TD*%
%TA.AperFunction,ComponentPad*%
%ADD18R,1.700000X1.700000*%
%TD*%
%TA.AperFunction,ComponentPad*%
%ADD19O,1.700000X1.700000*%
%TD*%
%TA.AperFunction,SMDPad,CuDef*%
%ADD20RoundRect,0.375000X-0.375000X0.625000X-0.375000X-0.625000X0.375000X-0.625000X0.375000X0.625000X0*%
%TD*%
%TA.AperFunction,SMDPad,CuDef*%
%ADD21RoundRect,0.500000X-1.400000X0.500000X-1.400000X-0.500000X1.400000X-0.500000X1.400000X0.500000X0*%
%TD*%
%TA.AperFunction,SMDPad,CuDef*%
%ADD22RoundRect,0.250000X0.325000X0.450000X-0.325000X0.450000X-0.325000X-0.450000X0.325000X-0.450000X0*%
%TD*%
%TA.AperFunction,SMDPad,CuDef*%
%ADD23RoundRect,0.250000X-0.450000X0.350000X-0.450000X-0.350000X0.450000X-0.350000X0.450000X0.350000X0*%
%TD*%
%TA.AperFunction,ViaPad*%
%ADD24C,0.508000*%
%TD*%
%TA.AperFunction,ViaPad*%
%ADD25C,1.016000*%
%TD*%
%TA.AperFunction,Conductor*%
%ADD26C,0.304800*%
%TD*%
%TA.AperFunction,Conductor*%
%ADD27C,0.635000*%
%TD*%
G04 APERTURE END LIST*
D10*
%TO.P,J6,1*%
%TO.N,+3.3V*%
X182720000Y-84000000D03*
%TO.P,J6,2*%
%TO.N,/TX5*%
X181450000Y-86540000D03*
%TO.P,J6,3*%
%TO.N,/RX5*%
X180180000Y-84000000D03*
%TO.P,J6,4*%
%TO.N,GND*%
X178910000Y-86540000D03*
D11*
%TO.P,J6,5*%
%TO.N,N/C*%
X184625000Y-77650000D03*
%TO.P,J6,6*%
X177000000Y-77650000D03*
%TD*%
D12*
%TO.P,C1,1*%
%TO.N,+5V*%
X184757000Y-104449500D03*
%TO.P,C1,2*%
%TO.N,GND*%
X184757000Y-106524500D03*
%TD*%
D13*
%TO.P,J8,1,Pin_1*%
%TO.N,+3.3V*%
X185091000Y-92676000D03*
D14*
%TO.P,J8,2,Pin_2*%
%TO.N,/TX6*%
X185091000Y-93946000D03*
%TO.P,J8,3,Pin_3*%
%TO.N,/RX6*%
X185091000Y-95216000D03*
%TO.P,J8,4,Pin_4*%
%TO.N,GND*%
X185091000Y-96486000D03*
%TD*%
D12*
%TO.P,C2,1*%
%TO.N,+3.3V*%
X196000000Y-104637500D03*
%TO.P,C2,2*%
%TO.N,GND*%
X196000000Y-106712500D03*
%TD*%
D15*
%TO.P,J7,1,Pin_1*%
%TO.N,+5V*%
X170262500Y-110532500D03*
D16*
%TO.P,J7,2,Pin_2*%
%TO.N,GND*%
X168992500Y-110532500D03*
%TO.P,J7,3,Pin_3*%
%TO.N,+5V*%
X170262500Y-109262500D03*
%TO.P,J7,4,Pin_4*%
%TO.N,GND*%
X168992500Y-109262500D03*
%TO.P,J7,5,Pin_5*%
%TO.N,unconnected-(J7-Pin_5-Pad5)*%
X170262500Y-107992500D03*
%TO.P,J7,6,Pin_6*%
%TO.N,/RX2*%
X168992500Y-107992500D03*
%TO.P,J7,7,Pin_7*%
%TO.N,/TX3*%
X170262500Y-106722500D03*
%TO.P,J7,8,Pin_8*%
%TO.N,/TX2*%
X168992500Y-106722500D03*
%TO.P,J7,9,Pin_9*%
%TO.N,/RX3*%
X170262500Y-105452500D03*
%TO.P,J7,10,Pin_10*%
%TO.N,/TX1*%
X168992500Y-105452500D03*
%TO.P,J7,11,Pin_11*%
%TO.N,/TX6*%
X170262500Y-104182500D03*
%TO.P,J7,12,Pin_12*%
%TO.N,/RX1*%
X168992500Y-104182500D03*
%TO.P,J7,13,Pin_13*%
%TO.N,/RX6*%
X170262500Y-102912500D03*
%TO.P,J7,14,Pin_14*%
%TO.N,/RX0*%
X168992500Y-102912500D03*
%TO.P,J7,15,Pin_15*%
%TO.N,/TX4*%
X170262500Y-101642500D03*
%TO.P,J7,16,Pin_16*%
%TO.N,/TX0*%
X168992500Y-101642500D03*
%TO.P,J7,17,Pin_17*%
%TO.N,/RX4*%
X170262500Y-100372500D03*
%TO.P,J7,18,Pin_18*%
%TO.N,/RX5*%
X168992500Y-100372500D03*
%TO.P,J7,19,Pin_19*%
%TO.N,unconnected-(J7-Pin_19-Pad19)*%
X170262500Y-99102500D03*
%TO.P,J7,20,Pin_20*%
%TO.N,/TX5*%
X168992500Y-99102500D03*
%TO.P,J7,21,Pin_21*%
%TO.N,unconnected-(J7-Pin_21-Pad21)*%
X170262500Y-97832500D03*
%TO.P,J7,22,Pin_22*%
%TO.N,GND*%
X168992500Y-97832500D03*
%TO.P,J7,23,Pin_23*%
%TO.N,unconnected-(J7-Pin_23-Pad23)*%
X170262500Y-96562500D03*
%TO.P,J7,24,Pin_24*%
%TO.N,GND*%
X168992500Y-96562500D03*
%TO.P,J7,25,Pin_25*%
%TO.N,unconnected-(J7-Pin_25-Pad25)*%
X170262500Y-95292500D03*
%TO.P,J7,26,Pin_26*%
%TO.N,unconnected-(J7-Pin_26-Pad26)*%
X168992500Y-95292500D03*
%TD*%
D10*
%TO.P,J1,1*%
%TO.N,+3.3V*%
X179190000Y-119540000D03*
%TO.P,J1,2*%
%TO.N,/TX0*%
X180460000Y-117000000D03*
%TO.P,J1,3*%
%TO.N,/RX0*%
X181730000Y-119540000D03*
%TO.P,J1,4*%
%TO.N,GND*%
X183000000Y-117000000D03*
D11*
%TO.P,J1,5*%
%TO.N,N/C*%
X177285000Y-125890000D03*
%TO.P,J1,6*%
X184910000Y-125890000D03*
%TD*%
D10*
%TO.P,J2,1*%
%TO.N,+3.3V*%
X196905000Y-119650000D03*
%TO.P,J2,2*%
%TO.N,/TX1*%
X198175000Y-117110000D03*
%TO.P,J2,3*%
%TO.N,/RX1*%
X199445000Y-119650000D03*
%TO.P,J2,4*%
%TO.N,GND*%
X200715000Y-117110000D03*
D11*
%TO.P,J2,5*%
%TO.N,N/C*%
X195000000Y-126000000D03*
%TO.P,J2,6*%
X202625000Y-126000000D03*
%TD*%
D17*
%TO.P,D2,1,K*%
%TO.N,GND*%
X196305000Y-109551000D03*
%TO.P,D2,2,A*%
%TO.N,Net-(D2-A)*%
X198355000Y-109551000D03*
%TD*%
D18*
%TO.P,J9,1,Pin_1*%
%TO.N,+5V*%
X178407000Y-111075000D03*
D19*
%TO.P,J9,2,Pin_2*%
%TO.N,+3.3V*%
X178407000Y-108535000D03*
%TO.P,J9,3,Pin_3*%
%TO.N,/TX0*%
X178407000Y-105995000D03*
%TO.P,J9,4,Pin_4*%
%TO.N,/RX0*%
X178407000Y-103455000D03*
%TO.P,J9,5,Pin_5*%
%TO.N,GND*%
X178407000Y-100915000D03*
%TD*%
D20*
%TO.P,U1,1,GND*%
%TO.N,GND*%
X192300000Y-104850000D03*
%TO.P,U1,2,VO*%
%TO.N,+3.3V*%
X190000000Y-104850000D03*
D21*
X190000000Y-111150000D03*
D20*
%TO.P,U1,3,VI*%
%TO.N,+5V*%
X187700000Y-104850000D03*
%TD*%
D22*
%TO.P,D1,1,K*%
%TO.N,GND*%
X184385000Y-109551000D03*
%TO.P,D1,2,A*%
%TO.N,Net-(D1-A)*%
X182335000Y-109551000D03*
%TD*%
D23*
%TO.P,R1,1*%
%TO.N,+5V*%
X182217000Y-104487000D03*
%TO.P,R1,2*%
%TO.N,Net-(D1-A)*%
X182217000Y-106487000D03*
%TD*%
D12*
%TO.P,R2,1*%
%TO.N,+3.3V*%
X198727000Y-104598000D03*
%TO.P,R2,2*%
%TO.N,Net-(D2-A)*%
X198727000Y-106673000D03*
%TD*%
D10*
%TO.P,J4,1*%
%TO.N,+3.3V*%
X208125000Y-96810000D03*
%TO.P,J4,2*%
%TO.N,/TX3*%
X205585000Y-95540000D03*
%TO.P,J4,3*%
%TO.N,/RX3*%
X208125000Y-94270000D03*
%TO.P,J4,4*%
%TO.N,GND*%
X205585000Y-93000000D03*
D11*
%TO.P,J4,5*%
%TO.N,N/C*%
X214475000Y-98715000D03*
%TO.P,J4,6*%
X214475000Y-91090000D03*
%TD*%
D10*
%TO.P,J3,1*%
%TO.N,+3.3V*%
X208125000Y-110440000D03*
%TO.P,J3,2*%
%TO.N,/TX2*%
X205585000Y-109170000D03*
%TO.P,J3,3*%
%TO.N,/RX2*%
X208125000Y-107900000D03*
%TO.P,J3,4*%
%TO.N,GND*%
X205585000Y-106630000D03*
D11*
%TO.P,J3,5*%
%TO.N,N/C*%
X214475000Y-112345000D03*
%TO.P,J3,6*%
X214475000Y-104720000D03*
%TD*%
D10*
%TO.P,J5,1*%
%TO.N,+3.3V*%
X200907500Y-84000000D03*
%TO.P,J5,2*%
%TO.N,/TX4*%
X199637500Y-86540000D03*
%TO.P,J5,3*%
%TO.N,/RX4*%
X198367500Y-84000000D03*
%TO.P,J5,4*%
%TO.N,GND*%
X197097500Y-86540000D03*
D11*
%TO.P,J5,5*%
%TO.N,N/C*%
X202812500Y-77650000D03*
%TO.P,J5,6*%
X195187500Y-77650000D03*
%TD*%
D24*
%TO.N,/RX6*%
X181632800Y-95301600D03*
D25*
%TO.N,GND*%
X192250000Y-106503000D03*
X194409000Y-106630000D03*
X184757000Y-107707000D03*
%TD*%
D26*
%TO.N,/RX6*%
X170262500Y-102912500D02*
X177873400Y-95301600D01*
X177873400Y-95301600D02*
X178330800Y-95301600D01*
X178330800Y-95301600D02*
X181632800Y-95301600D01*
%TO.N,/TX6*%
X170262500Y-104182500D02*
X177771800Y-96673200D01*
X177771800Y-96673200D02*
X182363800Y-96673200D01*
X182363800Y-96673200D02*
X185091000Y-93946000D01*
D27*
%TO.N,+5V*%
X184719500Y-104487000D02*
X184757000Y-104449500D01*
X180185000Y-106519000D02*
X182217000Y-104487000D01*
X180185000Y-110567000D02*
X180185000Y-106519000D01*
X184757000Y-104449500D02*
X187299500Y-104449500D01*
X178407000Y-111075000D02*
X179677000Y-111075000D01*
X177864500Y-110532500D02*
X178407000Y-111075000D01*
X182217000Y-104487000D02*
X184719500Y-104487000D01*
X170262500Y-110532500D02*
X177864500Y-110532500D01*
X179677000Y-111075000D02*
X180185000Y-110567000D01*
X187299500Y-104449500D02*
X187700000Y-104850000D01*
X170262500Y-110532500D02*
X170262500Y-109262500D01*
D26*
%TO.N,GND*%
X194414000Y-106625000D02*
X194409000Y-106630000D01*
X192300000Y-106453000D02*
X192250000Y-106503000D01*
X184757000Y-106437000D02*
X184757000Y-107707000D01*
X184385000Y-109551000D02*
X184385000Y-108079000D01*
X196000000Y-106625000D02*
X194414000Y-106625000D01*
X184385000Y-108079000D02*
X184757000Y-107707000D01*
X192300000Y-104850000D02*
X192300000Y-106453000D01*
X196305000Y-109551000D02*
X196305000Y-107017500D01*
X196305000Y-107017500D02*
X196000000Y-106712500D01*
%TO.N,/TX0*%
X165326000Y-112980000D02*
X165326000Y-105309000D01*
X180460000Y-117000000D02*
X178345000Y-114885000D01*
X167231000Y-114885000D02*
X165326000Y-112980000D01*
X165326000Y-105309000D02*
X168992500Y-101642500D01*
X178345000Y-114885000D02*
X167231000Y-114885000D01*
%TO.N,/RX0*%
X167485000Y-114377000D02*
X165872000Y-112764000D01*
X181730000Y-115668000D02*
X180439000Y-114377000D01*
X181730000Y-119540000D02*
X181730000Y-115668000D01*
X165872000Y-112764000D02*
X165872000Y-106033000D01*
X180439000Y-114377000D02*
X167485000Y-114377000D01*
X165872000Y-106033000D02*
X168992500Y-102912500D01*
%TO.N,/TX1*%
X166837200Y-107607800D02*
X168992500Y-105452500D01*
X166837200Y-112193622D02*
X166837200Y-107607800D01*
X198175000Y-114587000D02*
X198175000Y-117110000D01*
X168106178Y-113462600D02*
X166837200Y-112193622D01*
X197050600Y-113462600D02*
X168106178Y-113462600D01*
X197050600Y-113462600D02*
X198175000Y-114587000D01*
%TO.N,/RX1*%
X197108200Y-117551884D02*
X199206316Y-119650000D01*
X197126800Y-114758000D02*
X197126800Y-116649516D01*
X167916800Y-113919800D02*
X196288600Y-113919800D01*
X166380000Y-112383000D02*
X167916800Y-113919800D01*
X197108200Y-116668116D02*
X197108200Y-117551884D01*
X168992500Y-104182500D02*
X166380000Y-106795000D01*
X196288600Y-113919800D02*
X197126800Y-114758000D01*
X197126800Y-116649516D02*
X197108200Y-116668116D01*
X166380000Y-106795000D02*
X166380000Y-112383000D01*
X199206316Y-119650000D02*
X199445000Y-119650000D01*
%TO.N,/TX2*%
X167294400Y-112004244D02*
X167294400Y-108420600D01*
X201749600Y-113005400D02*
X168295556Y-113005400D01*
X167294400Y-108420600D02*
X168992500Y-106722500D01*
X168295556Y-113005400D02*
X167294400Y-112004244D01*
X205585000Y-109170000D02*
X201749600Y-113005400D01*
%TO.N,/RX2*%
X204518200Y-109590222D02*
X201560222Y-112548200D01*
X167751600Y-109233400D02*
X168992500Y-107992500D01*
X168484934Y-112548200D02*
X167751600Y-111814866D01*
X208125000Y-107900000D02*
X206651800Y-109373200D01*
X206026884Y-108103200D02*
X205143116Y-108103200D01*
X206651800Y-108728116D02*
X206026884Y-108103200D01*
X204518200Y-108728116D02*
X204518200Y-109590222D01*
X205143116Y-108103200D02*
X204518200Y-108728116D01*
X167751600Y-111814866D02*
X167751600Y-109233400D01*
X206651800Y-109373200D02*
X206651800Y-108728116D01*
X201560222Y-112548200D02*
X168484934Y-112548200D01*
%TO.N,/TX3*%
X196441000Y-98248000D02*
X199149000Y-95540000D01*
X199149000Y-95540000D02*
X205585000Y-95540000D01*
X170262500Y-106722500D02*
X178737000Y-98248000D01*
X178737000Y-98248000D02*
X196441000Y-98248000D01*
%TO.N,/RX3*%
X199276000Y-94270000D02*
X208125000Y-94270000D01*
X170262500Y-105452500D02*
X177924200Y-97790800D01*
X195755200Y-97790800D02*
X199276000Y-94270000D01*
X177924200Y-97790800D02*
X195755200Y-97790800D01*
%TO.N,/RX4*%
X186813000Y-84000000D02*
X198367500Y-84000000D01*
X186281000Y-84532000D02*
X186813000Y-84000000D01*
X170262500Y-100372500D02*
X186103000Y-84532000D01*
X186103000Y-84532000D02*
X186281000Y-84532000D01*
%TO.N,/TX4*%
X186408000Y-85421000D02*
X186408000Y-85497000D01*
X198518500Y-85421000D02*
X186408000Y-85421000D01*
X186408000Y-85497000D02*
X170262500Y-101642500D01*
X199637500Y-86540000D02*
X198518500Y-85421000D01*
%TO.N,/TX5*%
X165884800Y-94234800D02*
X165884800Y-99162400D01*
X166443600Y-93676000D02*
X165884800Y-94234800D01*
X168932600Y-99162400D02*
X168992500Y-99102500D01*
X175689200Y-93676000D02*
X166443600Y-93676000D01*
X165884800Y-99162400D02*
X168932600Y-99162400D01*
X181450000Y-87915200D02*
X175689200Y-93676000D01*
X181450000Y-86540000D02*
X181450000Y-87915200D01*
%TO.N,/RX5*%
X165224400Y-93269600D02*
X165224400Y-99721200D01*
X165529200Y-92964800D02*
X165224400Y-93269600D01*
X176375000Y-85040000D02*
X176375000Y-92025000D01*
X175435200Y-92964800D02*
X165529200Y-92964800D01*
X165875700Y-100372500D02*
X168992500Y-100372500D01*
X177415000Y-84000000D02*
X176375000Y-85040000D01*
X165224400Y-99721200D02*
X165875700Y-100372500D01*
X176375000Y-92025000D02*
X175435200Y-92964800D01*
X180180000Y-84000000D02*
X177415000Y-84000000D01*
%TO.N,Net-(D1-A)*%
X182217000Y-106487000D02*
X182217000Y-109433000D01*
X182217000Y-109433000D02*
X182335000Y-109551000D01*
%TO.N,Net-(D2-A)*%
X198355000Y-109551000D02*
X198355000Y-107045000D01*
X198355000Y-107045000D02*
X198727000Y-106673000D01*
%TD*%
%TA.AperFunction,Conductor*%
%TO.N,+3.3V*%
G36*
X209837676Y-75100502D02*
G01*
X209849676Y-75100501D01*
X209849678Y-75100502D01*
X209883372Y-75100500D01*
X209895712Y-75101105D01*
X210033180Y-75114639D01*
X210057408Y-75119458D01*
X210183630Y-75157744D01*
X210206451Y-75167196D01*
X210322783Y-75229376D01*
X210343320Y-75243099D01*
X210445281Y-75326779D01*
X210462748Y-75344247D01*
X210546423Y-75446212D01*
X210560141Y-75466744D01*
X210622319Y-75583086D01*
X210631769Y-75605905D01*
X210670050Y-75732133D01*
X210674867Y-75756361D01*
X210688443Y-75894323D01*
X210689049Y-75906673D01*
X210689045Y-75953051D01*
X210689050Y-75953098D01*
X210689050Y-78471888D01*
X210689089Y-78472288D01*
X210689087Y-78598090D01*
X210689087Y-78598108D01*
X210724044Y-78953089D01*
X210724049Y-78953123D01*
X210793631Y-79302962D01*
X210793635Y-79302979D01*
X210897181Y-79644343D01*
X210897183Y-79644348D01*
X211006941Y-79909337D01*
X211033691Y-79973918D01*
X211201847Y-80288525D01*
X211352863Y-80514540D01*
X211400030Y-80585132D01*
X211400036Y-80585140D01*
X211626331Y-80860887D01*
X211626335Y-80860891D01*
X211878578Y-81113136D01*
X212154331Y-81339443D01*
X212154335Y-81339445D01*
X212154339Y-81339449D01*
X212381666Y-81491344D01*
X212450939Y-81537631D01*
X212765544Y-81705791D01*
X213095118Y-81842304D01*
X213436485Y-81945856D01*
X213786358Y-82015448D01*
X214141368Y-82050411D01*
X214319732Y-82050409D01*
X214359614Y-82050409D01*
X216786782Y-82050409D01*
X216786860Y-82050416D01*
X216799602Y-82050414D01*
X216799605Y-82050415D01*
X216833309Y-82050409D01*
X216845627Y-82051012D01*
X216983116Y-82064537D01*
X217007345Y-82069354D01*
X217133580Y-82107633D01*
X217156402Y-82117085D01*
X217272741Y-82179261D01*
X217293281Y-82192984D01*
X217395252Y-82276663D01*
X217412717Y-82294127D01*
X217496403Y-82396099D01*
X217510125Y-82416636D01*
X217572303Y-82532973D01*
X217581756Y-82555796D01*
X217620041Y-82682032D01*
X217624858Y-82706262D01*
X217638352Y-82843396D01*
X217638958Y-82855746D01*
X217638954Y-82902958D01*
X217638959Y-82903005D01*
X217638959Y-128429512D01*
X217637406Y-128449235D01*
X217627414Y-128512282D01*
X217615231Y-128549768D01*
X217590802Y-128597706D01*
X217567633Y-128629592D01*
X217529592Y-128667633D01*
X217497706Y-128690802D01*
X217449768Y-128715231D01*
X217412282Y-128727414D01*
X217373416Y-128733573D01*
X217349233Y-128737406D01*
X217329512Y-128738959D01*
X171756093Y-128738959D01*
X171743744Y-128738352D01*
X171709742Y-128735003D01*
X171606284Y-128724814D01*
X171582058Y-128719995D01*
X171455837Y-128681706D01*
X171433016Y-128672254D01*
X171316680Y-128610070D01*
X171296143Y-128596347D01*
X171194183Y-128512669D01*
X171176716Y-128495202D01*
X171138993Y-128449235D01*
X171093032Y-128393228D01*
X171079311Y-128372691D01*
X171017136Y-128256362D01*
X171007686Y-128233549D01*
X170976282Y-128130008D01*
X170969399Y-128107314D01*
X170964581Y-128083089D01*
X170959741Y-128033932D01*
X170951014Y-127945288D01*
X170950409Y-127932952D01*
X170950411Y-127899585D01*
X170950410Y-127899583D01*
X170950411Y-127887583D01*
X170950409Y-127887551D01*
X170950409Y-125890003D01*
X175025663Y-125890003D01*
X175044991Y-126184898D01*
X175044993Y-126184913D01*
X175102648Y-126474757D01*
X175102650Y-126474767D01*
X175197642Y-126754603D01*
X175197648Y-126754617D01*
X175328355Y-127019666D01*
X175492546Y-127265396D01*
X175492549Y-127265400D01*
X175687406Y-127487593D01*
X175909599Y-127682450D01*
X175909603Y-127682453D01*
X176155331Y-127846643D01*
X176420389Y-127977355D01*
X176700241Y-128072352D01*
X176950789Y-128122189D01*
X176990086Y-128130006D01*
X176990088Y-128130006D01*
X176990097Y-128130008D01*
X177158613Y-128141053D01*
X177284997Y-128149337D01*
X177285000Y-128149337D01*
X177285003Y-128149337D01*
X177395588Y-128142088D01*
X177579903Y-128130008D01*
X177869759Y-128072352D01*
X178149611Y-127977355D01*
X178414669Y-127846643D01*
X178660397Y-127682453D01*
X178882593Y-127487593D01*
X179077453Y-127265397D01*
X179241643Y-127019669D01*
X179372355Y-126754611D01*
X179467352Y-126474759D01*
X179525008Y-126184903D01*
X179544337Y-125890003D01*
X182650663Y-125890003D01*
X182669991Y-126184898D01*
X182669993Y-126184913D01*
X182727648Y-126474757D01*
X182727650Y-126474767D01*
X182822642Y-126754603D01*
X182822648Y-126754617D01*
X182953355Y-127019666D01*
X183117546Y-127265396D01*
X183117549Y-127265400D01*
X183312406Y-127487593D01*
X183534599Y-127682450D01*
X183534603Y-127682453D01*
X183780331Y-127846643D01*
X184045389Y-127977355D01*
X184325241Y-128072352D01*
X184575789Y-128122189D01*
X184615086Y-128130006D01*
X184615088Y-128130006D01*
X184615097Y-128130008D01*
X184783613Y-128141053D01*
X184909997Y-128149337D01*
X184910000Y-128149337D01*
X184910003Y-128149337D01*
X185020588Y-128142088D01*
X185204903Y-128130008D01*
X185494759Y-128072352D01*
X185774611Y-127977355D01*
X186039669Y-127846643D01*
X186285397Y-127682453D01*
X186507593Y-127487593D01*
X186702453Y-127265397D01*
X186866643Y-127019669D01*
X186997355Y-126754611D01*
X187092352Y-126474759D01*
X187150008Y-126184903D01*
X187162127Y-126000003D01*
X192740663Y-126000003D01*
X192759991Y-126294898D01*
X192759993Y-126294913D01*
X192817648Y-126584757D01*
X192817650Y-126584767D01*
X192912642Y-126864603D01*
X192912648Y-126864617D01*
X193043355Y-127129666D01*
X193207546Y-127375396D01*
X193207549Y-127375400D01*
X193402406Y-127597593D01*
X193624599Y-127792450D01*
X193624603Y-127792453D01*
X193870331Y-127956643D01*
X194135389Y-128087355D01*
X194415241Y-128182352D01*
X194665789Y-128232189D01*
X194705086Y-128240006D01*
X194705088Y-128240006D01*
X194705097Y-128240008D01*
X194873613Y-128251053D01*
X194999997Y-128259337D01*
X195000000Y-128259337D01*
X195000003Y-128259337D01*
X195110588Y-128252088D01*
X195294903Y-128240008D01*
X195584759Y-128182352D01*
X195864611Y-128087355D01*
X196129669Y-127956643D01*
X196375397Y-127792453D01*
X196597593Y-127597593D01*
X196792453Y-127375397D01*
X196956643Y-127129669D01*
X197087355Y-126864611D01*
X197182352Y-126584759D01*
X197240008Y-126294903D01*
X197259337Y-126000003D01*
X200365663Y-126000003D01*
X200384991Y-126294898D01*
X200384993Y-126294913D01*
X200442648Y-126584757D01*
X200442650Y-126584767D01*
X200537642Y-126864603D01*
X200537648Y-126864617D01*
X200668355Y-127129666D01*
X200832546Y-127375396D01*
X200832549Y-127375400D01*
X201027406Y-127597593D01*
X201249599Y-127792450D01*
X201249603Y-127792453D01*
X201495331Y-127956643D01*
X201760389Y-128087355D01*
X202040241Y-128182352D01*
X202290789Y-128232189D01*
X202330086Y-128240006D01*
X202330088Y-128240006D01*
X202330097Y-128240008D01*
X202498613Y-128251053D01*
X202624997Y-128259337D01*
X202625000Y-128259337D01*
X202625003Y-128259337D01*
X202735588Y-128252088D01*
X202919903Y-128240008D01*
X203209759Y-128182352D01*
X203489611Y-128087355D01*
X203754669Y-127956643D01*
X204000397Y-127792453D01*
X204222593Y-127597593D01*
X204417453Y-127375397D01*
X204581643Y-127129669D01*
X204712355Y-126864611D01*
X204807352Y-126584759D01*
X204865008Y-126294903D01*
X204884337Y-126000000D01*
X204865008Y-125705097D01*
X204860056Y-125680204D01*
X204843128Y-125595101D01*
X204807352Y-125415241D01*
X204712355Y-125135389D01*
X204581643Y-124870332D01*
X204417453Y-124624603D01*
X204417450Y-124624599D01*
X204237786Y-124419730D01*
X211814087Y-124419730D01*
X211831063Y-124624603D01*
X211834623Y-124667558D01*
X211895665Y-124908607D01*
X211895668Y-124908614D01*
X211995556Y-125136336D01*
X212131565Y-125344515D01*
X212299979Y-125527462D01*
X212299984Y-125527466D01*
X212299986Y-125527468D01*
X212386862Y-125595086D01*
X212496220Y-125680203D01*
X212496221Y-125680204D01*
X212714920Y-125798558D01*
X212714922Y-125798559D01*
X212838407Y-125840951D01*
X212950116Y-125879301D01*
X213195395Y-125920230D01*
X213195399Y-125920230D01*
X213444061Y-125920230D01*
X213444065Y-125920230D01*
X213689344Y-125879301D01*
X213924540Y-125798558D01*
X214143239Y-125680204D01*
X214339474Y-125527468D01*
X214385697Y-125477257D01*
X214507894Y-125344515D01*
X214538839Y-125297150D01*
X214643903Y-125136337D01*
X214743793Y-124908611D01*
X214804838Y-124667551D01*
X214825373Y-124419730D01*
X214804838Y-124171909D01*
X214743793Y-123930849D01*
X214643903Y-123703123D01*
X214538839Y-123542310D01*
X214507894Y-123494944D01*
X214339480Y-123311997D01*
X214265397Y-123254336D01*
X214143239Y-123159256D01*
X214143238Y-123159255D01*
X213924539Y-123040901D01*
X213924537Y-123040900D01*
X213689348Y-122960160D01*
X213689339Y-122960158D01*
X213640566Y-122952019D01*
X213444065Y-122919230D01*
X213195395Y-122919230D01*
X213031683Y-122946548D01*
X212950120Y-122960158D01*
X212950111Y-122960160D01*
X212714922Y-123040900D01*
X212714920Y-123040901D01*
X212496221Y-123159255D01*
X212496220Y-123159256D01*
X212299979Y-123311997D01*
X212131565Y-123494944D01*
X211995556Y-123703123D01*
X211895668Y-123930845D01*
X211895665Y-123930852D01*
X211834623Y-124171901D01*
X211834622Y-124171907D01*
X211834622Y-124171909D01*
X211814087Y-124419730D01*
X204237786Y-124419730D01*
X204222593Y-124402406D01*
X204000400Y-124207549D01*
X204000396Y-124207546D01*
X203754666Y-124043355D01*
X203489617Y-123912648D01*
X203489611Y-123912645D01*
X203489606Y-123912643D01*
X203489603Y-123912642D01*
X203209767Y-123817650D01*
X203209761Y-123817648D01*
X203209759Y-123817648D01*
X203126619Y-123801110D01*
X202919913Y-123759993D01*
X202919898Y-123759991D01*
X202625003Y-123740663D01*
X202624997Y-123740663D01*
X202330101Y-123759991D01*
X202330086Y-123759993D01*
X202081810Y-123809379D01*
X202040241Y-123817648D01*
X202040239Y-123817648D01*
X202040232Y-123817650D01*
X201760396Y-123912642D01*
X201760382Y-123912648D01*
X201495334Y-124043355D01*
X201249603Y-124207546D01*
X201249599Y-124207549D01*
X201027406Y-124402406D01*
X200832549Y-124624599D01*
X200832546Y-124624603D01*
X200668355Y-124870334D01*
X200537648Y-125135382D01*
X200537642Y-125135396D01*
X200442650Y-125415232D01*
X200442648Y-125415242D01*
X200384993Y-125705086D01*
X200384991Y-125705101D01*
X200365663Y-125999996D01*
X200365663Y-126000003D01*
X197259337Y-126000003D01*
X197259337Y-126000000D01*
X197240008Y-125705097D01*
X197235056Y-125680204D01*
X197218128Y-125595101D01*
X197182352Y-125415241D01*
X197087355Y-125135389D01*
X196956643Y-124870332D01*
X196792453Y-124624603D01*
X196792450Y-124624599D01*
X196597593Y-124402406D01*
X196375400Y-124207549D01*
X196375396Y-124207546D01*
X196129666Y-124043355D01*
X195864617Y-123912648D01*
X195864611Y-123912645D01*
X195864606Y-123912643D01*
X195864603Y-123912642D01*
X195584767Y-123817650D01*
X195584761Y-123817648D01*
X195584759Y-123817648D01*
X195501619Y-123801110D01*
X195294913Y-123759993D01*
X195294898Y-123759991D01*
X195000003Y-123740663D01*
X194999997Y-123740663D01*
X194705101Y-123759991D01*
X194705086Y-123759993D01*
X194456810Y-123809379D01*
X194415241Y-123817648D01*
X194415239Y-123817648D01*
X194415232Y-123817650D01*
X194135396Y-123912642D01*
X194135382Y-123912648D01*
X193870334Y-124043355D01*
X193624603Y-124207546D01*
X193624599Y-124207549D01*
X193402406Y-124402406D01*
X193207549Y-124624599D01*
X193207546Y-124624603D01*
X193043355Y-124870334D01*
X192912648Y-125135382D01*
X192912642Y-125135396D01*
X192817650Y-125415232D01*
X192817648Y-125415242D01*
X192759993Y-125705086D01*
X192759991Y-125705101D01*
X192740663Y-125999996D01*
X192740663Y-126000003D01*
X187162127Y-126000003D01*
X187169337Y-125890000D01*
X187150008Y-125595097D01*
X187092352Y-125305241D01*
X187089605Y-125297150D01*
X187034695Y-125135389D01*
X186997355Y-125025389D01*
X186866643Y-124760332D01*
X186702453Y-124514603D01*
X186702450Y-124514599D01*
X186507593Y-124292406D01*
X186285400Y-124097549D01*
X186285396Y-124097546D01*
X186039666Y-123933355D01*
X185794025Y-123812219D01*
X185774611Y-123802645D01*
X185774606Y-123802643D01*
X185774603Y-123802642D01*
X185494767Y-123707650D01*
X185494761Y-123707648D01*
X185494759Y-123707648D01*
X185411619Y-123691110D01*
X185204913Y-123649993D01*
X185204898Y-123649991D01*
X184910003Y-123630663D01*
X184909997Y-123630663D01*
X184615101Y-123649991D01*
X184615086Y-123649993D01*
X184366810Y-123699379D01*
X184325241Y-123707648D01*
X184325239Y-123707648D01*
X184325232Y-123707650D01*
X184045396Y-123802642D01*
X184045382Y-123802648D01*
X183780334Y-123933355D01*
X183534603Y-124097546D01*
X183534599Y-124097549D01*
X183312406Y-124292406D01*
X183117549Y-124514599D01*
X183117546Y-124514603D01*
X182953355Y-124760334D01*
X182822648Y-125025382D01*
X182822642Y-125025396D01*
X182727650Y-125305232D01*
X182727648Y-125305242D01*
X182669993Y-125595086D01*
X182669991Y-125595101D01*
X182650663Y-125889996D01*
X182650663Y-125890003D01*
X179544337Y-125890003D01*
X179544337Y-125890000D01*
X179525008Y-125595097D01*
X179467352Y-125305241D01*
X179464605Y-125297150D01*
X179409695Y-125135389D01*
X179372355Y-125025389D01*
X179241643Y-124760332D01*
X179077453Y-124514603D01*
X179077450Y-124514599D01*
X178882593Y-124292406D01*
X178660400Y-124097549D01*
X178660396Y-124097546D01*
X178414666Y-123933355D01*
X178169025Y-123812219D01*
X178149611Y-123802645D01*
X178149606Y-123802643D01*
X178149603Y-123802642D01*
X177869767Y-123707650D01*
X177869761Y-123707648D01*
X177869759Y-123707648D01*
X177786619Y-123691110D01*
X177579913Y-123649993D01*
X177579898Y-123649991D01*
X177285003Y-123630663D01*
X177284997Y-123630663D01*
X176990101Y-123649991D01*
X176990086Y-123649993D01*
X176741810Y-123699379D01*
X176700241Y-123707648D01*
X176700239Y-123707648D01*
X176700232Y-123707650D01*
X176420396Y-123802642D01*
X176420382Y-123802648D01*
X176155334Y-123933355D01*
X175909603Y-124097546D01*
X175909599Y-124097549D01*
X175687406Y-124292406D01*
X175492549Y-124514599D01*
X175492546Y-124514603D01*
X175328355Y-124760334D01*
X175197648Y-125025382D01*
X175197642Y-125025396D01*
X175102650Y-125305232D01*
X175102648Y-125305242D01*
X175044993Y-125595086D01*
X175044991Y-125595101D01*
X175025663Y-125889996D01*
X175025663Y-125890003D01*
X170950409Y-125890003D01*
X170950409Y-125472010D01*
X170950450Y-125471866D01*
X170950449Y-125419726D01*
X170950450Y-125419726D01*
X170950447Y-125241362D01*
X170915475Y-124886352D01*
X170845875Y-124536480D01*
X170742317Y-124195114D01*
X170679455Y-124043357D01*
X170605802Y-123865547D01*
X170605797Y-123865537D01*
X170517167Y-123699728D01*
X170437635Y-123550938D01*
X170360499Y-123435498D01*
X170239448Y-123254336D01*
X170239444Y-123254331D01*
X170013136Y-122978578D01*
X169760890Y-122726335D01*
X169753156Y-122719988D01*
X169485152Y-122500043D01*
X169485142Y-122500036D01*
X169485135Y-122500030D01*
X169257797Y-122348128D01*
X169188528Y-122301844D01*
X168873920Y-122133683D01*
X168797669Y-122102099D01*
X168544346Y-121997169D01*
X168544341Y-121997167D01*
X168544340Y-121997167D01*
X168202994Y-121893619D01*
X168202985Y-121893616D01*
X168202979Y-121893615D01*
X167853106Y-121824019D01*
X167853102Y-121824018D01*
X167853099Y-121824018D01*
X167498100Y-121789051D01*
X167498087Y-121789050D01*
X167359612Y-121789050D01*
X164806187Y-121789050D01*
X164793837Y-121788443D01*
X164656372Y-121774904D01*
X164632147Y-121770086D01*
X164505908Y-121731793D01*
X164483089Y-121722341D01*
X164366752Y-121660160D01*
X164346215Y-121646438D01*
X164244240Y-121562753D01*
X164226774Y-121545288D01*
X164143082Y-121443315D01*
X164129364Y-121422787D01*
X164067171Y-121306441D01*
X164057722Y-121283629D01*
X164019423Y-121157395D01*
X164014603Y-121133170D01*
X164001107Y-120996207D01*
X164000500Y-120983851D01*
X164000500Y-119540000D01*
X177915149Y-119540000D01*
X177934517Y-119761374D01*
X177992031Y-119976023D01*
X177992033Y-119976027D01*
X178085946Y-120177424D01*
X178085947Y-120177426D01*
X178204151Y-120346240D01*
X178204153Y-120346240D01*
X178845347Y-119705045D01*
X178885124Y-119773940D01*
X178956060Y-119844876D01*
X179024952Y-119884651D01*
X178383758Y-120525845D01*
X178552575Y-120644053D01*
X178552574Y-120644053D01*
X178753972Y-120737966D01*
X178753976Y-120737968D01*
X178968625Y-120795482D01*
X179190000Y-120814850D01*
X179411374Y-120795482D01*
X179626023Y-120737968D01*
X179626027Y-120737966D01*
X179827425Y-120644053D01*
X179996240Y-120525846D01*
X179996240Y-120525844D01*
X179355047Y-119884651D01*
X179423940Y-119844876D01*
X179494876Y-119773940D01*
X179534651Y-119705047D01*
X180175844Y-120346240D01*
X180175846Y-120346240D01*
X180294053Y-120177425D01*
X180387966Y-119976027D01*
X180387968Y-119976023D01*
X180445482Y-119761374D01*
X180461408Y-119579346D01*
X180476833Y-119539913D01*
X180463136Y-119513149D01*
X180461408Y-119500653D01*
X180445482Y-119318625D01*
X180387968Y-119103976D01*
X180387966Y-119103972D01*
X180294052Y-118902574D01*
X180175846Y-118733758D01*
X180175845Y-118733758D01*
X179534651Y-119374952D01*
X179494876Y-119306060D01*
X179423940Y-119235124D01*
X179355045Y-119195347D01*
X179996240Y-118554153D01*
X179996240Y-118554151D01*
X179827426Y-118435947D01*
X179827424Y-118435946D01*
X179626027Y-118342033D01*
X179626023Y-118342031D01*
X179411374Y-118284517D01*
X179190000Y-118265149D01*
X178968625Y-118284517D01*
X178753976Y-118342031D01*
X178753972Y-118342033D01*
X178552571Y-118435948D01*
X178383758Y-118554151D01*
X178383758Y-118554152D01*
X179024953Y-119195348D01*
X178956060Y-119235124D01*
X178885124Y-119306060D01*
X178845348Y-119374953D01*
X178204152Y-118733758D01*
X178204151Y-118733758D01*
X178085948Y-118902571D01*
X177992033Y-119103972D01*
X177992031Y-119103976D01*
X177934517Y-119318625D01*
X177915149Y-119540000D01*
X164000500Y-119540000D01*
X164000500Y-99774773D01*
X164817500Y-99774773D01*
X164845229Y-99878257D01*
X164845230Y-99878260D01*
X164898796Y-99971039D01*
X164898804Y-99971049D01*
X165625850Y-100698095D01*
X165625855Y-100698099D01*
X165625857Y-100698101D01*
X165718642Y-100751670D01*
X165746372Y-100759100D01*
X165822131Y-100779400D01*
X168234307Y-100779400D01*
X168302428Y-100799402D01*
X168340994Y-100838364D01*
X168363469Y-100874134D01*
X168407740Y-100918405D01*
X168441766Y-100980717D01*
X168436701Y-101051532D01*
X168407740Y-101096595D01*
X168363469Y-101140865D01*
X168363468Y-101140867D01*
X168267618Y-101293411D01*
X168267617Y-101293414D01*
X168215867Y-101441310D01*
X168208113Y-101463469D01*
X168187941Y-101642500D01*
X168204348Y-101788117D01*
X168192098Y-101858049D01*
X168168235Y-101891319D01*
X165000404Y-105059150D01*
X165000396Y-105059160D01*
X164946832Y-105151936D01*
X164921170Y-105247708D01*
X164921169Y-105247711D01*
X164919100Y-105255428D01*
X164919100Y-113033573D01*
X164946829Y-113137057D01*
X164946830Y-113137060D01*
X165000396Y-113229839D01*
X165000404Y-113229849D01*
X166981149Y-115210594D01*
X166981152Y-115210596D01*
X166981157Y-115210601D01*
X167073943Y-115264170D01*
X167073944Y-115264170D01*
X167073946Y-115264171D01*
X167177426Y-115291899D01*
X167177430Y-115291900D01*
X167177431Y-115291900D01*
X178124266Y-115291900D01*
X178192387Y-115311902D01*
X178213361Y-115328805D01*
X179457657Y-116573101D01*
X179491683Y-116635413D01*
X179489137Y-116698771D01*
X179458206Y-116800737D01*
X179438582Y-116999996D01*
X179438582Y-117000003D01*
X179458206Y-117199261D01*
X179458206Y-117199263D01*
X179516332Y-117390877D01*
X179516334Y-117390883D01*
X179610720Y-117567466D01*
X179610722Y-117567469D01*
X179737748Y-117722252D01*
X179892531Y-117849278D01*
X180069120Y-117943667D01*
X180260731Y-118001792D01*
X180260735Y-118001792D01*
X180260737Y-118001793D01*
X180459997Y-118021418D01*
X180460000Y-118021418D01*
X180460003Y-118021418D01*
X180659261Y-118001793D01*
X180659263Y-118001793D01*
X180659264Y-118001792D01*
X180659269Y-118001792D01*
X180850880Y-117943667D01*
X181027469Y-117849278D01*
X181117168Y-117775664D01*
X181182514Y-117747911D01*
X181252492Y-117759893D01*
X181304884Y-117807806D01*
X181323100Y-117873064D01*
X181323100Y-118529373D01*
X181303098Y-118597494D01*
X181256498Y-118640494D01*
X181162533Y-118690720D01*
X181007748Y-118817748D01*
X180880720Y-118972533D01*
X180786334Y-119149116D01*
X180786332Y-119149122D01*
X180728206Y-119340736D01*
X180728206Y-119340738D01*
X180712322Y-119502021D01*
X180697016Y-119539926D01*
X180710459Y-119565502D01*
X180712322Y-119577978D01*
X180728206Y-119739261D01*
X180728206Y-119739263D01*
X180786332Y-119930877D01*
X180786334Y-119930883D01*
X180869261Y-120086027D01*
X180880722Y-120107469D01*
X181007748Y-120262252D01*
X181162531Y-120389278D01*
X181339120Y-120483667D01*
X181530731Y-120541792D01*
X181530735Y-120541792D01*
X181530737Y-120541793D01*
X181729997Y-120561418D01*
X181730000Y-120561418D01*
X181730003Y-120561418D01*
X181929261Y-120541793D01*
X181929263Y-120541793D01*
X181929264Y-120541792D01*
X181929269Y-120541792D01*
X182120880Y-120483667D01*
X182297469Y-120389278D01*
X182452252Y-120262252D01*
X182579278Y-120107469D01*
X182673667Y-119930880D01*
X182731792Y-119739269D01*
X182736934Y-119687061D01*
X182751418Y-119540003D01*
X182751418Y-119539996D01*
X182731793Y-119340738D01*
X182731793Y-119340736D01*
X182731792Y-119340733D01*
X182731792Y-119340731D01*
X182673667Y-119149120D01*
X182579278Y-118972531D01*
X182452252Y-118817748D01*
X182297469Y-118690722D01*
X182297467Y-118690721D01*
X182297466Y-118690720D01*
X182203502Y-118640494D01*
X182152855Y-118590741D01*
X182136900Y-118529373D01*
X182136900Y-117873064D01*
X182156902Y-117804943D01*
X182210558Y-117758450D01*
X182280832Y-117748346D01*
X182342831Y-117775664D01*
X182432531Y-117849278D01*
X182609120Y-117943667D01*
X182800731Y-118001792D01*
X182800735Y-118001792D01*
X182800737Y-118001793D01*
X182999997Y-118021418D01*
X183000000Y-118021418D01*
X183000003Y-118021418D01*
X183199261Y-118001793D01*
X183199263Y-118001793D01*
X183199264Y-118001792D01*
X183199269Y-118001792D01*
X183390880Y-117943667D01*
X183567469Y-117849278D01*
X183722252Y-117722252D01*
X183849278Y-117567469D01*
X183943667Y-117390880D01*
X184001792Y-117199269D01*
X184010584Y-117110000D01*
X184021418Y-117000003D01*
X184021418Y-116999996D01*
X184001793Y-116800738D01*
X184001793Y-116800736D01*
X184001792Y-116800733D01*
X184001792Y-116800731D01*
X183943667Y-116609120D01*
X183849278Y-116432531D01*
X183722252Y-116277748D01*
X183567469Y-116150722D01*
X183567467Y-116150721D01*
X183567466Y-116150720D01*
X183390883Y-116056334D01*
X183390877Y-116056332D01*
X183199262Y-115998206D01*
X183000003Y-115978582D01*
X182999997Y-115978582D01*
X182800738Y-115998206D01*
X182800736Y-115998206D01*
X182609122Y-116056332D01*
X182609116Y-116056334D01*
X182432533Y-116150720D01*
X182403076Y-116174895D01*
X182378510Y-116195056D01*
X182342833Y-116224335D01*
X182277485Y-116252088D01*
X182207507Y-116240106D01*
X182155116Y-116192193D01*
X182136900Y-116126935D01*
X182136900Y-115614431D01*
X182136899Y-115614427D01*
X182109170Y-115510944D01*
X182109169Y-115510941D01*
X182102840Y-115499980D01*
X182055601Y-115418157D01*
X181179237Y-114541793D01*
X181145214Y-114479483D01*
X181150278Y-114408668D01*
X181192825Y-114351832D01*
X181259345Y-114327021D01*
X181268334Y-114326700D01*
X196067866Y-114326700D01*
X196135987Y-114346702D01*
X196156961Y-114363605D01*
X196682995Y-114889639D01*
X196717021Y-114951951D01*
X196719900Y-114978734D01*
X196719900Y-116528543D01*
X196715607Y-116561153D01*
X196706568Y-116594888D01*
X196706567Y-116594892D01*
X196701300Y-116614546D01*
X196701300Y-117605457D01*
X196729029Y-117708941D01*
X196729030Y-117708944D01*
X196782596Y-117801723D01*
X196782604Y-117801733D01*
X197154475Y-118173604D01*
X197188501Y-118235916D01*
X197183436Y-118306731D01*
X197140889Y-118363567D01*
X197074369Y-118388378D01*
X197054399Y-118388220D01*
X196905000Y-118375149D01*
X196683625Y-118394517D01*
X196468976Y-118452031D01*
X196468972Y-118452033D01*
X196267571Y-118545948D01*
X196098758Y-118664151D01*
X196098758Y-118664153D01*
X196739953Y-119305348D01*
X196671060Y-119345124D01*
X196600124Y-119416060D01*
X196560348Y-119484953D01*
X195919152Y-118843758D01*
X195919151Y-118843758D01*
X195800948Y-119012571D01*
X195707033Y-119213972D01*
X195707031Y-119213976D01*
X195649517Y-119428625D01*
X195630149Y-119650000D01*
X195649517Y-119871374D01*
X195707031Y-120086023D01*
X195707033Y-120086027D01*
X195800946Y-120287424D01*
X195800947Y-120287426D01*
X195919151Y-120456240D01*
X195919153Y-120456240D01*
X196560347Y-119815045D01*
X196600124Y-119883940D01*
X196671060Y-119954876D01*
X196739952Y-119994651D01*
X196098758Y-120635845D01*
X196267575Y-120754053D01*
X196267574Y-120754053D01*
X196468972Y-120847966D01*
X196468976Y-120847968D01*
X196683625Y-120905482D01*
X196905000Y-120924850D01*
X197126374Y-120905482D01*
X197341023Y-120847968D01*
X197341027Y-120847966D01*
X197542425Y-120754053D01*
X197711240Y-120635846D01*
X197711240Y-120635844D01*
X197070047Y-119994651D01*
X197138940Y-119954876D01*
X197209876Y-119883940D01*
X197249651Y-119815047D01*
X197890844Y-120456240D01*
X197890846Y-120456240D01*
X198009053Y-120287425D01*
X198102966Y-120086027D01*
X198102968Y-120086023D01*
X198160482Y-119871374D01*
X198176408Y-119689346D01*
X198202272Y-119623228D01*
X198259775Y-119581589D01*
X198330662Y-119577648D01*
X198392427Y-119612657D01*
X198425459Y-119675502D01*
X198427322Y-119687978D01*
X198443206Y-119849261D01*
X198443206Y-119849263D01*
X198501332Y-120040877D01*
X198501334Y-120040883D01*
X198595720Y-120217466D01*
X198595722Y-120217469D01*
X198722748Y-120372252D01*
X198877531Y-120499278D01*
X198877533Y-120499279D01*
X198993786Y-120561418D01*
X199054120Y-120593667D01*
X199245731Y-120651792D01*
X199245735Y-120651792D01*
X199245737Y-120651793D01*
X199444997Y-120671418D01*
X199445000Y-120671418D01*
X199445003Y-120671418D01*
X199644261Y-120651793D01*
X199644263Y-120651793D01*
X199644264Y-120651792D01*
X199644269Y-120651792D01*
X199835880Y-120593667D01*
X200012469Y-120499278D01*
X200167252Y-120372252D01*
X200294278Y-120217469D01*
X200388667Y-120040880D01*
X200446792Y-119849269D01*
X200457626Y-119739269D01*
X200466418Y-119650003D01*
X200466418Y-119649996D01*
X200446793Y-119450738D01*
X200446793Y-119450736D01*
X200446792Y-119450733D01*
X200446792Y-119450731D01*
X200388667Y-119259120D01*
X200294278Y-119082531D01*
X200167252Y-118927748D01*
X200012469Y-118800722D01*
X200012467Y-118800721D01*
X200012466Y-118800720D01*
X199835883Y-118706334D01*
X199835877Y-118706332D01*
X199696832Y-118664153D01*
X199644269Y-118648208D01*
X199644268Y-118648207D01*
X199644262Y-118648206D01*
X199445003Y-118628582D01*
X199444997Y-118628582D01*
X199245738Y-118648206D01*
X199245736Y-118648206D01*
X199054122Y-118706332D01*
X199054116Y-118706334D01*
X198995754Y-118737530D01*
X198926248Y-118752002D01*
X198859952Y-118726598D01*
X198847263Y-118715503D01*
X198422622Y-118290862D01*
X198388596Y-118228550D01*
X198393661Y-118157735D01*
X198436208Y-118100899D01*
X198475140Y-118081192D01*
X198565880Y-118053667D01*
X198742469Y-117959278D01*
X198897252Y-117832252D01*
X199024278Y-117677469D01*
X199118667Y-117500880D01*
X199176792Y-117309269D01*
X199187626Y-117199269D01*
X199196418Y-117110003D01*
X199693582Y-117110003D01*
X199713206Y-117309261D01*
X199713206Y-117309263D01*
X199771332Y-117500877D01*
X199771334Y-117500883D01*
X199865720Y-117677466D01*
X199865722Y-117677469D01*
X199992748Y-117832252D01*
X200147531Y-117959278D01*
X200147533Y-117959279D01*
X200263786Y-118021418D01*
X200324120Y-118053667D01*
X200515731Y-118111792D01*
X200515735Y-118111792D01*
X200515737Y-118111793D01*
X200714997Y-118131418D01*
X200715000Y-118131418D01*
X200715003Y-118131418D01*
X200914261Y-118111793D01*
X200914263Y-118111793D01*
X200914264Y-118111792D01*
X200914269Y-118111792D01*
X201105880Y-118053667D01*
X201282469Y-117959278D01*
X201437252Y-117832252D01*
X201564278Y-117677469D01*
X201658667Y-117500880D01*
X201716792Y-117309269D01*
X201727626Y-117199269D01*
X201736418Y-117110003D01*
X201736418Y-117109996D01*
X201716793Y-116910738D01*
X201716793Y-116910736D01*
X201716792Y-116910733D01*
X201716792Y-116910731D01*
X201658667Y-116719120D01*
X201564278Y-116542531D01*
X201437252Y-116387748D01*
X201282469Y-116260722D01*
X201282467Y-116260721D01*
X201282466Y-116260720D01*
X201105883Y-116166334D01*
X201105877Y-116166332D01*
X200914262Y-116108206D01*
X200715003Y-116088582D01*
X200714997Y-116088582D01*
X200515738Y-116108206D01*
X200515736Y-116108206D01*
X200324122Y-116166332D01*
X200324116Y-116166334D01*
X200147533Y-116260720D01*
X199992748Y-116387748D01*
X199865720Y-116542533D01*
X199771334Y-116719116D01*
X199771332Y-116719122D01*
X199713206Y-116910736D01*
X199713206Y-116910738D01*
X199693582Y-117109996D01*
X199693582Y-117110003D01*
X199196418Y-117110003D01*
X199196418Y-117109996D01*
X199176793Y-116910738D01*
X199176793Y-116910736D01*
X199176792Y-116910733D01*
X199176792Y-116910731D01*
X199118667Y-116719120D01*
X199024278Y-116542531D01*
X198897252Y-116387748D01*
X198742469Y-116260722D01*
X198742467Y-116260721D01*
X198742466Y-116260720D01*
X198648502Y-116210494D01*
X198597855Y-116160741D01*
X198581900Y-116099373D01*
X198581900Y-114533431D01*
X198581899Y-114533427D01*
X198554171Y-114429945D01*
X198524660Y-114378830D01*
X198524658Y-114378827D01*
X198500601Y-114337157D01*
X197790839Y-113627395D01*
X197756813Y-113565083D01*
X197761878Y-113494268D01*
X197804425Y-113437432D01*
X197870945Y-113412621D01*
X197879934Y-113412300D01*
X201803170Y-113412300D01*
X201906658Y-113384570D01*
X201999443Y-113331001D01*
X202985440Y-112345003D01*
X212215663Y-112345003D01*
X212234991Y-112639898D01*
X212234993Y-112639913D01*
X212292648Y-112929757D01*
X212292650Y-112929767D01*
X212387642Y-113209603D01*
X212387648Y-113209617D01*
X212518355Y-113474666D01*
X212682546Y-113720396D01*
X212682549Y-113720400D01*
X212877406Y-113942593D01*
X213099599Y-114137450D01*
X213099603Y-114137453D01*
X213345331Y-114301643D01*
X213610389Y-114432355D01*
X213890241Y-114527352D01*
X214140789Y-114577189D01*
X214180086Y-114585006D01*
X214180088Y-114585006D01*
X214180097Y-114585008D01*
X214348613Y-114596053D01*
X214474997Y-114604337D01*
X214475000Y-114604337D01*
X214475003Y-114604337D01*
X214585588Y-114597088D01*
X214769903Y-114585008D01*
X215059759Y-114527352D01*
X215339611Y-114432355D01*
X215604669Y-114301643D01*
X215850397Y-114137453D01*
X216072593Y-113942593D01*
X216267453Y-113720397D01*
X216431643Y-113474669D01*
X216562355Y-113209611D01*
X216657352Y-112929759D01*
X216715008Y-112639903D01*
X216734337Y-112345000D01*
X216715008Y-112050097D01*
X216657352Y-111760241D01*
X216562355Y-111480389D01*
X216431643Y-111215332D01*
X216267453Y-110969603D01*
X216267450Y-110969599D01*
X216072593Y-110747406D01*
X215850400Y-110552549D01*
X215850396Y-110552546D01*
X215604666Y-110388355D01*
X215339617Y-110257648D01*
X215339611Y-110257645D01*
X215339606Y-110257643D01*
X215339603Y-110257642D01*
X215059767Y-110162650D01*
X215059761Y-110162648D01*
X215059759Y-110162648D01*
X214976619Y-110146110D01*
X214769913Y-110104993D01*
X214769898Y-110104991D01*
X214475003Y-110085663D01*
X214474997Y-110085663D01*
X214180101Y-110104991D01*
X214180086Y-110104993D01*
X213931810Y-110154379D01*
X213890241Y-110162648D01*
X213890239Y-110162648D01*
X213890232Y-110162650D01*
X213610396Y-110257642D01*
X213610382Y-110257648D01*
X213345334Y-110388355D01*
X213099603Y-110552546D01*
X213099599Y-110552549D01*
X212877406Y-110747406D01*
X212682549Y-110969599D01*
X212682546Y-110969603D01*
X212518355Y-111215334D01*
X212387648Y-111480382D01*
X212387642Y-111480396D01*
X212292650Y-111760232D01*
X212292648Y-111760242D01*
X212234993Y-112050086D01*
X212234991Y-112050101D01*
X212215663Y-112344996D01*
X212215663Y-112345003D01*
X202985440Y-112345003D01*
X205158103Y-110172339D01*
X205220413Y-110138316D01*
X205283768Y-110140861D01*
X205385731Y-110171792D01*
X205385736Y-110171792D01*
X205385738Y-110171793D01*
X205584997Y-110191418D01*
X205585000Y-110191418D01*
X205585003Y-110191418D01*
X205784261Y-110171793D01*
X205784263Y-110171793D01*
X205784264Y-110171792D01*
X205784269Y-110171792D01*
X205975880Y-110113667D01*
X206152469Y-110019278D01*
X206307252Y-109892252D01*
X206383614Y-109799202D01*
X206442289Y-109759234D01*
X206513260Y-109757332D01*
X206513625Y-109757430D01*
X206598226Y-109780099D01*
X206598230Y-109780100D01*
X206705370Y-109780100D01*
X206764955Y-109764134D01*
X206816835Y-109750233D01*
X206817794Y-109753813D01*
X206871220Y-109747740D01*
X206934900Y-109779131D01*
X206971500Y-109839967D01*
X206969399Y-109910932D01*
X206963801Y-109925121D01*
X206927035Y-110003966D01*
X206927031Y-110003976D01*
X206869517Y-110218625D01*
X206850149Y-110440000D01*
X206869517Y-110661374D01*
X206927031Y-110876023D01*
X206927033Y-110876027D01*
X207020946Y-111077424D01*
X207020947Y-111077426D01*
X207139151Y-111246240D01*
X207139154Y-111246240D01*
X207780347Y-110605046D01*
X207820124Y-110673940D01*
X207891060Y-110744876D01*
X207959952Y-110784651D01*
X207318758Y-111425845D01*
X207487575Y-111544053D01*
X207487574Y-111544053D01*
X207688972Y-111637966D01*
X207688976Y-111637968D01*
X207903625Y-111695482D01*
X208125000Y-111714850D01*
X208346374Y-111695482D01*
X208561023Y-111637968D01*
X208561027Y-111637966D01*
X208762425Y-111544053D01*
X208931240Y-111425846D01*
X208931240Y-111425844D01*
X208290047Y-110784651D01*
X208358940Y-110744876D01*
X208429876Y-110673940D01*
X208469651Y-110605047D01*
X209110844Y-111246240D01*
X209110846Y-111246240D01*
X209229053Y-111077425D01*
X209322966Y-110876027D01*
X209322968Y-110876023D01*
X209380482Y-110661374D01*
X209399850Y-110440000D01*
X209380482Y-110218625D01*
X209322968Y-110003976D01*
X209322966Y-110003972D01*
X209229052Y-109802574D01*
X209110846Y-109633758D01*
X209110845Y-109633758D01*
X208469651Y-110274952D01*
X208429876Y-110206060D01*
X208358940Y-110135124D01*
X208290046Y-110095347D01*
X208931240Y-109454154D01*
X208931240Y-109454151D01*
X208762426Y-109335947D01*
X208762424Y-109335946D01*
X208561027Y-109242033D01*
X208561023Y-109242031D01*
X208346371Y-109184516D01*
X208346365Y-109184515D01*
X208164346Y-109168590D01*
X208124913Y-109153165D01*
X208098149Y-109166863D01*
X208085653Y-109168590D01*
X207903634Y-109184515D01*
X207903628Y-109184516D01*
X207691632Y-109241320D01*
X207620655Y-109239630D01*
X207561860Y-109199836D01*
X207533912Y-109134571D01*
X207545686Y-109064558D01*
X207569925Y-109030518D01*
X207622994Y-108977449D01*
X207698102Y-108902340D01*
X207760412Y-108868317D01*
X207823772Y-108870863D01*
X207925727Y-108901791D01*
X207925728Y-108901791D01*
X207925731Y-108901792D01*
X207925735Y-108901792D01*
X207925739Y-108901793D01*
X207986535Y-108907780D01*
X208087021Y-108917677D01*
X208124926Y-108932982D01*
X208150502Y-108919540D01*
X208162970Y-108917678D01*
X208291697Y-108904999D01*
X208324260Y-108901793D01*
X208324263Y-108901793D01*
X208324264Y-108901792D01*
X208324269Y-108901792D01*
X208515880Y-108843667D01*
X208692469Y-108749278D01*
X208847252Y-108622252D01*
X208974278Y-108467469D01*
X209068667Y-108290880D01*
X209126792Y-108099269D01*
X209127454Y-108092550D01*
X209146418Y-107900003D01*
X209146418Y-107899996D01*
X209126793Y-107700738D01*
X209126793Y-107700736D01*
X209126792Y-107700733D01*
X209126792Y-107700731D01*
X209068667Y-107509120D01*
X209063988Y-107500367D01*
X208979072Y-107341500D01*
X208974278Y-107332531D01*
X208847252Y-107177748D01*
X208692469Y-107050722D01*
X208692467Y-107050721D01*
X208692466Y-107050720D01*
X208515883Y-106956334D01*
X208515877Y-106956332D01*
X208363979Y-106910254D01*
X208324269Y-106898208D01*
X208324268Y-106898207D01*
X208324262Y-106898206D01*
X208125003Y-106878582D01*
X208124997Y-106878582D01*
X207925738Y-106898206D01*
X207925736Y-106898206D01*
X207734122Y-106956332D01*
X207734116Y-106956334D01*
X207557533Y-107050720D01*
X207402748Y-107177748D01*
X207275720Y-107332533D01*
X207181334Y-107509116D01*
X207181332Y-107509122D01*
X207123206Y-107700736D01*
X207123206Y-107700738D01*
X207103582Y-107899996D01*
X207103582Y-107900003D01*
X207123206Y-108099263D01*
X207154136Y-108201228D01*
X207154769Y-108272221D01*
X207122657Y-108326897D01*
X207063437Y-108386118D01*
X207001125Y-108420143D01*
X206930310Y-108415079D01*
X206885247Y-108386119D01*
X206276727Y-107777599D01*
X206276725Y-107777598D01*
X206276723Y-107777596D01*
X206183943Y-107724030D01*
X206165959Y-107719211D01*
X206105337Y-107682259D01*
X206074316Y-107618398D01*
X206082746Y-107547904D01*
X206127949Y-107493157D01*
X206139177Y-107486383D01*
X206152463Y-107479281D01*
X206152465Y-107479280D01*
X206152464Y-107479280D01*
X206152469Y-107479278D01*
X206307252Y-107352252D01*
X206434278Y-107197469D01*
X206528667Y-107020880D01*
X206586792Y-106829269D01*
X206588950Y-106807357D01*
X206606418Y-106630003D01*
X206606418Y-106629996D01*
X206586793Y-106430738D01*
X206586793Y-106430736D01*
X206586792Y-106430733D01*
X206586792Y-106430731D01*
X206528667Y-106239120D01*
X206523988Y-106230367D01*
X206455810Y-106102814D01*
X206434278Y-106062531D01*
X206307252Y-105907748D01*
X206152469Y-105780722D01*
X206152467Y-105780721D01*
X206152466Y-105780720D01*
X205975883Y-105686334D01*
X205975877Y-105686332D01*
X205819713Y-105638960D01*
X205784269Y-105628208D01*
X205784268Y-105628207D01*
X205784262Y-105628206D01*
X205585003Y-105608582D01*
X205584997Y-105608582D01*
X205385738Y-105628206D01*
X205385736Y-105628206D01*
X205194122Y-105686332D01*
X205194116Y-105686334D01*
X205017533Y-105780720D01*
X204862748Y-105907748D01*
X204735720Y-106062533D01*
X204641334Y-106239116D01*
X204641332Y-106239122D01*
X204583206Y-106430736D01*
X204583206Y-106430738D01*
X204563582Y-106629996D01*
X204563582Y-106630003D01*
X204583206Y-106829261D01*
X204583206Y-106829263D01*
X204641332Y-107020877D01*
X204641334Y-107020883D01*
X204735687Y-107197404D01*
X204735722Y-107197469D01*
X204862748Y-107352252D01*
X205017531Y-107479278D01*
X205017532Y-107479278D01*
X205017534Y-107479280D01*
X205017536Y-107479281D01*
X205030823Y-107486383D01*
X205081472Y-107536134D01*
X205097182Y-107605371D01*
X205072967Y-107672110D01*
X205016513Y-107715163D01*
X205004043Y-107719211D01*
X204986056Y-107724030D01*
X204900881Y-107773206D01*
X204893273Y-107777599D01*
X204893271Y-107777600D01*
X204893265Y-107777605D01*
X204192604Y-108478266D01*
X204192596Y-108478276D01*
X204139031Y-108571053D01*
X204136333Y-108581122D01*
X204114663Y-108662000D01*
X204112403Y-108670433D01*
X204112400Y-108670444D01*
X204111300Y-108674545D01*
X204111300Y-109369488D01*
X204091298Y-109437609D01*
X204074395Y-109458583D01*
X201428583Y-112104395D01*
X201366271Y-112138421D01*
X201339488Y-112141300D01*
X192474214Y-112141300D01*
X192406093Y-112121298D01*
X192359600Y-112067642D01*
X192349496Y-111997368D01*
X192353640Y-111978724D01*
X192393414Y-111847606D01*
X192393416Y-111847594D01*
X192407999Y-111699526D01*
X192408000Y-111699508D01*
X192408000Y-111277000D01*
X187592000Y-111277000D01*
X187592000Y-111699526D01*
X187606583Y-111847594D01*
X187606585Y-111847606D01*
X187646360Y-111978724D01*
X187646994Y-112049718D01*
X187609145Y-112109784D01*
X187544830Y-112139852D01*
X187525786Y-112141300D01*
X179626993Y-112141300D01*
X179558872Y-112121298D01*
X179512379Y-112067642D01*
X179502275Y-111997368D01*
X179503414Y-111990718D01*
X179511499Y-111950070D01*
X179511500Y-111950067D01*
X179511500Y-111773000D01*
X179531502Y-111704879D01*
X179585158Y-111658386D01*
X179637500Y-111647000D01*
X179752303Y-111647000D01*
X179752305Y-111647000D01*
X179897784Y-111608019D01*
X180028216Y-111532714D01*
X180134714Y-111426216D01*
X180537930Y-111023000D01*
X187592000Y-111023000D01*
X189873000Y-111023000D01*
X189873000Y-109642000D01*
X190127000Y-109642000D01*
X190127000Y-111023000D01*
X192408000Y-111023000D01*
X192408000Y-110600491D01*
X192407999Y-110600473D01*
X192393416Y-110452405D01*
X192393414Y-110452393D01*
X192335780Y-110262400D01*
X192335774Y-110262385D01*
X192242175Y-110087275D01*
X192116211Y-109933788D01*
X191962724Y-109807824D01*
X191787614Y-109714225D01*
X191787599Y-109714219D01*
X191597606Y-109656585D01*
X191597594Y-109656583D01*
X191449526Y-109642000D01*
X190127000Y-109642000D01*
X189873000Y-109642000D01*
X188550473Y-109642000D01*
X188402405Y-109656583D01*
X188402393Y-109656585D01*
X188212400Y-109714219D01*
X188212385Y-109714225D01*
X188037275Y-109807824D01*
X187883788Y-109933788D01*
X187757824Y-110087275D01*
X187664225Y-110262385D01*
X187664219Y-110262400D01*
X187606585Y-110452393D01*
X187606583Y-110452405D01*
X187592000Y-110600473D01*
X187592000Y-111023000D01*
X180537930Y-111023000D01*
X180642713Y-110918217D01*
X180653712Y-110899166D01*
X180662635Y-110883714D01*
X180718017Y-110787788D01*
X180718017Y-110787787D01*
X180718019Y-110787784D01*
X180757000Y-110642305D01*
X180757000Y-106808120D01*
X180777002Y-106739999D01*
X180793900Y-106719029D01*
X181047407Y-106465522D01*
X181109717Y-106431499D01*
X181180532Y-106436563D01*
X181237368Y-106479110D01*
X181262179Y-106545630D01*
X181262500Y-106554619D01*
X181262500Y-106885246D01*
X181262502Y-106885270D01*
X181268959Y-106945339D01*
X181268959Y-106945341D01*
X181319657Y-107081266D01*
X181339982Y-107108417D01*
X181406596Y-107197404D01*
X181522733Y-107284342D01*
X181658658Y-107335040D01*
X181697570Y-107339223D01*
X181763161Y-107366392D01*
X181803652Y-107424710D01*
X181810100Y-107464501D01*
X181810100Y-108557373D01*
X181790098Y-108625494D01*
X181759609Y-108658241D01*
X181649596Y-108740595D01*
X181562657Y-108856734D01*
X181511962Y-108992650D01*
X181511960Y-108992658D01*
X181505500Y-109052737D01*
X181505500Y-110049246D01*
X181505502Y-110049270D01*
X181511959Y-110109339D01*
X181511959Y-110109341D01*
X181562657Y-110245266D01*
X181562658Y-110245267D01*
X181649596Y-110361404D01*
X181765733Y-110448342D01*
X181901658Y-110499040D01*
X181961745Y-110505500D01*
X182708254Y-110505499D01*
X182768342Y-110499040D01*
X182904267Y-110448342D01*
X183020404Y-110361404D01*
X183107342Y-110245267D01*
X183158040Y-110109342D01*
X183164500Y-110049255D01*
X183164500Y-110049246D01*
X183555500Y-110049246D01*
X183555502Y-110049270D01*
X183561959Y-110109339D01*
X183561959Y-110109341D01*
X183612657Y-110245266D01*
X183612658Y-110245267D01*
X183699596Y-110361404D01*
X183815733Y-110448342D01*
X183951658Y-110499040D01*
X184011745Y-110505500D01*
X184758254Y-110505499D01*
X184818342Y-110499040D01*
X184954267Y-110448342D01*
X185070404Y-110361404D01*
X185157342Y-110245267D01*
X185208040Y-110109342D01*
X185214500Y-110049255D01*
X185214499Y-109052746D01*
X185208040Y-108992658D01*
X185157342Y-108856733D01*
X185070404Y-108740596D01*
X185027202Y-108708256D01*
X184954346Y-108653717D01*
X184911799Y-108596881D01*
X184906733Y-108526065D01*
X184940758Y-108463753D01*
X184988237Y-108433920D01*
X185089930Y-108398336D01*
X185235419Y-108306919D01*
X185356919Y-108185419D01*
X185448336Y-108039930D01*
X185505087Y-107877746D01*
X185524325Y-107707000D01*
X185505087Y-107536254D01*
X185466680Y-107426496D01*
X185463061Y-107355593D01*
X185498350Y-107293988D01*
X185510094Y-107284019D01*
X185592404Y-107222404D01*
X185679342Y-107106267D01*
X185730040Y-106970342D01*
X185736500Y-106910255D01*
X185736499Y-106138746D01*
X185730040Y-106078658D01*
X185679342Y-105942733D01*
X185592404Y-105826596D01*
X185476267Y-105739658D01*
X185476265Y-105739657D01*
X185476266Y-105739657D01*
X185340349Y-105688962D01*
X185340344Y-105688960D01*
X185340342Y-105688960D01*
X185310298Y-105685730D01*
X185280256Y-105682500D01*
X184233753Y-105682500D01*
X184233729Y-105682502D01*
X184173660Y-105688959D01*
X184173658Y-105688959D01*
X184037733Y-105739657D01*
X183921596Y-105826596D01*
X183834657Y-105942734D01*
X183783962Y-106078650D01*
X183783960Y-106078658D01*
X183777500Y-106138737D01*
X183777500Y-106910246D01*
X183777502Y-106910270D01*
X183783959Y-106970339D01*
X183783959Y-106970341D01*
X183834657Y-107106266D01*
X183921596Y-107222404D01*
X184003897Y-107284013D01*
X184046444Y-107340849D01*
X184051510Y-107411664D01*
X184047319Y-107426495D01*
X184008913Y-107536254D01*
X184008913Y-107536255D01*
X184008912Y-107536259D01*
X183989675Y-107707000D01*
X184008836Y-107877069D01*
X184005336Y-107923781D01*
X183996481Y-107956835D01*
X183996479Y-107956843D01*
X183978100Y-108025429D01*
X183978100Y-108505614D01*
X183958098Y-108573735D01*
X183904442Y-108620228D01*
X183896134Y-108623669D01*
X183815733Y-108653658D01*
X183699596Y-108740596D01*
X183612657Y-108856734D01*
X183561962Y-108992650D01*
X183561960Y-108992658D01*
X183555500Y-109052737D01*
X183555500Y-110049246D01*
X183164500Y-110049246D01*
X183164499Y-109052746D01*
X183158040Y-108992658D01*
X183107342Y-108856733D01*
X183020404Y-108740596D01*
X182904267Y-108653658D01*
X182904265Y-108653657D01*
X182904266Y-108653657D01*
X182768349Y-108602962D01*
X182768344Y-108602960D01*
X182768342Y-108602960D01*
X182736429Y-108599529D01*
X182670837Y-108572359D01*
X182630347Y-108514040D01*
X182623900Y-108474251D01*
X182623900Y-107464500D01*
X182643902Y-107396379D01*
X182697558Y-107349886D01*
X182736429Y-107339222D01*
X182775342Y-107335040D01*
X182911267Y-107284342D01*
X183027404Y-107197404D01*
X183114342Y-107081267D01*
X183165040Y-106945342D01*
X183171500Y-106885255D01*
X183171499Y-106088746D01*
X183165040Y-106028658D01*
X183114342Y-105892733D01*
X183027404Y-105776596D01*
X182911267Y-105689658D01*
X182911265Y-105689657D01*
X182911266Y-105689657D01*
X182775349Y-105638962D01*
X182775344Y-105638960D01*
X182775342Y-105638960D01*
X182767831Y-105638152D01*
X182715262Y-105632500D01*
X182715255Y-105632500D01*
X182184619Y-105632500D01*
X182116498Y-105612498D01*
X182070005Y-105558842D01*
X182059901Y-105488568D01*
X182089395Y-105423988D01*
X182095524Y-105417405D01*
X182134525Y-105378404D01*
X182196837Y-105344378D01*
X182223620Y-105341499D01*
X182715247Y-105341499D01*
X182715254Y-105341499D01*
X182775342Y-105335040D01*
X182911267Y-105284342D01*
X183027404Y-105197404D01*
X183093213Y-105109491D01*
X183150049Y-105066945D01*
X183194082Y-105059000D01*
X183792347Y-105059000D01*
X183860468Y-105079002D01*
X183893214Y-105109490D01*
X183921596Y-105147404D01*
X184037733Y-105234342D01*
X184173658Y-105285040D01*
X184233745Y-105291500D01*
X185280254Y-105291499D01*
X185340342Y-105285040D01*
X185476267Y-105234342D01*
X185592404Y-105147404D01*
X185648856Y-105071991D01*
X185705692Y-105029445D01*
X185749725Y-105021500D01*
X186569501Y-105021500D01*
X186637622Y-105041502D01*
X186684115Y-105095158D01*
X186695501Y-105147500D01*
X186695501Y-105538565D01*
X186698308Y-105574255D01*
X186742683Y-105726996D01*
X186823641Y-105863887D01*
X186823646Y-105863894D01*
X186936105Y-105976353D01*
X186936112Y-105976358D01*
X187073003Y-106057316D01*
X187073006Y-106057316D01*
X187073008Y-106057318D01*
X187225742Y-106101691D01*
X187261433Y-106104500D01*
X188138566Y-106104499D01*
X188174258Y-106101691D01*
X188326992Y-106057318D01*
X188326994Y-106057316D01*
X188326996Y-106057316D01*
X188432359Y-105995004D01*
X188463891Y-105976356D01*
X188576356Y-105863891D01*
X188597088Y-105828834D01*
X188648979Y-105780383D01*
X188718829Y-105767677D01*
X188784461Y-105794751D01*
X188817808Y-105835771D01*
X188880374Y-105958562D01*
X188880376Y-105958565D01*
X188997185Y-106102814D01*
X189141434Y-106219623D01*
X189141437Y-106219625D01*
X189306818Y-106303892D01*
X189486098Y-106351931D01*
X189563199Y-106358000D01*
X189873000Y-106358000D01*
X189873000Y-103342000D01*
X190127000Y-103342000D01*
X190127000Y-106358000D01*
X190436801Y-106358000D01*
X190513901Y-106351931D01*
X190693181Y-106303892D01*
X190858562Y-106219625D01*
X190858565Y-106219623D01*
X191002814Y-106102814D01*
X191119623Y-105958565D01*
X191119625Y-105958562D01*
X191182191Y-105835771D01*
X191230939Y-105784156D01*
X191299854Y-105767090D01*
X191367056Y-105789991D01*
X191402911Y-105828834D01*
X191423643Y-105863890D01*
X191423646Y-105863894D01*
X191536105Y-105976353D01*
X191542373Y-105981215D01*
X191540325Y-105983854D01*
X191578341Y-106024582D01*
X191591036Y-106094434D01*
X191572430Y-106148159D01*
X191558665Y-106170066D01*
X191558664Y-106170069D01*
X191501912Y-106332255D01*
X191482675Y-106503000D01*
X191501912Y-106673744D01*
X191558664Y-106835930D01*
X191558665Y-106835933D01*
X191650079Y-106981417D01*
X191650080Y-106981419D01*
X191771580Y-107102919D01*
X191771582Y-107102920D01*
X191917066Y-107194334D01*
X191917067Y-107194334D01*
X191917070Y-107194336D01*
X192079254Y-107251087D01*
X192079253Y-107251087D01*
X192096543Y-107253034D01*
X192250000Y-107270325D01*
X192420746Y-107251087D01*
X192582930Y-107194336D01*
X192728419Y-107102919D01*
X192849919Y-106981419D01*
X192941336Y-106835930D01*
X192998087Y-106673746D01*
X193003016Y-106630000D01*
X193641675Y-106630000D01*
X193660912Y-106800744D01*
X193717664Y-106962930D01*
X193717665Y-106962933D01*
X193809079Y-107108417D01*
X193809080Y-107108419D01*
X193930580Y-107229919D01*
X193930582Y-107229920D01*
X194076066Y-107321334D01*
X194076067Y-107321334D01*
X194076070Y-107321336D01*
X194238254Y-107378087D01*
X194238253Y-107378087D01*
X194255543Y-107380034D01*
X194409000Y-107397325D01*
X194579746Y-107378087D01*
X194741930Y-107321336D01*
X194887419Y-107229919D01*
X194887422Y-107229915D01*
X194891076Y-107227620D01*
X194959397Y-107208314D01*
X195027311Y-107229009D01*
X195073254Y-107283136D01*
X195076164Y-107290263D01*
X195077658Y-107294267D01*
X195164596Y-107410404D01*
X195280733Y-107497342D01*
X195416658Y-107548040D01*
X195476745Y-107554500D01*
X195772101Y-107554499D01*
X195840220Y-107574501D01*
X195886713Y-107628156D01*
X195898100Y-107680499D01*
X195898100Y-108505614D01*
X195878098Y-108573735D01*
X195824442Y-108620228D01*
X195816134Y-108623669D01*
X195735733Y-108653658D01*
X195619596Y-108740596D01*
X195532657Y-108856734D01*
X195481962Y-108992650D01*
X195481960Y-108992658D01*
X195475500Y-109052737D01*
X195475500Y-110049246D01*
X195475502Y-110049270D01*
X195481959Y-110109339D01*
X195481959Y-110109341D01*
X195532657Y-110245266D01*
X195532658Y-110245267D01*
X195619596Y-110361404D01*
X195735733Y-110448342D01*
X195871658Y-110499040D01*
X195931745Y-110505500D01*
X196678254Y-110505499D01*
X196738342Y-110499040D01*
X196874267Y-110448342D01*
X196990404Y-110361404D01*
X197077342Y-110245267D01*
X197128040Y-110109342D01*
X197134500Y-110049255D01*
X197134499Y-109052746D01*
X197128040Y-108992658D01*
X197077342Y-108856733D01*
X196990404Y-108740596D01*
X196874267Y-108653658D01*
X196820142Y-108633470D01*
X196793866Y-108623669D01*
X196737031Y-108581122D01*
X196712221Y-108514601D01*
X196711900Y-108505614D01*
X196711900Y-107565928D01*
X196731902Y-107497807D01*
X196762390Y-107465060D01*
X196835404Y-107410404D01*
X196922342Y-107294267D01*
X196973040Y-107158342D01*
X196979500Y-107098255D01*
X196979499Y-106326746D01*
X196973040Y-106266658D01*
X196922342Y-106130733D01*
X196835404Y-106014596D01*
X196719267Y-105927658D01*
X196719265Y-105927657D01*
X196711359Y-105923340D01*
X196712214Y-105921773D01*
X196664040Y-105885711D01*
X196639230Y-105819191D01*
X196654322Y-105749817D01*
X196704524Y-105699615D01*
X196725276Y-105690598D01*
X196797525Y-105666657D01*
X196948339Y-105573634D01*
X196948345Y-105573629D01*
X197073629Y-105448345D01*
X197073634Y-105448339D01*
X197166657Y-105297525D01*
X197222393Y-105129321D01*
X197222394Y-105129318D01*
X197232999Y-105025516D01*
X197233000Y-105025516D01*
X197233000Y-104764500D01*
X194767000Y-104764500D01*
X194767000Y-105025516D01*
X194777605Y-105129318D01*
X194777606Y-105129321D01*
X194833342Y-105297525D01*
X194926365Y-105448339D01*
X194926370Y-105448345D01*
X195051654Y-105573629D01*
X195051660Y-105573634D01*
X195202478Y-105666659D01*
X195274723Y-105690599D01*
X195333095Y-105731013D01*
X195360350Y-105796569D01*
X195347837Y-105866454D01*
X195299527Y-105918480D01*
X195283289Y-105926261D01*
X195280734Y-105927657D01*
X195164595Y-106014596D01*
X195126446Y-106065558D01*
X195069610Y-106108105D01*
X194998795Y-106113170D01*
X194936483Y-106079144D01*
X194887419Y-106030080D01*
X194887417Y-106030079D01*
X194741933Y-105938665D01*
X194741930Y-105938664D01*
X194706484Y-105926261D01*
X194579746Y-105881913D01*
X194579744Y-105881912D01*
X194579746Y-105881912D01*
X194409000Y-105862675D01*
X194238255Y-105881912D01*
X194076069Y-105938664D01*
X194076066Y-105938665D01*
X193930582Y-106030079D01*
X193930580Y-106030080D01*
X193809080Y-106151580D01*
X193809079Y-106151582D01*
X193717665Y-106297066D01*
X193717664Y-106297069D01*
X193660912Y-106459255D01*
X193641675Y-106630000D01*
X193003016Y-106630000D01*
X193017325Y-106503000D01*
X192998087Y-106332254D01*
X192941336Y-106170070D01*
X192940301Y-106167112D01*
X192936681Y-106096208D01*
X192971970Y-106034603D01*
X192995087Y-106017046D01*
X193063891Y-105976356D01*
X193176356Y-105863891D01*
X193233604Y-105767090D01*
X193257316Y-105726996D01*
X193257316Y-105726994D01*
X193257318Y-105726992D01*
X193301691Y-105574258D01*
X193304500Y-105538567D01*
X193304499Y-104725000D01*
X197494000Y-104725000D01*
X197494000Y-104986016D01*
X197504605Y-105089818D01*
X197504606Y-105089821D01*
X197560342Y-105258025D01*
X197653365Y-105408839D01*
X197653370Y-105408845D01*
X197778654Y-105534129D01*
X197778660Y-105534134D01*
X197929478Y-105627159D01*
X198001723Y-105651099D01*
X198060095Y-105691513D01*
X198087350Y-105757069D01*
X198074837Y-105826954D01*
X198026527Y-105878980D01*
X198010289Y-105886761D01*
X198007734Y-105888157D01*
X197891596Y-105975096D01*
X197804657Y-106091234D01*
X197753962Y-106227150D01*
X197753960Y-106227158D01*
X197747500Y-106287237D01*
X197747500Y-107058746D01*
X197747502Y-107058770D01*
X197753959Y-107118839D01*
X197753959Y-107118841D01*
X197804657Y-107254766D01*
X197854490Y-107321336D01*
X197891596Y-107370904D01*
X197895825Y-107374070D01*
X197897605Y-107375402D01*
X197940154Y-107432236D01*
X197948100Y-107476273D01*
X197948100Y-108505614D01*
X197928098Y-108573735D01*
X197874442Y-108620228D01*
X197866134Y-108623669D01*
X197785733Y-108653658D01*
X197669596Y-108740596D01*
X197582657Y-108856734D01*
X197531962Y-108992650D01*
X197531960Y-108992658D01*
X197525500Y-109052737D01*
X197525500Y-110049246D01*
X197525502Y-110049270D01*
X197531959Y-110109339D01*
X197531959Y-110109341D01*
X197582657Y-110245266D01*
X197582658Y-110245267D01*
X197669596Y-110361404D01*
X197785733Y-110448342D01*
X197921658Y-110499040D01*
X197981745Y-110505500D01*
X198728254Y-110505499D01*
X198788342Y-110499040D01*
X198924267Y-110448342D01*
X199040404Y-110361404D01*
X199127342Y-110245267D01*
X199178040Y-110109342D01*
X199184500Y-110049255D01*
X199184499Y-109052746D01*
X199178040Y-108992658D01*
X199127342Y-108856733D01*
X199040404Y-108740596D01*
X198924267Y-108653658D01*
X198870142Y-108633470D01*
X198843866Y-108623669D01*
X198787031Y-108581122D01*
X198762221Y-108514601D01*
X198761900Y-108505614D01*
X198761900Y-107640999D01*
X198781902Y-107572878D01*
X198835558Y-107526385D01*
X198887900Y-107514999D01*
X199250247Y-107514999D01*
X199250254Y-107514999D01*
X199310342Y-107508540D01*
X199446267Y-107457842D01*
X199562404Y-107370904D01*
X199649342Y-107254767D01*
X199700040Y-107118842D01*
X199706500Y-107058755D01*
X199706499Y-106287246D01*
X199700040Y-106227158D01*
X199649342Y-106091233D01*
X199562404Y-105975096D01*
X199446267Y-105888158D01*
X199446265Y-105888157D01*
X199438359Y-105883840D01*
X199439214Y-105882273D01*
X199391040Y-105846211D01*
X199366230Y-105779691D01*
X199381322Y-105710317D01*
X199431524Y-105660115D01*
X199452276Y-105651098D01*
X199524525Y-105627157D01*
X199675339Y-105534134D01*
X199675345Y-105534129D01*
X199800629Y-105408845D01*
X199800634Y-105408839D01*
X199893657Y-105258025D01*
X199949393Y-105089821D01*
X199949394Y-105089818D01*
X199959999Y-104986016D01*
X199960000Y-104986016D01*
X199960000Y-104725000D01*
X197494000Y-104725000D01*
X193304499Y-104725000D01*
X193304499Y-104720003D01*
X212215663Y-104720003D01*
X212234991Y-105014898D01*
X212234993Y-105014913D01*
X212271294Y-105197404D01*
X212290010Y-105291499D01*
X212292648Y-105304757D01*
X212292650Y-105304767D01*
X212387642Y-105584603D01*
X212387648Y-105584617D01*
X212518355Y-105849666D01*
X212682546Y-106095396D01*
X212682549Y-106095400D01*
X212877406Y-106317593D01*
X213099599Y-106512450D01*
X213099603Y-106512453D01*
X213345331Y-106676643D01*
X213610389Y-106807355D01*
X213890241Y-106902352D01*
X214140789Y-106952189D01*
X214180086Y-106960006D01*
X214180088Y-106960006D01*
X214180097Y-106960008D01*
X214337748Y-106970341D01*
X214474997Y-106979337D01*
X214475000Y-106979337D01*
X214475003Y-106979337D01*
X214585588Y-106972088D01*
X214769903Y-106960008D01*
X215059759Y-106902352D01*
X215339611Y-106807355D01*
X215604669Y-106676643D01*
X215850397Y-106512453D01*
X216072593Y-106317593D01*
X216267453Y-106095397D01*
X216431643Y-105849669D01*
X216562355Y-105584611D01*
X216657352Y-105304759D01*
X216715008Y-105014903D01*
X216734337Y-104720000D01*
X216731363Y-104674632D01*
X216720606Y-104510500D01*
X216715008Y-104425097D01*
X216657352Y-104135241D01*
X216562355Y-103855389D01*
X216431643Y-103590332D01*
X216267453Y-103344603D01*
X216267450Y-103344599D01*
X216072593Y-103122406D01*
X215850400Y-102927549D01*
X215850396Y-102927546D01*
X215604666Y-102763355D01*
X215339617Y-102632648D01*
X215339611Y-102632645D01*
X215339606Y-102632643D01*
X215339603Y-102632642D01*
X215059767Y-102537650D01*
X215059761Y-102537648D01*
X215059759Y-102537648D01*
X214976619Y-102521110D01*
X214769913Y-102479993D01*
X214769898Y-102479991D01*
X214475003Y-102460663D01*
X214474997Y-102460663D01*
X214180101Y-102479991D01*
X214180086Y-102479993D01*
X213931810Y-102529379D01*
X213890241Y-102537648D01*
X213890239Y-102537648D01*
X213890232Y-102537650D01*
X213610396Y-102632642D01*
X213610382Y-102632648D01*
X213345334Y-102763355D01*
X213099603Y-102927546D01*
X213099599Y-102927549D01*
X212877406Y-103122406D01*
X212682549Y-103344599D01*
X212682546Y-103344603D01*
X212518355Y-103590334D01*
X212387648Y-103855382D01*
X212387642Y-103855396D01*
X212292650Y-104135232D01*
X212292648Y-104135239D01*
X212292648Y-104135241D01*
X212287438Y-104161433D01*
X212234993Y-104425086D01*
X212234991Y-104425101D01*
X212215663Y-104719996D01*
X212215663Y-104720003D01*
X193304499Y-104720003D01*
X193304499Y-104510500D01*
X194767000Y-104510500D01*
X195873000Y-104510500D01*
X195873000Y-103542000D01*
X196127000Y-103542000D01*
X196127000Y-104510500D01*
X197233000Y-104510500D01*
X197233000Y-104471000D01*
X197494000Y-104471000D01*
X198600000Y-104471000D01*
X198600000Y-103502500D01*
X198854000Y-103502500D01*
X198854000Y-104471000D01*
X199960000Y-104471000D01*
X199960000Y-104209983D01*
X199949394Y-104106181D01*
X199949393Y-104106178D01*
X199893657Y-103937974D01*
X199800634Y-103787160D01*
X199800629Y-103787154D01*
X199675345Y-103661870D01*
X199675339Y-103661865D01*
X199524525Y-103568842D01*
X199356321Y-103513106D01*
X199356318Y-103513105D01*
X199252516Y-103502500D01*
X198854000Y-103502500D01*
X198600000Y-103502500D01*
X198201483Y-103502500D01*
X198097681Y-103513105D01*
X198097678Y-103513106D01*
X197929474Y-103568842D01*
X197778660Y-103661865D01*
X197778654Y-103661870D01*
X197653370Y-103787154D01*
X197653365Y-103787160D01*
X197560342Y-103937974D01*
X197504606Y-104106178D01*
X197504605Y-104106181D01*
X197494000Y-104209983D01*
X197494000Y-104471000D01*
X197233000Y-104471000D01*
X197233000Y-104249483D01*
X197222394Y-104145681D01*
X197222393Y-104145678D01*
X197166657Y-103977474D01*
X197073634Y-103826660D01*
X197073629Y-103826654D01*
X196948345Y-103701370D01*
X196948339Y-103701365D01*
X196797525Y-103608342D01*
X196629321Y-103552606D01*
X196629318Y-103552605D01*
X196525516Y-103542000D01*
X196127000Y-103542000D01*
X195873000Y-103542000D01*
X195474483Y-103542000D01*
X195370681Y-103552605D01*
X195370678Y-103552606D01*
X195202474Y-103608342D01*
X195051660Y-103701365D01*
X195051654Y-103701370D01*
X194926370Y-103826654D01*
X194926365Y-103826660D01*
X194833342Y-103977474D01*
X194777606Y-104145678D01*
X194777605Y-104145681D01*
X194767000Y-104249483D01*
X194767000Y-104510500D01*
X193304499Y-104510500D01*
X193304499Y-104161434D01*
X193301691Y-104125742D01*
X193257318Y-103973008D01*
X193257316Y-103973006D01*
X193257316Y-103973003D01*
X193176358Y-103836112D01*
X193176353Y-103836105D01*
X193063894Y-103723646D01*
X193063887Y-103723641D01*
X192926996Y-103642683D01*
X192774256Y-103598308D01*
X192738575Y-103595500D01*
X191861433Y-103595500D01*
X191825744Y-103598308D01*
X191673003Y-103642683D01*
X191536112Y-103723641D01*
X191536105Y-103723646D01*
X191423645Y-103836106D01*
X191402911Y-103871166D01*
X191351017Y-103919618D01*
X191281166Y-103932322D01*
X191215536Y-103905245D01*
X191182191Y-103864228D01*
X191119625Y-103741437D01*
X191119623Y-103741434D01*
X191002814Y-103597185D01*
X190858565Y-103480376D01*
X190858562Y-103480374D01*
X190693181Y-103396107D01*
X190513901Y-103348068D01*
X190436801Y-103342000D01*
X190127000Y-103342000D01*
X189873000Y-103342000D01*
X189563199Y-103342000D01*
X189486098Y-103348068D01*
X189306818Y-103396107D01*
X189141437Y-103480374D01*
X189141434Y-103480376D01*
X188997185Y-103597185D01*
X188880376Y-103741434D01*
X188880371Y-103741441D01*
X188817807Y-103864229D01*
X188769059Y-103915844D01*
X188700144Y-103932909D01*
X188632942Y-103910008D01*
X188597088Y-103871165D01*
X188576356Y-103836109D01*
X188576355Y-103836108D01*
X188576354Y-103836106D01*
X188463894Y-103723646D01*
X188463887Y-103723641D01*
X188326996Y-103642683D01*
X188174256Y-103598308D01*
X188138575Y-103595500D01*
X187261433Y-103595500D01*
X187225744Y-103598308D01*
X187073003Y-103642683D01*
X186936112Y-103723641D01*
X186936105Y-103723646D01*
X186819157Y-103840595D01*
X186756845Y-103874621D01*
X186730062Y-103877500D01*
X185749725Y-103877500D01*
X185681604Y-103857498D01*
X185648856Y-103827008D01*
X185648595Y-103826660D01*
X185592404Y-103751596D01*
X185476267Y-103664658D01*
X185476265Y-103664657D01*
X185476266Y-103664657D01*
X185340349Y-103613962D01*
X185340344Y-103613960D01*
X185340342Y-103613960D01*
X185310298Y-103610730D01*
X185280256Y-103607500D01*
X184233753Y-103607500D01*
X184233729Y-103607502D01*
X184173660Y-103613959D01*
X184173658Y-103613959D01*
X184037733Y-103664657D01*
X183921595Y-103751596D01*
X183837072Y-103864508D01*
X183780236Y-103907055D01*
X183736203Y-103915000D01*
X183194082Y-103915000D01*
X183125961Y-103894998D01*
X183093213Y-103864508D01*
X183093003Y-103864228D01*
X183027404Y-103776596D01*
X182994007Y-103751596D01*
X182956670Y-103723646D01*
X182911267Y-103689658D01*
X182911265Y-103689657D01*
X182911266Y-103689657D01*
X182775349Y-103638962D01*
X182775344Y-103638960D01*
X182775342Y-103638960D01*
X182745298Y-103635730D01*
X182715256Y-103632500D01*
X181718753Y-103632500D01*
X181718729Y-103632502D01*
X181658660Y-103638959D01*
X181658658Y-103638959D01*
X181522733Y-103689657D01*
X181406596Y-103776596D01*
X181319657Y-103892734D01*
X181268962Y-104028650D01*
X181268960Y-104028658D01*
X181262500Y-104088737D01*
X181262500Y-104580379D01*
X181242498Y-104648500D01*
X181225595Y-104669474D01*
X180516666Y-105378404D01*
X179833784Y-106061286D01*
X179803896Y-106091174D01*
X179723787Y-106171282D01*
X179661474Y-106205307D01*
X179590658Y-106200241D01*
X179533823Y-106157694D01*
X179509013Y-106091174D01*
X179509230Y-106070559D01*
X179509694Y-106065558D01*
X179516232Y-105995000D01*
X179515199Y-105983854D01*
X179497345Y-105791180D01*
X179497007Y-105789991D01*
X179441328Y-105594299D01*
X179350088Y-105411065D01*
X179306720Y-105353636D01*
X179226733Y-105247715D01*
X179075463Y-105109814D01*
X178901433Y-105002059D01*
X178901428Y-105002057D01*
X178901427Y-105002056D01*
X178710559Y-104928113D01*
X178710560Y-104928113D01*
X178710557Y-104928112D01*
X178710556Y-104928112D01*
X178509347Y-104890500D01*
X178304653Y-104890500D01*
X178103444Y-104928112D01*
X178103439Y-104928113D01*
X177912577Y-105002054D01*
X177912566Y-105002059D01*
X177738536Y-105109814D01*
X177587266Y-105247715D01*
X177463913Y-105411063D01*
X177372671Y-105594301D01*
X177316654Y-105791180D01*
X177297768Y-105994995D01*
X177297768Y-105995004D01*
X177316654Y-106198819D01*
X177354620Y-106332254D01*
X177372672Y-106395701D01*
X177463912Y-106578935D01*
X177463913Y-106578936D01*
X177587266Y-106742284D01*
X177738536Y-106880185D01*
X177912566Y-106987940D01*
X177912568Y-106987940D01*
X177912573Y-106987944D01*
X177962333Y-107007221D01*
X177975409Y-107012287D01*
X178031704Y-107055546D01*
X178055674Y-107122374D01*
X178039710Y-107191552D01*
X177988879Y-107241118D01*
X177970804Y-107248951D01*
X177859631Y-107287116D01*
X177859628Y-107287117D01*
X177661699Y-107394231D01*
X177661698Y-107394232D01*
X177484097Y-107532465D01*
X177331674Y-107698041D01*
X177208580Y-107886451D01*
X177118179Y-108092543D01*
X177118176Y-108092550D01*
X177062933Y-108310702D01*
X177062931Y-108310711D01*
X177054870Y-108408000D01*
X177923392Y-108408000D01*
X177907000Y-108469174D01*
X177907000Y-108600826D01*
X177923392Y-108662000D01*
X177054870Y-108662000D01*
X177062931Y-108759288D01*
X177062933Y-108759297D01*
X177118176Y-108977449D01*
X177118179Y-108977456D01*
X177208580Y-109183548D01*
X177331674Y-109371958D01*
X177484097Y-109537534D01*
X177661698Y-109675767D01*
X177661699Y-109675768D01*
X177750244Y-109723686D01*
X177800635Y-109773700D01*
X177815987Y-109843016D01*
X177791426Y-109909629D01*
X177734751Y-109952389D01*
X177690275Y-109960500D01*
X171161372Y-109960500D01*
X171093251Y-109940498D01*
X171055868Y-109897355D01*
X171054129Y-109898518D01*
X170990982Y-109804013D01*
X170985569Y-109798600D01*
X170951543Y-109736288D01*
X170956608Y-109665473D01*
X170967978Y-109642467D01*
X170987383Y-109611585D01*
X171046887Y-109441531D01*
X171067059Y-109262500D01*
X171046887Y-109083469D01*
X170987383Y-108913415D01*
X170987381Y-108913412D01*
X170987381Y-108913411D01*
X170891531Y-108760867D01*
X170891530Y-108760865D01*
X170847260Y-108716595D01*
X170813234Y-108654283D01*
X170818299Y-108583468D01*
X170847260Y-108538405D01*
X170891530Y-108494134D01*
X170891531Y-108494132D01*
X170897501Y-108484632D01*
X170987383Y-108341585D01*
X171046887Y-108171531D01*
X171067059Y-107992500D01*
X171046887Y-107813469D01*
X170987383Y-107643415D01*
X170987381Y-107643412D01*
X170987381Y-107643411D01*
X170891531Y-107490867D01*
X170891530Y-107490865D01*
X170847260Y-107446595D01*
X170813234Y-107384283D01*
X170818299Y-107313468D01*
X170847260Y-107268405D01*
X170891530Y-107224134D01*
X170891531Y-107224132D01*
X170892618Y-107222403D01*
X170987383Y-107071585D01*
X171046887Y-106901531D01*
X171067059Y-106722500D01*
X171050651Y-106576878D01*
X171062900Y-106506949D01*
X171086761Y-106473681D01*
X174105438Y-103455004D01*
X177297768Y-103455004D01*
X177316654Y-103658819D01*
X177367098Y-103836112D01*
X177372672Y-103855701D01*
X177463912Y-104038935D01*
X177463913Y-104038936D01*
X177587266Y-104202284D01*
X177738536Y-104340185D01*
X177912566Y-104447940D01*
X177912568Y-104447940D01*
X177912573Y-104447944D01*
X178103444Y-104521888D01*
X178304653Y-104559500D01*
X178304655Y-104559500D01*
X178509345Y-104559500D01*
X178509347Y-104559500D01*
X178710556Y-104521888D01*
X178901427Y-104447944D01*
X179075462Y-104340186D01*
X179226732Y-104202285D01*
X179350088Y-104038935D01*
X179441328Y-103855701D01*
X179497345Y-103658821D01*
X179507187Y-103552606D01*
X179516232Y-103455004D01*
X179516232Y-103454995D01*
X179497345Y-103251180D01*
X179451921Y-103091531D01*
X179441328Y-103054299D01*
X179350088Y-102871065D01*
X179268751Y-102763357D01*
X179226733Y-102707715D01*
X179075463Y-102569814D01*
X178901433Y-102462059D01*
X178901428Y-102462057D01*
X178901427Y-102462056D01*
X178710559Y-102388113D01*
X178710560Y-102388113D01*
X178710557Y-102388112D01*
X178710556Y-102388112D01*
X178509347Y-102350500D01*
X178304653Y-102350500D01*
X178103444Y-102388112D01*
X178103439Y-102388113D01*
X177912577Y-102462054D01*
X177912566Y-102462059D01*
X177738536Y-102569814D01*
X177587266Y-102707715D01*
X177463913Y-102871063D01*
X177372671Y-103054301D01*
X177316654Y-103251180D01*
X177297768Y-103454995D01*
X177297768Y-103455004D01*
X174105438Y-103455004D01*
X177159471Y-100400972D01*
X177221782Y-100366947D01*
X177292597Y-100372012D01*
X177349433Y-100414559D01*
X177374244Y-100481079D01*
X177369755Y-100524549D01*
X177316654Y-100711180D01*
X177297768Y-100914995D01*
X177297768Y-100915004D01*
X177316654Y-101118819D01*
X177366330Y-101293411D01*
X177372672Y-101315701D01*
X177463912Y-101498935D01*
X177463913Y-101498936D01*
X177587266Y-101662284D01*
X177738536Y-101800185D01*
X177912566Y-101907940D01*
X177912568Y-101907940D01*
X177912573Y-101907944D01*
X178103444Y-101981888D01*
X178304653Y-102019500D01*
X178304655Y-102019500D01*
X178509345Y-102019500D01*
X178509347Y-102019500D01*
X178710556Y-101981888D01*
X178901427Y-101907944D01*
X179075462Y-101800186D01*
X179226732Y-101662285D01*
X179350088Y-101498935D01*
X179441328Y-101315701D01*
X179497345Y-101118821D01*
X179508214Y-101001530D01*
X179516232Y-100915004D01*
X179516232Y-100914995D01*
X179497345Y-100711180D01*
X179497345Y-100711179D01*
X179441328Y-100514299D01*
X179350088Y-100331065D01*
X179306720Y-100273636D01*
X179226733Y-100167715D01*
X179075463Y-100029814D01*
X178901433Y-99922059D01*
X178901428Y-99922057D01*
X178901427Y-99922056D01*
X178901422Y-99922054D01*
X178710559Y-99848113D01*
X178710560Y-99848113D01*
X178710557Y-99848112D01*
X178710556Y-99848112D01*
X178509347Y-99810500D01*
X178304653Y-99810500D01*
X178204048Y-99829306D01*
X178103442Y-99848112D01*
X178021963Y-99879678D01*
X177951217Y-99885634D01*
X177888481Y-99852397D01*
X177853674Y-99790518D01*
X177857846Y-99719644D01*
X177887350Y-99673093D01*
X178845441Y-98715003D01*
X212215663Y-98715003D01*
X212234991Y-99009898D01*
X212234993Y-99009913D01*
X212292648Y-99299757D01*
X212292650Y-99299767D01*
X212387642Y-99579603D01*
X212387648Y-99579617D01*
X212518355Y-99844666D01*
X212682546Y-100090396D01*
X212682549Y-100090400D01*
X212877406Y-100312593D01*
X213099599Y-100507450D01*
X213099603Y-100507453D01*
X213345331Y-100671643D01*
X213610389Y-100802355D01*
X213890241Y-100897352D01*
X214140789Y-100947189D01*
X214180086Y-100955006D01*
X214180088Y-100955006D01*
X214180097Y-100955008D01*
X214348613Y-100966053D01*
X214474997Y-100974337D01*
X214475000Y-100974337D01*
X214475003Y-100974337D01*
X214585588Y-100967088D01*
X214769903Y-100955008D01*
X215059759Y-100897352D01*
X215339611Y-100802355D01*
X215604669Y-100671643D01*
X215850397Y-100507453D01*
X216072593Y-100312593D01*
X216267453Y-100090397D01*
X216431643Y-99844669D01*
X216562355Y-99579611D01*
X216657352Y-99299759D01*
X216715008Y-99009903D01*
X216728748Y-98800272D01*
X216734337Y-98715003D01*
X216734337Y-98714996D01*
X216718115Y-98467500D01*
X216715008Y-98420097D01*
X216657352Y-98130241D01*
X216562355Y-97850389D01*
X216431643Y-97585332D01*
X216267453Y-97339603D01*
X216267450Y-97339599D01*
X216072593Y-97117406D01*
X215850400Y-96922549D01*
X215850396Y-96922546D01*
X215604666Y-96758355D01*
X215339617Y-96627648D01*
X215339611Y-96627645D01*
X215339606Y-96627643D01*
X215339603Y-96627642D01*
X215059767Y-96532650D01*
X215059761Y-96532648D01*
X215059759Y-96532648D01*
X214976619Y-96516110D01*
X214769913Y-96474993D01*
X214769898Y-96474991D01*
X214475003Y-96455663D01*
X214474997Y-96455663D01*
X214180101Y-96474991D01*
X214180086Y-96474993D01*
X213931810Y-96524379D01*
X213890241Y-96532648D01*
X213890239Y-96532648D01*
X213890232Y-96532650D01*
X213610396Y-96627642D01*
X213610382Y-96627648D01*
X213345334Y-96758355D01*
X213099603Y-96922546D01*
X213099599Y-96922549D01*
X212877406Y-97117406D01*
X212682549Y-97339599D01*
X212682546Y-97339603D01*
X212518355Y-97585334D01*
X212387648Y-97850382D01*
X212387642Y-97850396D01*
X212292650Y-98130232D01*
X212292648Y-98130242D01*
X212234993Y-98420086D01*
X212234991Y-98420101D01*
X212215663Y-98714996D01*
X212215663Y-98715003D01*
X178845441Y-98715003D01*
X178868639Y-98691805D01*
X178930951Y-98657779D01*
X178957734Y-98654900D01*
X196494570Y-98654900D01*
X196598058Y-98627170D01*
X196690843Y-98573601D01*
X198454444Y-96810000D01*
X206850149Y-96810000D01*
X206869517Y-97031374D01*
X206927031Y-97246023D01*
X206927033Y-97246027D01*
X207020946Y-97447424D01*
X207020947Y-97447426D01*
X207139151Y-97616240D01*
X207139153Y-97616240D01*
X207780347Y-96975045D01*
X207820124Y-97043940D01*
X207891060Y-97114876D01*
X207959952Y-97154651D01*
X207318758Y-97795845D01*
X207487575Y-97914053D01*
X207487574Y-97914053D01*
X207688972Y-98007966D01*
X207688976Y-98007968D01*
X207903625Y-98065482D01*
X208125000Y-98084850D01*
X208346374Y-98065482D01*
X208561023Y-98007968D01*
X208561027Y-98007966D01*
X208762425Y-97914053D01*
X208931240Y-97795846D01*
X208931240Y-97795844D01*
X208290047Y-97154651D01*
X208358940Y-97114876D01*
X208429876Y-97043940D01*
X208469651Y-96975047D01*
X209110844Y-97616240D01*
X209110846Y-97616240D01*
X209229053Y-97447425D01*
X209322966Y-97246027D01*
X209322968Y-97246023D01*
X209380482Y-97031374D01*
X209399850Y-96810000D01*
X209380482Y-96588625D01*
X209322968Y-96373976D01*
X209322966Y-96373972D01*
X209229052Y-96172574D01*
X209110846Y-96003758D01*
X209110845Y-96003758D01*
X208469651Y-96644952D01*
X208429876Y-96576060D01*
X208358940Y-96505124D01*
X208290045Y-96465347D01*
X208931240Y-95824153D01*
X208931240Y-95824151D01*
X208762426Y-95705947D01*
X208762424Y-95705946D01*
X208561027Y-95612033D01*
X208561023Y-95612031D01*
X208346371Y-95554516D01*
X208346365Y-95554515D01*
X208164346Y-95538590D01*
X208124913Y-95523165D01*
X208098149Y-95536863D01*
X208085653Y-95538590D01*
X207903634Y-95554515D01*
X207903628Y-95554516D01*
X207688976Y-95612031D01*
X207688972Y-95612033D01*
X207487571Y-95705948D01*
X207318758Y-95824151D01*
X207318758Y-95824152D01*
X207959953Y-96465348D01*
X207891060Y-96505124D01*
X207820124Y-96576060D01*
X207780348Y-96644953D01*
X207139152Y-96003758D01*
X207139151Y-96003758D01*
X207020948Y-96172571D01*
X206927033Y-96373972D01*
X206927031Y-96373976D01*
X206869517Y-96588625D01*
X206850149Y-96810000D01*
X198454444Y-96810000D01*
X199280639Y-95983805D01*
X199342951Y-95949780D01*
X199369734Y-95946900D01*
X204574375Y-95946900D01*
X204642496Y-95966902D01*
X204685497Y-96013504D01*
X204715890Y-96070367D01*
X204735722Y-96107469D01*
X204862748Y-96262252D01*
X205017531Y-96389278D01*
X205017533Y-96389279D01*
X205140420Y-96454964D01*
X205194120Y-96483667D01*
X205385731Y-96541792D01*
X205385735Y-96541792D01*
X205385737Y-96541793D01*
X205584997Y-96561418D01*
X205585000Y-96561418D01*
X205585003Y-96561418D01*
X205784261Y-96541793D01*
X205784263Y-96541793D01*
X205784264Y-96541792D01*
X205784269Y-96541792D01*
X205975880Y-96483667D01*
X206152469Y-96389278D01*
X206307252Y-96262252D01*
X206434278Y-96107469D01*
X206528667Y-95930880D01*
X206586792Y-95739269D01*
X206586793Y-95739261D01*
X206606418Y-95540003D01*
X206606418Y-95539996D01*
X206586793Y-95340738D01*
X206586793Y-95340736D01*
X206586792Y-95340733D01*
X206586792Y-95340731D01*
X206528667Y-95149120D01*
X206511575Y-95117144D01*
X206434279Y-94972533D01*
X206434278Y-94972531D01*
X206360664Y-94882831D01*
X206332912Y-94817485D01*
X206344894Y-94747507D01*
X206392807Y-94695116D01*
X206458065Y-94676900D01*
X207114375Y-94676900D01*
X207182496Y-94696902D01*
X207225496Y-94743503D01*
X207250289Y-94789888D01*
X207274026Y-94834297D01*
X207275722Y-94837469D01*
X207402748Y-94992252D01*
X207557531Y-95119278D01*
X207734120Y-95213667D01*
X207925731Y-95271792D01*
X207925736Y-95271792D01*
X207925738Y-95271793D01*
X208001505Y-95279254D01*
X208087021Y-95287677D01*
X208124926Y-95302982D01*
X208150502Y-95289540D01*
X208162970Y-95287678D01*
X208291697Y-95274999D01*
X208324260Y-95271793D01*
X208324263Y-95271793D01*
X208324264Y-95271792D01*
X208324269Y-95271792D01*
X208515880Y-95213667D01*
X208692469Y-95119278D01*
X208847252Y-94992252D01*
X208974278Y-94837469D01*
X209068667Y-94660880D01*
X209126792Y-94469269D01*
X209128145Y-94455533D01*
X209146418Y-94270003D01*
X209146418Y-94269996D01*
X209126793Y-94070738D01*
X209126793Y-94070736D01*
X209126792Y-94070733D01*
X209126792Y-94070731D01*
X209068667Y-93879120D01*
X209051575Y-93847144D01*
X208974279Y-93702533D01*
X208974278Y-93702531D01*
X208847252Y-93547748D01*
X208692469Y-93420722D01*
X208692467Y-93420721D01*
X208692466Y-93420720D01*
X208515883Y-93326334D01*
X208515877Y-93326332D01*
X208379931Y-93285093D01*
X208324269Y-93268208D01*
X208324268Y-93268207D01*
X208324262Y-93268206D01*
X208125003Y-93248582D01*
X208124997Y-93248582D01*
X207925738Y-93268206D01*
X207925736Y-93268206D01*
X207734122Y-93326332D01*
X207734116Y-93326334D01*
X207557533Y-93420720D01*
X207402748Y-93547748D01*
X207275720Y-93702533D01*
X207251281Y-93748256D01*
X207227637Y-93792493D01*
X207225497Y-93796496D01*
X207175745Y-93847144D01*
X207114375Y-93863100D01*
X206458065Y-93863100D01*
X206389944Y-93843098D01*
X206343451Y-93789442D01*
X206333347Y-93719168D01*
X206360665Y-93657167D01*
X206434278Y-93567469D01*
X206528667Y-93390880D01*
X206586792Y-93199269D01*
X206586793Y-93199261D01*
X206606418Y-93000003D01*
X206606418Y-92999996D01*
X206586793Y-92800738D01*
X206586793Y-92800736D01*
X206586792Y-92800733D01*
X206586792Y-92800731D01*
X206528667Y-92609120D01*
X206434278Y-92432531D01*
X206307252Y-92277748D01*
X206152469Y-92150722D01*
X206152467Y-92150721D01*
X206152466Y-92150720D01*
X205975883Y-92056334D01*
X205975877Y-92056332D01*
X205784262Y-91998206D01*
X205585003Y-91978582D01*
X205584997Y-91978582D01*
X205385738Y-91998206D01*
X205385736Y-91998206D01*
X205194122Y-92056332D01*
X205194116Y-92056334D01*
X205017533Y-92150720D01*
X204862748Y-92277748D01*
X204735720Y-92432533D01*
X204641334Y-92609116D01*
X204641332Y-92609122D01*
X204583206Y-92800736D01*
X204583206Y-92800738D01*
X204563582Y-92999996D01*
X204563582Y-93000003D01*
X204583206Y-93199261D01*
X204583206Y-93199263D01*
X204641332Y-93390877D01*
X204641334Y-93390883D01*
X204735720Y-93567466D01*
X204809335Y-93657167D01*
X204837088Y-93722515D01*
X204825106Y-93792493D01*
X204777193Y-93844884D01*
X204711935Y-93863100D01*
X199222426Y-93863100D01*
X199118942Y-93890829D01*
X199118939Y-93890830D01*
X199026160Y-93944396D01*
X199026150Y-93944404D01*
X195623561Y-97346995D01*
X195561249Y-97381021D01*
X195534466Y-97383900D01*
X185517504Y-97383900D01*
X185449383Y-97363898D01*
X185402890Y-97310242D01*
X185392786Y-97239968D01*
X185422280Y-97175388D01*
X185450468Y-97151213D01*
X185518595Y-97108405D01*
X185564400Y-97079624D01*
X185684624Y-96959400D01*
X185775082Y-96815437D01*
X185831237Y-96654954D01*
X185850274Y-96486000D01*
X185831237Y-96317046D01*
X185775082Y-96156563D01*
X185684624Y-96012600D01*
X185684622Y-96012597D01*
X185612120Y-95940095D01*
X185578094Y-95877783D01*
X185583159Y-95806968D01*
X185612120Y-95761905D01*
X185684622Y-95689402D01*
X185684624Y-95689400D01*
X185775082Y-95545437D01*
X185831237Y-95384954D01*
X185850274Y-95216000D01*
X185831237Y-95047046D01*
X185775082Y-94886563D01*
X185684624Y-94742600D01*
X185684622Y-94742597D01*
X185612120Y-94670095D01*
X185578094Y-94607783D01*
X185583159Y-94536968D01*
X185612120Y-94491905D01*
X185684622Y-94419402D01*
X185684624Y-94419400D01*
X185775082Y-94275437D01*
X185831237Y-94114954D01*
X185850274Y-93946000D01*
X185831237Y-93777046D01*
X185821161Y-93748252D01*
X185817541Y-93677351D01*
X185852829Y-93615745D01*
X185864581Y-93605769D01*
X185953906Y-93538901D01*
X186041444Y-93421965D01*
X186041444Y-93421964D01*
X186092494Y-93285093D01*
X186098999Y-93224597D01*
X186099000Y-93224585D01*
X186099000Y-92803000D01*
X185392953Y-92803000D01*
X185393851Y-92801445D01*
X185416000Y-92718787D01*
X185416000Y-92633213D01*
X185393851Y-92550555D01*
X185392953Y-92549000D01*
X186099000Y-92549000D01*
X186099000Y-92127414D01*
X186098999Y-92127402D01*
X186092494Y-92066906D01*
X186041444Y-91930035D01*
X186041444Y-91930034D01*
X185953904Y-91813095D01*
X185836965Y-91725555D01*
X185700093Y-91674505D01*
X185639597Y-91668000D01*
X185218000Y-91668000D01*
X185218000Y-92374046D01*
X185216445Y-92373149D01*
X185133787Y-92351000D01*
X185048213Y-92351000D01*
X184965555Y-92373149D01*
X184964000Y-92374046D01*
X184964000Y-91668000D01*
X184542402Y-91668000D01*
X184481906Y-91674505D01*
X184345035Y-91725555D01*
X184345034Y-91725555D01*
X184228095Y-91813095D01*
X184140555Y-91930034D01*
X184140555Y-91930035D01*
X184089505Y-92066906D01*
X184083000Y-92127402D01*
X184083000Y-92549000D01*
X184789047Y-92549000D01*
X184788149Y-92550555D01*
X184766000Y-92633213D01*
X184766000Y-92718787D01*
X184788149Y-92801445D01*
X184789047Y-92803000D01*
X184083000Y-92803000D01*
X184083000Y-93224597D01*
X184089505Y-93285093D01*
X184140555Y-93421964D01*
X184140555Y-93421965D01*
X184228094Y-93538902D01*
X184317418Y-93605770D01*
X184359964Y-93662606D01*
X184365028Y-93733422D01*
X184360839Y-93748250D01*
X184350763Y-93777046D01*
X184331726Y-93946000D01*
X184343547Y-94050918D01*
X184331297Y-94120850D01*
X184307434Y-94154120D01*
X182232161Y-96229395D01*
X182169849Y-96263420D01*
X182143066Y-96266300D01*
X177788334Y-96266300D01*
X177720213Y-96246298D01*
X177673720Y-96192642D01*
X177663616Y-96122368D01*
X177693110Y-96057788D01*
X177699239Y-96051205D01*
X178005039Y-95745405D01*
X178067351Y-95711379D01*
X178094134Y-95708500D01*
X178277231Y-95708500D01*
X181288402Y-95708500D01*
X181356522Y-95728501D01*
X181419389Y-95768904D01*
X181538839Y-95803978D01*
X181559685Y-95810099D01*
X181559686Y-95810099D01*
X181559689Y-95810100D01*
X181559692Y-95810100D01*
X181705908Y-95810100D01*
X181705911Y-95810100D01*
X181846211Y-95768904D01*
X181969221Y-95689850D01*
X182064976Y-95579343D01*
X182125719Y-95446334D01*
X182140903Y-95340731D01*
X182146529Y-95301603D01*
X182146529Y-95301596D01*
X182125720Y-95156872D01*
X182125719Y-95156871D01*
X182125719Y-95156866D01*
X182064976Y-95023857D01*
X181969221Y-94913350D01*
X181969220Y-94913349D01*
X181851148Y-94837469D01*
X181846211Y-94834296D01*
X181811136Y-94823997D01*
X181705914Y-94793100D01*
X181705911Y-94793100D01*
X181559689Y-94793100D01*
X181559685Y-94793100D01*
X181419389Y-94834296D01*
X181419387Y-94834297D01*
X181356523Y-94874698D01*
X181288403Y-94894700D01*
X177889933Y-94894700D01*
X177821812Y-94874698D01*
X177775319Y-94821042D01*
X177765215Y-94750768D01*
X177794709Y-94686188D01*
X177800838Y-94679605D01*
X178863881Y-93616563D01*
X181390441Y-91090003D01*
X212215663Y-91090003D01*
X212234991Y-91384898D01*
X212234993Y-91384913D01*
X212276110Y-91591619D01*
X212292597Y-91674505D01*
X212292648Y-91674757D01*
X212292650Y-91674767D01*
X212387642Y-91954603D01*
X212387648Y-91954617D01*
X212518355Y-92219666D01*
X212682546Y-92465396D01*
X212682549Y-92465400D01*
X212877406Y-92687593D01*
X213099599Y-92882450D01*
X213099603Y-92882453D01*
X213345331Y-93046643D01*
X213610389Y-93177355D01*
X213890241Y-93272352D01*
X214140789Y-93322189D01*
X214180086Y-93330006D01*
X214180088Y-93330006D01*
X214180097Y-93330008D01*
X214348613Y-93341053D01*
X214474997Y-93349337D01*
X214475000Y-93349337D01*
X214475003Y-93349337D01*
X214585588Y-93342088D01*
X214769903Y-93330008D01*
X215059759Y-93272352D01*
X215339611Y-93177355D01*
X215604669Y-93046643D01*
X215850397Y-92882453D01*
X216072593Y-92687593D01*
X216267453Y-92465397D01*
X216431643Y-92219669D01*
X216562355Y-91954611D01*
X216657352Y-91674759D01*
X216715008Y-91384903D01*
X216734337Y-91090000D01*
X216715008Y-90795097D01*
X216657352Y-90505241D01*
X216562355Y-90225389D01*
X216431643Y-89960332D01*
X216267453Y-89714603D01*
X216267450Y-89714599D01*
X216072593Y-89492406D01*
X215850400Y-89297549D01*
X215850396Y-89297546D01*
X215604666Y-89133355D01*
X215339617Y-89002648D01*
X215339611Y-89002645D01*
X215339606Y-89002643D01*
X215339603Y-89002642D01*
X215059767Y-88907650D01*
X215059761Y-88907648D01*
X215059759Y-88907648D01*
X214976619Y-88891110D01*
X214769913Y-88849993D01*
X214769898Y-88849991D01*
X214475003Y-88830663D01*
X214474997Y-88830663D01*
X214180101Y-88849991D01*
X214180086Y-88849993D01*
X213931810Y-88899379D01*
X213890241Y-88907648D01*
X213890239Y-88907648D01*
X213890232Y-88907650D01*
X213610396Y-89002642D01*
X213610382Y-89002648D01*
X213345334Y-89133355D01*
X213099603Y-89297546D01*
X213099599Y-89297549D01*
X212877406Y-89492406D01*
X212682549Y-89714599D01*
X212682546Y-89714603D01*
X212518355Y-89960334D01*
X212387648Y-90225382D01*
X212387642Y-90225396D01*
X212292650Y-90505232D01*
X212292648Y-90505242D01*
X212234993Y-90795086D01*
X212234991Y-90795101D01*
X212215663Y-91089996D01*
X212215663Y-91090003D01*
X181390441Y-91090003D01*
X186615639Y-85864805D01*
X186677951Y-85830779D01*
X186704734Y-85827900D01*
X196115311Y-85827900D01*
X196183432Y-85847902D01*
X196229925Y-85901558D01*
X196240029Y-85971832D01*
X196226433Y-86013296D01*
X196153834Y-86149117D01*
X196153832Y-86149122D01*
X196095706Y-86340736D01*
X196095706Y-86340738D01*
X196076082Y-86539996D01*
X196076082Y-86540003D01*
X196095706Y-86739261D01*
X196095706Y-86739263D01*
X196153832Y-86930877D01*
X196153834Y-86930883D01*
X196248220Y-87107466D01*
X196248222Y-87107469D01*
X196375248Y-87262252D01*
X196530031Y-87389278D01*
X196706620Y-87483667D01*
X196898231Y-87541792D01*
X196898235Y-87541792D01*
X196898237Y-87541793D01*
X197097497Y-87561418D01*
X197097500Y-87561418D01*
X197097503Y-87561418D01*
X197296761Y-87541793D01*
X197296763Y-87541793D01*
X197296764Y-87541792D01*
X197296769Y-87541792D01*
X197488380Y-87483667D01*
X197664969Y-87389278D01*
X197819752Y-87262252D01*
X197946778Y-87107469D01*
X198041167Y-86930880D01*
X198099292Y-86739269D01*
X198118918Y-86540000D01*
X198099293Y-86340737D01*
X198099293Y-86340736D01*
X198099292Y-86340733D01*
X198099292Y-86340731D01*
X198041167Y-86149120D01*
X197968566Y-86013294D01*
X197954095Y-85943790D01*
X197979498Y-85877494D01*
X198036711Y-85835456D01*
X198079689Y-85827900D01*
X198297766Y-85827900D01*
X198365887Y-85847902D01*
X198386861Y-85864805D01*
X198635157Y-86113101D01*
X198669183Y-86175413D01*
X198666637Y-86238771D01*
X198635706Y-86340737D01*
X198616082Y-86539996D01*
X198616082Y-86540003D01*
X198635706Y-86739261D01*
X198635706Y-86739263D01*
X198693832Y-86930877D01*
X198693834Y-86930883D01*
X198788220Y-87107466D01*
X198788222Y-87107469D01*
X198915248Y-87262252D01*
X199070031Y-87389278D01*
X199246620Y-87483667D01*
X199438231Y-87541792D01*
X199438235Y-87541792D01*
X199438237Y-87541793D01*
X199637497Y-87561418D01*
X199637500Y-87561418D01*
X199637503Y-87561418D01*
X199836761Y-87541793D01*
X199836763Y-87541793D01*
X199836764Y-87541792D01*
X199836769Y-87541792D01*
X200028380Y-87483667D01*
X200204969Y-87389278D01*
X200359752Y-87262252D01*
X200486778Y-87107469D01*
X200581167Y-86930880D01*
X200639292Y-86739269D01*
X200658918Y-86540000D01*
X200639293Y-86340737D01*
X200639293Y-86340736D01*
X200639292Y-86340733D01*
X200639292Y-86340731D01*
X200581167Y-86149120D01*
X200486778Y-85972531D01*
X200359752Y-85817748D01*
X200204969Y-85690722D01*
X200204967Y-85690721D01*
X200204966Y-85690720D01*
X200028383Y-85596334D01*
X200028377Y-85596332D01*
X199836762Y-85538206D01*
X199637503Y-85518582D01*
X199637497Y-85518582D01*
X199438237Y-85538206D01*
X199336271Y-85569137D01*
X199265277Y-85569770D01*
X199210602Y-85537658D01*
X198786123Y-85113179D01*
X198752098Y-85050867D01*
X198757163Y-84980051D01*
X198799710Y-84923216D01*
X198815819Y-84912964D01*
X198934969Y-84849278D01*
X199089752Y-84722252D01*
X199216778Y-84567469D01*
X199311167Y-84390880D01*
X199369292Y-84199269D01*
X199385177Y-84037977D01*
X199400478Y-84000085D01*
X199620665Y-84000085D01*
X199634363Y-84026849D01*
X199636090Y-84039346D01*
X199652015Y-84221365D01*
X199652016Y-84221371D01*
X199709531Y-84436023D01*
X199709533Y-84436027D01*
X199803446Y-84637424D01*
X199803447Y-84637426D01*
X199921651Y-84806240D01*
X199921653Y-84806240D01*
X200562847Y-84165045D01*
X200602624Y-84233940D01*
X200673560Y-84304876D01*
X200742452Y-84344651D01*
X200101258Y-84985845D01*
X200270075Y-85104053D01*
X200270074Y-85104053D01*
X200471472Y-85197966D01*
X200471476Y-85197968D01*
X200686125Y-85255482D01*
X200907500Y-85274850D01*
X201128874Y-85255482D01*
X201343523Y-85197968D01*
X201343527Y-85197966D01*
X201544925Y-85104053D01*
X201713740Y-84985846D01*
X201713740Y-84985844D01*
X201072547Y-84344651D01*
X201141440Y-84304876D01*
X201212376Y-84233940D01*
X201252151Y-84165047D01*
X201893344Y-84806240D01*
X201893346Y-84806240D01*
X202011553Y-84637425D01*
X202105466Y-84436027D01*
X202105468Y-84436023D01*
X202162982Y-84221374D01*
X202182350Y-84000000D01*
X202162982Y-83778625D01*
X202105468Y-83563976D01*
X202105466Y-83563972D01*
X202011552Y-83362574D01*
X201893346Y-83193758D01*
X201893345Y-83193758D01*
X201252151Y-83834952D01*
X201212376Y-83766060D01*
X201141440Y-83695124D01*
X201072545Y-83655347D01*
X201713740Y-83014153D01*
X201713740Y-83014151D01*
X201544926Y-82895947D01*
X201544924Y-82895946D01*
X201343527Y-82802033D01*
X201343523Y-82802031D01*
X201128874Y-82744517D01*
X200907500Y-82725149D01*
X200686125Y-82744517D01*
X200471476Y-82802031D01*
X200471472Y-82802033D01*
X200270071Y-82895948D01*
X200101258Y-83014151D01*
X200101258Y-83014152D01*
X200742453Y-83655348D01*
X200673560Y-83695124D01*
X200602624Y-83766060D01*
X200562848Y-83834953D01*
X199921652Y-83193758D01*
X199921651Y-83193758D01*
X199803448Y-83362571D01*
X199709533Y-83563972D01*
X199709531Y-83563976D01*
X199652016Y-83778628D01*
X199652015Y-83778634D01*
X199636090Y-83960653D01*
X199620665Y-84000085D01*
X199400478Y-84000085D01*
X199400483Y-84000072D01*
X199387040Y-83974497D01*
X199385177Y-83962020D01*
X199385042Y-83960653D01*
X199369293Y-83800739D01*
X199369293Y-83800736D01*
X199369292Y-83800733D01*
X199369292Y-83800731D01*
X199311167Y-83609120D01*
X199294075Y-83577144D01*
X199216779Y-83432533D01*
X199216778Y-83432531D01*
X199089752Y-83277748D01*
X198934969Y-83150722D01*
X198934967Y-83150721D01*
X198934966Y-83150720D01*
X198758383Y-83056334D01*
X198758377Y-83056332D01*
X198619329Y-83014152D01*
X198566769Y-82998208D01*
X198566768Y-82998207D01*
X198566762Y-82998206D01*
X198367503Y-82978582D01*
X198367497Y-82978582D01*
X198168238Y-82998206D01*
X198168236Y-82998206D01*
X197976622Y-83056332D01*
X197976616Y-83056334D01*
X197800033Y-83150720D01*
X197645248Y-83277748D01*
X197518220Y-83432533D01*
X197467997Y-83526496D01*
X197418245Y-83577144D01*
X197356875Y-83593100D01*
X186759427Y-83593100D01*
X186655943Y-83620829D01*
X186655940Y-83620830D01*
X186563161Y-83674396D01*
X186563155Y-83674401D01*
X186149360Y-84088196D01*
X186087048Y-84122221D01*
X186060265Y-84125100D01*
X186049426Y-84125100D01*
X185945942Y-84152829D01*
X185945939Y-84152830D01*
X185853160Y-84206396D01*
X185853150Y-84206404D01*
X182071995Y-87987560D01*
X182009683Y-88021586D01*
X181938868Y-88016521D01*
X181882032Y-87973974D01*
X181857221Y-87907454D01*
X181856900Y-87898465D01*
X181856900Y-87550625D01*
X181876902Y-87482504D01*
X181923503Y-87439503D01*
X182017469Y-87389278D01*
X182172252Y-87262252D01*
X182299278Y-87107469D01*
X182393667Y-86930880D01*
X182451792Y-86739269D01*
X182471418Y-86540000D01*
X182451793Y-86340737D01*
X182451793Y-86340736D01*
X182451792Y-86340733D01*
X182451792Y-86340731D01*
X182393667Y-86149120D01*
X182299278Y-85972531D01*
X182172252Y-85817748D01*
X182017469Y-85690722D01*
X182017467Y-85690721D01*
X182017466Y-85690720D01*
X181840883Y-85596334D01*
X181840877Y-85596332D01*
X181649262Y-85538206D01*
X181450003Y-85518582D01*
X181449997Y-85518582D01*
X181250738Y-85538206D01*
X181250736Y-85538206D01*
X181059122Y-85596332D01*
X181059116Y-85596334D01*
X180882533Y-85690720D01*
X180727748Y-85817748D01*
X180600720Y-85972533D01*
X180506334Y-86149116D01*
X180506332Y-86149122D01*
X180448206Y-86340736D01*
X180448206Y-86340738D01*
X180428582Y-86539996D01*
X180428582Y-86540003D01*
X180448206Y-86739261D01*
X180448206Y-86739263D01*
X180506332Y-86930877D01*
X180506334Y-86930883D01*
X180600720Y-87107466D01*
X180600722Y-87107469D01*
X180727748Y-87262252D01*
X180882531Y-87389278D01*
X180976496Y-87439503D01*
X181027144Y-87489255D01*
X181043100Y-87550625D01*
X181043100Y-87694466D01*
X181023098Y-87762587D01*
X181006195Y-87783561D01*
X176996995Y-91792761D01*
X176934683Y-91826787D01*
X176863868Y-91821722D01*
X176807032Y-91779175D01*
X176782221Y-91712655D01*
X176781900Y-91703666D01*
X176781900Y-86540003D01*
X177888582Y-86540003D01*
X177908206Y-86739261D01*
X177908206Y-86739263D01*
X177966332Y-86930877D01*
X177966334Y-86930883D01*
X178060720Y-87107466D01*
X178060722Y-87107469D01*
X178187748Y-87262252D01*
X178342531Y-87389278D01*
X178519120Y-87483667D01*
X178710731Y-87541792D01*
X178710735Y-87541792D01*
X178710737Y-87541793D01*
X178909997Y-87561418D01*
X178910000Y-87561418D01*
X178910003Y-87561418D01*
X179109261Y-87541793D01*
X179109263Y-87541793D01*
X179109264Y-87541792D01*
X179109269Y-87541792D01*
X179300880Y-87483667D01*
X179477469Y-87389278D01*
X179632252Y-87262252D01*
X179759278Y-87107469D01*
X179853667Y-86930880D01*
X179911792Y-86739269D01*
X179931418Y-86540000D01*
X179911793Y-86340737D01*
X179911793Y-86340736D01*
X179911792Y-86340733D01*
X179911792Y-86340731D01*
X179853667Y-86149120D01*
X179759278Y-85972531D01*
X179632252Y-85817748D01*
X179477469Y-85690722D01*
X179477467Y-85690721D01*
X179477466Y-85690720D01*
X179300883Y-85596334D01*
X179300877Y-85596332D01*
X179109262Y-85538206D01*
X178910003Y-85518582D01*
X178909997Y-85518582D01*
X178710738Y-85538206D01*
X178710736Y-85538206D01*
X178519122Y-85596332D01*
X178519116Y-85596334D01*
X178342533Y-85690720D01*
X178187748Y-85817748D01*
X178060720Y-85972533D01*
X177966334Y-86149116D01*
X177966332Y-86149122D01*
X177908206Y-86340736D01*
X177908206Y-86340738D01*
X177888582Y-86539996D01*
X177888582Y-86540003D01*
X176781900Y-86540003D01*
X176781900Y-85260734D01*
X176801902Y-85192613D01*
X176818805Y-85171639D01*
X177546639Y-84443805D01*
X177608951Y-84409779D01*
X177635734Y-84406900D01*
X179169375Y-84406900D01*
X179237496Y-84426902D01*
X179280496Y-84473503D01*
X179330722Y-84567469D01*
X179457748Y-84722252D01*
X179612531Y-84849278D01*
X179612533Y-84849279D01*
X179780201Y-84938900D01*
X179789120Y-84943667D01*
X179980731Y-85001792D01*
X179980735Y-85001792D01*
X179980737Y-85001793D01*
X180179997Y-85021418D01*
X180180000Y-85021418D01*
X180180003Y-85021418D01*
X180379261Y-85001793D01*
X180379263Y-85001793D01*
X180379264Y-85001792D01*
X180379269Y-85001792D01*
X180570880Y-84943667D01*
X180747469Y-84849278D01*
X180902252Y-84722252D01*
X181029278Y-84567469D01*
X181123667Y-84390880D01*
X181181792Y-84199269D01*
X181197677Y-84037977D01*
X181212978Y-84000085D01*
X181433165Y-84000085D01*
X181446863Y-84026849D01*
X181448590Y-84039346D01*
X181464515Y-84221365D01*
X181464516Y-84221371D01*
X181522031Y-84436023D01*
X181522033Y-84436027D01*
X181615946Y-84637424D01*
X181615947Y-84637426D01*
X181734151Y-84806240D01*
X181734153Y-84806240D01*
X182375347Y-84165045D01*
X182415124Y-84233940D01*
X182486060Y-84304876D01*
X182554952Y-84344651D01*
X181913758Y-84985845D01*
X182082575Y-85104053D01*
X182082574Y-85104053D01*
X182283972Y-85197966D01*
X182283976Y-85197968D01*
X182498625Y-85255482D01*
X182720000Y-85274850D01*
X182941374Y-85255482D01*
X183156023Y-85197968D01*
X183156027Y-85197966D01*
X183357425Y-85104053D01*
X183526240Y-84985846D01*
X183526240Y-84985844D01*
X182885047Y-84344651D01*
X182953940Y-84304876D01*
X183024876Y-84233940D01*
X183064651Y-84165047D01*
X183705844Y-84806240D01*
X183705846Y-84806240D01*
X183824053Y-84637425D01*
X183917966Y-84436027D01*
X183917968Y-84436023D01*
X183975482Y-84221374D01*
X183994850Y-84000000D01*
X183975482Y-83778625D01*
X183917968Y-83563976D01*
X183917966Y-83563972D01*
X183824052Y-83362574D01*
X183705846Y-83193758D01*
X183705845Y-83193758D01*
X183064651Y-83834952D01*
X183024876Y-83766060D01*
X182953940Y-83695124D01*
X182885045Y-83655347D01*
X183526240Y-83014153D01*
X183526240Y-83014151D01*
X183357426Y-82895947D01*
X183357424Y-82895946D01*
X183156027Y-82802033D01*
X183156023Y-82802031D01*
X182941374Y-82744517D01*
X182720000Y-82725149D01*
X182498625Y-82744517D01*
X182283976Y-82802031D01*
X182283972Y-82802033D01*
X182082571Y-82895948D01*
X181913758Y-83014151D01*
X181913758Y-83014152D01*
X182554953Y-83655348D01*
X182486060Y-83695124D01*
X182415124Y-83766060D01*
X182375348Y-83834953D01*
X181734152Y-83193758D01*
X181734151Y-83193758D01*
X181615948Y-83362571D01*
X181522033Y-83563972D01*
X181522031Y-83563976D01*
X181464516Y-83778628D01*
X181464515Y-83778634D01*
X181448590Y-83960653D01*
X181433165Y-84000085D01*
X181212978Y-84000085D01*
X181212983Y-84000072D01*
X181199540Y-83974497D01*
X181197677Y-83962020D01*
X181197542Y-83960653D01*
X181181793Y-83800739D01*
X181181793Y-83800736D01*
X181181792Y-83800733D01*
X181181792Y-83800731D01*
X181123667Y-83609120D01*
X181106575Y-83577144D01*
X181029279Y-83432533D01*
X181029278Y-83432531D01*
X180902252Y-83277748D01*
X180747469Y-83150722D01*
X180747467Y-83150721D01*
X180747466Y-83150720D01*
X180570883Y-83056334D01*
X180570877Y-83056332D01*
X180431829Y-83014152D01*
X180379269Y-82998208D01*
X180379268Y-82998207D01*
X180379262Y-82998206D01*
X180180003Y-82978582D01*
X180179997Y-82978582D01*
X179980738Y-82998206D01*
X179980736Y-82998206D01*
X179789122Y-83056332D01*
X179789116Y-83056334D01*
X179612533Y-83150720D01*
X179457748Y-83277748D01*
X179330720Y-83432533D01*
X179280497Y-83526496D01*
X179230745Y-83577144D01*
X179169375Y-83593100D01*
X177361426Y-83593100D01*
X177257942Y-83620829D01*
X177257939Y-83620830D01*
X177165160Y-83674396D01*
X177165150Y-83674404D01*
X176049404Y-84790150D01*
X176049398Y-84790158D01*
X175995829Y-84882943D01*
X175968100Y-84986431D01*
X175968100Y-91804266D01*
X175948098Y-91872387D01*
X175931195Y-91893361D01*
X175303561Y-92520995D01*
X175241249Y-92555021D01*
X175214466Y-92557900D01*
X165475631Y-92557900D01*
X165399874Y-92578198D01*
X165399872Y-92578199D01*
X165372142Y-92585630D01*
X165331463Y-92609116D01*
X165279358Y-92639198D01*
X165279350Y-92639204D01*
X164898804Y-93019750D01*
X164898798Y-93019758D01*
X164845229Y-93112543D01*
X164817500Y-93216031D01*
X164817500Y-99774773D01*
X164000500Y-99774773D01*
X164000500Y-79419730D01*
X166814087Y-79419730D01*
X166832699Y-79644348D01*
X166834623Y-79667558D01*
X166895665Y-79908607D01*
X166895668Y-79908614D01*
X166995556Y-80136336D01*
X167131565Y-80344515D01*
X167299979Y-80527462D01*
X167299984Y-80527466D01*
X167299986Y-80527468D01*
X167374083Y-80585140D01*
X167496220Y-80680203D01*
X167496221Y-80680204D01*
X167714920Y-80798558D01*
X167714922Y-80798559D01*
X167838407Y-80840951D01*
X167950116Y-80879301D01*
X168195395Y-80920230D01*
X168195399Y-80920230D01*
X168444061Y-80920230D01*
X168444065Y-80920230D01*
X168689344Y-80879301D01*
X168924540Y-80798558D01*
X169143239Y-80680204D01*
X169339474Y-80527468D01*
X169385697Y-80477257D01*
X169507894Y-80344515D01*
X169544477Y-80288520D01*
X169643903Y-80136337D01*
X169743793Y-79908611D01*
X169804838Y-79667551D01*
X169825373Y-79419730D01*
X169804838Y-79171909D01*
X169743793Y-78930849D01*
X169643903Y-78703123D01*
X169538839Y-78542310D01*
X169507894Y-78494944D01*
X169339480Y-78311997D01*
X169240242Y-78234757D01*
X169143239Y-78159256D01*
X169143238Y-78159255D01*
X168924539Y-78040901D01*
X168924537Y-78040900D01*
X168689348Y-77960160D01*
X168689339Y-77960158D01*
X168640566Y-77952019D01*
X168444065Y-77919230D01*
X168195395Y-77919230D01*
X168041572Y-77944898D01*
X167950120Y-77960158D01*
X167950111Y-77960160D01*
X167714922Y-78040900D01*
X167714920Y-78040901D01*
X167496221Y-78159255D01*
X167496220Y-78159256D01*
X167299979Y-78311997D01*
X167131565Y-78494944D01*
X166995556Y-78703123D01*
X166895668Y-78930845D01*
X166895665Y-78930852D01*
X166834623Y-79171901D01*
X166834622Y-79171907D01*
X166834622Y-79171909D01*
X166814087Y-79419730D01*
X164000500Y-79419730D01*
X164000500Y-77650003D01*
X174740663Y-77650003D01*
X174759991Y-77944898D01*
X174759993Y-77944913D01*
X174817648Y-78234757D01*
X174817650Y-78234767D01*
X174912642Y-78514603D01*
X174912648Y-78514617D01*
X175043355Y-78779666D01*
X175207546Y-79025396D01*
X175207549Y-79025400D01*
X175402406Y-79247593D01*
X175624599Y-79442450D01*
X175624603Y-79442453D01*
X175870331Y-79606643D01*
X176135389Y-79737355D01*
X176415241Y-79832352D01*
X176665789Y-79882189D01*
X176705086Y-79890006D01*
X176705088Y-79890006D01*
X176705097Y-79890008D01*
X176873613Y-79901053D01*
X176999997Y-79909337D01*
X177000000Y-79909337D01*
X177000003Y-79909337D01*
X177110588Y-79902088D01*
X177294903Y-79890008D01*
X177584759Y-79832352D01*
X177864611Y-79737355D01*
X178129669Y-79606643D01*
X178375397Y-79442453D01*
X178597593Y-79247593D01*
X178792453Y-79025397D01*
X178956643Y-78779669D01*
X179087355Y-78514611D01*
X179182352Y-78234759D01*
X179240008Y-77944903D01*
X179259337Y-77650003D01*
X182365663Y-77650003D01*
X182384991Y-77944898D01*
X182384993Y-77944913D01*
X182442648Y-78234757D01*
X182442650Y-78234767D01*
X182537642Y-78514603D01*
X182537648Y-78514617D01*
X182668355Y-78779666D01*
X182832546Y-79025396D01*
X182832549Y-79025400D01*
X183027406Y-79247593D01*
X183249599Y-79442450D01*
X183249603Y-79442453D01*
X183495331Y-79606643D01*
X183760389Y-79737355D01*
X184040241Y-79832352D01*
X184290789Y-79882189D01*
X184330086Y-79890006D01*
X184330088Y-79890006D01*
X184330097Y-79890008D01*
X184498613Y-79901053D01*
X184624997Y-79909337D01*
X184625000Y-79909337D01*
X184625003Y-79909337D01*
X184735588Y-79902088D01*
X184919903Y-79890008D01*
X185209759Y-79832352D01*
X185489611Y-79737355D01*
X185754669Y-79606643D01*
X186000397Y-79442453D01*
X186222593Y-79247593D01*
X186417453Y-79025397D01*
X186581643Y-78779669D01*
X186712355Y-78514611D01*
X186807352Y-78234759D01*
X186865008Y-77944903D01*
X186884337Y-77650003D01*
X192928163Y-77650003D01*
X192947491Y-77944898D01*
X192947493Y-77944913D01*
X193005148Y-78234757D01*
X193005150Y-78234767D01*
X193100142Y-78514603D01*
X193100148Y-78514617D01*
X193230855Y-78779666D01*
X193395046Y-79025396D01*
X193395049Y-79025400D01*
X193589906Y-79247593D01*
X193812099Y-79442450D01*
X193812103Y-79442453D01*
X194057831Y-79606643D01*
X194322889Y-79737355D01*
X194602741Y-79832352D01*
X194853289Y-79882189D01*
X194892586Y-79890006D01*
X194892588Y-79890006D01*
X194892597Y-79890008D01*
X195061113Y-79901053D01*
X195187497Y-79909337D01*
X195187500Y-79909337D01*
X195187503Y-79909337D01*
X195298088Y-79902088D01*
X195482403Y-79890008D01*
X195772259Y-79832352D01*
X196052111Y-79737355D01*
X196317169Y-79606643D01*
X196562897Y-79442453D01*
X196785093Y-79247593D01*
X196979953Y-79025397D01*
X197144143Y-78779669D01*
X197274855Y-78514611D01*
X197369852Y-78234759D01*
X197427508Y-77944903D01*
X197446837Y-77650003D01*
X200553163Y-77650003D01*
X200572491Y-77944898D01*
X200572493Y-77944913D01*
X200630148Y-78234757D01*
X200630150Y-78234767D01*
X200725142Y-78514603D01*
X200725148Y-78514617D01*
X200855855Y-78779666D01*
X201020046Y-79025396D01*
X201020049Y-79025400D01*
X201214906Y-79247593D01*
X201437099Y-79442450D01*
X201437103Y-79442453D01*
X201682831Y-79606643D01*
X201947889Y-79737355D01*
X202227741Y-79832352D01*
X202478289Y-79882189D01*
X202517586Y-79890006D01*
X202517588Y-79890006D01*
X202517597Y-79890008D01*
X202686113Y-79901053D01*
X202812497Y-79909337D01*
X202812500Y-79909337D01*
X202812503Y-79909337D01*
X202923088Y-79902088D01*
X203107403Y-79890008D01*
X203397259Y-79832352D01*
X203677111Y-79737355D01*
X203942169Y-79606643D01*
X204187897Y-79442453D01*
X204410093Y-79247593D01*
X204604953Y-79025397D01*
X204769143Y-78779669D01*
X204899855Y-78514611D01*
X204994852Y-78234759D01*
X205052508Y-77944903D01*
X205071837Y-77650000D01*
X205052508Y-77355097D01*
X204994852Y-77065241D01*
X204899855Y-76785389D01*
X204769143Y-76520332D01*
X204604953Y-76274603D01*
X204604950Y-76274599D01*
X204410093Y-76052406D01*
X204187900Y-75857549D01*
X204187896Y-75857546D01*
X203942166Y-75693355D01*
X203677117Y-75562648D01*
X203677111Y-75562645D01*
X203677106Y-75562643D01*
X203677103Y-75562642D01*
X203397267Y-75467650D01*
X203397261Y-75467648D01*
X203397259Y-75467648D01*
X203314119Y-75451110D01*
X203107413Y-75409993D01*
X203107398Y-75409991D01*
X202812503Y-75390663D01*
X202812497Y-75390663D01*
X202517601Y-75409991D01*
X202517586Y-75409993D01*
X202269310Y-75459379D01*
X202227741Y-75467648D01*
X202227739Y-75467648D01*
X202227732Y-75467650D01*
X201947896Y-75562642D01*
X201947882Y-75562648D01*
X201682834Y-75693355D01*
X201437103Y-75857546D01*
X201437099Y-75857549D01*
X201214906Y-76052406D01*
X201020049Y-76274599D01*
X201020046Y-76274603D01*
X200855855Y-76520334D01*
X200725148Y-76785382D01*
X200725142Y-76785396D01*
X200630150Y-77065232D01*
X200630148Y-77065242D01*
X200572493Y-77355086D01*
X200572491Y-77355101D01*
X200553163Y-77649996D01*
X200553163Y-77650003D01*
X197446837Y-77650003D01*
X197446837Y-77650000D01*
X197427508Y-77355097D01*
X197369852Y-77065241D01*
X197274855Y-76785389D01*
X197144143Y-76520332D01*
X196979953Y-76274603D01*
X196979950Y-76274599D01*
X196785093Y-76052406D01*
X196562900Y-75857549D01*
X196562896Y-75857546D01*
X196317166Y-75693355D01*
X196052117Y-75562648D01*
X196052111Y-75562645D01*
X196052106Y-75562643D01*
X196052103Y-75562642D01*
X195772267Y-75467650D01*
X195772261Y-75467648D01*
X195772259Y-75467648D01*
X195689119Y-75451110D01*
X195482413Y-75409993D01*
X195482398Y-75409991D01*
X195187503Y-75390663D01*
X195187497Y-75390663D01*
X194892601Y-75409991D01*
X194892586Y-75409993D01*
X194644310Y-75459379D01*
X194602741Y-75467648D01*
X194602739Y-75467648D01*
X194602732Y-75467650D01*
X194322896Y-75562642D01*
X194322882Y-75562648D01*
X194057834Y-75693355D01*
X193812103Y-75857546D01*
X193812099Y-75857549D01*
X193589906Y-76052406D01*
X193395049Y-76274599D01*
X193395046Y-76274603D01*
X193230855Y-76520334D01*
X193100148Y-76785382D01*
X193100142Y-76785396D01*
X193005150Y-77065232D01*
X193005148Y-77065242D01*
X192947493Y-77355086D01*
X192947491Y-77355101D01*
X192928163Y-77649996D01*
X192928163Y-77650003D01*
X186884337Y-77650003D01*
X186884337Y-77650000D01*
X186865008Y-77355097D01*
X186807352Y-77065241D01*
X186712355Y-76785389D01*
X186581643Y-76520332D01*
X186417453Y-76274603D01*
X186417450Y-76274599D01*
X186222593Y-76052406D01*
X186000400Y-75857549D01*
X186000396Y-75857546D01*
X185754666Y-75693355D01*
X185489617Y-75562648D01*
X185489611Y-75562645D01*
X185489606Y-75562643D01*
X185489603Y-75562642D01*
X185209767Y-75467650D01*
X185209761Y-75467648D01*
X185209759Y-75467648D01*
X185126619Y-75451110D01*
X184919913Y-75409993D01*
X184919898Y-75409991D01*
X184625003Y-75390663D01*
X184624997Y-75390663D01*
X184330101Y-75409991D01*
X184330086Y-75409993D01*
X184081810Y-75459379D01*
X184040241Y-75467648D01*
X184040239Y-75467648D01*
X184040232Y-75467650D01*
X183760396Y-75562642D01*
X183760382Y-75562648D01*
X183495334Y-75693355D01*
X183249603Y-75857546D01*
X183249599Y-75857549D01*
X183027406Y-76052406D01*
X182832549Y-76274599D01*
X182832546Y-76274603D01*
X182668355Y-76520334D01*
X182537648Y-76785382D01*
X182537642Y-76785396D01*
X182442650Y-77065232D01*
X182442648Y-77065242D01*
X182384993Y-77355086D01*
X182384991Y-77355101D01*
X182365663Y-77649996D01*
X182365663Y-77650003D01*
X179259337Y-77650003D01*
X179259337Y-77650000D01*
X179240008Y-77355097D01*
X179182352Y-77065241D01*
X179087355Y-76785389D01*
X178956643Y-76520332D01*
X178792453Y-76274603D01*
X178792450Y-76274599D01*
X178597593Y-76052406D01*
X178375400Y-75857549D01*
X178375396Y-75857546D01*
X178129666Y-75693355D01*
X177864617Y-75562648D01*
X177864611Y-75562645D01*
X177864606Y-75562643D01*
X177864603Y-75562642D01*
X177584767Y-75467650D01*
X177584761Y-75467648D01*
X177584759Y-75467648D01*
X177501619Y-75451110D01*
X177294913Y-75409993D01*
X177294898Y-75409991D01*
X177000003Y-75390663D01*
X176999997Y-75390663D01*
X176705101Y-75409991D01*
X176705086Y-75409993D01*
X176456810Y-75459379D01*
X176415241Y-75467648D01*
X176415239Y-75467648D01*
X176415232Y-75467650D01*
X176135396Y-75562642D01*
X176135382Y-75562648D01*
X175870334Y-75693355D01*
X175624603Y-75857546D01*
X175624599Y-75857549D01*
X175402406Y-76052406D01*
X175207549Y-76274599D01*
X175207546Y-76274603D01*
X175043355Y-76520334D01*
X174912648Y-76785382D01*
X174912642Y-76785396D01*
X174817650Y-77065232D01*
X174817648Y-77065242D01*
X174759993Y-77355086D01*
X174759991Y-77355101D01*
X174740663Y-77649996D01*
X174740663Y-77650003D01*
X164000500Y-77650003D01*
X164000500Y-75452472D01*
X164000510Y-75452363D01*
X164000502Y-75409881D01*
X164002050Y-75390163D01*
X164012023Y-75327130D01*
X164024202Y-75289631D01*
X164048615Y-75241707D01*
X164071786Y-75209813D01*
X164109813Y-75171786D01*
X164141707Y-75148615D01*
X164189631Y-75124202D01*
X164227127Y-75112023D01*
X164290164Y-75102049D01*
X164309881Y-75100502D01*
X164310689Y-75100502D01*
X164339842Y-75100508D01*
X164339842Y-75100507D01*
X164352363Y-75100510D01*
X164352472Y-75100500D01*
X209837644Y-75100500D01*
X209837676Y-75100502D01*
G37*
%TD.AperFunction*%
%TD*%
M02*
