M48
; DRILL file {KiCad 8.0.1-8.0.1-1~ubuntu22.04.1} date 2024-05-08T14:36:05-0400
; FORMAT={-:-/ absolute / inch / decimal}
; #@! TF.CreationDate,2024-05-08T14:36:05-04:00
; #@! TF.GenerationSoftware,Kicad,Pcbnew,8.0.1-8.0.1-1~ubuntu22.04.1
; #@! TF.FileFunction,Plated,1,2,PTH
FMAT,2
INCH
; #@! TA.AperFunction,Plated,PTH,ViaDrill
T1C0.0080
; #@! TA.AperFunction,Plated,PTH,ViaDrill
T2C0.0150
; #@! TA.AperFunction,Plated,PTH,ComponentDrill
T3C0.0256
; #@! TA.AperFunction,Plated,PTH,ComponentDrill
T4C0.0291
; #@! TA.AperFunction,Plated,PTH,ComponentDrill
T5C0.0300
; #@! TA.AperFunction,Plated,PTH,ComponentDrill
T6C0.0394
; #@! TA.AperFunction,Plated,PTH,ComponentDrill
T7C0.1260
%
G90
G05
T1
X7.1509Y-3.752
T2
X7.2739Y-4.2404
X7.5689Y-4.193
X7.6539Y-4.198
T3
X7.287Y-3.6487
X7.287Y-3.6987
X7.287Y-3.7487
X7.287Y-3.7987
T4
X6.6532Y-3.7517
X6.6532Y-3.8017
X6.6532Y-3.8517
X6.6532Y-3.9017
X6.6532Y-3.9517
X6.6532Y-4.0017
X6.6532Y-4.0517
X6.6532Y-4.1017
X6.6532Y-4.1517
X6.6532Y-4.2017
X6.6532Y-4.2517
X6.6532Y-4.3017
X6.6532Y-4.3517
X6.7032Y-3.7517
X6.7032Y-3.8017
X6.7032Y-3.8517
X6.7032Y-3.9017
X6.7032Y-3.9517
X6.7032Y-4.0017
X6.7032Y-4.0517
X6.7032Y-4.1017
X6.7032Y-4.1517
X6.7032Y-4.2017
X6.7032Y-4.2517
X6.7032Y-4.3017
X6.7032Y-4.3517
T5
X7.0437Y-3.4071
X7.0547Y-4.7063
X7.0937Y-3.3071
X7.1047Y-4.6063
X7.1437Y-3.4071
X7.1547Y-4.7063
X7.1937Y-3.3071
X7.2047Y-4.6063
X7.7522Y-4.7106
X7.7597Y-3.4071
X7.8022Y-4.6106
X7.8097Y-3.3071
X7.8522Y-4.7106
X7.8597Y-3.4071
X7.9022Y-4.6106
X7.9097Y-3.3071
X8.0939Y-3.6614
X8.0939Y-3.7614
X8.0939Y-4.198
X8.0939Y-4.298
X8.1939Y-3.7114
X8.1939Y-3.8114
X8.1939Y-4.248
X8.1939Y-4.348
T6
X7.0239Y-3.973
X7.0239Y-4.073
X7.0239Y-4.173
X7.0239Y-4.273
X7.0239Y-4.373
T7
X6.9685Y-3.0571
X6.9797Y-4.9563
X7.2687Y-3.0571
X7.2799Y-4.9563
X7.6772Y-4.9606
X7.6845Y-3.0571
X7.9774Y-4.9606
X7.9847Y-3.0571
X8.4439Y-3.5862
X8.4439Y-3.8864
X8.4439Y-4.1228
X8.4439Y-4.423
M30
