%
M48
M72
T01C0.0236
T02C0.0350
T03C0.0400
T04C0.0791
T05C0.1260
%
T01
X19192Y7502
X20692Y6502
X22192Y5502
X23692Y4502
X25692Y6002
X27192Y5752
X30692Y7502
X33692Y10002
X28192Y12002
X22192Y13002
X21192Y9752
X22692Y8752
X24192Y7752
X36192Y13002
X29692Y17002
X15692Y17002
X14692Y14502
X8192Y13002
X43692Y17002
X50192Y13002
X57692Y17002
X57692Y7502
X52192Y6502
X51192Y7002
T02
X47192Y14502
X46192Y14502
X33192Y14502
X32192Y14502
X19192Y14502
X18192Y14502
X5192Y14502
X4192Y14502
T03
X14692Y4502
X16192Y4502
X14692Y5502
X14692Y6502
X14692Y7502
X14692Y8502
X14692Y9502
X14692Y10502
T04
X17192Y16502
X21192Y16502
X31192Y16502
X35192Y16502
X45192Y16502
X49192Y16502
X7192Y16502
X3192Y16502
T05
X3192Y12502
X26692Y12502
X32192Y5002
X48692Y5002
X57192Y12502
M30
