G75*
%MOIN*%
%OFA0B0*%
%FSLAX25Y25*%
%IPPOS*%
%LPD*%
%AMOC8*
5,1,8,0,0,1.08239X$1,22.5*
%
%ADD10C,0.11870*%
%ADD11C,0.05504*%
%ADD12R,0.09843X0.08661*%
%ADD13R,0.01969X0.07874*%
%ADD14R,0.10630X0.06299*%
%ADD15R,0.06299X0.07098*%
%ADD16C,0.06000*%
%ADD17R,0.15000X0.07992*%
%ADD18R,0.17717X0.07992*%
%ADD19R,0.03150X0.03150*%
%ADD20R,0.07098X0.06299*%
%ADD21OC8,0.06000*%
%ADD22R,0.08000X0.02600*%
%ADD23R,0.05906X0.05118*%
%ADD24R,0.05118X0.05906*%
%ADD25R,0.06299X0.10630*%
%ADD26R,0.03937X0.05512*%
%ADD27R,0.05512X0.03937*%
%ADD28C,0.01600*%
%ADD29C,0.03962*%
D10*
X0031923Y0165018D03*
X0071923Y0165018D03*
X0171923Y0165018D03*
X0211923Y0165018D03*
X0311923Y0165018D03*
X0351923Y0165018D03*
X0451923Y0165018D03*
X0491923Y0165018D03*
D11*
X0471923Y0145018D03*
X0461923Y0145018D03*
X0331923Y0145018D03*
X0321923Y0145018D03*
X0191923Y0145018D03*
X0181923Y0145018D03*
X0051923Y0145018D03*
X0041923Y0145018D03*
D12*
X0535388Y0062892D03*
X0568459Y0062892D03*
X0568459Y0042026D03*
X0535388Y0042026D03*
D13*
X0545624Y0063876D03*
X0548774Y0063876D03*
X0551923Y0063876D03*
X0555073Y0063876D03*
X0558222Y0063876D03*
D14*
X0501923Y0079506D03*
X0501923Y0090530D03*
X0176923Y0094506D03*
X0176923Y0105530D03*
D15*
X0191325Y0097518D03*
X0202522Y0097518D03*
X0206325Y0087518D03*
X0217522Y0087518D03*
X0221325Y0077518D03*
X0232522Y0077518D03*
X0236325Y0067518D03*
X0247522Y0067518D03*
X0242522Y0130018D03*
X0231325Y0130018D03*
X0231325Y0140018D03*
X0242522Y0140018D03*
X0212522Y0130018D03*
X0201325Y0130018D03*
X0102522Y0130018D03*
X0091325Y0130018D03*
X0091325Y0140018D03*
X0102522Y0140018D03*
X0072522Y0130018D03*
X0061325Y0130018D03*
X0341325Y0130018D03*
X0352522Y0130018D03*
X0371325Y0130018D03*
X0382522Y0130018D03*
X0382522Y0140018D03*
X0371325Y0140018D03*
X0481325Y0130018D03*
X0492522Y0130018D03*
X0511325Y0130018D03*
X0522522Y0130018D03*
X0522522Y0140018D03*
X0511325Y0140018D03*
X0546325Y0080018D03*
X0557522Y0080018D03*
D16*
X0149923Y0045018D02*
X0143923Y0045018D01*
X0143923Y0055018D02*
X0149923Y0055018D01*
X0149923Y0065018D02*
X0143923Y0065018D01*
X0143923Y0075018D02*
X0149923Y0075018D01*
X0149923Y0085018D02*
X0143923Y0085018D01*
X0143923Y0095018D02*
X0149923Y0095018D01*
X0149923Y0105018D02*
X0143923Y0105018D01*
D17*
X0126459Y0155057D03*
X0096963Y0155057D03*
X0236963Y0155057D03*
X0266459Y0155057D03*
X0376963Y0155057D03*
X0406459Y0155057D03*
X0516963Y0155057D03*
X0546459Y0155057D03*
D18*
X0544097Y0188490D03*
X0519325Y0188490D03*
X0404097Y0188490D03*
X0379325Y0188490D03*
X0264097Y0188490D03*
X0239325Y0188490D03*
X0124097Y0188490D03*
X0099325Y0188490D03*
D19*
X0138971Y0195018D03*
X0144876Y0195018D03*
X0278971Y0195018D03*
X0284876Y0195018D03*
X0418971Y0195018D03*
X0424876Y0195018D03*
X0558971Y0195018D03*
X0564876Y0195018D03*
X0509876Y0040018D03*
X0503971Y0040018D03*
D20*
X0521923Y0044419D03*
X0521923Y0055616D03*
X0566923Y0159419D03*
X0556923Y0164419D03*
X0566923Y0170616D03*
X0556923Y0175616D03*
X0426923Y0170616D03*
X0416923Y0175616D03*
X0416923Y0164419D03*
X0426923Y0159419D03*
X0286923Y0159419D03*
X0276923Y0164419D03*
X0286923Y0170616D03*
X0276923Y0175616D03*
X0146923Y0170616D03*
X0136923Y0175616D03*
X0136923Y0164419D03*
X0146923Y0159419D03*
D21*
X0161923Y0045018D03*
D22*
X0274823Y0080018D03*
X0274823Y0085018D03*
X0274823Y0090018D03*
X0274823Y0095018D03*
X0274823Y0100018D03*
X0274823Y0105018D03*
X0274823Y0110018D03*
X0299023Y0110018D03*
X0299023Y0105018D03*
X0299023Y0100018D03*
X0299023Y0095018D03*
X0299023Y0090018D03*
X0299023Y0085018D03*
X0299023Y0080018D03*
D23*
X0161923Y0096278D03*
X0161923Y0103758D03*
X0521923Y0088758D03*
X0521923Y0081278D03*
D24*
X0538183Y0140018D03*
X0545663Y0140018D03*
X0405663Y0140018D03*
X0398183Y0140018D03*
X0263163Y0142518D03*
X0255683Y0142518D03*
X0125663Y0140018D03*
X0118183Y0140018D03*
X0283183Y0070018D03*
X0290663Y0070018D03*
D25*
X0292435Y0055018D03*
X0281411Y0055018D03*
D26*
X0288183Y0180687D03*
X0295663Y0180687D03*
X0291923Y0189349D03*
X0155663Y0180687D03*
X0148183Y0180687D03*
X0151923Y0189349D03*
X0428183Y0180687D03*
X0435663Y0180687D03*
X0431923Y0189349D03*
X0568183Y0180687D03*
X0575663Y0180687D03*
X0571923Y0189349D03*
D27*
X0241254Y0055018D03*
X0232593Y0058758D03*
X0232593Y0051278D03*
X0217593Y0061278D03*
X0226254Y0065018D03*
X0217593Y0068758D03*
X0211254Y0075018D03*
X0202593Y0071278D03*
X0202593Y0078758D03*
X0196254Y0085018D03*
X0187593Y0088758D03*
X0187593Y0081278D03*
D28*
X0187593Y0080687D01*
X0181923Y0075018D01*
X0171923Y0075018D01*
X0161923Y0085018D01*
X0146923Y0085018D01*
X0146923Y0095018D02*
X0161411Y0095018D01*
X0161923Y0096278D01*
X0175152Y0096278D01*
X0176923Y0094506D01*
X0187593Y0093786D02*
X0187593Y0088758D01*
X0187593Y0093786D02*
X0191325Y0097518D01*
X0202522Y0097518D02*
X0211923Y0097518D01*
X0206325Y0087518D02*
X0202593Y0083786D01*
X0202593Y0078758D01*
X0196254Y0079349D02*
X0191923Y0075018D01*
X0196254Y0079349D02*
X0196254Y0085018D01*
X0217522Y0087518D02*
X0226923Y0087518D01*
X0236923Y0090018D02*
X0274823Y0090018D01*
X0274823Y0095018D02*
X0241923Y0095018D01*
X0241923Y0110018D01*
X0196923Y0110018D01*
X0196923Y0120018D01*
X0118183Y0120018D01*
X0118183Y0140018D01*
X0102522Y0140018D01*
X0102522Y0130018D01*
X0091325Y0130018D02*
X0081923Y0130018D01*
X0072522Y0130018D01*
X0061325Y0130018D02*
X0051923Y0130018D01*
X0051923Y0115018D01*
X0191923Y0115018D01*
X0191923Y0105018D01*
X0236923Y0105018D01*
X0236923Y0090018D01*
X0232522Y0077518D02*
X0241923Y0077518D01*
X0236325Y0067518D02*
X0232593Y0063786D01*
X0232593Y0058758D01*
X0226254Y0059349D02*
X0221923Y0055018D01*
X0226254Y0059349D02*
X0226254Y0065018D01*
X0217593Y0068758D02*
X0217593Y0073786D01*
X0221325Y0077518D01*
X0211254Y0075018D02*
X0211254Y0069349D01*
X0206923Y0065018D01*
X0202593Y0070687D02*
X0202593Y0071278D01*
X0202593Y0070687D02*
X0196923Y0065018D01*
X0171923Y0065018D01*
X0161923Y0075018D01*
X0146923Y0075018D01*
X0146923Y0065018D02*
X0161923Y0065018D01*
X0171923Y0055018D01*
X0211923Y0055018D01*
X0217593Y0060687D01*
X0217593Y0061278D01*
X0232593Y0051278D02*
X0232593Y0050687D01*
X0226923Y0045018D01*
X0171923Y0045018D01*
X0161923Y0055018D01*
X0146923Y0055018D01*
X0146923Y0045018D02*
X0161923Y0045018D01*
X0236923Y0045018D02*
X0241254Y0049349D01*
X0241254Y0055018D01*
X0256923Y0060018D02*
X0256923Y0067518D01*
X0247522Y0067518D01*
X0266923Y0067518D01*
X0266923Y0085018D01*
X0274823Y0085018D01*
X0274823Y0080018D02*
X0271923Y0080018D01*
X0271923Y0057518D01*
X0281411Y0055018D02*
X0281923Y0055530D01*
X0281923Y0070018D01*
X0283183Y0070018D01*
X0281411Y0071789D01*
X0281411Y0080018D01*
X0274823Y0080018D01*
X0290663Y0070018D02*
X0291923Y0068758D01*
X0291923Y0055018D01*
X0292435Y0055018D01*
X0291923Y0055530D01*
X0290663Y0070018D02*
X0290663Y0110018D01*
X0299023Y0110018D01*
X0296923Y0110018D01*
X0296923Y0170018D01*
X0295663Y0170018D01*
X0295663Y0180687D01*
X0288183Y0180687D02*
X0286923Y0180687D01*
X0286923Y0170616D01*
X0276923Y0175616D02*
X0276923Y0195018D01*
X0278971Y0195018D01*
X0284876Y0195018D02*
X0291923Y0195018D01*
X0291923Y0189349D01*
X0321923Y0165018D02*
X0336923Y0180018D01*
X0356923Y0180018D01*
X0371923Y0165018D01*
X0416923Y0165018D01*
X0416923Y0164419D02*
X0416923Y0155057D01*
X0406459Y0155057D01*
X0406459Y0154553D01*
X0406923Y0155018D01*
X0416923Y0155018D01*
X0406459Y0154553D02*
X0406459Y0140018D01*
X0405663Y0140018D01*
X0398183Y0140018D02*
X0382522Y0140018D01*
X0382522Y0130018D01*
X0382522Y0120018D01*
X0326923Y0120018D01*
X0326923Y0100018D01*
X0299023Y0100018D01*
X0299023Y0105018D02*
X0321923Y0105018D01*
X0321923Y0130018D01*
X0331923Y0130018D01*
X0341325Y0130018D01*
X0331923Y0130018D02*
X0331923Y0145018D01*
X0321923Y0145018D02*
X0321923Y0165018D01*
X0286923Y0159419D02*
X0286923Y0120018D01*
X0281923Y0120018D01*
X0286923Y0120018D02*
X0286923Y0100018D01*
X0274823Y0100018D01*
X0274823Y0105018D02*
X0246923Y0105018D01*
X0246923Y0120018D01*
X0201325Y0120018D01*
X0201325Y0130018D01*
X0191923Y0130018D01*
X0191923Y0145018D01*
X0181923Y0145018D02*
X0181923Y0165018D01*
X0196923Y0180018D01*
X0216923Y0180018D01*
X0231923Y0165018D01*
X0276923Y0165018D01*
X0276923Y0164419D01*
X0276923Y0155057D01*
X0266459Y0155057D01*
X0263163Y0151762D01*
X0263163Y0142518D01*
X0255683Y0142518D02*
X0245022Y0142518D01*
X0242522Y0140018D01*
X0242522Y0130018D01*
X0247522Y0125018D01*
X0251923Y0125018D01*
X0251923Y0110018D01*
X0274823Y0110018D01*
X0299023Y0095018D02*
X0336923Y0095018D01*
X0336923Y0100018D01*
X0336923Y0095018D02*
X0346923Y0095018D01*
X0346923Y0115018D01*
X0391923Y0115018D01*
X0391923Y0125018D01*
X0426923Y0125018D01*
X0426923Y0159419D01*
X0426923Y0170616D02*
X0426923Y0180687D01*
X0428183Y0180687D01*
X0435663Y0180687D02*
X0435663Y0170018D01*
X0436923Y0170018D01*
X0416923Y0175616D02*
X0416923Y0195018D01*
X0418971Y0195018D01*
X0424876Y0195018D02*
X0431923Y0195018D01*
X0431923Y0189349D01*
X0461923Y0165018D02*
X0476923Y0180018D01*
X0491923Y0180018D01*
X0506923Y0165018D01*
X0556923Y0165018D01*
X0556923Y0164419D01*
X0556923Y0155057D01*
X0546459Y0155057D01*
X0546459Y0140018D01*
X0545663Y0140018D01*
X0538183Y0140018D02*
X0522522Y0140018D01*
X0522522Y0130018D01*
X0522522Y0115018D01*
X0401923Y0115018D01*
X0401923Y0105018D01*
X0356923Y0105018D01*
X0356923Y0085018D01*
X0299023Y0085018D01*
X0299023Y0090018D02*
X0351923Y0090018D01*
X0351923Y0110018D01*
X0396923Y0110018D01*
X0396923Y0120018D01*
X0471923Y0120018D01*
X0471923Y0130018D01*
X0481325Y0130018D01*
X0471923Y0130018D02*
X0471923Y0145018D01*
X0461923Y0145018D02*
X0461923Y0165018D01*
X0511325Y0155057D02*
X0511325Y0140018D01*
X0511325Y0130018D02*
X0501923Y0130018D01*
X0492522Y0130018D01*
X0531923Y0110018D02*
X0566923Y0145018D01*
X0566923Y0159419D01*
X0566923Y0170018D02*
X0566923Y0170616D01*
X0566923Y0180687D01*
X0568183Y0180687D01*
X0575663Y0180687D02*
X0575663Y0170018D01*
X0576923Y0170018D01*
X0556923Y0175616D02*
X0556923Y0195018D01*
X0558971Y0195018D01*
X0564876Y0195018D02*
X0571923Y0195018D01*
X0571923Y0189349D01*
X0516963Y0155057D02*
X0511325Y0155057D01*
X0531923Y0110018D02*
X0406923Y0110018D01*
X0406923Y0100018D01*
X0361923Y0100018D01*
X0361923Y0080018D01*
X0306923Y0080018D01*
X0306923Y0075018D01*
X0306923Y0080018D02*
X0299023Y0080018D01*
X0352522Y0130018D02*
X0361923Y0130018D01*
X0371325Y0130018D01*
X0371325Y0140018D02*
X0371325Y0155057D01*
X0376963Y0155057D01*
X0236963Y0155057D02*
X0231325Y0155057D01*
X0231325Y0140018D01*
X0231325Y0130018D02*
X0221923Y0130018D01*
X0212522Y0130018D01*
X0176923Y0105530D02*
X0176411Y0105018D01*
X0161923Y0105018D01*
X0161923Y0103758D01*
X0161923Y0105018D02*
X0146923Y0105018D01*
X0176411Y0105018D02*
X0176923Y0105018D01*
X0126459Y0140018D02*
X0125663Y0140018D01*
X0126459Y0140018D02*
X0126459Y0155057D01*
X0131923Y0155057D01*
X0131923Y0155018D01*
X0136923Y0155018D01*
X0136923Y0164419D01*
X0136923Y0165018D01*
X0091923Y0165018D01*
X0076923Y0180018D01*
X0056923Y0180018D01*
X0041923Y0165018D01*
X0041923Y0145018D01*
X0051923Y0145018D02*
X0051923Y0130018D01*
X0091325Y0140018D02*
X0091325Y0155057D01*
X0096963Y0155057D01*
X0136923Y0175616D02*
X0136923Y0195018D01*
X0138971Y0195018D01*
X0144876Y0195018D02*
X0151923Y0195018D01*
X0151923Y0189349D01*
X0148183Y0180687D02*
X0146923Y0180687D01*
X0146923Y0170616D01*
X0146923Y0170018D01*
X0155663Y0170018D02*
X0156923Y0170018D01*
X0155663Y0170018D02*
X0155663Y0180687D01*
X0146923Y0159419D02*
X0146923Y0145018D01*
X0501923Y0090530D02*
X0501923Y0088758D01*
X0521923Y0088758D01*
X0523183Y0090018D01*
X0576923Y0090018D01*
X0576923Y0075018D01*
X0576923Y0072518D01*
X0558222Y0072518D01*
X0558222Y0063876D01*
X0551923Y0063876D02*
X0551923Y0080018D01*
X0557522Y0080018D01*
X0548774Y0080018D02*
X0548774Y0063876D01*
X0545624Y0063876D02*
X0545624Y0072518D01*
X0521923Y0072518D01*
X0521923Y0081278D01*
X0521923Y0079506D01*
X0511923Y0079506D01*
X0511923Y0070018D01*
X0521923Y0065018D02*
X0521923Y0055616D01*
X0521923Y0044419D02*
X0521923Y0040018D01*
X0509876Y0040018D01*
X0503971Y0040018D02*
X0501923Y0040018D01*
X0501923Y0079506D01*
X0511923Y0079506D01*
X0546325Y0080018D02*
X0548774Y0080018D01*
D29*
X0576923Y0075018D03*
X0521923Y0065018D03*
X0511923Y0070018D03*
X0501923Y0130018D03*
X0436923Y0170018D03*
X0361923Y0130018D03*
X0336923Y0100018D03*
X0306923Y0075018D03*
X0271923Y0057518D03*
X0256923Y0060018D03*
X0236923Y0045018D03*
X0221923Y0055018D03*
X0206923Y0065018D03*
X0191923Y0075018D03*
X0226923Y0087518D03*
X0211923Y0097518D03*
X0241923Y0077518D03*
X0281923Y0120018D03*
X0221923Y0130018D03*
X0146923Y0145018D03*
X0156923Y0170018D03*
X0081923Y0130018D03*
X0296923Y0170018D03*
X0576923Y0170018D03*
M02*
