G75*
%MOIN*%
%OFA0B0*%
%FSLAX25Y25*%
%IPPOS*%
%LPD*%
%AMOC8*
5,1,8,0,0,1.08239X$1,22.5*
%
%ADD10R,0.09843X0.08661*%
%ADD11R,0.01969X0.07874*%
%ADD12R,0.10630X0.06299*%
%ADD13R,0.06299X0.07098*%
%ADD14R,0.15000X0.07992*%
%ADD15R,0.17717X0.07992*%
%ADD16R,0.03150X0.03150*%
%ADD17R,0.07098X0.06299*%
%ADD18R,0.08000X0.02600*%
%ADD19R,0.05906X0.05118*%
%ADD20R,0.05118X0.05906*%
%ADD21R,0.06299X0.10630*%
%ADD22R,0.03937X0.05512*%
%ADD23R,0.05512X0.03937*%
D10*
X0535388Y0042026D03*
X0568459Y0042026D03*
X0568459Y0062892D03*
X0535388Y0062892D03*
D11*
X0545624Y0063876D03*
X0548774Y0063876D03*
X0551923Y0063876D03*
X0555073Y0063876D03*
X0558222Y0063876D03*
D12*
X0501923Y0079506D03*
X0501923Y0090530D03*
X0176923Y0094506D03*
X0176923Y0105530D03*
D13*
X0191325Y0097518D03*
X0202522Y0097518D03*
X0206325Y0087518D03*
X0217522Y0087518D03*
X0221325Y0077518D03*
X0232522Y0077518D03*
X0236325Y0067518D03*
X0247522Y0067518D03*
X0242522Y0130018D03*
X0231325Y0130018D03*
X0231325Y0140018D03*
X0242522Y0140018D03*
X0212522Y0130018D03*
X0201325Y0130018D03*
X0102522Y0130018D03*
X0091325Y0130018D03*
X0091325Y0140018D03*
X0102522Y0140018D03*
X0072522Y0130018D03*
X0061325Y0130018D03*
X0341325Y0130018D03*
X0352522Y0130018D03*
X0371325Y0130018D03*
X0382522Y0130018D03*
X0382522Y0140018D03*
X0371325Y0140018D03*
X0481325Y0130018D03*
X0492522Y0130018D03*
X0511325Y0130018D03*
X0522522Y0130018D03*
X0522522Y0140018D03*
X0511325Y0140018D03*
X0546325Y0080018D03*
X0557522Y0080018D03*
D14*
X0546459Y0155057D03*
X0516963Y0155057D03*
X0406459Y0155057D03*
X0376963Y0155057D03*
X0266459Y0155057D03*
X0236963Y0155057D03*
X0126459Y0155057D03*
X0096963Y0155057D03*
D15*
X0099325Y0188490D03*
X0124097Y0188490D03*
X0239325Y0188490D03*
X0264097Y0188490D03*
X0379325Y0188490D03*
X0404097Y0188490D03*
X0519325Y0188490D03*
X0544097Y0188490D03*
D16*
X0558971Y0195018D03*
X0564876Y0195018D03*
X0424876Y0195018D03*
X0418971Y0195018D03*
X0284876Y0195018D03*
X0278971Y0195018D03*
X0144876Y0195018D03*
X0138971Y0195018D03*
X0503971Y0040018D03*
X0509876Y0040018D03*
D17*
X0521923Y0044419D03*
X0521923Y0055616D03*
X0566923Y0159419D03*
X0556923Y0164419D03*
X0566923Y0170616D03*
X0556923Y0175616D03*
X0426923Y0170616D03*
X0416923Y0175616D03*
X0416923Y0164419D03*
X0426923Y0159419D03*
X0286923Y0159419D03*
X0276923Y0164419D03*
X0286923Y0170616D03*
X0276923Y0175616D03*
X0146923Y0170616D03*
X0136923Y0175616D03*
X0136923Y0164419D03*
X0146923Y0159419D03*
D18*
X0274823Y0110018D03*
X0274823Y0105018D03*
X0274823Y0100018D03*
X0274823Y0095018D03*
X0274823Y0090018D03*
X0274823Y0085018D03*
X0274823Y0080018D03*
X0299023Y0080018D03*
X0299023Y0085018D03*
X0299023Y0090018D03*
X0299023Y0095018D03*
X0299023Y0100018D03*
X0299023Y0105018D03*
X0299023Y0110018D03*
D19*
X0161923Y0103758D03*
X0161923Y0096278D03*
X0521923Y0088758D03*
X0521923Y0081278D03*
D20*
X0538183Y0140018D03*
X0545663Y0140018D03*
X0405663Y0140018D03*
X0398183Y0140018D03*
X0263163Y0142518D03*
X0255683Y0142518D03*
X0125663Y0140018D03*
X0118183Y0140018D03*
X0283183Y0070018D03*
X0290663Y0070018D03*
D21*
X0292435Y0055018D03*
X0281411Y0055018D03*
D22*
X0288183Y0180687D03*
X0295663Y0180687D03*
X0291923Y0189349D03*
X0155663Y0180687D03*
X0148183Y0180687D03*
X0151923Y0189349D03*
X0428183Y0180687D03*
X0435663Y0180687D03*
X0431923Y0189349D03*
X0568183Y0180687D03*
X0575663Y0180687D03*
X0571923Y0189349D03*
D23*
X0187593Y0081278D03*
X0196254Y0085018D03*
X0202593Y0078758D03*
X0211254Y0075018D03*
X0202593Y0071278D03*
X0217593Y0068758D03*
X0226254Y0065018D03*
X0217593Y0061278D03*
X0232593Y0058758D03*
X0241254Y0055018D03*
X0232593Y0051278D03*
X0187593Y0088758D03*
M02*
