G75*
%MOIN*%
%OFA0B0*%
%FSLAX25Y25*%
%IPPOS*%
%LPD*%
%AMOC8*
5,1,8,0,0,1.08239X$1,22.5*
%
%ADD10C,0.13398*%
%ADD11C,0.12670*%
%ADD12C,0.06304*%
%ADD13C,0.06800*%
%ADD14OC8,0.06800*%
%ADD15C,0.04762*%
D10*
X0031923Y0125018D03*
X0266923Y0125018D03*
X0321923Y0050018D03*
X0486923Y0050018D03*
X0571923Y0125018D03*
D11*
X0491923Y0165018D03*
X0451923Y0165018D03*
X0351923Y0165018D03*
X0311923Y0165018D03*
X0211923Y0165018D03*
X0171923Y0165018D03*
X0071923Y0165018D03*
X0031923Y0165018D03*
D12*
X0041923Y0145018D03*
X0051923Y0145018D03*
X0181923Y0145018D03*
X0191923Y0145018D03*
X0321923Y0145018D03*
X0331923Y0145018D03*
X0461923Y0145018D03*
X0471923Y0145018D03*
D13*
X0149923Y0045018D02*
X0143923Y0045018D01*
X0143923Y0055018D02*
X0149923Y0055018D01*
X0149923Y0065018D02*
X0143923Y0065018D01*
X0143923Y0075018D02*
X0149923Y0075018D01*
X0149923Y0085018D02*
X0143923Y0085018D01*
X0143923Y0095018D02*
X0149923Y0095018D01*
X0149923Y0105018D02*
X0143923Y0105018D01*
D14*
X0161923Y0045018D03*
D15*
X0206923Y0065018D03*
X0191923Y0075018D03*
X0226923Y0087518D03*
X0211923Y0097518D03*
X0241923Y0077518D03*
X0256923Y0060018D03*
X0271923Y0057518D03*
X0236923Y0045018D03*
X0221923Y0055018D03*
X0306923Y0075018D03*
X0336923Y0100018D03*
X0281923Y0120018D03*
X0221923Y0130018D03*
X0146923Y0145018D03*
X0156923Y0170018D03*
X0081923Y0130018D03*
X0296923Y0170018D03*
X0361923Y0130018D03*
X0436923Y0170018D03*
X0501923Y0130018D03*
X0576923Y0170018D03*
X0576923Y0075018D03*
X0521923Y0065018D03*
X0511923Y0070018D03*
M02*
