%TF.GenerationSoftware,KiCad,Pcbnew,7.0.10-7.0.10~ubuntu22.04.1*%
%TF.CreationDate,2024-01-03T10:10:25-05:00*%
%TF.ProjectId,readout-splitter,72656164-6f75-4742-9d73-706c69747465,rev?*%
%TF.SameCoordinates,Original*%
%TF.FileFunction,Soldermask,Bot*%
%TF.FilePolarity,Negative*%
%FSLAX46Y46*%
G04 Gerber Fmt 4.6, Leading zero omitted, Abs format (unit mm)*
G04 Created by KiCad (PCBNEW 7.0.10-7.0.10~ubuntu22.04.1) date 2024-01-03 10:10:25*
%MOMM*%
%LPD*%
G01*
G04 APERTURE LIST*
G04 Aperture macros list*
%AMRoundRect*
0 Rectangle with rounded corners*
0 $1 Rounding radius*
0 $2 $3 $4 $5 $6 $7 $8 $9 X,Y pos of 4 corners*
0 Add a 4 corners polygon primitive as box body*
4,1,4,$2,$3,$4,$5,$6,$7,$8,$9,$2,$3,0*
0 Add four circle primitives for the rounded corners*
1,1,$1+$1,$2,$3*
1,1,$1+$1,$4,$5*
1,1,$1+$1,$6,$7*
1,1,$1+$1,$8,$9*
0 Add four rect primitives between the rounded corners*
20,1,$1+$1,$2,$3,$4,$5,0*
20,1,$1+$1,$4,$5,$6,$7,0*
20,1,$1+$1,$6,$7,$8,$9,0*
20,1,$1+$1,$8,$9,$2,$3,0*%
G04 Aperture macros list end*
%ADD10R,1.000000X1.000000*%
%ADD11RoundRect,0.150000X0.150000X-0.512500X0.150000X0.512500X-0.150000X0.512500X-0.150000X-0.512500X0*%
%ADD12RoundRect,0.200000X-0.200000X-0.275000X0.200000X-0.275000X0.200000X0.275000X-0.200000X0.275000X0*%
%ADD13RoundRect,0.200000X0.200000X0.275000X-0.200000X0.275000X-0.200000X-0.275000X0.200000X-0.275000X0*%
%ADD14RoundRect,0.225000X0.225000X0.250000X-0.225000X0.250000X-0.225000X-0.250000X0.225000X-0.250000X0*%
%ADD15RoundRect,0.150000X-0.150000X0.512500X-0.150000X-0.512500X0.150000X-0.512500X0.150000X0.512500X0*%
%ADD16RoundRect,0.225000X-0.225000X-0.250000X0.225000X-0.250000X0.225000X0.250000X-0.225000X0.250000X0*%
%ADD17RoundRect,0.225000X-0.250000X0.225000X-0.250000X-0.225000X0.250000X-0.225000X0.250000X0.225000X0*%
G04 APERTURE END LIST*
D10*
%TO.C,J3*%
X35597000Y-52997000D03*
%TD*%
%TO.C,J1*%
X29247000Y-52997000D03*
%TD*%
%TO.C,J2*%
X32422000Y-52997000D03*
%TD*%
D11*
%TO.C,U17*%
X50263000Y-47403500D03*
X49313000Y-47403500D03*
X48363000Y-47403500D03*
X48363000Y-45128500D03*
X50263000Y-45128500D03*
%TD*%
D12*
%TO.C,R13*%
X25501000Y-39916000D03*
X27151000Y-39916000D03*
%TD*%
D13*
%TO.C,R4*%
X46201000Y-38011000D03*
X44551000Y-38011000D03*
%TD*%
D14*
%TO.C,C21*%
X31178000Y-49441000D03*
X29628000Y-49441000D03*
%TD*%
D13*
%TO.C,R12*%
X30961000Y-38011000D03*
X29311000Y-38011000D03*
%TD*%
%TO.C,R6*%
X42391000Y-38011000D03*
X40741000Y-38011000D03*
%TD*%
D14*
%TO.C,C32*%
X23431000Y-42964000D03*
X21881000Y-42964000D03*
%TD*%
%TO.C,C27*%
X27101000Y-36106000D03*
X25551000Y-36106000D03*
%TD*%
D11*
%TO.C,U22*%
X31213000Y-47403500D03*
X30263000Y-47403500D03*
X29313000Y-47403500D03*
X29313000Y-45128500D03*
X31213000Y-45128500D03*
%TD*%
D14*
%TO.C,C7*%
X46151000Y-36106000D03*
X44601000Y-36106000D03*
%TD*%
D15*
%TO.C,U1*%
X48283599Y-31806499D03*
X49233599Y-31806499D03*
X50183599Y-31806499D03*
X50183599Y-34081499D03*
X48283599Y-34081499D03*
%TD*%
%TO.C,U2*%
X44477000Y-31793500D03*
X45427000Y-31793500D03*
X46377000Y-31793500D03*
X46377000Y-34068500D03*
X44477000Y-34068500D03*
%TD*%
D16*
%TO.C,C6*%
X44106800Y-29883000D03*
X45656800Y-29883000D03*
%TD*%
%TO.C,C22*%
X29361000Y-29883000D03*
X30911000Y-29883000D03*
%TD*%
D14*
%TO.C,C13*%
X38658000Y-49441000D03*
X37108000Y-49441000D03*
%TD*%
%TO.C,C24*%
X31038000Y-42964000D03*
X29488000Y-42964000D03*
%TD*%
%TO.C,C20*%
X34962000Y-42964000D03*
X33412000Y-42964000D03*
%TD*%
D13*
%TO.C,R16*%
X23341000Y-38011000D03*
X21691000Y-38011000D03*
%TD*%
D15*
%TO.C,U7*%
X25412001Y-31796901D03*
X26362001Y-31796901D03*
X27312001Y-31796901D03*
X27312001Y-34071901D03*
X25412001Y-34071901D03*
%TD*%
D12*
%TO.C,R9*%
X33248000Y-39916000D03*
X34898000Y-39916000D03*
%TD*%
D16*
%TO.C,C14*%
X36981000Y-29883000D03*
X38531000Y-29883000D03*
%TD*%
D11*
%TO.C,U18*%
X46453000Y-47403500D03*
X45503000Y-47403500D03*
X44553000Y-47403500D03*
X44553000Y-45128500D03*
X46453000Y-45128500D03*
%TD*%
%TO.C,U21*%
X35023000Y-47403500D03*
X34073000Y-47403500D03*
X33123000Y-47403500D03*
X33123000Y-45128500D03*
X35023000Y-45128500D03*
%TD*%
D15*
%TO.C,U3*%
X40652001Y-31796901D03*
X41602001Y-31796901D03*
X42552001Y-31796901D03*
X42552001Y-34071901D03*
X40652001Y-34071901D03*
%TD*%
D17*
%TO.C,C29*%
X19608800Y-46011800D03*
X19608800Y-47561800D03*
%TD*%
D15*
%TO.C,U4*%
X36842001Y-31796901D03*
X37792001Y-31796901D03*
X38742001Y-31796901D03*
X38742001Y-34071901D03*
X36842001Y-34071901D03*
%TD*%
D12*
%TO.C,R1*%
X48361000Y-39916000D03*
X50011000Y-39916000D03*
%TD*%
D15*
%TO.C,U6*%
X29222001Y-31793500D03*
X30172001Y-31793500D03*
X31122001Y-31793500D03*
X31122001Y-34068500D03*
X29222001Y-34068500D03*
%TD*%
D13*
%TO.C,R14*%
X27151000Y-38011000D03*
X25501000Y-38011000D03*
%TD*%
D11*
%TO.C,U23*%
X27403000Y-47403500D03*
X26453000Y-47403500D03*
X25503000Y-47403500D03*
X25503000Y-45128500D03*
X27403000Y-45128500D03*
%TD*%
D14*
%TO.C,C31*%
X23278000Y-36106000D03*
X21728000Y-36106000D03*
%TD*%
%TO.C,C9*%
X42468000Y-49441000D03*
X40918000Y-49441000D03*
%TD*%
D11*
%TO.C,U20*%
X38833000Y-47403500D03*
X37883000Y-47403500D03*
X36933000Y-47403500D03*
X36933000Y-45128500D03*
X38833000Y-45128500D03*
%TD*%
D12*
%TO.C,R15*%
X21691000Y-39916000D03*
X23341000Y-39916000D03*
%TD*%
%TO.C,R11*%
X29311000Y-39916000D03*
X30961000Y-39916000D03*
%TD*%
D14*
%TO.C,C28*%
X27228000Y-42964000D03*
X25678000Y-42964000D03*
%TD*%
%TO.C,C17*%
X34975000Y-49441000D03*
X33425000Y-49441000D03*
%TD*%
D13*
%TO.C,R2*%
X50011000Y-38011000D03*
X48361000Y-38011000D03*
%TD*%
D14*
%TO.C,C5*%
X46278000Y-49441000D03*
X44728000Y-49441000D03*
%TD*%
D11*
%TO.C,U19*%
X42643000Y-47403500D03*
X41693000Y-47403500D03*
X40743000Y-47403500D03*
X40743000Y-45128500D03*
X42643000Y-45128500D03*
%TD*%
D14*
%TO.C,C25*%
X27215000Y-49441000D03*
X25665000Y-49441000D03*
%TD*%
D16*
%TO.C,C30*%
X21868000Y-29883000D03*
X23418000Y-29883000D03*
%TD*%
D14*
%TO.C,C15*%
X38518000Y-36106000D03*
X36968000Y-36106000D03*
%TD*%
D16*
%TO.C,C18*%
X33311000Y-29883000D03*
X34861000Y-29883000D03*
%TD*%
D12*
%TO.C,R7*%
X36931000Y-39916000D03*
X38581000Y-39916000D03*
%TD*%
D16*
%TO.C,C10*%
X40474600Y-29883000D03*
X42024600Y-29883000D03*
%TD*%
D14*
%TO.C,C8*%
X46278000Y-42964000D03*
X44728000Y-42964000D03*
%TD*%
D15*
%TO.C,U5*%
X33032001Y-31790099D03*
X33982001Y-31790099D03*
X34932001Y-31790099D03*
X34932001Y-34065099D03*
X33032001Y-34065099D03*
%TD*%
D14*
%TO.C,C16*%
X38658000Y-42964000D03*
X37108000Y-42964000D03*
%TD*%
D16*
%TO.C,C26*%
X25551000Y-29883000D03*
X27101000Y-29883000D03*
%TD*%
D11*
%TO.C,U24*%
X23593000Y-47403500D03*
X22643000Y-47403500D03*
X21693000Y-47403500D03*
X21693000Y-45128500D03*
X23593000Y-45128500D03*
%TD*%
D17*
%TO.C,C1*%
X51790600Y-31584600D03*
X51790600Y-33134600D03*
%TD*%
D14*
%TO.C,C23*%
X30898000Y-36106000D03*
X29348000Y-36106000D03*
%TD*%
%TO.C,C11*%
X42328000Y-36106000D03*
X40778000Y-36106000D03*
%TD*%
D13*
%TO.C,R10*%
X34898000Y-38011000D03*
X33248000Y-38011000D03*
%TD*%
D15*
%TO.C,U8*%
X21602001Y-31796901D03*
X22552001Y-31796901D03*
X23502001Y-31796901D03*
X23502001Y-34071901D03*
X21602001Y-34071901D03*
%TD*%
D12*
%TO.C,R5*%
X40741000Y-39916000D03*
X42391000Y-39916000D03*
%TD*%
D14*
%TO.C,C4*%
X50053500Y-42964000D03*
X48503500Y-42964000D03*
%TD*%
D12*
%TO.C,R3*%
X44551000Y-39916000D03*
X46201000Y-39916000D03*
%TD*%
D14*
%TO.C,C19*%
X34835000Y-36106000D03*
X33285000Y-36106000D03*
%TD*%
D13*
%TO.C,R8*%
X38518000Y-38011000D03*
X36868000Y-38011000D03*
%TD*%
D14*
%TO.C,C3*%
X50075000Y-49441000D03*
X48525000Y-49441000D03*
%TD*%
%TO.C,C2*%
X49898000Y-36106000D03*
X48348000Y-36106000D03*
%TD*%
%TO.C,C12*%
X42468000Y-42964000D03*
X40918000Y-42964000D03*
%TD*%
M02*
