%TF.GenerationSoftware,KiCad,Pcbnew,7.0.10-7.0.10~ubuntu22.04.1*%
%TF.CreationDate,2024-01-03T10:10:25-05:00*%
%TF.ProjectId,readout-splitter,72656164-6f75-4742-9d73-706c69747465,rev?*%
%TF.SameCoordinates,Original*%
%TF.FileFunction,Legend,Top*%
%TF.FilePolarity,Positive*%
%FSLAX46Y46*%
G04 Gerber Fmt 4.6, Leading zero omitted, Abs format (unit mm)*
G04 Created by KiCad (PCBNEW 7.0.10-7.0.10~ubuntu22.04.1) date 2024-01-03 10:10:25*
%MOMM*%
%LPD*%
G01*
G04 APERTURE LIST*
%ADD10C,0.150000*%
%ADD11C,0.152400*%
%ADD12C,0.127000*%
%ADD13C,0.120000*%
%ADD14C,0.100000*%
%ADD15C,0.200000*%
G04 APERTURE END LIST*
D10*
X31758588Y-50644438D02*
X31663350Y-50596819D01*
X31663350Y-50596819D02*
X31520493Y-50596819D01*
X31520493Y-50596819D02*
X31377636Y-50644438D01*
X31377636Y-50644438D02*
X31282398Y-50739676D01*
X31282398Y-50739676D02*
X31234779Y-50834914D01*
X31234779Y-50834914D02*
X31187160Y-51025390D01*
X31187160Y-51025390D02*
X31187160Y-51168247D01*
X31187160Y-51168247D02*
X31234779Y-51358723D01*
X31234779Y-51358723D02*
X31282398Y-51453961D01*
X31282398Y-51453961D02*
X31377636Y-51549200D01*
X31377636Y-51549200D02*
X31520493Y-51596819D01*
X31520493Y-51596819D02*
X31615731Y-51596819D01*
X31615731Y-51596819D02*
X31758588Y-51549200D01*
X31758588Y-51549200D02*
X31806207Y-51501580D01*
X31806207Y-51501580D02*
X31806207Y-51168247D01*
X31806207Y-51168247D02*
X31615731Y-51168247D01*
X32234779Y-51596819D02*
X32234779Y-50596819D01*
X32234779Y-50596819D02*
X32806207Y-51596819D01*
X32806207Y-51596819D02*
X32806207Y-50596819D01*
X33282398Y-51596819D02*
X33282398Y-50596819D01*
X33282398Y-50596819D02*
X33520493Y-50596819D01*
X33520493Y-50596819D02*
X33663350Y-50644438D01*
X33663350Y-50644438D02*
X33758588Y-50739676D01*
X33758588Y-50739676D02*
X33806207Y-50834914D01*
X33806207Y-50834914D02*
X33853826Y-51025390D01*
X33853826Y-51025390D02*
X33853826Y-51168247D01*
X33853826Y-51168247D02*
X33806207Y-51358723D01*
X33806207Y-51358723D02*
X33758588Y-51453961D01*
X33758588Y-51453961D02*
X33663350Y-51549200D01*
X33663350Y-51549200D02*
X33520493Y-51596819D01*
X33520493Y-51596819D02*
X33282398Y-51596819D01*
X26154779Y-55025866D02*
X26916684Y-55025866D01*
X26535731Y-55406819D02*
X26535731Y-54644914D01*
X27821445Y-54406819D02*
X27630969Y-54406819D01*
X27630969Y-54406819D02*
X27535731Y-54454438D01*
X27535731Y-54454438D02*
X27488112Y-54502057D01*
X27488112Y-54502057D02*
X27392874Y-54644914D01*
X27392874Y-54644914D02*
X27345255Y-54835390D01*
X27345255Y-54835390D02*
X27345255Y-55216342D01*
X27345255Y-55216342D02*
X27392874Y-55311580D01*
X27392874Y-55311580D02*
X27440493Y-55359200D01*
X27440493Y-55359200D02*
X27535731Y-55406819D01*
X27535731Y-55406819D02*
X27726207Y-55406819D01*
X27726207Y-55406819D02*
X27821445Y-55359200D01*
X27821445Y-55359200D02*
X27869064Y-55311580D01*
X27869064Y-55311580D02*
X27916683Y-55216342D01*
X27916683Y-55216342D02*
X27916683Y-54978247D01*
X27916683Y-54978247D02*
X27869064Y-54883009D01*
X27869064Y-54883009D02*
X27821445Y-54835390D01*
X27821445Y-54835390D02*
X27726207Y-54787771D01*
X27726207Y-54787771D02*
X27535731Y-54787771D01*
X27535731Y-54787771D02*
X27440493Y-54835390D01*
X27440493Y-54835390D02*
X27392874Y-54883009D01*
X27392874Y-54883009D02*
X27345255Y-54978247D01*
X28345255Y-55311580D02*
X28392874Y-55359200D01*
X28392874Y-55359200D02*
X28345255Y-55406819D01*
X28345255Y-55406819D02*
X28297636Y-55359200D01*
X28297636Y-55359200D02*
X28345255Y-55311580D01*
X28345255Y-55311580D02*
X28345255Y-55406819D01*
X29297635Y-54406819D02*
X28821445Y-54406819D01*
X28821445Y-54406819D02*
X28773826Y-54883009D01*
X28773826Y-54883009D02*
X28821445Y-54835390D01*
X28821445Y-54835390D02*
X28916683Y-54787771D01*
X28916683Y-54787771D02*
X29154778Y-54787771D01*
X29154778Y-54787771D02*
X29250016Y-54835390D01*
X29250016Y-54835390D02*
X29297635Y-54883009D01*
X29297635Y-54883009D02*
X29345254Y-54978247D01*
X29345254Y-54978247D02*
X29345254Y-55216342D01*
X29345254Y-55216342D02*
X29297635Y-55311580D01*
X29297635Y-55311580D02*
X29250016Y-55359200D01*
X29250016Y-55359200D02*
X29154778Y-55406819D01*
X29154778Y-55406819D02*
X28916683Y-55406819D01*
X28916683Y-55406819D02*
X28821445Y-55359200D01*
X28821445Y-55359200D02*
X28773826Y-55311580D01*
X29630969Y-54406819D02*
X29964302Y-55406819D01*
X29964302Y-55406819D02*
X30297635Y-54406819D01*
D11*
X28819450Y-26891763D02*
X28819450Y-27653763D01*
X28819450Y-27000620D02*
X28873879Y-26946192D01*
X28873879Y-26946192D02*
X28982736Y-26891763D01*
X28982736Y-26891763D02*
X29146022Y-26891763D01*
X29146022Y-26891763D02*
X29254879Y-26946192D01*
X29254879Y-26946192D02*
X29309308Y-27055049D01*
X29309308Y-27055049D02*
X29309308Y-27653763D01*
X29853593Y-27653763D02*
X29853593Y-26891763D01*
X29853593Y-26510763D02*
X29799165Y-26565192D01*
X29799165Y-26565192D02*
X29853593Y-26619620D01*
X29853593Y-26619620D02*
X29908022Y-26565192D01*
X29908022Y-26565192D02*
X29853593Y-26510763D01*
X29853593Y-26510763D02*
X29853593Y-26619620D01*
X30397879Y-26891763D02*
X30397879Y-27653763D01*
X30397879Y-27000620D02*
X30452308Y-26946192D01*
X30452308Y-26946192D02*
X30561165Y-26891763D01*
X30561165Y-26891763D02*
X30724451Y-26891763D01*
X30724451Y-26891763D02*
X30833308Y-26946192D01*
X30833308Y-26946192D02*
X30887737Y-27055049D01*
X30887737Y-27055049D02*
X30887737Y-27653763D01*
X31432022Y-26891763D02*
X31432022Y-27871477D01*
X31432022Y-27871477D02*
X31377594Y-27980335D01*
X31377594Y-27980335D02*
X31268737Y-28034763D01*
X31268737Y-28034763D02*
X31214308Y-28034763D01*
X31432022Y-26510763D02*
X31377594Y-26565192D01*
X31377594Y-26565192D02*
X31432022Y-26619620D01*
X31432022Y-26619620D02*
X31486451Y-26565192D01*
X31486451Y-26565192D02*
X31432022Y-26510763D01*
X31432022Y-26510763D02*
X31432022Y-26619620D01*
X32466166Y-27653763D02*
X32466166Y-27055049D01*
X32466166Y-27055049D02*
X32411737Y-26946192D01*
X32411737Y-26946192D02*
X32302880Y-26891763D01*
X32302880Y-26891763D02*
X32085166Y-26891763D01*
X32085166Y-26891763D02*
X31976308Y-26946192D01*
X32466166Y-27599335D02*
X32357308Y-27653763D01*
X32357308Y-27653763D02*
X32085166Y-27653763D01*
X32085166Y-27653763D02*
X31976308Y-27599335D01*
X31976308Y-27599335D02*
X31921880Y-27490477D01*
X31921880Y-27490477D02*
X31921880Y-27381620D01*
X31921880Y-27381620D02*
X31976308Y-27272763D01*
X31976308Y-27272763D02*
X32085166Y-27218335D01*
X32085166Y-27218335D02*
X32357308Y-27218335D01*
X32357308Y-27218335D02*
X32466166Y-27163906D01*
X33010451Y-27653763D02*
X33010451Y-26510763D01*
X33010451Y-26510763D02*
X33663594Y-27653763D01*
X33663594Y-27653763D02*
X33663594Y-26510763D01*
X34207880Y-27653763D02*
X34207880Y-26510763D01*
X35405309Y-27653763D02*
X35024309Y-27109477D01*
X34752166Y-27653763D02*
X34752166Y-26510763D01*
X34752166Y-26510763D02*
X35187595Y-26510763D01*
X35187595Y-26510763D02*
X35296452Y-26565192D01*
X35296452Y-26565192D02*
X35350881Y-26619620D01*
X35350881Y-26619620D02*
X35405309Y-26728477D01*
X35405309Y-26728477D02*
X35405309Y-26891763D01*
X35405309Y-26891763D02*
X35350881Y-27000620D01*
X35350881Y-27000620D02*
X35296452Y-27055049D01*
X35296452Y-27055049D02*
X35187595Y-27109477D01*
X35187595Y-27109477D02*
X34752166Y-27109477D01*
X35840738Y-27599335D02*
X36004024Y-27653763D01*
X36004024Y-27653763D02*
X36276166Y-27653763D01*
X36276166Y-27653763D02*
X36385024Y-27599335D01*
X36385024Y-27599335D02*
X36439452Y-27544906D01*
X36439452Y-27544906D02*
X36493881Y-27436049D01*
X36493881Y-27436049D02*
X36493881Y-27327192D01*
X36493881Y-27327192D02*
X36439452Y-27218335D01*
X36439452Y-27218335D02*
X36385024Y-27163906D01*
X36385024Y-27163906D02*
X36276166Y-27109477D01*
X36276166Y-27109477D02*
X36058452Y-27055049D01*
X36058452Y-27055049D02*
X35949595Y-27000620D01*
X35949595Y-27000620D02*
X35895166Y-26946192D01*
X35895166Y-26946192D02*
X35840738Y-26837335D01*
X35840738Y-26837335D02*
X35840738Y-26728477D01*
X35840738Y-26728477D02*
X35895166Y-26619620D01*
X35895166Y-26619620D02*
X35949595Y-26565192D01*
X35949595Y-26565192D02*
X36058452Y-26510763D01*
X36058452Y-26510763D02*
X36330595Y-26510763D01*
X36330595Y-26510763D02*
X36493881Y-26565192D01*
X37800166Y-27599335D02*
X37963452Y-27653763D01*
X37963452Y-27653763D02*
X38235594Y-27653763D01*
X38235594Y-27653763D02*
X38344452Y-27599335D01*
X38344452Y-27599335D02*
X38398880Y-27544906D01*
X38398880Y-27544906D02*
X38453309Y-27436049D01*
X38453309Y-27436049D02*
X38453309Y-27327192D01*
X38453309Y-27327192D02*
X38398880Y-27218335D01*
X38398880Y-27218335D02*
X38344452Y-27163906D01*
X38344452Y-27163906D02*
X38235594Y-27109477D01*
X38235594Y-27109477D02*
X38017880Y-27055049D01*
X38017880Y-27055049D02*
X37909023Y-27000620D01*
X37909023Y-27000620D02*
X37854594Y-26946192D01*
X37854594Y-26946192D02*
X37800166Y-26837335D01*
X37800166Y-26837335D02*
X37800166Y-26728477D01*
X37800166Y-26728477D02*
X37854594Y-26619620D01*
X37854594Y-26619620D02*
X37909023Y-26565192D01*
X37909023Y-26565192D02*
X38017880Y-26510763D01*
X38017880Y-26510763D02*
X38290023Y-26510763D01*
X38290023Y-26510763D02*
X38453309Y-26565192D01*
X38943165Y-26891763D02*
X38943165Y-28034763D01*
X38943165Y-26946192D02*
X39052023Y-26891763D01*
X39052023Y-26891763D02*
X39269737Y-26891763D01*
X39269737Y-26891763D02*
X39378594Y-26946192D01*
X39378594Y-26946192D02*
X39433023Y-27000620D01*
X39433023Y-27000620D02*
X39487451Y-27109477D01*
X39487451Y-27109477D02*
X39487451Y-27436049D01*
X39487451Y-27436049D02*
X39433023Y-27544906D01*
X39433023Y-27544906D02*
X39378594Y-27599335D01*
X39378594Y-27599335D02*
X39269737Y-27653763D01*
X39269737Y-27653763D02*
X39052023Y-27653763D01*
X39052023Y-27653763D02*
X38943165Y-27599335D01*
X40140594Y-27653763D02*
X40031737Y-27599335D01*
X40031737Y-27599335D02*
X39977308Y-27490477D01*
X39977308Y-27490477D02*
X39977308Y-26510763D01*
X40576022Y-27653763D02*
X40576022Y-26891763D01*
X40576022Y-26510763D02*
X40521594Y-26565192D01*
X40521594Y-26565192D02*
X40576022Y-26619620D01*
X40576022Y-26619620D02*
X40630451Y-26565192D01*
X40630451Y-26565192D02*
X40576022Y-26510763D01*
X40576022Y-26510763D02*
X40576022Y-26619620D01*
X40957023Y-26891763D02*
X41392451Y-26891763D01*
X41120308Y-26510763D02*
X41120308Y-27490477D01*
X41120308Y-27490477D02*
X41174737Y-27599335D01*
X41174737Y-27599335D02*
X41283594Y-27653763D01*
X41283594Y-27653763D02*
X41392451Y-27653763D01*
X41610166Y-26891763D02*
X42045594Y-26891763D01*
X41773451Y-26510763D02*
X41773451Y-27490477D01*
X41773451Y-27490477D02*
X41827880Y-27599335D01*
X41827880Y-27599335D02*
X41936737Y-27653763D01*
X41936737Y-27653763D02*
X42045594Y-27653763D01*
X42862023Y-27599335D02*
X42753166Y-27653763D01*
X42753166Y-27653763D02*
X42535452Y-27653763D01*
X42535452Y-27653763D02*
X42426594Y-27599335D01*
X42426594Y-27599335D02*
X42372166Y-27490477D01*
X42372166Y-27490477D02*
X42372166Y-27055049D01*
X42372166Y-27055049D02*
X42426594Y-26946192D01*
X42426594Y-26946192D02*
X42535452Y-26891763D01*
X42535452Y-26891763D02*
X42753166Y-26891763D01*
X42753166Y-26891763D02*
X42862023Y-26946192D01*
X42862023Y-26946192D02*
X42916452Y-27055049D01*
X42916452Y-27055049D02*
X42916452Y-27163906D01*
X42916452Y-27163906D02*
X42372166Y-27272763D01*
X43406308Y-27653763D02*
X43406308Y-26891763D01*
X43406308Y-27109477D02*
X43460737Y-27000620D01*
X43460737Y-27000620D02*
X43515166Y-26946192D01*
X43515166Y-26946192D02*
X43624023Y-26891763D01*
X43624023Y-26891763D02*
X43732880Y-26891763D01*
X20655168Y-28350993D02*
X21036168Y-29493993D01*
X21036168Y-29493993D02*
X21417168Y-28350993D01*
X22396882Y-29493993D02*
X21743739Y-29493993D01*
X22070310Y-29493993D02*
X22070310Y-28350993D01*
X22070310Y-28350993D02*
X21961453Y-28514279D01*
X21961453Y-28514279D02*
X21852596Y-28623136D01*
X21852596Y-28623136D02*
X21743739Y-28677565D01*
X22886738Y-29385136D02*
X22941167Y-29439565D01*
X22941167Y-29439565D02*
X22886738Y-29493993D01*
X22886738Y-29493993D02*
X22832310Y-29439565D01*
X22832310Y-29439565D02*
X22886738Y-29385136D01*
X22886738Y-29385136D02*
X22886738Y-29493993D01*
X23648739Y-28350993D02*
X23757596Y-28350993D01*
X23757596Y-28350993D02*
X23866453Y-28405422D01*
X23866453Y-28405422D02*
X23920882Y-28459850D01*
X23920882Y-28459850D02*
X23975310Y-28568707D01*
X23975310Y-28568707D02*
X24029739Y-28786422D01*
X24029739Y-28786422D02*
X24029739Y-29058565D01*
X24029739Y-29058565D02*
X23975310Y-29276279D01*
X23975310Y-29276279D02*
X23920882Y-29385136D01*
X23920882Y-29385136D02*
X23866453Y-29439565D01*
X23866453Y-29439565D02*
X23757596Y-29493993D01*
X23757596Y-29493993D02*
X23648739Y-29493993D01*
X23648739Y-29493993D02*
X23539882Y-29439565D01*
X23539882Y-29439565D02*
X23485453Y-29385136D01*
X23485453Y-29385136D02*
X23431024Y-29276279D01*
X23431024Y-29276279D02*
X23376596Y-29058565D01*
X23376596Y-29058565D02*
X23376596Y-28786422D01*
X23376596Y-28786422D02*
X23431024Y-28568707D01*
X23431024Y-28568707D02*
X23485453Y-28459850D01*
X23485453Y-28459850D02*
X23539882Y-28405422D01*
X23539882Y-28405422D02*
X23648739Y-28350993D01*
X25390452Y-28895279D02*
X25771452Y-28895279D01*
X25934738Y-29493993D02*
X25390452Y-29493993D01*
X25390452Y-29493993D02*
X25390452Y-28350993D01*
X25390452Y-28350993D02*
X25934738Y-28350993D01*
X26424595Y-29385136D02*
X26479024Y-29439565D01*
X26479024Y-29439565D02*
X26424595Y-29493993D01*
X26424595Y-29493993D02*
X26370167Y-29439565D01*
X26370167Y-29439565D02*
X26424595Y-29385136D01*
X26424595Y-29385136D02*
X26424595Y-29493993D01*
X27839738Y-29493993D02*
X27839738Y-28350993D01*
X27839738Y-28895279D02*
X28492881Y-28895279D01*
X28492881Y-29493993D02*
X28492881Y-28350993D01*
X29527025Y-29493993D02*
X29527025Y-28895279D01*
X29527025Y-28895279D02*
X29472596Y-28786422D01*
X29472596Y-28786422D02*
X29363739Y-28731993D01*
X29363739Y-28731993D02*
X29146025Y-28731993D01*
X29146025Y-28731993D02*
X29037167Y-28786422D01*
X29527025Y-29439565D02*
X29418167Y-29493993D01*
X29418167Y-29493993D02*
X29146025Y-29493993D01*
X29146025Y-29493993D02*
X29037167Y-29439565D01*
X29037167Y-29439565D02*
X28982739Y-29330707D01*
X28982739Y-29330707D02*
X28982739Y-29221850D01*
X28982739Y-29221850D02*
X29037167Y-29112993D01*
X29037167Y-29112993D02*
X29146025Y-29058565D01*
X29146025Y-29058565D02*
X29418167Y-29058565D01*
X29418167Y-29058565D02*
X29527025Y-29004136D01*
X29962453Y-28731993D02*
X30561168Y-28731993D01*
X30561168Y-28731993D02*
X29962453Y-29493993D01*
X29962453Y-29493993D02*
X30561168Y-29493993D01*
X31432025Y-29439565D02*
X31323168Y-29493993D01*
X31323168Y-29493993D02*
X31105454Y-29493993D01*
X31105454Y-29493993D02*
X30996596Y-29439565D01*
X30996596Y-29439565D02*
X30942168Y-29330707D01*
X30942168Y-29330707D02*
X30942168Y-28895279D01*
X30942168Y-28895279D02*
X30996596Y-28786422D01*
X30996596Y-28786422D02*
X31105454Y-28731993D01*
X31105454Y-28731993D02*
X31323168Y-28731993D01*
X31323168Y-28731993D02*
X31432025Y-28786422D01*
X31432025Y-28786422D02*
X31486454Y-28895279D01*
X31486454Y-28895279D02*
X31486454Y-29004136D01*
X31486454Y-29004136D02*
X30942168Y-29112993D01*
X31976310Y-28731993D02*
X31976310Y-29493993D01*
X31976310Y-28840850D02*
X32030739Y-28786422D01*
X32030739Y-28786422D02*
X32139596Y-28731993D01*
X32139596Y-28731993D02*
X32302882Y-28731993D01*
X32302882Y-28731993D02*
X32411739Y-28786422D01*
X32411739Y-28786422D02*
X32466168Y-28895279D01*
X32466168Y-28895279D02*
X32466168Y-29493993D01*
X33881310Y-29058565D02*
X34752168Y-29058565D01*
X36112882Y-28459850D02*
X36167310Y-28405422D01*
X36167310Y-28405422D02*
X36276168Y-28350993D01*
X36276168Y-28350993D02*
X36548310Y-28350993D01*
X36548310Y-28350993D02*
X36657168Y-28405422D01*
X36657168Y-28405422D02*
X36711596Y-28459850D01*
X36711596Y-28459850D02*
X36766025Y-28568707D01*
X36766025Y-28568707D02*
X36766025Y-28677565D01*
X36766025Y-28677565D02*
X36711596Y-28840850D01*
X36711596Y-28840850D02*
X36058453Y-29493993D01*
X36058453Y-29493993D02*
X36766025Y-29493993D01*
X37473596Y-28350993D02*
X37582453Y-28350993D01*
X37582453Y-28350993D02*
X37691310Y-28405422D01*
X37691310Y-28405422D02*
X37745739Y-28459850D01*
X37745739Y-28459850D02*
X37800167Y-28568707D01*
X37800167Y-28568707D02*
X37854596Y-28786422D01*
X37854596Y-28786422D02*
X37854596Y-29058565D01*
X37854596Y-29058565D02*
X37800167Y-29276279D01*
X37800167Y-29276279D02*
X37745739Y-29385136D01*
X37745739Y-29385136D02*
X37691310Y-29439565D01*
X37691310Y-29439565D02*
X37582453Y-29493993D01*
X37582453Y-29493993D02*
X37473596Y-29493993D01*
X37473596Y-29493993D02*
X37364739Y-29439565D01*
X37364739Y-29439565D02*
X37310310Y-29385136D01*
X37310310Y-29385136D02*
X37255881Y-29276279D01*
X37255881Y-29276279D02*
X37201453Y-29058565D01*
X37201453Y-29058565D02*
X37201453Y-28786422D01*
X37201453Y-28786422D02*
X37255881Y-28568707D01*
X37255881Y-28568707D02*
X37310310Y-28459850D01*
X37310310Y-28459850D02*
X37364739Y-28405422D01*
X37364739Y-28405422D02*
X37473596Y-28350993D01*
X38290024Y-28459850D02*
X38344452Y-28405422D01*
X38344452Y-28405422D02*
X38453310Y-28350993D01*
X38453310Y-28350993D02*
X38725452Y-28350993D01*
X38725452Y-28350993D02*
X38834310Y-28405422D01*
X38834310Y-28405422D02*
X38888738Y-28459850D01*
X38888738Y-28459850D02*
X38943167Y-28568707D01*
X38943167Y-28568707D02*
X38943167Y-28677565D01*
X38943167Y-28677565D02*
X38888738Y-28840850D01*
X38888738Y-28840850D02*
X38235595Y-29493993D01*
X38235595Y-29493993D02*
X38943167Y-29493993D01*
X39922881Y-28731993D02*
X39922881Y-29493993D01*
X39650738Y-28296565D02*
X39378595Y-29112993D01*
X39378595Y-29112993D02*
X40086166Y-29112993D01*
X40521594Y-29058565D02*
X41392452Y-29058565D01*
X42154452Y-28350993D02*
X42263309Y-28350993D01*
X42263309Y-28350993D02*
X42372166Y-28405422D01*
X42372166Y-28405422D02*
X42426595Y-28459850D01*
X42426595Y-28459850D02*
X42481023Y-28568707D01*
X42481023Y-28568707D02*
X42535452Y-28786422D01*
X42535452Y-28786422D02*
X42535452Y-29058565D01*
X42535452Y-29058565D02*
X42481023Y-29276279D01*
X42481023Y-29276279D02*
X42426595Y-29385136D01*
X42426595Y-29385136D02*
X42372166Y-29439565D01*
X42372166Y-29439565D02*
X42263309Y-29493993D01*
X42263309Y-29493993D02*
X42154452Y-29493993D01*
X42154452Y-29493993D02*
X42045595Y-29439565D01*
X42045595Y-29439565D02*
X41991166Y-29385136D01*
X41991166Y-29385136D02*
X41936737Y-29276279D01*
X41936737Y-29276279D02*
X41882309Y-29058565D01*
X41882309Y-29058565D02*
X41882309Y-28786422D01*
X41882309Y-28786422D02*
X41936737Y-28568707D01*
X41936737Y-28568707D02*
X41991166Y-28459850D01*
X41991166Y-28459850D02*
X42045595Y-28405422D01*
X42045595Y-28405422D02*
X42154452Y-28350993D01*
X43624023Y-29493993D02*
X42970880Y-29493993D01*
X43297451Y-29493993D02*
X43297451Y-28350993D01*
X43297451Y-28350993D02*
X43188594Y-28514279D01*
X43188594Y-28514279D02*
X43079737Y-28623136D01*
X43079737Y-28623136D02*
X42970880Y-28677565D01*
D10*
X34536779Y-55025866D02*
X35298684Y-55025866D01*
X35727255Y-54502057D02*
X35774874Y-54454438D01*
X35774874Y-54454438D02*
X35870112Y-54406819D01*
X35870112Y-54406819D02*
X36108207Y-54406819D01*
X36108207Y-54406819D02*
X36203445Y-54454438D01*
X36203445Y-54454438D02*
X36251064Y-54502057D01*
X36251064Y-54502057D02*
X36298683Y-54597295D01*
X36298683Y-54597295D02*
X36298683Y-54692533D01*
X36298683Y-54692533D02*
X36251064Y-54835390D01*
X36251064Y-54835390D02*
X35679636Y-55406819D01*
X35679636Y-55406819D02*
X36298683Y-55406819D01*
X36917731Y-54406819D02*
X37012969Y-54406819D01*
X37012969Y-54406819D02*
X37108207Y-54454438D01*
X37108207Y-54454438D02*
X37155826Y-54502057D01*
X37155826Y-54502057D02*
X37203445Y-54597295D01*
X37203445Y-54597295D02*
X37251064Y-54787771D01*
X37251064Y-54787771D02*
X37251064Y-55025866D01*
X37251064Y-55025866D02*
X37203445Y-55216342D01*
X37203445Y-55216342D02*
X37155826Y-55311580D01*
X37155826Y-55311580D02*
X37108207Y-55359200D01*
X37108207Y-55359200D02*
X37012969Y-55406819D01*
X37012969Y-55406819D02*
X36917731Y-55406819D01*
X36917731Y-55406819D02*
X36822493Y-55359200D01*
X36822493Y-55359200D02*
X36774874Y-55311580D01*
X36774874Y-55311580D02*
X36727255Y-55216342D01*
X36727255Y-55216342D02*
X36679636Y-55025866D01*
X36679636Y-55025866D02*
X36679636Y-54787771D01*
X36679636Y-54787771D02*
X36727255Y-54597295D01*
X36727255Y-54597295D02*
X36774874Y-54502057D01*
X36774874Y-54502057D02*
X36822493Y-54454438D01*
X36822493Y-54454438D02*
X36917731Y-54406819D01*
X37536779Y-54406819D02*
X37870112Y-55406819D01*
X37870112Y-55406819D02*
X38203445Y-54406819D01*
X50683904Y-34762635D02*
X50683904Y-35477697D01*
X50683904Y-35477697D02*
X50636234Y-35620710D01*
X50636234Y-35620710D02*
X50540892Y-35716052D01*
X50540892Y-35716052D02*
X50397880Y-35763722D01*
X50397880Y-35763722D02*
X50302538Y-35763722D01*
X51589650Y-35096331D02*
X51589650Y-35763722D01*
X51351296Y-34714965D02*
X51112942Y-35430027D01*
X51112942Y-35430027D02*
X51732662Y-35430027D01*
X50503245Y-37042794D02*
X50550871Y-36995168D01*
X50550871Y-36995168D02*
X50646122Y-36947542D01*
X50646122Y-36947542D02*
X50884251Y-36947542D01*
X50884251Y-36947542D02*
X50979503Y-36995168D01*
X50979503Y-36995168D02*
X51027129Y-37042794D01*
X51027129Y-37042794D02*
X51074754Y-37138046D01*
X51074754Y-37138046D02*
X51074754Y-37233297D01*
X51074754Y-37233297D02*
X51027129Y-37376175D01*
X51027129Y-37376175D02*
X50455619Y-37947684D01*
X50455619Y-37947684D02*
X51074754Y-37947684D01*
X50896997Y-33375753D02*
X50325402Y-33375753D01*
X50611200Y-33375753D02*
X50611200Y-32375462D01*
X50611200Y-32375462D02*
X50515934Y-32518361D01*
X50515934Y-32518361D02*
X50420668Y-32613627D01*
X50420668Y-32613627D02*
X50325402Y-32661260D01*
X19954580Y-43352857D02*
X20002200Y-43400476D01*
X20002200Y-43400476D02*
X20049819Y-43543333D01*
X20049819Y-43543333D02*
X20049819Y-43638571D01*
X20049819Y-43638571D02*
X20002200Y-43781428D01*
X20002200Y-43781428D02*
X19906961Y-43876666D01*
X19906961Y-43876666D02*
X19811723Y-43924285D01*
X19811723Y-43924285D02*
X19621247Y-43971904D01*
X19621247Y-43971904D02*
X19478390Y-43971904D01*
X19478390Y-43971904D02*
X19287914Y-43924285D01*
X19287914Y-43924285D02*
X19192676Y-43876666D01*
X19192676Y-43876666D02*
X19097438Y-43781428D01*
X19097438Y-43781428D02*
X19049819Y-43638571D01*
X19049819Y-43638571D02*
X19049819Y-43543333D01*
X19049819Y-43543333D02*
X19097438Y-43400476D01*
X19097438Y-43400476D02*
X19145057Y-43352857D01*
X19383152Y-42495714D02*
X20049819Y-42495714D01*
X19002200Y-42733809D02*
X19716485Y-42971904D01*
X19716485Y-42971904D02*
X19716485Y-42352857D01*
X19049819Y-41781428D02*
X19049819Y-41686190D01*
X19049819Y-41686190D02*
X19097438Y-41590952D01*
X19097438Y-41590952D02*
X19145057Y-41543333D01*
X19145057Y-41543333D02*
X19240295Y-41495714D01*
X19240295Y-41495714D02*
X19430771Y-41448095D01*
X19430771Y-41448095D02*
X19668866Y-41448095D01*
X19668866Y-41448095D02*
X19859342Y-41495714D01*
X19859342Y-41495714D02*
X19954580Y-41543333D01*
X19954580Y-41543333D02*
X20002200Y-41590952D01*
X20002200Y-41590952D02*
X20049819Y-41686190D01*
X20049819Y-41686190D02*
X20049819Y-41781428D01*
X20049819Y-41781428D02*
X20002200Y-41876666D01*
X20002200Y-41876666D02*
X19954580Y-41924285D01*
X19954580Y-41924285D02*
X19859342Y-41971904D01*
X19859342Y-41971904D02*
X19668866Y-42019523D01*
X19668866Y-42019523D02*
X19430771Y-42019523D01*
X19430771Y-42019523D02*
X19240295Y-41971904D01*
X19240295Y-41971904D02*
X19145057Y-41924285D01*
X19145057Y-41924285D02*
X19097438Y-41876666D01*
X19097438Y-41876666D02*
X19049819Y-41781428D01*
X48471666Y-44831819D02*
X48471666Y-45546104D01*
X48471666Y-45546104D02*
X48424047Y-45688961D01*
X48424047Y-45688961D02*
X48328809Y-45784200D01*
X48328809Y-45784200D02*
X48185952Y-45831819D01*
X48185952Y-45831819D02*
X48090714Y-45831819D01*
X49424047Y-44831819D02*
X48947857Y-44831819D01*
X48947857Y-44831819D02*
X48900238Y-45308009D01*
X48900238Y-45308009D02*
X48947857Y-45260390D01*
X48947857Y-45260390D02*
X49043095Y-45212771D01*
X49043095Y-45212771D02*
X49281190Y-45212771D01*
X49281190Y-45212771D02*
X49376428Y-45260390D01*
X49376428Y-45260390D02*
X49424047Y-45308009D01*
X49424047Y-45308009D02*
X49471666Y-45403247D01*
X49471666Y-45403247D02*
X49471666Y-45641342D01*
X49471666Y-45641342D02*
X49424047Y-45736580D01*
X49424047Y-45736580D02*
X49376428Y-45784200D01*
X49376428Y-45784200D02*
X49281190Y-45831819D01*
X49281190Y-45831819D02*
X49043095Y-45831819D01*
X49043095Y-45831819D02*
X48947857Y-45784200D01*
X48947857Y-45784200D02*
X48900238Y-45736580D01*
X20049819Y-40050857D02*
X19573628Y-40384190D01*
X20049819Y-40622285D02*
X19049819Y-40622285D01*
X19049819Y-40622285D02*
X19049819Y-40241333D01*
X19049819Y-40241333D02*
X19097438Y-40146095D01*
X19097438Y-40146095D02*
X19145057Y-40098476D01*
X19145057Y-40098476D02*
X19240295Y-40050857D01*
X19240295Y-40050857D02*
X19383152Y-40050857D01*
X19383152Y-40050857D02*
X19478390Y-40098476D01*
X19478390Y-40098476D02*
X19526009Y-40146095D01*
X19526009Y-40146095D02*
X19573628Y-40241333D01*
X19573628Y-40241333D02*
X19573628Y-40622285D01*
X19145057Y-39669904D02*
X19097438Y-39622285D01*
X19097438Y-39622285D02*
X19049819Y-39527047D01*
X19049819Y-39527047D02*
X19049819Y-39288952D01*
X19049819Y-39288952D02*
X19097438Y-39193714D01*
X19097438Y-39193714D02*
X19145057Y-39146095D01*
X19145057Y-39146095D02*
X19240295Y-39098476D01*
X19240295Y-39098476D02*
X19335533Y-39098476D01*
X19335533Y-39098476D02*
X19478390Y-39146095D01*
X19478390Y-39146095D02*
X20049819Y-39717523D01*
X20049819Y-39717523D02*
X20049819Y-39098476D01*
X19383152Y-38241333D02*
X20049819Y-38241333D01*
X19002200Y-38479428D02*
X19716485Y-38717523D01*
X19716485Y-38717523D02*
X19716485Y-38098476D01*
D12*
%TO.C,J4*%
X49900000Y-38712000D02*
X47944200Y-38712000D01*
X49900000Y-31346000D02*
X49900000Y-38712000D01*
X47944200Y-38966000D02*
X22899800Y-38966000D01*
X47944200Y-38712000D02*
X47944200Y-38966000D01*
X22899800Y-38966000D02*
X22899800Y-38712000D01*
X22899800Y-38712000D02*
X20944000Y-38712000D01*
X20944000Y-38712000D02*
X20944000Y-31346000D01*
X20944000Y-31346000D02*
X49900000Y-31346000D01*
D13*
%TO.C,C33*%
X49580580Y-42204000D02*
X49299420Y-42204000D01*
X49580580Y-41184000D02*
X49299420Y-41184000D01*
%TO.C,C35*%
X41960580Y-42204000D02*
X41679420Y-42204000D01*
X41960580Y-41184000D02*
X41679420Y-41184000D01*
%TO.C,C40*%
X22910580Y-42204000D02*
X22629420Y-42204000D01*
X22910580Y-41184000D02*
X22629420Y-41184000D01*
%TO.C,C38*%
X30530580Y-42204000D02*
X30249420Y-42204000D01*
X30530580Y-41184000D02*
X30249420Y-41184000D01*
%TO.C,R20*%
X37772742Y-39393500D02*
X38247258Y-39393500D01*
X37772742Y-40438500D02*
X38247258Y-40438500D01*
%TO.C,R21*%
X34089742Y-39393500D02*
X34564258Y-39393500D01*
X34089742Y-40438500D02*
X34564258Y-40438500D01*
%TO.C,J3*%
X34897000Y-52297000D02*
X36297000Y-52297000D01*
X34897000Y-53697000D02*
X34897000Y-52297000D01*
X36297000Y-52297000D02*
X36297000Y-53697000D01*
X36297000Y-53697000D02*
X34897000Y-53697000D01*
%TO.C,R19*%
X41582742Y-39393500D02*
X42057258Y-39393500D01*
X41582742Y-40438500D02*
X42057258Y-40438500D01*
%TO.C,J1*%
X28547000Y-52297000D02*
X29947000Y-52297000D01*
X28547000Y-53697000D02*
X28547000Y-52297000D01*
X29947000Y-52297000D02*
X29947000Y-53697000D01*
X29947000Y-53697000D02*
X28547000Y-53697000D01*
%TO.C,R17*%
X49202742Y-39393500D02*
X49677258Y-39393500D01*
X49202742Y-40438500D02*
X49677258Y-40438500D01*
%TO.C,R18*%
X45392742Y-39393500D02*
X45867258Y-39393500D01*
X45392742Y-40438500D02*
X45867258Y-40438500D01*
%TO.C,R23*%
X26342742Y-39393500D02*
X26817258Y-39393500D01*
X26342742Y-40438500D02*
X26817258Y-40438500D01*
%TO.C,C36*%
X38150580Y-42204000D02*
X37869420Y-42204000D01*
X38150580Y-41184000D02*
X37869420Y-41184000D01*
%TO.C,R22*%
X30152742Y-39393500D02*
X30627258Y-39393500D01*
X30152742Y-40438500D02*
X30627258Y-40438500D01*
D14*
%TO.C,N1*%
X26641458Y-25398958D02*
G75*
G03*
X24137542Y-25398958I-1251958J0D01*
G01*
X24137542Y-25398958D02*
G75*
G03*
X26641458Y-25398958I1251958J0D01*
G01*
X46641458Y-53907000D02*
G75*
G03*
X44137542Y-53907000I-1251958J0D01*
G01*
X44137542Y-53907000D02*
G75*
G03*
X46641458Y-53907000I1251958J0D01*
G01*
D13*
%TO.C,C37*%
X34467580Y-42204000D02*
X34186420Y-42204000D01*
X34467580Y-41184000D02*
X34186420Y-41184000D01*
%TO.C,C34*%
X45783580Y-42204000D02*
X45502420Y-42204000D01*
X45783580Y-41184000D02*
X45502420Y-41184000D01*
%TO.C,J2*%
X31722000Y-52297000D02*
X33122000Y-52297000D01*
X31722000Y-53697000D02*
X31722000Y-52297000D01*
X33122000Y-52297000D02*
X33122000Y-53697000D01*
X33122000Y-53697000D02*
X31722000Y-53697000D01*
%TO.C,C39*%
X26720580Y-42204000D02*
X26439420Y-42204000D01*
X26720580Y-41184000D02*
X26439420Y-41184000D01*
D15*
%TO.C,J5*%
X23802000Y-43936800D02*
X23907000Y-43936800D01*
X23802000Y-46986800D02*
X23802000Y-43936800D01*
X23907000Y-46986800D02*
X23802000Y-46986800D01*
X46937000Y-43936800D02*
X47042000Y-43936800D01*
X46937000Y-46986800D02*
X47042000Y-46986800D01*
X47042000Y-43936800D02*
X47042000Y-46986800D01*
X47792000Y-46826800D02*
G75*
G03*
X47592000Y-46826800I-100000J0D01*
G01*
X47592000Y-46826800D02*
G75*
G03*
X47792000Y-46826800I100000J0D01*
G01*
D13*
%TO.C,R24*%
X22532742Y-39393500D02*
X23007258Y-39393500D01*
X22532742Y-40438500D02*
X23007258Y-40438500D01*
%TD*%
M02*
