M48
; DRILL file {KiCad 7.0.10-7.0.10~ubuntu22.04.1} date Wed 03 Jan 2024 10:10:28 AM EST
; FORMAT={-:-/ absolute / inch / decimal}
; #@! TF.CreationDate,2024-01-03T10:10:28-05:00
; #@! TF.GenerationSoftware,Kicad,Pcbnew,7.0.10-7.0.10~ubuntu22.04.1
; #@! TF.FileFunction,Plated,1,4,PTH
FMAT,2
INCH
; #@! TA.AperFunction,Plated,PTH,ViaDrill
T1C0.0080
; #@! TA.AperFunction,Plated,PTH,ComponentDrill
T2C0.0197
%
G90
G05
T1
X0.777Y-1.905
X0.8315Y-1.5715
X0.8315Y-1.6915
X0.8415Y-1.9115
X0.8515Y-1.2115
X0.8815Y-1.9115
X0.8915Y-1.5365
X0.8915Y-1.6065
X0.9215Y-1.3915
X0.922Y-1.2115
X0.9265Y-1.9115
X0.928Y-1.823
X0.9665Y-1.9115
X0.9865Y-1.5465
X0.9965Y-1.9115
X1.0015Y-1.2115
X1.0319Y-1.6753
X1.0365Y-1.9115
X1.0415Y-1.3715
X1.0415Y-1.6015
X1.0465Y-1.5365
X1.0511Y-1.7815
X1.067Y-1.2115
X1.0715Y-1.9115
X1.1136Y-1.6765
X1.1165Y-1.3765
X1.121Y-1.5322
X1.1215Y-1.6165
X1.1465Y-1.9115
X1.1515Y-1.2115
X1.1515Y-1.7315
X1.1715Y-1.5365
X1.1721Y-1.6064
X1.1815Y-1.3615
X1.1915Y-1.9115
X1.202Y-1.6065
X1.2115Y-1.3865
X1.2215Y-1.5365
X1.2253Y-1.2077
X1.2265Y-1.9115
X1.2565Y-1.6715
X1.2565Y-1.7815
X1.2615Y-1.2365
X1.2615Y-1.9115
X1.2733Y-1.3668
X1.2859Y-1.5258
X1.2865Y-1.5715
X1.289Y-1.6219
X1.2965Y-1.9065
X1.3015Y-1.2115
X1.3315Y-1.9115
X1.3465Y-1.5365
X1.3465Y-1.3815
X1.3509Y-1.7844
X1.3524Y-1.6143
X1.3725Y-1.2115
X1.3765Y-1.9115
X1.4115Y-1.3615
X1.4143Y-1.5219
X1.428Y-1.6753
X1.4465Y-1.9115
X1.4501Y-1.6055
X1.4541Y-1.7767
X1.4559Y-1.2115
X1.4853Y-1.5277
X1.4865Y-1.9115
X1.4915Y-1.6065
X1.5015Y-1.3765
X1.5165Y-1.5365
X1.517Y-1.2115
X1.5215Y-1.9115
X1.5365Y-1.3915
X1.5565Y-1.2365
X1.5566Y-1.7839
X1.5615Y-1.9115
X1.5865Y-1.5365
X1.5865Y-1.5965
X1.5965Y-1.9115
X1.6109Y-1.2165
X1.622Y-1.3771
X1.6265Y-1.6065
X1.6315Y-1.9115
X1.6365Y-1.6765
X1.6458Y-1.5351
X1.6505Y-1.7845
X1.6612Y-1.382
X1.6715Y-1.9115
X1.672Y-1.2115
X1.7065Y-1.5265
X1.7165Y-1.3815
X1.7165Y-1.5715
X1.7215Y-1.6165
X1.7365Y-1.6665
X1.7465Y-1.9115
X1.7585Y-1.2115
X1.7815Y-1.9115
X1.7865Y-1.5265
X1.7946Y-1.3796
X1.8189Y-1.5365
X1.8195Y-1.2115
X1.8215Y-1.9115
X1.8265Y-1.4565
X1.8557Y-1.6825
X1.8844Y-1.5505
X1.8965Y-1.9065
X1.9027Y-1.7102
X1.924Y-1.301
X1.9315Y-1.9115
X1.9365Y-1.6065
X1.9515Y-1.3915
X1.9689Y-1.5365
X1.9695Y-1.2115
X1.9715Y-1.9115
X2.036Y-1.212
T2
X1.1515Y-2.0865
X1.2765Y-2.0865
X1.4015Y-2.0865
M30
