%TF.GenerationSoftware,KiCad,Pcbnew,7.0.10-7.0.10~ubuntu22.04.1*%
%TF.CreationDate,2024-01-03T10:10:25-05:00*%
%TF.ProjectId,readout-splitter,72656164-6f75-4742-9d73-706c69747465,rev?*%
%TF.SameCoordinates,Original*%
%TF.FileFunction,Legend,Bot*%
%TF.FilePolarity,Positive*%
%FSLAX46Y46*%
G04 Gerber Fmt 4.6, Leading zero omitted, Abs format (unit mm)*
G04 Created by KiCad (PCBNEW 7.0.10-7.0.10~ubuntu22.04.1) date 2024-01-03 10:10:25*
%MOMM*%
%LPD*%
G01*
G04 APERTURE LIST*
%ADD10C,0.150000*%
%ADD11C,0.120000*%
G04 APERTURE END LIST*
D10*
X20364857Y-43323580D02*
X20412476Y-43371200D01*
X20412476Y-43371200D02*
X20555333Y-43418819D01*
X20555333Y-43418819D02*
X20650571Y-43418819D01*
X20650571Y-43418819D02*
X20793428Y-43371200D01*
X20793428Y-43371200D02*
X20888666Y-43275961D01*
X20888666Y-43275961D02*
X20936285Y-43180723D01*
X20936285Y-43180723D02*
X20983904Y-42990247D01*
X20983904Y-42990247D02*
X20983904Y-42847390D01*
X20983904Y-42847390D02*
X20936285Y-42656914D01*
X20936285Y-42656914D02*
X20888666Y-42561676D01*
X20888666Y-42561676D02*
X20793428Y-42466438D01*
X20793428Y-42466438D02*
X20650571Y-42418819D01*
X20650571Y-42418819D02*
X20555333Y-42418819D01*
X20555333Y-42418819D02*
X20412476Y-42466438D01*
X20412476Y-42466438D02*
X20364857Y-42514057D01*
X20031523Y-42418819D02*
X19412476Y-42418819D01*
X19412476Y-42418819D02*
X19745809Y-42799771D01*
X19745809Y-42799771D02*
X19602952Y-42799771D01*
X19602952Y-42799771D02*
X19507714Y-42847390D01*
X19507714Y-42847390D02*
X19460095Y-42895009D01*
X19460095Y-42895009D02*
X19412476Y-42990247D01*
X19412476Y-42990247D02*
X19412476Y-43228342D01*
X19412476Y-43228342D02*
X19460095Y-43323580D01*
X19460095Y-43323580D02*
X19507714Y-43371200D01*
X19507714Y-43371200D02*
X19602952Y-43418819D01*
X19602952Y-43418819D02*
X19888666Y-43418819D01*
X19888666Y-43418819D02*
X19983904Y-43371200D01*
X19983904Y-43371200D02*
X20031523Y-43323580D01*
X19031523Y-42514057D02*
X18983904Y-42466438D01*
X18983904Y-42466438D02*
X18888666Y-42418819D01*
X18888666Y-42418819D02*
X18650571Y-42418819D01*
X18650571Y-42418819D02*
X18555333Y-42466438D01*
X18555333Y-42466438D02*
X18507714Y-42514057D01*
X18507714Y-42514057D02*
X18460095Y-42609295D01*
X18460095Y-42609295D02*
X18460095Y-42704533D01*
X18460095Y-42704533D02*
X18507714Y-42847390D01*
X18507714Y-42847390D02*
X19079142Y-43418819D01*
X19079142Y-43418819D02*
X18460095Y-43418819D01*
X20364857Y-38465819D02*
X20698190Y-37989628D01*
X20936285Y-38465819D02*
X20936285Y-37465819D01*
X20936285Y-37465819D02*
X20555333Y-37465819D01*
X20555333Y-37465819D02*
X20460095Y-37513438D01*
X20460095Y-37513438D02*
X20412476Y-37561057D01*
X20412476Y-37561057D02*
X20364857Y-37656295D01*
X20364857Y-37656295D02*
X20364857Y-37799152D01*
X20364857Y-37799152D02*
X20412476Y-37894390D01*
X20412476Y-37894390D02*
X20460095Y-37942009D01*
X20460095Y-37942009D02*
X20555333Y-37989628D01*
X20555333Y-37989628D02*
X20936285Y-37989628D01*
X19412476Y-38465819D02*
X19983904Y-38465819D01*
X19698190Y-38465819D02*
X19698190Y-37465819D01*
X19698190Y-37465819D02*
X19793428Y-37608676D01*
X19793428Y-37608676D02*
X19888666Y-37703914D01*
X19888666Y-37703914D02*
X19983904Y-37751533D01*
X18555333Y-37465819D02*
X18745809Y-37465819D01*
X18745809Y-37465819D02*
X18841047Y-37513438D01*
X18841047Y-37513438D02*
X18888666Y-37561057D01*
X18888666Y-37561057D02*
X18983904Y-37703914D01*
X18983904Y-37703914D02*
X19031523Y-37894390D01*
X19031523Y-37894390D02*
X19031523Y-38275342D01*
X19031523Y-38275342D02*
X18983904Y-38370580D01*
X18983904Y-38370580D02*
X18936285Y-38418200D01*
X18936285Y-38418200D02*
X18841047Y-38465819D01*
X18841047Y-38465819D02*
X18650571Y-38465819D01*
X18650571Y-38465819D02*
X18555333Y-38418200D01*
X18555333Y-38418200D02*
X18507714Y-38370580D01*
X18507714Y-38370580D02*
X18460095Y-38275342D01*
X18460095Y-38275342D02*
X18460095Y-38037247D01*
X18460095Y-38037247D02*
X18507714Y-37942009D01*
X18507714Y-37942009D02*
X18555333Y-37894390D01*
X18555333Y-37894390D02*
X18650571Y-37846771D01*
X18650571Y-37846771D02*
X18841047Y-37846771D01*
X18841047Y-37846771D02*
X18936285Y-37894390D01*
X18936285Y-37894390D02*
X18983904Y-37942009D01*
X18983904Y-37942009D02*
X19031523Y-38037247D01*
X20237857Y-36465580D02*
X20285476Y-36513200D01*
X20285476Y-36513200D02*
X20428333Y-36560819D01*
X20428333Y-36560819D02*
X20523571Y-36560819D01*
X20523571Y-36560819D02*
X20666428Y-36513200D01*
X20666428Y-36513200D02*
X20761666Y-36417961D01*
X20761666Y-36417961D02*
X20809285Y-36322723D01*
X20809285Y-36322723D02*
X20856904Y-36132247D01*
X20856904Y-36132247D02*
X20856904Y-35989390D01*
X20856904Y-35989390D02*
X20809285Y-35798914D01*
X20809285Y-35798914D02*
X20761666Y-35703676D01*
X20761666Y-35703676D02*
X20666428Y-35608438D01*
X20666428Y-35608438D02*
X20523571Y-35560819D01*
X20523571Y-35560819D02*
X20428333Y-35560819D01*
X20428333Y-35560819D02*
X20285476Y-35608438D01*
X20285476Y-35608438D02*
X20237857Y-35656057D01*
X19904523Y-35560819D02*
X19285476Y-35560819D01*
X19285476Y-35560819D02*
X19618809Y-35941771D01*
X19618809Y-35941771D02*
X19475952Y-35941771D01*
X19475952Y-35941771D02*
X19380714Y-35989390D01*
X19380714Y-35989390D02*
X19333095Y-36037009D01*
X19333095Y-36037009D02*
X19285476Y-36132247D01*
X19285476Y-36132247D02*
X19285476Y-36370342D01*
X19285476Y-36370342D02*
X19333095Y-36465580D01*
X19333095Y-36465580D02*
X19380714Y-36513200D01*
X19380714Y-36513200D02*
X19475952Y-36560819D01*
X19475952Y-36560819D02*
X19761666Y-36560819D01*
X19761666Y-36560819D02*
X19856904Y-36513200D01*
X19856904Y-36513200D02*
X19904523Y-36465580D01*
X18333095Y-36560819D02*
X18904523Y-36560819D01*
X18618809Y-36560819D02*
X18618809Y-35560819D01*
X18618809Y-35560819D02*
X18714047Y-35703676D01*
X18714047Y-35703676D02*
X18809285Y-35798914D01*
X18809285Y-35798914D02*
X18904523Y-35846533D01*
X20364857Y-40370819D02*
X20698190Y-39894628D01*
X20936285Y-40370819D02*
X20936285Y-39370819D01*
X20936285Y-39370819D02*
X20555333Y-39370819D01*
X20555333Y-39370819D02*
X20460095Y-39418438D01*
X20460095Y-39418438D02*
X20412476Y-39466057D01*
X20412476Y-39466057D02*
X20364857Y-39561295D01*
X20364857Y-39561295D02*
X20364857Y-39704152D01*
X20364857Y-39704152D02*
X20412476Y-39799390D01*
X20412476Y-39799390D02*
X20460095Y-39847009D01*
X20460095Y-39847009D02*
X20555333Y-39894628D01*
X20555333Y-39894628D02*
X20936285Y-39894628D01*
X19412476Y-40370819D02*
X19983904Y-40370819D01*
X19698190Y-40370819D02*
X19698190Y-39370819D01*
X19698190Y-39370819D02*
X19793428Y-39513676D01*
X19793428Y-39513676D02*
X19888666Y-39608914D01*
X19888666Y-39608914D02*
X19983904Y-39656533D01*
X18507714Y-39370819D02*
X18983904Y-39370819D01*
X18983904Y-39370819D02*
X19031523Y-39847009D01*
X19031523Y-39847009D02*
X18983904Y-39799390D01*
X18983904Y-39799390D02*
X18888666Y-39751771D01*
X18888666Y-39751771D02*
X18650571Y-39751771D01*
X18650571Y-39751771D02*
X18555333Y-39799390D01*
X18555333Y-39799390D02*
X18507714Y-39847009D01*
X18507714Y-39847009D02*
X18460095Y-39942247D01*
X18460095Y-39942247D02*
X18460095Y-40180342D01*
X18460095Y-40180342D02*
X18507714Y-40275580D01*
X18507714Y-40275580D02*
X18555333Y-40323200D01*
X18555333Y-40323200D02*
X18650571Y-40370819D01*
X18650571Y-40370819D02*
X18888666Y-40370819D01*
X18888666Y-40370819D02*
X18983904Y-40323200D01*
X18983904Y-40323200D02*
X19031523Y-40275580D01*
X23285857Y-28845580D02*
X23333476Y-28893200D01*
X23333476Y-28893200D02*
X23476333Y-28940819D01*
X23476333Y-28940819D02*
X23571571Y-28940819D01*
X23571571Y-28940819D02*
X23714428Y-28893200D01*
X23714428Y-28893200D02*
X23809666Y-28797961D01*
X23809666Y-28797961D02*
X23857285Y-28702723D01*
X23857285Y-28702723D02*
X23904904Y-28512247D01*
X23904904Y-28512247D02*
X23904904Y-28369390D01*
X23904904Y-28369390D02*
X23857285Y-28178914D01*
X23857285Y-28178914D02*
X23809666Y-28083676D01*
X23809666Y-28083676D02*
X23714428Y-27988438D01*
X23714428Y-27988438D02*
X23571571Y-27940819D01*
X23571571Y-27940819D02*
X23476333Y-27940819D01*
X23476333Y-27940819D02*
X23333476Y-27988438D01*
X23333476Y-27988438D02*
X23285857Y-28036057D01*
X22952523Y-27940819D02*
X22333476Y-27940819D01*
X22333476Y-27940819D02*
X22666809Y-28321771D01*
X22666809Y-28321771D02*
X22523952Y-28321771D01*
X22523952Y-28321771D02*
X22428714Y-28369390D01*
X22428714Y-28369390D02*
X22381095Y-28417009D01*
X22381095Y-28417009D02*
X22333476Y-28512247D01*
X22333476Y-28512247D02*
X22333476Y-28750342D01*
X22333476Y-28750342D02*
X22381095Y-28845580D01*
X22381095Y-28845580D02*
X22428714Y-28893200D01*
X22428714Y-28893200D02*
X22523952Y-28940819D01*
X22523952Y-28940819D02*
X22809666Y-28940819D01*
X22809666Y-28940819D02*
X22904904Y-28893200D01*
X22904904Y-28893200D02*
X22952523Y-28845580D01*
X21714428Y-27940819D02*
X21619190Y-27940819D01*
X21619190Y-27940819D02*
X21523952Y-27988438D01*
X21523952Y-27988438D02*
X21476333Y-28036057D01*
X21476333Y-28036057D02*
X21428714Y-28131295D01*
X21428714Y-28131295D02*
X21381095Y-28321771D01*
X21381095Y-28321771D02*
X21381095Y-28559866D01*
X21381095Y-28559866D02*
X21428714Y-28750342D01*
X21428714Y-28750342D02*
X21476333Y-28845580D01*
X21476333Y-28845580D02*
X21523952Y-28893200D01*
X21523952Y-28893200D02*
X21619190Y-28940819D01*
X21619190Y-28940819D02*
X21714428Y-28940819D01*
X21714428Y-28940819D02*
X21809666Y-28893200D01*
X21809666Y-28893200D02*
X21857285Y-28845580D01*
X21857285Y-28845580D02*
X21904904Y-28750342D01*
X21904904Y-28750342D02*
X21952523Y-28559866D01*
X21952523Y-28559866D02*
X21952523Y-28321771D01*
X21952523Y-28321771D02*
X21904904Y-28131295D01*
X21904904Y-28131295D02*
X21857285Y-28036057D01*
X21857285Y-28036057D02*
X21809666Y-27988438D01*
X21809666Y-27988438D02*
X21714428Y-27940819D01*
X20923094Y-44158819D02*
X20923094Y-44968342D01*
X20923094Y-44968342D02*
X20875475Y-45063580D01*
X20875475Y-45063580D02*
X20827856Y-45111200D01*
X20827856Y-45111200D02*
X20732618Y-45158819D01*
X20732618Y-45158819D02*
X20542142Y-45158819D01*
X20542142Y-45158819D02*
X20446904Y-45111200D01*
X20446904Y-45111200D02*
X20399285Y-45063580D01*
X20399285Y-45063580D02*
X20351666Y-44968342D01*
X20351666Y-44968342D02*
X20351666Y-44158819D01*
X19923094Y-44254057D02*
X19875475Y-44206438D01*
X19875475Y-44206438D02*
X19780237Y-44158819D01*
X19780237Y-44158819D02*
X19542142Y-44158819D01*
X19542142Y-44158819D02*
X19446904Y-44206438D01*
X19446904Y-44206438D02*
X19399285Y-44254057D01*
X19399285Y-44254057D02*
X19351666Y-44349295D01*
X19351666Y-44349295D02*
X19351666Y-44444533D01*
X19351666Y-44444533D02*
X19399285Y-44587390D01*
X19399285Y-44587390D02*
X19970713Y-45158819D01*
X19970713Y-45158819D02*
X19351666Y-45158819D01*
X18494523Y-44492152D02*
X18494523Y-45158819D01*
X18732618Y-44111200D02*
X18970713Y-44825485D01*
X18970713Y-44825485D02*
X18351666Y-44825485D01*
X19606820Y-32172496D02*
X20416343Y-32172496D01*
X20416343Y-32172496D02*
X20511581Y-32220115D01*
X20511581Y-32220115D02*
X20559201Y-32267734D01*
X20559201Y-32267734D02*
X20606820Y-32362972D01*
X20606820Y-32362972D02*
X20606820Y-32553448D01*
X20606820Y-32553448D02*
X20559201Y-32648686D01*
X20559201Y-32648686D02*
X20511581Y-32696305D01*
X20511581Y-32696305D02*
X20416343Y-32743924D01*
X20416343Y-32743924D02*
X19606820Y-32743924D01*
X20035391Y-33362972D02*
X19987772Y-33267734D01*
X19987772Y-33267734D02*
X19940153Y-33220115D01*
X19940153Y-33220115D02*
X19844915Y-33172496D01*
X19844915Y-33172496D02*
X19797296Y-33172496D01*
X19797296Y-33172496D02*
X19702058Y-33220115D01*
X19702058Y-33220115D02*
X19654439Y-33267734D01*
X19654439Y-33267734D02*
X19606820Y-33362972D01*
X19606820Y-33362972D02*
X19606820Y-33553448D01*
X19606820Y-33553448D02*
X19654439Y-33648686D01*
X19654439Y-33648686D02*
X19702058Y-33696305D01*
X19702058Y-33696305D02*
X19797296Y-33743924D01*
X19797296Y-33743924D02*
X19844915Y-33743924D01*
X19844915Y-33743924D02*
X19940153Y-33696305D01*
X19940153Y-33696305D02*
X19987772Y-33648686D01*
X19987772Y-33648686D02*
X20035391Y-33553448D01*
X20035391Y-33553448D02*
X20035391Y-33362972D01*
X20035391Y-33362972D02*
X20083010Y-33267734D01*
X20083010Y-33267734D02*
X20130629Y-33220115D01*
X20130629Y-33220115D02*
X20225867Y-33172496D01*
X20225867Y-33172496D02*
X20416343Y-33172496D01*
X20416343Y-33172496D02*
X20511581Y-33220115D01*
X20511581Y-33220115D02*
X20559201Y-33267734D01*
X20559201Y-33267734D02*
X20606820Y-33362972D01*
X20606820Y-33362972D02*
X20606820Y-33553448D01*
X20606820Y-33553448D02*
X20559201Y-33648686D01*
X20559201Y-33648686D02*
X20511581Y-33696305D01*
X20511581Y-33696305D02*
X20416343Y-33743924D01*
X20416343Y-33743924D02*
X20225867Y-33743924D01*
X20225867Y-33743924D02*
X20130629Y-33696305D01*
X20130629Y-33696305D02*
X20083010Y-33648686D01*
X20083010Y-33648686D02*
X20035391Y-33553448D01*
D11*
%TO.C,U17*%
X47753000Y-46266000D02*
X47753000Y-47066000D01*
X47753000Y-46266000D02*
X47753000Y-45466000D01*
X50873000Y-46266000D02*
X50873000Y-48066000D01*
X50873000Y-46266000D02*
X50873000Y-45466000D01*
%TO.C,R13*%
X26088742Y-39393500D02*
X26563258Y-39393500D01*
X26088742Y-40438500D02*
X26563258Y-40438500D01*
%TO.C,R4*%
X45613258Y-38533500D02*
X45138742Y-38533500D01*
X45613258Y-37488500D02*
X45138742Y-37488500D01*
%TO.C,C21*%
X30543580Y-49951000D02*
X30262420Y-49951000D01*
X30543580Y-48931000D02*
X30262420Y-48931000D01*
%TO.C,R12*%
X30373258Y-38533500D02*
X29898742Y-38533500D01*
X30373258Y-37488500D02*
X29898742Y-37488500D01*
%TO.C,R6*%
X41803258Y-38533500D02*
X41328742Y-38533500D01*
X41803258Y-37488500D02*
X41328742Y-37488500D01*
%TO.C,C32*%
X22796580Y-43474000D02*
X22515420Y-43474000D01*
X22796580Y-42454000D02*
X22515420Y-42454000D01*
%TO.C,C27*%
X26466580Y-36616000D02*
X26185420Y-36616000D01*
X26466580Y-35596000D02*
X26185420Y-35596000D01*
%TO.C,U22*%
X28703000Y-46266000D02*
X28703000Y-47066000D01*
X28703000Y-46266000D02*
X28703000Y-45466000D01*
X31823000Y-46266000D02*
X31823000Y-48066000D01*
X31823000Y-46266000D02*
X31823000Y-45466000D01*
%TO.C,C7*%
X45516580Y-36616000D02*
X45235420Y-36616000D01*
X45516580Y-35596000D02*
X45235420Y-35596000D01*
%TO.C,U1*%
X50793599Y-32943999D02*
X50793599Y-32143999D01*
X50793599Y-32943999D02*
X50793599Y-33743999D01*
X47673599Y-32943999D02*
X47673599Y-31143999D01*
X47673599Y-32943999D02*
X47673599Y-33743999D01*
%TO.C,U2*%
X46987000Y-32931000D02*
X46987000Y-32131000D01*
X46987000Y-32931000D02*
X46987000Y-33731000D01*
X43867000Y-32931000D02*
X43867000Y-31131000D01*
X43867000Y-32931000D02*
X43867000Y-33731000D01*
%TO.C,C6*%
X44741220Y-29373000D02*
X45022380Y-29373000D01*
X44741220Y-30393000D02*
X45022380Y-30393000D01*
%TO.C,C22*%
X29995420Y-29373000D02*
X30276580Y-29373000D01*
X29995420Y-30393000D02*
X30276580Y-30393000D01*
%TO.C,C13*%
X38023580Y-49951000D02*
X37742420Y-49951000D01*
X38023580Y-48931000D02*
X37742420Y-48931000D01*
%TO.C,C24*%
X30403580Y-43474000D02*
X30122420Y-43474000D01*
X30403580Y-42454000D02*
X30122420Y-42454000D01*
%TO.C,C20*%
X34327580Y-43474000D02*
X34046420Y-43474000D01*
X34327580Y-42454000D02*
X34046420Y-42454000D01*
%TO.C,R16*%
X22753258Y-38533500D02*
X22278742Y-38533500D01*
X22753258Y-37488500D02*
X22278742Y-37488500D01*
%TO.C,U7*%
X27922001Y-32934401D02*
X27922001Y-32134401D01*
X27922001Y-32934401D02*
X27922001Y-33734401D01*
X24802001Y-32934401D02*
X24802001Y-31134401D01*
X24802001Y-32934401D02*
X24802001Y-33734401D01*
%TO.C,R9*%
X33835742Y-39393500D02*
X34310258Y-39393500D01*
X33835742Y-40438500D02*
X34310258Y-40438500D01*
%TO.C,C14*%
X37615420Y-29373000D02*
X37896580Y-29373000D01*
X37615420Y-30393000D02*
X37896580Y-30393000D01*
%TO.C,U18*%
X43943000Y-46266000D02*
X43943000Y-47066000D01*
X43943000Y-46266000D02*
X43943000Y-45466000D01*
X47063000Y-46266000D02*
X47063000Y-48066000D01*
X47063000Y-46266000D02*
X47063000Y-45466000D01*
%TO.C,U21*%
X32513000Y-46266000D02*
X32513000Y-47066000D01*
X32513000Y-46266000D02*
X32513000Y-45466000D01*
X35633000Y-46266000D02*
X35633000Y-48066000D01*
X35633000Y-46266000D02*
X35633000Y-45466000D01*
%TO.C,U3*%
X43162001Y-32934401D02*
X43162001Y-32134401D01*
X43162001Y-32934401D02*
X43162001Y-33734401D01*
X40042001Y-32934401D02*
X40042001Y-31134401D01*
X40042001Y-32934401D02*
X40042001Y-33734401D01*
%TO.C,C29*%
X20118800Y-46646220D02*
X20118800Y-46927380D01*
X19098800Y-46646220D02*
X19098800Y-46927380D01*
%TO.C,U4*%
X39352001Y-32934401D02*
X39352001Y-32134401D01*
X39352001Y-32934401D02*
X39352001Y-33734401D01*
X36232001Y-32934401D02*
X36232001Y-31134401D01*
X36232001Y-32934401D02*
X36232001Y-33734401D01*
%TO.C,R1*%
X48948742Y-39393500D02*
X49423258Y-39393500D01*
X48948742Y-40438500D02*
X49423258Y-40438500D01*
%TO.C,U6*%
X31732001Y-32931000D02*
X31732001Y-32131000D01*
X31732001Y-32931000D02*
X31732001Y-33731000D01*
X28612001Y-32931000D02*
X28612001Y-31131000D01*
X28612001Y-32931000D02*
X28612001Y-33731000D01*
%TO.C,R14*%
X26563258Y-38533500D02*
X26088742Y-38533500D01*
X26563258Y-37488500D02*
X26088742Y-37488500D01*
%TO.C,U23*%
X24893000Y-46266000D02*
X24893000Y-47066000D01*
X24893000Y-46266000D02*
X24893000Y-45466000D01*
X28013000Y-46266000D02*
X28013000Y-48066000D01*
X28013000Y-46266000D02*
X28013000Y-45466000D01*
%TO.C,C31*%
X22643580Y-36616000D02*
X22362420Y-36616000D01*
X22643580Y-35596000D02*
X22362420Y-35596000D01*
%TO.C,C9*%
X41833580Y-49951000D02*
X41552420Y-49951000D01*
X41833580Y-48931000D02*
X41552420Y-48931000D01*
%TO.C,U20*%
X36323000Y-46266000D02*
X36323000Y-47066000D01*
X36323000Y-46266000D02*
X36323000Y-45466000D01*
X39443000Y-46266000D02*
X39443000Y-48066000D01*
X39443000Y-46266000D02*
X39443000Y-45466000D01*
%TO.C,R15*%
X22278742Y-39393500D02*
X22753258Y-39393500D01*
X22278742Y-40438500D02*
X22753258Y-40438500D01*
%TO.C,R11*%
X29898742Y-39393500D02*
X30373258Y-39393500D01*
X29898742Y-40438500D02*
X30373258Y-40438500D01*
%TO.C,C28*%
X26593580Y-43474000D02*
X26312420Y-43474000D01*
X26593580Y-42454000D02*
X26312420Y-42454000D01*
%TO.C,C17*%
X34340580Y-49951000D02*
X34059420Y-49951000D01*
X34340580Y-48931000D02*
X34059420Y-48931000D01*
%TO.C,R2*%
X49423258Y-38533500D02*
X48948742Y-38533500D01*
X49423258Y-37488500D02*
X48948742Y-37488500D01*
%TO.C,C5*%
X45643580Y-49951000D02*
X45362420Y-49951000D01*
X45643580Y-48931000D02*
X45362420Y-48931000D01*
%TO.C,U19*%
X40133000Y-46266000D02*
X40133000Y-47066000D01*
X40133000Y-46266000D02*
X40133000Y-45466000D01*
X43253000Y-46266000D02*
X43253000Y-48066000D01*
X43253000Y-46266000D02*
X43253000Y-45466000D01*
%TO.C,C25*%
X26580580Y-49951000D02*
X26299420Y-49951000D01*
X26580580Y-48931000D02*
X26299420Y-48931000D01*
%TO.C,C30*%
X22502420Y-29373000D02*
X22783580Y-29373000D01*
X22502420Y-30393000D02*
X22783580Y-30393000D01*
%TO.C,C15*%
X37883580Y-36616000D02*
X37602420Y-36616000D01*
X37883580Y-35596000D02*
X37602420Y-35596000D01*
%TO.C,C18*%
X33945420Y-29373000D02*
X34226580Y-29373000D01*
X33945420Y-30393000D02*
X34226580Y-30393000D01*
%TO.C,R7*%
X37518742Y-39393500D02*
X37993258Y-39393500D01*
X37518742Y-40438500D02*
X37993258Y-40438500D01*
%TO.C,C10*%
X41109020Y-29373000D02*
X41390180Y-29373000D01*
X41109020Y-30393000D02*
X41390180Y-30393000D01*
%TO.C,C8*%
X45643580Y-43474000D02*
X45362420Y-43474000D01*
X45643580Y-42454000D02*
X45362420Y-42454000D01*
%TO.C,U5*%
X35542001Y-32927599D02*
X35542001Y-32127599D01*
X35542001Y-32927599D02*
X35542001Y-33727599D01*
X32422001Y-32927599D02*
X32422001Y-31127599D01*
X32422001Y-32927599D02*
X32422001Y-33727599D01*
%TO.C,C16*%
X38023580Y-43474000D02*
X37742420Y-43474000D01*
X38023580Y-42454000D02*
X37742420Y-42454000D01*
%TO.C,C26*%
X26185420Y-29373000D02*
X26466580Y-29373000D01*
X26185420Y-30393000D02*
X26466580Y-30393000D01*
%TO.C,U24*%
X21083000Y-46266000D02*
X21083000Y-47066000D01*
X21083000Y-46266000D02*
X21083000Y-45466000D01*
X24203000Y-46266000D02*
X24203000Y-48066000D01*
X24203000Y-46266000D02*
X24203000Y-45466000D01*
%TO.C,C1*%
X52300600Y-32219020D02*
X52300600Y-32500180D01*
X51280600Y-32219020D02*
X51280600Y-32500180D01*
%TO.C,C23*%
X30263580Y-36616000D02*
X29982420Y-36616000D01*
X30263580Y-35596000D02*
X29982420Y-35596000D01*
%TO.C,C11*%
X41693580Y-36616000D02*
X41412420Y-36616000D01*
X41693580Y-35596000D02*
X41412420Y-35596000D01*
%TO.C,R10*%
X34310258Y-38533500D02*
X33835742Y-38533500D01*
X34310258Y-37488500D02*
X33835742Y-37488500D01*
%TO.C,U8*%
X24112001Y-32934401D02*
X24112001Y-32134401D01*
X24112001Y-32934401D02*
X24112001Y-33734401D01*
X20992001Y-32934401D02*
X20992001Y-31134401D01*
X20992001Y-32934401D02*
X20992001Y-33734401D01*
%TO.C,R5*%
X41328742Y-39393500D02*
X41803258Y-39393500D01*
X41328742Y-40438500D02*
X41803258Y-40438500D01*
%TO.C,C4*%
X49419080Y-43474000D02*
X49137920Y-43474000D01*
X49419080Y-42454000D02*
X49137920Y-42454000D01*
%TO.C,R3*%
X45138742Y-39393500D02*
X45613258Y-39393500D01*
X45138742Y-40438500D02*
X45613258Y-40438500D01*
%TO.C,C19*%
X34200580Y-36616000D02*
X33919420Y-36616000D01*
X34200580Y-35596000D02*
X33919420Y-35596000D01*
%TO.C,R8*%
X37930258Y-38533500D02*
X37455742Y-38533500D01*
X37930258Y-37488500D02*
X37455742Y-37488500D01*
%TO.C,C3*%
X49440580Y-49951000D02*
X49159420Y-49951000D01*
X49440580Y-48931000D02*
X49159420Y-48931000D01*
%TO.C,C2*%
X49263580Y-36616000D02*
X48982420Y-36616000D01*
X49263580Y-35596000D02*
X48982420Y-35596000D01*
%TO.C,C12*%
X41833580Y-43474000D02*
X41552420Y-43474000D01*
X41833580Y-42454000D02*
X41552420Y-42454000D01*
%TD*%
M02*
