%TF.GenerationSoftware,KiCad,Pcbnew,7.0.10-7.0.10~ubuntu22.04.1*%
%TF.CreationDate,2024-01-03T10:10:25-05:00*%
%TF.ProjectId,readout-splitter,72656164-6f75-4742-9d73-706c69747465,rev?*%
%TF.SameCoordinates,Original*%
%TF.FileFunction,Copper,L4,Bot*%
%TF.FilePolarity,Positive*%
%FSLAX46Y46*%
G04 Gerber Fmt 4.6, Leading zero omitted, Abs format (unit mm)*
G04 Created by KiCad (PCBNEW 7.0.10-7.0.10~ubuntu22.04.1) date 2024-01-03 10:10:25*
%MOMM*%
%LPD*%
G01*
G04 APERTURE LIST*
G04 Aperture macros list*
%AMRoundRect*
0 Rectangle with rounded corners*
0 $1 Rounding radius*
0 $2 $3 $4 $5 $6 $7 $8 $9 X,Y pos of 4 corners*
0 Add a 4 corners polygon primitive as box body*
4,1,4,$2,$3,$4,$5,$6,$7,$8,$9,$2,$3,0*
0 Add four circle primitives for the rounded corners*
1,1,$1+$1,$2,$3*
1,1,$1+$1,$4,$5*
1,1,$1+$1,$6,$7*
1,1,$1+$1,$8,$9*
0 Add four rect primitives between the rounded corners*
20,1,$1+$1,$2,$3,$4,$5,0*
20,1,$1+$1,$4,$5,$6,$7,0*
20,1,$1+$1,$6,$7,$8,$9,0*
20,1,$1+$1,$8,$9,$2,$3,0*%
G04 Aperture macros list end*
%TA.AperFunction,ComponentPad*%
%ADD10R,1.000000X1.000000*%
%TD*%
%TA.AperFunction,SMDPad,CuDef*%
%ADD11RoundRect,0.150000X0.150000X-0.512500X0.150000X0.512500X-0.150000X0.512500X-0.150000X-0.512500X0*%
%TD*%
%TA.AperFunction,SMDPad,CuDef*%
%ADD12RoundRect,0.200000X-0.200000X-0.275000X0.200000X-0.275000X0.200000X0.275000X-0.200000X0.275000X0*%
%TD*%
%TA.AperFunction,SMDPad,CuDef*%
%ADD13RoundRect,0.200000X0.200000X0.275000X-0.200000X0.275000X-0.200000X-0.275000X0.200000X-0.275000X0*%
%TD*%
%TA.AperFunction,SMDPad,CuDef*%
%ADD14RoundRect,0.225000X0.225000X0.250000X-0.225000X0.250000X-0.225000X-0.250000X0.225000X-0.250000X0*%
%TD*%
%TA.AperFunction,SMDPad,CuDef*%
%ADD15RoundRect,0.150000X-0.150000X0.512500X-0.150000X-0.512500X0.150000X-0.512500X0.150000X0.512500X0*%
%TD*%
%TA.AperFunction,SMDPad,CuDef*%
%ADD16RoundRect,0.225000X-0.225000X-0.250000X0.225000X-0.250000X0.225000X0.250000X-0.225000X0.250000X0*%
%TD*%
%TA.AperFunction,SMDPad,CuDef*%
%ADD17RoundRect,0.225000X-0.250000X0.225000X-0.250000X-0.225000X0.250000X-0.225000X0.250000X0.225000X0*%
%TD*%
%TA.AperFunction,ViaPad*%
%ADD18C,0.508000*%
%TD*%
%TA.AperFunction,Conductor*%
%ADD19C,0.152400*%
%TD*%
%TA.AperFunction,Conductor*%
%ADD20C,0.200000*%
%TD*%
G04 APERTURE END LIST*
D10*
%TO.P,J3,1,Pin_1*%
%TO.N,/-20V*%
X35597000Y-52997000D03*
%TD*%
%TO.P,J1,1,Pin_1*%
%TO.N,/+6.5V*%
X29247000Y-52997000D03*
%TD*%
%TO.P,J2,1,Pin_1*%
%TO.N,GND*%
X32422000Y-52997000D03*
%TD*%
D11*
%TO.P,U17,1,VIN*%
%TO.N,/+6.5V*%
X50263000Y-47403500D03*
%TO.P,U17,2,GND*%
%TO.N,GND*%
X49313000Y-47403500D03*
%TO.P,U17,3,EN*%
%TO.N,/+6.5V*%
X48363000Y-47403500D03*
%TO.P,U17,4,SENSE/ADJ*%
%TO.N,/VP_0*%
X48363000Y-45128500D03*
%TO.P,U17,5,VOUT*%
X50263000Y-45128500D03*
%TD*%
D12*
%TO.P,R13,1*%
%TO.N,GND*%
X25501000Y-39916000D03*
%TO.P,R13,2*%
%TO.N,Net-(U7-ADJ)*%
X27151000Y-39916000D03*
%TD*%
D13*
%TO.P,R4,1*%
%TO.N,Net-(U2-ADJ)*%
X46201000Y-38011000D03*
%TO.P,R4,2*%
%TO.N,/VN_1*%
X44551000Y-38011000D03*
%TD*%
D14*
%TO.P,C21,1*%
%TO.N,/+6.5V*%
X31178000Y-49441000D03*
%TO.P,C21,2*%
%TO.N,GND*%
X29628000Y-49441000D03*
%TD*%
D13*
%TO.P,R12,1*%
%TO.N,Net-(U6-ADJ)*%
X30961000Y-38011000D03*
%TO.P,R12,2*%
%TO.N,/VN_5*%
X29311000Y-38011000D03*
%TD*%
%TO.P,R6,1*%
%TO.N,Net-(U3-ADJ)*%
X42391000Y-38011000D03*
%TO.P,R6,2*%
%TO.N,/VN_2*%
X40741000Y-38011000D03*
%TD*%
D14*
%TO.P,C32,1*%
%TO.N,/VP_7*%
X23431000Y-42964000D03*
%TO.P,C32,2*%
%TO.N,GND*%
X21881000Y-42964000D03*
%TD*%
%TO.P,C27,1*%
%TO.N,GND*%
X27101000Y-36106000D03*
%TO.P,C27,2*%
%TO.N,/VN_6*%
X25551000Y-36106000D03*
%TD*%
D11*
%TO.P,U22,1,VIN*%
%TO.N,/+6.5V*%
X31213000Y-47403500D03*
%TO.P,U22,2,GND*%
%TO.N,GND*%
X30263000Y-47403500D03*
%TO.P,U22,3,EN*%
%TO.N,/+6.5V*%
X29313000Y-47403500D03*
%TO.P,U22,4,SENSE/ADJ*%
%TO.N,/VP_5*%
X29313000Y-45128500D03*
%TO.P,U22,5,VOUT*%
X31213000Y-45128500D03*
%TD*%
D14*
%TO.P,C7,1*%
%TO.N,GND*%
X46151000Y-36106000D03*
%TO.P,C7,2*%
%TO.N,/VN_1*%
X44601000Y-36106000D03*
%TD*%
D15*
%TO.P,U1,1,GND*%
%TO.N,GND*%
X48283599Y-31806499D03*
%TO.P,U1,2,VIN*%
%TO.N,/-20V*%
X49233599Y-31806499D03*
%TO.P,U1,3,EN*%
X50183599Y-31806499D03*
%TO.P,U1,4,ADJ*%
%TO.N,Net-(U1-ADJ)*%
X50183599Y-34081499D03*
%TO.P,U1,5,VOUT*%
%TO.N,/VN_0*%
X48283599Y-34081499D03*
%TD*%
%TO.P,U2,1,GND*%
%TO.N,GND*%
X44477000Y-31793500D03*
%TO.P,U2,2,VIN*%
%TO.N,/-20V*%
X45427000Y-31793500D03*
%TO.P,U2,3,EN*%
X46377000Y-31793500D03*
%TO.P,U2,4,ADJ*%
%TO.N,Net-(U2-ADJ)*%
X46377000Y-34068500D03*
%TO.P,U2,5,VOUT*%
%TO.N,/VN_1*%
X44477000Y-34068500D03*
%TD*%
D16*
%TO.P,C6,1*%
%TO.N,GND*%
X44106800Y-29883000D03*
%TO.P,C6,2*%
%TO.N,/-20V*%
X45656800Y-29883000D03*
%TD*%
%TO.P,C22,1*%
%TO.N,GND*%
X29361000Y-29883000D03*
%TO.P,C22,2*%
%TO.N,/-20V*%
X30911000Y-29883000D03*
%TD*%
D14*
%TO.P,C13,1*%
%TO.N,/+6.5V*%
X38658000Y-49441000D03*
%TO.P,C13,2*%
%TO.N,GND*%
X37108000Y-49441000D03*
%TD*%
%TO.P,C24,1*%
%TO.N,/VP_5*%
X31038000Y-42964000D03*
%TO.P,C24,2*%
%TO.N,GND*%
X29488000Y-42964000D03*
%TD*%
%TO.P,C20,1*%
%TO.N,/VP_4*%
X34962000Y-42964000D03*
%TO.P,C20,2*%
%TO.N,GND*%
X33412000Y-42964000D03*
%TD*%
D13*
%TO.P,R16,1*%
%TO.N,Net-(U8-ADJ)*%
X23341000Y-38011000D03*
%TO.P,R16,2*%
%TO.N,/VN_7*%
X21691000Y-38011000D03*
%TD*%
D15*
%TO.P,U7,1,GND*%
%TO.N,GND*%
X25412001Y-31796901D03*
%TO.P,U7,2,VIN*%
%TO.N,/-20V*%
X26362001Y-31796901D03*
%TO.P,U7,3,EN*%
X27312001Y-31796901D03*
%TO.P,U7,4,ADJ*%
%TO.N,Net-(U7-ADJ)*%
X27312001Y-34071901D03*
%TO.P,U7,5,VOUT*%
%TO.N,/VN_6*%
X25412001Y-34071901D03*
%TD*%
D12*
%TO.P,R9,1*%
%TO.N,GND*%
X33248000Y-39916000D03*
%TO.P,R9,2*%
%TO.N,Net-(U5-ADJ)*%
X34898000Y-39916000D03*
%TD*%
D16*
%TO.P,C14,1*%
%TO.N,GND*%
X36981000Y-29883000D03*
%TO.P,C14,2*%
%TO.N,/-20V*%
X38531000Y-29883000D03*
%TD*%
D11*
%TO.P,U18,1,VIN*%
%TO.N,/+6.5V*%
X46453000Y-47403500D03*
%TO.P,U18,2,GND*%
%TO.N,GND*%
X45503000Y-47403500D03*
%TO.P,U18,3,EN*%
%TO.N,/+6.5V*%
X44553000Y-47403500D03*
%TO.P,U18,4,SENSE/ADJ*%
%TO.N,/VP_1*%
X44553000Y-45128500D03*
%TO.P,U18,5,VOUT*%
X46453000Y-45128500D03*
%TD*%
%TO.P,U21,1,VIN*%
%TO.N,/+6.5V*%
X35023000Y-47403500D03*
%TO.P,U21,2,GND*%
%TO.N,GND*%
X34073000Y-47403500D03*
%TO.P,U21,3,EN*%
%TO.N,/+6.5V*%
X33123000Y-47403500D03*
%TO.P,U21,4,SENSE/ADJ*%
%TO.N,/VP_4*%
X33123000Y-45128500D03*
%TO.P,U21,5,VOUT*%
X35023000Y-45128500D03*
%TD*%
D15*
%TO.P,U3,1,GND*%
%TO.N,GND*%
X40652001Y-31796901D03*
%TO.P,U3,2,VIN*%
%TO.N,/-20V*%
X41602001Y-31796901D03*
%TO.P,U3,3,EN*%
X42552001Y-31796901D03*
%TO.P,U3,4,ADJ*%
%TO.N,Net-(U3-ADJ)*%
X42552001Y-34071901D03*
%TO.P,U3,5,VOUT*%
%TO.N,/VN_2*%
X40652001Y-34071901D03*
%TD*%
D17*
%TO.P,C29,1*%
%TO.N,/+6.5V*%
X19608800Y-46011800D03*
%TO.P,C29,2*%
%TO.N,GND*%
X19608800Y-47561800D03*
%TD*%
D15*
%TO.P,U4,1,GND*%
%TO.N,GND*%
X36842001Y-31796901D03*
%TO.P,U4,2,VIN*%
%TO.N,/-20V*%
X37792001Y-31796901D03*
%TO.P,U4,3,EN*%
X38742001Y-31796901D03*
%TO.P,U4,4,ADJ*%
%TO.N,Net-(U4-ADJ)*%
X38742001Y-34071901D03*
%TO.P,U4,5,VOUT*%
%TO.N,/VN_3*%
X36842001Y-34071901D03*
%TD*%
D12*
%TO.P,R1,1*%
%TO.N,GND*%
X48361000Y-39916000D03*
%TO.P,R1,2*%
%TO.N,Net-(U1-ADJ)*%
X50011000Y-39916000D03*
%TD*%
D15*
%TO.P,U6,1,GND*%
%TO.N,GND*%
X29222001Y-31793500D03*
%TO.P,U6,2,VIN*%
%TO.N,/-20V*%
X30172001Y-31793500D03*
%TO.P,U6,3,EN*%
X31122001Y-31793500D03*
%TO.P,U6,4,ADJ*%
%TO.N,Net-(U6-ADJ)*%
X31122001Y-34068500D03*
%TO.P,U6,5,VOUT*%
%TO.N,/VN_5*%
X29222001Y-34068500D03*
%TD*%
D13*
%TO.P,R14,1*%
%TO.N,Net-(U7-ADJ)*%
X27151000Y-38011000D03*
%TO.P,R14,2*%
%TO.N,/VN_6*%
X25501000Y-38011000D03*
%TD*%
D11*
%TO.P,U23,1,VIN*%
%TO.N,/+6.5V*%
X27403000Y-47403500D03*
%TO.P,U23,2,GND*%
%TO.N,GND*%
X26453000Y-47403500D03*
%TO.P,U23,3,EN*%
%TO.N,/+6.5V*%
X25503000Y-47403500D03*
%TO.P,U23,4,SENSE/ADJ*%
%TO.N,/VP_6*%
X25503000Y-45128500D03*
%TO.P,U23,5,VOUT*%
X27403000Y-45128500D03*
%TD*%
D14*
%TO.P,C31,1*%
%TO.N,GND*%
X23278000Y-36106000D03*
%TO.P,C31,2*%
%TO.N,/VN_7*%
X21728000Y-36106000D03*
%TD*%
%TO.P,C9,1*%
%TO.N,/+6.5V*%
X42468000Y-49441000D03*
%TO.P,C9,2*%
%TO.N,GND*%
X40918000Y-49441000D03*
%TD*%
D11*
%TO.P,U20,1,VIN*%
%TO.N,/+6.5V*%
X38833000Y-47403500D03*
%TO.P,U20,2,GND*%
%TO.N,GND*%
X37883000Y-47403500D03*
%TO.P,U20,3,EN*%
%TO.N,/+6.5V*%
X36933000Y-47403500D03*
%TO.P,U20,4,SENSE/ADJ*%
%TO.N,/VP_3*%
X36933000Y-45128500D03*
%TO.P,U20,5,VOUT*%
X38833000Y-45128500D03*
%TD*%
D12*
%TO.P,R15,1*%
%TO.N,GND*%
X21691000Y-39916000D03*
%TO.P,R15,2*%
%TO.N,Net-(U8-ADJ)*%
X23341000Y-39916000D03*
%TD*%
%TO.P,R11,1*%
%TO.N,GND*%
X29311000Y-39916000D03*
%TO.P,R11,2*%
%TO.N,Net-(U6-ADJ)*%
X30961000Y-39916000D03*
%TD*%
D14*
%TO.P,C28,1*%
%TO.N,/VP_6*%
X27228000Y-42964000D03*
%TO.P,C28,2*%
%TO.N,GND*%
X25678000Y-42964000D03*
%TD*%
%TO.P,C17,1*%
%TO.N,/+6.5V*%
X34975000Y-49441000D03*
%TO.P,C17,2*%
%TO.N,GND*%
X33425000Y-49441000D03*
%TD*%
D13*
%TO.P,R2,1*%
%TO.N,Net-(U1-ADJ)*%
X50011000Y-38011000D03*
%TO.P,R2,2*%
%TO.N,/VN_0*%
X48361000Y-38011000D03*
%TD*%
D14*
%TO.P,C5,1*%
%TO.N,/+6.5V*%
X46278000Y-49441000D03*
%TO.P,C5,2*%
%TO.N,GND*%
X44728000Y-49441000D03*
%TD*%
D11*
%TO.P,U19,1,VIN*%
%TO.N,/+6.5V*%
X42643000Y-47403500D03*
%TO.P,U19,2,GND*%
%TO.N,GND*%
X41693000Y-47403500D03*
%TO.P,U19,3,EN*%
%TO.N,/+6.5V*%
X40743000Y-47403500D03*
%TO.P,U19,4,SENSE/ADJ*%
%TO.N,/VP_2*%
X40743000Y-45128500D03*
%TO.P,U19,5,VOUT*%
X42643000Y-45128500D03*
%TD*%
D14*
%TO.P,C25,1*%
%TO.N,/+6.5V*%
X27215000Y-49441000D03*
%TO.P,C25,2*%
%TO.N,GND*%
X25665000Y-49441000D03*
%TD*%
D16*
%TO.P,C30,1*%
%TO.N,GND*%
X21868000Y-29883000D03*
%TO.P,C30,2*%
%TO.N,/-20V*%
X23418000Y-29883000D03*
%TD*%
D14*
%TO.P,C15,1*%
%TO.N,GND*%
X38518000Y-36106000D03*
%TO.P,C15,2*%
%TO.N,/VN_3*%
X36968000Y-36106000D03*
%TD*%
D16*
%TO.P,C18,1*%
%TO.N,GND*%
X33311000Y-29883000D03*
%TO.P,C18,2*%
%TO.N,/-20V*%
X34861000Y-29883000D03*
%TD*%
D12*
%TO.P,R7,1*%
%TO.N,GND*%
X36931000Y-39916000D03*
%TO.P,R7,2*%
%TO.N,Net-(U4-ADJ)*%
X38581000Y-39916000D03*
%TD*%
D16*
%TO.P,C10,1*%
%TO.N,GND*%
X40474600Y-29883000D03*
%TO.P,C10,2*%
%TO.N,/-20V*%
X42024600Y-29883000D03*
%TD*%
D14*
%TO.P,C8,1*%
%TO.N,/VP_1*%
X46278000Y-42964000D03*
%TO.P,C8,2*%
%TO.N,GND*%
X44728000Y-42964000D03*
%TD*%
D15*
%TO.P,U5,1,GND*%
%TO.N,GND*%
X33032001Y-31790099D03*
%TO.P,U5,2,VIN*%
%TO.N,/-20V*%
X33982001Y-31790099D03*
%TO.P,U5,3,EN*%
X34932001Y-31790099D03*
%TO.P,U5,4,ADJ*%
%TO.N,Net-(U5-ADJ)*%
X34932001Y-34065099D03*
%TO.P,U5,5,VOUT*%
%TO.N,/VN_4*%
X33032001Y-34065099D03*
%TD*%
D14*
%TO.P,C16,1*%
%TO.N,/VP_3*%
X38658000Y-42964000D03*
%TO.P,C16,2*%
%TO.N,GND*%
X37108000Y-42964000D03*
%TD*%
D16*
%TO.P,C26,1*%
%TO.N,GND*%
X25551000Y-29883000D03*
%TO.P,C26,2*%
%TO.N,/-20V*%
X27101000Y-29883000D03*
%TD*%
D11*
%TO.P,U24,1,VIN*%
%TO.N,/+6.5V*%
X23593000Y-47403500D03*
%TO.P,U24,2,GND*%
%TO.N,GND*%
X22643000Y-47403500D03*
%TO.P,U24,3,EN*%
%TO.N,/+6.5V*%
X21693000Y-47403500D03*
%TO.P,U24,4,SENSE/ADJ*%
%TO.N,/VP_7*%
X21693000Y-45128500D03*
%TO.P,U24,5,VOUT*%
X23593000Y-45128500D03*
%TD*%
D17*
%TO.P,C1,1*%
%TO.N,GND*%
X51790600Y-31584600D03*
%TO.P,C1,2*%
%TO.N,/-20V*%
X51790600Y-33134600D03*
%TD*%
D14*
%TO.P,C23,1*%
%TO.N,GND*%
X30898000Y-36106000D03*
%TO.P,C23,2*%
%TO.N,/VN_5*%
X29348000Y-36106000D03*
%TD*%
%TO.P,C11,1*%
%TO.N,GND*%
X42328000Y-36106000D03*
%TO.P,C11,2*%
%TO.N,/VN_2*%
X40778000Y-36106000D03*
%TD*%
D13*
%TO.P,R10,1*%
%TO.N,Net-(U5-ADJ)*%
X34898000Y-38011000D03*
%TO.P,R10,2*%
%TO.N,/VN_4*%
X33248000Y-38011000D03*
%TD*%
D15*
%TO.P,U8,1,GND*%
%TO.N,GND*%
X21602001Y-31796901D03*
%TO.P,U8,2,VIN*%
%TO.N,/-20V*%
X22552001Y-31796901D03*
%TO.P,U8,3,EN*%
X23502001Y-31796901D03*
%TO.P,U8,4,ADJ*%
%TO.N,Net-(U8-ADJ)*%
X23502001Y-34071901D03*
%TO.P,U8,5,VOUT*%
%TO.N,/VN_7*%
X21602001Y-34071901D03*
%TD*%
D12*
%TO.P,R5,1*%
%TO.N,GND*%
X40741000Y-39916000D03*
%TO.P,R5,2*%
%TO.N,Net-(U3-ADJ)*%
X42391000Y-39916000D03*
%TD*%
D14*
%TO.P,C4,1*%
%TO.N,/VP_0*%
X50053500Y-42964000D03*
%TO.P,C4,2*%
%TO.N,GND*%
X48503500Y-42964000D03*
%TD*%
D12*
%TO.P,R3,1*%
%TO.N,GND*%
X44551000Y-39916000D03*
%TO.P,R3,2*%
%TO.N,Net-(U2-ADJ)*%
X46201000Y-39916000D03*
%TD*%
D14*
%TO.P,C19,1*%
%TO.N,GND*%
X34835000Y-36106000D03*
%TO.P,C19,2*%
%TO.N,/VN_4*%
X33285000Y-36106000D03*
%TD*%
D13*
%TO.P,R8,1*%
%TO.N,Net-(U4-ADJ)*%
X38518000Y-38011000D03*
%TO.P,R8,2*%
%TO.N,/VN_3*%
X36868000Y-38011000D03*
%TD*%
D14*
%TO.P,C3,1*%
%TO.N,/+6.5V*%
X50075000Y-49441000D03*
%TO.P,C3,2*%
%TO.N,GND*%
X48525000Y-49441000D03*
%TD*%
%TO.P,C2,1*%
%TO.N,GND*%
X49898000Y-36106000D03*
%TO.P,C2,2*%
%TO.N,/VN_0*%
X48348000Y-36106000D03*
%TD*%
%TO.P,C12,1*%
%TO.N,/VP_2*%
X42468000Y-42964000D03*
%TO.P,C12,2*%
%TO.N,GND*%
X40918000Y-42964000D03*
%TD*%
D18*
%TO.N,/+6.5V*%
X32930000Y-48425000D03*
X46265000Y-48552000D03*
X35851000Y-34582000D03*
X27215000Y-48552000D03*
X43598000Y-35090000D03*
X29120000Y-48552000D03*
X41198953Y-34977756D03*
X31152000Y-48552000D03*
X50075000Y-48552000D03*
X28358000Y-34963000D03*
X36740000Y-48552000D03*
X38137000Y-34963000D03*
X30009000Y-34582000D03*
X44360000Y-48552000D03*
X48170000Y-48425000D03*
X40550000Y-48552000D03*
X32343011Y-34717341D03*
X25310000Y-48552000D03*
X34962000Y-48552000D03*
X23571200Y-46304200D03*
X21373000Y-48552000D03*
X45582000Y-35042000D03*
X38645000Y-48552000D03*
X23532000Y-48552000D03*
X42455000Y-48552000D03*
%TO.N,/-20V*%
X38531000Y-30772000D03*
X23418000Y-30772000D03*
X27101000Y-30772000D03*
X46215000Y-30772000D03*
X29755000Y-39027000D03*
X43344000Y-38773000D03*
X32661949Y-38756167D03*
X34861000Y-30772000D03*
X31122001Y-30674999D03*
X50025000Y-30772000D03*
X28472211Y-38918420D03*
X45376000Y-38773000D03*
X35923974Y-38655533D03*
X42468000Y-30772000D03*
X40296000Y-39027000D03*
X37725990Y-38803788D03*
%TO.N,/VN_0*%
X49186000Y-40805000D03*
%TO.N,/VP_0*%
X47133900Y-42736153D03*
%TO.N,/VP_1*%
X41922513Y-45327379D03*
%TO.N,/VN_1*%
X43725000Y-41059000D03*
%TO.N,/VP_2*%
X39538900Y-45310898D03*
%TO.N,/VN_2*%
X41312000Y-40805000D03*
%TO.N,/VP_3*%
X36933000Y-45128500D03*
%TO.N,/VN_3*%
X37883000Y-40805000D03*
%TO.N,/VP_4*%
X34313076Y-45324428D03*
%TO.N,/VN_4*%
X34349998Y-41004141D03*
X36271948Y-42552077D03*
%TO.N,/VP_5*%
X31914000Y-45250000D03*
%TO.N,/VN_5*%
X32741527Y-41197363D03*
X30530151Y-40805481D03*
%TO.N,/VP_6*%
X29247000Y-43980000D03*
%TO.N,/VN_6*%
X26453000Y-40678000D03*
X31914000Y-42456000D03*
%TO.N,/VP_7*%
X26697101Y-45250000D03*
%TO.N,/VN_7*%
X22643000Y-40805000D03*
X28285800Y-42583000D03*
%TO.N,GND*%
X49567000Y-35344000D03*
X26209188Y-42551422D03*
X51714400Y-30784800D03*
X32041000Y-31407000D03*
X34200000Y-35090000D03*
X43598000Y-39916000D03*
X33819000Y-48552000D03*
X28485000Y-41059000D03*
X25437000Y-30772000D03*
X32041000Y-48552000D03*
X46392000Y-36995000D03*
X25056000Y-39281000D03*
X39534000Y-31407000D03*
X22389000Y-48552000D03*
X45249000Y-48552000D03*
X26326000Y-48552000D03*
X48328764Y-43440236D03*
X26453000Y-34836000D03*
X21119000Y-39916000D03*
X36833070Y-40778550D03*
X29247000Y-30772000D03*
X39661000Y-48552000D03*
X42195166Y-35103534D03*
X32676000Y-39916000D03*
X30771000Y-35217000D03*
X48869600Y-33045400D03*
X36981000Y-30772000D03*
X37756000Y-48552000D03*
X40918000Y-30899000D03*
X47863397Y-39381756D03*
X49059000Y-48552000D03*
X44106000Y-42329000D03*
X44665000Y-30772000D03*
X39026000Y-35344000D03*
X29772157Y-40801866D03*
X41566000Y-42583000D03*
X23405000Y-35344000D03*
X41439000Y-48552000D03*
X30263000Y-48552000D03*
X21119000Y-42964000D03*
X24548000Y-48552000D03*
X40296000Y-40551000D03*
X33057000Y-30772000D03*
X19735800Y-48387000D03*
X21627000Y-30772000D03*
%TO.N,Net-(U1-ADJ)*%
X50011000Y-39027000D03*
%TO.N,Net-(U2-ADJ)*%
X46201000Y-39027000D03*
%TO.N,Net-(U3-ADJ)*%
X41802121Y-38990412D03*
%TO.N,Net-(U4-ADJ)*%
X38518000Y-39027000D03*
%TO.N,Net-(U5-ADJ)*%
X34199994Y-39027000D03*
%TO.N,Net-(U6-ADJ)*%
X31025000Y-39025875D03*
%TO.N,Net-(U7-ADJ)*%
X26580000Y-39027000D03*
%TO.N,Net-(U8-ADJ)*%
X22643000Y-39027000D03*
%TD*%
D19*
%TO.N,/-20V*%
X45656800Y-29883000D02*
X45656800Y-30745200D01*
X45656800Y-30745200D02*
X45630000Y-30772000D01*
%TO.N,GND*%
X44106800Y-29883000D02*
X44106800Y-30213800D01*
X44106800Y-30213800D02*
X44665000Y-30772000D01*
%TO.N,/-20V*%
X42024600Y-29883000D02*
X42024600Y-30328600D01*
X42024600Y-30328600D02*
X42468000Y-30772000D01*
%TO.N,GND*%
X40474600Y-29883000D02*
X40474600Y-30455600D01*
X40474600Y-30455600D02*
X40918000Y-30899000D01*
X44477000Y-31793500D02*
X44477000Y-30960000D01*
X44477000Y-30960000D02*
X44665000Y-30772000D01*
%TO.N,/+6.5V*%
X31152000Y-48552000D02*
X31152000Y-49415000D01*
X42468000Y-49441000D02*
X42468000Y-48565000D01*
X46278000Y-49441000D02*
X46278000Y-48565000D01*
X36933000Y-47403500D02*
X36933000Y-48359000D01*
X35023000Y-47403500D02*
X35023000Y-48491000D01*
X23593000Y-47403500D02*
X23593000Y-48491000D01*
X42643000Y-47403500D02*
X42643000Y-48364000D01*
X27403000Y-48364000D02*
X27215000Y-48552000D01*
X21254100Y-46964600D02*
X21693000Y-47403500D01*
X42468000Y-48565000D02*
X42455000Y-48552000D01*
X27403000Y-47403500D02*
X27403000Y-48364000D01*
X19608800Y-46011800D02*
X20561600Y-46964600D01*
X20561600Y-46964600D02*
X21254100Y-46964600D01*
X34962000Y-49428000D02*
X34975000Y-49441000D01*
X50263000Y-47403500D02*
X50263000Y-48364000D01*
X27215000Y-48552000D02*
X27215000Y-49441000D01*
X21693000Y-47403500D02*
X21693000Y-48232000D01*
X38833000Y-48364000D02*
X38645000Y-48552000D01*
X38658000Y-49441000D02*
X38658000Y-48565000D01*
X35023000Y-48491000D02*
X34962000Y-48552000D01*
X50263000Y-48364000D02*
X50075000Y-48552000D01*
X44553000Y-47403500D02*
X44553000Y-48359000D01*
X33123000Y-48232000D02*
X32930000Y-48425000D01*
X46278000Y-48565000D02*
X46265000Y-48552000D01*
X21693000Y-48232000D02*
X21373000Y-48552000D01*
X40743000Y-47403500D02*
X40743000Y-48359000D01*
X50075000Y-49441000D02*
X50075000Y-48552000D01*
X38833000Y-47403500D02*
X38833000Y-48364000D01*
X36933000Y-48359000D02*
X36740000Y-48552000D01*
X48363000Y-47403500D02*
X48363000Y-48232000D01*
X48363000Y-48232000D02*
X48170000Y-48425000D01*
X25503000Y-47403500D02*
X25503000Y-48359000D01*
X38658000Y-48565000D02*
X38645000Y-48552000D01*
X46453000Y-48364000D02*
X46265000Y-48552000D01*
X42643000Y-48364000D02*
X42455000Y-48552000D01*
X31152000Y-49415000D02*
X31178000Y-49441000D01*
X25503000Y-48359000D02*
X25310000Y-48552000D01*
X46453000Y-47403500D02*
X46453000Y-48364000D01*
X34962000Y-48552000D02*
X34962000Y-49428000D01*
X23593000Y-48491000D02*
X23532000Y-48552000D01*
X44553000Y-48359000D02*
X44360000Y-48552000D01*
X33123000Y-47403500D02*
X33123000Y-48232000D01*
X40743000Y-48359000D02*
X40550000Y-48552000D01*
X29313000Y-48359000D02*
X29120000Y-48552000D01*
X29313000Y-47403500D02*
X29313000Y-48359000D01*
X31213000Y-48491000D02*
X31152000Y-48552000D01*
X31213000Y-47403500D02*
X31213000Y-48491000D01*
%TO.N,/-20V*%
X22552001Y-31796901D02*
X22552001Y-30989999D01*
X49233599Y-31806499D02*
X49233599Y-30978401D01*
X33982001Y-30989999D02*
X34200000Y-30772000D01*
X22552001Y-30989999D02*
X22770000Y-30772000D01*
X41820000Y-30772000D02*
X42468000Y-30772000D01*
X37792001Y-31796901D02*
X37792001Y-30989999D01*
X42468000Y-30772000D02*
X42468000Y-31712900D01*
X38531000Y-30772000D02*
X38531000Y-31585900D01*
X41602001Y-30989999D02*
X41820000Y-30772000D01*
X31122001Y-30899000D02*
X31122001Y-31793500D01*
X45427000Y-30975000D02*
X45630000Y-30772000D01*
X26362001Y-30989999D02*
X26580000Y-30772000D01*
X46215000Y-30772000D02*
X46215000Y-31631500D01*
X27101000Y-29883000D02*
X27101000Y-30772000D01*
X38531000Y-31585900D02*
X38742001Y-31796901D01*
X34861000Y-30772000D02*
X34861000Y-31719098D01*
X23418000Y-29883000D02*
X23418000Y-30772000D01*
X31122001Y-30899000D02*
X31122001Y-30674999D01*
X30172001Y-31793500D02*
X30172001Y-31116999D01*
X30911000Y-30463998D02*
X31122001Y-30674999D01*
X22770000Y-30772000D02*
X23418000Y-30772000D01*
X34200000Y-30772000D02*
X34861000Y-30772000D01*
X23418000Y-31712900D02*
X23502001Y-31796901D01*
X45427000Y-31793500D02*
X45427000Y-30975000D01*
X45630000Y-30772000D02*
X46215000Y-30772000D01*
X49440000Y-30772000D02*
X50025000Y-30772000D01*
X51790600Y-33134600D02*
X51295600Y-33134600D01*
X46215000Y-31631500D02*
X46377000Y-31793500D01*
X49233599Y-30978401D02*
X49440000Y-30772000D01*
X27101000Y-31585900D02*
X27312001Y-31796901D01*
X33982001Y-31790099D02*
X33982001Y-30989999D01*
X50025000Y-31647900D02*
X50183599Y-31806499D01*
X41602001Y-31796901D02*
X41602001Y-30989999D01*
X37792001Y-30989999D02*
X38010000Y-30772000D01*
X30172001Y-31116999D02*
X30390000Y-30899000D01*
X34861000Y-31719098D02*
X34932001Y-31790099D01*
X51295600Y-33134600D02*
X50876200Y-32715200D01*
X30390000Y-30899000D02*
X31122001Y-30899000D01*
X50025000Y-30772000D02*
X50025000Y-31647900D01*
X26362001Y-31796901D02*
X26362001Y-30989999D01*
X50876200Y-32499100D02*
X50183599Y-31806499D01*
X34861000Y-29883000D02*
X34861000Y-30772000D01*
X42468000Y-31712900D02*
X42552001Y-31796901D01*
X26580000Y-30772000D02*
X27101000Y-30772000D01*
X23418000Y-30772000D02*
X23418000Y-31712900D01*
X30911000Y-29883000D02*
X30911000Y-30463998D01*
X27101000Y-30772000D02*
X27101000Y-31585900D01*
X38010000Y-30772000D02*
X38531000Y-30772000D01*
X50876200Y-32715200D02*
X50876200Y-32499100D01*
X38531000Y-29883000D02*
X38531000Y-30772000D01*
%TO.N,/VN_0*%
X48361000Y-38011000D02*
X49186000Y-38836000D01*
X49186000Y-38836000D02*
X49186000Y-40805000D01*
X48283599Y-37933599D02*
X48361000Y-38011000D01*
X48283599Y-34081499D02*
X48283599Y-37933599D01*
%TO.N,/VP_0*%
X50075000Y-43980000D02*
X50053500Y-43958500D01*
X47133900Y-43065900D02*
X48363000Y-44295000D01*
X50263000Y-44422000D02*
X49948000Y-44107000D01*
X48114500Y-45377000D02*
X48363000Y-45128500D01*
X48551000Y-44107000D02*
X49948000Y-44107000D01*
X50263000Y-45128500D02*
X50263000Y-44422000D01*
X48363000Y-45128500D02*
X48363000Y-44295000D01*
X49948000Y-44107000D02*
X50075000Y-43980000D01*
X50053500Y-43958500D02*
X50053500Y-42964000D01*
X48363000Y-44295000D02*
X48551000Y-44107000D01*
X47133900Y-42736153D02*
X47133900Y-43065900D01*
%TO.N,/VP_1*%
X43598000Y-46083500D02*
X44553000Y-45128500D01*
X41922513Y-45610091D02*
X42451422Y-46139000D01*
X43598000Y-46139000D02*
X43598000Y-46083500D01*
X46453000Y-43853000D02*
X46453000Y-43139000D01*
X42451422Y-46139000D02*
X43598000Y-46139000D01*
X44553000Y-45128500D02*
X44553000Y-44295000D01*
X46453000Y-45128500D02*
X46453000Y-43853000D01*
X41922513Y-45327379D02*
X41922513Y-45610091D01*
X44995000Y-43853000D02*
X46453000Y-43853000D01*
X44553000Y-44295000D02*
X44995000Y-43853000D01*
X46453000Y-43139000D02*
X46278000Y-42964000D01*
%TO.N,/VN_1*%
X44477000Y-35982000D02*
X44601000Y-36106000D01*
X44601000Y-37961000D02*
X44551000Y-38011000D01*
X45179600Y-40374074D02*
X44494674Y-41059000D01*
X44601000Y-36106000D02*
X44601000Y-37961000D01*
X44477000Y-34068500D02*
X44477000Y-35982000D01*
X44551000Y-38011000D02*
X44551000Y-38829326D01*
X45179600Y-39457926D02*
X45179600Y-40374074D01*
X44551000Y-38829326D02*
X45179600Y-39457926D01*
X44494674Y-41059000D02*
X43725000Y-41059000D01*
%TO.N,/VP_2*%
X40743000Y-44168000D02*
X40931000Y-43980000D01*
X40931000Y-43980000D02*
X42643000Y-43980000D01*
X42643000Y-43980000D02*
X42643000Y-43139000D01*
X42643000Y-43139000D02*
X42468000Y-42964000D01*
X39538900Y-45310898D02*
X40560602Y-45310898D01*
X40743000Y-45128500D02*
X40743000Y-44168000D01*
X42643000Y-45128500D02*
X42643000Y-43980000D01*
X40560602Y-45310898D02*
X40743000Y-45128500D01*
%TO.N,/VN_2*%
X40741000Y-38011000D02*
X40741000Y-38829326D01*
X40652001Y-34071901D02*
X40652001Y-35980001D01*
X40741000Y-38829326D02*
X41369600Y-39457926D01*
X41369600Y-40747400D02*
X41312000Y-40805000D01*
X40652001Y-35980001D02*
X40778000Y-36106000D01*
X40778000Y-36106000D02*
X40778000Y-37974000D01*
X41369600Y-39457926D02*
X41369600Y-40747400D01*
X40778000Y-37974000D02*
X40741000Y-38011000D01*
%TO.N,/VP_3*%
X37954500Y-44107000D02*
X38658000Y-44107000D01*
X38658000Y-42964000D02*
X38658000Y-44107000D01*
X36933000Y-45128500D02*
X37954500Y-44107000D01*
X38658000Y-44953500D02*
X38833000Y-45128500D01*
X38658000Y-44107000D02*
X38658000Y-44953500D01*
%TO.N,/VN_3*%
X36868000Y-38011000D02*
X36868000Y-38766326D01*
X36868000Y-38766326D02*
X37883000Y-39781326D01*
X36968000Y-37911000D02*
X36868000Y-38011000D01*
X36968000Y-36106000D02*
X36968000Y-37911000D01*
X37883000Y-39781326D02*
X37883000Y-40805000D01*
X36842001Y-34071901D02*
X36842001Y-35980001D01*
X36842001Y-35980001D02*
X36968000Y-36106000D01*
%TO.N,/VP_4*%
X34827072Y-45324428D02*
X35023000Y-45128500D01*
X35023000Y-43025000D02*
X34962000Y-42964000D01*
X33438000Y-43980000D02*
X35023000Y-43980000D01*
X33123000Y-44295000D02*
X33438000Y-43980000D01*
X33123000Y-45128500D02*
X33123000Y-44295000D01*
X35023000Y-45128500D02*
X35023000Y-43980000D01*
X35023000Y-43980000D02*
X35023000Y-43025000D01*
X34313076Y-45324428D02*
X34827072Y-45324428D01*
%TO.N,/VN_4*%
X33285000Y-37974000D02*
X33248000Y-38011000D01*
X33383200Y-38146200D02*
X33383200Y-38964526D01*
X36271948Y-42552077D02*
X34724012Y-41004141D01*
X33032001Y-35853001D02*
X33285000Y-36106000D01*
X34724012Y-41004141D02*
X34349998Y-41004141D01*
X33285000Y-36106000D02*
X33285000Y-37974000D01*
X33383200Y-38964526D02*
X34269400Y-39850726D01*
X34269400Y-39850726D02*
X34269400Y-40923543D01*
X33248000Y-38011000D02*
X33383200Y-38146200D01*
X33032001Y-34065099D02*
X33032001Y-35853001D01*
X34269400Y-40923543D02*
X34349998Y-41004141D01*
%TO.N,/VP_5*%
X29889500Y-45128500D02*
X31038000Y-43980000D01*
X31038000Y-42964000D02*
X31038000Y-43980000D01*
X31038000Y-44953500D02*
X31213000Y-45128500D01*
X29313000Y-45128500D02*
X29889500Y-45128500D01*
X31914000Y-45250000D02*
X31334500Y-45250000D01*
X31038000Y-43980000D02*
X31038000Y-44953500D01*
X31334500Y-45250000D02*
X31213000Y-45128500D01*
D20*
%TO.N,/VN_5*%
X29348000Y-36106000D02*
X29348000Y-34194499D01*
D19*
X32741527Y-41197363D02*
X32349645Y-40805481D01*
D20*
X29348000Y-34194499D02*
X29222001Y-34068500D01*
X29311000Y-38011000D02*
X29711000Y-38011000D01*
X29711000Y-38011000D02*
X30308600Y-38608600D01*
D19*
X32349645Y-40805481D02*
X30530151Y-40805481D01*
D20*
X29311000Y-36143000D02*
X29348000Y-36106000D01*
X29311000Y-38011000D02*
X29311000Y-36143000D01*
X30308600Y-38608600D02*
X30308600Y-40583930D01*
X30308600Y-40583930D02*
X30530151Y-40805481D01*
D19*
%TO.N,/VP_6*%
X27228000Y-42964000D02*
X27228000Y-43980000D01*
X25503000Y-45128500D02*
X25503000Y-44295000D01*
X28551500Y-43980000D02*
X27403000Y-45128500D01*
X25818000Y-43980000D02*
X27228000Y-43980000D01*
X27228000Y-44953500D02*
X27403000Y-45128500D01*
X27228000Y-43980000D02*
X27228000Y-44953500D01*
X29247000Y-43980000D02*
X28551500Y-43980000D01*
X25503000Y-44295000D02*
X25818000Y-43980000D01*
%TO.N,/VN_6*%
X26453000Y-39631000D02*
X26453000Y-40678000D01*
D20*
X25551000Y-36106000D02*
X25551000Y-37961000D01*
X25551000Y-37961000D02*
X25501000Y-38011000D01*
D19*
X31914000Y-42456000D02*
X30771000Y-41313000D01*
X25501000Y-38011000D02*
X25501000Y-38679000D01*
X28852227Y-40551000D02*
X28020457Y-40551000D01*
X29120000Y-40818773D02*
X28852227Y-40551000D01*
X29600791Y-41313000D02*
X29120000Y-40832209D01*
X30771000Y-41313000D02*
X29600791Y-41313000D01*
X25501000Y-38679000D02*
X26453000Y-39631000D01*
D20*
X25412001Y-34071901D02*
X25412001Y-35967001D01*
D19*
X27893457Y-40678000D02*
X26453000Y-40678000D01*
D20*
X25412001Y-35967001D02*
X25551000Y-36106000D01*
D19*
X28020457Y-40551000D02*
X27893457Y-40678000D01*
X29120000Y-40832209D02*
X29120000Y-40818773D01*
%TO.N,/VP_7*%
X25945000Y-46139000D02*
X24603500Y-46139000D01*
D20*
X21693000Y-44168000D02*
X22008000Y-43853000D01*
D19*
X24603500Y-46139000D02*
X23593000Y-45128500D01*
D20*
X23431000Y-43853000D02*
X23431000Y-44966500D01*
X21693000Y-45128500D02*
X21693000Y-44168000D01*
X23431000Y-42964000D02*
X23431000Y-43853000D01*
D19*
X26697101Y-45250000D02*
X26697101Y-45386899D01*
X26697101Y-45386899D02*
X25945000Y-46139000D01*
D20*
X23431000Y-44966500D02*
X23593000Y-45128500D01*
X22008000Y-43853000D02*
X23431000Y-43853000D01*
D19*
%TO.N,/VN_7*%
X21602001Y-35980001D02*
X21728000Y-36106000D01*
X21602001Y-34071901D02*
X21602001Y-35980001D01*
X23786000Y-41948000D02*
X27650800Y-41948000D01*
X21728000Y-37974000D02*
X21691000Y-38011000D01*
X21691000Y-38829326D02*
X22643000Y-39781326D01*
X22643000Y-40805000D02*
X23786000Y-41948000D01*
X27650800Y-41948000D02*
X28285800Y-42583000D01*
X21728000Y-36106000D02*
X21728000Y-37974000D01*
X21691000Y-38011000D02*
X21691000Y-38829326D01*
X22643000Y-39781326D02*
X22643000Y-40805000D01*
%TO.N,GND*%
X49898000Y-35675000D02*
X49567000Y-35344000D01*
X29311000Y-40340709D02*
X29772157Y-40801866D01*
X33412000Y-40652000D02*
X33412000Y-42964000D01*
X37883000Y-47403500D02*
X37883000Y-48425000D01*
X40918000Y-31530902D02*
X40652001Y-31796901D01*
X25551000Y-29883000D02*
X25551000Y-30658000D01*
X37108000Y-42964000D02*
X37108000Y-41053480D01*
X36931000Y-39916000D02*
X36931000Y-40680620D01*
X40741000Y-39916000D02*
X40741000Y-40106000D01*
X29628000Y-49187000D02*
X30263000Y-48552000D01*
X41693000Y-47403500D02*
X41693000Y-48298000D01*
X42328000Y-36106000D02*
X42328000Y-35236368D01*
X21691000Y-39916000D02*
X21119000Y-39916000D01*
X36981000Y-29883000D02*
X36981000Y-31657902D01*
X42328000Y-35236368D02*
X42195166Y-35103534D01*
X26326000Y-48552000D02*
X26326000Y-48780000D01*
X21868000Y-29883000D02*
X21868000Y-30531000D01*
X25412001Y-31796901D02*
X25412001Y-30796999D01*
X29589891Y-40619600D02*
X29772157Y-40801866D01*
X37756000Y-48793000D02*
X37108000Y-49441000D01*
X29488000Y-42964000D02*
X28485000Y-41961000D01*
X26453000Y-48425000D02*
X26326000Y-48552000D01*
X28485000Y-41961000D02*
X28485000Y-41059000D01*
X25412001Y-30796999D02*
X25437000Y-30772000D01*
X23278000Y-35471000D02*
X23405000Y-35344000D01*
X34073000Y-47403500D02*
X34073000Y-48298000D01*
X46151000Y-36754000D02*
X46392000Y-36995000D01*
X29311000Y-39916000D02*
X29311000Y-40340709D01*
X29222001Y-31793500D02*
X29222001Y-30796999D01*
X33311000Y-30518000D02*
X33057000Y-30772000D01*
X34073000Y-48298000D02*
X33819000Y-48552000D01*
X21602001Y-30796999D02*
X21627000Y-30772000D01*
X45249000Y-49187000D02*
X45249000Y-48552000D01*
X40918000Y-49441000D02*
X40918000Y-49073000D01*
X21602001Y-31796901D02*
X21602001Y-30796999D01*
X40918000Y-30899000D02*
X40918000Y-31530902D01*
X38518000Y-35852000D02*
X39026000Y-35344000D01*
X25551000Y-30658000D02*
X25437000Y-30772000D01*
X44551000Y-39916000D02*
X43598000Y-39916000D01*
X40741000Y-40106000D02*
X40296000Y-40551000D01*
X26326000Y-48780000D02*
X25665000Y-49441000D01*
X44995000Y-49441000D02*
X45249000Y-49187000D01*
X29361000Y-29883000D02*
X29361000Y-30658000D01*
X36931000Y-40680620D02*
X36833070Y-40778550D01*
X29222001Y-30796999D02*
X29247000Y-30772000D01*
X29628000Y-49441000D02*
X29628000Y-49187000D01*
X33032001Y-31790099D02*
X33032001Y-30796999D01*
X44728000Y-42964000D02*
X44728000Y-42951000D01*
X44728000Y-49441000D02*
X44995000Y-49441000D01*
X37756000Y-48552000D02*
X37756000Y-48793000D01*
X49313000Y-47403500D02*
X49313000Y-48298000D01*
X48525000Y-49086000D02*
X49059000Y-48552000D01*
X34835000Y-36106000D02*
X34835000Y-35725000D01*
X34835000Y-35725000D02*
X34200000Y-35090000D01*
X45503000Y-48298000D02*
X45249000Y-48552000D01*
X38518000Y-36106000D02*
X38518000Y-35852000D01*
X33425000Y-48946000D02*
X33819000Y-48552000D01*
X48283599Y-31806499D02*
X48283599Y-32459399D01*
X48361000Y-39916000D02*
X48361000Y-39879359D01*
X49898000Y-36106000D02*
X49898000Y-35675000D01*
X29361000Y-30658000D02*
X29247000Y-30772000D01*
X51790600Y-31584600D02*
X51790600Y-30861000D01*
X45503000Y-47403500D02*
X45503000Y-48298000D01*
X27101000Y-36106000D02*
X27101000Y-35484000D01*
X46151000Y-36106000D02*
X46151000Y-36754000D01*
X21868000Y-30531000D02*
X21627000Y-30772000D01*
X27101000Y-35484000D02*
X26453000Y-34836000D01*
X49313000Y-48298000D02*
X49059000Y-48552000D01*
X22643000Y-47403500D02*
X22643000Y-48298000D01*
X25501000Y-39726000D02*
X25056000Y-39281000D01*
X30898000Y-36106000D02*
X30898000Y-35344000D01*
X37883000Y-48425000D02*
X37756000Y-48552000D01*
X44728000Y-42951000D02*
X44106000Y-42329000D01*
X33311000Y-29883000D02*
X33311000Y-30518000D01*
X19608800Y-48260000D02*
X19735800Y-48387000D01*
X30263000Y-48552000D02*
X30263000Y-47403500D01*
X19608800Y-47561800D02*
X19608800Y-48260000D01*
X48503500Y-43265500D02*
X48328764Y-43440236D01*
X48361000Y-39879359D02*
X47863397Y-39381756D01*
X41185000Y-42964000D02*
X41566000Y-42583000D01*
X21881000Y-42964000D02*
X21119000Y-42964000D01*
X25796610Y-42964000D02*
X26209188Y-42551422D01*
X33032001Y-30796999D02*
X33057000Y-30772000D01*
X25501000Y-39916000D02*
X25501000Y-39726000D01*
X40918000Y-49073000D02*
X41439000Y-48552000D01*
X22643000Y-48298000D02*
X22389000Y-48552000D01*
X33425000Y-49441000D02*
X33425000Y-48946000D01*
X23278000Y-36106000D02*
X23278000Y-35471000D01*
X51790600Y-30861000D02*
X51714400Y-30784800D01*
X41693000Y-48298000D02*
X41439000Y-48552000D01*
X25678000Y-42964000D02*
X25796610Y-42964000D01*
X30898000Y-35344000D02*
X30771000Y-35217000D01*
X48283599Y-32459399D02*
X48869600Y-33045400D01*
X26453000Y-47403500D02*
X26453000Y-48425000D01*
X40918000Y-42964000D02*
X41185000Y-42964000D01*
X36981000Y-31657902D02*
X36842001Y-31796901D01*
X37108000Y-41053480D02*
X36833070Y-40778550D01*
X32676000Y-39916000D02*
X33412000Y-40652000D01*
X48503500Y-42964000D02*
X48503500Y-43265500D01*
X48525000Y-49441000D02*
X48525000Y-49086000D01*
X33248000Y-39916000D02*
X32676000Y-39916000D01*
%TO.N,Net-(U1-ADJ)*%
X50011000Y-39027000D02*
X50011000Y-39916000D01*
X50576600Y-34474500D02*
X50576600Y-37445400D01*
X50011000Y-38011000D02*
X50011000Y-39027000D01*
X50183599Y-34081499D02*
X50576600Y-34474500D01*
X50576600Y-37445400D02*
X50011000Y-38011000D01*
%TO.N,Net-(U2-ADJ)*%
X46201000Y-38011000D02*
X46201000Y-39027000D01*
X46377000Y-34068500D02*
X46972200Y-34663700D01*
X46201000Y-39027000D02*
X46201000Y-39916000D01*
X46972200Y-37239800D02*
X46201000Y-38011000D01*
X46972200Y-34663700D02*
X46972200Y-37239800D01*
%TO.N,Net-(U3-ADJ)*%
X43006600Y-37395400D02*
X42391000Y-38011000D01*
X42391000Y-38401533D02*
X42391000Y-38011000D01*
X41802121Y-38990412D02*
X42391000Y-38401533D01*
X41802121Y-38990412D02*
X42391000Y-39579291D01*
X42552001Y-34071901D02*
X43006600Y-34526500D01*
X42391000Y-39579291D02*
X42391000Y-39916000D01*
X43006600Y-34526500D02*
X43006600Y-37395400D01*
%TO.N,Net-(U4-ADJ)*%
X38518000Y-38011000D02*
X38518000Y-39027000D01*
X39606200Y-34936100D02*
X39606200Y-36922800D01*
X38518000Y-39853000D02*
X38581000Y-39916000D01*
X39606200Y-36922800D02*
X38518000Y-38011000D01*
X38742001Y-34071901D02*
X39606200Y-34936100D01*
X38518000Y-39027000D02*
X38518000Y-39853000D01*
%TO.N,Net-(U5-ADJ)*%
X35513600Y-35661878D02*
X35513600Y-37395400D01*
X35513600Y-37395400D02*
X34898000Y-38011000D01*
X34932001Y-34065099D02*
X34932001Y-35080279D01*
X34898000Y-38011000D02*
X34898000Y-38328994D01*
X34898000Y-39725006D02*
X34199994Y-39027000D01*
X34932001Y-35080279D02*
X35513600Y-35661878D01*
X34898000Y-38328994D02*
X34199994Y-39027000D01*
X34898000Y-39916000D02*
X34898000Y-39725006D01*
%TO.N,Net-(U6-ADJ)*%
X31122001Y-34068500D02*
X31576600Y-34523099D01*
X31576600Y-37395400D02*
X30961000Y-38011000D01*
X31576600Y-34523099D02*
X31576600Y-37395400D01*
X30961000Y-39916000D02*
X30961000Y-39089875D01*
X30961000Y-38961875D02*
X31025000Y-39025875D01*
X30961000Y-38011000D02*
X30961000Y-38961875D01*
X30961000Y-39089875D02*
X31025000Y-39025875D01*
%TO.N,Net-(U7-ADJ)*%
X27151000Y-38011000D02*
X27151000Y-38456000D01*
X27151000Y-38456000D02*
X26580000Y-39027000D01*
X27151000Y-39598000D02*
X26580000Y-39027000D01*
X27151000Y-39916000D02*
X27151000Y-39598000D01*
X27779600Y-37382400D02*
X27151000Y-38011000D01*
X27312001Y-34071901D02*
X27779600Y-34539500D01*
X27779600Y-34539500D02*
X27779600Y-37382400D01*
%TO.N,Net-(U8-ADJ)*%
X23502001Y-34071901D02*
X23956600Y-34526500D01*
X23341000Y-39916000D02*
X23341000Y-39725000D01*
X23956600Y-34526500D02*
X23956600Y-37395400D01*
X23341000Y-38011000D02*
X23341000Y-38329000D01*
X23341000Y-38329000D02*
X22643000Y-39027000D01*
X23341000Y-39725000D02*
X22643000Y-39027000D01*
X23956600Y-37395400D02*
X23341000Y-38011000D01*
%TD*%
M02*
