%TF.GenerationSoftware,KiCad,Pcbnew,7.0.10-7.0.10~ubuntu22.04.1*%
%TF.CreationDate,2024-01-24T09:49:38-05:00*%
%TF.ProjectId,imu-adapter,696d752d-6164-4617-9074-65722e6b6963,rev?*%
%TF.SameCoordinates,Original*%
%TF.FileFunction,Copper,L1,Top*%
%TF.FilePolarity,Positive*%
%FSLAX46Y46*%
G04 Gerber Fmt 4.6, Leading zero omitted, Abs format (unit mm)*
G04 Created by KiCad (PCBNEW 7.0.10-7.0.10~ubuntu22.04.1) date 2024-01-24 09:49:38*
%MOMM*%
%LPD*%
G01*
G04 APERTURE LIST*
%TA.AperFunction,ComponentPad*%
%ADD10R,1.700000X1.700000*%
%TD*%
%TA.AperFunction,ComponentPad*%
%ADD11O,1.700000X1.700000*%
%TD*%
%TA.AperFunction,ComponentPad*%
%ADD12C,5.000000*%
%TD*%
%TA.AperFunction,ComponentPad*%
%ADD13R,0.850000X0.850000*%
%TD*%
%TA.AperFunction,ComponentPad*%
%ADD14O,0.850000X0.850000*%
%TD*%
%TA.AperFunction,Conductor*%
%ADD15C,0.250000*%
%TD*%
G04 APERTURE END LIST*
D10*
%TO.P,J1,1,MISO*%
%TO.N,Net-(J1-MISO)*%
X62000000Y-48000000D03*
D11*
%TO.P,J1,2,VCC*%
%TO.N,Net-(J1-VCC)*%
X59460000Y-48000000D03*
%TO.P,J1,3,SCK*%
%TO.N,Net-(J1-SCK)*%
X62000000Y-45460000D03*
%TO.P,J1,4,MOSI*%
%TO.N,Net-(J1-MOSI)*%
X59460000Y-45460000D03*
%TO.P,J1,5,~{RST}*%
%TO.N,Net-(J1-~{RST})*%
X62000000Y-42920000D03*
%TO.P,J1,6,GND*%
%TO.N,Net-(J1-GND)*%
X59460000Y-42920000D03*
%TD*%
D12*
%TO.P,H1,1*%
%TO.N,N/C*%
X70500000Y-39000000D03*
%TD*%
%TO.P,H2,1*%
%TO.N,N/C*%
X70500000Y-53000000D03*
%TD*%
D13*
%TO.P,J2,1,MISO*%
%TO.N,Net-(J1-MISO)*%
X84500000Y-47600000D03*
D14*
%TO.P,J2,2,VCC*%
%TO.N,Net-(J1-VCC)*%
X84500000Y-46600000D03*
%TO.P,J2,3,SCK*%
%TO.N,Net-(J1-SCK)*%
X84500000Y-45600000D03*
%TO.P,J2,4,MOSI*%
%TO.N,Net-(J1-MOSI)*%
X84500000Y-44600000D03*
%TO.P,J2,5,~{RST}*%
%TO.N,Net-(J1-~{RST})*%
X84500000Y-43600000D03*
%TO.P,J2,6,GND*%
%TO.N,Net-(J1-GND)*%
X84500000Y-42600000D03*
%TD*%
D15*
%TO.N,Net-(J1-MISO)*%
X72825000Y-49175000D02*
X74400000Y-47600000D01*
X63175000Y-49175000D02*
X72825000Y-49175000D01*
X74400000Y-47600000D02*
X84500000Y-47600000D01*
X62000000Y-48000000D02*
X63175000Y-49175000D01*
%TO.N,Net-(J1-VCC)*%
X59460000Y-48000000D02*
X60635000Y-46825000D01*
X73000000Y-48000000D02*
X74400000Y-46600000D01*
X60635000Y-46825000D02*
X63525000Y-46825000D01*
X63525000Y-46825000D02*
X64700000Y-48000000D01*
X74400000Y-46600000D02*
X84500000Y-46600000D01*
X64700000Y-48000000D02*
X73000000Y-48000000D01*
%TO.N,Net-(J1-SCK)*%
X73625000Y-46375000D02*
X74400000Y-45600000D01*
X62915000Y-46375000D02*
X73625000Y-46375000D01*
X74400000Y-45600000D02*
X84500000Y-45600000D01*
X62000000Y-45460000D02*
X62915000Y-46375000D01*
%TO.N,Net-(J1-MOSI)*%
X65400000Y-44600000D02*
X84500000Y-44600000D01*
X60635000Y-44285000D02*
X59460000Y-45460000D01*
X62486701Y-44285000D02*
X60635000Y-44285000D01*
X63661701Y-45460000D02*
X62486701Y-44285000D01*
X64540000Y-45460000D02*
X65400000Y-44600000D01*
X64540000Y-45460000D02*
X63661701Y-45460000D01*
%TO.N,Net-(J1-~{RST})*%
X83700000Y-43600000D02*
X84500000Y-43600000D01*
X83205000Y-44095000D02*
X83700000Y-43600000D01*
X62000000Y-42920000D02*
X63175000Y-44095000D01*
X63175000Y-44095000D02*
X83205000Y-44095000D01*
%TO.N,Net-(J1-GND)*%
X60635000Y-41745000D02*
X59460000Y-42920000D01*
X84180000Y-42920000D02*
X84500000Y-42600000D01*
X64540000Y-42920000D02*
X84180000Y-42920000D01*
X63365000Y-41745000D02*
X60635000Y-41745000D01*
X64540000Y-42920000D02*
X63365000Y-41745000D01*
%TD*%
M02*
