%TF.GenerationSoftware,KiCad,Pcbnew,7.0.5-4d25ed1034~172~ubuntu22.04.1*%
%TF.CreationDate,2023-06-14T10:31:06-04:00*%
%TF.ProjectId,flex-VEMD,666c6578-2d56-4454-9d44-2e6b69636164,rev?*%
%TF.SameCoordinates,Original*%
%TF.FileFunction,Copper,L1,Top*%
%TF.FilePolarity,Positive*%
%FSLAX46Y46*%
G04 Gerber Fmt 4.6, Leading zero omitted, Abs format (unit mm)*
G04 Created by KiCad (PCBNEW 7.0.5-4d25ed1034~172~ubuntu22.04.1) date 2023-06-14 10:31:06*
%MOMM*%
%LPD*%
G01*
G04 APERTURE LIST*
G04 Aperture macros list*
%AMRoundRect*
0 Rectangle with rounded corners*
0 $1 Rounding radius*
0 $2 $3 $4 $5 $6 $7 $8 $9 X,Y pos of 4 corners*
0 Add a 4 corners polygon primitive as box body*
4,1,4,$2,$3,$4,$5,$6,$7,$8,$9,$2,$3,0*
0 Add four circle primitives for the rounded corners*
1,1,$1+$1,$2,$3*
1,1,$1+$1,$4,$5*
1,1,$1+$1,$6,$7*
1,1,$1+$1,$8,$9*
0 Add four rect primitives between the rounded corners*
20,1,$1+$1,$2,$3,$4,$5,0*
20,1,$1+$1,$4,$5,$6,$7,0*
20,1,$1+$1,$6,$7,$8,$9,0*
20,1,$1+$1,$8,$9,$2,$3,0*%
G04 Aperture macros list end*
%TA.AperFunction,SMDPad,CuDef*%
%ADD10RoundRect,0.100000X-0.675000X-0.400000X0.675000X-0.400000X0.675000X0.400000X-0.675000X0.400000X0*%
%TD*%
%TA.AperFunction,SMDPad,CuDef*%
%ADD11R,2.400000X0.740000*%
%TD*%
%TA.AperFunction,ViaPad*%
%ADD12C,0.400000*%
%TD*%
%TA.AperFunction,Conductor*%
%ADD13C,0.400000*%
%TD*%
%TA.AperFunction,Conductor*%
%ADD14C,0.200000*%
%TD*%
%TA.AperFunction,Conductor*%
%ADD15C,0.300000*%
%TD*%
%TA.AperFunction,Conductor*%
%ADD16C,0.500000*%
%TD*%
G04 APERTURE END LIST*
D10*
%TO.P,D1,1,A*%
%TO.N,/A*%
X48700000Y-52100000D03*
%TO.P,D1,2*%
%TO.N,N/C*%
X51250000Y-52100000D03*
%TO.P,D1,3,K*%
%TO.N,/K*%
X51250000Y-47900000D03*
%TO.P,D1,4,K*%
X48700000Y-47900000D03*
%TD*%
D11*
%TO.P,J1,1,Pin_1*%
%TO.N,+5V*%
X399050000Y-49365000D03*
%TO.P,J1,2,Pin_2*%
%TO.N,unconnected-(J1-Pin_2-Pad2)*%
X402950000Y-49365000D03*
%TO.P,J1,3,Pin_3*%
%TO.N,GND*%
X399050000Y-50635000D03*
%TO.P,J1,4,Pin_4*%
%TO.N,/IOUT*%
X402950000Y-50635000D03*
%TD*%
D12*
%TO.N,+5V*%
X47600000Y-49400000D03*
X49800000Y-48800000D03*
%TO.N,GND*%
X47680000Y-50480000D03*
X397435000Y-50635000D03*
X400800000Y-50600000D03*
%TO.N,/A*%
X49600000Y-51200000D03*
%TO.N,/K*%
X48600000Y-48800000D03*
%TO.N,/IOUT*%
X52800000Y-50000000D03*
%TD*%
D13*
%TO.N,+5V*%
X399050000Y-49365000D02*
X397435000Y-49365000D01*
D14*
X397400000Y-49400000D02*
X397435000Y-49365000D01*
%TO.N,GND*%
X399050000Y-50635000D02*
X400765000Y-50635000D01*
X399050000Y-50635000D02*
X397435000Y-50635000D01*
X400765000Y-50635000D02*
X400800000Y-50600000D01*
X397400000Y-50600000D02*
X397435000Y-50635000D01*
D15*
%TO.N,/A*%
X49600000Y-51200000D02*
X48700000Y-52100000D01*
D14*
%TO.N,/K*%
X48600000Y-48800000D02*
X48600000Y-48000000D01*
X48600000Y-48000000D02*
X48700000Y-47900000D01*
D15*
X48700000Y-47900000D02*
X51250000Y-47900000D01*
D16*
%TO.N,/IOUT*%
X395800000Y-50000000D02*
X52800000Y-50000000D01*
D14*
X402315000Y-50000000D02*
X395800000Y-50000000D01*
X402950000Y-50635000D02*
X402315000Y-50000000D01*
%TD*%
%TA.AperFunction,Conductor*%
%TO.N,+5V*%
G36*
X50384952Y-45722870D02*
G01*
X50388440Y-45723186D01*
X50788564Y-45778603D01*
X50791981Y-45779243D01*
X51185071Y-45872334D01*
X51188437Y-45873302D01*
X51570909Y-46003219D01*
X51574162Y-46004498D01*
X51942611Y-46170081D01*
X51945735Y-46171667D01*
X51976949Y-46189426D01*
X52296829Y-46371420D01*
X52299796Y-46373300D01*
X52630369Y-46605420D01*
X52633144Y-46607573D01*
X52940229Y-46869973D01*
X52942788Y-46872379D01*
X53223638Y-47162716D01*
X53225946Y-47165341D01*
X53415145Y-47402259D01*
X53478008Y-47480977D01*
X53480067Y-47483822D01*
X53701083Y-47821928D01*
X53702863Y-47824956D01*
X53722057Y-47861462D01*
X53728870Y-47911621D01*
X53701847Y-47954423D01*
X53656559Y-47969900D01*
X52425957Y-47969900D01*
X52406806Y-47967379D01*
X52396400Y-47964591D01*
X52376585Y-47969900D01*
X52376584Y-47969899D01*
X52318496Y-47985464D01*
X52301825Y-48002135D01*
X52255948Y-48023527D01*
X52207054Y-48010424D01*
X52178021Y-47968959D01*
X52175500Y-47949808D01*
X52175500Y-47475327D01*
X52175500Y-47475326D01*
X52160966Y-47402260D01*
X52105601Y-47319399D01*
X52022740Y-47264034D01*
X51949674Y-47249500D01*
X50550326Y-47249500D01*
X50501615Y-47259189D01*
X50477259Y-47264034D01*
X50394399Y-47319398D01*
X50394398Y-47319399D01*
X50339034Y-47402259D01*
X50324499Y-47475327D01*
X50324500Y-47525500D01*
X50307187Y-47573066D01*
X50263350Y-47598376D01*
X50250500Y-47599500D01*
X49699500Y-47599500D01*
X49651934Y-47582187D01*
X49626624Y-47538350D01*
X49625500Y-47525500D01*
X49625500Y-47475327D01*
X49625500Y-47475326D01*
X49610966Y-47402260D01*
X49555601Y-47319399D01*
X49472740Y-47264034D01*
X49399674Y-47249500D01*
X48000326Y-47249500D01*
X47951615Y-47259189D01*
X47927259Y-47264034D01*
X47844399Y-47319398D01*
X47844398Y-47319399D01*
X47789034Y-47402259D01*
X47789033Y-47402260D01*
X47789034Y-47402260D01*
X47774500Y-47475326D01*
X47774500Y-48324674D01*
X47789034Y-48397740D01*
X47839629Y-48473463D01*
X47844399Y-48480601D01*
X47927260Y-48535966D01*
X48000326Y-48550500D01*
X48212994Y-48550500D01*
X48260560Y-48567813D01*
X48285870Y-48611650D01*
X48278929Y-48658095D01*
X48262499Y-48690339D01*
X48245131Y-48800000D01*
X48262499Y-48909660D01*
X48269405Y-48923213D01*
X48312905Y-49008587D01*
X48391413Y-49087095D01*
X48490339Y-49137500D01*
X48600000Y-49154869D01*
X48709661Y-49137500D01*
X48808587Y-49087095D01*
X48887095Y-49008587D01*
X48937500Y-48909661D01*
X48954869Y-48800000D01*
X48937500Y-48690339D01*
X48921071Y-48658095D01*
X48914903Y-48607854D01*
X48942472Y-48565401D01*
X48987006Y-48550500D01*
X49399672Y-48550500D01*
X49399674Y-48550500D01*
X49472740Y-48535966D01*
X49555601Y-48480601D01*
X49610966Y-48397740D01*
X49625500Y-48324674D01*
X49625500Y-48274500D01*
X49642813Y-48226934D01*
X49686650Y-48201624D01*
X49699500Y-48200500D01*
X50250500Y-48200500D01*
X50298066Y-48217813D01*
X50323376Y-48261650D01*
X50324500Y-48274500D01*
X50324499Y-48324672D01*
X50339034Y-48397740D01*
X50389629Y-48473463D01*
X50394399Y-48480601D01*
X50477260Y-48535966D01*
X50550326Y-48550500D01*
X50550328Y-48550500D01*
X51949672Y-48550500D01*
X51949674Y-48550500D01*
X52022740Y-48535966D01*
X52105601Y-48480601D01*
X52105637Y-48480546D01*
X52110371Y-48473463D01*
X52151192Y-48443531D01*
X52201702Y-48446840D01*
X52238268Y-48481844D01*
X52245900Y-48514574D01*
X52245900Y-48725843D01*
X52243379Y-48744993D01*
X52240591Y-48755399D01*
X52240591Y-48755400D01*
X52245106Y-48772250D01*
X52245109Y-48772266D01*
X52261464Y-48833303D01*
X52261465Y-48833304D01*
X52318495Y-48890335D01*
X52396400Y-48911209D01*
X52405050Y-48908891D01*
X52406806Y-48908421D01*
X52425957Y-48905900D01*
X54383186Y-48905900D01*
X397576000Y-48905900D01*
X397623566Y-48923213D01*
X397648876Y-48967050D01*
X397650000Y-48979900D01*
X397649999Y-49264999D01*
X397650000Y-49265000D01*
X400449999Y-49265000D01*
X400450000Y-48979900D01*
X400467313Y-48932334D01*
X400511150Y-48907024D01*
X400524000Y-48905900D01*
X401525500Y-48905900D01*
X401573066Y-48923213D01*
X401598376Y-48967050D01*
X401599500Y-48979900D01*
X401599500Y-49675500D01*
X401582187Y-49723066D01*
X401538350Y-49748376D01*
X401525500Y-49749500D01*
X400524000Y-49749500D01*
X400476434Y-49732187D01*
X400451124Y-49688350D01*
X400450000Y-49675500D01*
X400450000Y-49465000D01*
X397650000Y-49465000D01*
X397650000Y-49675500D01*
X397632687Y-49723066D01*
X397588850Y-49748376D01*
X397576000Y-49749500D01*
X396146544Y-49749500D01*
X396098978Y-49732187D01*
X396094218Y-49727826D01*
X396038343Y-49671951D01*
X396038342Y-49671950D01*
X395925304Y-49614354D01*
X395925302Y-49614353D01*
X395925301Y-49614353D01*
X395831520Y-49599500D01*
X395831519Y-49599500D01*
X52768481Y-49599500D01*
X52768480Y-49599500D01*
X52674698Y-49614353D01*
X52561656Y-49671951D01*
X52471951Y-49761656D01*
X52414353Y-49874698D01*
X52394508Y-50000000D01*
X52414353Y-50125301D01*
X52414353Y-50125302D01*
X52414354Y-50125304D01*
X52471950Y-50238342D01*
X52561658Y-50328050D01*
X52674696Y-50385646D01*
X52711108Y-50391413D01*
X52768480Y-50400500D01*
X52768481Y-50400500D01*
X395831520Y-50400500D01*
X395854965Y-50396786D01*
X395925304Y-50385646D01*
X396038342Y-50328050D01*
X396094218Y-50272173D01*
X396140094Y-50250782D01*
X396146544Y-50250500D01*
X397145166Y-50250500D01*
X397192732Y-50267813D01*
X397218042Y-50311650D01*
X397209252Y-50361500D01*
X397197492Y-50376826D01*
X397147905Y-50426412D01*
X397097499Y-50525339D01*
X397080131Y-50635000D01*
X397097499Y-50744660D01*
X397147905Y-50843587D01*
X397226414Y-50922096D01*
X397289354Y-50954166D01*
X397323876Y-50991186D01*
X397326526Y-51041736D01*
X397296062Y-51082162D01*
X397255759Y-51094100D01*
X52425957Y-51094100D01*
X52406806Y-51091579D01*
X52396400Y-51088791D01*
X52376585Y-51094100D01*
X52376584Y-51094099D01*
X52318496Y-51109664D01*
X52261465Y-51166694D01*
X52261464Y-51166695D01*
X52261465Y-51166695D01*
X52240591Y-51244600D01*
X52243378Y-51255002D01*
X52245900Y-51274154D01*
X52245900Y-51485425D01*
X52228587Y-51532991D01*
X52184750Y-51558301D01*
X52134900Y-51549511D01*
X52110372Y-51526538D01*
X52105603Y-51519401D01*
X52105600Y-51519398D01*
X52022740Y-51464034D01*
X51949674Y-51449500D01*
X50550326Y-51449500D01*
X50501615Y-51459189D01*
X50477259Y-51464034D01*
X50394399Y-51519398D01*
X50394398Y-51519399D01*
X50339034Y-51602259D01*
X50339033Y-51602260D01*
X50339034Y-51602260D01*
X50324500Y-51675326D01*
X50324500Y-52524674D01*
X50339034Y-52597740D01*
X50394399Y-52680601D01*
X50477260Y-52735966D01*
X50550326Y-52750500D01*
X50550328Y-52750500D01*
X51949672Y-52750500D01*
X51949674Y-52750500D01*
X52022740Y-52735966D01*
X52105601Y-52680601D01*
X52160966Y-52597740D01*
X52175500Y-52524674D01*
X52175500Y-52050190D01*
X52192813Y-52002625D01*
X52236650Y-51977315D01*
X52286500Y-51986105D01*
X52301823Y-51997863D01*
X52318495Y-52014535D01*
X52396400Y-52035409D01*
X52405050Y-52033091D01*
X52406806Y-52032621D01*
X52425957Y-52030100D01*
X53656559Y-52030100D01*
X53704125Y-52047413D01*
X53729435Y-52091250D01*
X53722057Y-52138538D01*
X53702863Y-52175044D01*
X53701083Y-52178071D01*
X53480067Y-52516177D01*
X53478008Y-52519022D01*
X53348975Y-52680600D01*
X53249399Y-52805292D01*
X53225957Y-52834646D01*
X53223638Y-52837283D01*
X52942788Y-53127620D01*
X52940229Y-53130026D01*
X52633144Y-53392426D01*
X52630369Y-53394579D01*
X52299796Y-53626699D01*
X52296829Y-53628579D01*
X51945737Y-53828331D01*
X51942605Y-53829921D01*
X51574171Y-53995497D01*
X51570902Y-53996783D01*
X51188435Y-54126697D01*
X51185060Y-54127668D01*
X50792001Y-54220752D01*
X50788549Y-54221398D01*
X50388445Y-54276812D01*
X50384947Y-54277129D01*
X49981369Y-54294377D01*
X49977859Y-54294360D01*
X49611611Y-54275223D01*
X49574489Y-54273284D01*
X49570994Y-54272934D01*
X49171417Y-54213723D01*
X49167971Y-54213044D01*
X48822128Y-54127668D01*
X48775813Y-54116234D01*
X48772465Y-54115237D01*
X48610595Y-54058535D01*
X48391232Y-53981692D01*
X48387976Y-53980375D01*
X48021136Y-53811313D01*
X48018020Y-53809693D01*
X47668830Y-53606614D01*
X47665888Y-53604710D01*
X47337529Y-53369460D01*
X47334777Y-53367284D01*
X47030191Y-53101976D01*
X47027655Y-53099546D01*
X47008765Y-53079643D01*
X46749578Y-52806560D01*
X46747294Y-52803911D01*
X46528608Y-52524674D01*
X47774500Y-52524674D01*
X47789034Y-52597740D01*
X47844399Y-52680601D01*
X47927260Y-52735966D01*
X48000326Y-52750500D01*
X48000328Y-52750500D01*
X49399672Y-52750500D01*
X49399674Y-52750500D01*
X49472740Y-52735966D01*
X49555601Y-52680601D01*
X49610966Y-52597740D01*
X49625500Y-52524674D01*
X49625500Y-51675326D01*
X49620630Y-51650849D01*
X49628331Y-51600819D01*
X49640879Y-51584090D01*
X49666294Y-51558675D01*
X49704153Y-51539388D01*
X49704124Y-51539299D01*
X49704688Y-51539115D01*
X49707047Y-51537913D01*
X49709661Y-51537500D01*
X49808587Y-51487095D01*
X49887095Y-51408587D01*
X49937500Y-51309661D01*
X49954869Y-51200000D01*
X49937500Y-51090339D01*
X49887095Y-50991413D01*
X49808587Y-50912905D01*
X49757930Y-50887094D01*
X49709660Y-50862499D01*
X49600000Y-50845131D01*
X49490339Y-50862499D01*
X49391412Y-50912905D01*
X49312905Y-50991412D01*
X49302844Y-51011159D01*
X49262500Y-51090339D01*
X49262084Y-51092960D01*
X49260879Y-51095325D01*
X49260701Y-51095875D01*
X49260614Y-51095846D01*
X49241323Y-51133705D01*
X48947203Y-51427826D01*
X48901327Y-51449218D01*
X48894877Y-51449500D01*
X48000326Y-51449500D01*
X47951615Y-51459189D01*
X47927259Y-51464034D01*
X47844399Y-51519398D01*
X47844398Y-51519399D01*
X47789034Y-51602259D01*
X47789033Y-51602260D01*
X47789034Y-51602260D01*
X47774500Y-51675326D01*
X47774500Y-52524674D01*
X46528608Y-52524674D01*
X46498236Y-52485893D01*
X46496204Y-52483028D01*
X46278410Y-52142845D01*
X46276659Y-52139800D01*
X46092082Y-51780503D01*
X46090627Y-51777306D01*
X46076582Y-51742107D01*
X45940929Y-51402130D01*
X45939786Y-51398813D01*
X45938699Y-51395100D01*
X45826320Y-51011148D01*
X45825498Y-51007745D01*
X45749280Y-50611061D01*
X45748784Y-50607607D01*
X45736636Y-50480000D01*
X47325131Y-50480000D01*
X47342499Y-50589660D01*
X47365601Y-50635000D01*
X47392905Y-50688587D01*
X47471413Y-50767095D01*
X47570339Y-50817500D01*
X47680000Y-50834869D01*
X47789661Y-50817500D01*
X47888587Y-50767095D01*
X47967095Y-50688587D01*
X48017500Y-50589661D01*
X48034869Y-50480000D01*
X48017500Y-50370339D01*
X47967095Y-50271413D01*
X47888587Y-50192905D01*
X47888586Y-50192904D01*
X47789660Y-50142499D01*
X47680000Y-50125131D01*
X47570339Y-50142499D01*
X47471412Y-50192905D01*
X47392905Y-50271412D01*
X47342499Y-50370339D01*
X47325131Y-50480000D01*
X45736636Y-50480000D01*
X45720729Y-50312905D01*
X45710502Y-50205473D01*
X45710335Y-50201964D01*
X45710335Y-49798035D01*
X45710502Y-49794526D01*
X45722171Y-49671950D01*
X45748784Y-49392389D01*
X45749280Y-49388938D01*
X45773094Y-49264999D01*
X45793060Y-49161080D01*
X45825498Y-48992254D01*
X45826319Y-48988856D01*
X45939789Y-48601176D01*
X45940927Y-48597875D01*
X46090632Y-48222681D01*
X46092082Y-48219496D01*
X46101264Y-48201624D01*
X46276659Y-47860197D01*
X46278402Y-47857166D01*
X46496212Y-47516959D01*
X46498227Y-47514117D01*
X46747296Y-47196084D01*
X46749569Y-47193449D01*
X47027664Y-46900443D01*
X47030181Y-46898032D01*
X47334789Y-46632705D01*
X47337515Y-46630548D01*
X47665902Y-46395278D01*
X47668819Y-46393391D01*
X47859443Y-46282530D01*
X48018020Y-46190306D01*
X48021122Y-46188692D01*
X48387975Y-46019624D01*
X48391232Y-46018307D01*
X48430641Y-46004502D01*
X48772484Y-45884755D01*
X48775793Y-45883770D01*
X49167978Y-45786953D01*
X49171417Y-45786276D01*
X49570994Y-45727065D01*
X49574468Y-45726717D01*
X49977880Y-45705638D01*
X49981353Y-45705622D01*
X50384952Y-45722870D01*
G37*
%TD.AperFunction*%
%TD*%
M02*
