%TF.GenerationSoftware,KiCad,Pcbnew,7.0.5-4d25ed1034~172~ubuntu22.04.1*%
%TF.CreationDate,2023-06-14T10:31:06-04:00*%
%TF.ProjectId,flex-VEMD,666c6578-2d56-4454-9d44-2e6b69636164,rev?*%
%TF.SameCoordinates,Original*%
%TF.FileFunction,Legend,Top*%
%TF.FilePolarity,Positive*%
%FSLAX46Y46*%
G04 Gerber Fmt 4.6, Leading zero omitted, Abs format (unit mm)*
G04 Created by KiCad (PCBNEW 7.0.5-4d25ed1034~172~ubuntu22.04.1) date 2023-06-14 10:31:06*
%MOMM*%
%LPD*%
G01*
G04 APERTURE LIST*
%ADD10C,0.150000*%
%ADD11C,0.100000*%
%ADD12C,0.120000*%
G04 APERTURE END LIST*
D10*
X55327255Y-49469819D02*
X55517731Y-49469819D01*
X55517731Y-49469819D02*
X55612969Y-49517438D01*
X55612969Y-49517438D02*
X55708207Y-49612676D01*
X55708207Y-49612676D02*
X55755826Y-49803152D01*
X55755826Y-49803152D02*
X55755826Y-50136485D01*
X55755826Y-50136485D02*
X55708207Y-50326961D01*
X55708207Y-50326961D02*
X55612969Y-50422200D01*
X55612969Y-50422200D02*
X55517731Y-50469819D01*
X55517731Y-50469819D02*
X55327255Y-50469819D01*
X55327255Y-50469819D02*
X55232017Y-50422200D01*
X55232017Y-50422200D02*
X55136779Y-50326961D01*
X55136779Y-50326961D02*
X55089160Y-50136485D01*
X55089160Y-50136485D02*
X55089160Y-49803152D01*
X55089160Y-49803152D02*
X55136779Y-49612676D01*
X55136779Y-49612676D02*
X55232017Y-49517438D01*
X55232017Y-49517438D02*
X55327255Y-49469819D01*
X56184398Y-50469819D02*
X56184398Y-49469819D01*
X56184398Y-49469819D02*
X56565350Y-49469819D01*
X56565350Y-49469819D02*
X56660588Y-49517438D01*
X56660588Y-49517438D02*
X56708207Y-49565057D01*
X56708207Y-49565057D02*
X56755826Y-49660295D01*
X56755826Y-49660295D02*
X56755826Y-49803152D01*
X56755826Y-49803152D02*
X56708207Y-49898390D01*
X56708207Y-49898390D02*
X56660588Y-49946009D01*
X56660588Y-49946009D02*
X56565350Y-49993628D01*
X56565350Y-49993628D02*
X56184398Y-49993628D01*
X57041541Y-49469819D02*
X57612969Y-49469819D01*
X57327255Y-50469819D02*
X57327255Y-49469819D01*
X57946303Y-50088866D02*
X58708208Y-50088866D01*
X59041541Y-49469819D02*
X59374874Y-50469819D01*
X59374874Y-50469819D02*
X59708207Y-49469819D01*
X60041541Y-49946009D02*
X60374874Y-49946009D01*
X60517731Y-50469819D02*
X60041541Y-50469819D01*
X60041541Y-50469819D02*
X60041541Y-49469819D01*
X60041541Y-49469819D02*
X60517731Y-49469819D01*
X60946303Y-50469819D02*
X60946303Y-49469819D01*
X60946303Y-49469819D02*
X61279636Y-50184104D01*
X61279636Y-50184104D02*
X61612969Y-49469819D01*
X61612969Y-49469819D02*
X61612969Y-50469819D01*
X62089160Y-50469819D02*
X62089160Y-49469819D01*
X62089160Y-49469819D02*
X62327255Y-49469819D01*
X62327255Y-49469819D02*
X62470112Y-49517438D01*
X62470112Y-49517438D02*
X62565350Y-49612676D01*
X62565350Y-49612676D02*
X62612969Y-49707914D01*
X62612969Y-49707914D02*
X62660588Y-49898390D01*
X62660588Y-49898390D02*
X62660588Y-50041247D01*
X62660588Y-50041247D02*
X62612969Y-50231723D01*
X62612969Y-50231723D02*
X62565350Y-50326961D01*
X62565350Y-50326961D02*
X62470112Y-50422200D01*
X62470112Y-50422200D02*
X62327255Y-50469819D01*
X62327255Y-50469819D02*
X62089160Y-50469819D01*
X63755827Y-49803152D02*
X63993922Y-50469819D01*
X63993922Y-50469819D02*
X64232017Y-49803152D01*
X65136779Y-50469819D02*
X64565351Y-50469819D01*
X64851065Y-50469819D02*
X64851065Y-49469819D01*
X64851065Y-49469819D02*
X64755827Y-49612676D01*
X64755827Y-49612676D02*
X64660589Y-49707914D01*
X64660589Y-49707914D02*
X64565351Y-49755533D01*
X65565351Y-50374580D02*
X65612970Y-50422200D01*
X65612970Y-50422200D02*
X65565351Y-50469819D01*
X65565351Y-50469819D02*
X65517732Y-50422200D01*
X65517732Y-50422200D02*
X65565351Y-50374580D01*
X65565351Y-50374580D02*
X65565351Y-50469819D01*
X66232017Y-49469819D02*
X66327255Y-49469819D01*
X66327255Y-49469819D02*
X66422493Y-49517438D01*
X66422493Y-49517438D02*
X66470112Y-49565057D01*
X66470112Y-49565057D02*
X66517731Y-49660295D01*
X66517731Y-49660295D02*
X66565350Y-49850771D01*
X66565350Y-49850771D02*
X66565350Y-50088866D01*
X66565350Y-50088866D02*
X66517731Y-50279342D01*
X66517731Y-50279342D02*
X66470112Y-50374580D01*
X66470112Y-50374580D02*
X66422493Y-50422200D01*
X66422493Y-50422200D02*
X66327255Y-50469819D01*
X66327255Y-50469819D02*
X66232017Y-50469819D01*
X66232017Y-50469819D02*
X66136779Y-50422200D01*
X66136779Y-50422200D02*
X66089160Y-50374580D01*
X66089160Y-50374580D02*
X66041541Y-50279342D01*
X66041541Y-50279342D02*
X65993922Y-50088866D01*
X65993922Y-50088866D02*
X65993922Y-49850771D01*
X65993922Y-49850771D02*
X66041541Y-49660295D01*
X66041541Y-49660295D02*
X66089160Y-49565057D01*
X66089160Y-49565057D02*
X66136779Y-49517438D01*
X66136779Y-49517438D02*
X66232017Y-49469819D01*
X68517732Y-49946009D02*
X68851065Y-49946009D01*
X68993922Y-50469819D02*
X68517732Y-50469819D01*
X68517732Y-50469819D02*
X68517732Y-49469819D01*
X68517732Y-49469819D02*
X68993922Y-49469819D01*
X69374875Y-50422200D02*
X69517732Y-50469819D01*
X69517732Y-50469819D02*
X69755827Y-50469819D01*
X69755827Y-50469819D02*
X69851065Y-50422200D01*
X69851065Y-50422200D02*
X69898684Y-50374580D01*
X69898684Y-50374580D02*
X69946303Y-50279342D01*
X69946303Y-50279342D02*
X69946303Y-50184104D01*
X69946303Y-50184104D02*
X69898684Y-50088866D01*
X69898684Y-50088866D02*
X69851065Y-50041247D01*
X69851065Y-50041247D02*
X69755827Y-49993628D01*
X69755827Y-49993628D02*
X69565351Y-49946009D01*
X69565351Y-49946009D02*
X69470113Y-49898390D01*
X69470113Y-49898390D02*
X69422494Y-49850771D01*
X69422494Y-49850771D02*
X69374875Y-49755533D01*
X69374875Y-49755533D02*
X69374875Y-49660295D01*
X69374875Y-49660295D02*
X69422494Y-49565057D01*
X69422494Y-49565057D02*
X69470113Y-49517438D01*
X69470113Y-49517438D02*
X69565351Y-49469819D01*
X69565351Y-49469819D02*
X69803446Y-49469819D01*
X69803446Y-49469819D02*
X69946303Y-49517438D01*
X70374875Y-50469819D02*
X70374875Y-49469819D01*
X70374875Y-49946009D02*
X70946303Y-49946009D01*
X70946303Y-50469819D02*
X70946303Y-49469819D01*
X73660590Y-49565057D02*
X73708209Y-49517438D01*
X73708209Y-49517438D02*
X73803447Y-49469819D01*
X73803447Y-49469819D02*
X74041542Y-49469819D01*
X74041542Y-49469819D02*
X74136780Y-49517438D01*
X74136780Y-49517438D02*
X74184399Y-49565057D01*
X74184399Y-49565057D02*
X74232018Y-49660295D01*
X74232018Y-49660295D02*
X74232018Y-49755533D01*
X74232018Y-49755533D02*
X74184399Y-49898390D01*
X74184399Y-49898390D02*
X73612971Y-50469819D01*
X73612971Y-50469819D02*
X74232018Y-50469819D01*
X74851066Y-49469819D02*
X74946304Y-49469819D01*
X74946304Y-49469819D02*
X75041542Y-49517438D01*
X75041542Y-49517438D02*
X75089161Y-49565057D01*
X75089161Y-49565057D02*
X75136780Y-49660295D01*
X75136780Y-49660295D02*
X75184399Y-49850771D01*
X75184399Y-49850771D02*
X75184399Y-50088866D01*
X75184399Y-50088866D02*
X75136780Y-50279342D01*
X75136780Y-50279342D02*
X75089161Y-50374580D01*
X75089161Y-50374580D02*
X75041542Y-50422200D01*
X75041542Y-50422200D02*
X74946304Y-50469819D01*
X74946304Y-50469819D02*
X74851066Y-50469819D01*
X74851066Y-50469819D02*
X74755828Y-50422200D01*
X74755828Y-50422200D02*
X74708209Y-50374580D01*
X74708209Y-50374580D02*
X74660590Y-50279342D01*
X74660590Y-50279342D02*
X74612971Y-50088866D01*
X74612971Y-50088866D02*
X74612971Y-49850771D01*
X74612971Y-49850771D02*
X74660590Y-49660295D01*
X74660590Y-49660295D02*
X74708209Y-49565057D01*
X74708209Y-49565057D02*
X74755828Y-49517438D01*
X74755828Y-49517438D02*
X74851066Y-49469819D01*
X75565352Y-49565057D02*
X75612971Y-49517438D01*
X75612971Y-49517438D02*
X75708209Y-49469819D01*
X75708209Y-49469819D02*
X75946304Y-49469819D01*
X75946304Y-49469819D02*
X76041542Y-49517438D01*
X76041542Y-49517438D02*
X76089161Y-49565057D01*
X76089161Y-49565057D02*
X76136780Y-49660295D01*
X76136780Y-49660295D02*
X76136780Y-49755533D01*
X76136780Y-49755533D02*
X76089161Y-49898390D01*
X76089161Y-49898390D02*
X75517733Y-50469819D01*
X75517733Y-50469819D02*
X76136780Y-50469819D01*
X76470114Y-49469819D02*
X77089161Y-49469819D01*
X77089161Y-49469819D02*
X76755828Y-49850771D01*
X76755828Y-49850771D02*
X76898685Y-49850771D01*
X76898685Y-49850771D02*
X76993923Y-49898390D01*
X76993923Y-49898390D02*
X77041542Y-49946009D01*
X77041542Y-49946009D02*
X77089161Y-50041247D01*
X77089161Y-50041247D02*
X77089161Y-50279342D01*
X77089161Y-50279342D02*
X77041542Y-50374580D01*
X77041542Y-50374580D02*
X76993923Y-50422200D01*
X76993923Y-50422200D02*
X76898685Y-50469819D01*
X76898685Y-50469819D02*
X76612971Y-50469819D01*
X76612971Y-50469819D02*
X76517733Y-50422200D01*
X76517733Y-50422200D02*
X76470114Y-50374580D01*
X77517733Y-50088866D02*
X78279638Y-50088866D01*
X78946304Y-49469819D02*
X79041542Y-49469819D01*
X79041542Y-49469819D02*
X79136780Y-49517438D01*
X79136780Y-49517438D02*
X79184399Y-49565057D01*
X79184399Y-49565057D02*
X79232018Y-49660295D01*
X79232018Y-49660295D02*
X79279637Y-49850771D01*
X79279637Y-49850771D02*
X79279637Y-50088866D01*
X79279637Y-50088866D02*
X79232018Y-50279342D01*
X79232018Y-50279342D02*
X79184399Y-50374580D01*
X79184399Y-50374580D02*
X79136780Y-50422200D01*
X79136780Y-50422200D02*
X79041542Y-50469819D01*
X79041542Y-50469819D02*
X78946304Y-50469819D01*
X78946304Y-50469819D02*
X78851066Y-50422200D01*
X78851066Y-50422200D02*
X78803447Y-50374580D01*
X78803447Y-50374580D02*
X78755828Y-50279342D01*
X78755828Y-50279342D02*
X78708209Y-50088866D01*
X78708209Y-50088866D02*
X78708209Y-49850771D01*
X78708209Y-49850771D02*
X78755828Y-49660295D01*
X78755828Y-49660295D02*
X78803447Y-49565057D01*
X78803447Y-49565057D02*
X78851066Y-49517438D01*
X78851066Y-49517438D02*
X78946304Y-49469819D01*
X80136780Y-49469819D02*
X79946304Y-49469819D01*
X79946304Y-49469819D02*
X79851066Y-49517438D01*
X79851066Y-49517438D02*
X79803447Y-49565057D01*
X79803447Y-49565057D02*
X79708209Y-49707914D01*
X79708209Y-49707914D02*
X79660590Y-49898390D01*
X79660590Y-49898390D02*
X79660590Y-50279342D01*
X79660590Y-50279342D02*
X79708209Y-50374580D01*
X79708209Y-50374580D02*
X79755828Y-50422200D01*
X79755828Y-50422200D02*
X79851066Y-50469819D01*
X79851066Y-50469819D02*
X80041542Y-50469819D01*
X80041542Y-50469819D02*
X80136780Y-50422200D01*
X80136780Y-50422200D02*
X80184399Y-50374580D01*
X80184399Y-50374580D02*
X80232018Y-50279342D01*
X80232018Y-50279342D02*
X80232018Y-50041247D01*
X80232018Y-50041247D02*
X80184399Y-49946009D01*
X80184399Y-49946009D02*
X80136780Y-49898390D01*
X80136780Y-49898390D02*
X80041542Y-49850771D01*
X80041542Y-49850771D02*
X79851066Y-49850771D01*
X79851066Y-49850771D02*
X79755828Y-49898390D01*
X79755828Y-49898390D02*
X79708209Y-49946009D01*
X79708209Y-49946009D02*
X79660590Y-50041247D01*
D11*
%TO.C,D1*%
X49827428Y-46912764D02*
X49827428Y-46162764D01*
X49827428Y-46162764D02*
X50005999Y-46162764D01*
X50005999Y-46162764D02*
X50113142Y-46198478D01*
X50113142Y-46198478D02*
X50184571Y-46269907D01*
X50184571Y-46269907D02*
X50220285Y-46341335D01*
X50220285Y-46341335D02*
X50255999Y-46484192D01*
X50255999Y-46484192D02*
X50255999Y-46591335D01*
X50255999Y-46591335D02*
X50220285Y-46734192D01*
X50220285Y-46734192D02*
X50184571Y-46805621D01*
X50184571Y-46805621D02*
X50113142Y-46877050D01*
X50113142Y-46877050D02*
X50005999Y-46912764D01*
X50005999Y-46912764D02*
X49827428Y-46912764D01*
X50970285Y-46912764D02*
X50541714Y-46912764D01*
X50755999Y-46912764D02*
X50755999Y-46162764D01*
X50755999Y-46162764D02*
X50684571Y-46269907D01*
X50684571Y-46269907D02*
X50613142Y-46341335D01*
X50613142Y-46341335D02*
X50541714Y-46377050D01*
D10*
%TO.C,J1*%
X394541666Y-49479819D02*
X394541666Y-50194104D01*
X394541666Y-50194104D02*
X394494047Y-50336961D01*
X394494047Y-50336961D02*
X394398809Y-50432200D01*
X394398809Y-50432200D02*
X394255952Y-50479819D01*
X394255952Y-50479819D02*
X394160714Y-50479819D01*
X395541666Y-50479819D02*
X394970238Y-50479819D01*
X395255952Y-50479819D02*
X395255952Y-49479819D01*
X395255952Y-49479819D02*
X395160714Y-49622676D01*
X395160714Y-49622676D02*
X395065476Y-49717914D01*
X395065476Y-49717914D02*
X394970238Y-49765533D01*
D11*
%TO.C,D1*%
X47950000Y-47400000D02*
X52050000Y-47400000D01*
X47950000Y-52600000D02*
X47950000Y-47400000D01*
X48700000Y-48850000D02*
X50200000Y-48850000D01*
X48700000Y-51100000D02*
X48700000Y-48850000D01*
X50200000Y-48850000D02*
X51200000Y-49850000D01*
X51200000Y-49850000D02*
X51200000Y-51100000D01*
X51200000Y-51100000D02*
X48700000Y-51100000D01*
X52050000Y-47400000D02*
X52050000Y-52600000D01*
X52050000Y-52600000D02*
X47950000Y-52600000D01*
%TO.C,J1*%
X396809000Y-48984000D02*
X397444000Y-49365000D01*
X396809000Y-49746000D02*
X396809000Y-48984000D01*
X397444000Y-49365000D02*
X396809000Y-49746000D01*
D12*
X397910000Y-48735000D02*
X399235000Y-48735000D01*
X399235000Y-48670000D02*
X399235000Y-48735000D01*
X399235000Y-48670000D02*
X402765000Y-48670000D01*
X399235000Y-51265000D02*
X399235000Y-51330000D01*
X399235000Y-51330000D02*
X402765000Y-51330000D01*
X402765000Y-48670000D02*
X402765000Y-48735000D01*
X402765000Y-51265000D02*
X402765000Y-51330000D01*
%TD*%
M02*
