%TF.GenerationSoftware,KiCad,Pcbnew,7.0.5-4d25ed1034~172~ubuntu22.04.1*%
%TF.CreationDate,2023-06-14T10:31:06-04:00*%
%TF.ProjectId,flex-VEMD,666c6578-2d56-4454-9d44-2e6b69636164,rev?*%
%TF.SameCoordinates,Original*%
%TF.FileFunction,Legend,Bot*%
%TF.FilePolarity,Positive*%
%FSLAX46Y46*%
G04 Gerber Fmt 4.6, Leading zero omitted, Abs format (unit mm)*
G04 Created by KiCad (PCBNEW 7.0.5-4d25ed1034~172~ubuntu22.04.1) date 2023-06-14 10:31:06*
%MOMM*%
%LPD*%
G01*
G04 APERTURE LIST*
%ADD10C,0.100000*%
%ADD11C,0.120000*%
G04 APERTURE END LIST*
D10*
%TO.C,C1*%
X46823000Y-49762335D02*
X46858714Y-49798050D01*
X46858714Y-49798050D02*
X46965857Y-49833764D01*
X46965857Y-49833764D02*
X47037285Y-49833764D01*
X47037285Y-49833764D02*
X47144428Y-49798050D01*
X47144428Y-49798050D02*
X47215857Y-49726621D01*
X47215857Y-49726621D02*
X47251571Y-49655192D01*
X47251571Y-49655192D02*
X47287285Y-49512335D01*
X47287285Y-49512335D02*
X47287285Y-49405192D01*
X47287285Y-49405192D02*
X47251571Y-49262335D01*
X47251571Y-49262335D02*
X47215857Y-49190907D01*
X47215857Y-49190907D02*
X47144428Y-49119478D01*
X47144428Y-49119478D02*
X47037285Y-49083764D01*
X47037285Y-49083764D02*
X46965857Y-49083764D01*
X46965857Y-49083764D02*
X46858714Y-49119478D01*
X46858714Y-49119478D02*
X46823000Y-49155192D01*
X46108714Y-49833764D02*
X46537285Y-49833764D01*
X46323000Y-49833764D02*
X46323000Y-49083764D01*
X46323000Y-49083764D02*
X46394428Y-49190907D01*
X46394428Y-49190907D02*
X46465857Y-49262335D01*
X46465857Y-49262335D02*
X46537285Y-49298050D01*
%TO.C,U1*%
X49901428Y-46064764D02*
X49901428Y-46671907D01*
X49901428Y-46671907D02*
X49865714Y-46743335D01*
X49865714Y-46743335D02*
X49830000Y-46779050D01*
X49830000Y-46779050D02*
X49758571Y-46814764D01*
X49758571Y-46814764D02*
X49615714Y-46814764D01*
X49615714Y-46814764D02*
X49544285Y-46779050D01*
X49544285Y-46779050D02*
X49508571Y-46743335D01*
X49508571Y-46743335D02*
X49472857Y-46671907D01*
X49472857Y-46671907D02*
X49472857Y-46064764D01*
X48722857Y-46814764D02*
X49151428Y-46814764D01*
X48937143Y-46814764D02*
X48937143Y-46064764D01*
X48937143Y-46064764D02*
X49008571Y-46171907D01*
X49008571Y-46171907D02*
X49080000Y-46243335D01*
X49080000Y-46243335D02*
X49151428Y-46279050D01*
D11*
%TO.C,C1*%
X48836000Y-49892164D02*
X48836000Y-50107836D01*
X48116000Y-49892164D02*
X48116000Y-50107836D01*
D10*
%TO.C,U1*%
X51600000Y-51000000D02*
X49600000Y-51000000D01*
X51600000Y-49000000D02*
X49600000Y-49000000D01*
X51600000Y-48550000D02*
X51150000Y-49000000D01*
X51150000Y-49000000D02*
X50700000Y-48550000D01*
X50700000Y-48550000D02*
X51600000Y-48550000D01*
%TD*%
M02*
