%TF.GenerationSoftware,KiCad,Pcbnew,7.0.5-4d25ed1034~172~ubuntu22.04.1*%
%TF.CreationDate,2023-06-01T08:36:11-04:00*%
%TF.ProjectId,trigger-board,74726967-6765-4722-9d62-6f6172642e6b,rev?*%
%TF.SameCoordinates,Original*%
%TF.FileFunction,Copper,L2,Bot*%
%TF.FilePolarity,Positive*%
%FSLAX46Y46*%
G04 Gerber Fmt 4.6, Leading zero omitted, Abs format (unit mm)*
G04 Created by KiCad (PCBNEW 7.0.5-4d25ed1034~172~ubuntu22.04.1) date 2023-06-01 08:36:11*
%MOMM*%
%LPD*%
G01*
G04 APERTURE LIST*
%TA.AperFunction,ComponentPad*%
%ADD10C,1.600200*%
%TD*%
%TA.AperFunction,ComponentPad*%
%ADD11R,1.700000X1.700000*%
%TD*%
%TA.AperFunction,ComponentPad*%
%ADD12O,1.700000X1.700000*%
%TD*%
%TA.AperFunction,ComponentPad*%
%ADD13O,1.000000X1.900000*%
%TD*%
%TA.AperFunction,ComponentPad*%
%ADD14O,1.050000X1.250000*%
%TD*%
%TA.AperFunction,ComponentPad*%
%ADD15O,1.600000X2.500000*%
%TD*%
%TA.AperFunction,ComponentPad*%
%ADD16O,3.500000X7.000000*%
%TD*%
%TA.AperFunction,ViaPad*%
%ADD17C,0.812800*%
%TD*%
%TA.AperFunction,Conductor*%
%ADD18C,0.254000*%
%TD*%
G04 APERTURE END LIST*
D10*
%TO.P,SW1,1,1*%
%TO.N,Net-(R3-Pad1)*%
X62524000Y-54108800D03*
%TO.P,SW1,2,2*%
%TO.N,Net-(C1-Pad1)*%
X67604000Y-54108800D03*
%TO.P,SW1,3*%
%TO.N,N/C*%
X62524000Y-49028800D03*
%TO.P,SW1,4*%
X67604000Y-49028800D03*
%TD*%
D11*
%TO.P,J6,1,Pin_1*%
%TO.N,GND*%
X80401000Y-130607800D03*
D12*
%TO.P,J6,2,Pin_2*%
%TO.N,+5V*%
X82941000Y-130607800D03*
%TO.P,J6,3,Pin_3*%
%TO.N,/TX4*%
X85481000Y-130607800D03*
%TO.P,J6,4,Pin_4*%
%TO.N,/TX3*%
X88021000Y-130607800D03*
%TO.P,J6,5,Pin_5*%
%TO.N,/TX2*%
X90561000Y-130607800D03*
%TO.P,J6,6,Pin_6*%
%TO.N,/TX1*%
X93101000Y-130607800D03*
%TO.P,J6,7,Pin_7*%
%TO.N,Net-(AE1-A)*%
X95641000Y-130607800D03*
%TD*%
D13*
%TO.P,J5,6,Shield*%
%TO.N,GND*%
X41855000Y-43869000D03*
D14*
X39905000Y-46869000D03*
X35455000Y-46869000D03*
D13*
X33505000Y-43869000D03*
%TD*%
D15*
%TO.P,J2,1,In*%
%TO.N,Net-(J2-In)*%
X77002000Y-55378800D03*
D16*
%TO.P,J2,2,Ext*%
%TO.N,GND*%
X71922000Y-50298800D03*
D15*
X74462000Y-55378800D03*
D16*
X82082000Y-50298800D03*
%TD*%
D10*
%TO.P,SW2,1,1*%
%TO.N,Net-(R2-Pad1)*%
X87924000Y-54108800D03*
%TO.P,SW2,2,2*%
%TO.N,Net-(C2-Pad1)*%
X93004000Y-54108800D03*
%TO.P,SW2,3*%
%TO.N,N/C*%
X87924000Y-49028800D03*
%TO.P,SW2,4*%
X93004000Y-49028800D03*
%TD*%
%TO.P,SW3,1,1*%
%TO.N,Net-(R13-Pad1)*%
X113197000Y-53981800D03*
%TO.P,SW3,2,2*%
%TO.N,Net-(C3-Pad1)*%
X118277000Y-53981800D03*
%TO.P,SW3,3*%
%TO.N,N/C*%
X113197000Y-48901800D03*
%TO.P,SW3,4*%
X118277000Y-48901800D03*
%TD*%
D15*
%TO.P,J3,1,In*%
%TO.N,Net-(J3-In)*%
X102402000Y-55378800D03*
D16*
%TO.P,J3,2,Ext*%
%TO.N,GND*%
X97322000Y-50298800D03*
D15*
X99862000Y-55378800D03*
D16*
X107482000Y-50298800D03*
%TD*%
D15*
%TO.P,J4,1,In*%
%TO.N,Net-(J4-In)*%
X127802000Y-55378800D03*
D16*
%TO.P,J4,2,Ext*%
%TO.N,GND*%
X122722000Y-50298800D03*
D15*
X125262000Y-55378800D03*
D16*
X132882000Y-50298800D03*
%TD*%
D11*
%TO.P,JP1,1,A*%
%TO.N,Net-(JP1-A)*%
X39918000Y-65538800D03*
D12*
%TO.P,JP1,2,C*%
%TO.N,+5V*%
X37378000Y-65538800D03*
%TO.P,JP1,3,B*%
%TO.N,Net-(JP1-B)*%
X34838000Y-65538800D03*
%TD*%
D11*
%TO.P,AE1,1,A*%
%TO.N,Net-(AE1-A)*%
X102743000Y-130556000D03*
%TD*%
D10*
%TO.P,SW4,1,1*%
%TO.N,Net-(R19-Pad1)*%
X138851000Y-54108800D03*
%TO.P,SW4,2,2*%
%TO.N,Net-(C4-Pad1)*%
X143931000Y-54108800D03*
%TO.P,SW4,3*%
%TO.N,N/C*%
X138851000Y-49028800D03*
%TO.P,SW4,4*%
X143931000Y-49028800D03*
%TD*%
D15*
%TO.P,J1,1,In*%
%TO.N,Net-(J1-In)*%
X51602000Y-55378800D03*
D16*
%TO.P,J1,2,Ext*%
%TO.N,GND*%
X46522000Y-50298800D03*
D15*
X49062000Y-55378800D03*
D16*
X56682000Y-50298800D03*
%TD*%
D17*
%TO.N,Net-(C1-Pad1)*%
X71882000Y-77216000D03*
X85598000Y-97536000D03*
X71882000Y-97536000D03*
X65870000Y-77216000D03*
%TO.N,GND*%
X115316000Y-78613000D03*
X135509000Y-67818000D03*
X69342000Y-78740000D03*
X85217000Y-70739000D03*
X93218000Y-78740000D03*
X34290000Y-74422000D03*
X143002000Y-70866000D03*
X48387000Y-63754000D03*
X107696000Y-67818000D03*
X79248000Y-121793000D03*
X88308000Y-106891000D03*
X79248000Y-125095000D03*
X37693000Y-43815000D03*
X91572500Y-69855500D03*
X115189000Y-70866000D03*
X41529000Y-75057000D03*
X123698000Y-63627000D03*
X61087000Y-70739000D03*
X85217000Y-67945000D03*
X135382000Y-70739000D03*
X88395200Y-94738800D03*
X28829000Y-44577000D03*
X35179000Y-78232000D03*
X74549000Y-63119000D03*
X29464000Y-75438000D03*
X107442000Y-70612000D03*
X66294000Y-70231000D03*
X143002000Y-78613000D03*
X61087000Y-67945000D03*
X96012000Y-63373000D03*
%TO.N,Net-(C2-Pad1)*%
X89916000Y-80899000D03*
X81407000Y-80772000D03*
X86106000Y-101854000D03*
X89916000Y-77089000D03*
X94234000Y-77089000D03*
X81534000Y-102108000D03*
%TO.N,Net-(C3-Pad1)*%
X111633000Y-77089000D03*
X96139000Y-104521000D03*
X111379000Y-104521000D03*
X118277000Y-77176000D03*
%TO.N,Net-(C4-Pad1)*%
X139446000Y-77089000D03*
X139275236Y-89281000D03*
X96266000Y-100203000D03*
X146685000Y-76962000D03*
%TO.N,Net-(D1-K)*%
X60325000Y-60706000D03*
X55499000Y-60579000D03*
%TO.N,Net-(D1-A)*%
X54102000Y-61595000D03*
X65278000Y-61722000D03*
%TO.N,Net-(D2-K)*%
X80264000Y-59436000D03*
X85725000Y-59436000D03*
%TO.N,Net-(D2-A)*%
X89662000Y-61214000D03*
X78613000Y-61087000D03*
%TO.N,Net-(D3-K)*%
X103378000Y-58420000D03*
X111252000Y-58801000D03*
%TO.N,Net-(D3-A)*%
X101473000Y-60198000D03*
X115951000Y-60198000D03*
%TO.N,Net-(D4-K)*%
X130175000Y-59817000D03*
X136525000Y-59690000D03*
%TO.N,Net-(D4-A)*%
X129032000Y-61468000D03*
X141351000Y-61468000D03*
%TO.N,Net-(J1-In)*%
X51562000Y-63119000D03*
X59690000Y-63119000D03*
X85852000Y-99441000D03*
X73279000Y-64389000D03*
X73152000Y-99441000D03*
%TO.N,Net-(J2-In)*%
X77216000Y-103124000D03*
X85598000Y-103124000D03*
X76962000Y-62865000D03*
X81788000Y-62865000D03*
%TO.N,Net-(J3-In)*%
X95123000Y-103124000D03*
X103886000Y-61214000D03*
X99314000Y-103124000D03*
X99314000Y-61087000D03*
%TO.N,Net-(J4-In)*%
X96012000Y-98806000D03*
X127889000Y-63373000D03*
X122555000Y-96647000D03*
X132207000Y-63373000D03*
%TO.N,/TX1*%
X64389000Y-116459000D03*
X93091000Y-116459000D03*
%TO.N,/TX2*%
X90551000Y-118999000D03*
X102108000Y-118745000D03*
X87884000Y-90424000D03*
X102171500Y-90233500D03*
%TO.N,/TX3*%
X88011000Y-123952000D03*
X109982000Y-123825000D03*
%TO.N,/TX4*%
X85471000Y-126238000D03*
X135763000Y-124841000D03*
%TO.N,Net-(R1-Pad1)*%
X59817000Y-100838000D03*
X84963000Y-100711000D03*
%TO.N,Net-(R13-Pad1)*%
X104140000Y-66294000D03*
X113197000Y-65572000D03*
%TO.N,Net-(R16-Pad1)*%
X106045000Y-105791000D03*
X95123000Y-105664000D03*
%TO.N,Net-(R10-Pad1)*%
X83820000Y-104521000D03*
X86741000Y-104521000D03*
%TO.N,Net-(R19-Pad1)*%
X131445000Y-58674000D03*
X138938000Y-58547000D03*
%TO.N,Net-(R22-Pad1)*%
X96139000Y-101854000D03*
X133858000Y-100076000D03*
%TD*%
D18*
%TO.N,Net-(C1-Pad1)*%
X71882000Y-97536000D02*
X85598000Y-97536000D01*
X65870000Y-77216000D02*
X71882000Y-77216000D01*
%TO.N,Net-(C2-Pad1)*%
X81534000Y-102108000D02*
X85852000Y-102108000D01*
X89916000Y-80899000D02*
X81534000Y-80899000D01*
X81534000Y-80899000D02*
X81407000Y-80772000D01*
X85852000Y-102108000D02*
X86106000Y-101854000D01*
X94234000Y-77089000D02*
X89916000Y-77089000D01*
%TO.N,Net-(C3-Pad1)*%
X111379000Y-104521000D02*
X96139000Y-104521000D01*
X118277000Y-77176000D02*
X118190000Y-77089000D01*
X118190000Y-77089000D02*
X111633000Y-77089000D01*
%TO.N,Net-(C4-Pad1)*%
X146685000Y-76962000D02*
X139573000Y-76962000D01*
X139275236Y-89281000D02*
X133858000Y-94698236D01*
X133858000Y-94742000D02*
X130251824Y-98348176D01*
X133858000Y-94698236D02*
X133858000Y-94742000D01*
X139573000Y-76962000D02*
X139446000Y-77089000D01*
X98120824Y-98348176D02*
X96266000Y-100203000D01*
X130251824Y-98348176D02*
X98120824Y-98348176D01*
%TO.N,Net-(D1-K)*%
X60325000Y-60706000D02*
X55626000Y-60706000D01*
X55626000Y-60706000D02*
X55499000Y-60579000D01*
%TO.N,Net-(D1-A)*%
X54229000Y-61722000D02*
X54102000Y-61595000D01*
X65278000Y-61722000D02*
X54229000Y-61722000D01*
%TO.N,Net-(D2-K)*%
X85725000Y-59436000D02*
X80264000Y-59436000D01*
%TO.N,Net-(D2-A)*%
X89662000Y-61214000D02*
X78740000Y-61214000D01*
X78740000Y-61214000D02*
X78613000Y-61087000D01*
%TO.N,Net-(D3-K)*%
X111252000Y-58801000D02*
X103759000Y-58801000D01*
X103759000Y-58801000D02*
X103378000Y-58420000D01*
%TO.N,Net-(D3-A)*%
X115951000Y-60198000D02*
X101473000Y-60198000D01*
%TO.N,Net-(D4-K)*%
X130302000Y-59690000D02*
X136525000Y-59690000D01*
X130175000Y-59817000D02*
X130302000Y-59690000D01*
%TO.N,Net-(D4-A)*%
X141351000Y-61468000D02*
X129032000Y-61468000D01*
%TO.N,Net-(J1-In)*%
X59690000Y-63119000D02*
X72009000Y-63119000D01*
X72009000Y-63119000D02*
X73279000Y-64389000D01*
X59690000Y-63119000D02*
X51562000Y-63119000D01*
X73152000Y-99441000D02*
X85852000Y-99441000D01*
%TO.N,Net-(J2-In)*%
X81788000Y-62865000D02*
X76962000Y-62865000D01*
X77216000Y-103124000D02*
X85598000Y-103124000D01*
%TO.N,Net-(J3-In)*%
X99314000Y-103124000D02*
X95123000Y-103124000D01*
X99441000Y-61214000D02*
X103886000Y-61214000D01*
X99314000Y-61087000D02*
X99441000Y-61214000D01*
%TO.N,Net-(J4-In)*%
X96012000Y-98806000D02*
X98171000Y-96647000D01*
X127889000Y-63373000D02*
X132207000Y-63373000D01*
X98171000Y-96647000D02*
X122555000Y-96647000D01*
%TO.N,/TX1*%
X64389000Y-116459000D02*
X93091000Y-116459000D01*
%TO.N,/TX2*%
X90805000Y-118745000D02*
X90551000Y-118999000D01*
X101981000Y-90424000D02*
X102171500Y-90233500D01*
X87884000Y-90424000D02*
X101981000Y-90424000D01*
X102108000Y-118745000D02*
X90805000Y-118745000D01*
%TO.N,/TX3*%
X88138000Y-123825000D02*
X88011000Y-123952000D01*
X109982000Y-123825000D02*
X88138000Y-123825000D01*
%TO.N,/TX4*%
X86868000Y-124841000D02*
X85471000Y-126238000D01*
X135763000Y-124841000D02*
X86868000Y-124841000D01*
%TO.N,Net-(R1-Pad1)*%
X84836000Y-100838000D02*
X84963000Y-100711000D01*
X59817000Y-100838000D02*
X84836000Y-100838000D01*
%TO.N,Net-(R13-Pad1)*%
X113197000Y-65572000D02*
X112475000Y-66294000D01*
X112475000Y-66294000D02*
X104140000Y-66294000D01*
%TO.N,Net-(R16-Pad1)*%
X95250000Y-105791000D02*
X95123000Y-105664000D01*
X106045000Y-105791000D02*
X95250000Y-105791000D01*
%TO.N,Net-(R10-Pad1)*%
X83820000Y-104521000D02*
X86741000Y-104521000D01*
%TO.N,Net-(R19-Pad1)*%
X131572000Y-58547000D02*
X131445000Y-58674000D01*
X138938000Y-58547000D02*
X131572000Y-58547000D01*
%TO.N,Net-(R22-Pad1)*%
X97917000Y-100076000D02*
X96139000Y-101854000D01*
X133858000Y-100076000D02*
X97917000Y-100076000D01*
%TD*%
%TA.AperFunction,Conductor*%
%TO.N,GND*%
G36*
X33205000Y-44119000D02*
G01*
X32505000Y-44119000D01*
X32505000Y-44369713D01*
X32520418Y-44521338D01*
X32581299Y-44715381D01*
X32581304Y-44715391D01*
X32680005Y-44893215D01*
X32680005Y-44893216D01*
X32812478Y-45047530D01*
X32812479Y-45047531D01*
X32973304Y-45172018D01*
X33155902Y-45261586D01*
X33155903Y-45261587D01*
X33254999Y-45287244D01*
X33254999Y-44385110D01*
X33279457Y-44424610D01*
X33368962Y-44492201D01*
X33476840Y-44522895D01*
X33588521Y-44512546D01*
X33677027Y-44468474D01*
X33722278Y-44615173D01*
X33742720Y-44657622D01*
X33755000Y-44711422D01*
X33755000Y-45292365D01*
X33756944Y-45292069D01*
X33756945Y-45292069D01*
X33947660Y-45221436D01*
X33947663Y-45221435D01*
X33976925Y-45203195D01*
X34044229Y-45184437D01*
X34110991Y-45205044D01*
X34133417Y-45224082D01*
X34148534Y-45240374D01*
X34347213Y-45398816D01*
X34567287Y-45525876D01*
X34803841Y-45618716D01*
X34920987Y-45645454D01*
X34981966Y-45679562D01*
X35014824Y-45741224D01*
X35009129Y-45810861D01*
X34966689Y-45866365D01*
X34951849Y-45875703D01*
X34882787Y-45912618D01*
X34882784Y-45912620D01*
X34726707Y-46040707D01*
X34598620Y-46196784D01*
X34598615Y-46196790D01*
X34503443Y-46374845D01*
X34444829Y-46568068D01*
X34439812Y-46619000D01*
X35166325Y-46619000D01*
X35144888Y-46656129D01*
X35130000Y-46740564D01*
X35130000Y-46997436D01*
X35144888Y-47081871D01*
X35166325Y-47119000D01*
X34439813Y-47119000D01*
X34444829Y-47169931D01*
X34503443Y-47363154D01*
X34598615Y-47541209D01*
X34598620Y-47541215D01*
X34726707Y-47697292D01*
X34882784Y-47825379D01*
X34882790Y-47825384D01*
X35060846Y-47920557D01*
X35205000Y-47964285D01*
X35205000Y-47183482D01*
X35289993Y-47254801D01*
X35397694Y-47294000D01*
X35512306Y-47294000D01*
X35620007Y-47254801D01*
X35705000Y-47183482D01*
X35705000Y-47964285D01*
X35849153Y-47920557D01*
X36027209Y-47825384D01*
X36027215Y-47825379D01*
X36183292Y-47697292D01*
X36311379Y-47541215D01*
X36311384Y-47541209D01*
X36406556Y-47363154D01*
X36465170Y-47169931D01*
X36470187Y-47119000D01*
X35743675Y-47119000D01*
X35765112Y-47081871D01*
X35780000Y-46997436D01*
X35780000Y-46740564D01*
X35765112Y-46656129D01*
X35743675Y-46619000D01*
X36470187Y-46619000D01*
X36465170Y-46568068D01*
X36406556Y-46374845D01*
X36311384Y-46196790D01*
X36311379Y-46196784D01*
X36183292Y-46040707D01*
X36027215Y-45912620D01*
X36027209Y-45912615D01*
X35853494Y-45819763D01*
X35803649Y-45770801D01*
X35788189Y-45702663D01*
X35812021Y-45636983D01*
X35866645Y-45594977D01*
X36042713Y-45525876D01*
X36262787Y-45398816D01*
X36461466Y-45240374D01*
X36634312Y-45054091D01*
X36777463Y-44844127D01*
X36887722Y-44615173D01*
X36962625Y-44372342D01*
X37000500Y-44121060D01*
X37000500Y-43994000D01*
X37000500Y-43888723D01*
X37000500Y-43813500D01*
X37020185Y-43746461D01*
X37072989Y-43700706D01*
X37124500Y-43689500D01*
X38235500Y-43689500D01*
X38302539Y-43709185D01*
X38348294Y-43761989D01*
X38359500Y-43813500D01*
X38359500Y-44121065D01*
X38378453Y-44246802D01*
X38397375Y-44372342D01*
X38397376Y-44372344D01*
X38397377Y-44372350D01*
X38472278Y-44615173D01*
X38582534Y-44844122D01*
X38582536Y-44844124D01*
X38582537Y-44844127D01*
X38670901Y-44973733D01*
X38725688Y-45054091D01*
X38898529Y-45240370D01*
X38898533Y-45240373D01*
X38898534Y-45240374D01*
X39097213Y-45398816D01*
X39317287Y-45525876D01*
X39442931Y-45575187D01*
X39493354Y-45594977D01*
X39548568Y-45637793D01*
X39571869Y-45703663D01*
X39555858Y-45771673D01*
X39506506Y-45819763D01*
X39332786Y-45912618D01*
X39332784Y-45912620D01*
X39176707Y-46040707D01*
X39048620Y-46196784D01*
X39048615Y-46196790D01*
X38953443Y-46374845D01*
X38894829Y-46568068D01*
X38889812Y-46619000D01*
X39616325Y-46619000D01*
X39594888Y-46656129D01*
X39580000Y-46740564D01*
X39580000Y-46997436D01*
X39594888Y-47081871D01*
X39616325Y-47119000D01*
X38889813Y-47119000D01*
X38894829Y-47169931D01*
X38953443Y-47363154D01*
X39048615Y-47541209D01*
X39048620Y-47541215D01*
X39176707Y-47697292D01*
X39332784Y-47825379D01*
X39332790Y-47825384D01*
X39510846Y-47920557D01*
X39655000Y-47964285D01*
X39655000Y-47183482D01*
X39739993Y-47254801D01*
X39847694Y-47294000D01*
X39962306Y-47294000D01*
X40070007Y-47254801D01*
X40155000Y-47183482D01*
X40155000Y-47964285D01*
X40299153Y-47920557D01*
X40477209Y-47825384D01*
X40477215Y-47825379D01*
X40633292Y-47697292D01*
X40761379Y-47541215D01*
X40761384Y-47541209D01*
X40856556Y-47363154D01*
X40915170Y-47169931D01*
X40920187Y-47119000D01*
X40193675Y-47119000D01*
X40215112Y-47081871D01*
X40230000Y-46997436D01*
X40230000Y-46740564D01*
X40215112Y-46656129D01*
X40193675Y-46619000D01*
X40920187Y-46619000D01*
X40915170Y-46568068D01*
X40856556Y-46374845D01*
X40761384Y-46196790D01*
X40761379Y-46196784D01*
X40633292Y-46040707D01*
X40477215Y-45912620D01*
X40477212Y-45912618D01*
X40408150Y-45875703D01*
X40358306Y-45826740D01*
X40342846Y-45758602D01*
X40366678Y-45692923D01*
X40422236Y-45650554D01*
X40439005Y-45645455D01*
X40556159Y-45618716D01*
X40792713Y-45525876D01*
X41012787Y-45398816D01*
X41211466Y-45240374D01*
X41227312Y-45223295D01*
X41287337Y-45187540D01*
X41357166Y-45189913D01*
X41372821Y-45196307D01*
X41505907Y-45261589D01*
X41605000Y-45287244D01*
X41605000Y-44711422D01*
X41617279Y-44657622D01*
X41637722Y-44615173D01*
X41683835Y-44465674D01*
X41718962Y-44492201D01*
X41826840Y-44522895D01*
X41938521Y-44512546D01*
X42038922Y-44462552D01*
X42105000Y-44390069D01*
X42105000Y-45292366D01*
X42106944Y-45292069D01*
X42106945Y-45292069D01*
X42297660Y-45221436D01*
X42297664Y-45221434D01*
X42470267Y-45113850D01*
X42617668Y-44973735D01*
X42617669Y-44973733D01*
X42733856Y-44806804D01*
X42814059Y-44619907D01*
X42855000Y-44420690D01*
X42855000Y-44119000D01*
X42155000Y-44119000D01*
X42155000Y-43689500D01*
X147703500Y-43689500D01*
X147770539Y-43709185D01*
X147816294Y-43761989D01*
X147827500Y-43813500D01*
X147827500Y-76790001D01*
X147807815Y-76857040D01*
X147755011Y-76902795D01*
X147685853Y-76912739D01*
X147622297Y-76883714D01*
X147584523Y-76824936D01*
X147580180Y-76802970D01*
X147576968Y-76772406D01*
X147533948Y-76640003D01*
X147518060Y-76591104D01*
X147518057Y-76591098D01*
X147516557Y-76588500D01*
X147422739Y-76426002D01*
X147372776Y-76370513D01*
X147295182Y-76284334D01*
X147295179Y-76284332D01*
X147295178Y-76284331D01*
X147295177Y-76284330D01*
X147140948Y-76172276D01*
X147140947Y-76172275D01*
X146966795Y-76094737D01*
X146966790Y-76094735D01*
X146780319Y-76055100D01*
X146589681Y-76055100D01*
X146403209Y-76094735D01*
X146403204Y-76094737D01*
X146229053Y-76172275D01*
X146229048Y-76172278D01*
X146074824Y-76284328D01*
X146074819Y-76284334D01*
X146066592Y-76293470D01*
X146007108Y-76330120D01*
X145974442Y-76334500D01*
X139990720Y-76334500D01*
X139923681Y-76314815D01*
X139917835Y-76310818D01*
X139901952Y-76299278D01*
X139901947Y-76299275D01*
X139727795Y-76221737D01*
X139727790Y-76221735D01*
X139541319Y-76182100D01*
X139350681Y-76182100D01*
X139164209Y-76221735D01*
X139164204Y-76221737D01*
X138990053Y-76299275D01*
X138990048Y-76299278D01*
X138835823Y-76411328D01*
X138835822Y-76411329D01*
X138708260Y-76553003D01*
X138612942Y-76718098D01*
X138612939Y-76718104D01*
X138554033Y-76899402D01*
X138554032Y-76899404D01*
X138534105Y-77089000D01*
X138554032Y-77278595D01*
X138554033Y-77278597D01*
X138612939Y-77459895D01*
X138612942Y-77459901D01*
X138708261Y-77624998D01*
X138721471Y-77639669D01*
X138835817Y-77766665D01*
X138835820Y-77766667D01*
X138835823Y-77766670D01*
X138990051Y-77878723D01*
X138990052Y-77878724D01*
X139164204Y-77956262D01*
X139164209Y-77956264D01*
X139350681Y-77995900D01*
X139541319Y-77995900D01*
X139727791Y-77956264D01*
X139901948Y-77878724D01*
X140056177Y-77766670D01*
X140064409Y-77757528D01*
X140178760Y-77630528D01*
X140238246Y-77593879D01*
X140270910Y-77589500D01*
X145974442Y-77589500D01*
X146041481Y-77609185D01*
X146066591Y-77630527D01*
X146073719Y-77638444D01*
X146074822Y-77639669D01*
X146229052Y-77751724D01*
X146403204Y-77829262D01*
X146403209Y-77829264D01*
X146589681Y-77868900D01*
X146780319Y-77868900D01*
X146966791Y-77829264D01*
X147140948Y-77751724D01*
X147295177Y-77639670D01*
X147303409Y-77630528D01*
X147342690Y-77586901D01*
X147422739Y-77497998D01*
X147518058Y-77332901D01*
X147576968Y-77151594D01*
X147580180Y-77121033D01*
X147606764Y-77056422D01*
X147664061Y-77016437D01*
X147733880Y-77013777D01*
X147794054Y-77049287D01*
X147825477Y-77111691D01*
X147827500Y-77133998D01*
X147827500Y-96004500D01*
X147807815Y-96071539D01*
X147755011Y-96117294D01*
X147703500Y-96128500D01*
X142662259Y-96128500D01*
X142132139Y-96166415D01*
X141606066Y-96242052D01*
X141086750Y-96355022D01*
X141086740Y-96355025D01*
X140576797Y-96504759D01*
X140078814Y-96690497D01*
X139595391Y-96911268D01*
X139595384Y-96911272D01*
X139128917Y-97165982D01*
X139128904Y-97165990D01*
X138681828Y-97453307D01*
X138681804Y-97453324D01*
X138256347Y-97771816D01*
X137854680Y-98119864D01*
X137854654Y-98119888D01*
X137478880Y-98495662D01*
X137478857Y-98495687D01*
X137130822Y-98897341D01*
X136812324Y-99322804D01*
X136812307Y-99322828D01*
X136524990Y-99769904D01*
X136524982Y-99769917D01*
X136270271Y-100236385D01*
X136270267Y-100236392D01*
X136049496Y-100719815D01*
X135863758Y-101217797D01*
X135714025Y-101727740D01*
X135714022Y-101727750D01*
X135601052Y-102247067D01*
X135525415Y-102773139D01*
X135487500Y-103303259D01*
X135487500Y-103834741D01*
X135525415Y-104364861D01*
X135601052Y-104890934D01*
X135714023Y-105410250D01*
X135714026Y-105410260D01*
X135825822Y-105791000D01*
X135863760Y-105920206D01*
X135968116Y-106199996D01*
X136049497Y-106418185D01*
X136270268Y-106901608D01*
X136270272Y-106901615D01*
X136524981Y-107368079D01*
X136812321Y-107815191D01*
X136812324Y-107815196D01*
X137130806Y-108240638D01*
X137130815Y-108240650D01*
X137130820Y-108240656D01*
X137130824Y-108240661D01*
X137478867Y-108642323D01*
X137478881Y-108642337D01*
X137854655Y-109018112D01*
X137854668Y-109018124D01*
X137854678Y-109018134D01*
X137906318Y-109062880D01*
X138256348Y-109366184D01*
X138681805Y-109684676D01*
X138681810Y-109684679D01*
X139128916Y-109972016D01*
X139595382Y-110226726D01*
X139595386Y-110226728D01*
X139595393Y-110226732D01*
X140078818Y-110447504D01*
X140078821Y-110447506D01*
X140078828Y-110447508D01*
X140078829Y-110447509D01*
X140576796Y-110633241D01*
X141086741Y-110782974D01*
X141086751Y-110782977D01*
X141606067Y-110895947D01*
X141606074Y-110895948D01*
X142132141Y-110971585D01*
X142662263Y-111009500D01*
X142813653Y-111009500D01*
X147703500Y-111009500D01*
X147770539Y-111029185D01*
X147816294Y-111081989D01*
X147827500Y-111133500D01*
X147827500Y-163324500D01*
X147807815Y-163391539D01*
X147755011Y-163437294D01*
X147703500Y-163448500D01*
X99002500Y-163448500D01*
X98935461Y-163428815D01*
X98889706Y-163376011D01*
X98878500Y-163324500D01*
X98878500Y-136903000D01*
X98898185Y-136835961D01*
X98950989Y-136790206D01*
X99002500Y-136779000D01*
X106934000Y-136779000D01*
X106934000Y-135719000D01*
X123242725Y-135719000D01*
X123261809Y-136058838D01*
X123261811Y-136058850D01*
X123318825Y-136394408D01*
X123318827Y-136394417D01*
X123413054Y-136721485D01*
X123543308Y-137035949D01*
X123543310Y-137035953D01*
X123707961Y-137333868D01*
X123707964Y-137333873D01*
X123904922Y-137611458D01*
X123904926Y-137611463D01*
X124131736Y-137865264D01*
X124385537Y-138092074D01*
X124385540Y-138092076D01*
X124385541Y-138092077D01*
X124663126Y-138289035D01*
X124663131Y-138289038D01*
X124961046Y-138453689D01*
X124961050Y-138453691D01*
X125081558Y-138503606D01*
X125275512Y-138583945D01*
X125602588Y-138678174D01*
X125938157Y-138735190D01*
X126278000Y-138754275D01*
X126617843Y-138735190D01*
X126953412Y-138678174D01*
X127280488Y-138583945D01*
X127594956Y-138453688D01*
X127892864Y-138289041D01*
X127892869Y-138289037D01*
X127892873Y-138289035D01*
X128007602Y-138207629D01*
X128170463Y-138092074D01*
X128424264Y-137865264D01*
X128651074Y-137611463D01*
X128848041Y-137333864D01*
X129012688Y-137035956D01*
X129142945Y-136721488D01*
X129237174Y-136394412D01*
X129294190Y-136058843D01*
X129313275Y-135719000D01*
X129294190Y-135379157D01*
X129237174Y-135043588D01*
X129142945Y-134716512D01*
X129062606Y-134522558D01*
X129012691Y-134402050D01*
X129012689Y-134402046D01*
X128848038Y-134104131D01*
X128848035Y-134104126D01*
X128651077Y-133826541D01*
X128651076Y-133826540D01*
X128651074Y-133826537D01*
X128424264Y-133572736D01*
X128170463Y-133345926D01*
X128170460Y-133345924D01*
X128170458Y-133345922D01*
X127892873Y-133148964D01*
X127892868Y-133148961D01*
X127594953Y-132984310D01*
X127594949Y-132984308D01*
X127337293Y-132877584D01*
X127280488Y-132854055D01*
X127280485Y-132854054D01*
X126953417Y-132759827D01*
X126953408Y-132759825D01*
X126617850Y-132702811D01*
X126617838Y-132702809D01*
X126302612Y-132685107D01*
X126278000Y-132683725D01*
X126277999Y-132683725D01*
X125938161Y-132702809D01*
X125938149Y-132702811D01*
X125602591Y-132759825D01*
X125602582Y-132759827D01*
X125275514Y-132854054D01*
X124961050Y-132984308D01*
X124961046Y-132984310D01*
X124663131Y-133148961D01*
X124663126Y-133148964D01*
X124385541Y-133345922D01*
X124131736Y-133572736D01*
X123904922Y-133826541D01*
X123707964Y-134104126D01*
X123707961Y-134104131D01*
X123543310Y-134402046D01*
X123543308Y-134402050D01*
X123413054Y-134716514D01*
X123318827Y-135043582D01*
X123318825Y-135043591D01*
X123261811Y-135379149D01*
X123261809Y-135379161D01*
X123242725Y-135719000D01*
X106934000Y-135719000D01*
X106934000Y-127889000D01*
X94234000Y-127889000D01*
X94234000Y-129531542D01*
X94214315Y-129598581D01*
X94161511Y-129644336D01*
X94092353Y-129654280D01*
X94028797Y-129625255D01*
X94022319Y-129619223D01*
X93972402Y-129569306D01*
X93972395Y-129569301D01*
X93778834Y-129433767D01*
X93778830Y-129433765D01*
X93707727Y-129400609D01*
X93564663Y-129333897D01*
X93564659Y-129333896D01*
X93564655Y-129333894D01*
X93336413Y-129272738D01*
X93336403Y-129272736D01*
X93101001Y-129252141D01*
X93100999Y-129252141D01*
X92865596Y-129272736D01*
X92865586Y-129272738D01*
X92637344Y-129333894D01*
X92637335Y-129333898D01*
X92423171Y-129433764D01*
X92423169Y-129433765D01*
X92229597Y-129569305D01*
X92062505Y-129736397D01*
X91932575Y-129921958D01*
X91877998Y-129965583D01*
X91808500Y-129972777D01*
X91746145Y-129941254D01*
X91729425Y-129921958D01*
X91599494Y-129736397D01*
X91432402Y-129569306D01*
X91432395Y-129569301D01*
X91238834Y-129433767D01*
X91238830Y-129433765D01*
X91167727Y-129400609D01*
X91024663Y-129333897D01*
X91024659Y-129333896D01*
X91024655Y-129333894D01*
X90796413Y-129272738D01*
X90796403Y-129272736D01*
X90561001Y-129252141D01*
X90560999Y-129252141D01*
X90325596Y-129272736D01*
X90325586Y-129272738D01*
X90097344Y-129333894D01*
X90097335Y-129333898D01*
X89883171Y-129433764D01*
X89883169Y-129433765D01*
X89689597Y-129569305D01*
X89522508Y-129736394D01*
X89392574Y-129921960D01*
X89337997Y-129965584D01*
X89268498Y-129972777D01*
X89206144Y-129941255D01*
X89189429Y-129921964D01*
X89059495Y-129736399D01*
X89059493Y-129736396D01*
X88892402Y-129569306D01*
X88892395Y-129569301D01*
X88698834Y-129433767D01*
X88698830Y-129433765D01*
X88627727Y-129400609D01*
X88484663Y-129333897D01*
X88484659Y-129333896D01*
X88484655Y-129333894D01*
X88256413Y-129272738D01*
X88256403Y-129272736D01*
X88021001Y-129252141D01*
X88020999Y-129252141D01*
X87785596Y-129272736D01*
X87785586Y-129272738D01*
X87557344Y-129333894D01*
X87557335Y-129333898D01*
X87343171Y-129433764D01*
X87343169Y-129433765D01*
X87149597Y-129569305D01*
X86982505Y-129736397D01*
X86852575Y-129921958D01*
X86797998Y-129965583D01*
X86728500Y-129972777D01*
X86666145Y-129941254D01*
X86649425Y-129921958D01*
X86519494Y-129736397D01*
X86352402Y-129569306D01*
X86352395Y-129569301D01*
X86158834Y-129433767D01*
X86158830Y-129433765D01*
X86087727Y-129400609D01*
X85944663Y-129333897D01*
X85944659Y-129333896D01*
X85944655Y-129333894D01*
X85716413Y-129272738D01*
X85716403Y-129272736D01*
X85481001Y-129252141D01*
X85480999Y-129252141D01*
X85245596Y-129272736D01*
X85245586Y-129272738D01*
X85017344Y-129333894D01*
X85017335Y-129333898D01*
X84803171Y-129433764D01*
X84803169Y-129433765D01*
X84609597Y-129569305D01*
X84442508Y-129736394D01*
X84312574Y-129921960D01*
X84257997Y-129965584D01*
X84188498Y-129972777D01*
X84126144Y-129941255D01*
X84109429Y-129921964D01*
X83979495Y-129736399D01*
X83979493Y-129736396D01*
X83812402Y-129569306D01*
X83812395Y-129569301D01*
X83618834Y-129433767D01*
X83618830Y-129433765D01*
X83547727Y-129400609D01*
X83404663Y-129333897D01*
X83404659Y-129333896D01*
X83404655Y-129333894D01*
X83176413Y-129272738D01*
X83176403Y-129272736D01*
X82941001Y-129252141D01*
X82940999Y-129252141D01*
X82705596Y-129272736D01*
X82705586Y-129272738D01*
X82477344Y-129333894D01*
X82477335Y-129333898D01*
X82263171Y-129433764D01*
X82263169Y-129433765D01*
X82069600Y-129569303D01*
X81947284Y-129691619D01*
X81885961Y-129725103D01*
X81816269Y-129720119D01*
X81760336Y-129678247D01*
X81743421Y-129647270D01*
X81694354Y-129515713D01*
X81694350Y-129515706D01*
X81608190Y-129400612D01*
X81608187Y-129400609D01*
X81493093Y-129314449D01*
X81493086Y-129314445D01*
X81358379Y-129264203D01*
X81358372Y-129264201D01*
X81298844Y-129257800D01*
X80651000Y-129257800D01*
X80651000Y-130172298D01*
X80543315Y-130123120D01*
X80436763Y-130107800D01*
X80365237Y-130107800D01*
X80258685Y-130123120D01*
X80151000Y-130172298D01*
X80151000Y-129257800D01*
X79503155Y-129257800D01*
X79443627Y-129264201D01*
X79443620Y-129264203D01*
X79308913Y-129314445D01*
X79308906Y-129314449D01*
X79193812Y-129400609D01*
X79193809Y-129400612D01*
X79107649Y-129515706D01*
X79107645Y-129515713D01*
X79057403Y-129650420D01*
X79057401Y-129650427D01*
X79051000Y-129709955D01*
X79051000Y-130357800D01*
X79967314Y-130357800D01*
X79941507Y-130397956D01*
X79901000Y-130535911D01*
X79901000Y-130679689D01*
X79941507Y-130817644D01*
X79967314Y-130857800D01*
X79051000Y-130857800D01*
X79051000Y-131505644D01*
X79057401Y-131565172D01*
X79057403Y-131565179D01*
X79107645Y-131699886D01*
X79107649Y-131699893D01*
X79193809Y-131814987D01*
X79193812Y-131814990D01*
X79308906Y-131901150D01*
X79308913Y-131901154D01*
X79443620Y-131951396D01*
X79443627Y-131951398D01*
X79503155Y-131957799D01*
X79503172Y-131957800D01*
X80151000Y-131957800D01*
X80151000Y-131043301D01*
X80258685Y-131092480D01*
X80365237Y-131107800D01*
X80436763Y-131107800D01*
X80543315Y-131092480D01*
X80651000Y-131043301D01*
X80651000Y-131957800D01*
X81298828Y-131957800D01*
X81298844Y-131957799D01*
X81358372Y-131951398D01*
X81358379Y-131951396D01*
X81493086Y-131901154D01*
X81493093Y-131901150D01*
X81608187Y-131814990D01*
X81608190Y-131814987D01*
X81694350Y-131699893D01*
X81694354Y-131699886D01*
X81743422Y-131568329D01*
X81785293Y-131512395D01*
X81850757Y-131487978D01*
X81919030Y-131502830D01*
X81947285Y-131523981D01*
X82069599Y-131646295D01*
X82110897Y-131675212D01*
X82263165Y-131781832D01*
X82263167Y-131781833D01*
X82263170Y-131781835D01*
X82477337Y-131881703D01*
X82705592Y-131942863D01*
X82876319Y-131957800D01*
X82940999Y-131963459D01*
X82941000Y-131963459D01*
X82941001Y-131963459D01*
X83005681Y-131957800D01*
X83176408Y-131942863D01*
X83404663Y-131881703D01*
X83618830Y-131781835D01*
X83812401Y-131646295D01*
X83979495Y-131479201D01*
X84109424Y-131293642D01*
X84164002Y-131250017D01*
X84233500Y-131242823D01*
X84295855Y-131274346D01*
X84312575Y-131293642D01*
X84442505Y-131479201D01*
X84609599Y-131646295D01*
X84650897Y-131675212D01*
X84803165Y-131781832D01*
X84803167Y-131781833D01*
X84803170Y-131781835D01*
X85017337Y-131881703D01*
X85245592Y-131942863D01*
X85416319Y-131957800D01*
X85480999Y-131963459D01*
X85481000Y-131963459D01*
X85481001Y-131963459D01*
X85545681Y-131957800D01*
X85716408Y-131942863D01*
X85944663Y-131881703D01*
X86158830Y-131781835D01*
X86352401Y-131646295D01*
X86519495Y-131479201D01*
X86649424Y-131293642D01*
X86704002Y-131250017D01*
X86773500Y-131242823D01*
X86835855Y-131274346D01*
X86852575Y-131293642D01*
X86982505Y-131479201D01*
X87149599Y-131646295D01*
X87190897Y-131675212D01*
X87343165Y-131781832D01*
X87343167Y-131781833D01*
X87343170Y-131781835D01*
X87557337Y-131881703D01*
X87785592Y-131942863D01*
X87956319Y-131957800D01*
X88020999Y-131963459D01*
X88021000Y-131963459D01*
X88021001Y-131963459D01*
X88085681Y-131957800D01*
X88256408Y-131942863D01*
X88484663Y-131881703D01*
X88698830Y-131781835D01*
X88892401Y-131646295D01*
X89059495Y-131479201D01*
X89189424Y-131293642D01*
X89244002Y-131250017D01*
X89313500Y-131242823D01*
X89375855Y-131274346D01*
X89392575Y-131293642D01*
X89522505Y-131479201D01*
X89689599Y-131646295D01*
X89730897Y-131675212D01*
X89883165Y-131781832D01*
X89883167Y-131781833D01*
X89883170Y-131781835D01*
X90097337Y-131881703D01*
X90325592Y-131942863D01*
X90496319Y-131957800D01*
X90560999Y-131963459D01*
X90561000Y-131963459D01*
X90561001Y-131963459D01*
X90625681Y-131957800D01*
X90796408Y-131942863D01*
X91024663Y-131881703D01*
X91238830Y-131781835D01*
X91432401Y-131646295D01*
X91599495Y-131479201D01*
X91729424Y-131293642D01*
X91784002Y-131250017D01*
X91853500Y-131242823D01*
X91915855Y-131274346D01*
X91932575Y-131293642D01*
X92062505Y-131479201D01*
X92229599Y-131646295D01*
X92270897Y-131675212D01*
X92423165Y-131781832D01*
X92423167Y-131781833D01*
X92423170Y-131781835D01*
X92637337Y-131881703D01*
X92865592Y-131942863D01*
X93036319Y-131957800D01*
X93100999Y-131963459D01*
X93101000Y-131963459D01*
X93101001Y-131963459D01*
X93165681Y-131957800D01*
X93336408Y-131942863D01*
X93564663Y-131881703D01*
X93778830Y-131781835D01*
X93972401Y-131646295D01*
X94022318Y-131596377D01*
X94083642Y-131562892D01*
X94153334Y-131567876D01*
X94209267Y-131609748D01*
X94233684Y-131675212D01*
X94234000Y-131684058D01*
X94234000Y-135324500D01*
X94214315Y-135391539D01*
X94161511Y-135437294D01*
X94110000Y-135448500D01*
X78577903Y-135448500D01*
X78575144Y-135448438D01*
X78502368Y-135445169D01*
X78490771Y-135444649D01*
X78490770Y-135444649D01*
X78490769Y-135444649D01*
X78407088Y-135455984D01*
X78404324Y-135456295D01*
X78320226Y-135463864D01*
X78296605Y-135470383D01*
X78288428Y-135472058D01*
X78264149Y-135475347D01*
X78264146Y-135475347D01*
X78264145Y-135475348D01*
X78232892Y-135485502D01*
X78183838Y-135501440D01*
X78181189Y-135502236D01*
X78172883Y-135504528D01*
X78139887Y-135509000D01*
X77724000Y-135509000D01*
X77724000Y-135691372D01*
X77704315Y-135758411D01*
X77677317Y-135788316D01*
X77666458Y-135796976D01*
X77666456Y-135796978D01*
X77610902Y-135860563D01*
X77609026Y-135862615D01*
X77550668Y-135923654D01*
X77550667Y-135923655D01*
X77537164Y-135944109D01*
X77532111Y-135950747D01*
X77515991Y-135969200D01*
X77472686Y-136041678D01*
X77471206Y-136044033D01*
X77424683Y-136114514D01*
X77424680Y-136114520D01*
X77415050Y-136137049D01*
X77411262Y-136144484D01*
X77398695Y-136165518D01*
X77398690Y-136165528D01*
X77369017Y-136244586D01*
X77367983Y-136247166D01*
X77334802Y-136324798D01*
X77334797Y-136324811D01*
X77329345Y-136348696D01*
X77326946Y-136356685D01*
X77318334Y-136379635D01*
X77303254Y-136462732D01*
X77302696Y-136465456D01*
X77283910Y-136547764D01*
X77282810Y-136572245D01*
X77281875Y-136580538D01*
X77277500Y-136604650D01*
X77277500Y-136689097D01*
X77277438Y-136691855D01*
X77276108Y-136721485D01*
X77273649Y-136776229D01*
X77273649Y-136776230D01*
X77276938Y-136800515D01*
X77277500Y-136808846D01*
X77277500Y-163324500D01*
X77257815Y-163391539D01*
X77205011Y-163437294D01*
X77153500Y-163448500D01*
X28452500Y-163448500D01*
X28385461Y-163428815D01*
X28339706Y-163376011D01*
X28328500Y-163324500D01*
X28328500Y-135719000D01*
X46842725Y-135719000D01*
X46861809Y-136058838D01*
X46861811Y-136058850D01*
X46918825Y-136394408D01*
X46918827Y-136394417D01*
X47013054Y-136721485D01*
X47143308Y-137035949D01*
X47143310Y-137035953D01*
X47307961Y-137333868D01*
X47307964Y-137333873D01*
X47504922Y-137611458D01*
X47504926Y-137611463D01*
X47731736Y-137865264D01*
X47985537Y-138092074D01*
X47985540Y-138092076D01*
X47985541Y-138092077D01*
X48263126Y-138289035D01*
X48263131Y-138289038D01*
X48561046Y-138453689D01*
X48561050Y-138453691D01*
X48681558Y-138503606D01*
X48875512Y-138583945D01*
X49202588Y-138678174D01*
X49538157Y-138735190D01*
X49878000Y-138754275D01*
X50217843Y-138735190D01*
X50553412Y-138678174D01*
X50880488Y-138583945D01*
X51194956Y-138453688D01*
X51492864Y-138289041D01*
X51492869Y-138289037D01*
X51492873Y-138289035D01*
X51607602Y-138207629D01*
X51770463Y-138092074D01*
X52024264Y-137865264D01*
X52251074Y-137611463D01*
X52448041Y-137333864D01*
X52612688Y-137035956D01*
X52742945Y-136721488D01*
X52837174Y-136394412D01*
X52894190Y-136058843D01*
X52913275Y-135719000D01*
X52894190Y-135379157D01*
X52837174Y-135043588D01*
X52742945Y-134716512D01*
X52662606Y-134522558D01*
X52612691Y-134402050D01*
X52612689Y-134402046D01*
X52448038Y-134104131D01*
X52448035Y-134104126D01*
X52251077Y-133826541D01*
X52251076Y-133826540D01*
X52251074Y-133826537D01*
X52024264Y-133572736D01*
X51770463Y-133345926D01*
X51770460Y-133345924D01*
X51770458Y-133345922D01*
X51492873Y-133148964D01*
X51492868Y-133148961D01*
X51194953Y-132984310D01*
X51194949Y-132984308D01*
X50937293Y-132877584D01*
X50880488Y-132854055D01*
X50880485Y-132854054D01*
X50553417Y-132759827D01*
X50553408Y-132759825D01*
X50217850Y-132702811D01*
X50217838Y-132702809D01*
X49878000Y-132683725D01*
X49538161Y-132702809D01*
X49538149Y-132702811D01*
X49202591Y-132759825D01*
X49202582Y-132759827D01*
X48875514Y-132854054D01*
X48561050Y-132984308D01*
X48561046Y-132984310D01*
X48263131Y-133148961D01*
X48263126Y-133148964D01*
X47985541Y-133345922D01*
X47731736Y-133572736D01*
X47504922Y-133826541D01*
X47307964Y-134104126D01*
X47307961Y-134104131D01*
X47143310Y-134402046D01*
X47143308Y-134402050D01*
X47013054Y-134716514D01*
X46918827Y-135043582D01*
X46918825Y-135043591D01*
X46861811Y-135379149D01*
X46861809Y-135379161D01*
X46842725Y-135719000D01*
X28328500Y-135719000D01*
X28328500Y-126238000D01*
X84559105Y-126238000D01*
X84579032Y-126427595D01*
X84579033Y-126427597D01*
X84637939Y-126608895D01*
X84637942Y-126608901D01*
X84733261Y-126773998D01*
X84777695Y-126823347D01*
X84860817Y-126915665D01*
X84860820Y-126915667D01*
X84860823Y-126915670D01*
X85015051Y-127027724D01*
X85015052Y-127027724D01*
X85189204Y-127105262D01*
X85189209Y-127105264D01*
X85375681Y-127144900D01*
X85566319Y-127144900D01*
X85752791Y-127105264D01*
X85926948Y-127027724D01*
X86081177Y-126915670D01*
X86208739Y-126773998D01*
X86304058Y-126608901D01*
X86362968Y-126427594D01*
X86381180Y-126254314D01*
X86407763Y-126189703D01*
X86416809Y-126179608D01*
X87091599Y-125504819D01*
X87152923Y-125471334D01*
X87179281Y-125468500D01*
X135052442Y-125468500D01*
X135119481Y-125488185D01*
X135144591Y-125509527D01*
X135152823Y-125518670D01*
X135210162Y-125560329D01*
X135307052Y-125630724D01*
X135481204Y-125708262D01*
X135481209Y-125708264D01*
X135667681Y-125747900D01*
X135858319Y-125747900D01*
X136044791Y-125708264D01*
X136218948Y-125630724D01*
X136373177Y-125518670D01*
X136385649Y-125504819D01*
X136400814Y-125487975D01*
X136500739Y-125376998D01*
X136596058Y-125211901D01*
X136654968Y-125030594D01*
X136674895Y-124841000D01*
X136654968Y-124651406D01*
X136596058Y-124470099D01*
X136500739Y-124305002D01*
X136431750Y-124228382D01*
X136373182Y-124163334D01*
X136373179Y-124163332D01*
X136373178Y-124163331D01*
X136373177Y-124163330D01*
X136218948Y-124051276D01*
X136218947Y-124051275D01*
X136044795Y-123973737D01*
X136044790Y-123973735D01*
X135858319Y-123934100D01*
X135667681Y-123934100D01*
X135481209Y-123973735D01*
X135481204Y-123973737D01*
X135307053Y-124051275D01*
X135307048Y-124051278D01*
X135152824Y-124163328D01*
X135152819Y-124163334D01*
X135144592Y-124172470D01*
X135085108Y-124209120D01*
X135052442Y-124213500D01*
X110980011Y-124213500D01*
X110912972Y-124193815D01*
X110867217Y-124141011D01*
X110857273Y-124071853D01*
X110862080Y-124051183D01*
X110865607Y-124040326D01*
X110873968Y-124014594D01*
X110893895Y-123825000D01*
X110873968Y-123635406D01*
X110815058Y-123454099D01*
X110719739Y-123289002D01*
X110669776Y-123233513D01*
X110592182Y-123147334D01*
X110592179Y-123147332D01*
X110592178Y-123147331D01*
X110592177Y-123147330D01*
X110437948Y-123035276D01*
X110437947Y-123035275D01*
X110263795Y-122957737D01*
X110263790Y-122957735D01*
X110077319Y-122918100D01*
X109886681Y-122918100D01*
X109700209Y-122957735D01*
X109700204Y-122957737D01*
X109526053Y-123035275D01*
X109526048Y-123035278D01*
X109371824Y-123147328D01*
X109371819Y-123147334D01*
X109363592Y-123156470D01*
X109304108Y-123193120D01*
X109271442Y-123197500D01*
X88555720Y-123197500D01*
X88488681Y-123177815D01*
X88482835Y-123173818D01*
X88466952Y-123162278D01*
X88466947Y-123162275D01*
X88292795Y-123084737D01*
X88292790Y-123084735D01*
X88106319Y-123045100D01*
X87915681Y-123045100D01*
X87729209Y-123084735D01*
X87729204Y-123084737D01*
X87555053Y-123162275D01*
X87555048Y-123162278D01*
X87400823Y-123274328D01*
X87400822Y-123274329D01*
X87273260Y-123416003D01*
X87177942Y-123581098D01*
X87177939Y-123581104D01*
X87119033Y-123762402D01*
X87119032Y-123762404D01*
X87119031Y-123762406D01*
X87119032Y-123762406D01*
X87099105Y-123952000D01*
X87112194Y-124076540D01*
X87099626Y-124145268D01*
X87051894Y-124196292D01*
X86988874Y-124213500D01*
X86950965Y-124213500D01*
X86935314Y-124211772D01*
X86935288Y-124212054D01*
X86927525Y-124211319D01*
X86859121Y-124213469D01*
X86857174Y-124213500D01*
X86828521Y-124213500D01*
X86821607Y-124214373D01*
X86815790Y-124214830D01*
X86769058Y-124216299D01*
X86769054Y-124216300D01*
X86749722Y-124221916D01*
X86730682Y-124225859D01*
X86710712Y-124228382D01*
X86710708Y-124228383D01*
X86667237Y-124245594D01*
X86661710Y-124247486D01*
X86616812Y-124260530D01*
X86616805Y-124260533D01*
X86599480Y-124270779D01*
X86582010Y-124279337D01*
X86563298Y-124286745D01*
X86525463Y-124314233D01*
X86520580Y-124317440D01*
X86480346Y-124341234D01*
X86466106Y-124355474D01*
X86451320Y-124368102D01*
X86435033Y-124379936D01*
X86435032Y-124379936D01*
X86405227Y-124415963D01*
X86401295Y-124420284D01*
X85526800Y-125294781D01*
X85465477Y-125328266D01*
X85439119Y-125331100D01*
X85375681Y-125331100D01*
X85189209Y-125370735D01*
X85189204Y-125370737D01*
X85015053Y-125448275D01*
X85015048Y-125448278D01*
X84860823Y-125560328D01*
X84860822Y-125560329D01*
X84733260Y-125702003D01*
X84637942Y-125867098D01*
X84637939Y-125867104D01*
X84579033Y-126048402D01*
X84579032Y-126048404D01*
X84559105Y-126238000D01*
X28328500Y-126238000D01*
X28328500Y-118999000D01*
X89639105Y-118999000D01*
X89659032Y-119188595D01*
X89659033Y-119188597D01*
X89717939Y-119369895D01*
X89717942Y-119369901D01*
X89813261Y-119534998D01*
X89857695Y-119584347D01*
X89940817Y-119676665D01*
X89940820Y-119676667D01*
X89940823Y-119676670D01*
X90095051Y-119788724D01*
X90095052Y-119788724D01*
X90269204Y-119866262D01*
X90269209Y-119866264D01*
X90455681Y-119905900D01*
X90646319Y-119905900D01*
X90832791Y-119866264D01*
X91006948Y-119788724D01*
X91161177Y-119676670D01*
X91288739Y-119534998D01*
X91326577Y-119469459D01*
X91346762Y-119434500D01*
X91397329Y-119386284D01*
X91454149Y-119372500D01*
X101397442Y-119372500D01*
X101464481Y-119392185D01*
X101489591Y-119413527D01*
X101496719Y-119421444D01*
X101497822Y-119422669D01*
X101652052Y-119534724D01*
X101826204Y-119612262D01*
X101826209Y-119612264D01*
X102012681Y-119651900D01*
X102203319Y-119651900D01*
X102389791Y-119612264D01*
X102563948Y-119534724D01*
X102718177Y-119422670D01*
X102845739Y-119280998D01*
X102941058Y-119115901D01*
X102999968Y-118934594D01*
X103019895Y-118745000D01*
X102999968Y-118555406D01*
X102941058Y-118374099D01*
X102845739Y-118209002D01*
X102795776Y-118153513D01*
X102718182Y-118067334D01*
X102718179Y-118067332D01*
X102718178Y-118067331D01*
X102718177Y-118067330D01*
X102563948Y-117955276D01*
X102563947Y-117955275D01*
X102389795Y-117877737D01*
X102389790Y-117877735D01*
X102203319Y-117838100D01*
X102012681Y-117838100D01*
X101826209Y-117877735D01*
X101826204Y-117877737D01*
X101652053Y-117955275D01*
X101652048Y-117955278D01*
X101497824Y-118067328D01*
X101497819Y-118067334D01*
X101489592Y-118076470D01*
X101430108Y-118113120D01*
X101397442Y-118117500D01*
X90887967Y-118117500D01*
X90872319Y-118115772D01*
X90872293Y-118116054D01*
X90864524Y-118115319D01*
X90796121Y-118117469D01*
X90794174Y-118117500D01*
X90778848Y-118117500D01*
X90753067Y-118114790D01*
X90646319Y-118092100D01*
X90455681Y-118092100D01*
X90269209Y-118131735D01*
X90269204Y-118131737D01*
X90095053Y-118209275D01*
X90095048Y-118209278D01*
X89940823Y-118321328D01*
X89940822Y-118321329D01*
X89813260Y-118463003D01*
X89717942Y-118628098D01*
X89717939Y-118628104D01*
X89659033Y-118809402D01*
X89659032Y-118809404D01*
X89639105Y-118999000D01*
X28328500Y-118999000D01*
X28328500Y-116458999D01*
X63477105Y-116458999D01*
X63497032Y-116648595D01*
X63497033Y-116648597D01*
X63555939Y-116829895D01*
X63555942Y-116829901D01*
X63651261Y-116994998D01*
X63695695Y-117044347D01*
X63778817Y-117136665D01*
X63778820Y-117136667D01*
X63778823Y-117136670D01*
X63933051Y-117248724D01*
X63933052Y-117248724D01*
X64107204Y-117326262D01*
X64107209Y-117326264D01*
X64293681Y-117365900D01*
X64484319Y-117365900D01*
X64670791Y-117326264D01*
X64844948Y-117248724D01*
X64999177Y-117136670D01*
X65007407Y-117127529D01*
X65066892Y-117090880D01*
X65099558Y-117086500D01*
X92380442Y-117086500D01*
X92447481Y-117106185D01*
X92472591Y-117127527D01*
X92479719Y-117135444D01*
X92480822Y-117136669D01*
X92635052Y-117248724D01*
X92809204Y-117326262D01*
X92809209Y-117326264D01*
X92995681Y-117365900D01*
X93186319Y-117365900D01*
X93372791Y-117326264D01*
X93546948Y-117248724D01*
X93701177Y-117136670D01*
X93828739Y-116994998D01*
X93924058Y-116829901D01*
X93982968Y-116648594D01*
X94002895Y-116459000D01*
X93982968Y-116269406D01*
X93924058Y-116088099D01*
X93828739Y-115923002D01*
X93778776Y-115867513D01*
X93701182Y-115781334D01*
X93701179Y-115781332D01*
X93701178Y-115781331D01*
X93701177Y-115781330D01*
X93546948Y-115669276D01*
X93546947Y-115669275D01*
X93372795Y-115591737D01*
X93372790Y-115591735D01*
X93186319Y-115552100D01*
X92995681Y-115552100D01*
X92809209Y-115591735D01*
X92809204Y-115591737D01*
X92635053Y-115669275D01*
X92635048Y-115669278D01*
X92480824Y-115781328D01*
X92480819Y-115781334D01*
X92472592Y-115790470D01*
X92413108Y-115827120D01*
X92380442Y-115831500D01*
X65099558Y-115831500D01*
X65032519Y-115811815D01*
X65007408Y-115790472D01*
X64999177Y-115781330D01*
X64844948Y-115669276D01*
X64844947Y-115669275D01*
X64670795Y-115591737D01*
X64670790Y-115591735D01*
X64484319Y-115552100D01*
X64293681Y-115552100D01*
X64107209Y-115591735D01*
X64107204Y-115591737D01*
X63933053Y-115669275D01*
X63933048Y-115669278D01*
X63778823Y-115781328D01*
X63778822Y-115781329D01*
X63651260Y-115923003D01*
X63555942Y-116088098D01*
X63555939Y-116088104D01*
X63497033Y-116269402D01*
X63497032Y-116269404D01*
X63477105Y-116458999D01*
X28328500Y-116458999D01*
X28328500Y-111133500D01*
X28348185Y-111066461D01*
X28400989Y-111020706D01*
X28452500Y-111009500D01*
X33493737Y-111009500D01*
X34023859Y-110971585D01*
X34549926Y-110895948D01*
X34549927Y-110895947D01*
X34549932Y-110895947D01*
X35069248Y-110782977D01*
X35069251Y-110782976D01*
X35069256Y-110782975D01*
X35579204Y-110633241D01*
X36077171Y-110447509D01*
X36296919Y-110347153D01*
X36560606Y-110226732D01*
X36560610Y-110226729D01*
X36560618Y-110226726D01*
X37027084Y-109972016D01*
X37474190Y-109684679D01*
X37478077Y-109681769D01*
X37899651Y-109366184D01*
X37924321Y-109344807D01*
X38301322Y-109018134D01*
X38677133Y-108642323D01*
X39025176Y-108240661D01*
X39343678Y-107815192D01*
X39631015Y-107368086D01*
X39885725Y-106901620D01*
X39885728Y-106901612D01*
X39885731Y-106901608D01*
X40106502Y-106418185D01*
X40106501Y-106418185D01*
X40106508Y-106418172D01*
X40292240Y-105920206D01*
X40441974Y-105410258D01*
X40446759Y-105388262D01*
X40554947Y-104890934D01*
X40557342Y-104874275D01*
X40630585Y-104364861D01*
X40668500Y-103834739D01*
X40668500Y-103569000D01*
X46842725Y-103569000D01*
X46861809Y-103908838D01*
X46861811Y-103908850D01*
X46918825Y-104244408D01*
X46918827Y-104244417D01*
X47013054Y-104571485D01*
X47143308Y-104885949D01*
X47143310Y-104885953D01*
X47307961Y-105183868D01*
X47307964Y-105183873D01*
X47504922Y-105461458D01*
X47504926Y-105461463D01*
X47731736Y-105715264D01*
X47985537Y-105942074D01*
X47985540Y-105942076D01*
X47985541Y-105942077D01*
X48263126Y-106139035D01*
X48263131Y-106139038D01*
X48263134Y-106139039D01*
X48263136Y-106139041D01*
X48373430Y-106199998D01*
X48561046Y-106303689D01*
X48561050Y-106303691D01*
X48681558Y-106353606D01*
X48875512Y-106433945D01*
X49202588Y-106528174D01*
X49538157Y-106585190D01*
X49878000Y-106604275D01*
X50217843Y-106585190D01*
X50553412Y-106528174D01*
X50880488Y-106433945D01*
X51194956Y-106303688D01*
X51492864Y-106139041D01*
X51492869Y-106139037D01*
X51492873Y-106139035D01*
X51607602Y-106057629D01*
X51770463Y-105942074D01*
X52024264Y-105715264D01*
X52070076Y-105664000D01*
X94211105Y-105664000D01*
X94231032Y-105853595D01*
X94231033Y-105853597D01*
X94289939Y-106034895D01*
X94289942Y-106034901D01*
X94385261Y-106199998D01*
X94429695Y-106249347D01*
X94512817Y-106341665D01*
X94512820Y-106341667D01*
X94512823Y-106341670D01*
X94651166Y-106442182D01*
X94667052Y-106453724D01*
X94841204Y-106531262D01*
X94841209Y-106531264D01*
X95027681Y-106570900D01*
X95218319Y-106570900D01*
X95404791Y-106531264D01*
X95578948Y-106453724D01*
X95581444Y-106451910D01*
X95594835Y-106442182D01*
X95660641Y-106418702D01*
X95667720Y-106418500D01*
X105334442Y-106418500D01*
X105401481Y-106438185D01*
X105426591Y-106459527D01*
X105434823Y-106468670D01*
X105520976Y-106531264D01*
X105589052Y-106580724D01*
X105763204Y-106658262D01*
X105763209Y-106658264D01*
X105949681Y-106697900D01*
X106140319Y-106697900D01*
X106326791Y-106658264D01*
X106500948Y-106580724D01*
X106655177Y-106468670D01*
X106668635Y-106453724D01*
X106682814Y-106437975D01*
X106782739Y-106326998D01*
X106878058Y-106161901D01*
X106936968Y-105980594D01*
X106956895Y-105791000D01*
X106936968Y-105601406D01*
X106878058Y-105420099D01*
X106828636Y-105334499D01*
X106812164Y-105266600D01*
X106835017Y-105200573D01*
X106889938Y-105157382D01*
X106936024Y-105148500D01*
X110668442Y-105148500D01*
X110735481Y-105168185D01*
X110760591Y-105189527D01*
X110768823Y-105198670D01*
X110846357Y-105255002D01*
X110923052Y-105310724D01*
X111097204Y-105388262D01*
X111097209Y-105388264D01*
X111283681Y-105427900D01*
X111474319Y-105427900D01*
X111660791Y-105388264D01*
X111834948Y-105310724D01*
X111989177Y-105198670D01*
X112002501Y-105183873D01*
X112034350Y-105148500D01*
X112116739Y-105056998D01*
X112212058Y-104891901D01*
X112270968Y-104710594D01*
X112290895Y-104521000D01*
X112270968Y-104331406D01*
X112212058Y-104150099D01*
X112116739Y-103985002D01*
X112052560Y-103913724D01*
X111989182Y-103843334D01*
X111989179Y-103843332D01*
X111989178Y-103843331D01*
X111989177Y-103843330D01*
X111873964Y-103759623D01*
X111834947Y-103731275D01*
X111660795Y-103653737D01*
X111660790Y-103653735D01*
X111474319Y-103614100D01*
X111283681Y-103614100D01*
X111097209Y-103653735D01*
X111097204Y-103653737D01*
X110923053Y-103731275D01*
X110923048Y-103731278D01*
X110768824Y-103843328D01*
X110768819Y-103843334D01*
X110760592Y-103852470D01*
X110701108Y-103889120D01*
X110668442Y-103893500D01*
X100120001Y-103893500D01*
X100052962Y-103873815D01*
X100007207Y-103821011D01*
X99997263Y-103751853D01*
X100026288Y-103688297D01*
X100027790Y-103686595D01*
X100051739Y-103659998D01*
X100147058Y-103494901D01*
X100205968Y-103313594D01*
X100225895Y-103124000D01*
X100205968Y-102934406D01*
X100153570Y-102773140D01*
X100147060Y-102753104D01*
X100147057Y-102753098D01*
X100126915Y-102718211D01*
X100051739Y-102588002D01*
X100001013Y-102531665D01*
X99924182Y-102446334D01*
X99924179Y-102446332D01*
X99924178Y-102446331D01*
X99924177Y-102446330D01*
X99769948Y-102334276D01*
X99769947Y-102334275D01*
X99595795Y-102256737D01*
X99595790Y-102256735D01*
X99409319Y-102217100D01*
X99218681Y-102217100D01*
X99032209Y-102256735D01*
X99032204Y-102256737D01*
X98858053Y-102334275D01*
X98858048Y-102334278D01*
X98703824Y-102446328D01*
X98703819Y-102446334D01*
X98695592Y-102455470D01*
X98636108Y-102492120D01*
X98603442Y-102496500D01*
X97030024Y-102496500D01*
X96962985Y-102476815D01*
X96917230Y-102424011D01*
X96907286Y-102354853D01*
X96922637Y-102310500D01*
X96972058Y-102224901D01*
X97030968Y-102043594D01*
X97049180Y-101870314D01*
X97075763Y-101805703D01*
X97084810Y-101795607D01*
X98140599Y-100739819D01*
X98201923Y-100706334D01*
X98228281Y-100703500D01*
X124717021Y-100703500D01*
X124784060Y-100723185D01*
X124829815Y-100775989D01*
X124839759Y-100845147D01*
X124810734Y-100908703D01*
X124777002Y-100936028D01*
X124663131Y-100998961D01*
X124663126Y-100998964D01*
X124385541Y-101195922D01*
X124131736Y-101422736D01*
X123904922Y-101676541D01*
X123707964Y-101954126D01*
X123707961Y-101954131D01*
X123543310Y-102252046D01*
X123543308Y-102252050D01*
X123413054Y-102566514D01*
X123318827Y-102893582D01*
X123318825Y-102893591D01*
X123261811Y-103229149D01*
X123261809Y-103229161D01*
X123242725Y-103569000D01*
X123261809Y-103908838D01*
X123261811Y-103908850D01*
X123318825Y-104244408D01*
X123318827Y-104244417D01*
X123413054Y-104571485D01*
X123543308Y-104885949D01*
X123543310Y-104885953D01*
X123707961Y-105183868D01*
X123707964Y-105183873D01*
X123904922Y-105461458D01*
X123904926Y-105461463D01*
X124131736Y-105715264D01*
X124385537Y-105942074D01*
X124385540Y-105942076D01*
X124385541Y-105942077D01*
X124663126Y-106139035D01*
X124663131Y-106139038D01*
X124663134Y-106139039D01*
X124663136Y-106139041D01*
X124773430Y-106199998D01*
X124961046Y-106303689D01*
X124961050Y-106303691D01*
X125081558Y-106353606D01*
X125275512Y-106433945D01*
X125602588Y-106528174D01*
X125938157Y-106585190D01*
X126278000Y-106604275D01*
X126617843Y-106585190D01*
X126953412Y-106528174D01*
X127280488Y-106433945D01*
X127594956Y-106303688D01*
X127892864Y-106139041D01*
X127892869Y-106139037D01*
X127892873Y-106139035D01*
X128007602Y-106057629D01*
X128170463Y-105942074D01*
X128424264Y-105715264D01*
X128651074Y-105461463D01*
X128804856Y-105244728D01*
X128848035Y-105183873D01*
X128848038Y-105183868D01*
X128848041Y-105183864D01*
X129012688Y-104885956D01*
X129142945Y-104571488D01*
X129237174Y-104244412D01*
X129294190Y-103908843D01*
X129313275Y-103569000D01*
X129294190Y-103229157D01*
X129237174Y-102893588D01*
X129142945Y-102566512D01*
X129055273Y-102354853D01*
X129012691Y-102252050D01*
X129012689Y-102252046D01*
X128993375Y-102217100D01*
X128848041Y-101954136D01*
X128848039Y-101954134D01*
X128848038Y-101954131D01*
X128848035Y-101954126D01*
X128651077Y-101676541D01*
X128651076Y-101676540D01*
X128651074Y-101676537D01*
X128424264Y-101422736D01*
X128170463Y-101195926D01*
X128170460Y-101195924D01*
X128170458Y-101195922D01*
X127892873Y-100998964D01*
X127892868Y-100998961D01*
X127778998Y-100936028D01*
X127729845Y-100886371D01*
X127715342Y-100818024D01*
X127740092Y-100752685D01*
X127796238Y-100711099D01*
X127838979Y-100703500D01*
X133147442Y-100703500D01*
X133214481Y-100723185D01*
X133239591Y-100744527D01*
X133247823Y-100753670D01*
X133328493Y-100812280D01*
X133402052Y-100865724D01*
X133576204Y-100943262D01*
X133576209Y-100943264D01*
X133762681Y-100982900D01*
X133953319Y-100982900D01*
X134139791Y-100943264D01*
X134313948Y-100865724D01*
X134468177Y-100753670D01*
X134480649Y-100739819D01*
X134506598Y-100710999D01*
X134595739Y-100611998D01*
X134691058Y-100446901D01*
X134749968Y-100265594D01*
X134769895Y-100076000D01*
X134749968Y-99886406D01*
X134691058Y-99705099D01*
X134595739Y-99540002D01*
X134545013Y-99483665D01*
X134468182Y-99398334D01*
X134468179Y-99398332D01*
X134468178Y-99398331D01*
X134468177Y-99398330D01*
X134313948Y-99286276D01*
X134313947Y-99286275D01*
X134139795Y-99208737D01*
X134139790Y-99208735D01*
X133953319Y-99169100D01*
X133762681Y-99169100D01*
X133576209Y-99208735D01*
X133576204Y-99208737D01*
X133402053Y-99286275D01*
X133402048Y-99286278D01*
X133247824Y-99398328D01*
X133247819Y-99398334D01*
X133239592Y-99407470D01*
X133180108Y-99444120D01*
X133147442Y-99448500D01*
X98207280Y-99448500D01*
X98140241Y-99428815D01*
X98094486Y-99376011D01*
X98084542Y-99306853D01*
X98113567Y-99243297D01*
X98119599Y-99236819D01*
X98147682Y-99208737D01*
X98344423Y-99011995D01*
X98405747Y-98978510D01*
X98432105Y-98975676D01*
X130168857Y-98975676D01*
X130184505Y-98977403D01*
X130184532Y-98977122D01*
X130192299Y-98977856D01*
X130192300Y-98977855D01*
X130192301Y-98977856D01*
X130198928Y-98977647D01*
X130260716Y-98975707D01*
X130262663Y-98975676D01*
X130291297Y-98975676D01*
X130291300Y-98975676D01*
X130298202Y-98974803D01*
X130304014Y-98974345D01*
X130350767Y-98972877D01*
X130370096Y-98967260D01*
X130389152Y-98963313D01*
X130409117Y-98960792D01*
X130452594Y-98943577D01*
X130458100Y-98941692D01*
X130503015Y-98928644D01*
X130520339Y-98918397D01*
X130537807Y-98909839D01*
X130556527Y-98902429D01*
X130594366Y-98874935D01*
X130599215Y-98871750D01*
X130639480Y-98847939D01*
X130653721Y-98833696D01*
X130668502Y-98821073D01*
X130684791Y-98809239D01*
X130684793Y-98809235D01*
X130684795Y-98809235D01*
X130697550Y-98793815D01*
X130714600Y-98773204D01*
X130718513Y-98768904D01*
X134243043Y-95244374D01*
X134255325Y-95234537D01*
X134255144Y-95234318D01*
X134261153Y-95229345D01*
X134261162Y-95229340D01*
X134308072Y-95179385D01*
X134309311Y-95178106D01*
X134329623Y-95157796D01*
X134333892Y-95152290D01*
X134337676Y-95147859D01*
X134369693Y-95113767D01*
X134379389Y-95096128D01*
X134390073Y-95079861D01*
X134402408Y-95063962D01*
X134410341Y-95045627D01*
X134436459Y-95007194D01*
X139219435Y-90224219D01*
X139280759Y-90190734D01*
X139307117Y-90187900D01*
X139370555Y-90187900D01*
X139557027Y-90148264D01*
X139731184Y-90070724D01*
X139885413Y-89958670D01*
X140012975Y-89816998D01*
X140108294Y-89651901D01*
X140167204Y-89470594D01*
X140187131Y-89281000D01*
X140167204Y-89091406D01*
X140108294Y-88910099D01*
X140012975Y-88745002D01*
X139963012Y-88689513D01*
X139885418Y-88603334D01*
X139885415Y-88603332D01*
X139885414Y-88603331D01*
X139885413Y-88603330D01*
X139731184Y-88491276D01*
X139731183Y-88491275D01*
X139557031Y-88413737D01*
X139557026Y-88413735D01*
X139370555Y-88374100D01*
X139179917Y-88374100D01*
X138993445Y-88413735D01*
X138993440Y-88413737D01*
X138819289Y-88491275D01*
X138819284Y-88491278D01*
X138665059Y-88603328D01*
X138665058Y-88603329D01*
X138537496Y-88745003D01*
X138442178Y-88910098D01*
X138442175Y-88910104D01*
X138383269Y-89091402D01*
X138383268Y-89091405D01*
X138365056Y-89264680D01*
X138338471Y-89329295D01*
X138329416Y-89339399D01*
X133472953Y-94195862D01*
X133460669Y-94205705D01*
X133460849Y-94205923D01*
X133454838Y-94210896D01*
X133407981Y-94260792D01*
X133406628Y-94262187D01*
X133386379Y-94282436D01*
X133386375Y-94282441D01*
X133382106Y-94287945D01*
X133378315Y-94292383D01*
X133346308Y-94326466D01*
X133346305Y-94326470D01*
X133336606Y-94344113D01*
X133325928Y-94360369D01*
X133313594Y-94376270D01*
X133313587Y-94376282D01*
X133305654Y-94394613D01*
X133279536Y-94433043D01*
X130028224Y-97684357D01*
X129966901Y-97717842D01*
X129940543Y-97720676D01*
X122956556Y-97720676D01*
X122889517Y-97700991D01*
X122843762Y-97648187D01*
X122833818Y-97579029D01*
X122862843Y-97515473D01*
X122906120Y-97483397D01*
X122973702Y-97453307D01*
X123010948Y-97436724D01*
X123165177Y-97324670D01*
X123177649Y-97310819D01*
X123192814Y-97293975D01*
X123292739Y-97182998D01*
X123388058Y-97017901D01*
X123446968Y-96836594D01*
X123466895Y-96647000D01*
X123446968Y-96457406D01*
X123388058Y-96276099D01*
X123292739Y-96111002D01*
X123223750Y-96034382D01*
X123165182Y-95969334D01*
X123165179Y-95969332D01*
X123165178Y-95969331D01*
X123165177Y-95969330D01*
X123010948Y-95857276D01*
X123010947Y-95857275D01*
X122836795Y-95779737D01*
X122836790Y-95779735D01*
X122650319Y-95740100D01*
X122459681Y-95740100D01*
X122273209Y-95779735D01*
X122273204Y-95779737D01*
X122099053Y-95857275D01*
X122099048Y-95857278D01*
X121944824Y-95969328D01*
X121944819Y-95969334D01*
X121936592Y-95978470D01*
X121877108Y-96015120D01*
X121844442Y-96019500D01*
X98253967Y-96019500D01*
X98238319Y-96017772D01*
X98238293Y-96018054D01*
X98230524Y-96017319D01*
X98162121Y-96019469D01*
X98160174Y-96019500D01*
X98131521Y-96019500D01*
X98124607Y-96020373D01*
X98118790Y-96020830D01*
X98072058Y-96022299D01*
X98072054Y-96022300D01*
X98052722Y-96027916D01*
X98033682Y-96031859D01*
X98013712Y-96034382D01*
X98013708Y-96034383D01*
X97970237Y-96051594D01*
X97964710Y-96053486D01*
X97919812Y-96066530D01*
X97919805Y-96066533D01*
X97902480Y-96076779D01*
X97885010Y-96085337D01*
X97866298Y-96092745D01*
X97828463Y-96120233D01*
X97823580Y-96123440D01*
X97783346Y-96147234D01*
X97769106Y-96161474D01*
X97754320Y-96174102D01*
X97738033Y-96185936D01*
X97738032Y-96185936D01*
X97708227Y-96221963D01*
X97704295Y-96226284D01*
X96067800Y-97862781D01*
X96006477Y-97896266D01*
X95980119Y-97899100D01*
X95916681Y-97899100D01*
X95730209Y-97938735D01*
X95730204Y-97938737D01*
X95556053Y-98016275D01*
X95556048Y-98016278D01*
X95401823Y-98128328D01*
X95401822Y-98128329D01*
X95274260Y-98270003D01*
X95178942Y-98435098D01*
X95178939Y-98435104D01*
X95120033Y-98616402D01*
X95120032Y-98616404D01*
X95100105Y-98806000D01*
X95120032Y-98995595D01*
X95120033Y-98995597D01*
X95178939Y-99176895D01*
X95178942Y-99176901D01*
X95274261Y-99341998D01*
X95318695Y-99391347D01*
X95401817Y-99483665D01*
X95401824Y-99483671D01*
X95475137Y-99536936D01*
X95517803Y-99592266D01*
X95523782Y-99661879D01*
X95509640Y-99699253D01*
X95432941Y-99832101D01*
X95432939Y-99832104D01*
X95374033Y-100013402D01*
X95374032Y-100013404D01*
X95354105Y-100203000D01*
X95374032Y-100392595D01*
X95374033Y-100392597D01*
X95432939Y-100573895D01*
X95432942Y-100573901D01*
X95528261Y-100738998D01*
X95541471Y-100753669D01*
X95655817Y-100880665D01*
X95655820Y-100880667D01*
X95655823Y-100880670D01*
X95657716Y-100882045D01*
X95658545Y-100883121D01*
X95660647Y-100885013D01*
X95660300Y-100885397D01*
X95700382Y-100937373D01*
X95706363Y-101006987D01*
X95673758Y-101068782D01*
X95657717Y-101082682D01*
X95528824Y-101176327D01*
X95528822Y-101176329D01*
X95401260Y-101318003D01*
X95305942Y-101483098D01*
X95305939Y-101483104D01*
X95247033Y-101664402D01*
X95247032Y-101664404D01*
X95227105Y-101854000D01*
X95247032Y-102043595D01*
X95247033Y-102043598D01*
X95250668Y-102054785D01*
X95252661Y-102124626D01*
X95216579Y-102184458D01*
X95153877Y-102215284D01*
X95132736Y-102217100D01*
X95027681Y-102217100D01*
X94841209Y-102256735D01*
X94841204Y-102256737D01*
X94667053Y-102334275D01*
X94667048Y-102334278D01*
X94512823Y-102446328D01*
X94512822Y-102446329D01*
X94385260Y-102588003D01*
X94289942Y-102753098D01*
X94289939Y-102753104D01*
X94231033Y-102934402D01*
X94231032Y-102934404D01*
X94211105Y-103123999D01*
X94231032Y-103313595D01*
X94231033Y-103313597D01*
X94289939Y-103494895D01*
X94289942Y-103494901D01*
X94385261Y-103659998D01*
X94409148Y-103686527D01*
X94512817Y-103801665D01*
X94512820Y-103801667D01*
X94512823Y-103801670D01*
X94612122Y-103873815D01*
X94667052Y-103913724D01*
X94841204Y-103991262D01*
X94841209Y-103991264D01*
X95027681Y-104030900D01*
X95174001Y-104030900D01*
X95241040Y-104050585D01*
X95286795Y-104103389D01*
X95296739Y-104172547D01*
X95291932Y-104193218D01*
X95247033Y-104331402D01*
X95247032Y-104331404D01*
X95227105Y-104521000D01*
X95232411Y-104571488D01*
X95237525Y-104620139D01*
X95224955Y-104688868D01*
X95177223Y-104739892D01*
X95114204Y-104757100D01*
X95027681Y-104757100D01*
X94841209Y-104796735D01*
X94841204Y-104796737D01*
X94667053Y-104874275D01*
X94667048Y-104874278D01*
X94512823Y-104986328D01*
X94512822Y-104986329D01*
X94385260Y-105128003D01*
X94289942Y-105293098D01*
X94289939Y-105293104D01*
X94231033Y-105474402D01*
X94231032Y-105474404D01*
X94211105Y-105664000D01*
X52070076Y-105664000D01*
X52251074Y-105461463D01*
X52404856Y-105244728D01*
X52448035Y-105183873D01*
X52448038Y-105183868D01*
X52448041Y-105183864D01*
X52612688Y-104885956D01*
X52742945Y-104571488D01*
X52837174Y-104244412D01*
X52894190Y-103908843D01*
X52913275Y-103569000D01*
X52894190Y-103229157D01*
X52837174Y-102893588D01*
X52742945Y-102566512D01*
X52655273Y-102354853D01*
X52612691Y-102252050D01*
X52612689Y-102252046D01*
X52593375Y-102217100D01*
X52448041Y-101954136D01*
X52448039Y-101954134D01*
X52448038Y-101954131D01*
X52448035Y-101954126D01*
X52251077Y-101676541D01*
X52251076Y-101676540D01*
X52251074Y-101676537D01*
X52024264Y-101422736D01*
X51770463Y-101195926D01*
X51770460Y-101195924D01*
X51770458Y-101195922D01*
X51492873Y-100998964D01*
X51492868Y-100998961D01*
X51201630Y-100838000D01*
X58905105Y-100838000D01*
X58909590Y-100880670D01*
X58925032Y-101027595D01*
X58925033Y-101027597D01*
X58983939Y-101208895D01*
X58983942Y-101208901D01*
X59079261Y-101373998D01*
X59123145Y-101422736D01*
X59206817Y-101515665D01*
X59206820Y-101515667D01*
X59206823Y-101515670D01*
X59332730Y-101607147D01*
X59361052Y-101627724D01*
X59535204Y-101705262D01*
X59535209Y-101705264D01*
X59721681Y-101744900D01*
X59912319Y-101744900D01*
X60098791Y-101705264D01*
X60272948Y-101627724D01*
X60427177Y-101515670D01*
X60435407Y-101506529D01*
X60494892Y-101469880D01*
X60527558Y-101465500D01*
X80642976Y-101465500D01*
X80710015Y-101485185D01*
X80755770Y-101537989D01*
X80765714Y-101607147D01*
X80750363Y-101651498D01*
X80735908Y-101676537D01*
X80700942Y-101737098D01*
X80700939Y-101737104D01*
X80642033Y-101918402D01*
X80642032Y-101918404D01*
X80622105Y-102108000D01*
X80642032Y-102297595D01*
X80642034Y-102297600D01*
X80653920Y-102334183D01*
X80655915Y-102404024D01*
X80619834Y-102463857D01*
X80557132Y-102494684D01*
X80535989Y-102496500D01*
X77926558Y-102496500D01*
X77859519Y-102476815D01*
X77834408Y-102455472D01*
X77826177Y-102446330D01*
X77671948Y-102334276D01*
X77671947Y-102334275D01*
X77497795Y-102256737D01*
X77497790Y-102256735D01*
X77311319Y-102217100D01*
X77120681Y-102217100D01*
X76934209Y-102256735D01*
X76934204Y-102256737D01*
X76760053Y-102334275D01*
X76760048Y-102334278D01*
X76605823Y-102446328D01*
X76605822Y-102446329D01*
X76478260Y-102588003D01*
X76382942Y-102753098D01*
X76382939Y-102753104D01*
X76324033Y-102934402D01*
X76324032Y-102934404D01*
X76304105Y-103123999D01*
X76324032Y-103313595D01*
X76324033Y-103313597D01*
X76382939Y-103494895D01*
X76382942Y-103494901D01*
X76478261Y-103659998D01*
X76502148Y-103686527D01*
X76605817Y-103801665D01*
X76605820Y-103801667D01*
X76605823Y-103801670D01*
X76705122Y-103873815D01*
X76760052Y-103913724D01*
X76934204Y-103991262D01*
X76934209Y-103991264D01*
X77120681Y-104030900D01*
X77311319Y-104030900D01*
X77497791Y-103991264D01*
X77671948Y-103913724D01*
X77826177Y-103801670D01*
X77834407Y-103792529D01*
X77893892Y-103755880D01*
X77926558Y-103751500D01*
X83013999Y-103751500D01*
X83081038Y-103771185D01*
X83126793Y-103823989D01*
X83136737Y-103893147D01*
X83107712Y-103956703D01*
X83106209Y-103958404D01*
X83082261Y-103985002D01*
X83082259Y-103985003D01*
X83082258Y-103985006D01*
X82986942Y-104150098D01*
X82986939Y-104150104D01*
X82928033Y-104331402D01*
X82928032Y-104331404D01*
X82908105Y-104521000D01*
X82928032Y-104710595D01*
X82928033Y-104710597D01*
X82986939Y-104891895D01*
X82986942Y-104891901D01*
X83082261Y-105056998D01*
X83126695Y-105106347D01*
X83209817Y-105198665D01*
X83209820Y-105198667D01*
X83209823Y-105198670D01*
X83303321Y-105266600D01*
X83364052Y-105310724D01*
X83538204Y-105388262D01*
X83538209Y-105388264D01*
X83724681Y-105427900D01*
X83915319Y-105427900D01*
X84101791Y-105388264D01*
X84275948Y-105310724D01*
X84430177Y-105198670D01*
X84438407Y-105189529D01*
X84497892Y-105152880D01*
X84530558Y-105148500D01*
X86030442Y-105148500D01*
X86097481Y-105168185D01*
X86122591Y-105189527D01*
X86130823Y-105198670D01*
X86208357Y-105255002D01*
X86285052Y-105310724D01*
X86459204Y-105388262D01*
X86459209Y-105388264D01*
X86645681Y-105427900D01*
X86836319Y-105427900D01*
X87022791Y-105388264D01*
X87196948Y-105310724D01*
X87351177Y-105198670D01*
X87364501Y-105183873D01*
X87396350Y-105148500D01*
X87478739Y-105056998D01*
X87574058Y-104891901D01*
X87632968Y-104710594D01*
X87652895Y-104521000D01*
X87632968Y-104331406D01*
X87574058Y-104150099D01*
X87478739Y-103985002D01*
X87414560Y-103913724D01*
X87351182Y-103843334D01*
X87351179Y-103843332D01*
X87351178Y-103843331D01*
X87351177Y-103843330D01*
X87235964Y-103759623D01*
X87196947Y-103731275D01*
X87022795Y-103653737D01*
X87022790Y-103653735D01*
X86836319Y-103614100D01*
X86645681Y-103614100D01*
X86615062Y-103620608D01*
X86583611Y-103627293D01*
X86513944Y-103621976D01*
X86458211Y-103579838D01*
X86434107Y-103514258D01*
X86439901Y-103467684D01*
X86489968Y-103313594D01*
X86509895Y-103124000D01*
X86489968Y-102934406D01*
X86451055Y-102814643D01*
X86449060Y-102744801D01*
X86485141Y-102684969D01*
X86518552Y-102663045D01*
X86561948Y-102643724D01*
X86716177Y-102531670D01*
X86843739Y-102389998D01*
X86939058Y-102224901D01*
X86997968Y-102043594D01*
X87017895Y-101854000D01*
X86997968Y-101664406D01*
X86939058Y-101483099D01*
X86843739Y-101318002D01*
X86793776Y-101262513D01*
X86716182Y-101176334D01*
X86716179Y-101176332D01*
X86716178Y-101176331D01*
X86716177Y-101176330D01*
X86561948Y-101064276D01*
X86561947Y-101064275D01*
X86387795Y-100986737D01*
X86387790Y-100986735D01*
X86201319Y-100947100D01*
X86010681Y-100947100D01*
X86004223Y-100947779D01*
X86004017Y-100945824D01*
X85943663Y-100941208D01*
X85887937Y-100899061D01*
X85863844Y-100833477D01*
X85864248Y-100812292D01*
X85874895Y-100711000D01*
X85854968Y-100521406D01*
X85850756Y-100508445D01*
X85848760Y-100438606D01*
X85884840Y-100378773D01*
X85942907Y-100348837D01*
X85947315Y-100347900D01*
X85947319Y-100347900D01*
X86133791Y-100308264D01*
X86307948Y-100230724D01*
X86462177Y-100118670D01*
X86589739Y-99976998D01*
X86685058Y-99811901D01*
X86743968Y-99630594D01*
X86763895Y-99441000D01*
X86743968Y-99251406D01*
X86685058Y-99070099D01*
X86589739Y-98905002D01*
X86528011Y-98836446D01*
X86462182Y-98763334D01*
X86462179Y-98763332D01*
X86462178Y-98763331D01*
X86462177Y-98763330D01*
X86307948Y-98651276D01*
X86307947Y-98651275D01*
X86133795Y-98573737D01*
X86133791Y-98573736D01*
X86075998Y-98561451D01*
X86014516Y-98528258D01*
X85980740Y-98467094D01*
X85985394Y-98397380D01*
X86026999Y-98341248D01*
X86051347Y-98326881D01*
X86053948Y-98325724D01*
X86208177Y-98213670D01*
X86335739Y-98071998D01*
X86431058Y-97906901D01*
X86489968Y-97725594D01*
X86509895Y-97536000D01*
X86489968Y-97346406D01*
X86431058Y-97165099D01*
X86335739Y-97000002D01*
X86255849Y-96911275D01*
X86208182Y-96858334D01*
X86208179Y-96858332D01*
X86208178Y-96858331D01*
X86208177Y-96858330D01*
X86053948Y-96746276D01*
X86053947Y-96746275D01*
X85879795Y-96668737D01*
X85879790Y-96668735D01*
X85693319Y-96629100D01*
X85502681Y-96629100D01*
X85316209Y-96668735D01*
X85316204Y-96668737D01*
X85142053Y-96746275D01*
X85142048Y-96746278D01*
X84987824Y-96858328D01*
X84987819Y-96858334D01*
X84979592Y-96867470D01*
X84920108Y-96904120D01*
X84887442Y-96908500D01*
X72592558Y-96908500D01*
X72525519Y-96888815D01*
X72500408Y-96867472D01*
X72492177Y-96858330D01*
X72337948Y-96746276D01*
X72337947Y-96746275D01*
X72163795Y-96668737D01*
X72163790Y-96668735D01*
X71977319Y-96629100D01*
X71786681Y-96629100D01*
X71600209Y-96668735D01*
X71600204Y-96668737D01*
X71426053Y-96746275D01*
X71426048Y-96746278D01*
X71271823Y-96858328D01*
X71271822Y-96858329D01*
X71144260Y-97000003D01*
X71048942Y-97165098D01*
X71048939Y-97165104D01*
X70990033Y-97346402D01*
X70990032Y-97346404D01*
X70970105Y-97536000D01*
X70990032Y-97725595D01*
X70990033Y-97725597D01*
X71048939Y-97906895D01*
X71048942Y-97906901D01*
X71144261Y-98071998D01*
X71148296Y-98076479D01*
X71271817Y-98213665D01*
X71271820Y-98213667D01*
X71271823Y-98213670D01*
X71419580Y-98321022D01*
X71426052Y-98325724D01*
X71600204Y-98403262D01*
X71600209Y-98403264D01*
X71786681Y-98442900D01*
X71977319Y-98442900D01*
X72163791Y-98403264D01*
X72337948Y-98325724D01*
X72492177Y-98213670D01*
X72500407Y-98204529D01*
X72559892Y-98167880D01*
X72592558Y-98163500D01*
X84887442Y-98163500D01*
X84954481Y-98183185D01*
X84979591Y-98204527D01*
X84986719Y-98212444D01*
X84987822Y-98213669D01*
X85142052Y-98325724D01*
X85316204Y-98403262D01*
X85316209Y-98403264D01*
X85374000Y-98415548D01*
X85435482Y-98448740D01*
X85469258Y-98509903D01*
X85464606Y-98579618D01*
X85423001Y-98635750D01*
X85398661Y-98650114D01*
X85396058Y-98651272D01*
X85396048Y-98651278D01*
X85241824Y-98763328D01*
X85241819Y-98763334D01*
X85233592Y-98772470D01*
X85174108Y-98809120D01*
X85141442Y-98813500D01*
X73862558Y-98813500D01*
X73795519Y-98793815D01*
X73770408Y-98772472D01*
X73762177Y-98763330D01*
X73735481Y-98743934D01*
X73607947Y-98651275D01*
X73433795Y-98573737D01*
X73433790Y-98573735D01*
X73247319Y-98534100D01*
X73056681Y-98534100D01*
X72870209Y-98573735D01*
X72870204Y-98573737D01*
X72696053Y-98651275D01*
X72696048Y-98651278D01*
X72541823Y-98763328D01*
X72541822Y-98763329D01*
X72414260Y-98905003D01*
X72318942Y-99070098D01*
X72318939Y-99070104D01*
X72260033Y-99251402D01*
X72260032Y-99251404D01*
X72240105Y-99441000D01*
X72260032Y-99630595D01*
X72260033Y-99630597D01*
X72318939Y-99811895D01*
X72318942Y-99811901D01*
X72330604Y-99832101D01*
X72414261Y-99976998D01*
X72438150Y-100003529D01*
X72468379Y-100066519D01*
X72459754Y-100135854D01*
X72415013Y-100189520D01*
X72348360Y-100210478D01*
X72345999Y-100210500D01*
X60527558Y-100210500D01*
X60460519Y-100190815D01*
X60435408Y-100169472D01*
X60427177Y-100160330D01*
X60311107Y-100076000D01*
X60272947Y-100048275D01*
X60098795Y-99970737D01*
X60098790Y-99970735D01*
X59912319Y-99931100D01*
X59721681Y-99931100D01*
X59535209Y-99970735D01*
X59535204Y-99970737D01*
X59361053Y-100048275D01*
X59361048Y-100048278D01*
X59206823Y-100160328D01*
X59206822Y-100160329D01*
X59079260Y-100302003D01*
X58983942Y-100467098D01*
X58983939Y-100467104D01*
X58925033Y-100648402D01*
X58925032Y-100648404D01*
X58905580Y-100833477D01*
X58905105Y-100838000D01*
X51201630Y-100838000D01*
X51194953Y-100834310D01*
X51194949Y-100834308D01*
X50918536Y-100719815D01*
X50880488Y-100704055D01*
X50878562Y-100703500D01*
X50553417Y-100609827D01*
X50553408Y-100609825D01*
X50217850Y-100552811D01*
X50217838Y-100552809D01*
X49902612Y-100535107D01*
X49878000Y-100533725D01*
X49877999Y-100533725D01*
X49538161Y-100552809D01*
X49538149Y-100552811D01*
X49202591Y-100609825D01*
X49202582Y-100609827D01*
X48875514Y-100704054D01*
X48561050Y-100834308D01*
X48561046Y-100834310D01*
X48263131Y-100998961D01*
X48263126Y-100998964D01*
X47985541Y-101195922D01*
X47731736Y-101422736D01*
X47504922Y-101676541D01*
X47307964Y-101954126D01*
X47307961Y-101954131D01*
X47143310Y-102252046D01*
X47143308Y-102252050D01*
X47013054Y-102566514D01*
X46918827Y-102893582D01*
X46918825Y-102893591D01*
X46861811Y-103229149D01*
X46861809Y-103229161D01*
X46842725Y-103569000D01*
X40668500Y-103569000D01*
X40668500Y-103303262D01*
X40630585Y-102773140D01*
X40554948Y-102247074D01*
X40554947Y-102247067D01*
X40441977Y-101727750D01*
X40441974Y-101727740D01*
X40292241Y-101217795D01*
X40106509Y-100719829D01*
X40106503Y-100719815D01*
X39885732Y-100236392D01*
X39885728Y-100236385D01*
X39867498Y-100203000D01*
X39631016Y-99769915D01*
X39631009Y-99769904D01*
X39343692Y-99322828D01*
X39343675Y-99322804D01*
X39025177Y-98897341D01*
X38823313Y-98664377D01*
X38677134Y-98495677D01*
X38502479Y-98321022D01*
X38301345Y-98119888D01*
X38301332Y-98119876D01*
X38301323Y-98119867D01*
X38092286Y-97938735D01*
X37899652Y-97771816D01*
X37474195Y-97453324D01*
X37474171Y-97453307D01*
X37027095Y-97165990D01*
X37027082Y-97165982D01*
X36560615Y-96911272D01*
X36560608Y-96911268D01*
X36077185Y-96690497D01*
X36018844Y-96668737D01*
X35579205Y-96504760D01*
X35579202Y-96504759D01*
X35069259Y-96355025D01*
X35069249Y-96355022D01*
X34549933Y-96242052D01*
X34023860Y-96166415D01*
X33493740Y-96128500D01*
X33493738Y-96128500D01*
X33342347Y-96128500D01*
X28452500Y-96128500D01*
X28385461Y-96108815D01*
X28339706Y-96056011D01*
X28328500Y-96004500D01*
X28328500Y-90424000D01*
X86972105Y-90424000D01*
X86992032Y-90613595D01*
X86992033Y-90613597D01*
X87050939Y-90794895D01*
X87050942Y-90794901D01*
X87146261Y-90959998D01*
X87190695Y-91009347D01*
X87273817Y-91101665D01*
X87273820Y-91101667D01*
X87273823Y-91101670D01*
X87428051Y-91213724D01*
X87428052Y-91213724D01*
X87602204Y-91291262D01*
X87602209Y-91291264D01*
X87788681Y-91330900D01*
X87979319Y-91330900D01*
X88165791Y-91291264D01*
X88339948Y-91213724D01*
X88494177Y-91101670D01*
X88502407Y-91092529D01*
X88561892Y-91055880D01*
X88594558Y-91051500D01*
X101752703Y-91051500D01*
X101803137Y-91062219D01*
X101889709Y-91100764D01*
X102076181Y-91140400D01*
X102266819Y-91140400D01*
X102453291Y-91100764D01*
X102627448Y-91023224D01*
X102781677Y-90911170D01*
X102909239Y-90769498D01*
X103004558Y-90604401D01*
X103063468Y-90423094D01*
X103083395Y-90233500D01*
X103063468Y-90043906D01*
X103004558Y-89862599D01*
X102909239Y-89697502D01*
X102852309Y-89634275D01*
X102781682Y-89555834D01*
X102781679Y-89555832D01*
X102781678Y-89555831D01*
X102781677Y-89555830D01*
X102627448Y-89443776D01*
X102627447Y-89443775D01*
X102453295Y-89366237D01*
X102453290Y-89366235D01*
X102266819Y-89326600D01*
X102076181Y-89326600D01*
X101889709Y-89366235D01*
X101889704Y-89366237D01*
X101715553Y-89443775D01*
X101715548Y-89443778D01*
X101561323Y-89555828D01*
X101561322Y-89555829D01*
X101433760Y-89697503D01*
X101412400Y-89734500D01*
X101361833Y-89782715D01*
X101305013Y-89796500D01*
X88594558Y-89796500D01*
X88527519Y-89776815D01*
X88502408Y-89755472D01*
X88494177Y-89746330D01*
X88477894Y-89734500D01*
X88339947Y-89634275D01*
X88165795Y-89556737D01*
X88165790Y-89556735D01*
X87979319Y-89517100D01*
X87788681Y-89517100D01*
X87602209Y-89556735D01*
X87602204Y-89556737D01*
X87428053Y-89634275D01*
X87428048Y-89634278D01*
X87273823Y-89746328D01*
X87273822Y-89746329D01*
X87146260Y-89888003D01*
X87050942Y-90053098D01*
X87050939Y-90053104D01*
X86992033Y-90234402D01*
X86992032Y-90234404D01*
X86972105Y-90424000D01*
X28328500Y-90424000D01*
X28328500Y-80772000D01*
X80495105Y-80772000D01*
X80515032Y-80961595D01*
X80515033Y-80961597D01*
X80573939Y-81142895D01*
X80573942Y-81142901D01*
X80669261Y-81307998D01*
X80713695Y-81357347D01*
X80796817Y-81449665D01*
X80796820Y-81449667D01*
X80796823Y-81449670D01*
X80935166Y-81550182D01*
X80951052Y-81561724D01*
X81125204Y-81639262D01*
X81125209Y-81639264D01*
X81311681Y-81678900D01*
X81502319Y-81678900D01*
X81688791Y-81639264D01*
X81862948Y-81561724D01*
X81865444Y-81559910D01*
X81878835Y-81550182D01*
X81944641Y-81526702D01*
X81951720Y-81526500D01*
X89205442Y-81526500D01*
X89272481Y-81546185D01*
X89297591Y-81567527D01*
X89305823Y-81576670D01*
X89391976Y-81639264D01*
X89460052Y-81688724D01*
X89634204Y-81766262D01*
X89634209Y-81766264D01*
X89820681Y-81805900D01*
X90011319Y-81805900D01*
X90197791Y-81766264D01*
X90371948Y-81688724D01*
X90526177Y-81576670D01*
X90539635Y-81561724D01*
X90571350Y-81526500D01*
X90653739Y-81434998D01*
X90749058Y-81269901D01*
X90807968Y-81088594D01*
X90827895Y-80899000D01*
X90807968Y-80709406D01*
X90749058Y-80528099D01*
X90653739Y-80363002D01*
X90603776Y-80307513D01*
X90526182Y-80221334D01*
X90526179Y-80221332D01*
X90526178Y-80221331D01*
X90526177Y-80221330D01*
X90371948Y-80109276D01*
X90371947Y-80109275D01*
X90197795Y-80031737D01*
X90197790Y-80031735D01*
X90011319Y-79992100D01*
X89820681Y-79992100D01*
X89634209Y-80031735D01*
X89634204Y-80031737D01*
X89460053Y-80109275D01*
X89460048Y-80109278D01*
X89305824Y-80221328D01*
X89305819Y-80221334D01*
X89297592Y-80230470D01*
X89238108Y-80267120D01*
X89205442Y-80271500D01*
X82231910Y-80271500D01*
X82164871Y-80251815D01*
X82139760Y-80230472D01*
X82017182Y-80094334D01*
X82017179Y-80094332D01*
X82017178Y-80094331D01*
X82017177Y-80094330D01*
X81862948Y-79982276D01*
X81862947Y-79982275D01*
X81688795Y-79904737D01*
X81688790Y-79904735D01*
X81502319Y-79865100D01*
X81311681Y-79865100D01*
X81125209Y-79904735D01*
X81125204Y-79904737D01*
X80951053Y-79982275D01*
X80951048Y-79982278D01*
X80796823Y-80094328D01*
X80796822Y-80094329D01*
X80669260Y-80236003D01*
X80573942Y-80401098D01*
X80573939Y-80401104D01*
X80515033Y-80582402D01*
X80515032Y-80582404D01*
X80495105Y-80772000D01*
X28328500Y-80772000D01*
X28328500Y-77216000D01*
X64958105Y-77216000D01*
X64978032Y-77405595D01*
X64978033Y-77405597D01*
X65036939Y-77586895D01*
X65036942Y-77586901D01*
X65132261Y-77751998D01*
X65145471Y-77766669D01*
X65259817Y-77893665D01*
X65259820Y-77893667D01*
X65259823Y-77893670D01*
X65414051Y-78005723D01*
X65414052Y-78005724D01*
X65588204Y-78083262D01*
X65588209Y-78083264D01*
X65774681Y-78122900D01*
X65965319Y-78122900D01*
X66151791Y-78083264D01*
X66325948Y-78005724D01*
X66480177Y-77893670D01*
X66488407Y-77884529D01*
X66547892Y-77847880D01*
X66580558Y-77843500D01*
X71171442Y-77843500D01*
X71238481Y-77863185D01*
X71263591Y-77884527D01*
X71271823Y-77893670D01*
X71357976Y-77956264D01*
X71426052Y-78005724D01*
X71600204Y-78083262D01*
X71600209Y-78083264D01*
X71786681Y-78122900D01*
X71977319Y-78122900D01*
X72163791Y-78083264D01*
X72337948Y-78005724D01*
X72492177Y-77893670D01*
X72505635Y-77878724D01*
X72550170Y-77829262D01*
X72619739Y-77751998D01*
X72715058Y-77586901D01*
X72773968Y-77405594D01*
X72793895Y-77216000D01*
X72780547Y-77089000D01*
X89004105Y-77089000D01*
X89024032Y-77278595D01*
X89024033Y-77278597D01*
X89082939Y-77459895D01*
X89082942Y-77459901D01*
X89178261Y-77624998D01*
X89191471Y-77639669D01*
X89305817Y-77766665D01*
X89305820Y-77766667D01*
X89305823Y-77766670D01*
X89460051Y-77878724D01*
X89460052Y-77878724D01*
X89634204Y-77956262D01*
X89634209Y-77956264D01*
X89820681Y-77995900D01*
X90011319Y-77995900D01*
X90197791Y-77956264D01*
X90371948Y-77878724D01*
X90526177Y-77766670D01*
X90534407Y-77757529D01*
X90593892Y-77720880D01*
X90626558Y-77716500D01*
X93523442Y-77716500D01*
X93590481Y-77736185D01*
X93615591Y-77757527D01*
X93623823Y-77766670D01*
X93709976Y-77829264D01*
X93778052Y-77878724D01*
X93952204Y-77956262D01*
X93952209Y-77956264D01*
X94138681Y-77995900D01*
X94329319Y-77995900D01*
X94515791Y-77956264D01*
X94689948Y-77878724D01*
X94844177Y-77766670D01*
X94852409Y-77757528D01*
X94889350Y-77716500D01*
X94971739Y-77624998D01*
X95067058Y-77459901D01*
X95125968Y-77278594D01*
X95145895Y-77089000D01*
X110721105Y-77089000D01*
X110741032Y-77278595D01*
X110741033Y-77278597D01*
X110799939Y-77459895D01*
X110799942Y-77459901D01*
X110895261Y-77624998D01*
X110908471Y-77639669D01*
X111022817Y-77766665D01*
X111022820Y-77766667D01*
X111022823Y-77766670D01*
X111177052Y-77878724D01*
X111351204Y-77956262D01*
X111351209Y-77956264D01*
X111537681Y-77995900D01*
X111728319Y-77995900D01*
X111914791Y-77956264D01*
X112088948Y-77878724D01*
X112243177Y-77766670D01*
X112251407Y-77757529D01*
X112310892Y-77720880D01*
X112343558Y-77716500D01*
X117488107Y-77716500D01*
X117555146Y-77736185D01*
X117580255Y-77757526D01*
X117666823Y-77853670D01*
X117808029Y-77956262D01*
X117821052Y-77965724D01*
X117995204Y-78043262D01*
X117995209Y-78043264D01*
X118181681Y-78082900D01*
X118372319Y-78082900D01*
X118558791Y-78043264D01*
X118732948Y-77965724D01*
X118887177Y-77853670D01*
X118892391Y-77847880D01*
X118914814Y-77822975D01*
X119014739Y-77711998D01*
X119110058Y-77546901D01*
X119168968Y-77365594D01*
X119188895Y-77176000D01*
X119168968Y-76986406D01*
X119126935Y-76857040D01*
X119110060Y-76805104D01*
X119110057Y-76805098D01*
X119014739Y-76640002D01*
X118931423Y-76547470D01*
X118887182Y-76498334D01*
X118887179Y-76498332D01*
X118887178Y-76498331D01*
X118887177Y-76498330D01*
X118767432Y-76411330D01*
X118732947Y-76386275D01*
X118558795Y-76308737D01*
X118558790Y-76308735D01*
X118372319Y-76269100D01*
X118181681Y-76269100D01*
X117995209Y-76308735D01*
X117995204Y-76308737D01*
X117821053Y-76386275D01*
X117786570Y-76411329D01*
X117750109Y-76437818D01*
X117684305Y-76461298D01*
X117677226Y-76461500D01*
X112343558Y-76461500D01*
X112276519Y-76441815D01*
X112251408Y-76420472D01*
X112243177Y-76411330D01*
X112157024Y-76348736D01*
X112088947Y-76299275D01*
X111914795Y-76221737D01*
X111914790Y-76221735D01*
X111728319Y-76182100D01*
X111537681Y-76182100D01*
X111351209Y-76221735D01*
X111351204Y-76221737D01*
X111177053Y-76299275D01*
X111177048Y-76299278D01*
X111022823Y-76411328D01*
X111022822Y-76411329D01*
X110895260Y-76553003D01*
X110799942Y-76718098D01*
X110799939Y-76718104D01*
X110741033Y-76899402D01*
X110741032Y-76899404D01*
X110721105Y-77089000D01*
X95145895Y-77089000D01*
X95125968Y-76899406D01*
X95067058Y-76718099D01*
X94971739Y-76553002D01*
X94921776Y-76497513D01*
X94844182Y-76411334D01*
X94844179Y-76411332D01*
X94844178Y-76411331D01*
X94844177Y-76411330D01*
X94689948Y-76299276D01*
X94689947Y-76299275D01*
X94515795Y-76221737D01*
X94515790Y-76221735D01*
X94329319Y-76182100D01*
X94138681Y-76182100D01*
X93952209Y-76221735D01*
X93952204Y-76221737D01*
X93778053Y-76299275D01*
X93778048Y-76299278D01*
X93623824Y-76411328D01*
X93623819Y-76411334D01*
X93615592Y-76420470D01*
X93556108Y-76457120D01*
X93523442Y-76461500D01*
X90626558Y-76461500D01*
X90559519Y-76441815D01*
X90534408Y-76420472D01*
X90526177Y-76411330D01*
X90440024Y-76348736D01*
X90371947Y-76299275D01*
X90197795Y-76221737D01*
X90197790Y-76221735D01*
X90011319Y-76182100D01*
X89820681Y-76182100D01*
X89634209Y-76221735D01*
X89634204Y-76221737D01*
X89460053Y-76299275D01*
X89460048Y-76299278D01*
X89305823Y-76411328D01*
X89305822Y-76411329D01*
X89178260Y-76553003D01*
X89082942Y-76718098D01*
X89082939Y-76718104D01*
X89024033Y-76899402D01*
X89024032Y-76899404D01*
X89004105Y-77089000D01*
X72780547Y-77089000D01*
X72773968Y-77026406D01*
X72735616Y-76908373D01*
X72715060Y-76845104D01*
X72715057Y-76845098D01*
X72619739Y-76680002D01*
X72539695Y-76591104D01*
X72492182Y-76538334D01*
X72492179Y-76538332D01*
X72492178Y-76538331D01*
X72492177Y-76538330D01*
X72337948Y-76426276D01*
X72337947Y-76426275D01*
X72163795Y-76348737D01*
X72163790Y-76348735D01*
X71977319Y-76309100D01*
X71786681Y-76309100D01*
X71600209Y-76348735D01*
X71600204Y-76348737D01*
X71426053Y-76426275D01*
X71426048Y-76426278D01*
X71271824Y-76538328D01*
X71271819Y-76538334D01*
X71263592Y-76547470D01*
X71204108Y-76584120D01*
X71171442Y-76588500D01*
X66580558Y-76588500D01*
X66513519Y-76568815D01*
X66488408Y-76547472D01*
X66480177Y-76538330D01*
X66347336Y-76441815D01*
X66325947Y-76426275D01*
X66151795Y-76348737D01*
X66151790Y-76348735D01*
X65965319Y-76309100D01*
X65774681Y-76309100D01*
X65588209Y-76348735D01*
X65588204Y-76348737D01*
X65414053Y-76426275D01*
X65414048Y-76426278D01*
X65259823Y-76538328D01*
X65259822Y-76538329D01*
X65132260Y-76680003D01*
X65036942Y-76845098D01*
X65036939Y-76845104D01*
X64978033Y-77026402D01*
X64978032Y-77026404D01*
X64958105Y-77216000D01*
X28328500Y-77216000D01*
X28328500Y-71418999D01*
X46842725Y-71418999D01*
X46861809Y-71758838D01*
X46861811Y-71758850D01*
X46918825Y-72094408D01*
X46918827Y-72094417D01*
X47013054Y-72421485D01*
X47143308Y-72735949D01*
X47143310Y-72735953D01*
X47307961Y-73033868D01*
X47307964Y-73033873D01*
X47504922Y-73311458D01*
X47504926Y-73311463D01*
X47731736Y-73565264D01*
X47985537Y-73792074D01*
X47985540Y-73792076D01*
X47985541Y-73792077D01*
X48263126Y-73989035D01*
X48263131Y-73989038D01*
X48561046Y-74153689D01*
X48561050Y-74153691D01*
X48681558Y-74203606D01*
X48875512Y-74283945D01*
X49202588Y-74378174D01*
X49538157Y-74435190D01*
X49878000Y-74454275D01*
X50217843Y-74435190D01*
X50553412Y-74378174D01*
X50880488Y-74283945D01*
X51194956Y-74153688D01*
X51492864Y-73989041D01*
X51492869Y-73989037D01*
X51492873Y-73989035D01*
X51607602Y-73907629D01*
X51770463Y-73792074D01*
X52024264Y-73565264D01*
X52251074Y-73311463D01*
X52448041Y-73033864D01*
X52612688Y-72735956D01*
X52742945Y-72421488D01*
X52837174Y-72094412D01*
X52894190Y-71758843D01*
X52913275Y-71419000D01*
X123242725Y-71419000D01*
X123261809Y-71758838D01*
X123261811Y-71758850D01*
X123318825Y-72094408D01*
X123318827Y-72094417D01*
X123413054Y-72421485D01*
X123543308Y-72735949D01*
X123543310Y-72735953D01*
X123707961Y-73033868D01*
X123707964Y-73033873D01*
X123904922Y-73311458D01*
X123904926Y-73311463D01*
X124131736Y-73565264D01*
X124385537Y-73792074D01*
X124385540Y-73792076D01*
X124385541Y-73792077D01*
X124663126Y-73989035D01*
X124663131Y-73989038D01*
X124961046Y-74153689D01*
X124961050Y-74153691D01*
X125081558Y-74203606D01*
X125275512Y-74283945D01*
X125602588Y-74378174D01*
X125938157Y-74435190D01*
X126278000Y-74454275D01*
X126617843Y-74435190D01*
X126953412Y-74378174D01*
X127280488Y-74283945D01*
X127594956Y-74153688D01*
X127892864Y-73989041D01*
X127892869Y-73989037D01*
X127892873Y-73989035D01*
X128007602Y-73907629D01*
X128170463Y-73792074D01*
X128424264Y-73565264D01*
X128651074Y-73311463D01*
X128848041Y-73033864D01*
X129012688Y-72735956D01*
X129142945Y-72421488D01*
X129237174Y-72094412D01*
X129294190Y-71758843D01*
X129313275Y-71419000D01*
X129294190Y-71079157D01*
X129237174Y-70743588D01*
X129142945Y-70416512D01*
X129062606Y-70222558D01*
X129012691Y-70102050D01*
X129012689Y-70102046D01*
X128848038Y-69804131D01*
X128848035Y-69804126D01*
X128651077Y-69526541D01*
X128651076Y-69526540D01*
X128651074Y-69526537D01*
X128424264Y-69272736D01*
X128170463Y-69045926D01*
X128170460Y-69045924D01*
X128170458Y-69045922D01*
X127892873Y-68848964D01*
X127892868Y-68848961D01*
X127594953Y-68684310D01*
X127594949Y-68684308D01*
X127337293Y-68577584D01*
X127280488Y-68554055D01*
X127280485Y-68554054D01*
X126953417Y-68459827D01*
X126953408Y-68459825D01*
X126617850Y-68402811D01*
X126617838Y-68402809D01*
X126278000Y-68383725D01*
X125938161Y-68402809D01*
X125938149Y-68402811D01*
X125602591Y-68459825D01*
X125602582Y-68459827D01*
X125275514Y-68554054D01*
X124961050Y-68684308D01*
X124961046Y-68684310D01*
X124663131Y-68848961D01*
X124663126Y-68848964D01*
X124385541Y-69045922D01*
X124131736Y-69272736D01*
X123904922Y-69526541D01*
X123707964Y-69804126D01*
X123707961Y-69804131D01*
X123543310Y-70102046D01*
X123543308Y-70102050D01*
X123413054Y-70416514D01*
X123318827Y-70743582D01*
X123318825Y-70743591D01*
X123261811Y-71079149D01*
X123261809Y-71079161D01*
X123242725Y-71419000D01*
X52913275Y-71419000D01*
X52894190Y-71079157D01*
X52837174Y-70743588D01*
X52742945Y-70416512D01*
X52662606Y-70222558D01*
X52612691Y-70102050D01*
X52612689Y-70102046D01*
X52448038Y-69804131D01*
X52448035Y-69804126D01*
X52251077Y-69526541D01*
X52251076Y-69526540D01*
X52251074Y-69526537D01*
X52024264Y-69272736D01*
X51770463Y-69045926D01*
X51770460Y-69045924D01*
X51770458Y-69045922D01*
X51492873Y-68848964D01*
X51492868Y-68848961D01*
X51194953Y-68684310D01*
X51194949Y-68684308D01*
X50937293Y-68577584D01*
X50880488Y-68554055D01*
X50880485Y-68554054D01*
X50553417Y-68459827D01*
X50553408Y-68459825D01*
X50217850Y-68402811D01*
X50217838Y-68402809D01*
X49902612Y-68385107D01*
X49878000Y-68383725D01*
X49877999Y-68383725D01*
X49538161Y-68402809D01*
X49538149Y-68402811D01*
X49202591Y-68459825D01*
X49202582Y-68459827D01*
X48875514Y-68554054D01*
X48561050Y-68684308D01*
X48561046Y-68684310D01*
X48263131Y-68848961D01*
X48263126Y-68848964D01*
X47985541Y-69045922D01*
X47731736Y-69272736D01*
X47504922Y-69526541D01*
X47307964Y-69804126D01*
X47307961Y-69804131D01*
X47143310Y-70102046D01*
X47143308Y-70102050D01*
X47013054Y-70416514D01*
X46918827Y-70743582D01*
X46918825Y-70743591D01*
X46861811Y-71079149D01*
X46861809Y-71079161D01*
X46842725Y-71418999D01*
X28328500Y-71418999D01*
X28328500Y-65538800D01*
X33482341Y-65538800D01*
X33502936Y-65774203D01*
X33502938Y-65774213D01*
X33564094Y-66002455D01*
X33564096Y-66002459D01*
X33564097Y-66002463D01*
X33568000Y-66010832D01*
X33663965Y-66216630D01*
X33663967Y-66216634D01*
X33718140Y-66294000D01*
X33799505Y-66410201D01*
X33966599Y-66577295D01*
X34063384Y-66645064D01*
X34160165Y-66712832D01*
X34160167Y-66712833D01*
X34160170Y-66712835D01*
X34374337Y-66812703D01*
X34602592Y-66873863D01*
X34779034Y-66889300D01*
X34837999Y-66894459D01*
X34838000Y-66894459D01*
X34838001Y-66894459D01*
X34896966Y-66889300D01*
X35073408Y-66873863D01*
X35301663Y-66812703D01*
X35515830Y-66712835D01*
X35709401Y-66577295D01*
X35876495Y-66410201D01*
X36006424Y-66224642D01*
X36061002Y-66181017D01*
X36130500Y-66173823D01*
X36192855Y-66205346D01*
X36209575Y-66224642D01*
X36339500Y-66410195D01*
X36339505Y-66410201D01*
X36506599Y-66577295D01*
X36603384Y-66645064D01*
X36700165Y-66712832D01*
X36700167Y-66712833D01*
X36700170Y-66712835D01*
X36914337Y-66812703D01*
X37142592Y-66873863D01*
X37319034Y-66889300D01*
X37377999Y-66894459D01*
X37378000Y-66894459D01*
X37378001Y-66894459D01*
X37436966Y-66889300D01*
X37613408Y-66873863D01*
X37841663Y-66812703D01*
X38055830Y-66712835D01*
X38249401Y-66577295D01*
X38371329Y-66455366D01*
X38432648Y-66421884D01*
X38502340Y-66426868D01*
X38558274Y-66468739D01*
X38575189Y-66499717D01*
X38624202Y-66631128D01*
X38624206Y-66631135D01*
X38710452Y-66746344D01*
X38710455Y-66746347D01*
X38825664Y-66832593D01*
X38825671Y-66832597D01*
X38960517Y-66882891D01*
X38960516Y-66882891D01*
X38967444Y-66883635D01*
X39020127Y-66889300D01*
X40815872Y-66889299D01*
X40875483Y-66882891D01*
X41010331Y-66832596D01*
X41125546Y-66746346D01*
X41211796Y-66631131D01*
X41262091Y-66496283D01*
X41268500Y-66436673D01*
X41268500Y-66294000D01*
X103228105Y-66294000D01*
X103248032Y-66483595D01*
X103248033Y-66483597D01*
X103306939Y-66664895D01*
X103306942Y-66664901D01*
X103402261Y-66829998D01*
X103433079Y-66864225D01*
X103529817Y-66971665D01*
X103529820Y-66971667D01*
X103529823Y-66971670D01*
X103684051Y-67083724D01*
X103684052Y-67083724D01*
X103858204Y-67161262D01*
X103858209Y-67161264D01*
X104044681Y-67200900D01*
X104235319Y-67200900D01*
X104421791Y-67161264D01*
X104595948Y-67083724D01*
X104750177Y-66971670D01*
X104758407Y-66962529D01*
X104817892Y-66925880D01*
X104850558Y-66921500D01*
X112392033Y-66921500D01*
X112407681Y-66923227D01*
X112407708Y-66922946D01*
X112415475Y-66923680D01*
X112415476Y-66923679D01*
X112415477Y-66923680D01*
X112422104Y-66923471D01*
X112483892Y-66921531D01*
X112485839Y-66921500D01*
X112514473Y-66921500D01*
X112514476Y-66921500D01*
X112521378Y-66920627D01*
X112527190Y-66920169D01*
X112573943Y-66918701D01*
X112593272Y-66913084D01*
X112612328Y-66909137D01*
X112632293Y-66906616D01*
X112675770Y-66889401D01*
X112681276Y-66887516D01*
X112726191Y-66874468D01*
X112743515Y-66864221D01*
X112760983Y-66855663D01*
X112779703Y-66848253D01*
X112817542Y-66820759D01*
X112822391Y-66817574D01*
X112862656Y-66793763D01*
X112876897Y-66779520D01*
X112891678Y-66766897D01*
X112907967Y-66755063D01*
X112907969Y-66755059D01*
X112907971Y-66755059D01*
X112919845Y-66740703D01*
X112937776Y-66719028D01*
X112941689Y-66714728D01*
X113141201Y-66515216D01*
X113202524Y-66481734D01*
X113228881Y-66478900D01*
X113292319Y-66478900D01*
X113478791Y-66439264D01*
X113652948Y-66361724D01*
X113807177Y-66249670D01*
X113934739Y-66107998D01*
X114030058Y-65942901D01*
X114088968Y-65761594D01*
X114108895Y-65572000D01*
X114088968Y-65382406D01*
X114047982Y-65256264D01*
X114030060Y-65201104D01*
X114030057Y-65201098D01*
X113934739Y-65036002D01*
X113834791Y-64924998D01*
X113807182Y-64894334D01*
X113807179Y-64894332D01*
X113807178Y-64894331D01*
X113807177Y-64894330D01*
X113652948Y-64782276D01*
X113652947Y-64782275D01*
X113478795Y-64704737D01*
X113478790Y-64704735D01*
X113292319Y-64665100D01*
X113101681Y-64665100D01*
X112915209Y-64704735D01*
X112915204Y-64704737D01*
X112741053Y-64782275D01*
X112741048Y-64782278D01*
X112586823Y-64894328D01*
X112586822Y-64894329D01*
X112459260Y-65036003D01*
X112363942Y-65201098D01*
X112363939Y-65201104D01*
X112305033Y-65382402D01*
X112305032Y-65382405D01*
X112286843Y-65555462D01*
X112260258Y-65620077D01*
X112202960Y-65660061D01*
X112163522Y-65666500D01*
X104850558Y-65666500D01*
X104783519Y-65646815D01*
X104758408Y-65625472D01*
X104750177Y-65616330D01*
X104689161Y-65571999D01*
X104595947Y-65504275D01*
X104421795Y-65426737D01*
X104421790Y-65426735D01*
X104235319Y-65387100D01*
X104044681Y-65387100D01*
X103858209Y-65426735D01*
X103858204Y-65426737D01*
X103684053Y-65504275D01*
X103684048Y-65504278D01*
X103529823Y-65616328D01*
X103529822Y-65616329D01*
X103402260Y-65758003D01*
X103306942Y-65923098D01*
X103306939Y-65923104D01*
X103248033Y-66104402D01*
X103248032Y-66104404D01*
X103228105Y-66294000D01*
X41268500Y-66294000D01*
X41268499Y-64640928D01*
X41262091Y-64581317D01*
X41261075Y-64578594D01*
X41211797Y-64446471D01*
X41211793Y-64446464D01*
X41125547Y-64331255D01*
X41125544Y-64331252D01*
X41010335Y-64245006D01*
X41010328Y-64245002D01*
X40875482Y-64194708D01*
X40875483Y-64194708D01*
X40815883Y-64188301D01*
X40815881Y-64188300D01*
X40815873Y-64188300D01*
X40815864Y-64188300D01*
X39020129Y-64188300D01*
X39020123Y-64188301D01*
X38960516Y-64194708D01*
X38825671Y-64245002D01*
X38825664Y-64245006D01*
X38710455Y-64331252D01*
X38710452Y-64331255D01*
X38624206Y-64446464D01*
X38624203Y-64446469D01*
X38575189Y-64577883D01*
X38533317Y-64633816D01*
X38467853Y-64658233D01*
X38399580Y-64643381D01*
X38371326Y-64622230D01*
X38249402Y-64500306D01*
X38249395Y-64500301D01*
X38055834Y-64364767D01*
X38055830Y-64364765D01*
X38055828Y-64364764D01*
X37841663Y-64264897D01*
X37841659Y-64264896D01*
X37841655Y-64264894D01*
X37613413Y-64203738D01*
X37613403Y-64203736D01*
X37378001Y-64183141D01*
X37377999Y-64183141D01*
X37142596Y-64203736D01*
X37142586Y-64203738D01*
X36914344Y-64264894D01*
X36914335Y-64264898D01*
X36700171Y-64364764D01*
X36700169Y-64364765D01*
X36506597Y-64500305D01*
X36339505Y-64667397D01*
X36209575Y-64852958D01*
X36154998Y-64896583D01*
X36085500Y-64903777D01*
X36023145Y-64872254D01*
X36006425Y-64852958D01*
X35876494Y-64667397D01*
X35709402Y-64500306D01*
X35709395Y-64500301D01*
X35515834Y-64364767D01*
X35515830Y-64364765D01*
X35515828Y-64364764D01*
X35301663Y-64264897D01*
X35301659Y-64264896D01*
X35301655Y-64264894D01*
X35073413Y-64203738D01*
X35073403Y-64203736D01*
X34838001Y-64183141D01*
X34837999Y-64183141D01*
X34602596Y-64203736D01*
X34602586Y-64203738D01*
X34374344Y-64264894D01*
X34374335Y-64264898D01*
X34160171Y-64364764D01*
X34160169Y-64364765D01*
X33966597Y-64500305D01*
X33799505Y-64667397D01*
X33663965Y-64860969D01*
X33663964Y-64860971D01*
X33564098Y-65075135D01*
X33564094Y-65075144D01*
X33502938Y-65303386D01*
X33502936Y-65303396D01*
X33482341Y-65538799D01*
X33482341Y-65538800D01*
X28328500Y-65538800D01*
X28328500Y-63119000D01*
X50650105Y-63119000D01*
X50670032Y-63308595D01*
X50670033Y-63308597D01*
X50728939Y-63489895D01*
X50728942Y-63489901D01*
X50824261Y-63654998D01*
X50868695Y-63704347D01*
X50951817Y-63796665D01*
X50951820Y-63796667D01*
X50951823Y-63796670D01*
X51029359Y-63853003D01*
X51106052Y-63908724D01*
X51280204Y-63986262D01*
X51280209Y-63986264D01*
X51466681Y-64025900D01*
X51657319Y-64025900D01*
X51843791Y-63986264D01*
X52017948Y-63908724D01*
X52172177Y-63796670D01*
X52180407Y-63787529D01*
X52239892Y-63750880D01*
X52272558Y-63746500D01*
X58979442Y-63746500D01*
X59046481Y-63766185D01*
X59071591Y-63787527D01*
X59078719Y-63795444D01*
X59079822Y-63796669D01*
X59234052Y-63908724D01*
X59408204Y-63986262D01*
X59408209Y-63986264D01*
X59594681Y-64025900D01*
X59785319Y-64025900D01*
X59971791Y-63986264D01*
X60145948Y-63908724D01*
X60300177Y-63796670D01*
X60308407Y-63787529D01*
X60367892Y-63750880D01*
X60400558Y-63746500D01*
X71697719Y-63746500D01*
X71764758Y-63766185D01*
X71785400Y-63782819D01*
X72333180Y-64330599D01*
X72366665Y-64391922D01*
X72368820Y-64405318D01*
X72387032Y-64578594D01*
X72387033Y-64578597D01*
X72445939Y-64759895D01*
X72445942Y-64759901D01*
X72541261Y-64924998D01*
X72585695Y-64974347D01*
X72668817Y-65066665D01*
X72668820Y-65066667D01*
X72668823Y-65066670D01*
X72823051Y-65178723D01*
X72823052Y-65178724D01*
X72997204Y-65256262D01*
X72997209Y-65256264D01*
X73183681Y-65295900D01*
X73374319Y-65295900D01*
X73560791Y-65256264D01*
X73734948Y-65178724D01*
X73889177Y-65066670D01*
X74016739Y-64924998D01*
X74112058Y-64759901D01*
X74170968Y-64578594D01*
X74190895Y-64389000D01*
X74170968Y-64199406D01*
X74112058Y-64018099D01*
X74016739Y-63853002D01*
X73953546Y-63782819D01*
X73889182Y-63711334D01*
X73889179Y-63711332D01*
X73889178Y-63711331D01*
X73889177Y-63711330D01*
X73734948Y-63599276D01*
X73734947Y-63599275D01*
X73560795Y-63521737D01*
X73560790Y-63521735D01*
X73374319Y-63482100D01*
X73310881Y-63482100D01*
X73243842Y-63462415D01*
X73223200Y-63445781D01*
X72642419Y-62865000D01*
X76050105Y-62865000D01*
X76070032Y-63054595D01*
X76070033Y-63054597D01*
X76128939Y-63235895D01*
X76128942Y-63235901D01*
X76224261Y-63400998D01*
X76264584Y-63445781D01*
X76351817Y-63542665D01*
X76351820Y-63542667D01*
X76351823Y-63542670D01*
X76506052Y-63654724D01*
X76680204Y-63732262D01*
X76680209Y-63732264D01*
X76866681Y-63771900D01*
X77057319Y-63771900D01*
X77243791Y-63732264D01*
X77417948Y-63654724D01*
X77572177Y-63542670D01*
X77580407Y-63533529D01*
X77639892Y-63496880D01*
X77672558Y-63492500D01*
X81077442Y-63492500D01*
X81144481Y-63512185D01*
X81169591Y-63533527D01*
X81177823Y-63542670D01*
X81332051Y-63654724D01*
X81332052Y-63654724D01*
X81506204Y-63732262D01*
X81506209Y-63732264D01*
X81692681Y-63771900D01*
X81883319Y-63771900D01*
X82069791Y-63732264D01*
X82243948Y-63654724D01*
X82398177Y-63542670D01*
X82525739Y-63400998D01*
X82541904Y-63373000D01*
X126977105Y-63373000D01*
X126980048Y-63400998D01*
X126997032Y-63562595D01*
X126997033Y-63562597D01*
X127055939Y-63743895D01*
X127055942Y-63743901D01*
X127151261Y-63908998D01*
X127195695Y-63958347D01*
X127278817Y-64050665D01*
X127278820Y-64050667D01*
X127278823Y-64050670D01*
X127433052Y-64162724D01*
X127607204Y-64240262D01*
X127607209Y-64240264D01*
X127793681Y-64279900D01*
X127984319Y-64279900D01*
X128170791Y-64240264D01*
X128344948Y-64162724D01*
X128499177Y-64050670D01*
X128507407Y-64041529D01*
X128566892Y-64004880D01*
X128599558Y-64000500D01*
X131496442Y-64000500D01*
X131563481Y-64020185D01*
X131588591Y-64041527D01*
X131595719Y-64049444D01*
X131596822Y-64050669D01*
X131751052Y-64162724D01*
X131925204Y-64240262D01*
X131925209Y-64240264D01*
X132111681Y-64279900D01*
X132302319Y-64279900D01*
X132488791Y-64240264D01*
X132662948Y-64162724D01*
X132817177Y-64050670D01*
X132944739Y-63908998D01*
X133040058Y-63743901D01*
X133098968Y-63562594D01*
X133118895Y-63373000D01*
X133098968Y-63183406D01*
X133040058Y-63002099D01*
X132944739Y-62837002D01*
X132864695Y-62748104D01*
X132817182Y-62695334D01*
X132817179Y-62695332D01*
X132817178Y-62695331D01*
X132817177Y-62695330D01*
X132676204Y-62592907D01*
X132662947Y-62583275D01*
X132488795Y-62505737D01*
X132488790Y-62505735D01*
X132302319Y-62466100D01*
X132111681Y-62466100D01*
X131925209Y-62505735D01*
X131925204Y-62505737D01*
X131751053Y-62583275D01*
X131751048Y-62583278D01*
X131596824Y-62695328D01*
X131596819Y-62695334D01*
X131588592Y-62704470D01*
X131529108Y-62741120D01*
X131496442Y-62745500D01*
X128599558Y-62745500D01*
X128532519Y-62725815D01*
X128507408Y-62704472D01*
X128499177Y-62695330D01*
X128471751Y-62675404D01*
X128344947Y-62583275D01*
X128170795Y-62505737D01*
X128170790Y-62505735D01*
X127984319Y-62466100D01*
X127793681Y-62466100D01*
X127607209Y-62505735D01*
X127607204Y-62505737D01*
X127433053Y-62583275D01*
X127433048Y-62583278D01*
X127278823Y-62695328D01*
X127278822Y-62695329D01*
X127151260Y-62837003D01*
X127055942Y-63002098D01*
X127055939Y-63002104D01*
X126997033Y-63183402D01*
X126997032Y-63183404D01*
X126983874Y-63308594D01*
X126977105Y-63373000D01*
X82541904Y-63373000D01*
X82621058Y-63235901D01*
X82679968Y-63054594D01*
X82699895Y-62865000D01*
X82679968Y-62675406D01*
X82633025Y-62530929D01*
X82621060Y-62494104D01*
X82621057Y-62494098D01*
X82619557Y-62491500D01*
X82525739Y-62329002D01*
X82461560Y-62257724D01*
X82398182Y-62187334D01*
X82398179Y-62187332D01*
X82398178Y-62187331D01*
X82398177Y-62187330D01*
X82243948Y-62075276D01*
X82243943Y-62075274D01*
X82239813Y-62072889D01*
X82191596Y-62022323D01*
X82178371Y-61953717D01*
X82204337Y-61888851D01*
X82261250Y-61848321D01*
X82301810Y-61841500D01*
X88951442Y-61841500D01*
X89018481Y-61861185D01*
X89043591Y-61882527D01*
X89051823Y-61891670D01*
X89137976Y-61954264D01*
X89206052Y-62003724D01*
X89380204Y-62081262D01*
X89380209Y-62081264D01*
X89566681Y-62120900D01*
X89757319Y-62120900D01*
X89943791Y-62081264D01*
X90117948Y-62003724D01*
X90272177Y-61891670D01*
X90274716Y-61888851D01*
X90299814Y-61860975D01*
X90399739Y-61749998D01*
X90495058Y-61584901D01*
X90553968Y-61403594D01*
X90573895Y-61214000D01*
X90560547Y-61087000D01*
X98402105Y-61087000D01*
X98422032Y-61276595D01*
X98422033Y-61276597D01*
X98480939Y-61457895D01*
X98480942Y-61457901D01*
X98576261Y-61622998D01*
X98607414Y-61657597D01*
X98703817Y-61764665D01*
X98703820Y-61764667D01*
X98703823Y-61764670D01*
X98842166Y-61865182D01*
X98858052Y-61876724D01*
X99032204Y-61954262D01*
X99032209Y-61954264D01*
X99218681Y-61993900D01*
X99409319Y-61993900D01*
X99595791Y-61954264D01*
X99769948Y-61876724D01*
X99772444Y-61874910D01*
X99785835Y-61865182D01*
X99851641Y-61841702D01*
X99858720Y-61841500D01*
X103175442Y-61841500D01*
X103242481Y-61861185D01*
X103267591Y-61882527D01*
X103275823Y-61891670D01*
X103361976Y-61954264D01*
X103430052Y-62003724D01*
X103604204Y-62081262D01*
X103604209Y-62081264D01*
X103790681Y-62120900D01*
X103981319Y-62120900D01*
X104167791Y-62081264D01*
X104341948Y-62003724D01*
X104496177Y-61891670D01*
X104498716Y-61888851D01*
X104523814Y-61860975D01*
X104623739Y-61749998D01*
X104719058Y-61584901D01*
X104757041Y-61468000D01*
X128120105Y-61468000D01*
X128140032Y-61657595D01*
X128140033Y-61657597D01*
X128198939Y-61838895D01*
X128198942Y-61838901D01*
X128294261Y-62003998D01*
X128319742Y-62032297D01*
X128421817Y-62145665D01*
X128421820Y-62145667D01*
X128421823Y-62145670D01*
X128521122Y-62217815D01*
X128576052Y-62257724D01*
X128750204Y-62335262D01*
X128750209Y-62335264D01*
X128936681Y-62374900D01*
X129127319Y-62374900D01*
X129313791Y-62335264D01*
X129487948Y-62257724D01*
X129642177Y-62145670D01*
X129650407Y-62136529D01*
X129709892Y-62099880D01*
X129742558Y-62095500D01*
X140640442Y-62095500D01*
X140707481Y-62115185D01*
X140732591Y-62136527D01*
X140740823Y-62145670D01*
X140840122Y-62217815D01*
X140895052Y-62257724D01*
X141069204Y-62335262D01*
X141069209Y-62335264D01*
X141255681Y-62374900D01*
X141446319Y-62374900D01*
X141632791Y-62335264D01*
X141806948Y-62257724D01*
X141961177Y-62145670D01*
X142088739Y-62003998D01*
X142184058Y-61838901D01*
X142242968Y-61657594D01*
X142262895Y-61468000D01*
X142242968Y-61278406D01*
X142184058Y-61097099D01*
X142088739Y-60932002D01*
X142022236Y-60858143D01*
X141961182Y-60790334D01*
X141961179Y-60790332D01*
X141961178Y-60790331D01*
X141961177Y-60790330D01*
X141806948Y-60678276D01*
X141806947Y-60678275D01*
X141632795Y-60600737D01*
X141632790Y-60600735D01*
X141446319Y-60561100D01*
X141255681Y-60561100D01*
X141069209Y-60600735D01*
X141069204Y-60600737D01*
X140895053Y-60678275D01*
X140895048Y-60678278D01*
X140740824Y-60790328D01*
X140740819Y-60790334D01*
X140732592Y-60799470D01*
X140673108Y-60836120D01*
X140640442Y-60840500D01*
X136654051Y-60840500D01*
X136587012Y-60820815D01*
X136541257Y-60768011D01*
X136531313Y-60698853D01*
X136560338Y-60635297D01*
X136619116Y-60597523D01*
X136628270Y-60595210D01*
X136670936Y-60586141D01*
X136806791Y-60557264D01*
X136980948Y-60479724D01*
X137135177Y-60367670D01*
X137143409Y-60358528D01*
X137198558Y-60297278D01*
X137262739Y-60225998D01*
X137358058Y-60060901D01*
X137416968Y-59879594D01*
X137436895Y-59690000D01*
X137416968Y-59500406D01*
X137363814Y-59336817D01*
X137361820Y-59266977D01*
X137397900Y-59207144D01*
X137460601Y-59176316D01*
X137481746Y-59174500D01*
X138227442Y-59174500D01*
X138294481Y-59194185D01*
X138319591Y-59215527D01*
X138327823Y-59224670D01*
X138413976Y-59287264D01*
X138482052Y-59336724D01*
X138656204Y-59414262D01*
X138656209Y-59414264D01*
X138842681Y-59453900D01*
X139033319Y-59453900D01*
X139219791Y-59414264D01*
X139393948Y-59336724D01*
X139548177Y-59224670D01*
X139561635Y-59209724D01*
X139595690Y-59171901D01*
X139675739Y-59082998D01*
X139771058Y-58917901D01*
X139829968Y-58736594D01*
X139849895Y-58547000D01*
X139829968Y-58357406D01*
X139771058Y-58176099D01*
X139675739Y-58011002D01*
X139625776Y-57955513D01*
X139548182Y-57869334D01*
X139548179Y-57869332D01*
X139548178Y-57869331D01*
X139548177Y-57869330D01*
X139393948Y-57757276D01*
X139393947Y-57757275D01*
X139219795Y-57679737D01*
X139219790Y-57679735D01*
X139033319Y-57640100D01*
X138842681Y-57640100D01*
X138656209Y-57679735D01*
X138656204Y-57679737D01*
X138482053Y-57757275D01*
X138482048Y-57757278D01*
X138327824Y-57869328D01*
X138327819Y-57869334D01*
X138319592Y-57878470D01*
X138260108Y-57915120D01*
X138227442Y-57919500D01*
X131989720Y-57919500D01*
X131922681Y-57899815D01*
X131916835Y-57895818D01*
X131900952Y-57884278D01*
X131900947Y-57884275D01*
X131726795Y-57806737D01*
X131726790Y-57806735D01*
X131540319Y-57767100D01*
X131349681Y-57767100D01*
X131163209Y-57806735D01*
X131163204Y-57806737D01*
X130989053Y-57884275D01*
X130989048Y-57884278D01*
X130834823Y-57996328D01*
X130834822Y-57996329D01*
X130707260Y-58138003D01*
X130611942Y-58303098D01*
X130611939Y-58303104D01*
X130553033Y-58484402D01*
X130553032Y-58484404D01*
X130533105Y-58674000D01*
X130546652Y-58802892D01*
X130534082Y-58871622D01*
X130486350Y-58922645D01*
X130418610Y-58939763D01*
X130397551Y-58937143D01*
X130270320Y-58910100D01*
X130270319Y-58910100D01*
X130079681Y-58910100D01*
X129893209Y-58949735D01*
X129893204Y-58949737D01*
X129719053Y-59027275D01*
X129719048Y-59027278D01*
X129564823Y-59139328D01*
X129564822Y-59139329D01*
X129437260Y-59281003D01*
X129341942Y-59446098D01*
X129341939Y-59446104D01*
X129283033Y-59627402D01*
X129283032Y-59627404D01*
X129266019Y-59789275D01*
X129263105Y-59817000D01*
X129265390Y-59838736D01*
X129283032Y-60006595D01*
X129283033Y-60006597D01*
X129341939Y-60187895D01*
X129341942Y-60187901D01*
X129431790Y-60343523D01*
X129437261Y-60352998D01*
X129501356Y-60424183D01*
X129501848Y-60424729D01*
X129532077Y-60487721D01*
X129523451Y-60557056D01*
X129478710Y-60610722D01*
X129412057Y-60631679D01*
X129359262Y-60620981D01*
X129313791Y-60600736D01*
X129313789Y-60600735D01*
X129313788Y-60600735D01*
X129127319Y-60561100D01*
X128936681Y-60561100D01*
X128750209Y-60600735D01*
X128750204Y-60600737D01*
X128576053Y-60678275D01*
X128576048Y-60678278D01*
X128421823Y-60790328D01*
X128421822Y-60790329D01*
X128294260Y-60932003D01*
X128198942Y-61097098D01*
X128198939Y-61097104D01*
X128140033Y-61278402D01*
X128140032Y-61278404D01*
X128120105Y-61468000D01*
X104757041Y-61468000D01*
X104777968Y-61403594D01*
X104797895Y-61214000D01*
X104777968Y-61024406D01*
X104766080Y-60987817D01*
X104764085Y-60917976D01*
X104800166Y-60858143D01*
X104862868Y-60827316D01*
X104884011Y-60825500D01*
X115240442Y-60825500D01*
X115307481Y-60845185D01*
X115332591Y-60866527D01*
X115340823Y-60875670D01*
X115418737Y-60932278D01*
X115495052Y-60987724D01*
X115669204Y-61065262D01*
X115669209Y-61065264D01*
X115855681Y-61104900D01*
X116046319Y-61104900D01*
X116232791Y-61065264D01*
X116406948Y-60987724D01*
X116561177Y-60875670D01*
X116576959Y-60858143D01*
X116606350Y-60825500D01*
X116688739Y-60733998D01*
X116784058Y-60568901D01*
X116842968Y-60387594D01*
X116862895Y-60198000D01*
X116842968Y-60008406D01*
X116801115Y-59879594D01*
X116784060Y-59827104D01*
X116784057Y-59827098D01*
X116778227Y-59817000D01*
X116688739Y-59662002D01*
X116638776Y-59606513D01*
X116561182Y-59520334D01*
X116561179Y-59520332D01*
X116561178Y-59520331D01*
X116561177Y-59520330D01*
X116406948Y-59408276D01*
X116406947Y-59408275D01*
X116232795Y-59330737D01*
X116232790Y-59330735D01*
X116046319Y-59291100D01*
X115855681Y-59291100D01*
X115669209Y-59330735D01*
X115669204Y-59330737D01*
X115495053Y-59408275D01*
X115495048Y-59408278D01*
X115340824Y-59520328D01*
X115340819Y-59520334D01*
X115332592Y-59529470D01*
X115273108Y-59566120D01*
X115240442Y-59570500D01*
X112058001Y-59570500D01*
X111990962Y-59550815D01*
X111945207Y-59498011D01*
X111935263Y-59428853D01*
X111964288Y-59365297D01*
X111965790Y-59363595D01*
X111989739Y-59336998D01*
X112085058Y-59171901D01*
X112143968Y-58990594D01*
X112163895Y-58801000D01*
X112143968Y-58611406D01*
X112085058Y-58430099D01*
X111989739Y-58265002D01*
X111909695Y-58176104D01*
X111862182Y-58123334D01*
X111862179Y-58123332D01*
X111862178Y-58123331D01*
X111862177Y-58123330D01*
X111707948Y-58011276D01*
X111707947Y-58011275D01*
X111533795Y-57933737D01*
X111533790Y-57933735D01*
X111347319Y-57894100D01*
X111156681Y-57894100D01*
X110970209Y-57933735D01*
X110970204Y-57933737D01*
X110796053Y-58011275D01*
X110796048Y-58011278D01*
X110641824Y-58123328D01*
X110641819Y-58123334D01*
X110633592Y-58132470D01*
X110574108Y-58169120D01*
X110541442Y-58173500D01*
X104341569Y-58173500D01*
X104274530Y-58153815D01*
X104228775Y-58101011D01*
X104223638Y-58087817D01*
X104211058Y-58049099D01*
X104115739Y-57884002D01*
X104065776Y-57828513D01*
X103988182Y-57742334D01*
X103988179Y-57742332D01*
X103988178Y-57742331D01*
X103988177Y-57742330D01*
X103833948Y-57630276D01*
X103833947Y-57630275D01*
X103659795Y-57552737D01*
X103659790Y-57552735D01*
X103473319Y-57513100D01*
X103282681Y-57513100D01*
X103096209Y-57552735D01*
X103096204Y-57552737D01*
X102922053Y-57630275D01*
X102922048Y-57630278D01*
X102767823Y-57742328D01*
X102767822Y-57742329D01*
X102640260Y-57884003D01*
X102544942Y-58049098D01*
X102544939Y-58049104D01*
X102486033Y-58230402D01*
X102486032Y-58230404D01*
X102486031Y-58230406D01*
X102486032Y-58230406D01*
X102466105Y-58420000D01*
X102467167Y-58430104D01*
X102486032Y-58609595D01*
X102486033Y-58609597D01*
X102544939Y-58790895D01*
X102544942Y-58790901D01*
X102640261Y-58955998D01*
X102671414Y-58990597D01*
X102767817Y-59097665D01*
X102767820Y-59097667D01*
X102767823Y-59097670D01*
X102918501Y-59207144D01*
X102922052Y-59209724D01*
X103096204Y-59287262D01*
X103096209Y-59287264D01*
X103274730Y-59325210D01*
X103336212Y-59358402D01*
X103369988Y-59419565D01*
X103365336Y-59489280D01*
X103323731Y-59545412D01*
X103258384Y-59570141D01*
X103248949Y-59570500D01*
X102183558Y-59570500D01*
X102116519Y-59550815D01*
X102091408Y-59529472D01*
X102083177Y-59520330D01*
X102055751Y-59500404D01*
X101928947Y-59408275D01*
X101754795Y-59330737D01*
X101754790Y-59330735D01*
X101568319Y-59291100D01*
X101377681Y-59291100D01*
X101191209Y-59330735D01*
X101191204Y-59330737D01*
X101017053Y-59408275D01*
X101017048Y-59408278D01*
X100862823Y-59520328D01*
X100862822Y-59520329D01*
X100735260Y-59662003D01*
X100639942Y-59827098D01*
X100639939Y-59827104D01*
X100581033Y-60008402D01*
X100581032Y-60008404D01*
X100561105Y-60198000D01*
X100581032Y-60387595D01*
X100581034Y-60387600D01*
X100592920Y-60424183D01*
X100594915Y-60494024D01*
X100558834Y-60553857D01*
X100496132Y-60584684D01*
X100474989Y-60586500D01*
X100138910Y-60586500D01*
X100071871Y-60566815D01*
X100046760Y-60545472D01*
X99924182Y-60409334D01*
X99924179Y-60409332D01*
X99924178Y-60409331D01*
X99924177Y-60409330D01*
X99769948Y-60297276D01*
X99769947Y-60297275D01*
X99595795Y-60219737D01*
X99595790Y-60219735D01*
X99409319Y-60180100D01*
X99218681Y-60180100D01*
X99032209Y-60219735D01*
X99032204Y-60219737D01*
X98858053Y-60297275D01*
X98858048Y-60297278D01*
X98703823Y-60409328D01*
X98703822Y-60409329D01*
X98576260Y-60551003D01*
X98480942Y-60716098D01*
X98480939Y-60716104D01*
X98422033Y-60897402D01*
X98422032Y-60897404D01*
X98402105Y-61087000D01*
X90560547Y-61087000D01*
X90553968Y-61024406D01*
X90499946Y-60858143D01*
X90495060Y-60843104D01*
X90495057Y-60843098D01*
X90493350Y-60840141D01*
X90399739Y-60678002D01*
X90339160Y-60610722D01*
X90272182Y-60536334D01*
X90272179Y-60536332D01*
X90272178Y-60536331D01*
X90272177Y-60536330D01*
X90117948Y-60424276D01*
X90117947Y-60424275D01*
X89943795Y-60346737D01*
X89943790Y-60346735D01*
X89757319Y-60307100D01*
X89566681Y-60307100D01*
X89380209Y-60346735D01*
X89380204Y-60346737D01*
X89206053Y-60424275D01*
X89206048Y-60424278D01*
X89051824Y-60536328D01*
X89051819Y-60536334D01*
X89043592Y-60545470D01*
X88984108Y-60582120D01*
X88951442Y-60586500D01*
X85854051Y-60586500D01*
X85787012Y-60566815D01*
X85741257Y-60514011D01*
X85731313Y-60444853D01*
X85760338Y-60381297D01*
X85819116Y-60343523D01*
X85828270Y-60341210D01*
X85858735Y-60334734D01*
X86006791Y-60303264D01*
X86180948Y-60225724D01*
X86335177Y-60113670D01*
X86462739Y-59971998D01*
X86558058Y-59806901D01*
X86616968Y-59625594D01*
X86636895Y-59436000D01*
X86616968Y-59246406D01*
X86558058Y-59065099D01*
X86462739Y-58900002D01*
X86412776Y-58844513D01*
X86335182Y-58758334D01*
X86335179Y-58758332D01*
X86335178Y-58758331D01*
X86335177Y-58758330D01*
X86180948Y-58646276D01*
X86180947Y-58646275D01*
X86006795Y-58568737D01*
X86006790Y-58568735D01*
X85820319Y-58529100D01*
X85629681Y-58529100D01*
X85443209Y-58568735D01*
X85443204Y-58568737D01*
X85269053Y-58646275D01*
X85269048Y-58646278D01*
X85114824Y-58758328D01*
X85114819Y-58758334D01*
X85106592Y-58767470D01*
X85047108Y-58804120D01*
X85014442Y-58808500D01*
X80974558Y-58808500D01*
X80907519Y-58788815D01*
X80882408Y-58767472D01*
X80874177Y-58758330D01*
X80719948Y-58646276D01*
X80719947Y-58646275D01*
X80545795Y-58568737D01*
X80545790Y-58568735D01*
X80359319Y-58529100D01*
X80168681Y-58529100D01*
X79982209Y-58568735D01*
X79982204Y-58568737D01*
X79808053Y-58646275D01*
X79808048Y-58646278D01*
X79653823Y-58758328D01*
X79653822Y-58758329D01*
X79526260Y-58900003D01*
X79430942Y-59065098D01*
X79430939Y-59065104D01*
X79372033Y-59246402D01*
X79372032Y-59246404D01*
X79352105Y-59436000D01*
X79372032Y-59625595D01*
X79372033Y-59625597D01*
X79430939Y-59806895D01*
X79430942Y-59806901D01*
X79526261Y-59971998D01*
X79559041Y-60008404D01*
X79653817Y-60113665D01*
X79653820Y-60113667D01*
X79653823Y-60113670D01*
X79769892Y-60197999D01*
X79808052Y-60225724D01*
X79982204Y-60303262D01*
X79982209Y-60303264D01*
X80160730Y-60341210D01*
X80222212Y-60374402D01*
X80255988Y-60435565D01*
X80251336Y-60505280D01*
X80209731Y-60561412D01*
X80144384Y-60586141D01*
X80134949Y-60586500D01*
X79437910Y-60586500D01*
X79370871Y-60566815D01*
X79345760Y-60545472D01*
X79223182Y-60409334D01*
X79223179Y-60409332D01*
X79223178Y-60409331D01*
X79223177Y-60409330D01*
X79068948Y-60297276D01*
X79068947Y-60297275D01*
X78894795Y-60219737D01*
X78894790Y-60219735D01*
X78708319Y-60180100D01*
X78517681Y-60180100D01*
X78331209Y-60219735D01*
X78331204Y-60219737D01*
X78157053Y-60297275D01*
X78157048Y-60297278D01*
X78002823Y-60409328D01*
X78002822Y-60409329D01*
X77875260Y-60551003D01*
X77779942Y-60716098D01*
X77779939Y-60716104D01*
X77721033Y-60897402D01*
X77721032Y-60897404D01*
X77701105Y-61087000D01*
X77721032Y-61276595D01*
X77721033Y-61276597D01*
X77779939Y-61457895D01*
X77779942Y-61457901D01*
X77875261Y-61622998D01*
X77906414Y-61657597D01*
X78002817Y-61764665D01*
X78002820Y-61764667D01*
X78002823Y-61764670D01*
X78141166Y-61865182D01*
X78157052Y-61876724D01*
X78331204Y-61954262D01*
X78331209Y-61954264D01*
X78509730Y-61992210D01*
X78571212Y-62025402D01*
X78604988Y-62086565D01*
X78600336Y-62156280D01*
X78558731Y-62212412D01*
X78493384Y-62237141D01*
X78483949Y-62237500D01*
X77672558Y-62237500D01*
X77605519Y-62217815D01*
X77580408Y-62196472D01*
X77572177Y-62187330D01*
X77472878Y-62115185D01*
X77417947Y-62075275D01*
X77243795Y-61997737D01*
X77243790Y-61997735D01*
X77057319Y-61958100D01*
X76866681Y-61958100D01*
X76680209Y-61997735D01*
X76680204Y-61997737D01*
X76506053Y-62075275D01*
X76506048Y-62075278D01*
X76351823Y-62187328D01*
X76351822Y-62187329D01*
X76224260Y-62329003D01*
X76128942Y-62494098D01*
X76128939Y-62494104D01*
X76070033Y-62675402D01*
X76070032Y-62675404D01*
X76050105Y-62865000D01*
X72642419Y-62865000D01*
X72511376Y-62733957D01*
X72501531Y-62721668D01*
X72501313Y-62721849D01*
X72496340Y-62715837D01*
X72446443Y-62668981D01*
X72445043Y-62667624D01*
X72424797Y-62647377D01*
X72419296Y-62643111D01*
X72414848Y-62639312D01*
X72380768Y-62607308D01*
X72380763Y-62607304D01*
X72363122Y-62597606D01*
X72346857Y-62586922D01*
X72342159Y-62583278D01*
X72330962Y-62574592D01*
X72315804Y-62568032D01*
X72288054Y-62556023D01*
X72282807Y-62553453D01*
X72241837Y-62530929D01*
X72241828Y-62530926D01*
X72222334Y-62525920D01*
X72203933Y-62519620D01*
X72185459Y-62511626D01*
X72185452Y-62511624D01*
X72139287Y-62504313D01*
X72133563Y-62503128D01*
X72088279Y-62491500D01*
X72088272Y-62491500D01*
X72068142Y-62491500D01*
X72048743Y-62489973D01*
X72028868Y-62486825D01*
X72028867Y-62486825D01*
X71982321Y-62491225D01*
X71976483Y-62491500D01*
X66084001Y-62491500D01*
X66016962Y-62471815D01*
X65971207Y-62419011D01*
X65961263Y-62349853D01*
X65990288Y-62286297D01*
X65991790Y-62284595D01*
X66015739Y-62257998D01*
X66111058Y-62092901D01*
X66169968Y-61911594D01*
X66189895Y-61722000D01*
X66169968Y-61532406D01*
X66111058Y-61351099D01*
X66015739Y-61186002D01*
X65965776Y-61130513D01*
X65888182Y-61044334D01*
X65888179Y-61044332D01*
X65888178Y-61044331D01*
X65888177Y-61044330D01*
X65733948Y-60932276D01*
X65733947Y-60932275D01*
X65559795Y-60854737D01*
X65559790Y-60854735D01*
X65373319Y-60815100D01*
X65182681Y-60815100D01*
X64996209Y-60854735D01*
X64996204Y-60854737D01*
X64822053Y-60932275D01*
X64822048Y-60932278D01*
X64667824Y-61044328D01*
X64667819Y-61044334D01*
X64659592Y-61053470D01*
X64600108Y-61090120D01*
X64567442Y-61094500D01*
X61323011Y-61094500D01*
X61255972Y-61074815D01*
X61210217Y-61022011D01*
X61200273Y-60952853D01*
X61205080Y-60932183D01*
X61209696Y-60917976D01*
X61216968Y-60895594D01*
X61236895Y-60706000D01*
X61216968Y-60516406D01*
X61163872Y-60352993D01*
X61158060Y-60335104D01*
X61158057Y-60335098D01*
X61147897Y-60317500D01*
X61062739Y-60170002D01*
X60984569Y-60083185D01*
X60935182Y-60028334D01*
X60935179Y-60028332D01*
X60935178Y-60028331D01*
X60935177Y-60028330D01*
X60780948Y-59916276D01*
X60780947Y-59916275D01*
X60606795Y-59838737D01*
X60606790Y-59838735D01*
X60420319Y-59799100D01*
X60229681Y-59799100D01*
X60043209Y-59838735D01*
X60043204Y-59838737D01*
X59869053Y-59916275D01*
X59869048Y-59916278D01*
X59714824Y-60028328D01*
X59714819Y-60028334D01*
X59706592Y-60037470D01*
X59647108Y-60074120D01*
X59614442Y-60078500D01*
X56323910Y-60078500D01*
X56256871Y-60058815D01*
X56231760Y-60037472D01*
X56109182Y-59901334D01*
X56109179Y-59901332D01*
X56109178Y-59901331D01*
X56109177Y-59901330D01*
X55993107Y-59817000D01*
X55954947Y-59789275D01*
X55780795Y-59711737D01*
X55780790Y-59711735D01*
X55594319Y-59672100D01*
X55403681Y-59672100D01*
X55217209Y-59711735D01*
X55217204Y-59711737D01*
X55043053Y-59789275D01*
X55043048Y-59789278D01*
X54888823Y-59901328D01*
X54888822Y-59901329D01*
X54761260Y-60043003D01*
X54665942Y-60208098D01*
X54665939Y-60208104D01*
X54607033Y-60389402D01*
X54607032Y-60389404D01*
X54601204Y-60444853D01*
X54588167Y-60568901D01*
X54587105Y-60579001D01*
X54591036Y-60616406D01*
X54578466Y-60685136D01*
X54530733Y-60736159D01*
X54462993Y-60753276D01*
X54417280Y-60742646D01*
X54383790Y-60727735D01*
X54197319Y-60688100D01*
X54006681Y-60688100D01*
X53820209Y-60727735D01*
X53820204Y-60727737D01*
X53646053Y-60805275D01*
X53646048Y-60805278D01*
X53491823Y-60917328D01*
X53491822Y-60917329D01*
X53364260Y-61059003D01*
X53268942Y-61224098D01*
X53268939Y-61224104D01*
X53210033Y-61405402D01*
X53210032Y-61405404D01*
X53203453Y-61468000D01*
X53190105Y-61595000D01*
X53193048Y-61622998D01*
X53210032Y-61784595D01*
X53210033Y-61784597D01*
X53268939Y-61965895D01*
X53268942Y-61965901D01*
X53364261Y-62130998D01*
X53412912Y-62185030D01*
X53491819Y-62272667D01*
X53494796Y-62275347D01*
X53496017Y-62277329D01*
X53496171Y-62277500D01*
X53496139Y-62277528D01*
X53531446Y-62334832D01*
X53530119Y-62404689D01*
X53491235Y-62462739D01*
X53427139Y-62490551D01*
X53411827Y-62491500D01*
X52272558Y-62491500D01*
X52205519Y-62471815D01*
X52180408Y-62450472D01*
X52172177Y-62441330D01*
X52026187Y-62335262D01*
X52017947Y-62329275D01*
X51843795Y-62251737D01*
X51843790Y-62251735D01*
X51657319Y-62212100D01*
X51466681Y-62212100D01*
X51280209Y-62251735D01*
X51280204Y-62251737D01*
X51106053Y-62329275D01*
X51106048Y-62329278D01*
X50951823Y-62441328D01*
X50951822Y-62441329D01*
X50824260Y-62583003D01*
X50728942Y-62748098D01*
X50728939Y-62748104D01*
X50670033Y-62929402D01*
X50670032Y-62929404D01*
X50650105Y-63119000D01*
X28328500Y-63119000D01*
X28328500Y-55885566D01*
X47762000Y-55885566D01*
X47776858Y-56055399D01*
X47776860Y-56055410D01*
X47835730Y-56275117D01*
X47835734Y-56275126D01*
X47931865Y-56481282D01*
X48062342Y-56667620D01*
X48223179Y-56828457D01*
X48409517Y-56958934D01*
X48615673Y-57055065D01*
X48615682Y-57055069D01*
X48811999Y-57107672D01*
X48812000Y-57107671D01*
X48812000Y-55746937D01*
X48866741Y-55784259D01*
X48994927Y-55823800D01*
X49095346Y-55823800D01*
X49194647Y-55808833D01*
X49312000Y-55752318D01*
X49312000Y-57107672D01*
X49508317Y-57055069D01*
X49508326Y-57055065D01*
X49714482Y-56958934D01*
X49900820Y-56828457D01*
X50061657Y-56667620D01*
X50192132Y-56481284D01*
X50219341Y-56422934D01*
X50265513Y-56370495D01*
X50332707Y-56351342D01*
X50399588Y-56371557D01*
X50444106Y-56422933D01*
X50471431Y-56481532D01*
X50471432Y-56481534D01*
X50601954Y-56667941D01*
X50762858Y-56828845D01*
X50762861Y-56828847D01*
X50949266Y-56959368D01*
X51155504Y-57055539D01*
X51375308Y-57114435D01*
X51537230Y-57128601D01*
X51601998Y-57134268D01*
X51602000Y-57134268D01*
X51602002Y-57134268D01*
X51658673Y-57129309D01*
X51828692Y-57114435D01*
X52048496Y-57055539D01*
X52254734Y-56959368D01*
X52441139Y-56828847D01*
X52602047Y-56667939D01*
X52732568Y-56481534D01*
X52828739Y-56275296D01*
X52887635Y-56055492D01*
X52902500Y-55885584D01*
X52902500Y-55885566D01*
X73162000Y-55885566D01*
X73176858Y-56055399D01*
X73176860Y-56055410D01*
X73235730Y-56275117D01*
X73235734Y-56275126D01*
X73331865Y-56481282D01*
X73462342Y-56667620D01*
X73623179Y-56828457D01*
X73809517Y-56958934D01*
X74015673Y-57055065D01*
X74015682Y-57055069D01*
X74211999Y-57107672D01*
X74212000Y-57107671D01*
X74212000Y-55746937D01*
X74266741Y-55784259D01*
X74394927Y-55823800D01*
X74495346Y-55823800D01*
X74594647Y-55808833D01*
X74712000Y-55752318D01*
X74712000Y-57107672D01*
X74908317Y-57055069D01*
X74908326Y-57055065D01*
X75114482Y-56958934D01*
X75300820Y-56828457D01*
X75461657Y-56667620D01*
X75592132Y-56481284D01*
X75619341Y-56422934D01*
X75665513Y-56370495D01*
X75732707Y-56351342D01*
X75799588Y-56371557D01*
X75844106Y-56422933D01*
X75871431Y-56481532D01*
X75871432Y-56481534D01*
X76001954Y-56667941D01*
X76162858Y-56828845D01*
X76162861Y-56828847D01*
X76349266Y-56959368D01*
X76555504Y-57055539D01*
X76775308Y-57114435D01*
X76937230Y-57128601D01*
X77001998Y-57134268D01*
X77002000Y-57134268D01*
X77002002Y-57134268D01*
X77058673Y-57129309D01*
X77228692Y-57114435D01*
X77448496Y-57055539D01*
X77654734Y-56959368D01*
X77841139Y-56828847D01*
X78002047Y-56667939D01*
X78132568Y-56481534D01*
X78228739Y-56275296D01*
X78287635Y-56055492D01*
X78302500Y-55885584D01*
X78302500Y-55885566D01*
X98562000Y-55885566D01*
X98576858Y-56055399D01*
X98576860Y-56055410D01*
X98635730Y-56275117D01*
X98635734Y-56275126D01*
X98731865Y-56481282D01*
X98862342Y-56667620D01*
X99023179Y-56828457D01*
X99209517Y-56958934D01*
X99415673Y-57055065D01*
X99415682Y-57055069D01*
X99611999Y-57107672D01*
X99612000Y-57107671D01*
X99612000Y-55746937D01*
X99666741Y-55784259D01*
X99794927Y-55823800D01*
X99895346Y-55823800D01*
X99994647Y-55808833D01*
X100112000Y-55752318D01*
X100112000Y-57107672D01*
X100308317Y-57055069D01*
X100308326Y-57055065D01*
X100514482Y-56958934D01*
X100700820Y-56828457D01*
X100861657Y-56667620D01*
X100992132Y-56481284D01*
X101019341Y-56422934D01*
X101065513Y-56370495D01*
X101132707Y-56351342D01*
X101199588Y-56371557D01*
X101244106Y-56422933D01*
X101271431Y-56481532D01*
X101271432Y-56481534D01*
X101401954Y-56667941D01*
X101562858Y-56828845D01*
X101562861Y-56828847D01*
X101749266Y-56959368D01*
X101955504Y-57055539D01*
X102175308Y-57114435D01*
X102337230Y-57128601D01*
X102401998Y-57134268D01*
X102402000Y-57134268D01*
X102402002Y-57134268D01*
X102458672Y-57129309D01*
X102628692Y-57114435D01*
X102848496Y-57055539D01*
X103054734Y-56959368D01*
X103241139Y-56828847D01*
X103402047Y-56667939D01*
X103532568Y-56481534D01*
X103628739Y-56275296D01*
X103687635Y-56055492D01*
X103702500Y-55885584D01*
X103702500Y-55885566D01*
X123962000Y-55885566D01*
X123976858Y-56055399D01*
X123976860Y-56055410D01*
X124035730Y-56275117D01*
X124035734Y-56275126D01*
X124131865Y-56481282D01*
X124262342Y-56667620D01*
X124423179Y-56828457D01*
X124609517Y-56958934D01*
X124815673Y-57055065D01*
X124815682Y-57055069D01*
X125011999Y-57107672D01*
X125012000Y-57107671D01*
X125012000Y-55746937D01*
X125066741Y-55784259D01*
X125194927Y-55823800D01*
X125295346Y-55823800D01*
X125394647Y-55808833D01*
X125511999Y-55752318D01*
X125512000Y-57107672D01*
X125708317Y-57055069D01*
X125708326Y-57055065D01*
X125914482Y-56958934D01*
X126100820Y-56828457D01*
X126261657Y-56667620D01*
X126392132Y-56481284D01*
X126419341Y-56422934D01*
X126465513Y-56370495D01*
X126532707Y-56351342D01*
X126599588Y-56371557D01*
X126644106Y-56422933D01*
X126671431Y-56481532D01*
X126671432Y-56481534D01*
X126801954Y-56667941D01*
X126962858Y-56828845D01*
X126962861Y-56828847D01*
X127149266Y-56959368D01*
X127355504Y-57055539D01*
X127575308Y-57114435D01*
X127737230Y-57128601D01*
X127801998Y-57134268D01*
X127802000Y-57134268D01*
X127802002Y-57134268D01*
X127858673Y-57129309D01*
X128028692Y-57114435D01*
X128248496Y-57055539D01*
X128454734Y-56959368D01*
X128641139Y-56828847D01*
X128802047Y-56667939D01*
X128932568Y-56481534D01*
X129028739Y-56275296D01*
X129087635Y-56055492D01*
X129102500Y-55885584D01*
X129102500Y-54872016D01*
X129087635Y-54702108D01*
X129028739Y-54482304D01*
X128932568Y-54276066D01*
X128815448Y-54108800D01*
X128802045Y-54089658D01*
X128641141Y-53928754D01*
X128454734Y-53798232D01*
X128454732Y-53798231D01*
X128248497Y-53702061D01*
X128248488Y-53702058D01*
X128028697Y-53643166D01*
X128028693Y-53643165D01*
X128028692Y-53643165D01*
X128028691Y-53643164D01*
X128028686Y-53643164D01*
X127802002Y-53623332D01*
X127801998Y-53623332D01*
X127575313Y-53643164D01*
X127575302Y-53643166D01*
X127355511Y-53702058D01*
X127355502Y-53702061D01*
X127149267Y-53798231D01*
X127149265Y-53798232D01*
X126962858Y-53928754D01*
X126801954Y-54089658D01*
X126673982Y-54272424D01*
X126671432Y-54276066D01*
X126671315Y-54276318D01*
X126644106Y-54334667D01*
X126597933Y-54387106D01*
X126530739Y-54406257D01*
X126463858Y-54386041D01*
X126419342Y-54334665D01*
X126392135Y-54276320D01*
X126392134Y-54276318D01*
X126261657Y-54089979D01*
X126100820Y-53929142D01*
X125914482Y-53798665D01*
X125708328Y-53702534D01*
X125512000Y-53649927D01*
X125512000Y-55010662D01*
X125457259Y-54973341D01*
X125329073Y-54933800D01*
X125228654Y-54933800D01*
X125129353Y-54948767D01*
X125012000Y-55005281D01*
X125012000Y-53649927D01*
X124815671Y-53702534D01*
X124609517Y-53798665D01*
X124423179Y-53929142D01*
X124262342Y-54089979D01*
X124131865Y-54276317D01*
X124035734Y-54482473D01*
X124035730Y-54482482D01*
X123976860Y-54702189D01*
X123976858Y-54702200D01*
X123962000Y-54872033D01*
X123962000Y-55128800D01*
X124892497Y-55128800D01*
X124843083Y-55214387D01*
X124813232Y-55345170D01*
X124823257Y-55478940D01*
X124872266Y-55603813D01*
X124892193Y-55628800D01*
X123962000Y-55628800D01*
X123962000Y-55885566D01*
X103702500Y-55885566D01*
X103702500Y-54872016D01*
X103687635Y-54702108D01*
X103628739Y-54482304D01*
X103532568Y-54276066D01*
X103415448Y-54108800D01*
X103402045Y-54089658D01*
X103241141Y-53928754D01*
X103054734Y-53798232D01*
X103054732Y-53798231D01*
X102848497Y-53702061D01*
X102848488Y-53702058D01*
X102628697Y-53643166D01*
X102628693Y-53643165D01*
X102628692Y-53643165D01*
X102628691Y-53643164D01*
X102628686Y-53643164D01*
X102402002Y-53623332D01*
X102401998Y-53623332D01*
X102175313Y-53643164D01*
X102175302Y-53643166D01*
X101955511Y-53702058D01*
X101955502Y-53702061D01*
X101749267Y-53798231D01*
X101749265Y-53798232D01*
X101562858Y-53928754D01*
X101401954Y-54089658D01*
X101273982Y-54272424D01*
X101271432Y-54276066D01*
X101271315Y-54276318D01*
X101244106Y-54334667D01*
X101197933Y-54387106D01*
X101130739Y-54406257D01*
X101063858Y-54386041D01*
X101019342Y-54334665D01*
X100992135Y-54276320D01*
X100992134Y-54276318D01*
X100861657Y-54089979D01*
X100700820Y-53929142D01*
X100514482Y-53798665D01*
X100308328Y-53702534D01*
X100112000Y-53649927D01*
X100112000Y-55010662D01*
X100057259Y-54973341D01*
X99929073Y-54933800D01*
X99828654Y-54933800D01*
X99729353Y-54948767D01*
X99611999Y-55005281D01*
X99611999Y-53649927D01*
X99415671Y-53702534D01*
X99209517Y-53798665D01*
X99023179Y-53929142D01*
X98862342Y-54089979D01*
X98731865Y-54276317D01*
X98635734Y-54482473D01*
X98635730Y-54482482D01*
X98576860Y-54702189D01*
X98576858Y-54702200D01*
X98562000Y-54872033D01*
X98562000Y-55128800D01*
X99492497Y-55128800D01*
X99443083Y-55214387D01*
X99413232Y-55345170D01*
X99423257Y-55478940D01*
X99472266Y-55603813D01*
X99492193Y-55628800D01*
X98562000Y-55628800D01*
X98562000Y-55885566D01*
X78302500Y-55885566D01*
X78302500Y-54872016D01*
X78287635Y-54702108D01*
X78228739Y-54482304D01*
X78132568Y-54276066D01*
X78015448Y-54108800D01*
X78002045Y-54089658D01*
X77841141Y-53928754D01*
X77654734Y-53798232D01*
X77654732Y-53798231D01*
X77448497Y-53702061D01*
X77448488Y-53702058D01*
X77228697Y-53643166D01*
X77228693Y-53643165D01*
X77228692Y-53643165D01*
X77228691Y-53643164D01*
X77228686Y-53643164D01*
X77002002Y-53623332D01*
X77001998Y-53623332D01*
X76775313Y-53643164D01*
X76775302Y-53643166D01*
X76555511Y-53702058D01*
X76555502Y-53702061D01*
X76349267Y-53798231D01*
X76349265Y-53798232D01*
X76162858Y-53928754D01*
X76001954Y-54089658D01*
X75873982Y-54272424D01*
X75871432Y-54276066D01*
X75871315Y-54276318D01*
X75844106Y-54334667D01*
X75797933Y-54387106D01*
X75730739Y-54406257D01*
X75663858Y-54386041D01*
X75619342Y-54334665D01*
X75592135Y-54276320D01*
X75592134Y-54276318D01*
X75461657Y-54089979D01*
X75300820Y-53929142D01*
X75114482Y-53798665D01*
X74908328Y-53702534D01*
X74712000Y-53649927D01*
X74712000Y-55010662D01*
X74657259Y-54973341D01*
X74529073Y-54933800D01*
X74428654Y-54933800D01*
X74329353Y-54948767D01*
X74212000Y-55005281D01*
X74212000Y-53649927D01*
X74015671Y-53702534D01*
X73809517Y-53798665D01*
X73623179Y-53929142D01*
X73462342Y-54089979D01*
X73331865Y-54276317D01*
X73235734Y-54482473D01*
X73235730Y-54482482D01*
X73176860Y-54702189D01*
X73176858Y-54702200D01*
X73162000Y-54872033D01*
X73162000Y-55128800D01*
X74092497Y-55128800D01*
X74043083Y-55214387D01*
X74013232Y-55345170D01*
X74023257Y-55478940D01*
X74072266Y-55603813D01*
X74092193Y-55628800D01*
X73162000Y-55628800D01*
X73162000Y-55885566D01*
X52902500Y-55885566D01*
X52902500Y-54872016D01*
X52887635Y-54702108D01*
X52828739Y-54482304D01*
X52732568Y-54276066D01*
X52615448Y-54108800D01*
X52602045Y-54089658D01*
X52441141Y-53928754D01*
X52254734Y-53798232D01*
X52254732Y-53798231D01*
X52048497Y-53702061D01*
X52048488Y-53702058D01*
X51828697Y-53643166D01*
X51828693Y-53643165D01*
X51828692Y-53643165D01*
X51828691Y-53643164D01*
X51828686Y-53643164D01*
X51602002Y-53623332D01*
X51601998Y-53623332D01*
X51375313Y-53643164D01*
X51375302Y-53643166D01*
X51155511Y-53702058D01*
X51155502Y-53702061D01*
X50949267Y-53798231D01*
X50949265Y-53798232D01*
X50762858Y-53928754D01*
X50601954Y-54089658D01*
X50473982Y-54272424D01*
X50471432Y-54276066D01*
X50471315Y-54276318D01*
X50444106Y-54334667D01*
X50397933Y-54387106D01*
X50330739Y-54406257D01*
X50263858Y-54386041D01*
X50219342Y-54334665D01*
X50192135Y-54276320D01*
X50192134Y-54276318D01*
X50061657Y-54089979D01*
X49900820Y-53929142D01*
X49714482Y-53798665D01*
X49508328Y-53702534D01*
X49312000Y-53649927D01*
X49312000Y-55010662D01*
X49257259Y-54973341D01*
X49129073Y-54933800D01*
X49028654Y-54933800D01*
X48929353Y-54948767D01*
X48812000Y-55005281D01*
X48812000Y-53649927D01*
X48615671Y-53702534D01*
X48409517Y-53798665D01*
X48223179Y-53929142D01*
X48062342Y-54089979D01*
X47931865Y-54276317D01*
X47835734Y-54482473D01*
X47835730Y-54482482D01*
X47776860Y-54702189D01*
X47776858Y-54702200D01*
X47762000Y-54872033D01*
X47762000Y-55128800D01*
X48692497Y-55128800D01*
X48643083Y-55214387D01*
X48613232Y-55345170D01*
X48623257Y-55478940D01*
X48672266Y-55603813D01*
X48692193Y-55628800D01*
X47762000Y-55628800D01*
X47762000Y-55885566D01*
X28328500Y-55885566D01*
X28328500Y-52124036D01*
X44272000Y-52124036D01*
X44287084Y-52349364D01*
X44287086Y-52349373D01*
X44347083Y-52644558D01*
X44347087Y-52644573D01*
X44445901Y-52929143D01*
X44445903Y-52929146D01*
X44581759Y-53197998D01*
X44752254Y-53446364D01*
X44954314Y-53669771D01*
X45184361Y-53864264D01*
X45438271Y-54026354D01*
X45438273Y-54026355D01*
X45711514Y-54153151D01*
X45711528Y-54153156D01*
X45999234Y-54242405D01*
X46272000Y-54288414D01*
X46272000Y-51273425D01*
X46419801Y-51303800D01*
X46572967Y-51303800D01*
X46725348Y-51288304D01*
X46772000Y-51273667D01*
X46772000Y-54285007D01*
X46897076Y-54272424D01*
X46897079Y-54272423D01*
X47190107Y-54202591D01*
X47190116Y-54202589D01*
X47471216Y-54094325D01*
X47471231Y-54094318D01*
X47735395Y-53949551D01*
X47735401Y-53949547D01*
X47977911Y-53770864D01*
X48194451Y-53561444D01*
X48194457Y-53561437D01*
X48381145Y-53325031D01*
X48534657Y-53065851D01*
X48534666Y-53065833D01*
X48652260Y-52788516D01*
X48652265Y-52788499D01*
X48731848Y-52497973D01*
X48772000Y-52199416D01*
X48772000Y-52124036D01*
X54432000Y-52124036D01*
X54447084Y-52349364D01*
X54447086Y-52349373D01*
X54507083Y-52644558D01*
X54507087Y-52644573D01*
X54605901Y-52929143D01*
X54605903Y-52929146D01*
X54741759Y-53197998D01*
X54912254Y-53446364D01*
X55114314Y-53669771D01*
X55344361Y-53864264D01*
X55598271Y-54026354D01*
X55598273Y-54026355D01*
X55871514Y-54153151D01*
X55871528Y-54153156D01*
X56159234Y-54242405D01*
X56432000Y-54288414D01*
X56432000Y-51273425D01*
X56579801Y-51303800D01*
X56732967Y-51303800D01*
X56885348Y-51288304D01*
X56932000Y-51273667D01*
X56932000Y-54285007D01*
X57057076Y-54272424D01*
X57057079Y-54272423D01*
X57350107Y-54202591D01*
X57350116Y-54202589D01*
X57593633Y-54108800D01*
X61218432Y-54108800D01*
X61238266Y-54335505D01*
X61238268Y-54335515D01*
X61297164Y-54555323D01*
X61297166Y-54555327D01*
X61297167Y-54555331D01*
X61334123Y-54634583D01*
X61393344Y-54761583D01*
X61393345Y-54761585D01*
X61523873Y-54947998D01*
X61523878Y-54948004D01*
X61684795Y-55108921D01*
X61684801Y-55108926D01*
X61871214Y-55239454D01*
X61871216Y-55239455D01*
X62077469Y-55335633D01*
X62297290Y-55394533D01*
X62478658Y-55410400D01*
X62523999Y-55414368D01*
X62524000Y-55414368D01*
X62524001Y-55414368D01*
X62561785Y-55411062D01*
X62750710Y-55394533D01*
X62970531Y-55335633D01*
X63176784Y-55239455D01*
X63363203Y-55108923D01*
X63524123Y-54948003D01*
X63654655Y-54761584D01*
X63750833Y-54555331D01*
X63809733Y-54335510D01*
X63829568Y-54108800D01*
X66298432Y-54108800D01*
X66318266Y-54335505D01*
X66318268Y-54335515D01*
X66377164Y-54555323D01*
X66377166Y-54555327D01*
X66377167Y-54555331D01*
X66414123Y-54634583D01*
X66473344Y-54761583D01*
X66473345Y-54761585D01*
X66603873Y-54947998D01*
X66603878Y-54948004D01*
X66764795Y-55108921D01*
X66764801Y-55108926D01*
X66951214Y-55239454D01*
X66951216Y-55239455D01*
X67157469Y-55335633D01*
X67377290Y-55394533D01*
X67558657Y-55410400D01*
X67603999Y-55414368D01*
X67604000Y-55414368D01*
X67604001Y-55414368D01*
X67641785Y-55411062D01*
X67830710Y-55394533D01*
X68050531Y-55335633D01*
X68256784Y-55239455D01*
X68443203Y-55108923D01*
X68604123Y-54948003D01*
X68734655Y-54761584D01*
X68830833Y-54555331D01*
X68889733Y-54335510D01*
X68909568Y-54108800D01*
X68889733Y-53882090D01*
X68830833Y-53662269D01*
X68734655Y-53456016D01*
X68642938Y-53325031D01*
X68604126Y-53269601D01*
X68604121Y-53269595D01*
X68443204Y-53108678D01*
X68443198Y-53108673D01*
X68256785Y-52978145D01*
X68256783Y-52978144D01*
X68151700Y-52929143D01*
X68050531Y-52881967D01*
X68050527Y-52881966D01*
X68050523Y-52881964D01*
X67830715Y-52823068D01*
X67830705Y-52823066D01*
X67604001Y-52803232D01*
X67603999Y-52803232D01*
X67377294Y-52823066D01*
X67377284Y-52823068D01*
X67157476Y-52881964D01*
X67157467Y-52881968D01*
X66951216Y-52978144D01*
X66951214Y-52978145D01*
X66764801Y-53108673D01*
X66764795Y-53108678D01*
X66603878Y-53269595D01*
X66603873Y-53269601D01*
X66473345Y-53456014D01*
X66473344Y-53456016D01*
X66377168Y-53662267D01*
X66377164Y-53662276D01*
X66318268Y-53882084D01*
X66318266Y-53882094D01*
X66298432Y-54108799D01*
X66298432Y-54108800D01*
X63829568Y-54108800D01*
X63809733Y-53882090D01*
X63750833Y-53662269D01*
X63654655Y-53456016D01*
X63562938Y-53325031D01*
X63524126Y-53269601D01*
X63524121Y-53269595D01*
X63363204Y-53108678D01*
X63363198Y-53108673D01*
X63176785Y-52978145D01*
X63176783Y-52978144D01*
X63071700Y-52929143D01*
X62970531Y-52881967D01*
X62970527Y-52881966D01*
X62970523Y-52881964D01*
X62750715Y-52823068D01*
X62750705Y-52823066D01*
X62524001Y-52803232D01*
X62523999Y-52803232D01*
X62297294Y-52823066D01*
X62297284Y-52823068D01*
X62077476Y-52881964D01*
X62077467Y-52881968D01*
X61871216Y-52978144D01*
X61871214Y-52978145D01*
X61684801Y-53108673D01*
X61684795Y-53108678D01*
X61523878Y-53269595D01*
X61523873Y-53269601D01*
X61393345Y-53456014D01*
X61393344Y-53456016D01*
X61297168Y-53662267D01*
X61297164Y-53662276D01*
X61238268Y-53882084D01*
X61238266Y-53882094D01*
X61218432Y-54108799D01*
X61218432Y-54108800D01*
X57593633Y-54108800D01*
X57631216Y-54094325D01*
X57631231Y-54094318D01*
X57895395Y-53949551D01*
X57895401Y-53949547D01*
X58137911Y-53770864D01*
X58354451Y-53561444D01*
X58354457Y-53561437D01*
X58541145Y-53325031D01*
X58694657Y-53065851D01*
X58694666Y-53065833D01*
X58812260Y-52788516D01*
X58812265Y-52788499D01*
X58891848Y-52497973D01*
X58932000Y-52199416D01*
X58932000Y-52124036D01*
X69672000Y-52124036D01*
X69687084Y-52349364D01*
X69687086Y-52349373D01*
X69747083Y-52644558D01*
X69747087Y-52644573D01*
X69845901Y-52929143D01*
X69845903Y-52929146D01*
X69981759Y-53197998D01*
X70152254Y-53446364D01*
X70354314Y-53669771D01*
X70584361Y-53864264D01*
X70838271Y-54026354D01*
X70838273Y-54026355D01*
X71111514Y-54153151D01*
X71111528Y-54153156D01*
X71399234Y-54242405D01*
X71672000Y-54288414D01*
X71672000Y-51273425D01*
X71819801Y-51303800D01*
X71972967Y-51303800D01*
X72125348Y-51288304D01*
X72172000Y-51273667D01*
X72172000Y-54285007D01*
X72297076Y-54272424D01*
X72297079Y-54272423D01*
X72590107Y-54202591D01*
X72590116Y-54202589D01*
X72871216Y-54094325D01*
X72871231Y-54094318D01*
X73135395Y-53949551D01*
X73135401Y-53949547D01*
X73377911Y-53770864D01*
X73594451Y-53561444D01*
X73594457Y-53561437D01*
X73781145Y-53325031D01*
X73934657Y-53065851D01*
X73934666Y-53065833D01*
X74052260Y-52788516D01*
X74052265Y-52788499D01*
X74131848Y-52497973D01*
X74172000Y-52199416D01*
X74172000Y-52124036D01*
X79832000Y-52124036D01*
X79847084Y-52349364D01*
X79847086Y-52349373D01*
X79907083Y-52644558D01*
X79907087Y-52644573D01*
X80005901Y-52929143D01*
X80005903Y-52929146D01*
X80141759Y-53197998D01*
X80312254Y-53446364D01*
X80514314Y-53669771D01*
X80744361Y-53864264D01*
X80998271Y-54026354D01*
X80998273Y-54026355D01*
X81271514Y-54153151D01*
X81271528Y-54153156D01*
X81559234Y-54242405D01*
X81832000Y-54288414D01*
X81832000Y-51273425D01*
X81979801Y-51303800D01*
X82132967Y-51303800D01*
X82285348Y-51288304D01*
X82332000Y-51273667D01*
X82332000Y-54285007D01*
X82457076Y-54272424D01*
X82457079Y-54272423D01*
X82750107Y-54202591D01*
X82750116Y-54202589D01*
X82993633Y-54108800D01*
X86618432Y-54108800D01*
X86638266Y-54335505D01*
X86638268Y-54335515D01*
X86697164Y-54555323D01*
X86697166Y-54555327D01*
X86697167Y-54555331D01*
X86734123Y-54634583D01*
X86793344Y-54761583D01*
X86793345Y-54761585D01*
X86923873Y-54947998D01*
X86923878Y-54948004D01*
X87084795Y-55108921D01*
X87084801Y-55108926D01*
X87271214Y-55239454D01*
X87271216Y-55239455D01*
X87477469Y-55335633D01*
X87697290Y-55394533D01*
X87878657Y-55410400D01*
X87923999Y-55414368D01*
X87924000Y-55414368D01*
X87924001Y-55414368D01*
X87961785Y-55411062D01*
X88150710Y-55394533D01*
X88370531Y-55335633D01*
X88576784Y-55239455D01*
X88763203Y-55108923D01*
X88924123Y-54948003D01*
X89054655Y-54761584D01*
X89150833Y-54555331D01*
X89209733Y-54335510D01*
X89229568Y-54108800D01*
X91698432Y-54108800D01*
X91718266Y-54335505D01*
X91718268Y-54335515D01*
X91777164Y-54555323D01*
X91777166Y-54555327D01*
X91777167Y-54555331D01*
X91814123Y-54634583D01*
X91873344Y-54761583D01*
X91873345Y-54761585D01*
X92003873Y-54947998D01*
X92003878Y-54948004D01*
X92164795Y-55108921D01*
X92164801Y-55108926D01*
X92351214Y-55239454D01*
X92351216Y-55239455D01*
X92557469Y-55335633D01*
X92777290Y-55394533D01*
X92958657Y-55410400D01*
X93003999Y-55414368D01*
X93004000Y-55414368D01*
X93004001Y-55414368D01*
X93041784Y-55411062D01*
X93230710Y-55394533D01*
X93450531Y-55335633D01*
X93656784Y-55239455D01*
X93843203Y-55108923D01*
X94004123Y-54948003D01*
X94134655Y-54761584D01*
X94230833Y-54555331D01*
X94289733Y-54335510D01*
X94309568Y-54108800D01*
X94289733Y-53882090D01*
X94230833Y-53662269D01*
X94134655Y-53456016D01*
X94042938Y-53325031D01*
X94004126Y-53269601D01*
X94004121Y-53269595D01*
X93843204Y-53108678D01*
X93843198Y-53108673D01*
X93656785Y-52978145D01*
X93656783Y-52978144D01*
X93551700Y-52929143D01*
X93450531Y-52881967D01*
X93450527Y-52881966D01*
X93450523Y-52881964D01*
X93230715Y-52823068D01*
X93230705Y-52823066D01*
X93004001Y-52803232D01*
X93003999Y-52803232D01*
X92777294Y-52823066D01*
X92777284Y-52823068D01*
X92557476Y-52881964D01*
X92557467Y-52881968D01*
X92351216Y-52978144D01*
X92351214Y-52978145D01*
X92164801Y-53108673D01*
X92164795Y-53108678D01*
X92003878Y-53269595D01*
X92003873Y-53269601D01*
X91873345Y-53456014D01*
X91873344Y-53456016D01*
X91777168Y-53662267D01*
X91777164Y-53662276D01*
X91718268Y-53882084D01*
X91718266Y-53882094D01*
X91698432Y-54108799D01*
X91698432Y-54108800D01*
X89229568Y-54108800D01*
X89209733Y-53882090D01*
X89150833Y-53662269D01*
X89054655Y-53456016D01*
X88962938Y-53325031D01*
X88924126Y-53269601D01*
X88924121Y-53269595D01*
X88763204Y-53108678D01*
X88763198Y-53108673D01*
X88576785Y-52978145D01*
X88576783Y-52978144D01*
X88471700Y-52929143D01*
X88370531Y-52881967D01*
X88370527Y-52881966D01*
X88370523Y-52881964D01*
X88150715Y-52823068D01*
X88150705Y-52823066D01*
X87924001Y-52803232D01*
X87923999Y-52803232D01*
X87697294Y-52823066D01*
X87697284Y-52823068D01*
X87477476Y-52881964D01*
X87477467Y-52881968D01*
X87271216Y-52978144D01*
X87271214Y-52978145D01*
X87084801Y-53108673D01*
X87084795Y-53108678D01*
X86923878Y-53269595D01*
X86923873Y-53269601D01*
X86793345Y-53456014D01*
X86793344Y-53456016D01*
X86697168Y-53662267D01*
X86697164Y-53662276D01*
X86638268Y-53882084D01*
X86638266Y-53882094D01*
X86618432Y-54108799D01*
X86618432Y-54108800D01*
X82993633Y-54108800D01*
X83031216Y-54094325D01*
X83031231Y-54094318D01*
X83295395Y-53949551D01*
X83295401Y-53949547D01*
X83537911Y-53770864D01*
X83754451Y-53561444D01*
X83754457Y-53561437D01*
X83941145Y-53325031D01*
X84094657Y-53065851D01*
X84094666Y-53065833D01*
X84212260Y-52788516D01*
X84212265Y-52788499D01*
X84291848Y-52497973D01*
X84332000Y-52199416D01*
X84332000Y-52124036D01*
X95072000Y-52124036D01*
X95087084Y-52349364D01*
X95087086Y-52349373D01*
X95147083Y-52644558D01*
X95147087Y-52644573D01*
X95245901Y-52929143D01*
X95245903Y-52929146D01*
X95381759Y-53197998D01*
X95552254Y-53446364D01*
X95754314Y-53669771D01*
X95984361Y-53864264D01*
X96238271Y-54026354D01*
X96238273Y-54026355D01*
X96511514Y-54153151D01*
X96511528Y-54153156D01*
X96799234Y-54242405D01*
X97072000Y-54288414D01*
X97072000Y-51273425D01*
X97219801Y-51303800D01*
X97372967Y-51303800D01*
X97525348Y-51288304D01*
X97572000Y-51273667D01*
X97572000Y-54285007D01*
X97697076Y-54272424D01*
X97697079Y-54272423D01*
X97990107Y-54202591D01*
X97990116Y-54202589D01*
X98271216Y-54094325D01*
X98271231Y-54094318D01*
X98535395Y-53949551D01*
X98535401Y-53949547D01*
X98777911Y-53770864D01*
X98994451Y-53561444D01*
X98994457Y-53561437D01*
X99181145Y-53325031D01*
X99334657Y-53065851D01*
X99334666Y-53065833D01*
X99452260Y-52788516D01*
X99452265Y-52788499D01*
X99531848Y-52497973D01*
X99572000Y-52199416D01*
X99572000Y-52124036D01*
X105232000Y-52124036D01*
X105247084Y-52349364D01*
X105247086Y-52349373D01*
X105307083Y-52644558D01*
X105307087Y-52644573D01*
X105405901Y-52929143D01*
X105405903Y-52929146D01*
X105541759Y-53197998D01*
X105712254Y-53446364D01*
X105914314Y-53669771D01*
X106144361Y-53864264D01*
X106398271Y-54026354D01*
X106398273Y-54026355D01*
X106671514Y-54153151D01*
X106671528Y-54153156D01*
X106959234Y-54242405D01*
X107232000Y-54288414D01*
X107232000Y-51273425D01*
X107379801Y-51303800D01*
X107532967Y-51303800D01*
X107685348Y-51288304D01*
X107732000Y-51273667D01*
X107732000Y-54285007D01*
X107857076Y-54272424D01*
X107857079Y-54272423D01*
X108150107Y-54202591D01*
X108150116Y-54202589D01*
X108431216Y-54094325D01*
X108431231Y-54094318D01*
X108636549Y-53981800D01*
X111891432Y-53981800D01*
X111911266Y-54208505D01*
X111911268Y-54208515D01*
X111970164Y-54428323D01*
X111970166Y-54428327D01*
X111970167Y-54428331D01*
X111995414Y-54482473D01*
X112066344Y-54634583D01*
X112066345Y-54634585D01*
X112196873Y-54820998D01*
X112196878Y-54821004D01*
X112357795Y-54981921D01*
X112357801Y-54981926D01*
X112544214Y-55112454D01*
X112544216Y-55112455D01*
X112750469Y-55208633D01*
X112750475Y-55208634D01*
X112750476Y-55208635D01*
X112803388Y-55222812D01*
X112970290Y-55267533D01*
X113151657Y-55283401D01*
X113196999Y-55287368D01*
X113197000Y-55287368D01*
X113197001Y-55287368D01*
X113234785Y-55284062D01*
X113423710Y-55267533D01*
X113643531Y-55208633D01*
X113849784Y-55112455D01*
X114036203Y-54981923D01*
X114197123Y-54821003D01*
X114327655Y-54634584D01*
X114423833Y-54428331D01*
X114482733Y-54208510D01*
X114502568Y-53981800D01*
X116971432Y-53981800D01*
X116991266Y-54208505D01*
X116991268Y-54208515D01*
X117050164Y-54428323D01*
X117050166Y-54428327D01*
X117050167Y-54428331D01*
X117075414Y-54482473D01*
X117146344Y-54634583D01*
X117146345Y-54634585D01*
X117276873Y-54820998D01*
X117276878Y-54821004D01*
X117437795Y-54981921D01*
X117437801Y-54981926D01*
X117624214Y-55112454D01*
X117624216Y-55112455D01*
X117830469Y-55208633D01*
X117830475Y-55208634D01*
X117830476Y-55208635D01*
X117883388Y-55222812D01*
X118050290Y-55267533D01*
X118231658Y-55283401D01*
X118276999Y-55287368D01*
X118277000Y-55287368D01*
X118277001Y-55287368D01*
X118314785Y-55284062D01*
X118503710Y-55267533D01*
X118723531Y-55208633D01*
X118929784Y-55112455D01*
X119116203Y-54981923D01*
X119277123Y-54821003D01*
X119407655Y-54634584D01*
X119503833Y-54428331D01*
X119562733Y-54208510D01*
X119582568Y-53981800D01*
X119562733Y-53755090D01*
X119518012Y-53588188D01*
X119503835Y-53535276D01*
X119503834Y-53535275D01*
X119503833Y-53535269D01*
X119407655Y-53329016D01*
X119366052Y-53269601D01*
X119277126Y-53142601D01*
X119277121Y-53142595D01*
X119116204Y-52981678D01*
X119116198Y-52981673D01*
X118929785Y-52851145D01*
X118929783Y-52851144D01*
X118826657Y-52803056D01*
X118723531Y-52754967D01*
X118723527Y-52754966D01*
X118723523Y-52754964D01*
X118503715Y-52696068D01*
X118503705Y-52696066D01*
X118277001Y-52676232D01*
X118276999Y-52676232D01*
X118050294Y-52696066D01*
X118050284Y-52696068D01*
X117830476Y-52754964D01*
X117830467Y-52754968D01*
X117624216Y-52851144D01*
X117624214Y-52851145D01*
X117437801Y-52981673D01*
X117437795Y-52981678D01*
X117276878Y-53142595D01*
X117276873Y-53142601D01*
X117146345Y-53329014D01*
X117146344Y-53329016D01*
X117050168Y-53535267D01*
X117050164Y-53535276D01*
X116991268Y-53755084D01*
X116991266Y-53755094D01*
X116971432Y-53981799D01*
X116971432Y-53981800D01*
X114502568Y-53981800D01*
X114482733Y-53755090D01*
X114438012Y-53588188D01*
X114423835Y-53535276D01*
X114423834Y-53535275D01*
X114423833Y-53535269D01*
X114327655Y-53329016D01*
X114286052Y-53269601D01*
X114197126Y-53142601D01*
X114197121Y-53142595D01*
X114036204Y-52981678D01*
X114036198Y-52981673D01*
X113849785Y-52851145D01*
X113849783Y-52851144D01*
X113746657Y-52803056D01*
X113643531Y-52754967D01*
X113643527Y-52754966D01*
X113643523Y-52754964D01*
X113423715Y-52696068D01*
X113423705Y-52696066D01*
X113197001Y-52676232D01*
X113196999Y-52676232D01*
X112970294Y-52696066D01*
X112970284Y-52696068D01*
X112750476Y-52754964D01*
X112750467Y-52754968D01*
X112544216Y-52851144D01*
X112544214Y-52851145D01*
X112357801Y-52981673D01*
X112357795Y-52981678D01*
X112196878Y-53142595D01*
X112196873Y-53142601D01*
X112066345Y-53329014D01*
X112066344Y-53329016D01*
X111970168Y-53535267D01*
X111970164Y-53535276D01*
X111911268Y-53755084D01*
X111911266Y-53755094D01*
X111891432Y-53981799D01*
X111891432Y-53981800D01*
X108636549Y-53981800D01*
X108695395Y-53949551D01*
X108695401Y-53949547D01*
X108937911Y-53770864D01*
X109154451Y-53561444D01*
X109154457Y-53561437D01*
X109341145Y-53325031D01*
X109494657Y-53065851D01*
X109494666Y-53065833D01*
X109612260Y-52788516D01*
X109612265Y-52788499D01*
X109691848Y-52497973D01*
X109732000Y-52199416D01*
X109732000Y-52124036D01*
X120472000Y-52124036D01*
X120487084Y-52349364D01*
X120487086Y-52349373D01*
X120547083Y-52644558D01*
X120547087Y-52644573D01*
X120645901Y-52929143D01*
X120645903Y-52929146D01*
X120781759Y-53197998D01*
X120952254Y-53446364D01*
X121154314Y-53669771D01*
X121384361Y-53864264D01*
X121638271Y-54026354D01*
X121638273Y-54026355D01*
X121911514Y-54153151D01*
X121911528Y-54153156D01*
X122199234Y-54242405D01*
X122472000Y-54288414D01*
X122472000Y-51273425D01*
X122619801Y-51303800D01*
X122772967Y-51303800D01*
X122925348Y-51288304D01*
X122971999Y-51273667D01*
X122971999Y-54285006D01*
X122972000Y-54285007D01*
X123097076Y-54272424D01*
X123097079Y-54272423D01*
X123390107Y-54202591D01*
X123390116Y-54202589D01*
X123671216Y-54094325D01*
X123671231Y-54094318D01*
X123935395Y-53949551D01*
X123935401Y-53949547D01*
X124177911Y-53770864D01*
X124394451Y-53561444D01*
X124394457Y-53561437D01*
X124581145Y-53325031D01*
X124734657Y-53065851D01*
X124734666Y-53065833D01*
X124852260Y-52788516D01*
X124852265Y-52788499D01*
X124931848Y-52497973D01*
X124972000Y-52199416D01*
X124972000Y-52124036D01*
X130632000Y-52124036D01*
X130647084Y-52349364D01*
X130647086Y-52349373D01*
X130707083Y-52644558D01*
X130707087Y-52644573D01*
X130805901Y-52929143D01*
X130805903Y-52929146D01*
X130941759Y-53197998D01*
X131112254Y-53446364D01*
X131314314Y-53669771D01*
X131544361Y-53864264D01*
X131798271Y-54026354D01*
X131798273Y-54026355D01*
X132071514Y-54153151D01*
X132071528Y-54153156D01*
X132359234Y-54242405D01*
X132632000Y-54288414D01*
X132632000Y-51273425D01*
X132779801Y-51303800D01*
X132932967Y-51303800D01*
X133085348Y-51288304D01*
X133132000Y-51273667D01*
X133132000Y-54285007D01*
X133257076Y-54272424D01*
X133257079Y-54272423D01*
X133550107Y-54202591D01*
X133550116Y-54202589D01*
X133793633Y-54108800D01*
X137545432Y-54108800D01*
X137565266Y-54335505D01*
X137565268Y-54335515D01*
X137624164Y-54555323D01*
X137624166Y-54555327D01*
X137624167Y-54555331D01*
X137661123Y-54634583D01*
X137720344Y-54761583D01*
X137720345Y-54761585D01*
X137850873Y-54947998D01*
X137850878Y-54948004D01*
X138011795Y-55108921D01*
X138011801Y-55108926D01*
X138198214Y-55239454D01*
X138198216Y-55239455D01*
X138404469Y-55335633D01*
X138624290Y-55394533D01*
X138805658Y-55410400D01*
X138850999Y-55414368D01*
X138851000Y-55414368D01*
X138851001Y-55414368D01*
X138888785Y-55411062D01*
X139077710Y-55394533D01*
X139297531Y-55335633D01*
X139503784Y-55239455D01*
X139690203Y-55108923D01*
X139851123Y-54948003D01*
X139981655Y-54761584D01*
X140077833Y-54555331D01*
X140136733Y-54335510D01*
X140156568Y-54108800D01*
X142625432Y-54108800D01*
X142645266Y-54335505D01*
X142645268Y-54335515D01*
X142704164Y-54555323D01*
X142704166Y-54555327D01*
X142704167Y-54555331D01*
X142741123Y-54634583D01*
X142800344Y-54761583D01*
X142800345Y-54761585D01*
X142930873Y-54947998D01*
X142930878Y-54948004D01*
X143091795Y-55108921D01*
X143091801Y-55108926D01*
X143278214Y-55239454D01*
X143278216Y-55239455D01*
X143484469Y-55335633D01*
X143704290Y-55394533D01*
X143885657Y-55410400D01*
X143930999Y-55414368D01*
X143931000Y-55414368D01*
X143931001Y-55414368D01*
X143968785Y-55411062D01*
X144157710Y-55394533D01*
X144377531Y-55335633D01*
X144583784Y-55239455D01*
X144770203Y-55108923D01*
X144931123Y-54948003D01*
X145061655Y-54761584D01*
X145157833Y-54555331D01*
X145216733Y-54335510D01*
X145236568Y-54108800D01*
X145216733Y-53882090D01*
X145157833Y-53662269D01*
X145061655Y-53456016D01*
X144969938Y-53325031D01*
X144931126Y-53269601D01*
X144931121Y-53269595D01*
X144770204Y-53108678D01*
X144770198Y-53108673D01*
X144583785Y-52978145D01*
X144583783Y-52978144D01*
X144478700Y-52929143D01*
X144377531Y-52881967D01*
X144377527Y-52881966D01*
X144377523Y-52881964D01*
X144157715Y-52823068D01*
X144157705Y-52823066D01*
X143931001Y-52803232D01*
X143930999Y-52803232D01*
X143704294Y-52823066D01*
X143704284Y-52823068D01*
X143484476Y-52881964D01*
X143484467Y-52881968D01*
X143278216Y-52978144D01*
X143278214Y-52978145D01*
X143091801Y-53108673D01*
X143091795Y-53108678D01*
X142930878Y-53269595D01*
X142930873Y-53269601D01*
X142800345Y-53456014D01*
X142800344Y-53456016D01*
X142704168Y-53662267D01*
X142704164Y-53662276D01*
X142645268Y-53882084D01*
X142645266Y-53882094D01*
X142625432Y-54108799D01*
X142625432Y-54108800D01*
X140156568Y-54108800D01*
X140136733Y-53882090D01*
X140077833Y-53662269D01*
X139981655Y-53456016D01*
X139889938Y-53325031D01*
X139851126Y-53269601D01*
X139851121Y-53269595D01*
X139690204Y-53108678D01*
X139690198Y-53108673D01*
X139503785Y-52978145D01*
X139503783Y-52978144D01*
X139398700Y-52929143D01*
X139297531Y-52881967D01*
X139297527Y-52881966D01*
X139297523Y-52881964D01*
X139077715Y-52823068D01*
X139077705Y-52823066D01*
X138851001Y-52803232D01*
X138850999Y-52803232D01*
X138624294Y-52823066D01*
X138624284Y-52823068D01*
X138404476Y-52881964D01*
X138404467Y-52881968D01*
X138198216Y-52978144D01*
X138198214Y-52978145D01*
X138011801Y-53108673D01*
X138011795Y-53108678D01*
X137850878Y-53269595D01*
X137850873Y-53269601D01*
X137720345Y-53456014D01*
X137720344Y-53456016D01*
X137624168Y-53662267D01*
X137624164Y-53662276D01*
X137565268Y-53882084D01*
X137565266Y-53882094D01*
X137545432Y-54108799D01*
X137545432Y-54108800D01*
X133793633Y-54108800D01*
X133831216Y-54094325D01*
X133831231Y-54094318D01*
X134095395Y-53949551D01*
X134095401Y-53949547D01*
X134337911Y-53770864D01*
X134554451Y-53561444D01*
X134554457Y-53561437D01*
X134741145Y-53325031D01*
X134894657Y-53065851D01*
X134894666Y-53065833D01*
X135012260Y-52788516D01*
X135012265Y-52788499D01*
X135091848Y-52497973D01*
X135132000Y-52199416D01*
X135132000Y-50548800D01*
X133855411Y-50548800D01*
X133880534Y-50451770D01*
X133890886Y-50247635D01*
X133860426Y-50048800D01*
X135132000Y-50048800D01*
X135132000Y-49028800D01*
X137545432Y-49028800D01*
X137565266Y-49255505D01*
X137565268Y-49255515D01*
X137624164Y-49475323D01*
X137624166Y-49475327D01*
X137624167Y-49475331D01*
X137650739Y-49532315D01*
X137720344Y-49681583D01*
X137720345Y-49681585D01*
X137850873Y-49867998D01*
X137850878Y-49868004D01*
X138011795Y-50028921D01*
X138011801Y-50028926D01*
X138198214Y-50159454D01*
X138198216Y-50159455D01*
X138404469Y-50255633D01*
X138624290Y-50314533D01*
X138805658Y-50330400D01*
X138850999Y-50334368D01*
X138851000Y-50334368D01*
X138851001Y-50334368D01*
X138888785Y-50331062D01*
X139077710Y-50314533D01*
X139297531Y-50255633D01*
X139503784Y-50159455D01*
X139690203Y-50028923D01*
X139851123Y-49868003D01*
X139981655Y-49681584D01*
X140077833Y-49475331D01*
X140136733Y-49255510D01*
X140156568Y-49028800D01*
X142625432Y-49028800D01*
X142645266Y-49255505D01*
X142645268Y-49255515D01*
X142704164Y-49475323D01*
X142704166Y-49475327D01*
X142704167Y-49475331D01*
X142730739Y-49532315D01*
X142800344Y-49681583D01*
X142800345Y-49681585D01*
X142930873Y-49867998D01*
X142930878Y-49868004D01*
X143091795Y-50028921D01*
X143091801Y-50028926D01*
X143278214Y-50159454D01*
X143278216Y-50159455D01*
X143484469Y-50255633D01*
X143704290Y-50314533D01*
X143885658Y-50330400D01*
X143930999Y-50334368D01*
X143931000Y-50334368D01*
X143931001Y-50334368D01*
X143968785Y-50331062D01*
X144157710Y-50314533D01*
X144377531Y-50255633D01*
X144583784Y-50159455D01*
X144770203Y-50028923D01*
X144931123Y-49868003D01*
X145061655Y-49681584D01*
X145157833Y-49475331D01*
X145216733Y-49255510D01*
X145236568Y-49028800D01*
X145216733Y-48802090D01*
X145157833Y-48582269D01*
X145061655Y-48376016D01*
X144972175Y-48248226D01*
X144931126Y-48189601D01*
X144931121Y-48189595D01*
X144770204Y-48028678D01*
X144770198Y-48028673D01*
X144583785Y-47898145D01*
X144583783Y-47898144D01*
X144480657Y-47850055D01*
X144377531Y-47801967D01*
X144377527Y-47801966D01*
X144377523Y-47801964D01*
X144157715Y-47743068D01*
X144157705Y-47743066D01*
X143931001Y-47723232D01*
X143930999Y-47723232D01*
X143704294Y-47743066D01*
X143704284Y-47743068D01*
X143484476Y-47801964D01*
X143484467Y-47801968D01*
X143278216Y-47898144D01*
X143278214Y-47898145D01*
X143091801Y-48028673D01*
X143091795Y-48028678D01*
X142930878Y-48189595D01*
X142930873Y-48189601D01*
X142800345Y-48376014D01*
X142800344Y-48376016D01*
X142704168Y-48582267D01*
X142704164Y-48582276D01*
X142645268Y-48802084D01*
X142645266Y-48802094D01*
X142625432Y-49028799D01*
X142625432Y-49028800D01*
X140156568Y-49028800D01*
X140136733Y-48802090D01*
X140077833Y-48582269D01*
X139981655Y-48376016D01*
X139892175Y-48248226D01*
X139851126Y-48189601D01*
X139851121Y-48189595D01*
X139690204Y-48028678D01*
X139690198Y-48028673D01*
X139503785Y-47898145D01*
X139503783Y-47898144D01*
X139400657Y-47850055D01*
X139297531Y-47801967D01*
X139297527Y-47801966D01*
X139297523Y-47801964D01*
X139077715Y-47743068D01*
X139077705Y-47743066D01*
X138851001Y-47723232D01*
X138850999Y-47723232D01*
X138624294Y-47743066D01*
X138624284Y-47743068D01*
X138404476Y-47801964D01*
X138404467Y-47801968D01*
X138198216Y-47898144D01*
X138198214Y-47898145D01*
X138011801Y-48028673D01*
X138011795Y-48028678D01*
X137850878Y-48189595D01*
X137850873Y-48189601D01*
X137720345Y-48376014D01*
X137720344Y-48376016D01*
X137624168Y-48582267D01*
X137624164Y-48582276D01*
X137565268Y-48802084D01*
X137565266Y-48802094D01*
X137545432Y-49028799D01*
X137545432Y-49028800D01*
X135132000Y-49028800D01*
X135132000Y-48473563D01*
X135116915Y-48248235D01*
X135116913Y-48248226D01*
X135056916Y-47953041D01*
X135056912Y-47953026D01*
X134958098Y-47668456D01*
X134958096Y-47668453D01*
X134822240Y-47399601D01*
X134651745Y-47151235D01*
X134449685Y-46927828D01*
X134219638Y-46733335D01*
X133965728Y-46571245D01*
X133965726Y-46571244D01*
X133692485Y-46444448D01*
X133692471Y-46444443D01*
X133404765Y-46355194D01*
X133131999Y-46309184D01*
X133131998Y-49324173D01*
X132984199Y-49293800D01*
X132831033Y-49293800D01*
X132678652Y-49309296D01*
X132632000Y-49323932D01*
X132632000Y-46312592D01*
X132506922Y-46325175D01*
X132506920Y-46325176D01*
X132213892Y-46395008D01*
X132213883Y-46395010D01*
X131932783Y-46503274D01*
X131932768Y-46503281D01*
X131668604Y-46648048D01*
X131668598Y-46648052D01*
X131426088Y-46826735D01*
X131209548Y-47036155D01*
X131209542Y-47036162D01*
X131022854Y-47272568D01*
X130869342Y-47531748D01*
X130869333Y-47531766D01*
X130751739Y-47809083D01*
X130751734Y-47809100D01*
X130672151Y-48099626D01*
X130632000Y-48398183D01*
X130632000Y-50048800D01*
X131908589Y-50048800D01*
X131883466Y-50145830D01*
X131873114Y-50349965D01*
X131903574Y-50548800D01*
X130632000Y-50548800D01*
X130632000Y-52124036D01*
X124972000Y-52124036D01*
X124972000Y-50548800D01*
X123695411Y-50548800D01*
X123720534Y-50451770D01*
X123730886Y-50247635D01*
X123700426Y-50048800D01*
X124972000Y-50048800D01*
X124972000Y-48473563D01*
X124956915Y-48248235D01*
X124956913Y-48248226D01*
X124896916Y-47953041D01*
X124896912Y-47953026D01*
X124798098Y-47668456D01*
X124798096Y-47668453D01*
X124662240Y-47399601D01*
X124491745Y-47151235D01*
X124289685Y-46927828D01*
X124059638Y-46733335D01*
X123805728Y-46571245D01*
X123805726Y-46571244D01*
X123532485Y-46444448D01*
X123532471Y-46444443D01*
X123244765Y-46355194D01*
X122972000Y-46309184D01*
X122972000Y-49324174D01*
X122824199Y-49293800D01*
X122671033Y-49293800D01*
X122518652Y-49309296D01*
X122471999Y-49323932D01*
X122471999Y-46312592D01*
X122346922Y-46325175D01*
X122346920Y-46325176D01*
X122053892Y-46395008D01*
X122053883Y-46395010D01*
X121772783Y-46503274D01*
X121772768Y-46503281D01*
X121508604Y-46648048D01*
X121508598Y-46648052D01*
X121266088Y-46826735D01*
X121049548Y-47036155D01*
X121049542Y-47036162D01*
X120862854Y-47272568D01*
X120709342Y-47531748D01*
X120709333Y-47531766D01*
X120591739Y-47809083D01*
X120591734Y-47809100D01*
X120512151Y-48099626D01*
X120472000Y-48398183D01*
X120472000Y-50048800D01*
X121748589Y-50048800D01*
X121723466Y-50145830D01*
X121713114Y-50349965D01*
X121743574Y-50548800D01*
X120472000Y-50548800D01*
X120472000Y-52124036D01*
X109732000Y-52124036D01*
X109732000Y-50548800D01*
X108455411Y-50548800D01*
X108480534Y-50451770D01*
X108490886Y-50247635D01*
X108460426Y-50048800D01*
X109732000Y-50048800D01*
X109731999Y-48901800D01*
X111891432Y-48901800D01*
X111911266Y-49128505D01*
X111911268Y-49128515D01*
X111970164Y-49348323D01*
X111970166Y-49348327D01*
X111970167Y-49348331D01*
X112001512Y-49415550D01*
X112066344Y-49554583D01*
X112066345Y-49554585D01*
X112196873Y-49740998D01*
X112196878Y-49741004D01*
X112357795Y-49901921D01*
X112357801Y-49901926D01*
X112544214Y-50032454D01*
X112544216Y-50032455D01*
X112750469Y-50128633D01*
X112970290Y-50187533D01*
X113151657Y-50203401D01*
X113196999Y-50207368D01*
X113197000Y-50207368D01*
X113197001Y-50207368D01*
X113234785Y-50204062D01*
X113423710Y-50187533D01*
X113643531Y-50128633D01*
X113849784Y-50032455D01*
X114036203Y-49901923D01*
X114197123Y-49741003D01*
X114327655Y-49554584D01*
X114423833Y-49348331D01*
X114482733Y-49128510D01*
X114502568Y-48901800D01*
X116971432Y-48901800D01*
X116991266Y-49128505D01*
X116991268Y-49128515D01*
X117050164Y-49348323D01*
X117050166Y-49348327D01*
X117050167Y-49348331D01*
X117081512Y-49415550D01*
X117146344Y-49554583D01*
X117146345Y-49554585D01*
X117276873Y-49740998D01*
X117276878Y-49741004D01*
X117437795Y-49901921D01*
X117437801Y-49901926D01*
X117624214Y-50032454D01*
X117624216Y-50032455D01*
X117830469Y-50128633D01*
X118050290Y-50187533D01*
X118231658Y-50203401D01*
X118276999Y-50207368D01*
X118277000Y-50207368D01*
X118277001Y-50207368D01*
X118314785Y-50204062D01*
X118503710Y-50187533D01*
X118723531Y-50128633D01*
X118929784Y-50032455D01*
X119116203Y-49901923D01*
X119277123Y-49741003D01*
X119407655Y-49554584D01*
X119503833Y-49348331D01*
X119562733Y-49128510D01*
X119582568Y-48901800D01*
X119562733Y-48675090D01*
X119503833Y-48455269D01*
X119407655Y-48249016D01*
X119407108Y-48248235D01*
X119277126Y-48062601D01*
X119277121Y-48062595D01*
X119116204Y-47901678D01*
X119116198Y-47901673D01*
X118929785Y-47771145D01*
X118929783Y-47771144D01*
X118826657Y-47723055D01*
X118723531Y-47674967D01*
X118723527Y-47674966D01*
X118723523Y-47674964D01*
X118503715Y-47616068D01*
X118503705Y-47616066D01*
X118277001Y-47596232D01*
X118276999Y-47596232D01*
X118050294Y-47616066D01*
X118050284Y-47616068D01*
X117830476Y-47674964D01*
X117830467Y-47674968D01*
X117624216Y-47771144D01*
X117624214Y-47771145D01*
X117437801Y-47901673D01*
X117437795Y-47901678D01*
X117276878Y-48062595D01*
X117276873Y-48062601D01*
X117146345Y-48249014D01*
X117146344Y-48249016D01*
X117050168Y-48455267D01*
X117050164Y-48455276D01*
X116991268Y-48675084D01*
X116991266Y-48675094D01*
X116971432Y-48901799D01*
X116971432Y-48901800D01*
X114502568Y-48901800D01*
X114482733Y-48675090D01*
X114423833Y-48455269D01*
X114327655Y-48249016D01*
X114327108Y-48248235D01*
X114197126Y-48062601D01*
X114197121Y-48062595D01*
X114036204Y-47901678D01*
X114036198Y-47901673D01*
X113849785Y-47771145D01*
X113849783Y-47771144D01*
X113746657Y-47723056D01*
X113643531Y-47674967D01*
X113643527Y-47674966D01*
X113643523Y-47674964D01*
X113423715Y-47616068D01*
X113423705Y-47616066D01*
X113197001Y-47596232D01*
X113196999Y-47596232D01*
X112970294Y-47616066D01*
X112970284Y-47616068D01*
X112750476Y-47674964D01*
X112750467Y-47674968D01*
X112544216Y-47771144D01*
X112544214Y-47771145D01*
X112357801Y-47901673D01*
X112357795Y-47901678D01*
X112196878Y-48062595D01*
X112196873Y-48062601D01*
X112066345Y-48249014D01*
X112066344Y-48249016D01*
X111970168Y-48455267D01*
X111970164Y-48455276D01*
X111911268Y-48675084D01*
X111911266Y-48675094D01*
X111891432Y-48901799D01*
X111891432Y-48901800D01*
X109731999Y-48901800D01*
X109731999Y-48473563D01*
X109716915Y-48248235D01*
X109716913Y-48248226D01*
X109656916Y-47953041D01*
X109656912Y-47953026D01*
X109558098Y-47668456D01*
X109558096Y-47668453D01*
X109422240Y-47399601D01*
X109251745Y-47151235D01*
X109049685Y-46927828D01*
X108819638Y-46733335D01*
X108565728Y-46571245D01*
X108565726Y-46571244D01*
X108292485Y-46444448D01*
X108292471Y-46444443D01*
X108004765Y-46355194D01*
X107732000Y-46309184D01*
X107732000Y-49324174D01*
X107584199Y-49293800D01*
X107431033Y-49293800D01*
X107278652Y-49309296D01*
X107232000Y-49323932D01*
X107232000Y-46312592D01*
X107106922Y-46325175D01*
X107106920Y-46325176D01*
X106813892Y-46395008D01*
X106813883Y-46395010D01*
X106532783Y-46503274D01*
X106532768Y-46503281D01*
X106268604Y-46648048D01*
X106268598Y-46648052D01*
X106026088Y-46826735D01*
X105809548Y-47036155D01*
X105809542Y-47036162D01*
X105622854Y-47272568D01*
X105469342Y-47531748D01*
X105469333Y-47531766D01*
X105351739Y-47809083D01*
X105351734Y-47809100D01*
X105272151Y-48099626D01*
X105232000Y-48398183D01*
X105232000Y-50048800D01*
X106508589Y-50048800D01*
X106483466Y-50145830D01*
X106473114Y-50349965D01*
X106503574Y-50548800D01*
X105232000Y-50548800D01*
X105232000Y-52124036D01*
X99572000Y-52124036D01*
X99572000Y-50548800D01*
X98295411Y-50548800D01*
X98320534Y-50451770D01*
X98330886Y-50247635D01*
X98300426Y-50048800D01*
X99572000Y-50048800D01*
X99572000Y-48473563D01*
X99556915Y-48248235D01*
X99556913Y-48248226D01*
X99496916Y-47953041D01*
X99496912Y-47953026D01*
X99398098Y-47668456D01*
X99398096Y-47668453D01*
X99262240Y-47399601D01*
X99091745Y-47151235D01*
X98889685Y-46927828D01*
X98659638Y-46733335D01*
X98405728Y-46571245D01*
X98405726Y-46571244D01*
X98132485Y-46444448D01*
X98132471Y-46444443D01*
X97844765Y-46355194D01*
X97572000Y-46309184D01*
X97572000Y-49324174D01*
X97424199Y-49293800D01*
X97271033Y-49293800D01*
X97118652Y-49309296D01*
X97072000Y-49323932D01*
X97072000Y-46312592D01*
X96946922Y-46325175D01*
X96946920Y-46325176D01*
X96653892Y-46395008D01*
X96653883Y-46395010D01*
X96372783Y-46503274D01*
X96372768Y-46503281D01*
X96108604Y-46648048D01*
X96108598Y-46648052D01*
X95866088Y-46826735D01*
X95649548Y-47036155D01*
X95649542Y-47036162D01*
X95462854Y-47272568D01*
X95309342Y-47531748D01*
X95309333Y-47531766D01*
X95191739Y-47809083D01*
X95191734Y-47809100D01*
X95112151Y-48099626D01*
X95072000Y-48398183D01*
X95072000Y-50048800D01*
X96348589Y-50048800D01*
X96323466Y-50145830D01*
X96313114Y-50349965D01*
X96343574Y-50548800D01*
X95072000Y-50548800D01*
X95072000Y-52124036D01*
X84332000Y-52124036D01*
X84332000Y-50548800D01*
X83055411Y-50548800D01*
X83080534Y-50451770D01*
X83090886Y-50247635D01*
X83060426Y-50048800D01*
X84332000Y-50048800D01*
X84332000Y-49028800D01*
X86618432Y-49028800D01*
X86638266Y-49255505D01*
X86638268Y-49255515D01*
X86697164Y-49475323D01*
X86697166Y-49475327D01*
X86697167Y-49475331D01*
X86723739Y-49532315D01*
X86793344Y-49681583D01*
X86793345Y-49681585D01*
X86923873Y-49867998D01*
X86923878Y-49868004D01*
X87084795Y-50028921D01*
X87084801Y-50028926D01*
X87271214Y-50159454D01*
X87271216Y-50159455D01*
X87477469Y-50255633D01*
X87697290Y-50314533D01*
X87878657Y-50330400D01*
X87923999Y-50334368D01*
X87924000Y-50334368D01*
X87924001Y-50334368D01*
X87961785Y-50331062D01*
X88150710Y-50314533D01*
X88370531Y-50255633D01*
X88576784Y-50159455D01*
X88763203Y-50028923D01*
X88924123Y-49868003D01*
X89054655Y-49681584D01*
X89150833Y-49475331D01*
X89209733Y-49255510D01*
X89229568Y-49028800D01*
X91698432Y-49028800D01*
X91718266Y-49255505D01*
X91718268Y-49255515D01*
X91777164Y-49475323D01*
X91777166Y-49475327D01*
X91777167Y-49475331D01*
X91803739Y-49532315D01*
X91873344Y-49681583D01*
X91873345Y-49681585D01*
X92003873Y-49867998D01*
X92003878Y-49868004D01*
X92164795Y-50028921D01*
X92164801Y-50028926D01*
X92351214Y-50159454D01*
X92351216Y-50159455D01*
X92557469Y-50255633D01*
X92777290Y-50314533D01*
X92958657Y-50330400D01*
X93003999Y-50334368D01*
X93004000Y-50334368D01*
X93004001Y-50334368D01*
X93041784Y-50331062D01*
X93230710Y-50314533D01*
X93450531Y-50255633D01*
X93656784Y-50159455D01*
X93843203Y-50028923D01*
X94004123Y-49868003D01*
X94134655Y-49681584D01*
X94230833Y-49475331D01*
X94289733Y-49255510D01*
X94309568Y-49028800D01*
X94289733Y-48802090D01*
X94230833Y-48582269D01*
X94134655Y-48376016D01*
X94045175Y-48248226D01*
X94004126Y-48189601D01*
X94004121Y-48189595D01*
X93843204Y-48028678D01*
X93843198Y-48028673D01*
X93656785Y-47898145D01*
X93656783Y-47898144D01*
X93553657Y-47850056D01*
X93450531Y-47801967D01*
X93450527Y-47801966D01*
X93450523Y-47801964D01*
X93230715Y-47743068D01*
X93230705Y-47743066D01*
X93004001Y-47723232D01*
X93003999Y-47723232D01*
X92777294Y-47743066D01*
X92777284Y-47743068D01*
X92557476Y-47801964D01*
X92557467Y-47801968D01*
X92351216Y-47898144D01*
X92351214Y-47898145D01*
X92164801Y-48028673D01*
X92164795Y-48028678D01*
X92003878Y-48189595D01*
X92003873Y-48189601D01*
X91873345Y-48376014D01*
X91873344Y-48376016D01*
X91777168Y-48582267D01*
X91777164Y-48582276D01*
X91718268Y-48802084D01*
X91718266Y-48802094D01*
X91698432Y-49028799D01*
X91698432Y-49028800D01*
X89229568Y-49028800D01*
X89209733Y-48802090D01*
X89150833Y-48582269D01*
X89054655Y-48376016D01*
X88965175Y-48248226D01*
X88924126Y-48189601D01*
X88924121Y-48189595D01*
X88763204Y-48028678D01*
X88763198Y-48028673D01*
X88576785Y-47898145D01*
X88576783Y-47898144D01*
X88473657Y-47850056D01*
X88370531Y-47801967D01*
X88370527Y-47801966D01*
X88370523Y-47801964D01*
X88150715Y-47743068D01*
X88150705Y-47743066D01*
X87924001Y-47723232D01*
X87923999Y-47723232D01*
X87697294Y-47743066D01*
X87697284Y-47743068D01*
X87477476Y-47801964D01*
X87477467Y-47801968D01*
X87271216Y-47898144D01*
X87271214Y-47898145D01*
X87084801Y-48028673D01*
X87084795Y-48028678D01*
X86923878Y-48189595D01*
X86923873Y-48189601D01*
X86793345Y-48376014D01*
X86793344Y-48376016D01*
X86697168Y-48582267D01*
X86697164Y-48582276D01*
X86638268Y-48802084D01*
X86638266Y-48802094D01*
X86618432Y-49028799D01*
X86618432Y-49028800D01*
X84332000Y-49028800D01*
X84332000Y-48473563D01*
X84316915Y-48248235D01*
X84316913Y-48248226D01*
X84256916Y-47953041D01*
X84256912Y-47953026D01*
X84158098Y-47668456D01*
X84158096Y-47668453D01*
X84022240Y-47399601D01*
X83851745Y-47151235D01*
X83649685Y-46927828D01*
X83419638Y-46733335D01*
X83165728Y-46571245D01*
X83165726Y-46571244D01*
X82892485Y-46444448D01*
X82892471Y-46444443D01*
X82604765Y-46355194D01*
X82332000Y-46309184D01*
X82332000Y-49324174D01*
X82184199Y-49293800D01*
X82031033Y-49293800D01*
X81878652Y-49309296D01*
X81832000Y-49323932D01*
X81832000Y-46312592D01*
X81706922Y-46325175D01*
X81706920Y-46325176D01*
X81413892Y-46395008D01*
X81413883Y-46395010D01*
X81132783Y-46503274D01*
X81132768Y-46503281D01*
X80868604Y-46648048D01*
X80868598Y-46648052D01*
X80626088Y-46826735D01*
X80409548Y-47036155D01*
X80409542Y-47036162D01*
X80222854Y-47272568D01*
X80069342Y-47531748D01*
X80069333Y-47531766D01*
X79951739Y-47809083D01*
X79951734Y-47809100D01*
X79872151Y-48099626D01*
X79832000Y-48398183D01*
X79832000Y-50048800D01*
X81108589Y-50048800D01*
X81083466Y-50145830D01*
X81073114Y-50349965D01*
X81103574Y-50548800D01*
X79832000Y-50548800D01*
X79832000Y-52124036D01*
X74172000Y-52124036D01*
X74172000Y-50548800D01*
X72895411Y-50548800D01*
X72920534Y-50451770D01*
X72930886Y-50247635D01*
X72900426Y-50048800D01*
X74172000Y-50048800D01*
X74172000Y-48473563D01*
X74156915Y-48248235D01*
X74156913Y-48248226D01*
X74096916Y-47953041D01*
X74096912Y-47953026D01*
X73998098Y-47668456D01*
X73998096Y-47668453D01*
X73862240Y-47399601D01*
X73691745Y-47151235D01*
X73489685Y-46927828D01*
X73259638Y-46733335D01*
X73005728Y-46571245D01*
X73005726Y-46571244D01*
X72732485Y-46444448D01*
X72732471Y-46444443D01*
X72444765Y-46355194D01*
X72172000Y-46309184D01*
X72172000Y-49324174D01*
X72024199Y-49293800D01*
X71871033Y-49293800D01*
X71718652Y-49309296D01*
X71672000Y-49323932D01*
X71672000Y-46312592D01*
X71546922Y-46325175D01*
X71546920Y-46325176D01*
X71253892Y-46395008D01*
X71253883Y-46395010D01*
X70972783Y-46503274D01*
X70972768Y-46503281D01*
X70708604Y-46648048D01*
X70708598Y-46648052D01*
X70466088Y-46826735D01*
X70249548Y-47036155D01*
X70249542Y-47036162D01*
X70062854Y-47272568D01*
X69909342Y-47531748D01*
X69909333Y-47531766D01*
X69791739Y-47809083D01*
X69791734Y-47809100D01*
X69712151Y-48099626D01*
X69672000Y-48398183D01*
X69672000Y-50048800D01*
X70948589Y-50048800D01*
X70923466Y-50145830D01*
X70913114Y-50349965D01*
X70943574Y-50548800D01*
X69672000Y-50548800D01*
X69672000Y-52124036D01*
X58932000Y-52124036D01*
X58932000Y-50548800D01*
X57655411Y-50548800D01*
X57680534Y-50451770D01*
X57690886Y-50247635D01*
X57660426Y-50048800D01*
X58932000Y-50048800D01*
X58932000Y-49028800D01*
X61218432Y-49028800D01*
X61238266Y-49255505D01*
X61238268Y-49255515D01*
X61297164Y-49475323D01*
X61297166Y-49475327D01*
X61297167Y-49475331D01*
X61323739Y-49532315D01*
X61393344Y-49681583D01*
X61393345Y-49681585D01*
X61523873Y-49867998D01*
X61523878Y-49868004D01*
X61684795Y-50028921D01*
X61684801Y-50028926D01*
X61871214Y-50159454D01*
X61871216Y-50159455D01*
X62077469Y-50255633D01*
X62297290Y-50314533D01*
X62478658Y-50330400D01*
X62523999Y-50334368D01*
X62524000Y-50334368D01*
X62524001Y-50334368D01*
X62561785Y-50331062D01*
X62750710Y-50314533D01*
X62970531Y-50255633D01*
X63176784Y-50159455D01*
X63363203Y-50028923D01*
X63524123Y-49868003D01*
X63654655Y-49681584D01*
X63750833Y-49475331D01*
X63809733Y-49255510D01*
X63829568Y-49028800D01*
X66298432Y-49028800D01*
X66318266Y-49255505D01*
X66318268Y-49255515D01*
X66377164Y-49475323D01*
X66377166Y-49475327D01*
X66377167Y-49475331D01*
X66403739Y-49532315D01*
X66473344Y-49681583D01*
X66473345Y-49681585D01*
X66603873Y-49867998D01*
X66603878Y-49868004D01*
X66764795Y-50028921D01*
X66764801Y-50028926D01*
X66951214Y-50159454D01*
X66951216Y-50159455D01*
X67157469Y-50255633D01*
X67377290Y-50314533D01*
X67558657Y-50330400D01*
X67603999Y-50334368D01*
X67604000Y-50334368D01*
X67604001Y-50334368D01*
X67641785Y-50331062D01*
X67830710Y-50314533D01*
X68050531Y-50255633D01*
X68256784Y-50159455D01*
X68443203Y-50028923D01*
X68604123Y-49868003D01*
X68734655Y-49681584D01*
X68830833Y-49475331D01*
X68889733Y-49255510D01*
X68909568Y-49028800D01*
X68889733Y-48802090D01*
X68830833Y-48582269D01*
X68734655Y-48376016D01*
X68645175Y-48248226D01*
X68604126Y-48189601D01*
X68604121Y-48189595D01*
X68443204Y-48028678D01*
X68443198Y-48028673D01*
X68256785Y-47898145D01*
X68256783Y-47898144D01*
X68153657Y-47850055D01*
X68050531Y-47801967D01*
X68050527Y-47801966D01*
X68050523Y-47801964D01*
X67830715Y-47743068D01*
X67830705Y-47743066D01*
X67604001Y-47723232D01*
X67603999Y-47723232D01*
X67377294Y-47743066D01*
X67377284Y-47743068D01*
X67157476Y-47801964D01*
X67157467Y-47801968D01*
X66951216Y-47898144D01*
X66951214Y-47898145D01*
X66764801Y-48028673D01*
X66764795Y-48028678D01*
X66603878Y-48189595D01*
X66603873Y-48189601D01*
X66473345Y-48376014D01*
X66473344Y-48376016D01*
X66377168Y-48582267D01*
X66377164Y-48582276D01*
X66318268Y-48802084D01*
X66318266Y-48802094D01*
X66298432Y-49028799D01*
X66298432Y-49028800D01*
X63829568Y-49028800D01*
X63809733Y-48802090D01*
X63750833Y-48582269D01*
X63654655Y-48376016D01*
X63565175Y-48248226D01*
X63524126Y-48189601D01*
X63524121Y-48189595D01*
X63363204Y-48028678D01*
X63363198Y-48028673D01*
X63176785Y-47898145D01*
X63176783Y-47898144D01*
X63073657Y-47850055D01*
X62970531Y-47801967D01*
X62970527Y-47801966D01*
X62970523Y-47801964D01*
X62750715Y-47743068D01*
X62750705Y-47743066D01*
X62524001Y-47723232D01*
X62523999Y-47723232D01*
X62297294Y-47743066D01*
X62297284Y-47743068D01*
X62077476Y-47801964D01*
X62077467Y-47801968D01*
X61871216Y-47898144D01*
X61871214Y-47898145D01*
X61684801Y-48028673D01*
X61684795Y-48028678D01*
X61523878Y-48189595D01*
X61523873Y-48189601D01*
X61393345Y-48376014D01*
X61393344Y-48376016D01*
X61297168Y-48582267D01*
X61297164Y-48582276D01*
X61238268Y-48802084D01*
X61238266Y-48802094D01*
X61218432Y-49028799D01*
X61218432Y-49028800D01*
X58932000Y-49028800D01*
X58932000Y-48473563D01*
X58916915Y-48248235D01*
X58916913Y-48248226D01*
X58856916Y-47953041D01*
X58856912Y-47953026D01*
X58758098Y-47668456D01*
X58758096Y-47668453D01*
X58622240Y-47399601D01*
X58451745Y-47151235D01*
X58249685Y-46927828D01*
X58019638Y-46733335D01*
X57765728Y-46571245D01*
X57765726Y-46571244D01*
X57492485Y-46444448D01*
X57492471Y-46444443D01*
X57204765Y-46355194D01*
X56932000Y-46309184D01*
X56932000Y-49324174D01*
X56784199Y-49293800D01*
X56631033Y-49293800D01*
X56478652Y-49309296D01*
X56432000Y-49323932D01*
X56432000Y-46312592D01*
X56306922Y-46325175D01*
X56306920Y-46325176D01*
X56013892Y-46395008D01*
X56013883Y-46395010D01*
X55732783Y-46503274D01*
X55732768Y-46503281D01*
X55468604Y-46648048D01*
X55468598Y-46648052D01*
X55226088Y-46826735D01*
X55009548Y-47036155D01*
X55009542Y-47036162D01*
X54822854Y-47272568D01*
X54669342Y-47531748D01*
X54669333Y-47531766D01*
X54551739Y-47809083D01*
X54551734Y-47809100D01*
X54472151Y-48099626D01*
X54432000Y-48398183D01*
X54432000Y-50048800D01*
X55708589Y-50048800D01*
X55683466Y-50145830D01*
X55673114Y-50349965D01*
X55703574Y-50548800D01*
X54432000Y-50548800D01*
X54432000Y-52124036D01*
X48772000Y-52124036D01*
X48772000Y-50548800D01*
X47495411Y-50548800D01*
X47520534Y-50451770D01*
X47530886Y-50247635D01*
X47500426Y-50048800D01*
X48772000Y-50048800D01*
X48772000Y-48473563D01*
X48756915Y-48248235D01*
X48756913Y-48248226D01*
X48696916Y-47953041D01*
X48696912Y-47953026D01*
X48598098Y-47668456D01*
X48598096Y-47668453D01*
X48462240Y-47399601D01*
X48291745Y-47151235D01*
X48089685Y-46927828D01*
X47859638Y-46733335D01*
X47605728Y-46571245D01*
X47605726Y-46571244D01*
X47332485Y-46444448D01*
X47332471Y-46444443D01*
X47044765Y-46355194D01*
X46772000Y-46309184D01*
X46772000Y-49324174D01*
X46624199Y-49293800D01*
X46471033Y-49293800D01*
X46318652Y-49309296D01*
X46272000Y-49323932D01*
X46272000Y-46312592D01*
X46146922Y-46325175D01*
X46146920Y-46325176D01*
X45853892Y-46395008D01*
X45853883Y-46395010D01*
X45572783Y-46503274D01*
X45572768Y-46503281D01*
X45308604Y-46648048D01*
X45308598Y-46648052D01*
X45066088Y-46826735D01*
X44849548Y-47036155D01*
X44849542Y-47036162D01*
X44662854Y-47272568D01*
X44509342Y-47531748D01*
X44509333Y-47531766D01*
X44391739Y-47809083D01*
X44391734Y-47809100D01*
X44312151Y-48099626D01*
X44272000Y-48398183D01*
X44272000Y-50048800D01*
X45548589Y-50048800D01*
X45523466Y-50145830D01*
X45513114Y-50349965D01*
X45543574Y-50548800D01*
X44272000Y-50548800D01*
X44272000Y-52124036D01*
X28328500Y-52124036D01*
X28328500Y-43813500D01*
X28348185Y-43746461D01*
X28400989Y-43700706D01*
X28452500Y-43689500D01*
X33205000Y-43689500D01*
X33205000Y-44119000D01*
G37*
%TD.AperFunction*%
%TD*%
M02*
