%TF.GenerationSoftware,KiCad,Pcbnew,7.0.5-4d25ed1034~172~ubuntu22.04.1*%
%TF.CreationDate,2023-06-01T08:36:11-04:00*%
%TF.ProjectId,trigger-board,74726967-6765-4722-9d62-6f6172642e6b,rev?*%
%TF.SameCoordinates,Original*%
%TF.FileFunction,Paste,Top*%
%TF.FilePolarity,Positive*%
%FSLAX46Y46*%
G04 Gerber Fmt 4.6, Leading zero omitted, Abs format (unit mm)*
G04 Created by KiCad (PCBNEW 7.0.5-4d25ed1034~172~ubuntu22.04.1) date 2023-06-01 08:36:11*
%MOMM*%
%LPD*%
G01*
G04 APERTURE LIST*
G04 Aperture macros list*
%AMRoundRect*
0 Rectangle with rounded corners*
0 $1 Rounding radius*
0 $2 $3 $4 $5 $6 $7 $8 $9 X,Y pos of 4 corners*
0 Add a 4 corners polygon primitive as box body*
4,1,4,$2,$3,$4,$5,$6,$7,$8,$9,$2,$3,0*
0 Add four circle primitives for the rounded corners*
1,1,$1+$1,$2,$3*
1,1,$1+$1,$4,$5*
1,1,$1+$1,$6,$7*
1,1,$1+$1,$8,$9*
0 Add four rect primitives between the rounded corners*
20,1,$1+$1,$2,$3,$4,$5,0*
20,1,$1+$1,$4,$5,$6,$7,0*
20,1,$1+$1,$6,$7,$8,$9,0*
20,1,$1+$1,$8,$9,$2,$3,0*%
G04 Aperture macros list end*
%ADD10RoundRect,0.250000X0.450000X-0.350000X0.450000X0.350000X-0.450000X0.350000X-0.450000X-0.350000X0*%
%ADD11RoundRect,0.250000X-0.350000X-0.450000X0.350000X-0.450000X0.350000X0.450000X-0.350000X0.450000X0*%
%ADD12RoundRect,0.250000X0.350000X0.450000X-0.350000X0.450000X-0.350000X-0.450000X0.350000X-0.450000X0*%
%ADD13RoundRect,0.250000X-0.337500X-0.475000X0.337500X-0.475000X0.337500X0.475000X-0.337500X0.475000X0*%
%ADD14RoundRect,0.150000X0.587500X0.150000X-0.587500X0.150000X-0.587500X-0.150000X0.587500X-0.150000X0*%
%ADD15R,0.300000X0.850000*%
%ADD16R,0.400000X1.350000*%
%ADD17R,2.900000X1.900000*%
%ADD18RoundRect,0.250001X-1.074999X0.462499X-1.074999X-0.462499X1.074999X-0.462499X1.074999X0.462499X0*%
%ADD19RoundRect,0.250000X0.337500X0.475000X-0.337500X0.475000X-0.337500X-0.475000X0.337500X-0.475000X0*%
%ADD20RoundRect,0.237500X-0.287500X-0.237500X0.287500X-0.237500X0.287500X0.237500X-0.287500X0.237500X0*%
%ADD21RoundRect,0.150000X-0.587500X-0.150000X0.587500X-0.150000X0.587500X0.150000X-0.587500X0.150000X0*%
%ADD22RoundRect,0.250000X-0.475000X0.337500X-0.475000X-0.337500X0.475000X-0.337500X0.475000X0.337500X0*%
%ADD23R,1.560000X0.650000*%
%ADD24RoundRect,0.150000X-0.825000X-0.150000X0.825000X-0.150000X0.825000X0.150000X-0.825000X0.150000X0*%
G04 APERTURE END LIST*
D10*
%TO.C,R25*%
X30393000Y-56378800D03*
X30393000Y-54378800D03*
%TD*%
D11*
%TO.C,R21*%
X139435000Y-75565000D03*
X141435000Y-75565000D03*
%TD*%
D12*
%TO.C,R1*%
X59652500Y-78740000D03*
X57652500Y-78740000D03*
%TD*%
%TO.C,R8*%
X83745000Y-78740000D03*
X81745000Y-78740000D03*
%TD*%
D11*
%TO.C,R15*%
X111665000Y-75565000D03*
X113665000Y-75565000D03*
%TD*%
D13*
%TO.C,C1*%
X65870000Y-78740000D03*
X67945000Y-78740000D03*
%TD*%
D14*
%TO.C,Q2*%
X83620000Y-72705000D03*
X83620000Y-70805000D03*
X81745000Y-71755000D03*
%TD*%
%TO.C,Q3*%
X67612500Y-72705000D03*
X67612500Y-70805000D03*
X65737500Y-71755000D03*
%TD*%
D11*
%TO.C,R3*%
X57652500Y-67945000D03*
X59652500Y-67945000D03*
%TD*%
%TO.C,R6*%
X89905000Y-75565000D03*
X91905000Y-75565000D03*
%TD*%
%TO.C,R10*%
X89905000Y-67945000D03*
X91905000Y-67945000D03*
%TD*%
D15*
%TO.C,J5*%
X41180000Y-43869000D03*
X34180000Y-43869000D03*
D16*
X36380000Y-46544000D03*
X37030000Y-46544000D03*
X37680000Y-46544000D03*
X38330000Y-46544000D03*
X38980000Y-46544000D03*
D17*
X37680000Y-43869000D03*
%TD*%
D11*
%TO.C,R14*%
X104045000Y-64770000D03*
X106045000Y-64770000D03*
%TD*%
D14*
%TO.C,Q4*%
X91572500Y-72705000D03*
X91572500Y-70805000D03*
X89697500Y-71755000D03*
%TD*%
D12*
%TO.C,R24*%
X133910000Y-75565000D03*
X131910000Y-75565000D03*
%TD*%
D18*
%TO.C,FB1*%
X34838000Y-54108800D03*
X34838000Y-57083800D03*
%TD*%
D19*
%TO.C,C9*%
X82952500Y-121793000D03*
X80877500Y-121793000D03*
%TD*%
D14*
%TO.C,Q8*%
X141405000Y-72705000D03*
X141405000Y-70805000D03*
X139530000Y-71755000D03*
%TD*%
D12*
%TO.C,R16*%
X106045000Y-78740000D03*
X104045000Y-78740000D03*
%TD*%
D10*
%TO.C,R26*%
X40553000Y-57013800D03*
X40553000Y-55013800D03*
%TD*%
D14*
%TO.C,Q1*%
X59590000Y-72705000D03*
X59590000Y-70805000D03*
X57715000Y-71755000D03*
%TD*%
D12*
%TO.C,R9*%
X59652500Y-75565000D03*
X57652500Y-75565000D03*
%TD*%
D11*
%TO.C,R23*%
X139435000Y-67945000D03*
X141435000Y-67945000D03*
%TD*%
%TO.C,R4*%
X81745000Y-64770000D03*
X83745000Y-64770000D03*
%TD*%
%TO.C,R13*%
X104140000Y-67945000D03*
X106140000Y-67945000D03*
%TD*%
D20*
%TO.C,D2*%
X85739000Y-43434000D03*
X87489000Y-43434000D03*
%TD*%
%TO.C,D4*%
X136539000Y-43434000D03*
X138289000Y-43434000D03*
%TD*%
D12*
%TO.C,R22*%
X133815000Y-78740000D03*
X131815000Y-78740000D03*
%TD*%
D14*
%TO.C,Q5*%
X105712500Y-72705000D03*
X105712500Y-70805000D03*
X103837500Y-71755000D03*
%TD*%
D13*
%TO.C,C3*%
X111590000Y-78740000D03*
X113665000Y-78740000D03*
%TD*%
D12*
%TO.C,R18*%
X106045000Y-75565000D03*
X104045000Y-75565000D03*
%TD*%
%TO.C,R11*%
X59690000Y-64770000D03*
X57690000Y-64770000D03*
%TD*%
D11*
%TO.C,R28*%
X36592000Y-78232000D03*
X38592000Y-78232000D03*
%TD*%
%TO.C,R20*%
X132180000Y-64770000D03*
X134180000Y-64770000D03*
%TD*%
D21*
%TO.C,D7*%
X97439000Y-63439000D03*
X97439000Y-65339000D03*
X99314000Y-64389000D03*
%TD*%
D14*
%TO.C,Q7*%
X133815000Y-72705000D03*
X133815000Y-70805000D03*
X131940000Y-71755000D03*
%TD*%
D13*
%TO.C,C4*%
X139530000Y-78740000D03*
X141605000Y-78740000D03*
%TD*%
D22*
%TO.C,C6*%
X43093000Y-72988800D03*
X43093000Y-75063800D03*
%TD*%
D23*
%TO.C,U2*%
X35948000Y-73163800D03*
X35948000Y-74113800D03*
X35948000Y-75063800D03*
X38648000Y-75063800D03*
X38648000Y-73163800D03*
%TD*%
D11*
%TO.C,R17*%
X111665000Y-67945000D03*
X113665000Y-67945000D03*
%TD*%
D22*
%TO.C,C5*%
X31028000Y-73391300D03*
X31028000Y-75466300D03*
%TD*%
D20*
%TO.C,D3*%
X111125000Y-43440800D03*
X112875000Y-43440800D03*
%TD*%
D19*
%TO.C,C8*%
X82952500Y-125095000D03*
X80877500Y-125095000D03*
%TD*%
D24*
%TO.C,U1*%
X88308000Y-98177800D03*
X88308000Y-99447800D03*
X88308000Y-100717800D03*
X88308000Y-101987800D03*
X88308000Y-103257800D03*
X88308000Y-104527800D03*
X88308000Y-105797800D03*
X93258000Y-105797800D03*
X93258000Y-104527800D03*
X93258000Y-103257800D03*
X93258000Y-101987800D03*
X93258000Y-100717800D03*
X93258000Y-99447800D03*
X93258000Y-98177800D03*
%TD*%
D11*
%TO.C,R7*%
X65945000Y-67945000D03*
X67945000Y-67945000D03*
%TD*%
D14*
%TO.C,Q6*%
X113635000Y-72705000D03*
X113635000Y-70805000D03*
X111760000Y-71755000D03*
%TD*%
D21*
%TO.C,D9*%
X75214000Y-64074000D03*
X75214000Y-65974000D03*
X77089000Y-65024000D03*
%TD*%
%TO.C,D6*%
X49862500Y-63820000D03*
X49862500Y-65720000D03*
X51737500Y-64770000D03*
%TD*%
D12*
%TO.C,R12*%
X83650000Y-75565000D03*
X81650000Y-75565000D03*
%TD*%
D11*
%TO.C,R19*%
X132180000Y-67945000D03*
X134180000Y-67945000D03*
%TD*%
%TO.C,R5*%
X65907500Y-75565000D03*
X67907500Y-75565000D03*
%TD*%
D20*
%TO.C,D5*%
X28883000Y-43313800D03*
X30633000Y-43313800D03*
%TD*%
D19*
%TO.C,C7*%
X91800500Y-94738800D03*
X89725500Y-94738800D03*
%TD*%
D20*
%TO.C,D1*%
X60393000Y-43567800D03*
X62143000Y-43567800D03*
%TD*%
D13*
%TO.C,C2*%
X90000000Y-78740000D03*
X92075000Y-78740000D03*
%TD*%
D11*
%TO.C,R2*%
X81745000Y-67945000D03*
X83745000Y-67945000D03*
%TD*%
D21*
%TO.C,D8*%
X125125000Y-63820000D03*
X125125000Y-65720000D03*
X127000000Y-64770000D03*
%TD*%
D11*
%TO.C,R27*%
X41799000Y-78232000D03*
X43799000Y-78232000D03*
%TD*%
M02*
