%TF.GenerationSoftware,KiCad,Pcbnew,7.0.9-7.0.9~ubuntu22.04.1*%
%TF.CreationDate,2024-01-17T07:25:15-05:00*%
%TF.ProjectId,imu-board,696d752d-626f-4617-9264-2e6b69636164,rev?*%
%TF.SameCoordinates,Original*%
%TF.FileFunction,Copper,L4,Bot*%
%TF.FilePolarity,Positive*%
%FSLAX46Y46*%
G04 Gerber Fmt 4.6, Leading zero omitted, Abs format (unit mm)*
G04 Created by KiCad (PCBNEW 7.0.9-7.0.9~ubuntu22.04.1) date 2024-01-17 07:25:15*
%MOMM*%
%LPD*%
G01*
G04 APERTURE LIST*
%TA.AperFunction,ComponentPad*%
%ADD10R,1.000000X1.000000*%
%TD*%
%TA.AperFunction,ComponentPad*%
%ADD11O,1.000000X1.000000*%
%TD*%
%TA.AperFunction,ComponentPad*%
%ADD12R,0.850000X0.850000*%
%TD*%
%TA.AperFunction,ComponentPad*%
%ADD13O,0.850000X0.850000*%
%TD*%
%TA.AperFunction,ViaPad*%
%ADD14C,0.508000*%
%TD*%
%TA.AperFunction,Conductor*%
%ADD15C,0.152400*%
%TD*%
G04 APERTURE END LIST*
D10*
%TO.P,J1,1,Pin_1*%
%TO.N,VCC*%
X51200000Y-58090000D03*
D11*
%TO.P,J1,2,Pin_2*%
%TO.N,/TXD*%
X51200000Y-59360000D03*
%TO.P,J1,3,Pin_3*%
%TO.N,/RXD*%
X51200000Y-60630000D03*
%TO.P,J1,4,Pin_4*%
%TO.N,GND*%
X51200000Y-61900000D03*
%TD*%
D12*
%TO.P,J3,1,MISO*%
%TO.N,/MISO*%
X51200000Y-56200000D03*
D13*
%TO.P,J3,2,VCC*%
%TO.N,VCC*%
X52200000Y-56200000D03*
%TO.P,J3,3,SCK*%
%TO.N,/SCK*%
X53200000Y-56200000D03*
%TO.P,J3,4,MOSI*%
%TO.N,/MOSI*%
X54200000Y-56200000D03*
%TO.P,J3,5,~{RST}*%
%TO.N,/nRESET*%
X55200000Y-56200000D03*
%TO.P,J3,6,GND*%
%TO.N,GND*%
X56200000Y-56200000D03*
%TD*%
D14*
%TO.N,VCC*%
X54400000Y-62500000D03*
X57800000Y-61500000D03*
X55600000Y-57300000D03*
X61546000Y-60400000D03*
X61400000Y-57700000D03*
X59800000Y-58600000D03*
%TO.N,GND*%
X60600000Y-58800000D03*
X59300000Y-55600000D03*
X55100000Y-58500000D03*
X57800000Y-62200000D03*
X55100000Y-61000000D03*
X60900000Y-62400000D03*
X60000000Y-59500000D03*
%TO.N,/nRESET*%
X58893598Y-57600000D03*
%TO.N,/TXD*%
X57500000Y-57900000D03*
%TO.N,/RXD*%
X58175272Y-57842024D03*
%TO.N,/SCK*%
X53300000Y-62500000D03*
%TD*%
D15*
%TO.N,/nRESET*%
X55853600Y-55546400D02*
X55200000Y-56200000D01*
X56839998Y-55546400D02*
X55853600Y-55546400D01*
X58893598Y-57600000D02*
X56839998Y-55546400D01*
%TO.N,/TXD*%
X57500000Y-57900000D02*
X56040000Y-59360000D01*
X56040000Y-59360000D02*
X51200000Y-59360000D01*
%TO.N,/RXD*%
X56000000Y-60100000D02*
X58175272Y-57924728D01*
X51200000Y-60630000D02*
X51730000Y-60100000D01*
X58175272Y-57924728D02*
X58175272Y-57842024D01*
X51730000Y-60100000D02*
X56000000Y-60100000D01*
%TO.N,/SCK*%
X50898203Y-62628600D02*
X50400000Y-62130397D01*
X50400000Y-57432800D02*
X50932800Y-56900000D01*
X52500000Y-56900000D02*
X53200000Y-56200000D01*
X52500000Y-61800000D02*
X52600000Y-61800000D01*
X50932800Y-56900000D02*
X52500000Y-56900000D01*
X52500000Y-61800000D02*
X51671400Y-62628600D01*
X51671400Y-62628600D02*
X50898203Y-62628600D01*
X50400000Y-62130397D02*
X50400000Y-57432800D01*
X52600000Y-61800000D02*
X53300000Y-62500000D01*
%TD*%
M02*
