%TF.GenerationSoftware,KiCad,Pcbnew,7.0.9-7.0.9~ubuntu22.04.1*%
%TF.CreationDate,2024-01-17T07:25:15-05:00*%
%TF.ProjectId,imu-board,696d752d-626f-4617-9264-2e6b69636164,rev?*%
%TF.SameCoordinates,Original*%
%TF.FileFunction,Paste,Top*%
%TF.FilePolarity,Positive*%
%FSLAX46Y46*%
G04 Gerber Fmt 4.6, Leading zero omitted, Abs format (unit mm)*
G04 Created by KiCad (PCBNEW 7.0.9-7.0.9~ubuntu22.04.1) date 2024-01-17 07:25:15*
%MOMM*%
%LPD*%
G01*
G04 APERTURE LIST*
G04 Aperture macros list*
%AMRoundRect*
0 Rectangle with rounded corners*
0 $1 Rounding radius*
0 $2 $3 $4 $5 $6 $7 $8 $9 X,Y pos of 4 corners*
0 Add a 4 corners polygon primitive as box body*
4,1,4,$2,$3,$4,$5,$6,$7,$8,$9,$2,$3,0*
0 Add four circle primitives for the rounded corners*
1,1,$1+$1,$2,$3*
1,1,$1+$1,$4,$5*
1,1,$1+$1,$6,$7*
1,1,$1+$1,$8,$9*
0 Add four rect primitives between the rounded corners*
20,1,$1+$1,$2,$3,$4,$5,0*
20,1,$1+$1,$4,$5,$6,$7,0*
20,1,$1+$1,$6,$7,$8,$9,0*
20,1,$1+$1,$8,$9,$2,$3,0*%
%AMFreePoly0*
4,1,14,0.318306,0.106694,0.381694,0.043306,0.400000,-0.000888,0.400000,-0.062500,0.381694,-0.106694,0.337500,-0.125000,-0.337500,-0.125000,-0.381694,-0.106694,-0.400000,-0.062500,-0.400000,0.062500,-0.381694,0.106694,-0.337500,0.125000,0.274112,0.125000,0.318306,0.106694,0.318306,0.106694,$1*%
%AMFreePoly1*
4,1,14,0.381694,0.106694,0.400000,0.062500,0.400000,0.000888,0.381694,-0.043306,0.318306,-0.106694,0.274112,-0.125000,-0.337500,-0.125000,-0.381694,-0.106694,-0.400000,-0.062500,-0.400000,0.062500,-0.381694,0.106694,-0.337500,0.125000,0.337500,0.125000,0.381694,0.106694,0.381694,0.106694,$1*%
%AMFreePoly2*
4,1,14,0.106694,0.381694,0.125000,0.337500,0.125000,-0.337500,0.106694,-0.381694,0.062500,-0.400000,-0.062500,-0.400000,-0.106694,-0.381694,-0.125000,-0.337500,-0.125000,0.274112,-0.106694,0.318306,-0.043306,0.381694,0.000888,0.400000,0.062500,0.400000,0.106694,0.381694,0.106694,0.381694,$1*%
%AMFreePoly3*
4,1,14,0.043306,0.381694,0.106694,0.318306,0.125000,0.274112,0.125000,-0.337500,0.106694,-0.381694,0.062500,-0.400000,-0.062500,-0.400000,-0.106694,-0.381694,-0.125000,-0.337500,-0.125000,0.337500,-0.106694,0.381694,-0.062500,0.400000,-0.000888,0.400000,0.043306,0.381694,0.043306,0.381694,$1*%
%AMFreePoly4*
4,1,14,0.381694,0.106694,0.400000,0.062500,0.400000,-0.062500,0.381694,-0.106694,0.337500,-0.125000,-0.274112,-0.125000,-0.318306,-0.106694,-0.381694,-0.043306,-0.400000,0.000888,-0.400000,0.062500,-0.381694,0.106694,-0.337500,0.125000,0.337500,0.125000,0.381694,0.106694,0.381694,0.106694,$1*%
%AMFreePoly5*
4,1,14,0.381694,0.106694,0.400000,0.062500,0.400000,-0.062500,0.381694,-0.106694,0.337500,-0.125000,-0.337500,-0.125000,-0.381694,-0.106694,-0.400000,-0.062500,-0.400000,-0.000888,-0.381694,0.043306,-0.318306,0.106694,-0.274112,0.125000,0.337500,0.125000,0.381694,0.106694,0.381694,0.106694,$1*%
%AMFreePoly6*
4,1,14,0.106694,0.381694,0.125000,0.337500,0.125000,-0.274112,0.106694,-0.318306,0.043306,-0.381694,-0.000888,-0.400000,-0.062500,-0.400000,-0.106694,-0.381694,-0.125000,-0.337500,-0.125000,0.337500,-0.106694,0.381694,-0.062500,0.400000,0.062500,0.400000,0.106694,0.381694,0.106694,0.381694,$1*%
%AMFreePoly7*
4,1,14,0.106694,0.381694,0.125000,0.337500,0.125000,-0.337500,0.106694,-0.381694,0.062500,-0.400000,0.000888,-0.400000,-0.043306,-0.381694,-0.106694,-0.318306,-0.125000,-0.274112,-0.125000,0.337500,-0.106694,0.381694,-0.062500,0.400000,0.062500,0.400000,0.106694,0.381694,0.106694,0.381694,$1*%
G04 Aperture macros list end*
%ADD10RoundRect,0.140000X-0.170000X0.140000X-0.170000X-0.140000X0.170000X-0.140000X0.170000X0.140000X0*%
%ADD11RoundRect,0.242500X-0.242500X0.242500X-0.242500X-0.242500X0.242500X-0.242500X0.242500X0.242500X0*%
%ADD12FreePoly0,270.000000*%
%ADD13RoundRect,0.062500X-0.062500X0.337500X-0.062500X-0.337500X0.062500X-0.337500X0.062500X0.337500X0*%
%ADD14FreePoly1,270.000000*%
%ADD15FreePoly2,270.000000*%
%ADD16RoundRect,0.062500X-0.337500X0.062500X-0.337500X-0.062500X0.337500X-0.062500X0.337500X0.062500X0*%
%ADD17FreePoly3,270.000000*%
%ADD18FreePoly4,270.000000*%
%ADD19FreePoly5,270.000000*%
%ADD20FreePoly6,270.000000*%
%ADD21FreePoly7,270.000000*%
%ADD22RoundRect,0.147500X0.172500X-0.147500X0.172500X0.147500X-0.172500X0.147500X-0.172500X-0.147500X0*%
%ADD23R,0.300000X0.480000*%
%ADD24R,0.480000X0.300000*%
%ADD25RoundRect,0.135000X-0.185000X0.135000X-0.185000X-0.135000X0.185000X-0.135000X0.185000X0.135000X0*%
%ADD26RoundRect,0.135000X0.185000X-0.135000X0.185000X0.135000X-0.185000X0.135000X-0.185000X-0.135000X0*%
G04 APERTURE END LIST*
D10*
%TO.C,C2*%
X58400000Y-61220000D03*
X58400000Y-62180000D03*
%TD*%
D11*
%TO.C,U3*%
X55750000Y-59100000D03*
X54550000Y-59100000D03*
X55750000Y-60300000D03*
X54550000Y-60300000D03*
D12*
X56500000Y-57750000D03*
D13*
X56050000Y-57750000D03*
X55600000Y-57750000D03*
X55150000Y-57750000D03*
X54700000Y-57750000D03*
X54250000Y-57750000D03*
D14*
X53800000Y-57750000D03*
D15*
X53200000Y-58350000D03*
D16*
X53200000Y-58800000D03*
X53200000Y-59250000D03*
X53200000Y-59700000D03*
X53200000Y-60150000D03*
X53200000Y-60600000D03*
D17*
X53200000Y-61050000D03*
D18*
X53800000Y-61650000D03*
D13*
X54250000Y-61650000D03*
X54700000Y-61650000D03*
X55150000Y-61650000D03*
X55600000Y-61650000D03*
X56050000Y-61650000D03*
D19*
X56500000Y-61650000D03*
D20*
X57100000Y-61050000D03*
D16*
X57100000Y-60600000D03*
X57100000Y-60150000D03*
X57100000Y-59700000D03*
X57100000Y-59250000D03*
X57100000Y-58800000D03*
D21*
X57100000Y-58350000D03*
%TD*%
D22*
%TO.C,D1*%
X60400000Y-62185000D03*
X60400000Y-61215000D03*
%TD*%
D23*
%TO.C,U2*%
X59450000Y-60162500D03*
X59950000Y-60162500D03*
X60450000Y-60162500D03*
X60950000Y-60162500D03*
D24*
X61200000Y-59500000D03*
X61200000Y-59000000D03*
X61200000Y-58500000D03*
D23*
X60950000Y-57837500D03*
X60450000Y-57837500D03*
X59950000Y-57837500D03*
X59450000Y-57837500D03*
D24*
X59200000Y-58500000D03*
X59200000Y-59000000D03*
X59200000Y-59500000D03*
%TD*%
D25*
%TO.C,R1*%
X59400000Y-61190000D03*
X59400000Y-62210000D03*
%TD*%
D26*
%TO.C,JP1*%
X58700000Y-56610000D03*
X58700000Y-55590000D03*
%TD*%
%TO.C,JP2*%
X59900000Y-56610000D03*
X59900000Y-55590000D03*
%TD*%
D10*
%TO.C,C1*%
X61400000Y-61220000D03*
X61400000Y-62180000D03*
%TD*%
M02*
