M48
; DRILL file {KiCad 7.0.9-7.0.9~ubuntu22.04.1} date Wed 17 Jan 2024 07:25:18 AM EST
; FORMAT={-:-/ absolute / inch / decimal}
; #@! TF.CreationDate,2024-01-17T07:25:18-05:00
; #@! TF.GenerationSoftware,Kicad,Pcbnew,7.0.9-7.0.9~ubuntu22.04.1
; #@! TF.FileFunction,Plated,1,4,PTH
FMAT,2
INCH
; #@! TA.AperFunction,Plated,PTH,ViaDrill
T1C0.0080
; #@! TA.AperFunction,Plated,PTH,ComponentDrill
T2C0.0197
; #@! TA.AperFunction,Plated,PTH,ComponentDrill
T3C0.0256
%
G90
G05
T1
X2.0984Y-2.4606
X2.1417Y-2.4606
X2.1693Y-2.3031
X2.1693Y-2.4016
X2.189Y-2.2559
X2.2638Y-2.2795
X2.2756Y-2.4213
X2.2756Y-2.4488
X2.2904Y-2.2772
X2.3186Y-2.2677
X2.3346Y-2.189
X2.3543Y-2.3071
X2.3622Y-2.3425
X2.3858Y-2.315
X2.3976Y-2.4567
X2.4173Y-2.2717
X2.4231Y-2.378
T2
X2.0157Y-2.2126
X2.0551Y-2.2126
X2.0945Y-2.2126
X2.1339Y-2.2126
X2.1732Y-2.2126
X2.2126Y-2.2126
T3
X2.0157Y-2.287
X2.0157Y-2.337
X2.0157Y-2.387
X2.0157Y-2.437
T0
M30
