%TF.GenerationSoftware,KiCad,Pcbnew,7.0.8-7.0.8~ubuntu22.04.1*%
%TF.CreationDate,2023-10-23T12:44:05-04:00*%
%TF.ProjectId,test2,74657374-322e-46b6-9963-61645f706362,rev?*%
%TF.SameCoordinates,Original*%
%TF.FileFunction,Legend,Bot*%
%TF.FilePolarity,Positive*%
%FSLAX46Y46*%
G04 Gerber Fmt 4.6, Leading zero omitted, Abs format (unit mm)*
G04 Created by KiCad (PCBNEW 7.0.8-7.0.8~ubuntu22.04.1) date 2023-10-23 12:44:05*
%MOMM*%
%LPD*%
G01*
G04 APERTURE LIST*
%ADD10C,0.150000*%
%ADD11C,0.120000*%
G04 APERTURE END LIST*
D10*
X28559580Y-23133333D02*
X28607200Y-23085714D01*
X28607200Y-23085714D02*
X28654819Y-22942857D01*
X28654819Y-22942857D02*
X28654819Y-22847619D01*
X28654819Y-22847619D02*
X28607200Y-22704762D01*
X28607200Y-22704762D02*
X28511961Y-22609524D01*
X28511961Y-22609524D02*
X28416723Y-22561905D01*
X28416723Y-22561905D02*
X28226247Y-22514286D01*
X28226247Y-22514286D02*
X28083390Y-22514286D01*
X28083390Y-22514286D02*
X27892914Y-22561905D01*
X27892914Y-22561905D02*
X27797676Y-22609524D01*
X27797676Y-22609524D02*
X27702438Y-22704762D01*
X27702438Y-22704762D02*
X27654819Y-22847619D01*
X27654819Y-22847619D02*
X27654819Y-22942857D01*
X27654819Y-22942857D02*
X27702438Y-23085714D01*
X27702438Y-23085714D02*
X27750057Y-23133333D01*
X27750057Y-23514286D02*
X27702438Y-23561905D01*
X27702438Y-23561905D02*
X27654819Y-23657143D01*
X27654819Y-23657143D02*
X27654819Y-23895238D01*
X27654819Y-23895238D02*
X27702438Y-23990476D01*
X27702438Y-23990476D02*
X27750057Y-24038095D01*
X27750057Y-24038095D02*
X27845295Y-24085714D01*
X27845295Y-24085714D02*
X27940533Y-24085714D01*
X27940533Y-24085714D02*
X28083390Y-24038095D01*
X28083390Y-24038095D02*
X28654819Y-23466667D01*
X28654819Y-23466667D02*
X28654819Y-24085714D01*
X28659580Y-26333333D02*
X28707200Y-26285714D01*
X28707200Y-26285714D02*
X28754819Y-26142857D01*
X28754819Y-26142857D02*
X28754819Y-26047619D01*
X28754819Y-26047619D02*
X28707200Y-25904762D01*
X28707200Y-25904762D02*
X28611961Y-25809524D01*
X28611961Y-25809524D02*
X28516723Y-25761905D01*
X28516723Y-25761905D02*
X28326247Y-25714286D01*
X28326247Y-25714286D02*
X28183390Y-25714286D01*
X28183390Y-25714286D02*
X27992914Y-25761905D01*
X27992914Y-25761905D02*
X27897676Y-25809524D01*
X27897676Y-25809524D02*
X27802438Y-25904762D01*
X27802438Y-25904762D02*
X27754819Y-26047619D01*
X27754819Y-26047619D02*
X27754819Y-26142857D01*
X27754819Y-26142857D02*
X27802438Y-26285714D01*
X27802438Y-26285714D02*
X27850057Y-26333333D01*
X28754819Y-27285714D02*
X28754819Y-26714286D01*
X28754819Y-27000000D02*
X27754819Y-27000000D01*
X27754819Y-27000000D02*
X27897676Y-26904762D01*
X27897676Y-26904762D02*
X27992914Y-26809524D01*
X27992914Y-26809524D02*
X28040533Y-26714286D01*
X22154819Y-26533333D02*
X21678628Y-26200000D01*
X22154819Y-25961905D02*
X21154819Y-25961905D01*
X21154819Y-25961905D02*
X21154819Y-26342857D01*
X21154819Y-26342857D02*
X21202438Y-26438095D01*
X21202438Y-26438095D02*
X21250057Y-26485714D01*
X21250057Y-26485714D02*
X21345295Y-26533333D01*
X21345295Y-26533333D02*
X21488152Y-26533333D01*
X21488152Y-26533333D02*
X21583390Y-26485714D01*
X21583390Y-26485714D02*
X21631009Y-26438095D01*
X21631009Y-26438095D02*
X21678628Y-26342857D01*
X21678628Y-26342857D02*
X21678628Y-25961905D01*
X22154819Y-27485714D02*
X22154819Y-26914286D01*
X22154819Y-27200000D02*
X21154819Y-27200000D01*
X21154819Y-27200000D02*
X21297676Y-27104762D01*
X21297676Y-27104762D02*
X21392914Y-27009524D01*
X21392914Y-27009524D02*
X21440533Y-26914286D01*
D11*
%TO.C,C2*%
X26490000Y-23090580D02*
X26490000Y-22809420D01*
X27510000Y-23090580D02*
X27510000Y-22809420D01*
%TO.C,C1*%
X26490000Y-27190580D02*
X26490000Y-26909420D01*
X27510000Y-27190580D02*
X27510000Y-26909420D01*
%TO.C,R1*%
X23622500Y-26912742D02*
X23622500Y-27387258D01*
X22577500Y-26912742D02*
X22577500Y-27387258D01*
%TD*%
M02*
