G75*
%MOIN*%
%OFA0B0*%
%FSLAX25Y25*%
%IPPOS*%
%LPD*%
%AMOC8*
5,1,8,0,0,1.08239X$1,22.5*
%
%ADD10C,0.00800*%
%ADD11C,0.00500*%
%ADD12C,0.05100*%
%ADD13C,0.00600*%
%ADD14C,0.01600*%
%ADD15C,0.01575*%
D10*
X0165700Y0051050D02*
X0167300Y0051050D01*
X0176200Y0056050D02*
X0177800Y0056050D01*
X0180200Y0056050D02*
X0181800Y0056050D01*
X0184200Y0056050D02*
X0185800Y0056050D01*
X0197700Y0055050D02*
X0199300Y0055050D01*
X0194500Y0065750D02*
X0194500Y0067350D01*
X0194500Y0070250D02*
X0194500Y0071850D01*
X0185300Y0077550D02*
X0183700Y0077550D01*
X0181300Y0077550D02*
X0179700Y0077550D01*
X0172500Y0071850D02*
X0172500Y0070250D01*
X0171700Y0043050D02*
X0173300Y0043050D01*
X0193700Y0041050D02*
X0195300Y0041050D01*
X0232900Y0042141D02*
X0233517Y0041524D01*
X0235986Y0043993D01*
X0233517Y0043993D01*
X0232900Y0043376D01*
X0232900Y0042141D01*
X0233517Y0041524D02*
X0235986Y0041524D01*
X0236603Y0042141D01*
X0236603Y0043376D01*
X0235986Y0043993D01*
X0235369Y0045668D02*
X0236603Y0046902D01*
X0232900Y0046902D01*
X0232900Y0045668D02*
X0232900Y0048136D01*
X0232900Y0049811D02*
X0236603Y0052280D01*
X0235986Y0053955D02*
X0236603Y0054572D01*
X0236603Y0055806D01*
X0235986Y0056424D01*
X0235369Y0056424D01*
X0232900Y0053955D01*
X0232900Y0056424D01*
X0233517Y0058098D02*
X0235986Y0060567D01*
X0233517Y0060567D01*
X0232900Y0059950D01*
X0232900Y0058716D01*
X0233517Y0058098D01*
X0235986Y0058098D01*
X0236603Y0058716D01*
X0236603Y0059950D01*
X0235986Y0060567D01*
X0235986Y0062242D02*
X0236603Y0062859D01*
X0236603Y0064093D01*
X0235986Y0064711D01*
X0235369Y0064711D01*
X0232900Y0062242D01*
X0232900Y0064711D01*
X0234752Y0066385D02*
X0234752Y0068854D01*
X0236603Y0068237D02*
X0232900Y0068237D01*
X0234752Y0066385D02*
X0236603Y0068237D01*
X0239650Y0069074D02*
X0240267Y0068457D01*
X0241502Y0068457D01*
X0242119Y0069074D01*
X0242119Y0070309D01*
X0241502Y0070926D01*
X0240884Y0070926D01*
X0240884Y0068457D01*
X0239650Y0069074D02*
X0239650Y0070309D01*
X0239650Y0066782D02*
X0239650Y0064931D01*
X0240267Y0064314D01*
X0241502Y0064314D01*
X0242119Y0064931D01*
X0242119Y0066782D01*
X0241502Y0062639D02*
X0239650Y0062639D01*
X0239650Y0060787D01*
X0240267Y0060170D01*
X0240884Y0060787D01*
X0240884Y0062639D01*
X0241502Y0062639D02*
X0242119Y0062022D01*
X0242119Y0060787D01*
X0241502Y0058642D02*
X0241502Y0057408D01*
X0242736Y0058025D02*
X0239650Y0058025D01*
X0242736Y0058025D02*
X0243353Y0058642D01*
X0242119Y0055806D02*
X0242119Y0055189D01*
X0240884Y0053955D01*
X0239650Y0053955D02*
X0242119Y0053955D01*
X0241502Y0052280D02*
X0240884Y0052280D01*
X0240884Y0049811D01*
X0240267Y0049811D02*
X0241502Y0049811D01*
X0242119Y0050428D01*
X0242119Y0051663D01*
X0241502Y0052280D01*
X0239650Y0051663D02*
X0239650Y0050428D01*
X0240267Y0049811D01*
X0239650Y0048283D02*
X0240267Y0047666D01*
X0242736Y0047666D01*
X0242119Y0047049D02*
X0242119Y0048283D01*
X0241502Y0045374D02*
X0239650Y0045374D01*
X0241502Y0045374D02*
X0242119Y0044757D01*
X0242119Y0042905D01*
X0239650Y0042905D01*
X0239650Y0041377D02*
X0239650Y0040143D01*
X0239650Y0040760D02*
X0243353Y0040760D01*
X0243353Y0040143D02*
X0243353Y0041377D01*
X0246400Y0041231D02*
X0246400Y0039379D01*
X0247017Y0038762D01*
X0247634Y0039379D01*
X0247634Y0041231D01*
X0248252Y0041231D02*
X0246400Y0041231D01*
X0246400Y0042905D02*
X0250103Y0042905D01*
X0246400Y0045374D01*
X0250103Y0045374D01*
X0250103Y0047049D02*
X0250103Y0048283D01*
X0250103Y0047666D02*
X0246400Y0047666D01*
X0246400Y0047049D02*
X0246400Y0048283D01*
X0246400Y0049811D02*
X0250103Y0049811D01*
X0250103Y0051663D01*
X0249486Y0052280D01*
X0248252Y0052280D01*
X0247634Y0051663D01*
X0247634Y0049811D01*
X0247634Y0051046D02*
X0246400Y0052280D01*
X0247017Y0053955D02*
X0246400Y0054572D01*
X0246400Y0055806D01*
X0247017Y0056424D01*
X0247634Y0056424D01*
X0248252Y0055806D01*
X0248252Y0054572D01*
X0248869Y0053955D01*
X0249486Y0053955D01*
X0250103Y0054572D01*
X0250103Y0055806D01*
X0249486Y0056424D01*
X0249486Y0062242D02*
X0250103Y0062859D01*
X0250103Y0064093D01*
X0249486Y0064711D01*
X0248869Y0064711D01*
X0246400Y0062242D01*
X0246400Y0064711D01*
X0247017Y0066385D02*
X0249486Y0068854D01*
X0247017Y0068854D01*
X0246400Y0068237D01*
X0246400Y0067003D01*
X0247017Y0066385D01*
X0249486Y0066385D01*
X0250103Y0067003D01*
X0250103Y0068237D01*
X0249486Y0068854D01*
X0249486Y0070529D02*
X0250103Y0071146D01*
X0250103Y0072380D01*
X0249486Y0072998D01*
X0248869Y0072998D01*
X0246400Y0070529D01*
X0246400Y0072998D01*
X0248252Y0074672D02*
X0248252Y0077141D01*
X0250103Y0076524D02*
X0246400Y0076524D01*
X0248252Y0074672D02*
X0250103Y0076524D01*
X0218331Y0102656D02*
X0218331Y0105806D01*
X0217150Y0105806D01*
X0210850Y0105806D02*
X0209669Y0105806D01*
X0209669Y0102656D01*
X0206331Y0102656D02*
X0206331Y0105806D01*
X0205150Y0105806D01*
X0198850Y0105806D02*
X0197669Y0105806D01*
X0197669Y0102656D01*
X0194800Y0116550D02*
X0193200Y0116550D01*
X0215200Y0116550D02*
X0216800Y0116550D01*
X0145300Y0116050D02*
X0143700Y0116050D01*
X0132300Y0116050D02*
X0130700Y0116050D01*
X0248252Y0041231D02*
X0248869Y0040613D01*
X0248869Y0039379D01*
X0248869Y0037234D02*
X0245783Y0037234D01*
X0245166Y0036617D01*
X0245166Y0035999D01*
X0246400Y0034325D02*
X0248252Y0034325D01*
X0248869Y0033707D01*
X0248869Y0031856D01*
X0246400Y0031856D01*
X0246400Y0030328D02*
X0246400Y0029094D01*
X0246400Y0029711D02*
X0248869Y0029711D01*
X0248869Y0029094D01*
X0250103Y0029711D02*
X0250720Y0029711D01*
X0250103Y0027419D02*
X0246400Y0027419D01*
X0250103Y0024950D01*
X0246400Y0024950D01*
X0243353Y0024950D02*
X0243353Y0026184D01*
X0243353Y0025567D02*
X0239650Y0025567D01*
X0239650Y0024950D02*
X0239650Y0026184D01*
X0239650Y0027712D02*
X0243353Y0027712D01*
X0242119Y0028947D01*
X0243353Y0030181D01*
X0239650Y0030181D01*
X0240267Y0031856D02*
X0239650Y0032473D01*
X0239650Y0033707D01*
X0240267Y0034325D01*
X0243353Y0034325D01*
X0243353Y0031856D02*
X0240267Y0031856D01*
X0236603Y0030945D02*
X0235986Y0031562D01*
X0233517Y0029094D01*
X0232900Y0029711D01*
X0232900Y0030945D01*
X0233517Y0031562D01*
X0235986Y0031562D01*
X0236603Y0030945D02*
X0236603Y0029711D01*
X0235986Y0029094D01*
X0233517Y0029094D01*
X0235369Y0027419D02*
X0232900Y0026184D01*
X0235369Y0024950D01*
X0235986Y0033237D02*
X0233517Y0033237D01*
X0235986Y0035706D01*
X0233517Y0035706D01*
X0232900Y0035089D01*
X0232900Y0033854D01*
X0233517Y0033237D01*
X0235986Y0033237D02*
X0236603Y0033854D01*
X0236603Y0035089D01*
X0235986Y0035706D01*
X0250103Y0037234D02*
X0250720Y0037234D01*
D11*
X0006250Y0019301D02*
X0006250Y0018300D01*
X0008252Y0018300D01*
X0008252Y0019301D01*
X0007918Y0019634D01*
X0007584Y0019634D01*
X0007251Y0019301D01*
X0007251Y0018300D01*
X0007251Y0019301D02*
X0006917Y0019634D01*
X0006584Y0019634D01*
X0006250Y0019301D01*
X0006250Y0020602D02*
X0006250Y0021936D01*
X0006250Y0022904D02*
X0006250Y0023571D01*
X0006250Y0023238D02*
X0008252Y0023238D01*
X0008252Y0023571D02*
X0008252Y0022904D01*
X0008252Y0021936D02*
X0007918Y0021936D01*
X0006584Y0020602D01*
X0006250Y0020602D01*
X0008252Y0020602D02*
X0008252Y0021936D01*
X0008252Y0024439D02*
X0007584Y0025106D01*
X0008252Y0025773D01*
X0006250Y0025773D01*
X0006584Y0026741D02*
X0007918Y0026741D01*
X0008252Y0027074D01*
X0008252Y0027741D01*
X0007918Y0028075D01*
X0007251Y0028075D01*
X0006917Y0027741D01*
X0007584Y0027741D01*
X0007584Y0027074D01*
X0006917Y0027074D01*
X0006917Y0027741D01*
X0006584Y0028075D02*
X0006250Y0027741D01*
X0006250Y0027074D01*
X0006584Y0026741D01*
X0006250Y0024439D02*
X0008252Y0024439D01*
X0008252Y0029042D02*
X0006250Y0029042D01*
X0006250Y0030043D01*
X0006584Y0030377D01*
X0006917Y0030377D01*
X0007251Y0030043D01*
X0007251Y0029042D01*
X0008252Y0029042D02*
X0008252Y0030043D01*
X0007918Y0030377D01*
X0007584Y0030377D01*
X0007251Y0030043D01*
X0006584Y0031344D02*
X0006250Y0031678D01*
X0006250Y0032345D01*
X0006584Y0032679D01*
X0008252Y0032679D01*
X0008252Y0031344D02*
X0006584Y0031344D01*
X0006584Y0033646D02*
X0006584Y0033980D01*
X0006250Y0033980D01*
X0006250Y0033646D01*
X0006584Y0033646D01*
X0006250Y0034797D02*
X0006250Y0036132D01*
X0006250Y0037099D02*
X0006250Y0038100D01*
X0006584Y0038434D01*
X0007918Y0038434D01*
X0008252Y0038100D01*
X0008252Y0037099D01*
X0006250Y0037099D01*
X0007251Y0035465D02*
X0007251Y0034797D01*
X0008252Y0034797D02*
X0006250Y0034797D01*
X0008252Y0034797D02*
X0008252Y0036132D01*
X0008252Y0039401D02*
X0006584Y0039401D01*
X0006250Y0039735D01*
X0006250Y0040402D01*
X0006584Y0040736D01*
X0008252Y0040736D01*
X0046750Y0041446D02*
X0046750Y0042447D01*
X0047084Y0042781D01*
X0048418Y0042781D01*
X0048752Y0042447D01*
X0048752Y0041446D01*
X0046750Y0041446D01*
X0047084Y0043748D02*
X0046750Y0044082D01*
X0046750Y0044749D01*
X0047084Y0045083D01*
X0047417Y0045083D01*
X0047751Y0044749D01*
X0047751Y0043748D01*
X0047084Y0043748D01*
X0047751Y0043748D02*
X0048418Y0044415D01*
X0048752Y0045083D01*
X0051094Y0046241D02*
X0051094Y0039859D01*
X0062906Y0039859D02*
X0062906Y0046241D01*
X0062906Y0058859D02*
X0062906Y0065241D01*
X0051094Y0065241D02*
X0051094Y0058859D01*
X0049252Y0060446D02*
X0049252Y0061447D01*
X0048918Y0061781D01*
X0047584Y0061781D01*
X0047250Y0061447D01*
X0047250Y0060446D01*
X0049252Y0060446D01*
X0049252Y0062748D02*
X0048251Y0062748D01*
X0048584Y0063415D01*
X0048584Y0063749D01*
X0048251Y0064083D01*
X0047584Y0064083D01*
X0047250Y0063749D01*
X0047250Y0063082D01*
X0047584Y0062748D01*
X0049252Y0062748D02*
X0049252Y0064083D01*
X0051094Y0077859D02*
X0051094Y0084241D01*
X0049252Y0082749D02*
X0049252Y0082082D01*
X0048918Y0081748D01*
X0048918Y0080781D02*
X0049252Y0080447D01*
X0049252Y0079446D01*
X0047250Y0079446D01*
X0047250Y0080447D01*
X0047584Y0080781D01*
X0048918Y0080781D01*
X0047250Y0081748D02*
X0047250Y0083083D01*
X0048584Y0083083D02*
X0047250Y0081748D01*
X0048584Y0083083D02*
X0048918Y0083083D01*
X0049252Y0082749D01*
X0062906Y0084241D02*
X0062906Y0077859D01*
X0062906Y0096859D02*
X0062906Y0103241D01*
X0051094Y0103241D02*
X0051094Y0096859D01*
X0049252Y0098446D02*
X0049252Y0099447D01*
X0048918Y0099781D01*
X0047584Y0099781D01*
X0047250Y0099447D01*
X0047250Y0098446D01*
X0049252Y0098446D01*
X0048584Y0100748D02*
X0049252Y0101415D01*
X0047250Y0101415D01*
X0047250Y0100748D02*
X0047250Y0102083D01*
X0134016Y0114649D02*
X0134349Y0114316D01*
X0135684Y0114316D01*
X0136017Y0114649D01*
X0136017Y0115317D01*
X0135684Y0115650D01*
X0135684Y0116618D02*
X0135350Y0116618D01*
X0135017Y0116951D01*
X0135017Y0117952D01*
X0135684Y0117952D02*
X0136017Y0117619D01*
X0136017Y0116951D01*
X0135684Y0116618D01*
X0135684Y0117952D02*
X0134349Y0117952D01*
X0134016Y0117619D01*
X0134016Y0116951D01*
X0134349Y0116618D01*
X0134349Y0115650D02*
X0134016Y0115317D01*
X0134016Y0114649D01*
X0140016Y0114649D02*
X0140016Y0115317D01*
X0140349Y0115650D01*
X0140349Y0116618D02*
X0140016Y0116951D01*
X0140016Y0117619D01*
X0140349Y0117952D01*
X0140683Y0117952D01*
X0141017Y0117619D01*
X0141017Y0116951D01*
X0141350Y0116618D01*
X0141684Y0116618D01*
X0142017Y0116951D01*
X0142017Y0117619D01*
X0141684Y0117952D01*
X0141350Y0117952D01*
X0141017Y0117619D01*
X0141017Y0116951D02*
X0140683Y0116618D01*
X0140349Y0116618D01*
X0141684Y0115650D02*
X0142017Y0115317D01*
X0142017Y0114649D01*
X0141684Y0114316D01*
X0140349Y0114316D01*
X0140016Y0114649D01*
X0189484Y0116014D02*
X0189818Y0115680D01*
X0191152Y0115680D01*
X0191486Y0116014D01*
X0191486Y0116681D01*
X0191152Y0117015D01*
X0190485Y0117982D02*
X0190485Y0119317D01*
X0189484Y0118983D02*
X0191486Y0118983D01*
X0190485Y0117982D01*
X0189818Y0117015D02*
X0189484Y0116681D01*
X0189484Y0116014D01*
X0199094Y0111826D02*
X0210906Y0111826D01*
X0218516Y0114149D02*
X0218516Y0114817D01*
X0218849Y0115150D01*
X0218849Y0116118D02*
X0218516Y0116451D01*
X0218516Y0117119D01*
X0218849Y0117452D01*
X0219183Y0117452D01*
X0219517Y0117119D01*
X0219517Y0116785D01*
X0219517Y0117119D02*
X0219850Y0117452D01*
X0220184Y0117452D01*
X0220517Y0117119D01*
X0220517Y0116451D01*
X0220184Y0116118D01*
X0220184Y0115150D02*
X0220517Y0114817D01*
X0220517Y0114149D01*
X0220184Y0113816D01*
X0218849Y0113816D01*
X0218516Y0114149D01*
X0210906Y0121274D02*
X0199094Y0121274D01*
X0206988Y0122611D02*
X0208322Y0122611D01*
X0206988Y0123945D01*
X0206988Y0124279D01*
X0207321Y0124613D01*
X0207988Y0124613D01*
X0208322Y0124279D01*
X0209290Y0124613D02*
X0209290Y0122945D01*
X0209623Y0122611D01*
X0210290Y0122611D01*
X0210624Y0122945D01*
X0210624Y0124613D01*
X0195717Y0106488D02*
X0194383Y0106488D01*
X0194049Y0106155D01*
X0194049Y0105488D01*
X0194383Y0105154D01*
X0195717Y0106488D01*
X0196051Y0106155D01*
X0196051Y0105488D01*
X0195717Y0105154D01*
X0194383Y0105154D01*
X0194049Y0104186D02*
X0194049Y0102852D01*
X0194049Y0103519D02*
X0196051Y0103519D01*
X0195384Y0102852D01*
X0195717Y0101884D02*
X0194383Y0101884D01*
X0194049Y0101551D01*
X0194049Y0100550D01*
X0196051Y0100550D01*
X0196051Y0101551D01*
X0195717Y0101884D01*
X0220049Y0101551D02*
X0220049Y0100550D01*
X0222051Y0100550D01*
X0222051Y0101551D01*
X0221717Y0101884D01*
X0220383Y0101884D01*
X0220049Y0101551D01*
X0220383Y0102852D02*
X0220049Y0103186D01*
X0220049Y0103853D01*
X0220383Y0104186D01*
X0221717Y0104186D01*
X0222051Y0103853D01*
X0222051Y0103186D01*
X0221717Y0102852D01*
X0221384Y0102852D01*
X0221050Y0103186D01*
X0221050Y0104186D01*
X0189017Y0079921D02*
X0188684Y0080254D01*
X0187349Y0078920D01*
X0187016Y0079253D01*
X0187016Y0079921D01*
X0187349Y0080254D01*
X0188684Y0080254D01*
X0189017Y0079921D02*
X0189017Y0079253D01*
X0188684Y0078920D01*
X0187349Y0078920D01*
X0187016Y0077952D02*
X0187016Y0076618D01*
X0188350Y0077952D01*
X0188684Y0077952D01*
X0189017Y0077619D01*
X0189017Y0076951D01*
X0188684Y0076618D01*
X0188684Y0075650D02*
X0189017Y0075317D01*
X0189017Y0074649D01*
X0188684Y0074316D01*
X0187349Y0074316D01*
X0187016Y0074649D01*
X0187016Y0075317D01*
X0187349Y0075650D01*
X0191796Y0075234D02*
X0191796Y0073899D01*
X0192129Y0073566D01*
X0192797Y0073566D01*
X0193130Y0073899D01*
X0192797Y0074567D02*
X0191796Y0074567D01*
X0191796Y0075234D02*
X0192129Y0075567D01*
X0192797Y0075567D01*
X0193130Y0075234D01*
X0193130Y0074900D01*
X0192797Y0074567D01*
X0194098Y0073566D02*
X0195432Y0073566D01*
X0194765Y0073566D02*
X0194765Y0075567D01*
X0195432Y0074900D01*
X0196400Y0075234D02*
X0196733Y0075567D01*
X0197401Y0075567D01*
X0197734Y0075234D01*
X0197734Y0073899D01*
X0197401Y0073566D01*
X0196733Y0073566D01*
X0196400Y0073899D01*
X0186017Y0066754D02*
X0185684Y0066754D01*
X0184349Y0065420D01*
X0184016Y0065420D01*
X0184016Y0064452D02*
X0184016Y0063118D01*
X0184016Y0063785D02*
X0186017Y0063785D01*
X0185350Y0063118D01*
X0185684Y0062150D02*
X0186017Y0061817D01*
X0186017Y0061149D01*
X0185684Y0060816D01*
X0184349Y0060816D01*
X0184016Y0061149D01*
X0184016Y0061817D01*
X0184349Y0062150D01*
X0182017Y0061817D02*
X0182017Y0061149D01*
X0181684Y0060816D01*
X0180349Y0060816D01*
X0180016Y0061149D01*
X0180016Y0061817D01*
X0180349Y0062150D01*
X0180016Y0063118D02*
X0180016Y0064452D01*
X0180016Y0063785D02*
X0182017Y0063785D01*
X0181350Y0063118D01*
X0181684Y0062150D02*
X0182017Y0061817D01*
X0178517Y0061817D02*
X0178517Y0061149D01*
X0178184Y0060816D01*
X0176849Y0060816D01*
X0176516Y0061149D01*
X0176516Y0061817D01*
X0176849Y0062150D01*
X0176516Y0063118D02*
X0176516Y0064452D01*
X0176516Y0063785D02*
X0178517Y0063785D01*
X0177850Y0063118D01*
X0178184Y0062150D02*
X0178517Y0061817D01*
X0178184Y0065420D02*
X0178517Y0065753D01*
X0178517Y0066421D01*
X0178184Y0066754D01*
X0177850Y0066754D01*
X0177517Y0066421D01*
X0177183Y0066754D01*
X0176849Y0066754D01*
X0176516Y0066421D01*
X0176516Y0065753D01*
X0176849Y0065420D01*
X0177517Y0066087D02*
X0177517Y0066421D01*
X0175234Y0066899D02*
X0175234Y0068234D01*
X0174901Y0068567D01*
X0174233Y0068567D01*
X0173900Y0068234D01*
X0172932Y0068234D02*
X0172599Y0068567D01*
X0171931Y0068567D01*
X0171598Y0068234D01*
X0171598Y0067900D01*
X0172932Y0066566D01*
X0171598Y0066566D01*
X0170630Y0066566D02*
X0169296Y0066566D01*
X0169963Y0066566D02*
X0169963Y0068567D01*
X0170630Y0067900D01*
X0173900Y0066899D02*
X0174233Y0066566D01*
X0174901Y0066566D01*
X0175234Y0066899D01*
X0180016Y0066421D02*
X0180016Y0065753D01*
X0180349Y0065420D01*
X0180683Y0065420D01*
X0181017Y0065753D01*
X0181017Y0066421D01*
X0180683Y0066754D01*
X0180349Y0066754D01*
X0180016Y0066421D01*
X0181017Y0066421D02*
X0181350Y0066754D01*
X0181684Y0066754D01*
X0182017Y0066421D01*
X0182017Y0065753D01*
X0181684Y0065420D01*
X0181350Y0065420D01*
X0181017Y0065753D01*
X0186017Y0065420D02*
X0186017Y0066754D01*
X0195114Y0064302D02*
X0196448Y0064302D01*
X0196448Y0063301D01*
X0195781Y0063634D01*
X0195447Y0063634D01*
X0195114Y0063301D01*
X0195114Y0062634D01*
X0195447Y0062300D01*
X0196114Y0062300D01*
X0196448Y0062634D01*
X0197416Y0062634D02*
X0197749Y0062300D01*
X0198416Y0062300D01*
X0198750Y0062634D01*
X0198750Y0063968D01*
X0198416Y0064302D01*
X0197749Y0064302D01*
X0197416Y0063968D01*
X0195652Y0057817D02*
X0195986Y0057483D01*
X0195986Y0056816D01*
X0195652Y0056482D01*
X0195652Y0055515D02*
X0195986Y0055181D01*
X0195986Y0054514D01*
X0195652Y0054180D01*
X0195652Y0053213D02*
X0195986Y0052879D01*
X0195986Y0052212D01*
X0195652Y0051878D01*
X0194318Y0051878D01*
X0193984Y0052212D01*
X0193984Y0052879D01*
X0194318Y0053213D01*
X0193984Y0054180D02*
X0195319Y0055515D01*
X0195652Y0055515D01*
X0193984Y0055515D02*
X0193984Y0054180D01*
X0193984Y0056482D02*
X0195319Y0057817D01*
X0195652Y0057817D01*
X0193984Y0057817D02*
X0193984Y0056482D01*
X0177017Y0045421D02*
X0176017Y0044420D01*
X0176017Y0045754D01*
X0177017Y0045421D02*
X0175016Y0045421D01*
X0175016Y0043452D02*
X0175016Y0042118D01*
X0175016Y0042785D02*
X0177017Y0042785D01*
X0176350Y0042118D01*
X0176684Y0041150D02*
X0177017Y0040817D01*
X0177017Y0040149D01*
X0176684Y0039816D01*
X0175349Y0039816D01*
X0175016Y0040149D01*
X0175016Y0040817D01*
X0175349Y0041150D01*
X0170684Y0047316D02*
X0169349Y0047316D01*
X0169016Y0047649D01*
X0169016Y0048317D01*
X0169349Y0048650D01*
X0169016Y0049618D02*
X0170350Y0050952D01*
X0170684Y0050952D01*
X0171017Y0050619D01*
X0171017Y0049951D01*
X0170684Y0049618D01*
X0170684Y0048650D02*
X0171017Y0048317D01*
X0171017Y0047649D01*
X0170684Y0047316D01*
X0169016Y0049618D02*
X0169016Y0050952D01*
X0169349Y0051920D02*
X0169016Y0052253D01*
X0169016Y0052921D01*
X0169349Y0053254D01*
X0169683Y0053254D01*
X0170017Y0052921D01*
X0170017Y0052587D01*
X0170017Y0052921D02*
X0170350Y0053254D01*
X0170684Y0053254D01*
X0171017Y0052921D01*
X0171017Y0052253D01*
X0170684Y0051920D01*
X0197016Y0041119D02*
X0197349Y0041452D01*
X0197683Y0041452D01*
X0198017Y0041119D01*
X0198017Y0040118D01*
X0197349Y0040118D01*
X0197016Y0040451D01*
X0197016Y0041119D01*
X0198017Y0040118D02*
X0198684Y0040785D01*
X0199017Y0041452D01*
X0198684Y0039150D02*
X0199017Y0038817D01*
X0199017Y0038149D01*
X0198684Y0037816D01*
X0197349Y0037816D01*
X0197016Y0038149D01*
X0197016Y0038817D01*
X0197349Y0039150D01*
X0177684Y0074316D02*
X0176349Y0074316D01*
X0176016Y0074649D01*
X0176016Y0075317D01*
X0176349Y0075650D01*
X0176016Y0076618D02*
X0176016Y0077952D01*
X0176016Y0077285D02*
X0178017Y0077285D01*
X0177350Y0076618D01*
X0177684Y0075650D02*
X0178017Y0075317D01*
X0178017Y0074649D01*
X0177684Y0074316D01*
X0177017Y0078920D02*
X0177017Y0079921D01*
X0176683Y0080254D01*
X0176349Y0080254D01*
X0176016Y0079921D01*
X0176016Y0079253D01*
X0176349Y0078920D01*
X0177017Y0078920D01*
X0177684Y0079587D01*
X0178017Y0080254D01*
D12*
X0210178Y0077417D02*
X0216950Y0077417D01*
X0213564Y0077417D02*
X0213564Y0057100D01*
X0216950Y0057100D02*
X0210178Y0057100D01*
D13*
X0153402Y0042544D02*
X0153402Y0041243D01*
X0150800Y0041243D01*
X0150800Y0042544D01*
X0151234Y0042978D01*
X0152969Y0042978D01*
X0153402Y0042544D01*
X0153402Y0040031D02*
X0150800Y0040031D01*
X0153402Y0038297D01*
X0150800Y0038297D01*
X0151234Y0037085D02*
X0152101Y0037085D01*
X0152101Y0036217D01*
X0151234Y0035350D02*
X0150800Y0035784D01*
X0150800Y0036651D01*
X0151234Y0037085D01*
X0152969Y0037085D02*
X0153402Y0036651D01*
X0153402Y0035784D01*
X0152969Y0035350D01*
X0151234Y0035350D01*
D14*
X0196142Y0113597D03*
D15*
X0050339Y0105537D03*
X0050339Y0086537D03*
X0050339Y0067537D03*
X0050339Y0048537D03*
M02*
