G75*
%MOIN*%
%OFA0B0*%
%FSLAX25Y25*%
%IPPOS*%
%LPD*%
%AMOC8*
5,1,8,0,0,1.08239X$1,22.5*
%
%ADD10C,0.06496*%
%ADD11C,0.07087*%
%ADD12C,0.05315*%
%ADD13C,0.04134*%
%ADD14C,0.01800*%
%ADD15C,0.00800*%
%ADD16C,0.00500*%
%ADD17C,0.01600*%
D10*
X0152000Y0029050D03*
D11*
X0167220Y0018050D03*
X0194780Y0018050D03*
D12*
X0190843Y0028680D03*
X0171157Y0028680D03*
D13*
X0099000Y0102050D03*
X0094000Y0102050D03*
X0089000Y0102050D03*
X0084000Y0102050D03*
D14*
X0057000Y0109550D03*
X0053000Y0109550D03*
X0044500Y0097050D03*
X0044500Y0092050D03*
X0053000Y0090550D03*
X0057000Y0090550D03*
X0066500Y0082550D03*
X0070000Y0079050D03*
X0074500Y0080050D03*
X0078000Y0077550D03*
X0070000Y0072550D03*
X0066000Y0075050D03*
X0057000Y0071550D03*
X0053000Y0071550D03*
X0071000Y0062550D03*
X0073000Y0065050D03*
X0079500Y0067550D03*
X0071000Y0057050D03*
X0068000Y0051550D03*
X0057000Y0052550D03*
X0053000Y0052550D03*
X0044500Y0047050D03*
X0044500Y0042050D03*
X0053000Y0033550D03*
X0057000Y0033550D03*
X0069000Y0042050D03*
X0073000Y0044550D03*
X0083500Y0044550D03*
X0088500Y0044550D03*
X0093500Y0044550D03*
X0093500Y0030550D03*
X0088500Y0030550D03*
X0083500Y0030550D03*
X0078500Y0030550D03*
X0069000Y0005050D03*
X0094000Y0005050D03*
X0119000Y0005050D03*
X0139500Y0012050D03*
X0148000Y0015550D03*
X0139500Y0018550D03*
X0150000Y0005050D03*
X0168000Y0038050D03*
X0171500Y0038050D03*
X0174500Y0037550D03*
X0163000Y0047050D03*
X0174000Y0048550D03*
X0176500Y0049550D03*
X0182000Y0049550D03*
X0184500Y0049050D03*
X0188000Y0057050D03*
X0188000Y0063050D03*
X0184000Y0067050D03*
X0180000Y0071050D03*
X0188000Y0071050D03*
X0180000Y0063050D03*
X0166500Y0056550D03*
X0158500Y0058050D03*
X0166500Y0071050D03*
X0181000Y0084550D03*
X0183500Y0084550D03*
X0188500Y0085050D03*
X0190000Y0087550D03*
X0192000Y0089550D03*
X0194500Y0090550D03*
X0199500Y0090550D03*
X0202000Y0092050D03*
X0208000Y0094050D03*
X0208000Y0100050D03*
X0208500Y0107050D03*
X0206000Y0107050D03*
X0198000Y0105050D03*
X0194000Y0103050D03*
X0198000Y0102550D03*
X0195000Y0108550D03*
X0195000Y0111050D03*
X0189000Y0108050D03*
X0179000Y0108050D03*
X0166500Y0105550D03*
X0159500Y0105550D03*
X0162000Y0098050D03*
X0154500Y0095050D03*
X0150500Y0096050D03*
X0149000Y0093050D03*
X0141500Y0095550D03*
X0139000Y0101050D03*
X0130500Y0100050D03*
X0128500Y0114050D03*
X0128500Y0118050D03*
X0119000Y0129050D03*
X0094000Y0129050D03*
X0069000Y0129050D03*
X0044000Y0129050D03*
X0019000Y0129050D03*
X0007000Y0117050D03*
X0007000Y0092050D03*
X0029000Y0082050D03*
X0029000Y0077050D03*
X0029000Y0072050D03*
X0029000Y0067050D03*
X0029000Y0062050D03*
X0029000Y0057050D03*
X0029000Y0052050D03*
X0007000Y0042050D03*
X0007000Y0017050D03*
X0019000Y0005050D03*
X0044000Y0005050D03*
X0007000Y0067050D03*
X0144000Y0129050D03*
X0157500Y0123550D03*
X0147500Y0118050D03*
X0147500Y0114050D03*
X0169000Y0129050D03*
X0194000Y0129050D03*
X0195000Y0121550D03*
X0199500Y0121550D03*
X0203000Y0118050D03*
X0203000Y0115050D03*
X0207000Y0115050D03*
X0207000Y0118050D03*
X0217000Y0121550D03*
X0219000Y0129050D03*
X0248000Y0129050D03*
X0251000Y0117050D03*
X0232500Y0109550D03*
X0221000Y0109550D03*
X0221000Y0099550D03*
X0221000Y0094550D03*
X0221000Y0089550D03*
X0221000Y0084550D03*
X0221000Y0079550D03*
X0219000Y0075050D03*
X0232500Y0074550D03*
X0232500Y0079550D03*
X0232500Y0084550D03*
X0232500Y0089550D03*
X0232500Y0094550D03*
X0232500Y0099550D03*
X0251000Y0092050D03*
X0232500Y0069550D03*
X0232500Y0064550D03*
X0232500Y0059550D03*
X0232500Y0054550D03*
X0232500Y0049550D03*
X0232500Y0044550D03*
X0232500Y0039550D03*
X0232500Y0034550D03*
X0232500Y0029550D03*
X0232500Y0024550D03*
X0232500Y0019550D03*
X0221000Y0019550D03*
X0221000Y0024550D03*
X0221000Y0029550D03*
X0217000Y0037050D03*
X0221000Y0039550D03*
X0215000Y0043050D03*
X0198500Y0046550D03*
X0201500Y0053550D03*
X0201500Y0056550D03*
X0202000Y0071550D03*
X0172500Y0096050D03*
X0185000Y0099550D03*
X0157500Y0085550D03*
X0153500Y0087550D03*
X0191000Y0038050D03*
X0207000Y0019550D03*
X0211000Y0005050D03*
X0248000Y0005050D03*
X0251000Y0017050D03*
X0251000Y0042050D03*
X0251000Y0067050D03*
D15*
X0008787Y0003950D02*
X0005900Y0006837D01*
X0005900Y0127263D01*
X0008787Y0130150D01*
X0249213Y0130150D01*
X0252100Y0127263D01*
X0252100Y0006837D01*
X0249213Y0003950D01*
X0210787Y0003950D01*
X0201900Y0012837D01*
X0200787Y0013950D01*
X0197546Y0013950D01*
X0198000Y0014279D01*
X0198550Y0014830D01*
X0199007Y0015459D01*
X0199361Y0016152D01*
X0199601Y0016892D01*
X0199721Y0017650D01*
X0195180Y0017650D01*
X0195180Y0018450D01*
X0199721Y0018450D01*
X0199601Y0019208D01*
X0199361Y0019948D01*
X0199207Y0020250D01*
X0214689Y0020250D01*
X0217589Y0017350D01*
X0219947Y0017350D01*
X0220047Y0017250D01*
X0221953Y0017250D01*
X0223300Y0018597D01*
X0223300Y0020250D01*
X0229746Y0020250D01*
X0230800Y0021304D01*
X0230800Y0022997D01*
X0231547Y0022250D01*
X0233453Y0022250D01*
X0234800Y0023597D01*
X0234800Y0025503D01*
X0233453Y0026850D01*
X0231547Y0026850D01*
X0230800Y0026103D01*
X0230800Y0027350D01*
X0231447Y0027350D01*
X0231547Y0027250D01*
X0233453Y0027250D01*
X0234800Y0028597D01*
X0234800Y0030503D01*
X0233453Y0031850D01*
X0231547Y0031850D01*
X0231447Y0031750D01*
X0230800Y0031750D01*
X0230800Y0125296D01*
X0229746Y0126350D01*
X0047254Y0126350D01*
X0046200Y0125296D01*
X0046200Y0021304D01*
X0047254Y0020250D01*
X0137947Y0020250D01*
X0137200Y0019503D01*
X0137200Y0017597D01*
X0138547Y0016250D01*
X0140453Y0016250D01*
X0140553Y0016350D01*
X0145411Y0016350D01*
X0145911Y0016850D01*
X0146047Y0016850D01*
X0145700Y0016503D01*
X0145700Y0014597D01*
X0147047Y0013250D01*
X0148953Y0013250D01*
X0149053Y0013350D01*
X0155911Y0013350D01*
X0157200Y0014639D01*
X0162775Y0020214D01*
X0162639Y0019948D01*
X0162399Y0019208D01*
X0162279Y0018450D01*
X0166820Y0018450D01*
X0166820Y0017650D01*
X0162279Y0017650D01*
X0162399Y0016892D01*
X0162639Y0016152D01*
X0162993Y0015459D01*
X0163450Y0014830D01*
X0164000Y0014279D01*
X0164454Y0013950D01*
X0161213Y0013950D01*
X0160100Y0012837D01*
X0151213Y0003950D01*
X0008787Y0003950D01*
X0008291Y0004446D02*
X0151709Y0004446D01*
X0152507Y0005244D02*
X0007493Y0005244D01*
X0006694Y0006043D02*
X0153306Y0006043D01*
X0154104Y0006841D02*
X0005900Y0006841D01*
X0005900Y0007640D02*
X0154903Y0007640D01*
X0155701Y0008438D02*
X0005900Y0008438D01*
X0005900Y0009237D02*
X0156500Y0009237D01*
X0157298Y0010035D02*
X0140738Y0010035D01*
X0140453Y0009750D02*
X0141800Y0011097D01*
X0141800Y0013003D01*
X0140453Y0014350D01*
X0138547Y0014350D01*
X0137200Y0013003D01*
X0137200Y0011097D01*
X0138547Y0009750D01*
X0140453Y0009750D01*
X0141536Y0010834D02*
X0158097Y0010834D01*
X0158895Y0011632D02*
X0141800Y0011632D01*
X0141800Y0012431D02*
X0159694Y0012431D01*
X0160492Y0013229D02*
X0141574Y0013229D01*
X0140775Y0014028D02*
X0146270Y0014028D01*
X0145700Y0014826D02*
X0005900Y0014826D01*
X0005900Y0014028D02*
X0138225Y0014028D01*
X0137426Y0013229D02*
X0005900Y0013229D01*
X0005900Y0012431D02*
X0137200Y0012431D01*
X0137200Y0011632D02*
X0005900Y0011632D01*
X0005900Y0010834D02*
X0137464Y0010834D01*
X0138262Y0010035D02*
X0005900Y0010035D01*
X0005900Y0015625D02*
X0145700Y0015625D01*
X0145700Y0016423D02*
X0145484Y0016423D01*
X0138374Y0016423D02*
X0005900Y0016423D01*
X0005900Y0017222D02*
X0137576Y0017222D01*
X0137200Y0018020D02*
X0005900Y0018020D01*
X0005900Y0018819D02*
X0137200Y0018819D01*
X0137315Y0019617D02*
X0005900Y0019617D01*
X0005900Y0020416D02*
X0047089Y0020416D01*
X0046290Y0021214D02*
X0005900Y0021214D01*
X0005900Y0022013D02*
X0046200Y0022013D01*
X0046200Y0022811D02*
X0005900Y0022811D01*
X0005900Y0023610D02*
X0046200Y0023610D01*
X0046200Y0024408D02*
X0005900Y0024408D01*
X0005900Y0025207D02*
X0046200Y0025207D01*
X0046200Y0026005D02*
X0005900Y0026005D01*
X0005900Y0026804D02*
X0046200Y0026804D01*
X0046200Y0027602D02*
X0005900Y0027602D01*
X0005900Y0028401D02*
X0046200Y0028401D01*
X0046200Y0029199D02*
X0005900Y0029199D01*
X0005900Y0029998D02*
X0046200Y0029998D01*
X0046200Y0030796D02*
X0005900Y0030796D01*
X0005900Y0031595D02*
X0046200Y0031595D01*
X0046200Y0032393D02*
X0005900Y0032393D01*
X0005900Y0033192D02*
X0046200Y0033192D01*
X0046200Y0033990D02*
X0005900Y0033990D01*
X0005900Y0034789D02*
X0046200Y0034789D01*
X0046200Y0035587D02*
X0005900Y0035587D01*
X0005900Y0036386D02*
X0046200Y0036386D01*
X0046200Y0037184D02*
X0005900Y0037184D01*
X0005900Y0037983D02*
X0046200Y0037983D01*
X0046200Y0038782D02*
X0005900Y0038782D01*
X0005900Y0039580D02*
X0046200Y0039580D01*
X0046200Y0040379D02*
X0005900Y0040379D01*
X0005900Y0041177D02*
X0046200Y0041177D01*
X0046200Y0041976D02*
X0005900Y0041976D01*
X0005900Y0042774D02*
X0046200Y0042774D01*
X0046200Y0043573D02*
X0005900Y0043573D01*
X0005900Y0044371D02*
X0046200Y0044371D01*
X0046200Y0045170D02*
X0005900Y0045170D01*
X0005900Y0045968D02*
X0046200Y0045968D01*
X0046200Y0046767D02*
X0005900Y0046767D01*
X0005900Y0047565D02*
X0046200Y0047565D01*
X0046200Y0048364D02*
X0005900Y0048364D01*
X0005900Y0049162D02*
X0046200Y0049162D01*
X0046200Y0049961D02*
X0030163Y0049961D01*
X0029953Y0049750D02*
X0031300Y0051097D01*
X0031300Y0053003D01*
X0029953Y0054350D01*
X0028047Y0054350D01*
X0026700Y0053003D01*
X0026700Y0051097D01*
X0028047Y0049750D01*
X0029953Y0049750D01*
X0030962Y0050759D02*
X0046200Y0050759D01*
X0046200Y0051558D02*
X0031300Y0051558D01*
X0031300Y0052356D02*
X0046200Y0052356D01*
X0046200Y0053155D02*
X0031148Y0053155D01*
X0030349Y0053953D02*
X0046200Y0053953D01*
X0046200Y0054752D02*
X0029954Y0054752D01*
X0029953Y0054750D02*
X0031300Y0056097D01*
X0031300Y0058003D01*
X0029953Y0059350D01*
X0028047Y0059350D01*
X0026700Y0058003D01*
X0026700Y0056097D01*
X0028047Y0054750D01*
X0029953Y0054750D01*
X0030753Y0055550D02*
X0046200Y0055550D01*
X0046200Y0056349D02*
X0031300Y0056349D01*
X0031300Y0057147D02*
X0046200Y0057147D01*
X0046200Y0057946D02*
X0031300Y0057946D01*
X0030558Y0058744D02*
X0046200Y0058744D01*
X0046200Y0059543D02*
X0005900Y0059543D01*
X0005900Y0060341D02*
X0027456Y0060341D01*
X0028047Y0059750D02*
X0029953Y0059750D01*
X0031300Y0061097D01*
X0031300Y0063003D01*
X0029953Y0064350D01*
X0028047Y0064350D01*
X0026700Y0063003D01*
X0026700Y0061097D01*
X0028047Y0059750D01*
X0027442Y0058744D02*
X0005900Y0058744D01*
X0005900Y0057946D02*
X0026700Y0057946D01*
X0026700Y0057147D02*
X0005900Y0057147D01*
X0005900Y0056349D02*
X0026700Y0056349D01*
X0027247Y0055550D02*
X0005900Y0055550D01*
X0005900Y0054752D02*
X0028046Y0054752D01*
X0027651Y0053953D02*
X0005900Y0053953D01*
X0005900Y0053155D02*
X0026852Y0053155D01*
X0026700Y0052356D02*
X0005900Y0052356D01*
X0005900Y0051558D02*
X0026700Y0051558D01*
X0027038Y0050759D02*
X0005900Y0050759D01*
X0005900Y0049961D02*
X0027837Y0049961D01*
X0030544Y0060341D02*
X0046200Y0060341D01*
X0046200Y0061140D02*
X0031300Y0061140D01*
X0031300Y0061938D02*
X0046200Y0061938D01*
X0046200Y0062737D02*
X0031300Y0062737D01*
X0030767Y0063535D02*
X0046200Y0063535D01*
X0046200Y0064334D02*
X0029969Y0064334D01*
X0029953Y0064750D02*
X0031300Y0066097D01*
X0031300Y0068003D01*
X0029953Y0069350D01*
X0028047Y0069350D01*
X0026700Y0068003D01*
X0026700Y0066097D01*
X0028047Y0064750D01*
X0029953Y0064750D01*
X0030335Y0065132D02*
X0046200Y0065132D01*
X0046200Y0065931D02*
X0031134Y0065931D01*
X0031300Y0066729D02*
X0046200Y0066729D01*
X0046200Y0067528D02*
X0031300Y0067528D01*
X0030976Y0068326D02*
X0046200Y0068326D01*
X0046200Y0069125D02*
X0030178Y0069125D01*
X0029953Y0069750D02*
X0031300Y0071097D01*
X0031300Y0073003D01*
X0029953Y0074350D01*
X0028047Y0074350D01*
X0026700Y0073003D01*
X0026700Y0071097D01*
X0028047Y0069750D01*
X0029953Y0069750D01*
X0030126Y0069923D02*
X0046200Y0069923D01*
X0046200Y0070722D02*
X0030925Y0070722D01*
X0031300Y0071520D02*
X0046200Y0071520D01*
X0046200Y0072319D02*
X0031300Y0072319D01*
X0031185Y0073118D02*
X0046200Y0073118D01*
X0046200Y0073916D02*
X0030387Y0073916D01*
X0029953Y0074750D02*
X0028047Y0074750D01*
X0026700Y0076097D01*
X0026700Y0078003D01*
X0028047Y0079350D01*
X0029953Y0079350D01*
X0031300Y0078003D01*
X0031300Y0076097D01*
X0029953Y0074750D01*
X0030716Y0075513D02*
X0046200Y0075513D01*
X0046200Y0074715D02*
X0005900Y0074715D01*
X0005900Y0075513D02*
X0027284Y0075513D01*
X0026700Y0076312D02*
X0005900Y0076312D01*
X0005900Y0077110D02*
X0026700Y0077110D01*
X0026700Y0077909D02*
X0005900Y0077909D01*
X0005900Y0078707D02*
X0027404Y0078707D01*
X0028047Y0079750D02*
X0029953Y0079750D01*
X0031300Y0081097D01*
X0031300Y0083003D01*
X0029953Y0084350D01*
X0028047Y0084350D01*
X0026700Y0083003D01*
X0026700Y0081097D01*
X0028047Y0079750D01*
X0027493Y0080304D02*
X0005900Y0080304D01*
X0005900Y0079506D02*
X0046200Y0079506D01*
X0046200Y0080304D02*
X0030507Y0080304D01*
X0031300Y0081103D02*
X0046200Y0081103D01*
X0046200Y0081901D02*
X0031300Y0081901D01*
X0031300Y0082700D02*
X0046200Y0082700D01*
X0046200Y0083498D02*
X0030805Y0083498D01*
X0030006Y0084297D02*
X0046200Y0084297D01*
X0046200Y0085095D02*
X0005900Y0085095D01*
X0005900Y0084297D02*
X0027994Y0084297D01*
X0027195Y0083498D02*
X0005900Y0083498D01*
X0005900Y0082700D02*
X0026700Y0082700D01*
X0026700Y0081901D02*
X0005900Y0081901D01*
X0005900Y0081103D02*
X0026700Y0081103D01*
X0030596Y0078707D02*
X0046200Y0078707D01*
X0046200Y0077909D02*
X0031300Y0077909D01*
X0031300Y0077110D02*
X0046200Y0077110D01*
X0046200Y0076312D02*
X0031300Y0076312D01*
X0027613Y0073916D02*
X0005900Y0073916D01*
X0005900Y0073118D02*
X0026815Y0073118D01*
X0026700Y0072319D02*
X0005900Y0072319D01*
X0005900Y0071520D02*
X0026700Y0071520D01*
X0027075Y0070722D02*
X0005900Y0070722D01*
X0005900Y0069923D02*
X0027874Y0069923D01*
X0027822Y0069125D02*
X0005900Y0069125D01*
X0005900Y0068326D02*
X0027024Y0068326D01*
X0026700Y0067528D02*
X0005900Y0067528D01*
X0005900Y0066729D02*
X0026700Y0066729D01*
X0026866Y0065931D02*
X0005900Y0065931D01*
X0005900Y0065132D02*
X0027665Y0065132D01*
X0028031Y0064334D02*
X0005900Y0064334D01*
X0005900Y0063535D02*
X0027233Y0063535D01*
X0026700Y0062737D02*
X0005900Y0062737D01*
X0005900Y0061938D02*
X0026700Y0061938D01*
X0026700Y0061140D02*
X0005900Y0061140D01*
X0005900Y0085894D02*
X0046200Y0085894D01*
X0046200Y0086692D02*
X0005900Y0086692D01*
X0005900Y0087491D02*
X0046200Y0087491D01*
X0046200Y0088289D02*
X0005900Y0088289D01*
X0005900Y0089088D02*
X0046200Y0089088D01*
X0046200Y0089886D02*
X0005900Y0089886D01*
X0005900Y0090685D02*
X0046200Y0090685D01*
X0046200Y0091483D02*
X0005900Y0091483D01*
X0005900Y0092282D02*
X0046200Y0092282D01*
X0046200Y0093080D02*
X0005900Y0093080D01*
X0005900Y0093879D02*
X0046200Y0093879D01*
X0046200Y0094677D02*
X0005900Y0094677D01*
X0005900Y0095476D02*
X0046200Y0095476D01*
X0046200Y0096274D02*
X0005900Y0096274D01*
X0005900Y0097073D02*
X0046200Y0097073D01*
X0046200Y0097871D02*
X0005900Y0097871D01*
X0005900Y0098670D02*
X0046200Y0098670D01*
X0046200Y0099468D02*
X0005900Y0099468D01*
X0005900Y0100267D02*
X0046200Y0100267D01*
X0046200Y0101065D02*
X0005900Y0101065D01*
X0005900Y0101864D02*
X0046200Y0101864D01*
X0046200Y0102662D02*
X0005900Y0102662D01*
X0005900Y0103461D02*
X0046200Y0103461D01*
X0046200Y0104259D02*
X0005900Y0104259D01*
X0005900Y0105058D02*
X0046200Y0105058D01*
X0046200Y0105856D02*
X0005900Y0105856D01*
X0005900Y0106655D02*
X0046200Y0106655D01*
X0046200Y0107453D02*
X0005900Y0107453D01*
X0005900Y0108252D02*
X0046200Y0108252D01*
X0046200Y0109051D02*
X0005900Y0109051D01*
X0005900Y0109849D02*
X0046200Y0109849D01*
X0046200Y0110648D02*
X0005900Y0110648D01*
X0005900Y0111446D02*
X0046200Y0111446D01*
X0046200Y0112245D02*
X0005900Y0112245D01*
X0005900Y0113043D02*
X0046200Y0113043D01*
X0046200Y0113842D02*
X0005900Y0113842D01*
X0005900Y0114640D02*
X0046200Y0114640D01*
X0046200Y0115439D02*
X0005900Y0115439D01*
X0005900Y0116237D02*
X0046200Y0116237D01*
X0046200Y0117036D02*
X0005900Y0117036D01*
X0005900Y0117834D02*
X0046200Y0117834D01*
X0046200Y0118633D02*
X0005900Y0118633D01*
X0005900Y0119431D02*
X0046200Y0119431D01*
X0046200Y0120230D02*
X0005900Y0120230D01*
X0005900Y0121028D02*
X0046200Y0121028D01*
X0046200Y0121827D02*
X0005900Y0121827D01*
X0005900Y0122625D02*
X0046200Y0122625D01*
X0046200Y0123424D02*
X0005900Y0123424D01*
X0005900Y0124222D02*
X0046200Y0124222D01*
X0046200Y0125021D02*
X0005900Y0125021D01*
X0005900Y0125819D02*
X0046724Y0125819D01*
X0048000Y0124550D02*
X0229000Y0124550D01*
X0229000Y0031550D01*
X0228328Y0031550D01*
X0225000Y0034878D01*
X0223828Y0036050D01*
X0218970Y0036050D01*
X0219100Y0036180D01*
X0219100Y0037920D01*
X0217870Y0039150D01*
X0216130Y0039150D01*
X0214900Y0037920D01*
X0214900Y0036180D01*
X0215030Y0036050D01*
X0175970Y0036050D01*
X0176600Y0036680D01*
X0176600Y0038420D01*
X0175370Y0039650D01*
X0173630Y0039650D01*
X0173250Y0039270D01*
X0172370Y0040150D01*
X0170630Y0040150D01*
X0169400Y0038920D01*
X0169400Y0037180D01*
X0170530Y0036050D01*
X0168172Y0036050D01*
X0154172Y0022050D01*
X0048000Y0022050D01*
X0048000Y0124550D01*
X0048000Y0124222D02*
X0229000Y0124222D01*
X0229000Y0123424D02*
X0218096Y0123424D01*
X0217870Y0123650D02*
X0216130Y0123650D01*
X0214900Y0122420D01*
X0214900Y0120680D01*
X0216130Y0119450D01*
X0217870Y0119450D01*
X0219100Y0120680D01*
X0219100Y0122420D01*
X0217870Y0123650D01*
X0218895Y0122625D02*
X0229000Y0122625D01*
X0229000Y0121827D02*
X0219100Y0121827D01*
X0219100Y0121028D02*
X0229000Y0121028D01*
X0229000Y0120230D02*
X0218650Y0120230D01*
X0215350Y0120230D02*
X0201150Y0120230D01*
X0201600Y0120680D02*
X0200370Y0119450D01*
X0198630Y0119450D01*
X0197400Y0120680D01*
X0197400Y0122420D01*
X0198630Y0123650D01*
X0200370Y0123650D01*
X0201600Y0122420D01*
X0201600Y0120680D01*
X0201600Y0121028D02*
X0214900Y0121028D01*
X0214900Y0121827D02*
X0201600Y0121827D01*
X0201395Y0122625D02*
X0215105Y0122625D01*
X0215904Y0123424D02*
X0200596Y0123424D01*
X0198404Y0123424D02*
X0196096Y0123424D01*
X0195870Y0123650D02*
X0194130Y0123650D01*
X0192900Y0122420D01*
X0192900Y0120680D01*
X0194130Y0119450D01*
X0195870Y0119450D01*
X0197100Y0120680D01*
X0197100Y0122420D01*
X0195870Y0123650D01*
X0196895Y0122625D02*
X0197605Y0122625D01*
X0197400Y0121827D02*
X0197100Y0121827D01*
X0197100Y0121028D02*
X0197400Y0121028D01*
X0197850Y0120230D02*
X0196650Y0120230D01*
X0193350Y0120230D02*
X0048000Y0120230D01*
X0048000Y0121028D02*
X0192900Y0121028D01*
X0192900Y0121827D02*
X0048000Y0121827D01*
X0048000Y0122625D02*
X0193105Y0122625D01*
X0193904Y0123424D02*
X0048000Y0123424D01*
X0048000Y0119431D02*
X0126911Y0119431D01*
X0126400Y0118920D02*
X0126400Y0117180D01*
X0127530Y0116050D01*
X0126400Y0114920D01*
X0126400Y0113180D01*
X0127630Y0111950D01*
X0129370Y0111950D01*
X0130600Y0113180D01*
X0130600Y0114920D01*
X0129470Y0116050D01*
X0130600Y0117180D01*
X0130600Y0118920D01*
X0129370Y0120150D01*
X0127630Y0120150D01*
X0126400Y0118920D01*
X0126400Y0118633D02*
X0048000Y0118633D01*
X0048000Y0117834D02*
X0126400Y0117834D01*
X0126545Y0117036D02*
X0048000Y0117036D01*
X0048000Y0116237D02*
X0127343Y0116237D01*
X0126919Y0115439D02*
X0048000Y0115439D01*
X0048000Y0114640D02*
X0126400Y0114640D01*
X0126400Y0113842D02*
X0048000Y0113842D01*
X0048000Y0113043D02*
X0126537Y0113043D01*
X0127336Y0112245D02*
X0048000Y0112245D01*
X0048000Y0111446D02*
X0055926Y0111446D01*
X0056130Y0111650D02*
X0054900Y0110420D01*
X0054900Y0108680D01*
X0056130Y0107450D01*
X0057870Y0107450D01*
X0059100Y0108680D01*
X0059100Y0110420D01*
X0057870Y0111650D01*
X0056130Y0111650D01*
X0055128Y0110648D02*
X0048000Y0110648D01*
X0048000Y0109849D02*
X0054900Y0109849D01*
X0054900Y0109051D02*
X0048000Y0109051D01*
X0048000Y0108252D02*
X0055328Y0108252D01*
X0056127Y0107453D02*
X0048000Y0107453D01*
X0048000Y0106655D02*
X0157635Y0106655D01*
X0157400Y0106420D02*
X0157400Y0104680D01*
X0158630Y0103450D01*
X0160370Y0103450D01*
X0161600Y0104680D01*
X0161600Y0106420D01*
X0160370Y0107650D01*
X0158630Y0107650D01*
X0157400Y0106420D01*
X0157400Y0105856D02*
X0048000Y0105856D01*
X0048000Y0105058D02*
X0082725Y0105058D01*
X0082149Y0104820D02*
X0081230Y0103901D01*
X0080733Y0102700D01*
X0080733Y0101400D01*
X0081230Y0100199D01*
X0082149Y0099280D01*
X0083350Y0098783D01*
X0084650Y0098783D01*
X0085851Y0099280D01*
X0086500Y0099930D01*
X0087149Y0099280D01*
X0088350Y0098783D01*
X0089650Y0098783D01*
X0090851Y0099280D01*
X0091500Y0099930D01*
X0092149Y0099280D01*
X0093350Y0098783D01*
X0094650Y0098783D01*
X0095851Y0099280D01*
X0096500Y0099930D01*
X0097149Y0099280D01*
X0098350Y0098783D01*
X0099650Y0098783D01*
X0100851Y0099280D01*
X0101770Y0100199D01*
X0102267Y0101400D01*
X0102267Y0102700D01*
X0101770Y0103901D01*
X0100851Y0104820D01*
X0099650Y0105317D01*
X0098350Y0105317D01*
X0097149Y0104820D01*
X0096500Y0104170D01*
X0095851Y0104820D01*
X0094650Y0105317D01*
X0093350Y0105317D01*
X0092149Y0104820D01*
X0091500Y0104170D01*
X0090851Y0104820D01*
X0089650Y0105317D01*
X0088350Y0105317D01*
X0087149Y0104820D01*
X0086500Y0104170D01*
X0085851Y0104820D01*
X0084650Y0105317D01*
X0083350Y0105317D01*
X0082149Y0104820D01*
X0081589Y0104259D02*
X0048000Y0104259D01*
X0048000Y0103461D02*
X0081048Y0103461D01*
X0080733Y0102662D02*
X0048000Y0102662D01*
X0048000Y0101864D02*
X0080733Y0101864D01*
X0080872Y0101065D02*
X0048000Y0101065D01*
X0048000Y0100267D02*
X0081202Y0100267D01*
X0081961Y0099468D02*
X0048000Y0099468D01*
X0048000Y0098670D02*
X0128910Y0098670D01*
X0128400Y0099180D02*
X0129630Y0097950D01*
X0131370Y0097950D01*
X0132600Y0099180D01*
X0132600Y0100920D01*
X0131370Y0102150D01*
X0129630Y0102150D01*
X0128400Y0100920D01*
X0128400Y0099180D01*
X0128400Y0099468D02*
X0101039Y0099468D01*
X0101798Y0100267D02*
X0128400Y0100267D01*
X0128546Y0101065D02*
X0102128Y0101065D01*
X0102267Y0101864D02*
X0129344Y0101864D01*
X0131656Y0101864D02*
X0136900Y0101864D01*
X0136900Y0101920D02*
X0136900Y0100180D01*
X0138130Y0098950D01*
X0139870Y0098950D01*
X0141100Y0100180D01*
X0141100Y0101920D01*
X0139870Y0103150D01*
X0138130Y0103150D01*
X0136900Y0101920D01*
X0136900Y0101065D02*
X0132454Y0101065D01*
X0132600Y0100267D02*
X0136900Y0100267D01*
X0137612Y0099468D02*
X0132600Y0099468D01*
X0132090Y0098670D02*
X0159900Y0098670D01*
X0159900Y0098920D02*
X0159900Y0097180D01*
X0161130Y0095950D01*
X0162870Y0095950D01*
X0163520Y0096600D01*
X0170400Y0096600D01*
X0170400Y0095500D01*
X0156600Y0095500D01*
X0156600Y0095920D01*
X0155370Y0097150D01*
X0153630Y0097150D01*
X0152600Y0096120D01*
X0152600Y0096920D01*
X0151370Y0098150D01*
X0149630Y0098150D01*
X0148400Y0096920D01*
X0148400Y0095180D01*
X0148430Y0095150D01*
X0148130Y0095150D01*
X0146900Y0093920D01*
X0146900Y0092201D01*
X0143600Y0095501D01*
X0143600Y0096420D01*
X0142370Y0097650D01*
X0140630Y0097650D01*
X0139400Y0096420D01*
X0139400Y0094680D01*
X0140630Y0093450D01*
X0141549Y0093450D01*
X0146899Y0088100D01*
X0151400Y0088100D01*
X0151400Y0086680D01*
X0152630Y0085450D01*
X0154370Y0085450D01*
X0155520Y0086600D01*
X0155580Y0086600D01*
X0155400Y0086420D01*
X0155400Y0084680D01*
X0156630Y0083450D01*
X0158370Y0083450D01*
X0159600Y0084680D01*
X0159600Y0085100D01*
X0178722Y0085100D01*
X0174500Y0080878D01*
X0174500Y0050520D01*
X0174400Y0050420D01*
X0174400Y0048680D01*
X0175630Y0047450D01*
X0177370Y0047450D01*
X0178600Y0048680D01*
X0178600Y0050420D01*
X0178500Y0050520D01*
X0178500Y0051550D01*
X0181172Y0051550D01*
X0182500Y0050222D01*
X0182500Y0050020D01*
X0182400Y0049920D01*
X0182400Y0048180D01*
X0183630Y0046950D01*
X0185370Y0046950D01*
X0186600Y0048180D01*
X0186600Y0049920D01*
X0186500Y0050020D01*
X0186500Y0051878D01*
X0184000Y0054378D01*
X0182828Y0055550D01*
X0178500Y0055550D01*
X0178500Y0061580D01*
X0179130Y0060950D01*
X0180870Y0060950D01*
X0182100Y0062180D01*
X0182100Y0063920D01*
X0180870Y0065150D01*
X0179130Y0065150D01*
X0178500Y0064520D01*
X0178500Y0069580D01*
X0179130Y0068950D01*
X0180870Y0068950D01*
X0182100Y0070180D01*
X0182100Y0071920D01*
X0180870Y0073150D01*
X0179130Y0073150D01*
X0178500Y0072520D01*
X0178500Y0079222D01*
X0181728Y0082450D01*
X0181870Y0082450D01*
X0183100Y0083680D01*
X0183100Y0085100D01*
X0186399Y0085100D01*
X0186400Y0085099D01*
X0186400Y0084180D01*
X0187630Y0082950D01*
X0189370Y0082950D01*
X0190600Y0084180D01*
X0190600Y0085450D01*
X0190870Y0085450D01*
X0192100Y0086680D01*
X0192100Y0087450D01*
X0192870Y0087450D01*
X0193870Y0088450D01*
X0195370Y0088450D01*
X0196600Y0089680D01*
X0196600Y0091420D01*
X0196420Y0091600D01*
X0197580Y0091600D01*
X0197400Y0091420D01*
X0197400Y0089680D01*
X0198630Y0088450D01*
X0200370Y0088450D01*
X0201600Y0089680D01*
X0201600Y0089950D01*
X0202870Y0089950D01*
X0204100Y0091180D01*
X0204100Y0092399D01*
X0205050Y0091449D01*
X0205899Y0090600D01*
X0212899Y0090600D01*
X0218900Y0084599D01*
X0218900Y0083680D01*
X0220130Y0082450D01*
X0221870Y0082450D01*
X0223100Y0083680D01*
X0223100Y0085420D01*
X0221870Y0086650D01*
X0220951Y0086650D01*
X0220151Y0087450D01*
X0221870Y0087450D01*
X0223100Y0088680D01*
X0223100Y0090420D01*
X0221870Y0091650D01*
X0220951Y0091650D01*
X0220151Y0092450D01*
X0221870Y0092450D01*
X0223100Y0093680D01*
X0223100Y0095420D01*
X0221870Y0096650D01*
X0220951Y0096650D01*
X0220151Y0097450D01*
X0221870Y0097450D01*
X0223100Y0098680D01*
X0223100Y0100420D01*
X0221870Y0101650D01*
X0220130Y0101650D01*
X0218900Y0100420D01*
X0218900Y0098701D01*
X0218601Y0099000D01*
X0209920Y0099000D01*
X0210100Y0099180D01*
X0210100Y0100920D01*
X0208870Y0102150D01*
X0207130Y0102150D01*
X0205900Y0100920D01*
X0205900Y0099180D01*
X0206080Y0099000D01*
X0187100Y0099000D01*
X0187100Y0100420D01*
X0185870Y0101650D01*
X0184130Y0101650D01*
X0182900Y0100420D01*
X0182900Y0099000D01*
X0177101Y0099000D01*
X0176601Y0099500D01*
X0163520Y0099500D01*
X0162870Y0100150D01*
X0161130Y0100150D01*
X0159900Y0098920D01*
X0160449Y0099468D02*
X0140388Y0099468D01*
X0141100Y0100267D02*
X0182900Y0100267D01*
X0182900Y0099468D02*
X0176632Y0099468D01*
X0170400Y0096274D02*
X0163194Y0096274D01*
X0160806Y0096274D02*
X0156245Y0096274D01*
X0155447Y0097073D02*
X0160007Y0097073D01*
X0159900Y0097871D02*
X0151648Y0097871D01*
X0152447Y0097073D02*
X0153553Y0097073D01*
X0152755Y0096274D02*
X0152600Y0096274D01*
X0149352Y0097871D02*
X0048000Y0097871D01*
X0048000Y0097073D02*
X0140053Y0097073D01*
X0139400Y0096274D02*
X0048000Y0096274D01*
X0048000Y0095476D02*
X0139400Y0095476D01*
X0139403Y0094677D02*
X0048000Y0094677D01*
X0048000Y0093879D02*
X0140201Y0093879D01*
X0141919Y0093080D02*
X0048000Y0093080D01*
X0048000Y0092282D02*
X0055762Y0092282D01*
X0056130Y0092650D02*
X0054900Y0091420D01*
X0054900Y0089680D01*
X0056130Y0088450D01*
X0057870Y0088450D01*
X0059100Y0089680D01*
X0059100Y0091420D01*
X0057870Y0092650D01*
X0056130Y0092650D01*
X0054963Y0091483D02*
X0048000Y0091483D01*
X0048000Y0090685D02*
X0054900Y0090685D01*
X0054900Y0089886D02*
X0048000Y0089886D01*
X0048000Y0089088D02*
X0055492Y0089088D01*
X0058508Y0089088D02*
X0145912Y0089088D01*
X0146710Y0088289D02*
X0048000Y0088289D01*
X0048000Y0087491D02*
X0151400Y0087491D01*
X0151400Y0086692D02*
X0048000Y0086692D01*
X0048000Y0085894D02*
X0152186Y0085894D01*
X0154814Y0085894D02*
X0155400Y0085894D01*
X0155400Y0085095D02*
X0048000Y0085095D01*
X0048000Y0084297D02*
X0065277Y0084297D01*
X0065630Y0084650D02*
X0064400Y0083420D01*
X0064400Y0081680D01*
X0065630Y0080450D01*
X0067370Y0080450D01*
X0068600Y0081680D01*
X0068600Y0083420D01*
X0067370Y0084650D01*
X0065630Y0084650D01*
X0064478Y0083498D02*
X0048000Y0083498D01*
X0048000Y0082700D02*
X0064400Y0082700D01*
X0064400Y0081901D02*
X0048000Y0081901D01*
X0048000Y0081103D02*
X0064978Y0081103D01*
X0068022Y0081103D02*
X0069083Y0081103D01*
X0069130Y0081150D02*
X0067900Y0079920D01*
X0067900Y0078180D01*
X0069130Y0076950D01*
X0070870Y0076950D01*
X0072100Y0078180D01*
X0072100Y0079920D01*
X0070870Y0081150D01*
X0069130Y0081150D01*
X0068600Y0081901D02*
X0073381Y0081901D01*
X0073630Y0082150D02*
X0072400Y0080920D01*
X0072400Y0079180D01*
X0073630Y0077950D01*
X0075370Y0077950D01*
X0076600Y0079180D01*
X0076600Y0080920D01*
X0075370Y0082150D01*
X0073630Y0082150D01*
X0072583Y0081103D02*
X0070917Y0081103D01*
X0071716Y0080304D02*
X0072400Y0080304D01*
X0072400Y0079506D02*
X0072100Y0079506D01*
X0072100Y0078707D02*
X0072873Y0078707D01*
X0071828Y0077909D02*
X0075900Y0077909D01*
X0075900Y0078420D02*
X0075900Y0076680D01*
X0077130Y0075450D01*
X0078870Y0075450D01*
X0080100Y0076680D01*
X0080100Y0078420D01*
X0078870Y0079650D01*
X0077130Y0079650D01*
X0075900Y0078420D01*
X0076127Y0078707D02*
X0076187Y0078707D01*
X0076600Y0079506D02*
X0076986Y0079506D01*
X0076600Y0080304D02*
X0174500Y0080304D01*
X0174500Y0079506D02*
X0079014Y0079506D01*
X0079813Y0078707D02*
X0174500Y0078707D01*
X0174500Y0077909D02*
X0080100Y0077909D01*
X0080100Y0077110D02*
X0174500Y0077110D01*
X0174500Y0076312D02*
X0079731Y0076312D01*
X0078933Y0075513D02*
X0174500Y0075513D01*
X0174500Y0074715D02*
X0068100Y0074715D01*
X0068100Y0074180D02*
X0066870Y0072950D01*
X0065130Y0072950D01*
X0063900Y0074180D01*
X0063900Y0075920D01*
X0065130Y0077150D01*
X0066870Y0077150D01*
X0068100Y0075920D01*
X0068100Y0074180D01*
X0067836Y0073916D02*
X0068396Y0073916D01*
X0067900Y0073420D02*
X0067900Y0071680D01*
X0069130Y0070450D01*
X0070870Y0070450D01*
X0072100Y0071680D01*
X0072100Y0073420D01*
X0070870Y0074650D01*
X0069130Y0074650D01*
X0067900Y0073420D01*
X0067900Y0073118D02*
X0067037Y0073118D01*
X0067900Y0072319D02*
X0059100Y0072319D01*
X0059100Y0072420D02*
X0057870Y0073650D01*
X0056130Y0073650D01*
X0054900Y0072420D01*
X0054900Y0070680D01*
X0056130Y0069450D01*
X0057870Y0069450D01*
X0059100Y0070680D01*
X0059100Y0072420D01*
X0059100Y0071520D02*
X0068060Y0071520D01*
X0068858Y0070722D02*
X0059100Y0070722D01*
X0058343Y0069923D02*
X0174500Y0069923D01*
X0174500Y0069125D02*
X0080895Y0069125D01*
X0080370Y0069650D02*
X0078630Y0069650D01*
X0077400Y0068420D01*
X0077400Y0066680D01*
X0078630Y0065450D01*
X0080370Y0065450D01*
X0081600Y0066680D01*
X0081600Y0068420D01*
X0080370Y0069650D01*
X0081600Y0068326D02*
X0174500Y0068326D01*
X0174500Y0067528D02*
X0081600Y0067528D01*
X0081600Y0066729D02*
X0174500Y0066729D01*
X0174500Y0065931D02*
X0080851Y0065931D01*
X0078149Y0065931D02*
X0075089Y0065931D01*
X0075100Y0065920D02*
X0073870Y0067150D01*
X0072130Y0067150D01*
X0070900Y0065920D01*
X0070900Y0064650D01*
X0070130Y0064650D01*
X0068900Y0063420D01*
X0068900Y0061680D01*
X0070130Y0060450D01*
X0071870Y0060450D01*
X0073100Y0061680D01*
X0073100Y0062950D01*
X0073870Y0062950D01*
X0075100Y0064180D01*
X0075100Y0065920D01*
X0075100Y0065132D02*
X0174500Y0065132D01*
X0174500Y0064334D02*
X0075100Y0064334D01*
X0074455Y0063535D02*
X0174500Y0063535D01*
X0174500Y0062737D02*
X0073100Y0062737D01*
X0073100Y0061938D02*
X0174500Y0061938D01*
X0174500Y0061140D02*
X0072560Y0061140D01*
X0069440Y0061140D02*
X0048000Y0061140D01*
X0048000Y0061938D02*
X0068900Y0061938D01*
X0068900Y0062737D02*
X0048000Y0062737D01*
X0048000Y0063535D02*
X0069016Y0063535D01*
X0069814Y0064334D02*
X0048000Y0064334D01*
X0048000Y0065132D02*
X0070900Y0065132D01*
X0070911Y0065931D02*
X0048000Y0065931D01*
X0048000Y0066729D02*
X0071710Y0066729D01*
X0074290Y0066729D02*
X0077400Y0066729D01*
X0077400Y0067528D02*
X0048000Y0067528D01*
X0048000Y0068326D02*
X0077400Y0068326D01*
X0078105Y0069125D02*
X0048000Y0069125D01*
X0048000Y0069923D02*
X0055657Y0069923D01*
X0054900Y0070722D02*
X0048000Y0070722D01*
X0048000Y0071520D02*
X0054900Y0071520D01*
X0054900Y0072319D02*
X0048000Y0072319D01*
X0048000Y0073118D02*
X0055598Y0073118D01*
X0058402Y0073118D02*
X0064963Y0073118D01*
X0064164Y0073916D02*
X0048000Y0073916D01*
X0048000Y0074715D02*
X0063900Y0074715D01*
X0063900Y0075513D02*
X0048000Y0075513D01*
X0048000Y0076312D02*
X0064292Y0076312D01*
X0065090Y0077110D02*
X0048000Y0077110D01*
X0048000Y0077909D02*
X0068172Y0077909D01*
X0067900Y0078707D02*
X0048000Y0078707D01*
X0048000Y0079506D02*
X0067900Y0079506D01*
X0068284Y0080304D02*
X0048000Y0080304D01*
X0059100Y0089886D02*
X0145113Y0089886D01*
X0144315Y0090685D02*
X0059100Y0090685D01*
X0059037Y0091483D02*
X0143516Y0091483D01*
X0142718Y0092282D02*
X0058238Y0092282D01*
X0067723Y0084297D02*
X0155783Y0084297D01*
X0156582Y0083498D02*
X0068522Y0083498D01*
X0068600Y0082700D02*
X0176321Y0082700D01*
X0177120Y0083498D02*
X0158418Y0083498D01*
X0159217Y0084297D02*
X0177918Y0084297D01*
X0178717Y0085095D02*
X0159600Y0085095D01*
X0146900Y0092282D02*
X0146819Y0092282D01*
X0146900Y0093080D02*
X0146020Y0093080D01*
X0145222Y0093879D02*
X0146900Y0093879D01*
X0147657Y0094677D02*
X0144423Y0094677D01*
X0143625Y0095476D02*
X0148400Y0095476D01*
X0148400Y0096274D02*
X0143600Y0096274D01*
X0142947Y0097073D02*
X0148553Y0097073D01*
X0141100Y0101065D02*
X0183546Y0101065D01*
X0186454Y0101065D02*
X0193015Y0101065D01*
X0193130Y0100950D02*
X0191900Y0102180D01*
X0191900Y0103920D01*
X0193130Y0105150D01*
X0194870Y0105150D01*
X0196100Y0103920D01*
X0196100Y0103620D01*
X0196280Y0103800D01*
X0195900Y0104180D01*
X0195900Y0105920D01*
X0197130Y0107150D01*
X0198870Y0107150D01*
X0200100Y0105920D01*
X0200100Y0104180D01*
X0199720Y0103800D01*
X0200100Y0103420D01*
X0200100Y0101680D01*
X0198870Y0100450D01*
X0197130Y0100450D01*
X0195900Y0101680D01*
X0195900Y0101980D01*
X0194870Y0100950D01*
X0193130Y0100950D01*
X0192216Y0101864D02*
X0141100Y0101864D01*
X0140357Y0102662D02*
X0191900Y0102662D01*
X0191900Y0103461D02*
X0167381Y0103461D01*
X0167370Y0103450D02*
X0168600Y0104680D01*
X0168600Y0106420D01*
X0167370Y0107650D01*
X0165630Y0107650D01*
X0164400Y0106420D01*
X0164400Y0104680D01*
X0165630Y0103450D01*
X0167370Y0103450D01*
X0168179Y0104259D02*
X0192240Y0104259D01*
X0193038Y0105058D02*
X0168600Y0105058D01*
X0168600Y0105856D02*
X0195900Y0105856D01*
X0195900Y0105058D02*
X0194962Y0105058D01*
X0195760Y0104259D02*
X0195900Y0104259D01*
X0196635Y0106655D02*
X0190575Y0106655D01*
X0191100Y0107180D02*
X0189870Y0105950D01*
X0188130Y0105950D01*
X0186900Y0107180D01*
X0186900Y0108920D01*
X0188130Y0110150D01*
X0189870Y0110150D01*
X0191100Y0108920D01*
X0191100Y0107180D01*
X0191100Y0107453D02*
X0203900Y0107453D01*
X0203900Y0107920D02*
X0203900Y0106180D01*
X0205130Y0104950D01*
X0206870Y0104950D01*
X0207250Y0105330D01*
X0207630Y0104950D01*
X0209370Y0104950D01*
X0210600Y0106180D01*
X0210600Y0107920D01*
X0209370Y0109150D01*
X0207630Y0109150D01*
X0207250Y0108770D01*
X0206870Y0109150D01*
X0205130Y0109150D01*
X0203900Y0107920D01*
X0204232Y0108252D02*
X0191100Y0108252D01*
X0190969Y0109051D02*
X0205031Y0109051D01*
X0206969Y0109051D02*
X0207531Y0109051D01*
X0209469Y0109051D02*
X0218900Y0109051D01*
X0218900Y0108680D02*
X0220130Y0107450D01*
X0221870Y0107450D01*
X0223100Y0108680D01*
X0223100Y0110420D01*
X0221870Y0111650D01*
X0220130Y0111650D01*
X0218900Y0110420D01*
X0218900Y0108680D01*
X0219328Y0108252D02*
X0210268Y0108252D01*
X0210600Y0107453D02*
X0220127Y0107453D01*
X0221873Y0107453D02*
X0229000Y0107453D01*
X0229000Y0106655D02*
X0210600Y0106655D01*
X0210276Y0105856D02*
X0229000Y0105856D01*
X0229000Y0105058D02*
X0209478Y0105058D01*
X0207522Y0105058D02*
X0206978Y0105058D01*
X0205022Y0105058D02*
X0200100Y0105058D01*
X0200100Y0105856D02*
X0204224Y0105856D01*
X0203900Y0106655D02*
X0199365Y0106655D01*
X0200100Y0104259D02*
X0229000Y0104259D01*
X0229000Y0103461D02*
X0200059Y0103461D01*
X0200100Y0102662D02*
X0229000Y0102662D01*
X0229000Y0101864D02*
X0209156Y0101864D01*
X0209954Y0101065D02*
X0219546Y0101065D01*
X0218900Y0100267D02*
X0210100Y0100267D01*
X0210100Y0099468D02*
X0218900Y0099468D01*
X0220528Y0097073D02*
X0229000Y0097073D01*
X0229000Y0097871D02*
X0222291Y0097871D01*
X0223090Y0098670D02*
X0229000Y0098670D01*
X0229000Y0099468D02*
X0223100Y0099468D01*
X0223100Y0100267D02*
X0229000Y0100267D01*
X0229000Y0101065D02*
X0222454Y0101065D01*
X0222245Y0096274D02*
X0229000Y0096274D01*
X0229000Y0095476D02*
X0223044Y0095476D01*
X0223100Y0094677D02*
X0229000Y0094677D01*
X0229000Y0093879D02*
X0223100Y0093879D01*
X0222500Y0093080D02*
X0229000Y0093080D01*
X0229000Y0092282D02*
X0220319Y0092282D01*
X0222037Y0091483D02*
X0229000Y0091483D01*
X0229000Y0090685D02*
X0222835Y0090685D01*
X0223100Y0089886D02*
X0229000Y0089886D01*
X0229000Y0089088D02*
X0223100Y0089088D01*
X0222709Y0088289D02*
X0229000Y0088289D01*
X0229000Y0087491D02*
X0221911Y0087491D01*
X0220908Y0086692D02*
X0229000Y0086692D01*
X0229000Y0085894D02*
X0222626Y0085894D01*
X0223100Y0085095D02*
X0229000Y0085095D01*
X0229000Y0084297D02*
X0223100Y0084297D01*
X0222918Y0083498D02*
X0229000Y0083498D01*
X0229000Y0082700D02*
X0222119Y0082700D01*
X0221870Y0081650D02*
X0220130Y0081650D01*
X0218900Y0080420D01*
X0218900Y0078680D01*
X0220130Y0077450D01*
X0221870Y0077450D01*
X0223100Y0078680D01*
X0223100Y0080420D01*
X0221870Y0081650D01*
X0222417Y0081103D02*
X0229000Y0081103D01*
X0229000Y0081901D02*
X0181180Y0081901D01*
X0180381Y0081103D02*
X0219583Y0081103D01*
X0218900Y0080304D02*
X0179583Y0080304D01*
X0178784Y0079506D02*
X0218900Y0079506D01*
X0218900Y0078707D02*
X0178500Y0078707D01*
X0178500Y0077909D02*
X0219672Y0077909D01*
X0222328Y0077909D02*
X0229000Y0077909D01*
X0229000Y0078707D02*
X0223100Y0078707D01*
X0223100Y0079506D02*
X0229000Y0079506D01*
X0229000Y0080304D02*
X0223100Y0080304D01*
X0219880Y0082700D02*
X0182119Y0082700D01*
X0182918Y0083498D02*
X0187082Y0083498D01*
X0186400Y0084297D02*
X0183100Y0084297D01*
X0183100Y0085095D02*
X0186400Y0085095D01*
X0189918Y0083498D02*
X0219082Y0083498D01*
X0218900Y0084297D02*
X0190600Y0084297D01*
X0190600Y0085095D02*
X0218404Y0085095D01*
X0217606Y0085894D02*
X0191314Y0085894D01*
X0192100Y0086692D02*
X0216807Y0086692D01*
X0216009Y0087491D02*
X0192911Y0087491D01*
X0193709Y0088289D02*
X0215210Y0088289D01*
X0214412Y0089088D02*
X0201008Y0089088D01*
X0201600Y0089886D02*
X0213613Y0089886D01*
X0205815Y0090685D02*
X0203605Y0090685D01*
X0204100Y0091483D02*
X0205016Y0091483D01*
X0204218Y0092282D02*
X0204100Y0092282D01*
X0197463Y0091483D02*
X0196537Y0091483D01*
X0196600Y0090685D02*
X0197400Y0090685D01*
X0197400Y0089886D02*
X0196600Y0089886D01*
X0196008Y0089088D02*
X0197992Y0089088D01*
X0205900Y0099468D02*
X0187100Y0099468D01*
X0187100Y0100267D02*
X0205900Y0100267D01*
X0206046Y0101065D02*
X0199485Y0101065D01*
X0200100Y0101864D02*
X0206844Y0101864D01*
X0196515Y0101065D02*
X0194985Y0101065D01*
X0195784Y0101864D02*
X0195900Y0101864D01*
X0187425Y0106655D02*
X0180575Y0106655D01*
X0181100Y0107180D02*
X0179870Y0105950D01*
X0178130Y0105950D01*
X0176900Y0107180D01*
X0176900Y0108920D01*
X0178130Y0110150D01*
X0179870Y0110150D01*
X0181100Y0108920D01*
X0181100Y0107180D01*
X0181100Y0107453D02*
X0186900Y0107453D01*
X0186900Y0108252D02*
X0181100Y0108252D01*
X0180969Y0109051D02*
X0187031Y0109051D01*
X0187829Y0109849D02*
X0180171Y0109849D01*
X0177829Y0109849D02*
X0059100Y0109849D01*
X0059100Y0109051D02*
X0177031Y0109051D01*
X0176900Y0108252D02*
X0058672Y0108252D01*
X0057873Y0107453D02*
X0158434Y0107453D01*
X0160566Y0107453D02*
X0165434Y0107453D01*
X0164635Y0106655D02*
X0161365Y0106655D01*
X0161600Y0105856D02*
X0164400Y0105856D01*
X0164400Y0105058D02*
X0161600Y0105058D01*
X0161179Y0104259D02*
X0164821Y0104259D01*
X0165619Y0103461D02*
X0160381Y0103461D01*
X0158619Y0103461D02*
X0101952Y0103461D01*
X0102267Y0102662D02*
X0137643Y0102662D01*
X0129664Y0112245D02*
X0146336Y0112245D01*
X0146630Y0111950D02*
X0148370Y0111950D01*
X0149600Y0113180D01*
X0149600Y0114920D01*
X0148470Y0116050D01*
X0149600Y0117180D01*
X0149600Y0118920D01*
X0148370Y0120150D01*
X0146630Y0120150D01*
X0145400Y0118920D01*
X0145400Y0117180D01*
X0146530Y0116050D01*
X0145400Y0114920D01*
X0145400Y0113180D01*
X0146630Y0111950D01*
X0145537Y0113043D02*
X0130463Y0113043D01*
X0130600Y0113842D02*
X0145400Y0113842D01*
X0145400Y0114640D02*
X0130600Y0114640D01*
X0130081Y0115439D02*
X0145919Y0115439D01*
X0146343Y0116237D02*
X0129657Y0116237D01*
X0130455Y0117036D02*
X0145545Y0117036D01*
X0145400Y0117834D02*
X0130600Y0117834D01*
X0130600Y0118633D02*
X0145400Y0118633D01*
X0145911Y0119431D02*
X0130089Y0119431D01*
X0148657Y0116237D02*
X0201217Y0116237D01*
X0201530Y0116550D02*
X0200900Y0115920D01*
X0200900Y0114180D01*
X0202130Y0112950D01*
X0203870Y0112950D01*
X0205000Y0114080D01*
X0206130Y0112950D01*
X0207870Y0112950D01*
X0209100Y0114180D01*
X0209100Y0115920D01*
X0208470Y0116550D01*
X0209100Y0117180D01*
X0209100Y0118920D01*
X0207870Y0120150D01*
X0206130Y0120150D01*
X0205000Y0119020D01*
X0203870Y0120150D01*
X0202130Y0120150D01*
X0200900Y0118920D01*
X0200900Y0117180D01*
X0201530Y0116550D01*
X0201045Y0117036D02*
X0149455Y0117036D01*
X0149600Y0117834D02*
X0200900Y0117834D01*
X0200900Y0118633D02*
X0149600Y0118633D01*
X0149089Y0119431D02*
X0201411Y0119431D01*
X0204589Y0119431D02*
X0205411Y0119431D01*
X0208589Y0119431D02*
X0229000Y0119431D01*
X0229000Y0118633D02*
X0209100Y0118633D01*
X0209100Y0117834D02*
X0229000Y0117834D01*
X0229000Y0117036D02*
X0208955Y0117036D01*
X0208783Y0116237D02*
X0229000Y0116237D01*
X0229000Y0115439D02*
X0209100Y0115439D01*
X0209100Y0114640D02*
X0229000Y0114640D01*
X0229000Y0113842D02*
X0208761Y0113842D01*
X0207963Y0113043D02*
X0229000Y0113043D01*
X0229000Y0112245D02*
X0148664Y0112245D01*
X0149463Y0113043D02*
X0202037Y0113043D01*
X0201239Y0113842D02*
X0149600Y0113842D01*
X0149600Y0114640D02*
X0200900Y0114640D01*
X0200900Y0115439D02*
X0149081Y0115439D01*
X0157400Y0105058D02*
X0100275Y0105058D01*
X0101411Y0104259D02*
X0157821Y0104259D01*
X0167566Y0107453D02*
X0176900Y0107453D01*
X0177425Y0106655D02*
X0168365Y0106655D01*
X0190171Y0109849D02*
X0218900Y0109849D01*
X0219128Y0110648D02*
X0058872Y0110648D01*
X0058074Y0111446D02*
X0219926Y0111446D01*
X0222074Y0111446D02*
X0229000Y0111446D01*
X0229000Y0110648D02*
X0222872Y0110648D01*
X0223100Y0109849D02*
X0229000Y0109849D01*
X0229000Y0109051D02*
X0223100Y0109051D01*
X0222672Y0108252D02*
X0229000Y0108252D01*
X0230800Y0108252D02*
X0252100Y0108252D01*
X0252100Y0107453D02*
X0230800Y0107453D01*
X0230800Y0106655D02*
X0252100Y0106655D01*
X0252100Y0105856D02*
X0230800Y0105856D01*
X0230800Y0105058D02*
X0252100Y0105058D01*
X0252100Y0104259D02*
X0230800Y0104259D01*
X0230800Y0103461D02*
X0252100Y0103461D01*
X0252100Y0102662D02*
X0230800Y0102662D01*
X0230800Y0101864D02*
X0252100Y0101864D01*
X0252100Y0101065D02*
X0230800Y0101065D01*
X0230800Y0100267D02*
X0252100Y0100267D01*
X0252100Y0099468D02*
X0230800Y0099468D01*
X0230800Y0098670D02*
X0252100Y0098670D01*
X0252100Y0097871D02*
X0230800Y0097871D01*
X0230800Y0097073D02*
X0252100Y0097073D01*
X0252100Y0096274D02*
X0230800Y0096274D01*
X0230800Y0095476D02*
X0252100Y0095476D01*
X0252100Y0094677D02*
X0230800Y0094677D01*
X0230800Y0093879D02*
X0252100Y0093879D01*
X0252100Y0093080D02*
X0230800Y0093080D01*
X0230800Y0092282D02*
X0252100Y0092282D01*
X0252100Y0091483D02*
X0230800Y0091483D01*
X0230800Y0090685D02*
X0252100Y0090685D01*
X0252100Y0089886D02*
X0230800Y0089886D01*
X0230800Y0089088D02*
X0252100Y0089088D01*
X0252100Y0088289D02*
X0230800Y0088289D01*
X0230800Y0087491D02*
X0252100Y0087491D01*
X0252100Y0086692D02*
X0230800Y0086692D01*
X0230800Y0085894D02*
X0252100Y0085894D01*
X0252100Y0085095D02*
X0230800Y0085095D01*
X0230800Y0084297D02*
X0252100Y0084297D01*
X0252100Y0083498D02*
X0230800Y0083498D01*
X0230800Y0082700D02*
X0252100Y0082700D01*
X0252100Y0081901D02*
X0230800Y0081901D01*
X0230800Y0081103D02*
X0252100Y0081103D01*
X0252100Y0080304D02*
X0230800Y0080304D01*
X0230800Y0079506D02*
X0252100Y0079506D01*
X0252100Y0078707D02*
X0230800Y0078707D01*
X0230800Y0077909D02*
X0252100Y0077909D01*
X0252100Y0077110D02*
X0230800Y0077110D01*
X0230800Y0076312D02*
X0252100Y0076312D01*
X0252100Y0075513D02*
X0230800Y0075513D01*
X0230800Y0074715D02*
X0252100Y0074715D01*
X0252100Y0073916D02*
X0230800Y0073916D01*
X0230800Y0073118D02*
X0252100Y0073118D01*
X0252100Y0072319D02*
X0230800Y0072319D01*
X0230800Y0071520D02*
X0252100Y0071520D01*
X0252100Y0070722D02*
X0230800Y0070722D01*
X0230800Y0069923D02*
X0252100Y0069923D01*
X0252100Y0069125D02*
X0230800Y0069125D01*
X0230800Y0068326D02*
X0252100Y0068326D01*
X0252100Y0067528D02*
X0230800Y0067528D01*
X0230800Y0066729D02*
X0252100Y0066729D01*
X0252100Y0065931D02*
X0230800Y0065931D01*
X0230800Y0065132D02*
X0252100Y0065132D01*
X0252100Y0064334D02*
X0230800Y0064334D01*
X0230800Y0063535D02*
X0252100Y0063535D01*
X0252100Y0062737D02*
X0230800Y0062737D01*
X0230800Y0061938D02*
X0252100Y0061938D01*
X0252100Y0061140D02*
X0230800Y0061140D01*
X0230800Y0060341D02*
X0252100Y0060341D01*
X0252100Y0059543D02*
X0230800Y0059543D01*
X0230800Y0058744D02*
X0252100Y0058744D01*
X0252100Y0057946D02*
X0230800Y0057946D01*
X0230800Y0057147D02*
X0252100Y0057147D01*
X0252100Y0056349D02*
X0230800Y0056349D01*
X0230800Y0055550D02*
X0252100Y0055550D01*
X0252100Y0054752D02*
X0230800Y0054752D01*
X0230800Y0053953D02*
X0252100Y0053953D01*
X0252100Y0053155D02*
X0230800Y0053155D01*
X0230800Y0052356D02*
X0252100Y0052356D01*
X0252100Y0051558D02*
X0230800Y0051558D01*
X0230800Y0050759D02*
X0252100Y0050759D01*
X0252100Y0049961D02*
X0230800Y0049961D01*
X0230800Y0049162D02*
X0252100Y0049162D01*
X0252100Y0048364D02*
X0230800Y0048364D01*
X0230800Y0047565D02*
X0252100Y0047565D01*
X0252100Y0046767D02*
X0230800Y0046767D01*
X0230800Y0045968D02*
X0252100Y0045968D01*
X0252100Y0045170D02*
X0230800Y0045170D01*
X0230800Y0044371D02*
X0252100Y0044371D01*
X0252100Y0043573D02*
X0230800Y0043573D01*
X0230800Y0042774D02*
X0252100Y0042774D01*
X0252100Y0041976D02*
X0230800Y0041976D01*
X0230800Y0041177D02*
X0252100Y0041177D01*
X0252100Y0040379D02*
X0230800Y0040379D01*
X0230800Y0039580D02*
X0252100Y0039580D01*
X0252100Y0038782D02*
X0230800Y0038782D01*
X0230800Y0037983D02*
X0252100Y0037983D01*
X0252100Y0037184D02*
X0230800Y0037184D01*
X0230800Y0036386D02*
X0252100Y0036386D01*
X0252100Y0035587D02*
X0230800Y0035587D01*
X0230800Y0034789D02*
X0252100Y0034789D01*
X0252100Y0033990D02*
X0230800Y0033990D01*
X0230800Y0033192D02*
X0252100Y0033192D01*
X0252100Y0032393D02*
X0230800Y0032393D01*
X0229000Y0032393D02*
X0227485Y0032393D01*
X0228283Y0031595D02*
X0229000Y0031595D01*
X0229000Y0033192D02*
X0226686Y0033192D01*
X0225888Y0033990D02*
X0229000Y0033990D01*
X0229000Y0034789D02*
X0225089Y0034789D01*
X0224291Y0035587D02*
X0229000Y0035587D01*
X0229000Y0036386D02*
X0219100Y0036386D01*
X0219100Y0037184D02*
X0229000Y0037184D01*
X0229000Y0037983D02*
X0219037Y0037983D01*
X0218238Y0038782D02*
X0229000Y0038782D01*
X0229000Y0039580D02*
X0175440Y0039580D01*
X0176238Y0038782D02*
X0215762Y0038782D01*
X0214963Y0037983D02*
X0176600Y0037983D01*
X0176600Y0037184D02*
X0214900Y0037184D01*
X0214900Y0036386D02*
X0176306Y0036386D01*
X0173560Y0039580D02*
X0172940Y0039580D01*
X0170060Y0039580D02*
X0048000Y0039580D01*
X0048000Y0038782D02*
X0169400Y0038782D01*
X0169400Y0037983D02*
X0048000Y0037983D01*
X0048000Y0037184D02*
X0169400Y0037184D01*
X0170194Y0036386D02*
X0048000Y0036386D01*
X0048000Y0035587D02*
X0056068Y0035587D01*
X0056130Y0035650D02*
X0054900Y0034420D01*
X0054900Y0032680D01*
X0056130Y0031450D01*
X0057870Y0031450D01*
X0059100Y0032680D01*
X0059100Y0034420D01*
X0057870Y0035650D01*
X0056130Y0035650D01*
X0055269Y0034789D02*
X0048000Y0034789D01*
X0048000Y0033990D02*
X0054900Y0033990D01*
X0054900Y0033192D02*
X0048000Y0033192D01*
X0048000Y0032393D02*
X0055187Y0032393D01*
X0055985Y0031595D02*
X0048000Y0031595D01*
X0048000Y0030796D02*
X0076400Y0030796D01*
X0076400Y0031420D02*
X0076400Y0029680D01*
X0077630Y0028450D01*
X0079370Y0028450D01*
X0080600Y0029680D01*
X0080600Y0031420D01*
X0079370Y0032650D01*
X0077630Y0032650D01*
X0076400Y0031420D01*
X0076575Y0031595D02*
X0058015Y0031595D01*
X0058813Y0032393D02*
X0077374Y0032393D01*
X0079626Y0032393D02*
X0082374Y0032393D01*
X0082630Y0032650D02*
X0081400Y0031420D01*
X0081400Y0029680D01*
X0082630Y0028450D01*
X0084370Y0028450D01*
X0085600Y0029680D01*
X0085600Y0031420D01*
X0084370Y0032650D01*
X0082630Y0032650D01*
X0081575Y0031595D02*
X0080425Y0031595D01*
X0080600Y0030796D02*
X0081400Y0030796D01*
X0081400Y0029998D02*
X0080600Y0029998D01*
X0080119Y0029199D02*
X0081881Y0029199D01*
X0076881Y0029199D02*
X0048000Y0029199D01*
X0048000Y0028401D02*
X0147552Y0028401D01*
X0147552Y0028165D02*
X0148229Y0026530D01*
X0149480Y0025279D01*
X0151115Y0024602D01*
X0152885Y0024602D01*
X0154520Y0025279D01*
X0155771Y0026530D01*
X0156448Y0028165D01*
X0156448Y0029935D01*
X0155771Y0031570D01*
X0154520Y0032821D01*
X0152885Y0033498D01*
X0151115Y0033498D01*
X0149480Y0032821D01*
X0148229Y0031570D01*
X0147552Y0029935D01*
X0147552Y0028165D01*
X0147785Y0027602D02*
X0048000Y0027602D01*
X0048000Y0026804D02*
X0148116Y0026804D01*
X0148754Y0026005D02*
X0048000Y0026005D01*
X0048000Y0025207D02*
X0149655Y0025207D01*
X0154345Y0025207D02*
X0157328Y0025207D01*
X0156530Y0024408D02*
X0048000Y0024408D01*
X0048000Y0023610D02*
X0155731Y0023610D01*
X0154933Y0022811D02*
X0048000Y0022811D01*
X0048000Y0029998D02*
X0076400Y0029998D01*
X0084626Y0032393D02*
X0087374Y0032393D01*
X0087630Y0032650D02*
X0086400Y0031420D01*
X0086400Y0029680D01*
X0087630Y0028450D01*
X0089370Y0028450D01*
X0090600Y0029680D01*
X0090600Y0031420D01*
X0089370Y0032650D01*
X0087630Y0032650D01*
X0086575Y0031595D02*
X0085425Y0031595D01*
X0085600Y0030796D02*
X0086400Y0030796D01*
X0086400Y0029998D02*
X0085600Y0029998D01*
X0085119Y0029199D02*
X0086881Y0029199D01*
X0090119Y0029199D02*
X0091881Y0029199D01*
X0091400Y0029680D02*
X0092630Y0028450D01*
X0094370Y0028450D01*
X0095600Y0029680D01*
X0095600Y0031420D01*
X0094370Y0032650D01*
X0092630Y0032650D01*
X0091400Y0031420D01*
X0091400Y0029680D01*
X0091400Y0029998D02*
X0090600Y0029998D01*
X0090600Y0030796D02*
X0091400Y0030796D01*
X0091575Y0031595D02*
X0090425Y0031595D01*
X0089626Y0032393D02*
X0092374Y0032393D01*
X0094626Y0032393D02*
X0149053Y0032393D01*
X0148254Y0031595D02*
X0095425Y0031595D01*
X0095600Y0030796D02*
X0147909Y0030796D01*
X0147578Y0029998D02*
X0095600Y0029998D01*
X0095119Y0029199D02*
X0147552Y0029199D01*
X0150376Y0033192D02*
X0059100Y0033192D01*
X0059100Y0033990D02*
X0166112Y0033990D01*
X0165314Y0033192D02*
X0153624Y0033192D01*
X0154947Y0032393D02*
X0164515Y0032393D01*
X0163716Y0031595D02*
X0155746Y0031595D01*
X0156091Y0030796D02*
X0162918Y0030796D01*
X0162119Y0029998D02*
X0156422Y0029998D01*
X0156448Y0029199D02*
X0161321Y0029199D01*
X0160522Y0028401D02*
X0156448Y0028401D01*
X0156215Y0027602D02*
X0159724Y0027602D01*
X0158925Y0026804D02*
X0155884Y0026804D01*
X0155246Y0026005D02*
X0158127Y0026005D01*
X0162179Y0019617D02*
X0162532Y0019617D01*
X0162337Y0018819D02*
X0161380Y0018819D01*
X0160581Y0018020D02*
X0166820Y0018020D01*
X0167621Y0018020D02*
X0194379Y0018020D01*
X0194379Y0017650D02*
X0194379Y0018450D01*
X0189838Y0018450D01*
X0189958Y0019208D01*
X0190198Y0019948D01*
X0190352Y0020250D01*
X0171647Y0020250D01*
X0171802Y0019948D01*
X0172042Y0019208D01*
X0172162Y0018450D01*
X0167621Y0018450D01*
X0167621Y0017650D01*
X0172162Y0017650D01*
X0172042Y0016892D01*
X0171802Y0016152D01*
X0171448Y0015459D01*
X0170991Y0014830D01*
X0170441Y0014279D01*
X0169987Y0013950D01*
X0192013Y0013950D01*
X0191559Y0014279D01*
X0191009Y0014830D01*
X0190552Y0015459D01*
X0190198Y0016152D01*
X0189958Y0016892D01*
X0189838Y0017650D01*
X0194379Y0017650D01*
X0195180Y0018020D02*
X0216918Y0018020D01*
X0216120Y0018819D02*
X0199663Y0018819D01*
X0199468Y0019617D02*
X0215321Y0019617D01*
X0222723Y0018020D02*
X0252100Y0018020D01*
X0252100Y0017222D02*
X0199653Y0017222D01*
X0199449Y0016423D02*
X0252100Y0016423D01*
X0252100Y0015625D02*
X0238666Y0015625D01*
X0238004Y0015899D02*
X0239860Y0015130D01*
X0241281Y0013710D01*
X0242050Y0011854D01*
X0242050Y0009845D01*
X0241281Y0007989D01*
X0239860Y0006568D01*
X0238004Y0005800D01*
X0235996Y0005800D01*
X0234140Y0006568D01*
X0232719Y0007989D01*
X0231950Y0009845D01*
X0231950Y0011854D01*
X0232719Y0013710D01*
X0234140Y0015130D01*
X0235996Y0015899D01*
X0238004Y0015899D01*
X0240164Y0014826D02*
X0252100Y0014826D01*
X0252100Y0014028D02*
X0240963Y0014028D01*
X0241480Y0013229D02*
X0252100Y0013229D01*
X0252100Y0012431D02*
X0241811Y0012431D01*
X0242050Y0011632D02*
X0252100Y0011632D01*
X0252100Y0010834D02*
X0242050Y0010834D01*
X0242050Y0010035D02*
X0252100Y0010035D01*
X0252100Y0009237D02*
X0241798Y0009237D01*
X0241467Y0008438D02*
X0252100Y0008438D01*
X0252100Y0007640D02*
X0240932Y0007640D01*
X0240133Y0006841D02*
X0252100Y0006841D01*
X0251306Y0006043D02*
X0238591Y0006043D01*
X0235409Y0006043D02*
X0208694Y0006043D01*
X0207896Y0006841D02*
X0233867Y0006841D01*
X0233068Y0007640D02*
X0207097Y0007640D01*
X0206299Y0008438D02*
X0232533Y0008438D01*
X0232202Y0009237D02*
X0205500Y0009237D01*
X0204702Y0010035D02*
X0231950Y0010035D01*
X0231950Y0010834D02*
X0203903Y0010834D01*
X0203105Y0011632D02*
X0231950Y0011632D01*
X0232189Y0012431D02*
X0202306Y0012431D01*
X0201508Y0013229D02*
X0232520Y0013229D01*
X0233037Y0014028D02*
X0197653Y0014028D01*
X0198547Y0014826D02*
X0233836Y0014826D01*
X0235334Y0015625D02*
X0199092Y0015625D01*
X0191906Y0014028D02*
X0170094Y0014028D01*
X0170988Y0014826D02*
X0191012Y0014826D01*
X0190467Y0015625D02*
X0171533Y0015625D01*
X0171890Y0016423D02*
X0190110Y0016423D01*
X0189906Y0017222D02*
X0172094Y0017222D01*
X0172104Y0018819D02*
X0189896Y0018819D01*
X0190091Y0019617D02*
X0171909Y0019617D01*
X0164347Y0014028D02*
X0156589Y0014028D01*
X0157387Y0014826D02*
X0163453Y0014826D01*
X0162908Y0015625D02*
X0158186Y0015625D01*
X0158984Y0016423D02*
X0162551Y0016423D01*
X0162347Y0017222D02*
X0159783Y0017222D01*
X0166911Y0034789D02*
X0058731Y0034789D01*
X0057932Y0035587D02*
X0167709Y0035587D01*
X0163870Y0044950D02*
X0165100Y0046180D01*
X0165100Y0047920D01*
X0163870Y0049150D01*
X0162130Y0049150D01*
X0160900Y0047920D01*
X0160900Y0046180D01*
X0162130Y0044950D01*
X0163870Y0044950D01*
X0164089Y0045170D02*
X0196911Y0045170D01*
X0196400Y0045680D02*
X0197630Y0044450D01*
X0199370Y0044450D01*
X0200600Y0045680D01*
X0200600Y0047420D01*
X0199370Y0048650D01*
X0197630Y0048650D01*
X0196400Y0047420D01*
X0196400Y0045680D01*
X0196400Y0045968D02*
X0164888Y0045968D01*
X0165100Y0046767D02*
X0196400Y0046767D01*
X0196545Y0047565D02*
X0185985Y0047565D01*
X0186600Y0048364D02*
X0197344Y0048364D01*
X0199656Y0048364D02*
X0229000Y0048364D01*
X0229000Y0049162D02*
X0186600Y0049162D01*
X0186559Y0049961D02*
X0229000Y0049961D01*
X0229000Y0050759D02*
X0186500Y0050759D01*
X0186500Y0051558D02*
X0200522Y0051558D01*
X0200630Y0051450D02*
X0202370Y0051450D01*
X0203600Y0052680D01*
X0203600Y0054420D01*
X0202370Y0055650D01*
X0200630Y0055650D01*
X0199400Y0054420D01*
X0199400Y0052680D01*
X0200630Y0051450D01*
X0199724Y0052356D02*
X0186022Y0052356D01*
X0185224Y0053155D02*
X0199400Y0053155D01*
X0199400Y0053953D02*
X0184425Y0053953D01*
X0183627Y0054752D02*
X0199732Y0054752D01*
X0200530Y0055550D02*
X0189470Y0055550D01*
X0188870Y0054950D02*
X0190100Y0056180D01*
X0190100Y0057920D01*
X0188870Y0059150D01*
X0187130Y0059150D01*
X0185900Y0057920D01*
X0185900Y0056180D01*
X0187130Y0054950D01*
X0188870Y0054950D01*
X0190100Y0056349D02*
X0229000Y0056349D01*
X0229000Y0057147D02*
X0190100Y0057147D01*
X0190074Y0057946D02*
X0229000Y0057946D01*
X0229000Y0058744D02*
X0189276Y0058744D01*
X0188870Y0060950D02*
X0187130Y0060950D01*
X0185900Y0062180D01*
X0185900Y0063920D01*
X0187130Y0065150D01*
X0188870Y0065150D01*
X0190100Y0063920D01*
X0190100Y0062180D01*
X0188870Y0060950D01*
X0189060Y0061140D02*
X0229000Y0061140D01*
X0229000Y0061938D02*
X0189858Y0061938D01*
X0190100Y0062737D02*
X0229000Y0062737D01*
X0229000Y0063535D02*
X0190100Y0063535D01*
X0189686Y0064334D02*
X0229000Y0064334D01*
X0229000Y0065132D02*
X0188887Y0065132D01*
X0187113Y0065132D02*
X0185052Y0065132D01*
X0184870Y0064950D02*
X0186100Y0066180D01*
X0186100Y0067920D01*
X0184870Y0069150D01*
X0183130Y0069150D01*
X0181900Y0067920D01*
X0181900Y0066180D01*
X0183130Y0064950D01*
X0184870Y0064950D01*
X0185851Y0065931D02*
X0229000Y0065931D01*
X0229000Y0066729D02*
X0186100Y0066729D01*
X0186100Y0067528D02*
X0229000Y0067528D01*
X0229000Y0068326D02*
X0185693Y0068326D01*
X0184895Y0069125D02*
X0186955Y0069125D01*
X0187130Y0068950D02*
X0188870Y0068950D01*
X0190100Y0070180D01*
X0190100Y0071920D01*
X0188870Y0073150D01*
X0187130Y0073150D01*
X0185900Y0071920D01*
X0185900Y0070180D01*
X0187130Y0068950D01*
X0186157Y0069923D02*
X0181843Y0069923D01*
X0182100Y0070722D02*
X0185900Y0070722D01*
X0185900Y0071520D02*
X0182100Y0071520D01*
X0181701Y0072319D02*
X0186299Y0072319D01*
X0187098Y0073118D02*
X0180902Y0073118D01*
X0179098Y0073118D02*
X0178500Y0073118D01*
X0178500Y0073916D02*
X0229000Y0073916D01*
X0229000Y0073118D02*
X0188902Y0073118D01*
X0189701Y0072319D02*
X0229000Y0072319D01*
X0229000Y0071520D02*
X0190100Y0071520D01*
X0190100Y0070722D02*
X0229000Y0070722D01*
X0229000Y0069923D02*
X0189843Y0069923D01*
X0189045Y0069125D02*
X0229000Y0069125D01*
X0229000Y0074715D02*
X0178500Y0074715D01*
X0178500Y0075513D02*
X0229000Y0075513D01*
X0229000Y0076312D02*
X0178500Y0076312D01*
X0178500Y0077110D02*
X0229000Y0077110D01*
X0229000Y0060341D02*
X0178500Y0060341D01*
X0178500Y0059543D02*
X0229000Y0059543D01*
X0229000Y0055550D02*
X0202470Y0055550D01*
X0203268Y0054752D02*
X0229000Y0054752D01*
X0229000Y0053953D02*
X0203600Y0053953D01*
X0203600Y0053155D02*
X0229000Y0053155D01*
X0229000Y0052356D02*
X0203276Y0052356D01*
X0202478Y0051558D02*
X0229000Y0051558D01*
X0229000Y0047565D02*
X0200455Y0047565D01*
X0200600Y0046767D02*
X0229000Y0046767D01*
X0229000Y0045968D02*
X0200600Y0045968D01*
X0200089Y0045170D02*
X0229000Y0045170D01*
X0229000Y0044371D02*
X0095600Y0044371D01*
X0095600Y0043680D02*
X0094370Y0042450D01*
X0092630Y0042450D01*
X0091400Y0043680D01*
X0091400Y0045420D01*
X0092630Y0046650D01*
X0094370Y0046650D01*
X0095600Y0045420D01*
X0095600Y0043680D01*
X0095492Y0043573D02*
X0229000Y0043573D01*
X0229000Y0042774D02*
X0094694Y0042774D01*
X0092306Y0042774D02*
X0089694Y0042774D01*
X0089370Y0042450D02*
X0090600Y0043680D01*
X0090600Y0045420D01*
X0089370Y0046650D01*
X0087630Y0046650D01*
X0086400Y0045420D01*
X0086400Y0043680D01*
X0087630Y0042450D01*
X0089370Y0042450D01*
X0090492Y0043573D02*
X0091508Y0043573D01*
X0091400Y0044371D02*
X0090600Y0044371D01*
X0090600Y0045170D02*
X0091400Y0045170D01*
X0091948Y0045968D02*
X0090052Y0045968D01*
X0095052Y0045968D02*
X0161112Y0045968D01*
X0160900Y0046767D02*
X0048000Y0046767D01*
X0048000Y0047565D02*
X0160900Y0047565D01*
X0161344Y0048364D02*
X0048000Y0048364D01*
X0048000Y0049162D02*
X0174400Y0049162D01*
X0174400Y0049961D02*
X0069381Y0049961D01*
X0068870Y0049450D02*
X0070100Y0050680D01*
X0070100Y0052420D01*
X0068870Y0053650D01*
X0067130Y0053650D01*
X0065900Y0052420D01*
X0065900Y0050680D01*
X0067130Y0049450D01*
X0068870Y0049450D01*
X0070100Y0050759D02*
X0174500Y0050759D01*
X0174500Y0051558D02*
X0070100Y0051558D01*
X0070100Y0052356D02*
X0174500Y0052356D01*
X0174500Y0053155D02*
X0069365Y0053155D01*
X0070130Y0054950D02*
X0071870Y0054950D01*
X0073100Y0056180D01*
X0073100Y0057920D01*
X0071870Y0059150D01*
X0070130Y0059150D01*
X0068900Y0057920D01*
X0068900Y0056180D01*
X0070130Y0054950D01*
X0069530Y0055550D02*
X0048000Y0055550D01*
X0048000Y0054752D02*
X0174500Y0054752D01*
X0174500Y0055550D02*
X0072470Y0055550D01*
X0073100Y0056349D02*
X0157231Y0056349D01*
X0157630Y0055950D02*
X0159370Y0055950D01*
X0160600Y0057180D01*
X0160600Y0058920D01*
X0159370Y0060150D01*
X0157630Y0060150D01*
X0156400Y0058920D01*
X0156400Y0057180D01*
X0157630Y0055950D01*
X0156433Y0057147D02*
X0073100Y0057147D01*
X0073074Y0057946D02*
X0156400Y0057946D01*
X0156400Y0058744D02*
X0072276Y0058744D01*
X0069724Y0058744D02*
X0048000Y0058744D01*
X0048000Y0057946D02*
X0068926Y0057946D01*
X0068900Y0057147D02*
X0048000Y0057147D01*
X0048000Y0056349D02*
X0068900Y0056349D01*
X0066635Y0053155D02*
X0059100Y0053155D01*
X0059100Y0053420D02*
X0057870Y0054650D01*
X0056130Y0054650D01*
X0054900Y0053420D01*
X0054900Y0051680D01*
X0056130Y0050450D01*
X0057870Y0050450D01*
X0059100Y0051680D01*
X0059100Y0053420D01*
X0058567Y0053953D02*
X0174500Y0053953D01*
X0174500Y0056349D02*
X0159769Y0056349D01*
X0160567Y0057147D02*
X0174500Y0057147D01*
X0174500Y0057946D02*
X0160600Y0057946D01*
X0160600Y0058744D02*
X0174500Y0058744D01*
X0174500Y0059543D02*
X0159977Y0059543D01*
X0157023Y0059543D02*
X0048000Y0059543D01*
X0048000Y0060341D02*
X0174500Y0060341D01*
X0178500Y0061140D02*
X0178940Y0061140D01*
X0181060Y0061140D02*
X0186940Y0061140D01*
X0186142Y0061938D02*
X0181858Y0061938D01*
X0182100Y0062737D02*
X0185900Y0062737D01*
X0185900Y0063535D02*
X0182100Y0063535D01*
X0181686Y0064334D02*
X0186314Y0064334D01*
X0182948Y0065132D02*
X0180887Y0065132D01*
X0182149Y0065931D02*
X0178500Y0065931D01*
X0178500Y0066729D02*
X0181900Y0066729D01*
X0181900Y0067528D02*
X0178500Y0067528D01*
X0178500Y0068326D02*
X0182307Y0068326D01*
X0183105Y0069125D02*
X0181045Y0069125D01*
X0178955Y0069125D02*
X0178500Y0069125D01*
X0174500Y0070722D02*
X0071142Y0070722D01*
X0071940Y0071520D02*
X0174500Y0071520D01*
X0174500Y0072319D02*
X0072100Y0072319D01*
X0072100Y0073118D02*
X0174500Y0073118D01*
X0174500Y0073916D02*
X0071604Y0073916D01*
X0071030Y0077110D02*
X0075900Y0077110D01*
X0076269Y0076312D02*
X0067708Y0076312D01*
X0068100Y0075513D02*
X0077067Y0075513D01*
X0068970Y0077110D02*
X0066910Y0077110D01*
X0076417Y0081103D02*
X0174724Y0081103D01*
X0175523Y0081901D02*
X0075619Y0081901D01*
X0086039Y0099468D02*
X0086961Y0099468D01*
X0091039Y0099468D02*
X0091961Y0099468D01*
X0096039Y0099468D02*
X0096961Y0099468D01*
X0096589Y0104259D02*
X0096411Y0104259D01*
X0095275Y0105058D02*
X0097725Y0105058D01*
X0092725Y0105058D02*
X0090275Y0105058D01*
X0091411Y0104259D02*
X0091589Y0104259D01*
X0087725Y0105058D02*
X0085275Y0105058D01*
X0086411Y0104259D02*
X0086589Y0104259D01*
X0008449Y0129812D02*
X0249551Y0129812D01*
X0250350Y0129013D02*
X0007650Y0129013D01*
X0006852Y0128215D02*
X0235789Y0128215D01*
X0235996Y0128300D02*
X0234140Y0127532D01*
X0232719Y0126111D01*
X0231950Y0124255D01*
X0231950Y0122246D01*
X0232719Y0120390D01*
X0234140Y0118970D01*
X0235996Y0118201D01*
X0238004Y0118201D01*
X0239860Y0118970D01*
X0241281Y0120390D01*
X0242050Y0122246D01*
X0242050Y0124255D01*
X0241281Y0126111D01*
X0239860Y0127532D01*
X0238004Y0128300D01*
X0235996Y0128300D01*
X0234024Y0127416D02*
X0006053Y0127416D01*
X0005900Y0126618D02*
X0233226Y0126618D01*
X0232598Y0125819D02*
X0230276Y0125819D01*
X0230800Y0125021D02*
X0232267Y0125021D01*
X0231950Y0124222D02*
X0230800Y0124222D01*
X0230800Y0123424D02*
X0231950Y0123424D01*
X0231950Y0122625D02*
X0230800Y0122625D01*
X0230800Y0121827D02*
X0232124Y0121827D01*
X0232455Y0121028D02*
X0230800Y0121028D01*
X0230800Y0120230D02*
X0232880Y0120230D01*
X0233678Y0119431D02*
X0230800Y0119431D01*
X0230800Y0118633D02*
X0234954Y0118633D01*
X0230800Y0117834D02*
X0252100Y0117834D01*
X0252100Y0117036D02*
X0230800Y0117036D01*
X0230800Y0116237D02*
X0252100Y0116237D01*
X0252100Y0115439D02*
X0230800Y0115439D01*
X0230800Y0114640D02*
X0252100Y0114640D01*
X0252100Y0113842D02*
X0230800Y0113842D01*
X0230800Y0113043D02*
X0252100Y0113043D01*
X0252100Y0112245D02*
X0230800Y0112245D01*
X0230800Y0111446D02*
X0252100Y0111446D01*
X0252100Y0110648D02*
X0230800Y0110648D01*
X0230800Y0109849D02*
X0252100Y0109849D01*
X0252100Y0109051D02*
X0230800Y0109051D01*
X0239046Y0118633D02*
X0252100Y0118633D01*
X0252100Y0119431D02*
X0240322Y0119431D01*
X0241120Y0120230D02*
X0252100Y0120230D01*
X0252100Y0121028D02*
X0241545Y0121028D01*
X0241876Y0121827D02*
X0252100Y0121827D01*
X0252100Y0122625D02*
X0242050Y0122625D01*
X0242050Y0123424D02*
X0252100Y0123424D01*
X0252100Y0124222D02*
X0242050Y0124222D01*
X0241733Y0125021D02*
X0252100Y0125021D01*
X0252100Y0125819D02*
X0241402Y0125819D01*
X0240774Y0126618D02*
X0252100Y0126618D01*
X0251947Y0127416D02*
X0239976Y0127416D01*
X0238211Y0128215D02*
X0251148Y0128215D01*
X0206037Y0113043D02*
X0203963Y0113043D01*
X0204761Y0113842D02*
X0205239Y0113842D01*
X0179113Y0065132D02*
X0178500Y0065132D01*
X0178500Y0058744D02*
X0186724Y0058744D01*
X0185926Y0057946D02*
X0178500Y0057946D01*
X0178500Y0057147D02*
X0185900Y0057147D01*
X0185900Y0056349D02*
X0178500Y0056349D01*
X0178500Y0055550D02*
X0186530Y0055550D01*
X0181962Y0050759D02*
X0178500Y0050759D01*
X0178600Y0049961D02*
X0182441Y0049961D01*
X0182400Y0049162D02*
X0178600Y0049162D01*
X0178284Y0048364D02*
X0182400Y0048364D01*
X0183015Y0047565D02*
X0177485Y0047565D01*
X0175515Y0047565D02*
X0165100Y0047565D01*
X0164656Y0048364D02*
X0174716Y0048364D01*
X0161911Y0045170D02*
X0095600Y0045170D01*
X0087306Y0042774D02*
X0084694Y0042774D01*
X0084370Y0042450D02*
X0085600Y0043680D01*
X0085600Y0045420D01*
X0084370Y0046650D01*
X0082630Y0046650D01*
X0081400Y0045420D01*
X0081400Y0043680D01*
X0082630Y0042450D01*
X0084370Y0042450D01*
X0085492Y0043573D02*
X0086508Y0043573D01*
X0086400Y0044371D02*
X0085600Y0044371D01*
X0085600Y0045170D02*
X0086400Y0045170D01*
X0086948Y0045968D02*
X0085052Y0045968D01*
X0081948Y0045968D02*
X0074552Y0045968D01*
X0075100Y0045420D02*
X0073870Y0046650D01*
X0072130Y0046650D01*
X0070900Y0045420D01*
X0070900Y0043680D01*
X0072130Y0042450D01*
X0073870Y0042450D01*
X0075100Y0043680D01*
X0075100Y0045420D01*
X0075100Y0045170D02*
X0081400Y0045170D01*
X0081400Y0044371D02*
X0075100Y0044371D01*
X0074992Y0043573D02*
X0081508Y0043573D01*
X0082306Y0042774D02*
X0074194Y0042774D01*
X0071806Y0042774D02*
X0071100Y0042774D01*
X0071100Y0042920D02*
X0069870Y0044150D01*
X0068130Y0044150D01*
X0066900Y0042920D01*
X0066900Y0041180D01*
X0068130Y0039950D01*
X0069870Y0039950D01*
X0071100Y0041180D01*
X0071100Y0042920D01*
X0071008Y0043573D02*
X0070447Y0043573D01*
X0070900Y0044371D02*
X0048000Y0044371D01*
X0048000Y0043573D02*
X0067553Y0043573D01*
X0066900Y0042774D02*
X0048000Y0042774D01*
X0048000Y0041976D02*
X0066900Y0041976D01*
X0066903Y0041177D02*
X0048000Y0041177D01*
X0048000Y0040379D02*
X0067702Y0040379D01*
X0070298Y0040379D02*
X0229000Y0040379D01*
X0229000Y0041177D02*
X0071097Y0041177D01*
X0071100Y0041976D02*
X0229000Y0041976D01*
X0233708Y0031595D02*
X0252100Y0031595D01*
X0252100Y0030796D02*
X0234506Y0030796D01*
X0234800Y0029998D02*
X0252100Y0029998D01*
X0252100Y0029199D02*
X0234800Y0029199D01*
X0234604Y0028401D02*
X0252100Y0028401D01*
X0252100Y0027602D02*
X0233805Y0027602D01*
X0233499Y0026804D02*
X0252100Y0026804D01*
X0252100Y0026005D02*
X0234297Y0026005D01*
X0234800Y0025207D02*
X0252100Y0025207D01*
X0252100Y0024408D02*
X0234800Y0024408D01*
X0234800Y0023610D02*
X0252100Y0023610D01*
X0252100Y0022811D02*
X0234014Y0022811D01*
X0230986Y0022811D02*
X0230800Y0022811D01*
X0230800Y0022013D02*
X0252100Y0022013D01*
X0252100Y0021214D02*
X0230710Y0021214D01*
X0229911Y0020416D02*
X0252100Y0020416D01*
X0252100Y0019617D02*
X0223300Y0019617D01*
X0223300Y0018819D02*
X0252100Y0018819D01*
X0231501Y0026804D02*
X0230800Y0026804D01*
X0250507Y0005244D02*
X0209493Y0005244D01*
X0210291Y0004446D02*
X0249709Y0004446D01*
X0071448Y0045968D02*
X0048000Y0045968D01*
X0048000Y0045170D02*
X0070900Y0045170D01*
X0066619Y0049961D02*
X0048000Y0049961D01*
X0048000Y0050759D02*
X0055821Y0050759D01*
X0055022Y0051558D02*
X0048000Y0051558D01*
X0048000Y0052356D02*
X0054900Y0052356D01*
X0054900Y0053155D02*
X0048000Y0053155D01*
X0048000Y0053953D02*
X0055433Y0053953D01*
X0059100Y0052356D02*
X0065900Y0052356D01*
X0065900Y0051558D02*
X0058978Y0051558D01*
X0058179Y0050759D02*
X0065900Y0050759D01*
D16*
X0141500Y0095550D02*
X0147500Y0089550D01*
X0192000Y0089550D01*
X0190000Y0091050D02*
X0151000Y0091050D01*
X0149000Y0093050D01*
X0150500Y0096050D02*
X0154000Y0092550D01*
X0187000Y0092550D01*
X0187500Y0093050D01*
X0201000Y0093050D01*
X0202000Y0092050D01*
X0204000Y0094550D02*
X0206500Y0092050D01*
X0213500Y0092050D01*
X0221000Y0084550D01*
X0221000Y0089550D02*
X0214500Y0096050D01*
X0172500Y0096050D01*
X0175000Y0094050D02*
X0175500Y0094550D01*
X0204000Y0094550D01*
X0194500Y0090550D02*
X0193500Y0091550D01*
X0190500Y0091550D01*
X0190000Y0091050D01*
X0188000Y0088050D02*
X0154000Y0088050D01*
X0153500Y0087550D01*
X0157500Y0085550D02*
X0158500Y0086550D01*
X0187000Y0086550D01*
X0188500Y0085050D01*
X0188500Y0087550D02*
X0188000Y0088050D01*
X0188500Y0087550D02*
X0190000Y0087550D01*
X0175000Y0094050D02*
X0155500Y0094050D01*
X0154500Y0095050D01*
X0162000Y0098050D02*
X0176000Y0098050D01*
X0176500Y0097550D01*
X0218000Y0097550D01*
X0221000Y0094550D01*
D17*
X0181000Y0084550D02*
X0176500Y0080050D01*
X0176500Y0053550D01*
X0182000Y0053550D01*
X0184500Y0051050D01*
X0184500Y0049050D01*
X0176500Y0049550D02*
X0176500Y0053550D01*
X0169000Y0034050D02*
X0154000Y0019050D01*
X0145000Y0019050D01*
X0144500Y0018550D01*
X0139500Y0018550D01*
X0148000Y0015550D02*
X0155000Y0015550D01*
X0163500Y0024050D01*
X0214000Y0024050D01*
X0218500Y0019550D01*
X0221000Y0019550D01*
X0227500Y0029550D02*
X0223000Y0034050D01*
X0169000Y0034050D01*
X0227500Y0029550D02*
X0232500Y0029550D01*
M02*
