%
M48
M72
T01C0.0100
T02C0.0276
T03C0.0354
T04C0.0433
T05C0.0472
T06C0.0630
%
T01
X1900Y505
X700Y1705
X4400Y505
X6900Y505
X9400Y505
X11900Y505
X13950Y1205
X14800Y1555
X13950Y1855
X15000Y505
X9350Y3055
X8850Y3055
X8350Y3055
X7850Y3055
X6900Y4205
X7300Y4455
X8350Y4455
X8850Y4455
X9350Y4455
X7100Y5705
X7100Y6255
X7300Y6505
X7950Y6755
X7000Y7255
X6600Y7505
X7000Y7905
X7450Y8005
X7800Y7755
X6650Y8255
X5700Y9055
X5300Y9055
X4450Y9205
X4450Y9705
X5300Y10955
X5700Y10955
X6900Y12905
X9400Y12905
X11900Y12905
X12850Y11805
X12850Y11405
X14750Y11405
X14750Y11805
X15750Y12355
X16900Y12905
X14400Y12905
X17900Y10805
X18900Y10805
X19500Y10855
X19500Y11105
X20300Y11505
X20300Y11805
X20700Y11805
X20700Y11505
X19950Y12155
X19500Y12155
X19400Y12905
X21700Y12155
X21900Y12905
X24800Y12905
X25100Y11705
X23250Y10955
X22100Y10955
X20850Y10705
X20600Y10705
X19800Y10505
X19400Y10305
X19800Y10255
X20800Y10005
X20800Y9405
X20200Y9205
X19950Y9055
X19450Y9055
X19200Y8955
X19000Y8755
X18850Y8505
X18350Y8455
X18100Y8455
X17250Y9605
X16200Y9805
X15450Y9505
X15050Y9605
X14900Y9305
X14150Y9555
X13900Y10105
X13050Y10005
X15350Y8755
X15750Y8555
X16650Y7105
X18000Y7105
X18400Y6705
X18800Y7105
X18800Y6305
X18000Y6305
X18800Y5705
X18200Y4955
X18450Y4905
X17650Y4955
X17400Y4855
X16300Y4705
X16800Y3805
X17150Y3805
X17450Y3755
X19100Y3805
X19850Y4655
X20150Y5355
X20150Y5655
X20200Y7155
X21900Y7505
X22100Y7955
X22100Y8455
X22100Y8955
X22100Y9455
X22100Y9955
X23250Y9955
X23250Y9455
X23250Y8955
X23250Y8455
X23250Y7955
X23250Y7455
X23250Y6955
X23250Y6455
X23250Y5955
X23250Y5455
X23250Y4955
X23250Y4455
X23250Y3955
X23250Y3455
X23250Y2955
X23250Y2455
X23250Y1955
X22100Y1955
X22100Y2455
X22100Y2955
X21700Y3705
X22100Y3955
X21500Y4305
X25100Y4205
X20700Y1955
X21100Y505
X24800Y505
X25100Y1705
X16650Y5655
X15850Y5805
X18500Y9955
X16650Y10555
X15950Y10555
X25100Y9205
X25100Y6705
X6800Y5155
X5700Y5255
X5300Y5255
X4450Y4705
X4450Y4205
X5300Y3355
X5700Y3355
X2900Y5205
X2900Y5705
X2900Y6205
X2900Y6705
X2900Y7205
X2900Y7705
X2900Y8205
X700Y9205
X700Y6705
X700Y4205
X5300Y7155
X5700Y7155
X700Y11705
X1900Y12905
X4400Y12905
T02
X8400Y10205
X8900Y10205
X9400Y10205
X9900Y10205
T03
X17116Y2868
X19084Y2868
T04
X15200Y2905
T05
X16722Y1805
X19478Y1805
T06
X23700Y1085
X23700Y12325
M30
