M48
; DRILL file {KiCad 7.0.6-7.0.6~ubuntu22.04.1} date Mon 31 Jul 2023 03:06:00 PM EDT
; FORMAT={-:-/ absolute / inch / decimal}
; #@! TF.CreationDate,2023-07-31T15:06:00-04:00
; #@! TF.GenerationSoftware,Kicad,Pcbnew,7.0.6-7.0.6~ubuntu22.04.1
; #@! TF.FileFunction,Plated,1,4,PTH
FMAT,2
INCH
; #@! TA.AperFunction,Plated,PTH,ViaDrill
T1C0.0080
; #@! TA.AperFunction,Plated,PTH,ComponentDrill
T2C0.0197
%
G90
G05
T1
X1.7717Y-2.1161
X1.8406Y-2.1161
X1.8504Y-1.9945
X1.939Y-2.1161
X1.998Y-2.4213
X1.998Y-2.6083
X2.0079Y-2.1161
X2.0177Y-1.9929
X2.0269Y-1.6856
X2.0276Y-1.8504
X2.0472Y-1.5059
X2.0472Y-2.3524
X2.0571Y-2.1161
X2.0768Y-1.8504
X2.0874Y-1.6035
X2.0882Y-1.5535
X2.0965Y-2.1161
X2.0965Y-2.3524
X2.0965Y-2.4606
X2.0965Y-2.5689
X2.0965Y-2.6327
X2.125Y-1.8514
X2.126Y-1.6831
X2.1358Y-2.126
X2.1457Y-1.3681
X2.1555Y-2.3524
X2.1752Y-1.8504
X2.1752Y-1.9937
X2.1752Y-2.1161
X2.185Y-1.4075
X2.1949Y-1.4567
X2.1949Y-1.5059
X2.2047Y-2.3524
X2.2047Y-2.487
X2.2047Y-2.5787
X2.2146Y-2.422
X2.2244Y-1.6831
X2.2244Y-1.8504
X2.2441Y-2.3524
X2.2448Y-2.121
X2.2736Y-1.8504
X2.2835Y-1.5059
X2.2933Y-2.126
X2.2933Y-2.3524
X2.3004Y-2.5563
X2.3228Y-1.4055
X2.3228Y-1.6831
X2.3228Y-1.8504
X2.3228Y-2.6575
X2.3327Y-1.6339
X2.3327Y-1.9929
X2.3327Y-2.1161
X2.35Y-2.35
X2.3524Y-2.5295
X2.3524Y-2.5984
X2.3551Y-2.424
X2.372Y-2.126
X2.375Y-1.8533
X2.4016Y-2.3524
X2.4114Y-1.5551
X2.4213Y-1.6043
X2.4213Y-1.6831
X2.4213Y-2.126
X2.4311Y-1.8504
X2.45Y-2.3516
X2.4508Y-2.4606
X2.4508Y-2.6327
X2.4551Y-2.5701
X2.4606Y-2.126
X2.4803Y-1.8504
X2.5Y-1.9921
X2.5Y-2.1161
X2.5Y-2.3524
X2.5098Y-1.6339
X2.5197Y-1.4075
X2.5295Y-1.4567
X2.5295Y-1.5059
X2.5295Y-1.6831
X2.5295Y-1.8504
X2.5492Y-2.126
X2.5492Y-2.3524
X2.5492Y-2.5787
X2.5787Y-1.8504
X2.5886Y-2.1161
X2.5886Y-2.4213
X2.5886Y-2.487
X2.5984Y-2.3524
X2.609Y-1.6635
X2.628Y-1.5059
X2.628Y-1.5551
X2.628Y-1.8504
X2.6476Y-2.1161
X2.6476Y-2.3524
X2.6575Y-1.9882
X2.6673Y-1.4075
X2.675Y-1.8526
X2.6772Y-1.6339
X2.6772Y-2.5591
X2.6969Y-2.126
X2.6969Y-2.3524
X2.7067Y-1.6535
X2.7264Y-1.6831
X2.7264Y-1.8504
X2.7362Y-2.1161
X2.7559Y-1.4272
X2.7559Y-1.5551
X2.7559Y-2.3524
X2.775Y-1.851
X2.7756Y-1.5059
X2.7756Y-2.126
X2.8051Y-2.3524
X2.815Y-1.9921
X2.815Y-2.1161
X2.8937Y-2.1161
X2.9823Y-1.9882
X2.9823Y-2.1161
T2
X2.9724Y-2.3425
X2.9724Y-2.4705
X2.9724Y-2.5984
T0
M30
