%TF.GenerationSoftware,KiCad,Pcbnew,7.0.6-7.0.6~ubuntu22.04.1*%
%TF.CreationDate,2023-07-31T15:05:58-04:00*%
%TF.ProjectId,readout-box,72656164-6f75-4742-9d62-6f782e6b6963,rev?*%
%TF.SameCoordinates,Original*%
%TF.FileFunction,Legend,Top*%
%TF.FilePolarity,Positive*%
%FSLAX46Y46*%
G04 Gerber Fmt 4.6, Leading zero omitted, Abs format (unit mm)*
G04 Created by KiCad (PCBNEW 7.0.6-7.0.6~ubuntu22.04.1) date 2023-07-31 15:05:58*
%MOMM*%
%LPD*%
G01*
G04 APERTURE LIST*
%ADD10C,0.150000*%
%ADD11C,0.127000*%
%ADD12C,0.120000*%
%ADD13C,0.100000*%
%ADD14C,0.200000*%
G04 APERTURE END LIST*
D10*
X73738866Y-61163220D02*
X73738866Y-60401316D01*
X74119819Y-60782268D02*
X73357914Y-60782268D01*
X73119819Y-59496554D02*
X73119819Y-59687030D01*
X73119819Y-59687030D02*
X73167438Y-59782268D01*
X73167438Y-59782268D02*
X73215057Y-59829887D01*
X73215057Y-59829887D02*
X73357914Y-59925125D01*
X73357914Y-59925125D02*
X73548390Y-59972744D01*
X73548390Y-59972744D02*
X73929342Y-59972744D01*
X73929342Y-59972744D02*
X74024580Y-59925125D01*
X74024580Y-59925125D02*
X74072200Y-59877506D01*
X74072200Y-59877506D02*
X74119819Y-59782268D01*
X74119819Y-59782268D02*
X74119819Y-59591792D01*
X74119819Y-59591792D02*
X74072200Y-59496554D01*
X74072200Y-59496554D02*
X74024580Y-59448935D01*
X74024580Y-59448935D02*
X73929342Y-59401316D01*
X73929342Y-59401316D02*
X73691247Y-59401316D01*
X73691247Y-59401316D02*
X73596009Y-59448935D01*
X73596009Y-59448935D02*
X73548390Y-59496554D01*
X73548390Y-59496554D02*
X73500771Y-59591792D01*
X73500771Y-59591792D02*
X73500771Y-59782268D01*
X73500771Y-59782268D02*
X73548390Y-59877506D01*
X73548390Y-59877506D02*
X73596009Y-59925125D01*
X73596009Y-59925125D02*
X73691247Y-59972744D01*
X74024580Y-58972744D02*
X74072200Y-58925125D01*
X74072200Y-58925125D02*
X74119819Y-58972744D01*
X74119819Y-58972744D02*
X74072200Y-59020363D01*
X74072200Y-59020363D02*
X74024580Y-58972744D01*
X74024580Y-58972744D02*
X74119819Y-58972744D01*
X73119819Y-58020364D02*
X73119819Y-58496554D01*
X73119819Y-58496554D02*
X73596009Y-58544173D01*
X73596009Y-58544173D02*
X73548390Y-58496554D01*
X73548390Y-58496554D02*
X73500771Y-58401316D01*
X73500771Y-58401316D02*
X73500771Y-58163221D01*
X73500771Y-58163221D02*
X73548390Y-58067983D01*
X73548390Y-58067983D02*
X73596009Y-58020364D01*
X73596009Y-58020364D02*
X73691247Y-57972745D01*
X73691247Y-57972745D02*
X73929342Y-57972745D01*
X73929342Y-57972745D02*
X74024580Y-58020364D01*
X74024580Y-58020364D02*
X74072200Y-58067983D01*
X74072200Y-58067983D02*
X74119819Y-58163221D01*
X74119819Y-58163221D02*
X74119819Y-58401316D01*
X74119819Y-58401316D02*
X74072200Y-58496554D01*
X74072200Y-58496554D02*
X74024580Y-58544173D01*
X73738866Y-67413220D02*
X73738866Y-66651316D01*
X73215057Y-66222744D02*
X73167438Y-66175125D01*
X73167438Y-66175125D02*
X73119819Y-66079887D01*
X73119819Y-66079887D02*
X73119819Y-65841792D01*
X73119819Y-65841792D02*
X73167438Y-65746554D01*
X73167438Y-65746554D02*
X73215057Y-65698935D01*
X73215057Y-65698935D02*
X73310295Y-65651316D01*
X73310295Y-65651316D02*
X73405533Y-65651316D01*
X73405533Y-65651316D02*
X73548390Y-65698935D01*
X73548390Y-65698935D02*
X74119819Y-66270363D01*
X74119819Y-66270363D02*
X74119819Y-65651316D01*
X73119819Y-65032268D02*
X73119819Y-64937030D01*
X73119819Y-64937030D02*
X73167438Y-64841792D01*
X73167438Y-64841792D02*
X73215057Y-64794173D01*
X73215057Y-64794173D02*
X73310295Y-64746554D01*
X73310295Y-64746554D02*
X73500771Y-64698935D01*
X73500771Y-64698935D02*
X73738866Y-64698935D01*
X73738866Y-64698935D02*
X73929342Y-64746554D01*
X73929342Y-64746554D02*
X74024580Y-64794173D01*
X74024580Y-64794173D02*
X74072200Y-64841792D01*
X74072200Y-64841792D02*
X74119819Y-64937030D01*
X74119819Y-64937030D02*
X74119819Y-65032268D01*
X74119819Y-65032268D02*
X74072200Y-65127506D01*
X74072200Y-65127506D02*
X74024580Y-65175125D01*
X74024580Y-65175125D02*
X73929342Y-65222744D01*
X73929342Y-65222744D02*
X73738866Y-65270363D01*
X73738866Y-65270363D02*
X73500771Y-65270363D01*
X73500771Y-65270363D02*
X73310295Y-65222744D01*
X73310295Y-65222744D02*
X73215057Y-65175125D01*
X73215057Y-65175125D02*
X73167438Y-65127506D01*
X73167438Y-65127506D02*
X73119819Y-65032268D01*
D11*
X59023340Y-41376999D02*
X59059626Y-41413285D01*
X59059626Y-41413285D02*
X59095911Y-41522142D01*
X59095911Y-41522142D02*
X59095911Y-41594714D01*
X59095911Y-41594714D02*
X59059626Y-41703571D01*
X59059626Y-41703571D02*
X58987054Y-41776142D01*
X58987054Y-41776142D02*
X58914483Y-41812428D01*
X58914483Y-41812428D02*
X58769340Y-41848714D01*
X58769340Y-41848714D02*
X58660483Y-41848714D01*
X58660483Y-41848714D02*
X58515340Y-41812428D01*
X58515340Y-41812428D02*
X58442768Y-41776142D01*
X58442768Y-41776142D02*
X58370197Y-41703571D01*
X58370197Y-41703571D02*
X58333911Y-41594714D01*
X58333911Y-41594714D02*
X58333911Y-41522142D01*
X58333911Y-41522142D02*
X58370197Y-41413285D01*
X58370197Y-41413285D02*
X58406483Y-41376999D01*
X58587911Y-40723857D02*
X59095911Y-40723857D01*
X58297626Y-40905285D02*
X58841911Y-41086714D01*
X58841911Y-41086714D02*
X58841911Y-40614999D01*
X56915911Y-36964856D02*
X56553054Y-37218856D01*
X56915911Y-37400285D02*
X56153911Y-37400285D01*
X56153911Y-37400285D02*
X56153911Y-37109999D01*
X56153911Y-37109999D02*
X56190197Y-37037428D01*
X56190197Y-37037428D02*
X56226483Y-37001142D01*
X56226483Y-37001142D02*
X56299054Y-36964856D01*
X56299054Y-36964856D02*
X56407911Y-36964856D01*
X56407911Y-36964856D02*
X56480483Y-37001142D01*
X56480483Y-37001142D02*
X56516768Y-37037428D01*
X56516768Y-37037428D02*
X56553054Y-37109999D01*
X56553054Y-37109999D02*
X56553054Y-37400285D01*
X56915911Y-36239142D02*
X56915911Y-36674571D01*
X56915911Y-36456856D02*
X56153911Y-36456856D01*
X56153911Y-36456856D02*
X56262768Y-36529428D01*
X56262768Y-36529428D02*
X56335340Y-36601999D01*
X56335340Y-36601999D02*
X56371626Y-36674571D01*
X56407911Y-35586000D02*
X56915911Y-35586000D01*
X56117626Y-35767428D02*
X56661911Y-35948857D01*
X56661911Y-35948857D02*
X56661911Y-35477142D01*
X53415911Y-40714856D02*
X53053054Y-40968856D01*
X53415911Y-41150285D02*
X52653911Y-41150285D01*
X52653911Y-41150285D02*
X52653911Y-40859999D01*
X52653911Y-40859999D02*
X52690197Y-40787428D01*
X52690197Y-40787428D02*
X52726483Y-40751142D01*
X52726483Y-40751142D02*
X52799054Y-40714856D01*
X52799054Y-40714856D02*
X52907911Y-40714856D01*
X52907911Y-40714856D02*
X52980483Y-40751142D01*
X52980483Y-40751142D02*
X53016768Y-40787428D01*
X53016768Y-40787428D02*
X53053054Y-40859999D01*
X53053054Y-40859999D02*
X53053054Y-41150285D01*
X53415911Y-39989142D02*
X53415911Y-40424571D01*
X53415911Y-40206856D02*
X52653911Y-40206856D01*
X52653911Y-40206856D02*
X52762768Y-40279428D01*
X52762768Y-40279428D02*
X52835340Y-40351999D01*
X52835340Y-40351999D02*
X52871626Y-40424571D01*
X52653911Y-39336000D02*
X52653911Y-39481142D01*
X52653911Y-39481142D02*
X52690197Y-39553714D01*
X52690197Y-39553714D02*
X52726483Y-39590000D01*
X52726483Y-39590000D02*
X52835340Y-39662571D01*
X52835340Y-39662571D02*
X52980483Y-39698857D01*
X52980483Y-39698857D02*
X53270768Y-39698857D01*
X53270768Y-39698857D02*
X53343340Y-39662571D01*
X53343340Y-39662571D02*
X53379626Y-39626285D01*
X53379626Y-39626285D02*
X53415911Y-39553714D01*
X53415911Y-39553714D02*
X53415911Y-39408571D01*
X53415911Y-39408571D02*
X53379626Y-39336000D01*
X53379626Y-39336000D02*
X53343340Y-39299714D01*
X53343340Y-39299714D02*
X53270768Y-39263428D01*
X53270768Y-39263428D02*
X53089340Y-39263428D01*
X53089340Y-39263428D02*
X53016768Y-39299714D01*
X53016768Y-39299714D02*
X52980483Y-39336000D01*
X52980483Y-39336000D02*
X52944197Y-39408571D01*
X52944197Y-39408571D02*
X52944197Y-39553714D01*
X52944197Y-39553714D02*
X52980483Y-39626285D01*
X52980483Y-39626285D02*
X53016768Y-39662571D01*
X53016768Y-39662571D02*
X53089340Y-39698857D01*
X68628340Y-62834856D02*
X68664626Y-62871142D01*
X68664626Y-62871142D02*
X68700911Y-62979999D01*
X68700911Y-62979999D02*
X68700911Y-63052571D01*
X68700911Y-63052571D02*
X68664626Y-63161428D01*
X68664626Y-63161428D02*
X68592054Y-63233999D01*
X68592054Y-63233999D02*
X68519483Y-63270285D01*
X68519483Y-63270285D02*
X68374340Y-63306571D01*
X68374340Y-63306571D02*
X68265483Y-63306571D01*
X68265483Y-63306571D02*
X68120340Y-63270285D01*
X68120340Y-63270285D02*
X68047768Y-63233999D01*
X68047768Y-63233999D02*
X67975197Y-63161428D01*
X67975197Y-63161428D02*
X67938911Y-63052571D01*
X67938911Y-63052571D02*
X67938911Y-62979999D01*
X67938911Y-62979999D02*
X67975197Y-62871142D01*
X67975197Y-62871142D02*
X68011483Y-62834856D01*
X68700911Y-62109142D02*
X68700911Y-62544571D01*
X68700911Y-62326856D02*
X67938911Y-62326856D01*
X67938911Y-62326856D02*
X68047768Y-62399428D01*
X68047768Y-62399428D02*
X68120340Y-62471999D01*
X68120340Y-62471999D02*
X68156626Y-62544571D01*
X67938911Y-61855142D02*
X67938911Y-61383428D01*
X67938911Y-61383428D02*
X68229197Y-61637428D01*
X68229197Y-61637428D02*
X68229197Y-61528571D01*
X68229197Y-61528571D02*
X68265483Y-61456000D01*
X68265483Y-61456000D02*
X68301768Y-61419714D01*
X68301768Y-61419714D02*
X68374340Y-61383428D01*
X68374340Y-61383428D02*
X68555768Y-61383428D01*
X68555768Y-61383428D02*
X68628340Y-61419714D01*
X68628340Y-61419714D02*
X68664626Y-61456000D01*
X68664626Y-61456000D02*
X68700911Y-61528571D01*
X68700911Y-61528571D02*
X68700911Y-61746285D01*
X68700911Y-61746285D02*
X68664626Y-61818857D01*
X68664626Y-61818857D02*
X68628340Y-61855142D01*
X68628340Y-66334856D02*
X68664626Y-66371142D01*
X68664626Y-66371142D02*
X68700911Y-66479999D01*
X68700911Y-66479999D02*
X68700911Y-66552571D01*
X68700911Y-66552571D02*
X68664626Y-66661428D01*
X68664626Y-66661428D02*
X68592054Y-66733999D01*
X68592054Y-66733999D02*
X68519483Y-66770285D01*
X68519483Y-66770285D02*
X68374340Y-66806571D01*
X68374340Y-66806571D02*
X68265483Y-66806571D01*
X68265483Y-66806571D02*
X68120340Y-66770285D01*
X68120340Y-66770285D02*
X68047768Y-66733999D01*
X68047768Y-66733999D02*
X67975197Y-66661428D01*
X67975197Y-66661428D02*
X67938911Y-66552571D01*
X67938911Y-66552571D02*
X67938911Y-66479999D01*
X67938911Y-66479999D02*
X67975197Y-66371142D01*
X67975197Y-66371142D02*
X68011483Y-66334856D01*
X67938911Y-66080856D02*
X67938911Y-65609142D01*
X67938911Y-65609142D02*
X68229197Y-65863142D01*
X68229197Y-65863142D02*
X68229197Y-65754285D01*
X68229197Y-65754285D02*
X68265483Y-65681714D01*
X68265483Y-65681714D02*
X68301768Y-65645428D01*
X68301768Y-65645428D02*
X68374340Y-65609142D01*
X68374340Y-65609142D02*
X68555768Y-65609142D01*
X68555768Y-65609142D02*
X68628340Y-65645428D01*
X68628340Y-65645428D02*
X68664626Y-65681714D01*
X68664626Y-65681714D02*
X68700911Y-65754285D01*
X68700911Y-65754285D02*
X68700911Y-65971999D01*
X68700911Y-65971999D02*
X68664626Y-66044571D01*
X68664626Y-66044571D02*
X68628340Y-66080856D01*
X68011483Y-65318857D02*
X67975197Y-65282571D01*
X67975197Y-65282571D02*
X67938911Y-65210000D01*
X67938911Y-65210000D02*
X67938911Y-65028571D01*
X67938911Y-65028571D02*
X67975197Y-64956000D01*
X67975197Y-64956000D02*
X68011483Y-64919714D01*
X68011483Y-64919714D02*
X68084054Y-64883428D01*
X68084054Y-64883428D02*
X68156626Y-64883428D01*
X68156626Y-64883428D02*
X68265483Y-64919714D01*
X68265483Y-64919714D02*
X68700911Y-65355142D01*
X68700911Y-65355142D02*
X68700911Y-64883428D01*
X70703340Y-36601999D02*
X70739626Y-36638285D01*
X70739626Y-36638285D02*
X70775911Y-36747142D01*
X70775911Y-36747142D02*
X70775911Y-36819714D01*
X70775911Y-36819714D02*
X70739626Y-36928571D01*
X70739626Y-36928571D02*
X70667054Y-37001142D01*
X70667054Y-37001142D02*
X70594483Y-37037428D01*
X70594483Y-37037428D02*
X70449340Y-37073714D01*
X70449340Y-37073714D02*
X70340483Y-37073714D01*
X70340483Y-37073714D02*
X70195340Y-37037428D01*
X70195340Y-37037428D02*
X70122768Y-37001142D01*
X70122768Y-37001142D02*
X70050197Y-36928571D01*
X70050197Y-36928571D02*
X70013911Y-36819714D01*
X70013911Y-36819714D02*
X70013911Y-36747142D01*
X70013911Y-36747142D02*
X70050197Y-36638285D01*
X70050197Y-36638285D02*
X70086483Y-36601999D01*
X70013911Y-36347999D02*
X70013911Y-35839999D01*
X70013911Y-35839999D02*
X70775911Y-36166571D01*
X58698340Y-62834856D02*
X58734626Y-62871142D01*
X58734626Y-62871142D02*
X58770911Y-62979999D01*
X58770911Y-62979999D02*
X58770911Y-63052571D01*
X58770911Y-63052571D02*
X58734626Y-63161428D01*
X58734626Y-63161428D02*
X58662054Y-63233999D01*
X58662054Y-63233999D02*
X58589483Y-63270285D01*
X58589483Y-63270285D02*
X58444340Y-63306571D01*
X58444340Y-63306571D02*
X58335483Y-63306571D01*
X58335483Y-63306571D02*
X58190340Y-63270285D01*
X58190340Y-63270285D02*
X58117768Y-63233999D01*
X58117768Y-63233999D02*
X58045197Y-63161428D01*
X58045197Y-63161428D02*
X58008911Y-63052571D01*
X58008911Y-63052571D02*
X58008911Y-62979999D01*
X58008911Y-62979999D02*
X58045197Y-62871142D01*
X58045197Y-62871142D02*
X58081483Y-62834856D01*
X58770911Y-62109142D02*
X58770911Y-62544571D01*
X58770911Y-62326856D02*
X58008911Y-62326856D01*
X58008911Y-62326856D02*
X58117768Y-62399428D01*
X58117768Y-62399428D02*
X58190340Y-62471999D01*
X58190340Y-62471999D02*
X58226626Y-62544571D01*
X58770911Y-61746285D02*
X58770911Y-61601142D01*
X58770911Y-61601142D02*
X58734626Y-61528571D01*
X58734626Y-61528571D02*
X58698340Y-61492285D01*
X58698340Y-61492285D02*
X58589483Y-61419714D01*
X58589483Y-61419714D02*
X58444340Y-61383428D01*
X58444340Y-61383428D02*
X58154054Y-61383428D01*
X58154054Y-61383428D02*
X58081483Y-61419714D01*
X58081483Y-61419714D02*
X58045197Y-61456000D01*
X58045197Y-61456000D02*
X58008911Y-61528571D01*
X58008911Y-61528571D02*
X58008911Y-61673714D01*
X58008911Y-61673714D02*
X58045197Y-61746285D01*
X58045197Y-61746285D02*
X58081483Y-61782571D01*
X58081483Y-61782571D02*
X58154054Y-61818857D01*
X58154054Y-61818857D02*
X58335483Y-61818857D01*
X58335483Y-61818857D02*
X58408054Y-61782571D01*
X58408054Y-61782571D02*
X58444340Y-61746285D01*
X58444340Y-61746285D02*
X58480626Y-61673714D01*
X58480626Y-61673714D02*
X58480626Y-61528571D01*
X58480626Y-61528571D02*
X58444340Y-61456000D01*
X58444340Y-61456000D02*
X58408054Y-61419714D01*
X58408054Y-61419714D02*
X58335483Y-61383428D01*
X75246000Y-57635911D02*
X75246000Y-58180197D01*
X75246000Y-58180197D02*
X75209715Y-58289054D01*
X75209715Y-58289054D02*
X75137143Y-58361626D01*
X75137143Y-58361626D02*
X75028286Y-58397911D01*
X75028286Y-58397911D02*
X74955715Y-58397911D01*
X76008000Y-58397911D02*
X75572571Y-58397911D01*
X75790286Y-58397911D02*
X75790286Y-57635911D01*
X75790286Y-57635911D02*
X75717714Y-57744768D01*
X75717714Y-57744768D02*
X75645143Y-57817340D01*
X75645143Y-57817340D02*
X75572571Y-57853626D01*
X60020911Y-66231999D02*
X59658054Y-66485999D01*
X60020911Y-66667428D02*
X59258911Y-66667428D01*
X59258911Y-66667428D02*
X59258911Y-66377142D01*
X59258911Y-66377142D02*
X59295197Y-66304571D01*
X59295197Y-66304571D02*
X59331483Y-66268285D01*
X59331483Y-66268285D02*
X59404054Y-66231999D01*
X59404054Y-66231999D02*
X59512911Y-66231999D01*
X59512911Y-66231999D02*
X59585483Y-66268285D01*
X59585483Y-66268285D02*
X59621768Y-66304571D01*
X59621768Y-66304571D02*
X59658054Y-66377142D01*
X59658054Y-66377142D02*
X59658054Y-66667428D01*
X59585483Y-65796571D02*
X59549197Y-65869142D01*
X59549197Y-65869142D02*
X59512911Y-65905428D01*
X59512911Y-65905428D02*
X59440340Y-65941714D01*
X59440340Y-65941714D02*
X59404054Y-65941714D01*
X59404054Y-65941714D02*
X59331483Y-65905428D01*
X59331483Y-65905428D02*
X59295197Y-65869142D01*
X59295197Y-65869142D02*
X59258911Y-65796571D01*
X59258911Y-65796571D02*
X59258911Y-65651428D01*
X59258911Y-65651428D02*
X59295197Y-65578857D01*
X59295197Y-65578857D02*
X59331483Y-65542571D01*
X59331483Y-65542571D02*
X59404054Y-65506285D01*
X59404054Y-65506285D02*
X59440340Y-65506285D01*
X59440340Y-65506285D02*
X59512911Y-65542571D01*
X59512911Y-65542571D02*
X59549197Y-65578857D01*
X59549197Y-65578857D02*
X59585483Y-65651428D01*
X59585483Y-65651428D02*
X59585483Y-65796571D01*
X59585483Y-65796571D02*
X59621768Y-65869142D01*
X59621768Y-65869142D02*
X59658054Y-65905428D01*
X59658054Y-65905428D02*
X59730626Y-65941714D01*
X59730626Y-65941714D02*
X59875768Y-65941714D01*
X59875768Y-65941714D02*
X59948340Y-65905428D01*
X59948340Y-65905428D02*
X59984626Y-65869142D01*
X59984626Y-65869142D02*
X60020911Y-65796571D01*
X60020911Y-65796571D02*
X60020911Y-65651428D01*
X60020911Y-65651428D02*
X59984626Y-65578857D01*
X59984626Y-65578857D02*
X59948340Y-65542571D01*
X59948340Y-65542571D02*
X59875768Y-65506285D01*
X59875768Y-65506285D02*
X59730626Y-65506285D01*
X59730626Y-65506285D02*
X59658054Y-65542571D01*
X59658054Y-65542571D02*
X59621768Y-65578857D01*
X59621768Y-65578857D02*
X59585483Y-65651428D01*
X53343340Y-36601999D02*
X53379626Y-36638285D01*
X53379626Y-36638285D02*
X53415911Y-36747142D01*
X53415911Y-36747142D02*
X53415911Y-36819714D01*
X53415911Y-36819714D02*
X53379626Y-36928571D01*
X53379626Y-36928571D02*
X53307054Y-37001142D01*
X53307054Y-37001142D02*
X53234483Y-37037428D01*
X53234483Y-37037428D02*
X53089340Y-37073714D01*
X53089340Y-37073714D02*
X52980483Y-37073714D01*
X52980483Y-37073714D02*
X52835340Y-37037428D01*
X52835340Y-37037428D02*
X52762768Y-37001142D01*
X52762768Y-37001142D02*
X52690197Y-36928571D01*
X52690197Y-36928571D02*
X52653911Y-36819714D01*
X52653911Y-36819714D02*
X52653911Y-36747142D01*
X52653911Y-36747142D02*
X52690197Y-36638285D01*
X52690197Y-36638285D02*
X52726483Y-36601999D01*
X52653911Y-36347999D02*
X52653911Y-35876285D01*
X52653911Y-35876285D02*
X52944197Y-36130285D01*
X52944197Y-36130285D02*
X52944197Y-36021428D01*
X52944197Y-36021428D02*
X52980483Y-35948857D01*
X52980483Y-35948857D02*
X53016768Y-35912571D01*
X53016768Y-35912571D02*
X53089340Y-35876285D01*
X53089340Y-35876285D02*
X53270768Y-35876285D01*
X53270768Y-35876285D02*
X53343340Y-35912571D01*
X53343340Y-35912571D02*
X53379626Y-35948857D01*
X53379626Y-35948857D02*
X53415911Y-36021428D01*
X53415911Y-36021428D02*
X53415911Y-36239142D01*
X53415911Y-36239142D02*
X53379626Y-36311714D01*
X53379626Y-36311714D02*
X53343340Y-36347999D01*
X64948340Y-66584856D02*
X64984626Y-66621142D01*
X64984626Y-66621142D02*
X65020911Y-66729999D01*
X65020911Y-66729999D02*
X65020911Y-66802571D01*
X65020911Y-66802571D02*
X64984626Y-66911428D01*
X64984626Y-66911428D02*
X64912054Y-66983999D01*
X64912054Y-66983999D02*
X64839483Y-67020285D01*
X64839483Y-67020285D02*
X64694340Y-67056571D01*
X64694340Y-67056571D02*
X64585483Y-67056571D01*
X64585483Y-67056571D02*
X64440340Y-67020285D01*
X64440340Y-67020285D02*
X64367768Y-66983999D01*
X64367768Y-66983999D02*
X64295197Y-66911428D01*
X64295197Y-66911428D02*
X64258911Y-66802571D01*
X64258911Y-66802571D02*
X64258911Y-66729999D01*
X64258911Y-66729999D02*
X64295197Y-66621142D01*
X64295197Y-66621142D02*
X64331483Y-66584856D01*
X65020911Y-65859142D02*
X65020911Y-66294571D01*
X65020911Y-66076856D02*
X64258911Y-66076856D01*
X64258911Y-66076856D02*
X64367768Y-66149428D01*
X64367768Y-66149428D02*
X64440340Y-66221999D01*
X64440340Y-66221999D02*
X64476626Y-66294571D01*
X64258911Y-65206000D02*
X64258911Y-65351142D01*
X64258911Y-65351142D02*
X64295197Y-65423714D01*
X64295197Y-65423714D02*
X64331483Y-65460000D01*
X64331483Y-65460000D02*
X64440340Y-65532571D01*
X64440340Y-65532571D02*
X64585483Y-65568857D01*
X64585483Y-65568857D02*
X64875768Y-65568857D01*
X64875768Y-65568857D02*
X64948340Y-65532571D01*
X64948340Y-65532571D02*
X64984626Y-65496285D01*
X64984626Y-65496285D02*
X65020911Y-65423714D01*
X65020911Y-65423714D02*
X65020911Y-65278571D01*
X65020911Y-65278571D02*
X64984626Y-65206000D01*
X64984626Y-65206000D02*
X64948340Y-65169714D01*
X64948340Y-65169714D02*
X64875768Y-65133428D01*
X64875768Y-65133428D02*
X64694340Y-65133428D01*
X64694340Y-65133428D02*
X64621768Y-65169714D01*
X64621768Y-65169714D02*
X64585483Y-65206000D01*
X64585483Y-65206000D02*
X64549197Y-65278571D01*
X64549197Y-65278571D02*
X64549197Y-65423714D01*
X64549197Y-65423714D02*
X64585483Y-65496285D01*
X64585483Y-65496285D02*
X64621768Y-65532571D01*
X64621768Y-65532571D02*
X64694340Y-65568857D01*
X37138428Y-56225911D02*
X37138428Y-55463911D01*
X37138428Y-55463911D02*
X37573857Y-56225911D01*
X37573857Y-56225911D02*
X37573857Y-55463911D01*
X38335857Y-56225911D02*
X37900428Y-56225911D01*
X38118143Y-56225911D02*
X38118143Y-55463911D01*
X38118143Y-55463911D02*
X38045571Y-55572768D01*
X38045571Y-55572768D02*
X37973000Y-55645340D01*
X37973000Y-55645340D02*
X37900428Y-55681626D01*
X65845911Y-36626999D02*
X65483054Y-36880999D01*
X65845911Y-37062428D02*
X65083911Y-37062428D01*
X65083911Y-37062428D02*
X65083911Y-36772142D01*
X65083911Y-36772142D02*
X65120197Y-36699571D01*
X65120197Y-36699571D02*
X65156483Y-36663285D01*
X65156483Y-36663285D02*
X65229054Y-36626999D01*
X65229054Y-36626999D02*
X65337911Y-36626999D01*
X65337911Y-36626999D02*
X65410483Y-36663285D01*
X65410483Y-36663285D02*
X65446768Y-36699571D01*
X65446768Y-36699571D02*
X65483054Y-36772142D01*
X65483054Y-36772142D02*
X65483054Y-37062428D01*
X65156483Y-36336714D02*
X65120197Y-36300428D01*
X65120197Y-36300428D02*
X65083911Y-36227857D01*
X65083911Y-36227857D02*
X65083911Y-36046428D01*
X65083911Y-36046428D02*
X65120197Y-35973857D01*
X65120197Y-35973857D02*
X65156483Y-35937571D01*
X65156483Y-35937571D02*
X65229054Y-35901285D01*
X65229054Y-35901285D02*
X65301626Y-35901285D01*
X65301626Y-35901285D02*
X65410483Y-35937571D01*
X65410483Y-35937571D02*
X65845911Y-36372999D01*
X65845911Y-36372999D02*
X65845911Y-35901285D01*
X75246000Y-60885911D02*
X75246000Y-61430197D01*
X75246000Y-61430197D02*
X75209715Y-61539054D01*
X75209715Y-61539054D02*
X75137143Y-61611626D01*
X75137143Y-61611626D02*
X75028286Y-61647911D01*
X75028286Y-61647911D02*
X74955715Y-61647911D01*
X75572571Y-60958483D02*
X75608857Y-60922197D01*
X75608857Y-60922197D02*
X75681429Y-60885911D01*
X75681429Y-60885911D02*
X75862857Y-60885911D01*
X75862857Y-60885911D02*
X75935429Y-60922197D01*
X75935429Y-60922197D02*
X75971714Y-60958483D01*
X75971714Y-60958483D02*
X76008000Y-61031054D01*
X76008000Y-61031054D02*
X76008000Y-61103626D01*
X76008000Y-61103626D02*
X75971714Y-61212483D01*
X75971714Y-61212483D02*
X75536286Y-61647911D01*
X75536286Y-61647911D02*
X76008000Y-61647911D01*
X53448340Y-66584856D02*
X53484626Y-66621142D01*
X53484626Y-66621142D02*
X53520911Y-66729999D01*
X53520911Y-66729999D02*
X53520911Y-66802571D01*
X53520911Y-66802571D02*
X53484626Y-66911428D01*
X53484626Y-66911428D02*
X53412054Y-66983999D01*
X53412054Y-66983999D02*
X53339483Y-67020285D01*
X53339483Y-67020285D02*
X53194340Y-67056571D01*
X53194340Y-67056571D02*
X53085483Y-67056571D01*
X53085483Y-67056571D02*
X52940340Y-67020285D01*
X52940340Y-67020285D02*
X52867768Y-66983999D01*
X52867768Y-66983999D02*
X52795197Y-66911428D01*
X52795197Y-66911428D02*
X52758911Y-66802571D01*
X52758911Y-66802571D02*
X52758911Y-66729999D01*
X52758911Y-66729999D02*
X52795197Y-66621142D01*
X52795197Y-66621142D02*
X52831483Y-66584856D01*
X52831483Y-66294571D02*
X52795197Y-66258285D01*
X52795197Y-66258285D02*
X52758911Y-66185714D01*
X52758911Y-66185714D02*
X52758911Y-66004285D01*
X52758911Y-66004285D02*
X52795197Y-65931714D01*
X52795197Y-65931714D02*
X52831483Y-65895428D01*
X52831483Y-65895428D02*
X52904054Y-65859142D01*
X52904054Y-65859142D02*
X52976626Y-65859142D01*
X52976626Y-65859142D02*
X53085483Y-65895428D01*
X53085483Y-65895428D02*
X53520911Y-66330856D01*
X53520911Y-66330856D02*
X53520911Y-65859142D01*
X52831483Y-65568857D02*
X52795197Y-65532571D01*
X52795197Y-65532571D02*
X52758911Y-65460000D01*
X52758911Y-65460000D02*
X52758911Y-65278571D01*
X52758911Y-65278571D02*
X52795197Y-65206000D01*
X52795197Y-65206000D02*
X52831483Y-65169714D01*
X52831483Y-65169714D02*
X52904054Y-65133428D01*
X52904054Y-65133428D02*
X52976626Y-65133428D01*
X52976626Y-65133428D02*
X53085483Y-65169714D01*
X53085483Y-65169714D02*
X53520911Y-65605142D01*
X53520911Y-65605142D02*
X53520911Y-65133428D01*
X72996000Y-55083911D02*
X72996000Y-55628197D01*
X72996000Y-55628197D02*
X72959715Y-55737054D01*
X72959715Y-55737054D02*
X72887143Y-55809626D01*
X72887143Y-55809626D02*
X72778286Y-55845911D01*
X72778286Y-55845911D02*
X72705715Y-55845911D01*
X73721714Y-55083911D02*
X73358857Y-55083911D01*
X73358857Y-55083911D02*
X73322571Y-55446768D01*
X73322571Y-55446768D02*
X73358857Y-55410483D01*
X73358857Y-55410483D02*
X73431429Y-55374197D01*
X73431429Y-55374197D02*
X73612857Y-55374197D01*
X73612857Y-55374197D02*
X73685429Y-55410483D01*
X73685429Y-55410483D02*
X73721714Y-55446768D01*
X73721714Y-55446768D02*
X73758000Y-55519340D01*
X73758000Y-55519340D02*
X73758000Y-55700768D01*
X73758000Y-55700768D02*
X73721714Y-55773340D01*
X73721714Y-55773340D02*
X73685429Y-55809626D01*
X73685429Y-55809626D02*
X73612857Y-55845911D01*
X73612857Y-55845911D02*
X73431429Y-55845911D01*
X73431429Y-55845911D02*
X73358857Y-55809626D01*
X73358857Y-55809626D02*
X73322571Y-55773340D01*
X75246000Y-64135911D02*
X75246000Y-64680197D01*
X75246000Y-64680197D02*
X75209715Y-64789054D01*
X75209715Y-64789054D02*
X75137143Y-64861626D01*
X75137143Y-64861626D02*
X75028286Y-64897911D01*
X75028286Y-64897911D02*
X74955715Y-64897911D01*
X75536286Y-64135911D02*
X76008000Y-64135911D01*
X76008000Y-64135911D02*
X75754000Y-64426197D01*
X75754000Y-64426197D02*
X75862857Y-64426197D01*
X75862857Y-64426197D02*
X75935429Y-64462483D01*
X75935429Y-64462483D02*
X75971714Y-64498768D01*
X75971714Y-64498768D02*
X76008000Y-64571340D01*
X76008000Y-64571340D02*
X76008000Y-64752768D01*
X76008000Y-64752768D02*
X75971714Y-64825340D01*
X75971714Y-64825340D02*
X75935429Y-64861626D01*
X75935429Y-64861626D02*
X75862857Y-64897911D01*
X75862857Y-64897911D02*
X75645143Y-64897911D01*
X75645143Y-64897911D02*
X75572571Y-64861626D01*
X75572571Y-64861626D02*
X75536286Y-64825340D01*
X61703340Y-36964856D02*
X61739626Y-37001142D01*
X61739626Y-37001142D02*
X61775911Y-37109999D01*
X61775911Y-37109999D02*
X61775911Y-37182571D01*
X61775911Y-37182571D02*
X61739626Y-37291428D01*
X61739626Y-37291428D02*
X61667054Y-37363999D01*
X61667054Y-37363999D02*
X61594483Y-37400285D01*
X61594483Y-37400285D02*
X61449340Y-37436571D01*
X61449340Y-37436571D02*
X61340483Y-37436571D01*
X61340483Y-37436571D02*
X61195340Y-37400285D01*
X61195340Y-37400285D02*
X61122768Y-37363999D01*
X61122768Y-37363999D02*
X61050197Y-37291428D01*
X61050197Y-37291428D02*
X61013911Y-37182571D01*
X61013911Y-37182571D02*
X61013911Y-37109999D01*
X61013911Y-37109999D02*
X61050197Y-37001142D01*
X61050197Y-37001142D02*
X61086483Y-36964856D01*
X61086483Y-36674571D02*
X61050197Y-36638285D01*
X61050197Y-36638285D02*
X61013911Y-36565714D01*
X61013911Y-36565714D02*
X61013911Y-36384285D01*
X61013911Y-36384285D02*
X61050197Y-36311714D01*
X61050197Y-36311714D02*
X61086483Y-36275428D01*
X61086483Y-36275428D02*
X61159054Y-36239142D01*
X61159054Y-36239142D02*
X61231626Y-36239142D01*
X61231626Y-36239142D02*
X61340483Y-36275428D01*
X61340483Y-36275428D02*
X61775911Y-36710856D01*
X61775911Y-36710856D02*
X61775911Y-36239142D01*
X61013911Y-35549714D02*
X61013911Y-35912571D01*
X61013911Y-35912571D02*
X61376768Y-35948857D01*
X61376768Y-35948857D02*
X61340483Y-35912571D01*
X61340483Y-35912571D02*
X61304197Y-35840000D01*
X61304197Y-35840000D02*
X61304197Y-35658571D01*
X61304197Y-35658571D02*
X61340483Y-35586000D01*
X61340483Y-35586000D02*
X61376768Y-35549714D01*
X61376768Y-35549714D02*
X61449340Y-35513428D01*
X61449340Y-35513428D02*
X61630768Y-35513428D01*
X61630768Y-35513428D02*
X61703340Y-35549714D01*
X61703340Y-35549714D02*
X61739626Y-35586000D01*
X61739626Y-35586000D02*
X61775911Y-35658571D01*
X61775911Y-35658571D02*
X61775911Y-35840000D01*
X61775911Y-35840000D02*
X61739626Y-35912571D01*
X61739626Y-35912571D02*
X61703340Y-35948857D01*
X59948340Y-62834856D02*
X59984626Y-62871142D01*
X59984626Y-62871142D02*
X60020911Y-62979999D01*
X60020911Y-62979999D02*
X60020911Y-63052571D01*
X60020911Y-63052571D02*
X59984626Y-63161428D01*
X59984626Y-63161428D02*
X59912054Y-63233999D01*
X59912054Y-63233999D02*
X59839483Y-63270285D01*
X59839483Y-63270285D02*
X59694340Y-63306571D01*
X59694340Y-63306571D02*
X59585483Y-63306571D01*
X59585483Y-63306571D02*
X59440340Y-63270285D01*
X59440340Y-63270285D02*
X59367768Y-63233999D01*
X59367768Y-63233999D02*
X59295197Y-63161428D01*
X59295197Y-63161428D02*
X59258911Y-63052571D01*
X59258911Y-63052571D02*
X59258911Y-62979999D01*
X59258911Y-62979999D02*
X59295197Y-62871142D01*
X59295197Y-62871142D02*
X59331483Y-62834856D01*
X59258911Y-62580856D02*
X59258911Y-62109142D01*
X59258911Y-62109142D02*
X59549197Y-62363142D01*
X59549197Y-62363142D02*
X59549197Y-62254285D01*
X59549197Y-62254285D02*
X59585483Y-62181714D01*
X59585483Y-62181714D02*
X59621768Y-62145428D01*
X59621768Y-62145428D02*
X59694340Y-62109142D01*
X59694340Y-62109142D02*
X59875768Y-62109142D01*
X59875768Y-62109142D02*
X59948340Y-62145428D01*
X59948340Y-62145428D02*
X59984626Y-62181714D01*
X59984626Y-62181714D02*
X60020911Y-62254285D01*
X60020911Y-62254285D02*
X60020911Y-62471999D01*
X60020911Y-62471999D02*
X59984626Y-62544571D01*
X59984626Y-62544571D02*
X59948340Y-62580856D01*
X60020911Y-61383428D02*
X60020911Y-61818857D01*
X60020911Y-61601142D02*
X59258911Y-61601142D01*
X59258911Y-61601142D02*
X59367768Y-61673714D01*
X59367768Y-61673714D02*
X59440340Y-61746285D01*
X59440340Y-61746285D02*
X59476626Y-61818857D01*
X64273340Y-36989856D02*
X64309626Y-37026142D01*
X64309626Y-37026142D02*
X64345911Y-37134999D01*
X64345911Y-37134999D02*
X64345911Y-37207571D01*
X64345911Y-37207571D02*
X64309626Y-37316428D01*
X64309626Y-37316428D02*
X64237054Y-37388999D01*
X64237054Y-37388999D02*
X64164483Y-37425285D01*
X64164483Y-37425285D02*
X64019340Y-37461571D01*
X64019340Y-37461571D02*
X63910483Y-37461571D01*
X63910483Y-37461571D02*
X63765340Y-37425285D01*
X63765340Y-37425285D02*
X63692768Y-37388999D01*
X63692768Y-37388999D02*
X63620197Y-37316428D01*
X63620197Y-37316428D02*
X63583911Y-37207571D01*
X63583911Y-37207571D02*
X63583911Y-37134999D01*
X63583911Y-37134999D02*
X63620197Y-37026142D01*
X63620197Y-37026142D02*
X63656483Y-36989856D01*
X63656483Y-36699571D02*
X63620197Y-36663285D01*
X63620197Y-36663285D02*
X63583911Y-36590714D01*
X63583911Y-36590714D02*
X63583911Y-36409285D01*
X63583911Y-36409285D02*
X63620197Y-36336714D01*
X63620197Y-36336714D02*
X63656483Y-36300428D01*
X63656483Y-36300428D02*
X63729054Y-36264142D01*
X63729054Y-36264142D02*
X63801626Y-36264142D01*
X63801626Y-36264142D02*
X63910483Y-36300428D01*
X63910483Y-36300428D02*
X64345911Y-36735856D01*
X64345911Y-36735856D02*
X64345911Y-36264142D01*
X64345911Y-35901285D02*
X64345911Y-35756142D01*
X64345911Y-35756142D02*
X64309626Y-35683571D01*
X64309626Y-35683571D02*
X64273340Y-35647285D01*
X64273340Y-35647285D02*
X64164483Y-35574714D01*
X64164483Y-35574714D02*
X64019340Y-35538428D01*
X64019340Y-35538428D02*
X63729054Y-35538428D01*
X63729054Y-35538428D02*
X63656483Y-35574714D01*
X63656483Y-35574714D02*
X63620197Y-35611000D01*
X63620197Y-35611000D02*
X63583911Y-35683571D01*
X63583911Y-35683571D02*
X63583911Y-35828714D01*
X63583911Y-35828714D02*
X63620197Y-35901285D01*
X63620197Y-35901285D02*
X63656483Y-35937571D01*
X63656483Y-35937571D02*
X63729054Y-35973857D01*
X63729054Y-35973857D02*
X63910483Y-35973857D01*
X63910483Y-35973857D02*
X63983054Y-35937571D01*
X63983054Y-35937571D02*
X64019340Y-35901285D01*
X64019340Y-35901285D02*
X64055626Y-35828714D01*
X64055626Y-35828714D02*
X64055626Y-35683571D01*
X64055626Y-35683571D02*
X64019340Y-35611000D01*
X64019340Y-35611000D02*
X63983054Y-35574714D01*
X63983054Y-35574714D02*
X63910483Y-35538428D01*
X54090911Y-62834856D02*
X53728054Y-63088856D01*
X54090911Y-63270285D02*
X53328911Y-63270285D01*
X53328911Y-63270285D02*
X53328911Y-62979999D01*
X53328911Y-62979999D02*
X53365197Y-62907428D01*
X53365197Y-62907428D02*
X53401483Y-62871142D01*
X53401483Y-62871142D02*
X53474054Y-62834856D01*
X53474054Y-62834856D02*
X53582911Y-62834856D01*
X53582911Y-62834856D02*
X53655483Y-62871142D01*
X53655483Y-62871142D02*
X53691768Y-62907428D01*
X53691768Y-62907428D02*
X53728054Y-62979999D01*
X53728054Y-62979999D02*
X53728054Y-63270285D01*
X54090911Y-62109142D02*
X54090911Y-62544571D01*
X54090911Y-62326856D02*
X53328911Y-62326856D01*
X53328911Y-62326856D02*
X53437768Y-62399428D01*
X53437768Y-62399428D02*
X53510340Y-62471999D01*
X53510340Y-62471999D02*
X53546626Y-62544571D01*
X53328911Y-61637428D02*
X53328911Y-61564857D01*
X53328911Y-61564857D02*
X53365197Y-61492285D01*
X53365197Y-61492285D02*
X53401483Y-61456000D01*
X53401483Y-61456000D02*
X53474054Y-61419714D01*
X53474054Y-61419714D02*
X53619197Y-61383428D01*
X53619197Y-61383428D02*
X53800626Y-61383428D01*
X53800626Y-61383428D02*
X53945768Y-61419714D01*
X53945768Y-61419714D02*
X54018340Y-61456000D01*
X54018340Y-61456000D02*
X54054626Y-61492285D01*
X54054626Y-61492285D02*
X54090911Y-61564857D01*
X54090911Y-61564857D02*
X54090911Y-61637428D01*
X54090911Y-61637428D02*
X54054626Y-61710000D01*
X54054626Y-61710000D02*
X54018340Y-61746285D01*
X54018340Y-61746285D02*
X53945768Y-61782571D01*
X53945768Y-61782571D02*
X53800626Y-61818857D01*
X53800626Y-61818857D02*
X53619197Y-61818857D01*
X53619197Y-61818857D02*
X53474054Y-61782571D01*
X53474054Y-61782571D02*
X53401483Y-61746285D01*
X53401483Y-61746285D02*
X53365197Y-61710000D01*
X53365197Y-61710000D02*
X53328911Y-61637428D01*
X66453340Y-40714856D02*
X66489626Y-40751142D01*
X66489626Y-40751142D02*
X66525911Y-40859999D01*
X66525911Y-40859999D02*
X66525911Y-40932571D01*
X66525911Y-40932571D02*
X66489626Y-41041428D01*
X66489626Y-41041428D02*
X66417054Y-41113999D01*
X66417054Y-41113999D02*
X66344483Y-41150285D01*
X66344483Y-41150285D02*
X66199340Y-41186571D01*
X66199340Y-41186571D02*
X66090483Y-41186571D01*
X66090483Y-41186571D02*
X65945340Y-41150285D01*
X65945340Y-41150285D02*
X65872768Y-41113999D01*
X65872768Y-41113999D02*
X65800197Y-41041428D01*
X65800197Y-41041428D02*
X65763911Y-40932571D01*
X65763911Y-40932571D02*
X65763911Y-40859999D01*
X65763911Y-40859999D02*
X65800197Y-40751142D01*
X65800197Y-40751142D02*
X65836483Y-40714856D01*
X66525911Y-39989142D02*
X66525911Y-40424571D01*
X66525911Y-40206856D02*
X65763911Y-40206856D01*
X65763911Y-40206856D02*
X65872768Y-40279428D01*
X65872768Y-40279428D02*
X65945340Y-40351999D01*
X65945340Y-40351999D02*
X65981626Y-40424571D01*
X65763911Y-39517428D02*
X65763911Y-39444857D01*
X65763911Y-39444857D02*
X65800197Y-39372285D01*
X65800197Y-39372285D02*
X65836483Y-39336000D01*
X65836483Y-39336000D02*
X65909054Y-39299714D01*
X65909054Y-39299714D02*
X66054197Y-39263428D01*
X66054197Y-39263428D02*
X66235626Y-39263428D01*
X66235626Y-39263428D02*
X66380768Y-39299714D01*
X66380768Y-39299714D02*
X66453340Y-39336000D01*
X66453340Y-39336000D02*
X66489626Y-39372285D01*
X66489626Y-39372285D02*
X66525911Y-39444857D01*
X66525911Y-39444857D02*
X66525911Y-39517428D01*
X66525911Y-39517428D02*
X66489626Y-39590000D01*
X66489626Y-39590000D02*
X66453340Y-39626285D01*
X66453340Y-39626285D02*
X66380768Y-39662571D01*
X66380768Y-39662571D02*
X66235626Y-39698857D01*
X66235626Y-39698857D02*
X66054197Y-39698857D01*
X66054197Y-39698857D02*
X65909054Y-39662571D01*
X65909054Y-39662571D02*
X65836483Y-39626285D01*
X65836483Y-39626285D02*
X65800197Y-39590000D01*
X65800197Y-39590000D02*
X65763911Y-39517428D01*
X58273340Y-39739856D02*
X58309626Y-39776142D01*
X58309626Y-39776142D02*
X58345911Y-39884999D01*
X58345911Y-39884999D02*
X58345911Y-39957571D01*
X58345911Y-39957571D02*
X58309626Y-40066428D01*
X58309626Y-40066428D02*
X58237054Y-40138999D01*
X58237054Y-40138999D02*
X58164483Y-40175285D01*
X58164483Y-40175285D02*
X58019340Y-40211571D01*
X58019340Y-40211571D02*
X57910483Y-40211571D01*
X57910483Y-40211571D02*
X57765340Y-40175285D01*
X57765340Y-40175285D02*
X57692768Y-40138999D01*
X57692768Y-40138999D02*
X57620197Y-40066428D01*
X57620197Y-40066428D02*
X57583911Y-39957571D01*
X57583911Y-39957571D02*
X57583911Y-39884999D01*
X57583911Y-39884999D02*
X57620197Y-39776142D01*
X57620197Y-39776142D02*
X57656483Y-39739856D01*
X57656483Y-39449571D02*
X57620197Y-39413285D01*
X57620197Y-39413285D02*
X57583911Y-39340714D01*
X57583911Y-39340714D02*
X57583911Y-39159285D01*
X57583911Y-39159285D02*
X57620197Y-39086714D01*
X57620197Y-39086714D02*
X57656483Y-39050428D01*
X57656483Y-39050428D02*
X57729054Y-39014142D01*
X57729054Y-39014142D02*
X57801626Y-39014142D01*
X57801626Y-39014142D02*
X57910483Y-39050428D01*
X57910483Y-39050428D02*
X58345911Y-39485856D01*
X58345911Y-39485856D02*
X58345911Y-39014142D01*
X57910483Y-38578714D02*
X57874197Y-38651285D01*
X57874197Y-38651285D02*
X57837911Y-38687571D01*
X57837911Y-38687571D02*
X57765340Y-38723857D01*
X57765340Y-38723857D02*
X57729054Y-38723857D01*
X57729054Y-38723857D02*
X57656483Y-38687571D01*
X57656483Y-38687571D02*
X57620197Y-38651285D01*
X57620197Y-38651285D02*
X57583911Y-38578714D01*
X57583911Y-38578714D02*
X57583911Y-38433571D01*
X57583911Y-38433571D02*
X57620197Y-38361000D01*
X57620197Y-38361000D02*
X57656483Y-38324714D01*
X57656483Y-38324714D02*
X57729054Y-38288428D01*
X57729054Y-38288428D02*
X57765340Y-38288428D01*
X57765340Y-38288428D02*
X57837911Y-38324714D01*
X57837911Y-38324714D02*
X57874197Y-38361000D01*
X57874197Y-38361000D02*
X57910483Y-38433571D01*
X57910483Y-38433571D02*
X57910483Y-38578714D01*
X57910483Y-38578714D02*
X57946768Y-38651285D01*
X57946768Y-38651285D02*
X57983054Y-38687571D01*
X57983054Y-38687571D02*
X58055626Y-38723857D01*
X58055626Y-38723857D02*
X58200768Y-38723857D01*
X58200768Y-38723857D02*
X58273340Y-38687571D01*
X58273340Y-38687571D02*
X58309626Y-38651285D01*
X58309626Y-38651285D02*
X58345911Y-38578714D01*
X58345911Y-38578714D02*
X58345911Y-38433571D01*
X58345911Y-38433571D02*
X58309626Y-38361000D01*
X58309626Y-38361000D02*
X58273340Y-38324714D01*
X58273340Y-38324714D02*
X58200768Y-38288428D01*
X58200768Y-38288428D02*
X58055626Y-38288428D01*
X58055626Y-38288428D02*
X57983054Y-38324714D01*
X57983054Y-38324714D02*
X57946768Y-38361000D01*
X57946768Y-38361000D02*
X57910483Y-38433571D01*
X63520911Y-62471999D02*
X63158054Y-62725999D01*
X63520911Y-62907428D02*
X62758911Y-62907428D01*
X62758911Y-62907428D02*
X62758911Y-62617142D01*
X62758911Y-62617142D02*
X62795197Y-62544571D01*
X62795197Y-62544571D02*
X62831483Y-62508285D01*
X62831483Y-62508285D02*
X62904054Y-62471999D01*
X62904054Y-62471999D02*
X63012911Y-62471999D01*
X63012911Y-62471999D02*
X63085483Y-62508285D01*
X63085483Y-62508285D02*
X63121768Y-62544571D01*
X63121768Y-62544571D02*
X63158054Y-62617142D01*
X63158054Y-62617142D02*
X63158054Y-62907428D01*
X62758911Y-61818857D02*
X62758911Y-61963999D01*
X62758911Y-61963999D02*
X62795197Y-62036571D01*
X62795197Y-62036571D02*
X62831483Y-62072857D01*
X62831483Y-62072857D02*
X62940340Y-62145428D01*
X62940340Y-62145428D02*
X63085483Y-62181714D01*
X63085483Y-62181714D02*
X63375768Y-62181714D01*
X63375768Y-62181714D02*
X63448340Y-62145428D01*
X63448340Y-62145428D02*
X63484626Y-62109142D01*
X63484626Y-62109142D02*
X63520911Y-62036571D01*
X63520911Y-62036571D02*
X63520911Y-61891428D01*
X63520911Y-61891428D02*
X63484626Y-61818857D01*
X63484626Y-61818857D02*
X63448340Y-61782571D01*
X63448340Y-61782571D02*
X63375768Y-61746285D01*
X63375768Y-61746285D02*
X63194340Y-61746285D01*
X63194340Y-61746285D02*
X63121768Y-61782571D01*
X63121768Y-61782571D02*
X63085483Y-61818857D01*
X63085483Y-61818857D02*
X63049197Y-61891428D01*
X63049197Y-61891428D02*
X63049197Y-62036571D01*
X63049197Y-62036571D02*
X63085483Y-62109142D01*
X63085483Y-62109142D02*
X63121768Y-62145428D01*
X63121768Y-62145428D02*
X63194340Y-62181714D01*
X75793600Y-45710311D02*
X75793600Y-46254597D01*
X75793600Y-46254597D02*
X75757315Y-46363454D01*
X75757315Y-46363454D02*
X75684743Y-46436026D01*
X75684743Y-46436026D02*
X75575886Y-46472311D01*
X75575886Y-46472311D02*
X75503315Y-46472311D01*
X76483029Y-45964311D02*
X76483029Y-46472311D01*
X76301600Y-45674026D02*
X76120171Y-46218311D01*
X76120171Y-46218311D02*
X76591886Y-46218311D01*
D10*
X76035797Y-43704953D02*
X75464202Y-43704953D01*
X75750000Y-43704953D02*
X75750000Y-42704662D01*
X75750000Y-42704662D02*
X75654734Y-42847561D01*
X75654734Y-42847561D02*
X75559468Y-42942827D01*
X75559468Y-42942827D02*
X75464202Y-42990460D01*
X75464245Y-48799994D02*
X75511871Y-48752368D01*
X75511871Y-48752368D02*
X75607122Y-48704742D01*
X75607122Y-48704742D02*
X75845251Y-48704742D01*
X75845251Y-48704742D02*
X75940503Y-48752368D01*
X75940503Y-48752368D02*
X75988129Y-48799994D01*
X75988129Y-48799994D02*
X76035754Y-48895246D01*
X76035754Y-48895246D02*
X76035754Y-48990497D01*
X76035754Y-48990497D02*
X75988129Y-49133375D01*
X75988129Y-49133375D02*
X75416619Y-49704884D01*
X75416619Y-49704884D02*
X76035754Y-49704884D01*
D11*
X50770911Y-66609856D02*
X50408054Y-66863856D01*
X50770911Y-67045285D02*
X50008911Y-67045285D01*
X50008911Y-67045285D02*
X50008911Y-66754999D01*
X50008911Y-66754999D02*
X50045197Y-66682428D01*
X50045197Y-66682428D02*
X50081483Y-66646142D01*
X50081483Y-66646142D02*
X50154054Y-66609856D01*
X50154054Y-66609856D02*
X50262911Y-66609856D01*
X50262911Y-66609856D02*
X50335483Y-66646142D01*
X50335483Y-66646142D02*
X50371768Y-66682428D01*
X50371768Y-66682428D02*
X50408054Y-66754999D01*
X50408054Y-66754999D02*
X50408054Y-67045285D01*
X50770911Y-65884142D02*
X50770911Y-66319571D01*
X50770911Y-66101856D02*
X50008911Y-66101856D01*
X50008911Y-66101856D02*
X50117768Y-66174428D01*
X50117768Y-66174428D02*
X50190340Y-66246999D01*
X50190340Y-66246999D02*
X50226626Y-66319571D01*
X50081483Y-65593857D02*
X50045197Y-65557571D01*
X50045197Y-65557571D02*
X50008911Y-65485000D01*
X50008911Y-65485000D02*
X50008911Y-65303571D01*
X50008911Y-65303571D02*
X50045197Y-65231000D01*
X50045197Y-65231000D02*
X50081483Y-65194714D01*
X50081483Y-65194714D02*
X50154054Y-65158428D01*
X50154054Y-65158428D02*
X50226626Y-65158428D01*
X50226626Y-65158428D02*
X50335483Y-65194714D01*
X50335483Y-65194714D02*
X50770911Y-65630142D01*
X50770911Y-65630142D02*
X50770911Y-65158428D01*
X61665911Y-40351999D02*
X61303054Y-40605999D01*
X61665911Y-40787428D02*
X60903911Y-40787428D01*
X60903911Y-40787428D02*
X60903911Y-40497142D01*
X60903911Y-40497142D02*
X60940197Y-40424571D01*
X60940197Y-40424571D02*
X60976483Y-40388285D01*
X60976483Y-40388285D02*
X61049054Y-40351999D01*
X61049054Y-40351999D02*
X61157911Y-40351999D01*
X61157911Y-40351999D02*
X61230483Y-40388285D01*
X61230483Y-40388285D02*
X61266768Y-40424571D01*
X61266768Y-40424571D02*
X61303054Y-40497142D01*
X61303054Y-40497142D02*
X61303054Y-40787428D01*
X61157911Y-39698857D02*
X61665911Y-39698857D01*
X60867626Y-39880285D02*
X61411911Y-40061714D01*
X61411911Y-40061714D02*
X61411911Y-39589999D01*
X67843340Y-40714856D02*
X67879626Y-40751142D01*
X67879626Y-40751142D02*
X67915911Y-40859999D01*
X67915911Y-40859999D02*
X67915911Y-40932571D01*
X67915911Y-40932571D02*
X67879626Y-41041428D01*
X67879626Y-41041428D02*
X67807054Y-41113999D01*
X67807054Y-41113999D02*
X67734483Y-41150285D01*
X67734483Y-41150285D02*
X67589340Y-41186571D01*
X67589340Y-41186571D02*
X67480483Y-41186571D01*
X67480483Y-41186571D02*
X67335340Y-41150285D01*
X67335340Y-41150285D02*
X67262768Y-41113999D01*
X67262768Y-41113999D02*
X67190197Y-41041428D01*
X67190197Y-41041428D02*
X67153911Y-40932571D01*
X67153911Y-40932571D02*
X67153911Y-40859999D01*
X67153911Y-40859999D02*
X67190197Y-40751142D01*
X67190197Y-40751142D02*
X67226483Y-40714856D01*
X67153911Y-40460856D02*
X67153911Y-39989142D01*
X67153911Y-39989142D02*
X67444197Y-40243142D01*
X67444197Y-40243142D02*
X67444197Y-40134285D01*
X67444197Y-40134285D02*
X67480483Y-40061714D01*
X67480483Y-40061714D02*
X67516768Y-40025428D01*
X67516768Y-40025428D02*
X67589340Y-39989142D01*
X67589340Y-39989142D02*
X67770768Y-39989142D01*
X67770768Y-39989142D02*
X67843340Y-40025428D01*
X67843340Y-40025428D02*
X67879626Y-40061714D01*
X67879626Y-40061714D02*
X67915911Y-40134285D01*
X67915911Y-40134285D02*
X67915911Y-40351999D01*
X67915911Y-40351999D02*
X67879626Y-40424571D01*
X67879626Y-40424571D02*
X67843340Y-40460856D01*
X67153911Y-39517428D02*
X67153911Y-39444857D01*
X67153911Y-39444857D02*
X67190197Y-39372285D01*
X67190197Y-39372285D02*
X67226483Y-39336000D01*
X67226483Y-39336000D02*
X67299054Y-39299714D01*
X67299054Y-39299714D02*
X67444197Y-39263428D01*
X67444197Y-39263428D02*
X67625626Y-39263428D01*
X67625626Y-39263428D02*
X67770768Y-39299714D01*
X67770768Y-39299714D02*
X67843340Y-39336000D01*
X67843340Y-39336000D02*
X67879626Y-39372285D01*
X67879626Y-39372285D02*
X67915911Y-39444857D01*
X67915911Y-39444857D02*
X67915911Y-39517428D01*
X67915911Y-39517428D02*
X67879626Y-39590000D01*
X67879626Y-39590000D02*
X67843340Y-39626285D01*
X67843340Y-39626285D02*
X67770768Y-39662571D01*
X67770768Y-39662571D02*
X67625626Y-39698857D01*
X67625626Y-39698857D02*
X67444197Y-39698857D01*
X67444197Y-39698857D02*
X67299054Y-39662571D01*
X67299054Y-39662571D02*
X67226483Y-39626285D01*
X67226483Y-39626285D02*
X67190197Y-39590000D01*
X67190197Y-39590000D02*
X67153911Y-39517428D01*
X56198340Y-66246999D02*
X56234626Y-66283285D01*
X56234626Y-66283285D02*
X56270911Y-66392142D01*
X56270911Y-66392142D02*
X56270911Y-66464714D01*
X56270911Y-66464714D02*
X56234626Y-66573571D01*
X56234626Y-66573571D02*
X56162054Y-66646142D01*
X56162054Y-66646142D02*
X56089483Y-66682428D01*
X56089483Y-66682428D02*
X55944340Y-66718714D01*
X55944340Y-66718714D02*
X55835483Y-66718714D01*
X55835483Y-66718714D02*
X55690340Y-66682428D01*
X55690340Y-66682428D02*
X55617768Y-66646142D01*
X55617768Y-66646142D02*
X55545197Y-66573571D01*
X55545197Y-66573571D02*
X55508911Y-66464714D01*
X55508911Y-66464714D02*
X55508911Y-66392142D01*
X55508911Y-66392142D02*
X55545197Y-66283285D01*
X55545197Y-66283285D02*
X55581483Y-66246999D01*
X55581483Y-65956714D02*
X55545197Y-65920428D01*
X55545197Y-65920428D02*
X55508911Y-65847857D01*
X55508911Y-65847857D02*
X55508911Y-65666428D01*
X55508911Y-65666428D02*
X55545197Y-65593857D01*
X55545197Y-65593857D02*
X55581483Y-65557571D01*
X55581483Y-65557571D02*
X55654054Y-65521285D01*
X55654054Y-65521285D02*
X55726626Y-65521285D01*
X55726626Y-65521285D02*
X55835483Y-65557571D01*
X55835483Y-65557571D02*
X56270911Y-65992999D01*
X56270911Y-65992999D02*
X56270911Y-65521285D01*
X50768340Y-62471999D02*
X50804626Y-62508285D01*
X50804626Y-62508285D02*
X50840911Y-62617142D01*
X50840911Y-62617142D02*
X50840911Y-62689714D01*
X50840911Y-62689714D02*
X50804626Y-62798571D01*
X50804626Y-62798571D02*
X50732054Y-62871142D01*
X50732054Y-62871142D02*
X50659483Y-62907428D01*
X50659483Y-62907428D02*
X50514340Y-62943714D01*
X50514340Y-62943714D02*
X50405483Y-62943714D01*
X50405483Y-62943714D02*
X50260340Y-62907428D01*
X50260340Y-62907428D02*
X50187768Y-62871142D01*
X50187768Y-62871142D02*
X50115197Y-62798571D01*
X50115197Y-62798571D02*
X50078911Y-62689714D01*
X50078911Y-62689714D02*
X50078911Y-62617142D01*
X50078911Y-62617142D02*
X50115197Y-62508285D01*
X50115197Y-62508285D02*
X50151483Y-62471999D01*
X50840911Y-61746285D02*
X50840911Y-62181714D01*
X50840911Y-61963999D02*
X50078911Y-61963999D01*
X50078911Y-61963999D02*
X50187768Y-62036571D01*
X50187768Y-62036571D02*
X50260340Y-62109142D01*
X50260340Y-62109142D02*
X50296626Y-62181714D01*
D12*
%TO.C,C4*%
X59490000Y-40365580D02*
X59490000Y-40084420D01*
X60510000Y-40365580D02*
X60510000Y-40084420D01*
%TO.C,C24*%
X50552500Y-52390580D02*
X50552500Y-52109420D01*
X51572500Y-52390580D02*
X51572500Y-52109420D01*
%TO.C,R14*%
X57477500Y-36712258D02*
X57477500Y-36237742D01*
X58522500Y-36712258D02*
X58522500Y-36237742D01*
%TO.C,R16*%
X53977500Y-40462258D02*
X53977500Y-39987742D01*
X55022500Y-40462258D02*
X55022500Y-39987742D01*
%TO.C,C14*%
X62010000Y-52109420D02*
X62010000Y-52390580D01*
X60990000Y-52109420D02*
X60990000Y-52390580D01*
%TO.C,C20*%
X53635000Y-52134420D02*
X53635000Y-52415580D01*
X52615000Y-52134420D02*
X52615000Y-52415580D01*
%TO.C,C26*%
X45572500Y-52134420D02*
X45572500Y-52415580D01*
X44552500Y-52134420D02*
X44552500Y-52415580D01*
%TO.C,C13*%
X67435000Y-62204420D02*
X67435000Y-62485580D01*
X66415000Y-62204420D02*
X66415000Y-62485580D01*
%TO.C,C32*%
X67435000Y-65704420D02*
X67435000Y-65985580D01*
X66415000Y-65704420D02*
X66415000Y-65985580D01*
%TO.C,C7*%
X69510000Y-36334420D02*
X69510000Y-36615580D01*
X68490000Y-36334420D02*
X68490000Y-36615580D01*
%TO.C,C19*%
X57685000Y-62204420D02*
X57685000Y-62485580D01*
X56665000Y-62204420D02*
X56665000Y-62485580D01*
%TO.C,C9*%
X70990000Y-52370580D02*
X70990000Y-52089420D01*
X72010000Y-52370580D02*
X72010000Y-52089420D01*
%TO.C,C18*%
X58740000Y-52390580D02*
X58740000Y-52109420D01*
X59760000Y-52390580D02*
X59760000Y-52109420D01*
%TO.C,J1*%
X74800000Y-58800000D02*
X76200000Y-58800000D01*
X74800000Y-60200000D02*
X74800000Y-58800000D01*
X76200000Y-58800000D02*
X76200000Y-60200000D01*
X76200000Y-60200000D02*
X74800000Y-60200000D01*
%TO.C,R8*%
X62652500Y-66342258D02*
X62652500Y-65867742D01*
X63697500Y-66342258D02*
X63697500Y-65867742D01*
%TO.C,C5*%
X74260000Y-52134420D02*
X74260000Y-52415580D01*
X73240000Y-52134420D02*
X73240000Y-52415580D01*
%TO.C,C12*%
X66990000Y-52370580D02*
X66990000Y-52089420D01*
X68010000Y-52370580D02*
X68010000Y-52089420D01*
%TO.C,C3*%
X53990000Y-36615580D02*
X53990000Y-36334420D01*
X55010000Y-36615580D02*
X55010000Y-36334420D01*
%TO.C,C16*%
X61435000Y-65954420D02*
X61435000Y-66235580D01*
X60415000Y-65954420D02*
X60415000Y-66235580D01*
%TO.C,C17*%
X57760000Y-52109420D02*
X57760000Y-52390580D01*
X56740000Y-52109420D02*
X56740000Y-52390580D01*
%TO.C,C21*%
X54615000Y-52410580D02*
X54615000Y-52129420D01*
X55635000Y-52410580D02*
X55635000Y-52129420D01*
D13*
%TO.C,N1*%
X51542458Y-36805958D02*
G75*
G03*
X51542458Y-36805958I-1251958J0D01*
G01*
X71542458Y-65314000D02*
G75*
G03*
X71542458Y-65314000I-1251958J0D01*
G01*
D12*
%TO.C,C8*%
X70010000Y-52109420D02*
X70010000Y-52390580D01*
X68990000Y-52109420D02*
X68990000Y-52390580D01*
%TO.C,R2*%
X66227500Y-36712258D02*
X66227500Y-36237742D01*
X67272500Y-36712258D02*
X67272500Y-36237742D01*
%TO.C,J2*%
X74800000Y-62050000D02*
X76200000Y-62050000D01*
X74800000Y-63450000D02*
X74800000Y-62050000D01*
X76200000Y-62050000D02*
X76200000Y-63450000D01*
X76200000Y-63450000D02*
X74800000Y-63450000D01*
%TO.C,C11*%
X66260000Y-52109420D02*
X66260000Y-52390580D01*
X65240000Y-52109420D02*
X65240000Y-52390580D01*
%TO.C,C22*%
X52435000Y-65954420D02*
X52435000Y-66235580D01*
X51415000Y-65954420D02*
X51415000Y-66235580D01*
D14*
%TO.C,J5*%
X48705000Y-55389800D02*
X48810000Y-55389800D01*
X48705000Y-58439800D02*
X48705000Y-55389800D01*
X48810000Y-58439800D02*
X48705000Y-58439800D01*
X71840000Y-55389800D02*
X71945000Y-55389800D01*
X71840000Y-58439800D02*
X71945000Y-58439800D01*
X71945000Y-55389800D02*
X71945000Y-58439800D01*
X72695000Y-58279800D02*
G75*
G03*
X72695000Y-58279800I-100000J0D01*
G01*
D12*
%TO.C,C15*%
X62990000Y-52370580D02*
X62990000Y-52089420D01*
X64010000Y-52370580D02*
X64010000Y-52089420D01*
%TO.C,J3*%
X74800000Y-65300000D02*
X76200000Y-65300000D01*
X74800000Y-66700000D02*
X74800000Y-65300000D01*
X76200000Y-65300000D02*
X76200000Y-66700000D01*
X76200000Y-66700000D02*
X74800000Y-66700000D01*
%TO.C,C25*%
X60510000Y-36334420D02*
X60510000Y-36615580D01*
X59490000Y-36334420D02*
X59490000Y-36615580D01*
%TO.C,C31*%
X60415000Y-62485580D02*
X60415000Y-62204420D01*
X61435000Y-62485580D02*
X61435000Y-62204420D01*
%TO.C,C29*%
X62240000Y-36615580D02*
X62240000Y-36334420D01*
X63260000Y-36615580D02*
X63260000Y-36334420D01*
%TO.C,R10*%
X54652500Y-62582258D02*
X54652500Y-62107742D01*
X55697500Y-62582258D02*
X55697500Y-62107742D01*
%TO.C,C10*%
X65260000Y-40084420D02*
X65260000Y-40365580D01*
X64240000Y-40084420D02*
X64240000Y-40365580D01*
%TO.C,C28*%
X57260000Y-40084420D02*
X57260000Y-40365580D01*
X56240000Y-40084420D02*
X56240000Y-40365580D01*
%TO.C,R6*%
X63902500Y-62582258D02*
X63902500Y-62107742D01*
X64947500Y-62582258D02*
X64947500Y-62107742D01*
D11*
%TO.C,J4*%
X74803000Y-50165000D02*
X72847200Y-50165000D01*
X74803000Y-42799000D02*
X74803000Y-50165000D01*
X72847200Y-50419000D02*
X47802800Y-50419000D01*
X72847200Y-50165000D02*
X72847200Y-50419000D01*
X47802800Y-50419000D02*
X47802800Y-50165000D01*
X47802800Y-50165000D02*
X45847000Y-50165000D01*
X45847000Y-50165000D02*
X45847000Y-42799000D01*
X45847000Y-42799000D02*
X74803000Y-42799000D01*
D12*
%TO.C,R12*%
X53902500Y-66342258D02*
X53902500Y-65867742D01*
X54947500Y-66342258D02*
X54947500Y-65867742D01*
%TO.C,C6*%
X75179000Y-52390580D02*
X75179000Y-52109420D01*
X76199000Y-52390580D02*
X76199000Y-52109420D01*
%TO.C,R4*%
X62227500Y-40462258D02*
X62227500Y-39987742D01*
X63272500Y-40462258D02*
X63272500Y-39987742D01*
%TO.C,C23*%
X49822500Y-52134420D02*
X49822500Y-52415580D01*
X48802500Y-52134420D02*
X48802500Y-52415580D01*
%TO.C,C27*%
X46240000Y-52430580D02*
X46240000Y-52149420D01*
X47260000Y-52430580D02*
X47260000Y-52149420D01*
%TO.C,C30*%
X68490000Y-40365580D02*
X68490000Y-40084420D01*
X69510000Y-40365580D02*
X69510000Y-40084420D01*
%TO.C,C2*%
X57685000Y-65954420D02*
X57685000Y-66235580D01*
X56665000Y-65954420D02*
X56665000Y-66235580D01*
%TO.C,C1*%
X51415000Y-62485580D02*
X51415000Y-62204420D01*
X52435000Y-62485580D02*
X52435000Y-62204420D01*
%TD*%
M02*
