%TF.GenerationSoftware,KiCad,Pcbnew,7.0.6-7.0.6~ubuntu22.04.1*%
%TF.CreationDate,2023-07-31T15:05:58-04:00*%
%TF.ProjectId,readout-box,72656164-6f75-4742-9d62-6f782e6b6963,rev?*%
%TF.SameCoordinates,Original*%
%TF.FileFunction,Copper,L4,Bot*%
%TF.FilePolarity,Positive*%
%FSLAX46Y46*%
G04 Gerber Fmt 4.6, Leading zero omitted, Abs format (unit mm)*
G04 Created by KiCad (PCBNEW 7.0.6-7.0.6~ubuntu22.04.1) date 2023-07-31 15:05:58*
%MOMM*%
%LPD*%
G01*
G04 APERTURE LIST*
G04 Aperture macros list*
%AMRoundRect*
0 Rectangle with rounded corners*
0 $1 Rounding radius*
0 $2 $3 $4 $5 $6 $7 $8 $9 X,Y pos of 4 corners*
0 Add a 4 corners polygon primitive as box body*
4,1,4,$2,$3,$4,$5,$6,$7,$8,$9,$2,$3,0*
0 Add four circle primitives for the rounded corners*
1,1,$1+$1,$2,$3*
1,1,$1+$1,$4,$5*
1,1,$1+$1,$6,$7*
1,1,$1+$1,$8,$9*
0 Add four rect primitives between the rounded corners*
20,1,$1+$1,$2,$3,$4,$5,0*
20,1,$1+$1,$4,$5,$6,$7,0*
20,1,$1+$1,$6,$7,$8,$9,0*
20,1,$1+$1,$8,$9,$2,$3,0*%
G04 Aperture macros list end*
%TA.AperFunction,ComponentPad*%
%ADD10R,1.000000X1.000000*%
%TD*%
%TA.AperFunction,SMDPad,CuDef*%
%ADD11RoundRect,0.150000X0.725000X0.150000X-0.725000X0.150000X-0.725000X-0.150000X0.725000X-0.150000X0*%
%TD*%
%TA.AperFunction,SMDPad,CuDef*%
%ADD12RoundRect,0.150000X0.587500X0.150000X-0.587500X0.150000X-0.587500X-0.150000X0.587500X-0.150000X0*%
%TD*%
%TA.AperFunction,ViaPad*%
%ADD13C,0.508000*%
%TD*%
%TA.AperFunction,Conductor*%
%ADD14C,0.152400*%
%TD*%
G04 APERTURE END LIST*
D10*
%TO.P,J1,1,Pin_1*%
%TO.N,/+6.5V*%
X75500000Y-59500000D03*
%TD*%
%TO.P,J2,1,Pin_1*%
%TO.N,GND*%
X75500000Y-62750000D03*
%TD*%
%TO.P,J3,1,Pin_1*%
%TO.N,/-20V*%
X75500000Y-66000000D03*
%TD*%
D11*
%TO.P,U2,1*%
%TO.N,/OUT_2*%
X66250000Y-62440000D03*
%TO.P,U2,2,-*%
%TO.N,/DET_2*%
X66250000Y-63710000D03*
%TO.P,U2,3,+*%
%TO.N,GND*%
X66250000Y-64980000D03*
%TO.P,U2,4,V-*%
%TO.N,/-20V*%
X66250000Y-66250000D03*
%TO.P,U2,5,+*%
%TO.N,GND*%
X61100000Y-66250000D03*
%TO.P,U2,6,-*%
%TO.N,/DET_3*%
X61100000Y-64980000D03*
%TO.P,U2,7*%
%TO.N,/OUT_3*%
X61100000Y-63710000D03*
%TO.P,U2,8,V+*%
%TO.N,/+6.5V*%
X61100000Y-62440000D03*
%TD*%
D12*
%TO.P,U15,1,VI*%
%TO.N,/+6.5V*%
X67375000Y-51320000D03*
%TO.P,U15,2,VO*%
%TO.N,/5V_2*%
X67375000Y-53220000D03*
%TO.P,U15,3,GND*%
%TO.N,GND*%
X65500000Y-52270000D03*
%TD*%
%TO.P,U19,1,VI*%
%TO.N,/+6.5V*%
X51187500Y-51300000D03*
%TO.P,U19,2,VO*%
%TO.N,/5V_6*%
X51187500Y-53200000D03*
%TO.P,U19,3,GND*%
%TO.N,GND*%
X49312500Y-52250000D03*
%TD*%
D11*
%TO.P,U3,1*%
%TO.N,/OUT_4*%
X57100000Y-62390000D03*
%TO.P,U3,2,-*%
%TO.N,/DET_4*%
X57100000Y-63660000D03*
%TO.P,U3,3,+*%
%TO.N,GND*%
X57100000Y-64930000D03*
%TO.P,U3,4,V-*%
%TO.N,/-20V*%
X57100000Y-66200000D03*
%TO.P,U3,5,+*%
%TO.N,GND*%
X51950000Y-66200000D03*
%TO.P,U3,6,-*%
%TO.N,/DET_5*%
X51950000Y-64930000D03*
%TO.P,U3,7*%
%TO.N,/OUT_5*%
X51950000Y-63660000D03*
%TO.P,U3,8,V+*%
%TO.N,/+6.5V*%
X51950000Y-62390000D03*
%TD*%
D12*
%TO.P,U16,1,VI*%
%TO.N,/+6.5V*%
X63375000Y-51320000D03*
%TO.P,U16,2,VO*%
%TO.N,/5V_3*%
X63375000Y-53220000D03*
%TO.P,U16,3,GND*%
%TO.N,GND*%
X61500000Y-52270000D03*
%TD*%
%TO.P,U13,1,VI*%
%TO.N,/+6.5V*%
X75625000Y-51300000D03*
%TO.P,U13,2,VO*%
%TO.N,/5V_0*%
X75625000Y-53200000D03*
%TO.P,U13,3,GND*%
%TO.N,GND*%
X73750000Y-52250000D03*
%TD*%
D11*
%TO.P,U1,1*%
%TO.N,/OUT_0*%
X68075000Y-36920000D03*
%TO.P,U1,2,-*%
%TO.N,/DET_0*%
X68075000Y-38190000D03*
%TO.P,U1,3,+*%
%TO.N,GND*%
X68075000Y-39460000D03*
%TO.P,U1,4,V-*%
%TO.N,/-20V*%
X68075000Y-40730000D03*
%TO.P,U1,5,+*%
%TO.N,GND*%
X62925000Y-40730000D03*
%TO.P,U1,6,-*%
%TO.N,/DET_1*%
X62925000Y-39460000D03*
%TO.P,U1,7*%
%TO.N,/OUT_1*%
X62925000Y-38190000D03*
%TO.P,U1,8,V+*%
%TO.N,/+6.5V*%
X62925000Y-36920000D03*
%TD*%
D12*
%TO.P,U20,1,VI*%
%TO.N,/+6.5V*%
X46937500Y-51300000D03*
%TO.P,U20,2,VO*%
%TO.N,/5V_7*%
X46937500Y-53200000D03*
%TO.P,U20,3,GND*%
%TO.N,GND*%
X45062500Y-52250000D03*
%TD*%
%TO.P,U18,1,VI*%
%TO.N,/+6.5V*%
X55250000Y-51320000D03*
%TO.P,U18,2,VO*%
%TO.N,/5V_5*%
X55250000Y-53220000D03*
%TO.P,U18,3,GND*%
%TO.N,GND*%
X53375000Y-52270000D03*
%TD*%
D11*
%TO.P,U4,1*%
%TO.N,/OUT_6*%
X59575000Y-36920000D03*
%TO.P,U4,2,-*%
%TO.N,/DET_6*%
X59575000Y-38190000D03*
%TO.P,U4,3,+*%
%TO.N,GND*%
X59575000Y-39460000D03*
%TO.P,U4,4,V-*%
%TO.N,/-20V*%
X59575000Y-40730000D03*
%TO.P,U4,5,+*%
%TO.N,GND*%
X54425000Y-40730000D03*
%TO.P,U4,6,-*%
%TO.N,/DET_7*%
X54425000Y-39460000D03*
%TO.P,U4,7*%
%TO.N,/OUT_7*%
X54425000Y-38190000D03*
%TO.P,U4,8,V+*%
%TO.N,/+6.5V*%
X54425000Y-36920000D03*
%TD*%
D12*
%TO.P,U14,1,VI*%
%TO.N,/+6.5V*%
X71375000Y-51320000D03*
%TO.P,U14,2,VO*%
%TO.N,/5V_1*%
X71375000Y-53220000D03*
%TO.P,U14,3,GND*%
%TO.N,GND*%
X69500000Y-52270000D03*
%TD*%
%TO.P,U17,1,VI*%
%TO.N,/+6.5V*%
X59375000Y-51320000D03*
%TO.P,U17,2,VO*%
%TO.N,/5V_4*%
X59375000Y-53220000D03*
%TO.P,U17,3,GND*%
%TO.N,GND*%
X57500000Y-52270000D03*
%TD*%
D13*
%TO.N,/+6.5V*%
X64250000Y-37000000D03*
X62250000Y-62500000D03*
X67500000Y-50500000D03*
X53250000Y-62500000D03*
X71500000Y-50599100D03*
X55250000Y-50639100D03*
X51250000Y-50619100D03*
X47000000Y-50659100D03*
X55750000Y-37000000D03*
X75750000Y-50500000D03*
X63500000Y-50599100D03*
X59250000Y-50619100D03*
%TO.N,/-20V*%
X59250000Y-41500000D03*
X60325000Y-47075000D03*
X57750000Y-47000000D03*
X68000000Y-41500000D03*
X67945000Y-47055000D03*
X63000000Y-47000000D03*
X56000000Y-65500000D03*
X52750000Y-47000000D03*
X65500000Y-47000000D03*
X70485000Y-47015000D03*
X55250000Y-47000000D03*
X64750000Y-65500000D03*
%TO.N,/OUT_1*%
X66750000Y-47000000D03*
X64250000Y-38250000D03*
X66750000Y-39500000D03*
%TO.N,/DET_0*%
X66750000Y-38250000D03*
X70500000Y-54000000D03*
X70500000Y-38250000D03*
%TO.N,/OUT_2*%
X65750000Y-61500000D03*
X64250000Y-47000000D03*
%TO.N,/OUT_3*%
X62359984Y-65281054D03*
X61750000Y-47000000D03*
%TO.N,/OUT_4*%
X59000000Y-47000000D03*
X56250000Y-61520000D03*
%TO.N,/OUT_5*%
X53250000Y-65250000D03*
X56500000Y-47000000D03*
%TO.N,/OUT_6*%
X59000000Y-35700000D03*
X53975000Y-47025000D03*
X54500000Y-34750000D03*
%TO.N,/DET_2*%
X64750000Y-54000000D03*
X65750000Y-63170000D03*
%TO.N,/OUT_7*%
X52000000Y-38250000D03*
X55750000Y-38250000D03*
X51500000Y-47000000D03*
%TO.N,/5V_1*%
X68500000Y-59750000D03*
X71500000Y-53750000D03*
%TO.N,/DET_3*%
X62250000Y-66870000D03*
X62500000Y-54000000D03*
%TO.N,/DET_1*%
X68750000Y-42000000D03*
X63750000Y-41500000D03*
X68500000Y-54000000D03*
%TO.N,/5V_2*%
X66000000Y-59750000D03*
X67250000Y-53750000D03*
%TO.N,/DET_4*%
X56000000Y-63170000D03*
X59750000Y-64250000D03*
X60250000Y-54000000D03*
%TO.N,/5V_3*%
X63500000Y-59750000D03*
X63500000Y-53750000D03*
%TO.N,/5V_4*%
X61000000Y-59750000D03*
X59250000Y-53750000D03*
%TO.N,/DET_5*%
X53250000Y-66870000D03*
X58250000Y-54000000D03*
X59000000Y-67500000D03*
%TO.N,/5V_5*%
X58250000Y-59750000D03*
X55250000Y-53750000D03*
%TO.N,/5V_6*%
X51000000Y-53750000D03*
X56000000Y-59750000D03*
%TO.N,/DET_6*%
X58000000Y-38250000D03*
X54250000Y-54000000D03*
%TO.N,/5V_7*%
X46750000Y-53750000D03*
X53250000Y-59750000D03*
%TO.N,/DET_7*%
X52250000Y-53750000D03*
X53040000Y-39460000D03*
%TO.N,GND*%
X54000000Y-42750000D03*
X70000000Y-39500000D03*
X67250000Y-59750000D03*
X58430000Y-64930000D03*
X70000000Y-59750000D03*
X54750000Y-59750000D03*
X45000000Y-53750000D03*
X59690000Y-59690000D03*
X56500000Y-42750000D03*
X64750000Y-59750000D03*
X53020000Y-40730000D03*
X62230000Y-59730000D03*
X52000000Y-59750000D03*
X50750000Y-61500000D03*
X66267400Y-42252184D03*
X59750000Y-66000000D03*
X50750000Y-66250000D03*
X51482600Y-42815000D03*
X64000000Y-35750000D03*
X61500000Y-42750000D03*
X64250000Y-42750000D03*
X59000000Y-42750000D03*
X49250000Y-53750000D03*
X65750000Y-53750000D03*
X61250000Y-39500000D03*
X59820000Y-61570000D03*
X57000000Y-59750000D03*
X55500000Y-35750000D03*
X57017400Y-53874667D03*
X68000000Y-65000000D03*
X61500000Y-54000000D03*
X73500000Y-53750000D03*
X53250000Y-53750000D03*
X69250000Y-42750000D03*
X61500000Y-40750000D03*
X69500000Y-53750000D03*
%TO.N,/5V_0*%
X71250000Y-59750000D03*
X75750000Y-53750000D03*
%TO.N,/OUT_0*%
X70000000Y-36250000D03*
X67750000Y-35750000D03*
X69250000Y-47000000D03*
%TD*%
D14*
%TO.N,/+6.5V*%
X63005000Y-37000000D02*
X62925000Y-36920000D01*
X75625000Y-51300000D02*
X75625000Y-50625000D01*
X53140000Y-62390000D02*
X53250000Y-62500000D01*
X71375000Y-50875000D02*
X71500000Y-50750000D01*
X59375000Y-50875000D02*
X59250000Y-50750000D01*
X75625000Y-50625000D02*
X75750000Y-50500000D01*
X46937500Y-50812500D02*
X47000000Y-50750000D01*
X63500000Y-50750000D02*
X63500000Y-50599100D01*
X63375000Y-50875000D02*
X63500000Y-50750000D01*
X54505000Y-37000000D02*
X54425000Y-36920000D01*
X62000000Y-62500000D02*
X61940000Y-62440000D01*
X61100000Y-62440000D02*
X62190000Y-62440000D01*
X59375000Y-51320000D02*
X59375000Y-50875000D01*
X51950000Y-62390000D02*
X53140000Y-62390000D01*
X62190000Y-62440000D02*
X62250000Y-62500000D01*
X55250000Y-51320000D02*
X55250000Y-50639100D01*
X64250000Y-37000000D02*
X63005000Y-37000000D01*
X63375000Y-51320000D02*
X63375000Y-50875000D01*
X46937500Y-51300000D02*
X46937500Y-50812500D01*
X67375000Y-51320000D02*
X67375000Y-50625000D01*
X47000000Y-50750000D02*
X47000000Y-50659100D01*
X67375000Y-50625000D02*
X67500000Y-50500000D01*
X61940000Y-62440000D02*
X61100000Y-62440000D01*
X51187500Y-50681600D02*
X51250000Y-50619100D01*
X71375000Y-51320000D02*
X71375000Y-50875000D01*
X59250000Y-50750000D02*
X59250000Y-50619100D01*
X55750000Y-37000000D02*
X54505000Y-37000000D01*
X71500000Y-50750000D02*
X71500000Y-50599100D01*
X51187500Y-51300000D02*
X51187500Y-50681600D01*
%TO.N,/-20V*%
X65500000Y-66250000D02*
X64750000Y-65500000D01*
X66250000Y-66250000D02*
X65500000Y-66250000D01*
X68000000Y-40805000D02*
X68075000Y-40730000D01*
X59575000Y-40730000D02*
X59575000Y-41175000D01*
X68000000Y-41500000D02*
X68000000Y-40805000D01*
X57100000Y-66200000D02*
X56700000Y-66200000D01*
X56700000Y-66200000D02*
X56000000Y-65500000D01*
X59575000Y-41175000D02*
X59250000Y-41500000D01*
%TO.N,/OUT_1*%
X66750000Y-39500000D02*
X65500000Y-38250000D01*
X65500000Y-38250000D02*
X64250000Y-38250000D01*
X64190000Y-38190000D02*
X64250000Y-38250000D01*
X62925000Y-38190000D02*
X64190000Y-38190000D01*
%TO.N,/DET_0*%
X68075000Y-38190000D02*
X66810000Y-38190000D01*
X70500000Y-38250000D02*
X68135000Y-38250000D01*
X68135000Y-38250000D02*
X68075000Y-38190000D01*
X66810000Y-38190000D02*
X66750000Y-38250000D01*
%TO.N,/OUT_2*%
X66250000Y-62440000D02*
X65750000Y-61940000D01*
X65750000Y-61940000D02*
X65750000Y-61500000D01*
%TO.N,/OUT_3*%
X62250000Y-64719579D02*
X62250000Y-65250000D01*
X61100000Y-63710000D02*
X61240421Y-63710000D01*
X61240421Y-63710000D02*
X62250000Y-64719579D01*
X62328930Y-65250000D02*
X62359984Y-65281054D01*
X62250000Y-65250000D02*
X62328930Y-65250000D01*
%TO.N,/OUT_4*%
X57100000Y-62390000D02*
X57100000Y-62350000D01*
X57100000Y-62350000D02*
X56250000Y-61500000D01*
X56250000Y-61500000D02*
X56250000Y-61520000D01*
%TO.N,/OUT_5*%
X52410000Y-63660000D02*
X53250000Y-64500000D01*
X53250000Y-64500000D02*
X53250000Y-65250000D01*
X51950000Y-63660000D02*
X52410000Y-63660000D01*
%TO.N,/OUT_6*%
X54500000Y-34750000D02*
X58050000Y-34750000D01*
X58050000Y-34750000D02*
X59000000Y-35700000D01*
X59000000Y-36345000D02*
X59575000Y-36920000D01*
X59000000Y-35700000D02*
X59000000Y-36345000D01*
%TO.N,/DET_2*%
X66250000Y-63710000D02*
X66210000Y-63710000D01*
X66210000Y-63710000D02*
X65750000Y-63250000D01*
X65750000Y-63250000D02*
X65750000Y-63170000D01*
%TO.N,/OUT_7*%
X54425000Y-38190000D02*
X55690000Y-38190000D01*
X55690000Y-38190000D02*
X55750000Y-38250000D01*
X52000000Y-38250000D02*
X54365000Y-38250000D01*
X54365000Y-38250000D02*
X54425000Y-38190000D01*
%TO.N,/5V_1*%
X71500000Y-53750000D02*
X71500000Y-53345000D01*
X68750000Y-56500000D02*
X68750000Y-59500000D01*
X71500000Y-53750000D02*
X68750000Y-56500000D01*
X68750000Y-59500000D02*
X68500000Y-59750000D01*
X71500000Y-53345000D02*
X71375000Y-53220000D01*
%TO.N,/DET_3*%
X62250000Y-65989579D02*
X62250000Y-66870000D01*
X61240421Y-64980000D02*
X62250000Y-65989579D01*
X61100000Y-64980000D02*
X61240421Y-64980000D01*
%TO.N,/DET_1*%
X64250000Y-41000000D02*
X63750000Y-41500000D01*
X66500000Y-41250000D02*
X64000000Y-41250000D01*
X64250000Y-40000000D02*
X64250000Y-41000000D01*
X68750000Y-42000000D02*
X67250000Y-42000000D01*
X62925000Y-39460000D02*
X63710000Y-39460000D01*
X64000000Y-41250000D02*
X63750000Y-41500000D01*
X67250000Y-42000000D02*
X66500000Y-41250000D01*
X63710000Y-39460000D02*
X64250000Y-40000000D01*
%TO.N,/5V_2*%
X67250000Y-56750000D02*
X66000000Y-58000000D01*
X67250000Y-53750000D02*
X67250000Y-53345000D01*
X67250000Y-53750000D02*
X67250000Y-56750000D01*
X67250000Y-53345000D02*
X67375000Y-53220000D01*
X66000000Y-58000000D02*
X66000000Y-59750000D01*
%TO.N,/DET_4*%
X59750000Y-64250000D02*
X59250000Y-63750000D01*
X56000000Y-63250000D02*
X56000000Y-63170000D01*
X57190000Y-63750000D02*
X57100000Y-63660000D01*
X59250000Y-63750000D02*
X57190000Y-63750000D01*
X57100000Y-63660000D02*
X56410000Y-63660000D01*
X56410000Y-63660000D02*
X56000000Y-63250000D01*
%TO.N,/5V_3*%
X63375000Y-53625000D02*
X63500000Y-53750000D01*
X63375000Y-53220000D02*
X63375000Y-53625000D01*
X63500000Y-53750000D02*
X63500000Y-59750000D01*
%TO.N,/5V_4*%
X61000000Y-58250000D02*
X61000000Y-59750000D01*
X59375000Y-53220000D02*
X59375000Y-53625000D01*
X59375000Y-53625000D02*
X59250000Y-53750000D01*
X59250000Y-56500000D02*
X61000000Y-58250000D01*
X59250000Y-53750000D02*
X59250000Y-56500000D01*
%TO.N,/DET_5*%
X52090421Y-64930000D02*
X53250000Y-66089579D01*
X53250000Y-66089579D02*
X53250000Y-66870000D01*
X51950000Y-64930000D02*
X52090421Y-64930000D01*
X53880000Y-67500000D02*
X53250000Y-66870000D01*
X59000000Y-67500000D02*
X53880000Y-67500000D01*
%TO.N,/5V_5*%
X55250000Y-55500000D02*
X58250000Y-58500000D01*
X58250000Y-58500000D02*
X58250000Y-59750000D01*
X55250000Y-53750000D02*
X55250000Y-53220000D01*
X55250000Y-53750000D02*
X55250000Y-55500000D01*
%TO.N,/5V_6*%
X53250000Y-58000000D02*
X54250000Y-58000000D01*
X51000000Y-55750000D02*
X53250000Y-58000000D01*
X51000000Y-53750000D02*
X51000000Y-55750000D01*
X51000000Y-53387500D02*
X51187500Y-53200000D01*
X54250000Y-58000000D02*
X56000000Y-59750000D01*
X51000000Y-53750000D02*
X51000000Y-53387500D01*
%TO.N,/DET_6*%
X59575000Y-38190000D02*
X58060000Y-38190000D01*
X58060000Y-38190000D02*
X58000000Y-38250000D01*
%TO.N,/5V_7*%
X46750000Y-53387500D02*
X46937500Y-53200000D01*
X46750000Y-53750000D02*
X46750000Y-56000000D01*
X46750000Y-53750000D02*
X46750000Y-53387500D01*
X51750000Y-58250000D02*
X53250000Y-59750000D01*
X46750000Y-56000000D02*
X49000000Y-58250000D01*
X49000000Y-58250000D02*
X51750000Y-58250000D01*
%TO.N,/DET_7*%
X54425000Y-39460000D02*
X53040000Y-39460000D01*
%TO.N,GND*%
X65500000Y-53500000D02*
X65750000Y-53750000D01*
X62925000Y-40730000D02*
X61520000Y-40730000D01*
X61520000Y-40730000D02*
X61500000Y-40750000D01*
X60850000Y-66000000D02*
X59750000Y-66000000D01*
X45062500Y-52250000D02*
X45062500Y-53687500D01*
X57500000Y-53392067D02*
X57017400Y-53874667D01*
X61100000Y-66250000D02*
X60850000Y-66000000D01*
X57100000Y-64930000D02*
X58430000Y-64930000D01*
X53375000Y-53625000D02*
X53250000Y-53750000D01*
X73500000Y-52500000D02*
X73750000Y-52250000D01*
X57500000Y-52270000D02*
X57500000Y-53392067D01*
X61210000Y-39460000D02*
X61250000Y-39500000D01*
X59575000Y-39460000D02*
X61210000Y-39460000D01*
X49312500Y-53687500D02*
X49250000Y-53750000D01*
X51950000Y-66200000D02*
X51900000Y-66250000D01*
X49312500Y-52250000D02*
X49312500Y-53687500D01*
X69500000Y-53750000D02*
X69500000Y-52270000D01*
X65500000Y-52270000D02*
X65500000Y-53500000D01*
X54425000Y-40730000D02*
X53020000Y-40730000D01*
X45062500Y-53687500D02*
X45000000Y-53750000D01*
X61500000Y-54000000D02*
X61500000Y-52270000D01*
X51900000Y-66250000D02*
X50750000Y-66250000D01*
X68000000Y-65000000D02*
X67980000Y-64980000D01*
X73500000Y-53750000D02*
X73500000Y-52500000D01*
X69960000Y-39460000D02*
X70000000Y-39500000D01*
X67980000Y-64980000D02*
X66250000Y-64980000D01*
X53375000Y-52270000D02*
X53375000Y-53625000D01*
X68075000Y-39460000D02*
X69960000Y-39460000D01*
%TO.N,/5V_0*%
X75625000Y-53625000D02*
X75750000Y-53750000D01*
X74250000Y-53750000D02*
X71250000Y-56750000D01*
X75750000Y-53750000D02*
X74250000Y-53750000D01*
X71250000Y-56750000D02*
X71250000Y-59750000D01*
X75625000Y-53200000D02*
X75625000Y-53625000D01*
%TO.N,/OUT_0*%
X68075000Y-36920000D02*
X68075000Y-36075000D01*
X70000000Y-36250000D02*
X68745000Y-36250000D01*
X68075000Y-36075000D02*
X67750000Y-35750000D01*
X68745000Y-36250000D02*
X68075000Y-36920000D01*
%TD*%
%TA.AperFunction,Conductor*%
%TO.N,/-20V*%
G36*
X71021638Y-34125093D02*
G01*
X71047358Y-34169642D01*
X71048500Y-34182700D01*
X71048500Y-37273561D01*
X71084156Y-37612806D01*
X71084158Y-37612820D01*
X71155081Y-37946482D01*
X71260494Y-38270912D01*
X71301117Y-38362152D01*
X71384787Y-38550079D01*
X71399242Y-38582544D01*
X71569798Y-38877957D01*
X71569804Y-38877965D01*
X71770297Y-39153920D01*
X71770301Y-39153924D01*
X71770308Y-39153934D01*
X71998563Y-39407437D01*
X72252066Y-39635692D01*
X72252075Y-39635699D01*
X72252079Y-39635702D01*
X72528034Y-39836195D01*
X72528042Y-39836201D01*
X72708280Y-39940261D01*
X72823460Y-40006760D01*
X73135091Y-40145507D01*
X73459518Y-40250919D01*
X73793185Y-40321843D01*
X74094744Y-40353538D01*
X74132438Y-40357500D01*
X74132439Y-40357500D01*
X74277933Y-40357500D01*
X77223300Y-40357500D01*
X77271638Y-40375093D01*
X77297358Y-40419642D01*
X77298500Y-40432700D01*
X77298500Y-67351150D01*
X77298319Y-67354838D01*
X77284900Y-67491070D01*
X77282024Y-67505527D01*
X77243902Y-67631199D01*
X77238261Y-67644818D01*
X77176351Y-67760646D01*
X77168160Y-67772904D01*
X77084846Y-67874422D01*
X77074422Y-67884846D01*
X76972904Y-67968160D01*
X76960646Y-67976351D01*
X76844818Y-68038261D01*
X76831199Y-68043902D01*
X76705527Y-68082024D01*
X76691070Y-68084900D01*
X76554838Y-68098319D01*
X76551150Y-68098500D01*
X49632700Y-68098500D01*
X49584362Y-68080907D01*
X49558642Y-68036358D01*
X49557500Y-68023300D01*
X49557500Y-66250000D01*
X50338028Y-66250000D01*
X50358191Y-66377307D01*
X50416708Y-66492152D01*
X50507847Y-66583291D01*
X50507849Y-66583292D01*
X50622692Y-66641808D01*
X50622694Y-66641809D01*
X50720487Y-66657297D01*
X50749999Y-66661972D01*
X50750000Y-66661972D01*
X50750001Y-66661972D01*
X50773958Y-66658177D01*
X50877306Y-66641809D01*
X50968502Y-66595341D01*
X51019557Y-66589072D01*
X51045143Y-66600307D01*
X51050853Y-66604219D01*
X51050854Y-66604219D01*
X51050855Y-66604220D01*
X51154450Y-66649962D01*
X51179774Y-66652900D01*
X51179776Y-66652900D01*
X52720224Y-66652900D01*
X52720226Y-66652900D01*
X52745550Y-66649962D01*
X52758534Y-66644228D01*
X52809857Y-66640796D01*
X52851381Y-66671158D01*
X52863674Y-66721107D01*
X52859028Y-66736737D01*
X52860021Y-66737060D01*
X52858191Y-66742691D01*
X52838028Y-66869999D01*
X52838028Y-66870000D01*
X52858191Y-66997307D01*
X52916708Y-67112152D01*
X53007847Y-67203291D01*
X53007849Y-67203292D01*
X53122692Y-67261808D01*
X53122694Y-67261809D01*
X53211896Y-67275937D01*
X53249999Y-67281972D01*
X53250000Y-67281972D01*
X53250001Y-67281972D01*
X53288103Y-67275937D01*
X53338597Y-67285752D01*
X53353041Y-67297037D01*
X53713055Y-67657051D01*
X53714409Y-67658476D01*
X53742330Y-67689486D01*
X53764934Y-67699550D01*
X53775302Y-67705180D01*
X53796061Y-67718661D01*
X53796064Y-67718662D01*
X53804593Y-67720013D01*
X53823416Y-67725588D01*
X53831303Y-67729100D01*
X53856053Y-67729100D01*
X53867816Y-67730025D01*
X53892259Y-67733897D01*
X53897399Y-67732519D01*
X53900602Y-67731662D01*
X53920063Y-67729100D01*
X58622508Y-67729100D01*
X58670846Y-67746693D01*
X58675682Y-67751126D01*
X58757847Y-67833291D01*
X58757849Y-67833292D01*
X58872692Y-67891808D01*
X58872694Y-67891809D01*
X58970487Y-67907297D01*
X58999999Y-67911972D01*
X59000000Y-67911972D01*
X59000001Y-67911972D01*
X59020163Y-67908778D01*
X59127306Y-67891809D01*
X59242151Y-67833292D01*
X59333292Y-67742151D01*
X59391809Y-67627306D01*
X59411972Y-67500000D01*
X59391809Y-67372694D01*
X59333292Y-67257849D01*
X59333291Y-67257847D01*
X59242152Y-67166708D01*
X59127306Y-67108191D01*
X59127308Y-67108191D01*
X59000001Y-67088028D01*
X58999999Y-67088028D01*
X58872692Y-67108191D01*
X58757847Y-67166708D01*
X58675682Y-67248874D01*
X58629062Y-67270614D01*
X58622508Y-67270900D01*
X54006045Y-67270900D01*
X53957707Y-67253307D01*
X53952870Y-67248874D01*
X53677036Y-66973039D01*
X53655297Y-66926419D01*
X53655937Y-66908100D01*
X53661972Y-66869999D01*
X53657786Y-66843570D01*
X53641809Y-66742694D01*
X53583292Y-66627849D01*
X53583291Y-66627847D01*
X53501125Y-66545681D01*
X53479385Y-66499061D01*
X53479099Y-66492507D01*
X53479099Y-66327000D01*
X55971001Y-66327000D01*
X55971001Y-66381797D01*
X55985984Y-66476400D01*
X56044083Y-66590425D01*
X56134574Y-66680916D01*
X56248600Y-66739015D01*
X56248598Y-66739015D01*
X56343206Y-66753999D01*
X56973000Y-66753999D01*
X56973000Y-66327000D01*
X57227000Y-66327000D01*
X57227000Y-66753999D01*
X57856789Y-66753999D01*
X57856797Y-66753998D01*
X57951400Y-66739015D01*
X58065425Y-66680916D01*
X58155916Y-66590425D01*
X58214015Y-66476400D01*
X58228999Y-66381797D01*
X58229000Y-66381790D01*
X58229000Y-66327000D01*
X57227000Y-66327000D01*
X56973000Y-66327000D01*
X55971001Y-66327000D01*
X53479099Y-66327000D01*
X53479099Y-66096514D01*
X53479150Y-66094604D01*
X53480282Y-66073000D01*
X55971000Y-66073000D01*
X56973000Y-66073000D01*
X56973000Y-65646000D01*
X57227000Y-65646000D01*
X57227000Y-66073000D01*
X58228999Y-66073000D01*
X58228999Y-66018211D01*
X58228998Y-66018202D01*
X58214015Y-65923599D01*
X58155916Y-65809574D01*
X58065425Y-65719083D01*
X57951399Y-65660984D01*
X57951401Y-65660984D01*
X57856797Y-65646000D01*
X57227000Y-65646000D01*
X56973000Y-65646000D01*
X56343212Y-65646000D01*
X56343201Y-65646001D01*
X56248599Y-65660984D01*
X56134574Y-65719083D01*
X56044083Y-65809574D01*
X55985984Y-65923599D01*
X55971000Y-66018202D01*
X55971000Y-66073000D01*
X53480282Y-66073000D01*
X53481334Y-66052939D01*
X53472465Y-66029836D01*
X53469116Y-66018526D01*
X53466046Y-66004086D01*
X53463969Y-65994314D01*
X53458890Y-65987323D01*
X53449524Y-65970070D01*
X53446432Y-65962016D01*
X53446430Y-65962012D01*
X53428932Y-65944514D01*
X53421268Y-65935542D01*
X53406721Y-65915519D01*
X53399242Y-65911202D01*
X53383668Y-65899251D01*
X53264915Y-65780498D01*
X53243175Y-65733878D01*
X53256489Y-65684191D01*
X53298626Y-65654686D01*
X53306308Y-65653053D01*
X53377306Y-65641809D01*
X53492151Y-65583292D01*
X53583292Y-65492151D01*
X53641809Y-65377306D01*
X53661972Y-65250000D01*
X53661338Y-65246000D01*
X53650129Y-65175226D01*
X53642210Y-65125226D01*
X56072100Y-65125226D01*
X56073015Y-65133121D01*
X56075037Y-65150548D01*
X56120780Y-65254145D01*
X56120782Y-65254148D01*
X56200851Y-65334217D01*
X56200854Y-65334219D01*
X56200855Y-65334220D01*
X56304450Y-65379962D01*
X56329774Y-65382900D01*
X56329776Y-65382900D01*
X57870224Y-65382900D01*
X57870226Y-65382900D01*
X57895550Y-65379962D01*
X57999145Y-65334220D01*
X58075787Y-65257577D01*
X58122406Y-65235838D01*
X58172094Y-65249152D01*
X58182131Y-65257574D01*
X58187849Y-65263292D01*
X58302692Y-65321808D01*
X58302694Y-65321809D01*
X58400487Y-65337297D01*
X58429999Y-65341972D01*
X58430000Y-65341972D01*
X58430001Y-65341972D01*
X58450164Y-65338778D01*
X58557306Y-65321809D01*
X58672151Y-65263292D01*
X58763292Y-65172151D01*
X58821809Y-65057306D01*
X58841972Y-64930000D01*
X58821809Y-64802694D01*
X58763292Y-64687849D01*
X58763291Y-64687847D01*
X58672152Y-64596708D01*
X58557306Y-64538191D01*
X58557308Y-64538191D01*
X58430001Y-64518028D01*
X58429999Y-64518028D01*
X58302691Y-64538191D01*
X58302690Y-64538191D01*
X58187849Y-64596707D01*
X58187846Y-64596709D01*
X58182129Y-64602426D01*
X58135507Y-64624161D01*
X58085821Y-64610842D01*
X58075786Y-64602420D01*
X57999148Y-64525782D01*
X57999145Y-64525780D01*
X57895548Y-64480037D01*
X57876100Y-64477781D01*
X57870226Y-64477100D01*
X56329774Y-64477100D01*
X56324510Y-64477710D01*
X56304451Y-64480037D01*
X56200854Y-64525780D01*
X56200851Y-64525782D01*
X56120782Y-64605851D01*
X56120780Y-64605854D01*
X56075037Y-64709451D01*
X56073282Y-64724585D01*
X56072100Y-64734774D01*
X56072100Y-65125226D01*
X53642210Y-65125226D01*
X53641809Y-65122694D01*
X53583292Y-65007849D01*
X53583291Y-65007847D01*
X53501125Y-64925681D01*
X53479385Y-64879061D01*
X53479099Y-64872507D01*
X53479099Y-64709450D01*
X53479099Y-64506935D01*
X53479150Y-64505025D01*
X53481334Y-64463360D01*
X53472465Y-64440257D01*
X53469116Y-64428947D01*
X53463969Y-64404737D01*
X53463969Y-64404735D01*
X53458890Y-64397744D01*
X53449524Y-64380491D01*
X53446432Y-64372436D01*
X53446431Y-64372435D01*
X53446430Y-64372433D01*
X53428932Y-64354935D01*
X53421268Y-64345963D01*
X53406721Y-64325940D01*
X53399242Y-64321623D01*
X53383668Y-64309672D01*
X52998555Y-63924559D01*
X52976815Y-63877939D01*
X52977029Y-63862726D01*
X52977900Y-63855226D01*
X52977900Y-63464774D01*
X52974962Y-63439450D01*
X52929220Y-63335855D01*
X52929219Y-63335854D01*
X52929217Y-63335851D01*
X52849148Y-63255782D01*
X52849145Y-63255780D01*
X52745548Y-63210037D01*
X52726100Y-63207781D01*
X52720226Y-63207100D01*
X51179774Y-63207100D01*
X51174510Y-63207710D01*
X51154451Y-63210037D01*
X51050854Y-63255780D01*
X51050851Y-63255782D01*
X50970782Y-63335851D01*
X50970780Y-63335854D01*
X50925037Y-63439451D01*
X50922100Y-63464776D01*
X50922100Y-63855223D01*
X50925037Y-63880548D01*
X50970780Y-63984145D01*
X50970782Y-63984148D01*
X51050851Y-64064217D01*
X51050854Y-64064219D01*
X51050855Y-64064220D01*
X51154450Y-64109962D01*
X51179774Y-64112900D01*
X52507756Y-64112900D01*
X52556094Y-64130493D01*
X52560930Y-64134926D01*
X52774730Y-64348726D01*
X52796470Y-64395346D01*
X52783156Y-64445033D01*
X52741019Y-64474538D01*
X52721556Y-64477100D01*
X52720226Y-64477100D01*
X51179774Y-64477100D01*
X51174510Y-64477710D01*
X51154451Y-64480037D01*
X51050854Y-64525780D01*
X51050851Y-64525782D01*
X50970782Y-64605851D01*
X50970780Y-64605854D01*
X50925037Y-64709451D01*
X50923282Y-64724585D01*
X50922100Y-64734774D01*
X50922100Y-65125226D01*
X50923015Y-65133121D01*
X50925037Y-65150548D01*
X50970780Y-65254145D01*
X50970782Y-65254148D01*
X51050851Y-65334217D01*
X51050854Y-65334219D01*
X51050855Y-65334220D01*
X51154450Y-65379962D01*
X51179774Y-65382900D01*
X52188177Y-65382900D01*
X52236515Y-65400493D01*
X52241351Y-65404926D01*
X52455151Y-65618726D01*
X52476891Y-65665346D01*
X52463577Y-65715033D01*
X52421440Y-65744538D01*
X52401977Y-65747100D01*
X51179774Y-65747100D01*
X51174510Y-65747710D01*
X51154451Y-65750037D01*
X51050854Y-65795780D01*
X51050851Y-65795782D01*
X50989564Y-65857070D01*
X50942944Y-65878810D01*
X50902250Y-65870900D01*
X50877307Y-65858191D01*
X50877308Y-65858191D01*
X50750001Y-65838028D01*
X50749999Y-65838028D01*
X50622692Y-65858191D01*
X50507847Y-65916708D01*
X50416708Y-66007847D01*
X50358191Y-66122692D01*
X50338028Y-66249999D01*
X50338028Y-66250000D01*
X49557500Y-66250000D01*
X49557500Y-64932438D01*
X49551890Y-64879061D01*
X49521843Y-64593185D01*
X49450919Y-64259518D01*
X49345507Y-63935091D01*
X49206760Y-63623460D01*
X49170418Y-63560514D01*
X49036201Y-63328042D01*
X49036195Y-63328034D01*
X48921377Y-63170000D01*
X55588028Y-63170000D01*
X55608191Y-63297307D01*
X55666708Y-63412152D01*
X55757847Y-63503291D01*
X55757849Y-63503292D01*
X55872692Y-63561808D01*
X55872694Y-63561809D01*
X55985344Y-63579650D01*
X56026753Y-63600750D01*
X56050073Y-63624070D01*
X56071813Y-63670690D01*
X56072099Y-63677244D01*
X56072099Y-63855223D01*
X56075037Y-63880548D01*
X56120780Y-63984145D01*
X56120782Y-63984148D01*
X56200851Y-64064217D01*
X56200854Y-64064219D01*
X56200855Y-64064220D01*
X56304450Y-64109962D01*
X56329774Y-64112900D01*
X56329776Y-64112900D01*
X57870224Y-64112900D01*
X57870226Y-64112900D01*
X57895550Y-64109962D01*
X57999145Y-64064220D01*
X58029220Y-64034145D01*
X58062240Y-64001126D01*
X58108860Y-63979386D01*
X58115414Y-63979100D01*
X59123955Y-63979100D01*
X59172293Y-63996693D01*
X59177130Y-64001126D01*
X59322963Y-64146960D01*
X59344702Y-64193580D01*
X59344062Y-64211897D01*
X59338028Y-64249997D01*
X59338028Y-64250000D01*
X59358191Y-64377307D01*
X59416708Y-64492152D01*
X59507847Y-64583291D01*
X59507849Y-64583292D01*
X59622692Y-64641808D01*
X59622694Y-64641809D01*
X59720487Y-64657297D01*
X59749999Y-64661972D01*
X59750000Y-64661972D01*
X59750001Y-64661972D01*
X59770163Y-64658778D01*
X59877306Y-64641809D01*
X59992151Y-64583292D01*
X59995390Y-64580052D01*
X60042008Y-64558311D01*
X60091696Y-64571621D01*
X60121203Y-64613756D01*
X60117360Y-64663598D01*
X60075038Y-64759449D01*
X60072100Y-64784776D01*
X60072100Y-65175223D01*
X60075037Y-65200548D01*
X60120780Y-65304145D01*
X60120782Y-65304148D01*
X60200851Y-65384217D01*
X60200854Y-65384219D01*
X60200855Y-65384220D01*
X60304450Y-65429962D01*
X60329774Y-65432900D01*
X61338177Y-65432900D01*
X61386515Y-65450493D01*
X61391351Y-65454926D01*
X61605151Y-65668726D01*
X61626891Y-65715346D01*
X61613577Y-65765033D01*
X61571440Y-65794538D01*
X61551977Y-65797100D01*
X60980482Y-65797100D01*
X60939527Y-65784969D01*
X60933939Y-65781340D01*
X60933933Y-65781338D01*
X60925401Y-65779986D01*
X60906587Y-65774412D01*
X60898698Y-65770900D01*
X60898697Y-65770900D01*
X60873946Y-65770900D01*
X60862183Y-65769974D01*
X60846889Y-65767551D01*
X60837743Y-65766103D01*
X60837741Y-65766103D01*
X60829400Y-65768338D01*
X60809939Y-65770900D01*
X60127492Y-65770900D01*
X60079154Y-65753307D01*
X60074318Y-65748874D01*
X59992152Y-65666708D01*
X59877306Y-65608191D01*
X59877308Y-65608191D01*
X59750001Y-65588028D01*
X59749999Y-65588028D01*
X59622692Y-65608191D01*
X59507847Y-65666708D01*
X59416708Y-65757847D01*
X59358191Y-65872692D01*
X59338028Y-65999999D01*
X59338028Y-66000000D01*
X59358191Y-66127307D01*
X59416708Y-66242152D01*
X59507847Y-66333291D01*
X59507849Y-66333292D01*
X59622692Y-66391808D01*
X59622694Y-66391809D01*
X59720487Y-66407297D01*
X59749999Y-66411972D01*
X59750000Y-66411972D01*
X59750001Y-66411972D01*
X59773958Y-66408177D01*
X59877306Y-66391809D01*
X59877308Y-66391808D01*
X59877309Y-66391808D01*
X59962759Y-66348268D01*
X60013815Y-66341998D01*
X60056957Y-66370014D01*
X60072100Y-66415271D01*
X60072100Y-66445223D01*
X60075037Y-66470548D01*
X60120780Y-66574145D01*
X60120782Y-66574148D01*
X60200851Y-66654217D01*
X60200854Y-66654219D01*
X60200855Y-66654220D01*
X60304450Y-66699962D01*
X60329774Y-66702900D01*
X60329776Y-66702900D01*
X61776446Y-66702900D01*
X61824784Y-66720493D01*
X61850504Y-66765042D01*
X61850720Y-66789864D01*
X61838028Y-66869999D01*
X61838028Y-66870000D01*
X61858191Y-66997307D01*
X61916708Y-67112152D01*
X62007847Y-67203291D01*
X62007849Y-67203292D01*
X62122692Y-67261808D01*
X62122694Y-67261809D01*
X62211896Y-67275937D01*
X62249999Y-67281972D01*
X62250000Y-67281972D01*
X62250001Y-67281972D01*
X62270163Y-67278778D01*
X62377306Y-67261809D01*
X62492151Y-67203292D01*
X62583292Y-67112151D01*
X62641809Y-66997306D01*
X62661972Y-66870000D01*
X62641809Y-66742694D01*
X62583292Y-66627849D01*
X62583291Y-66627847D01*
X62501126Y-66545682D01*
X62479386Y-66499062D01*
X62479100Y-66492508D01*
X62479100Y-66377000D01*
X65121001Y-66377000D01*
X65121001Y-66431797D01*
X65135984Y-66526400D01*
X65194083Y-66640425D01*
X65284574Y-66730916D01*
X65398600Y-66789015D01*
X65398598Y-66789015D01*
X65493206Y-66803999D01*
X66123000Y-66803999D01*
X66123000Y-66377000D01*
X66377000Y-66377000D01*
X66377000Y-66803999D01*
X67006789Y-66803999D01*
X67006797Y-66803998D01*
X67101400Y-66789015D01*
X67215425Y-66730916D01*
X67305916Y-66640425D01*
X67364015Y-66526400D01*
X67378999Y-66431797D01*
X67379000Y-66431790D01*
X67379000Y-66377000D01*
X66377000Y-66377000D01*
X66123000Y-66377000D01*
X65121001Y-66377000D01*
X62479100Y-66377000D01*
X62479100Y-66123000D01*
X65121000Y-66123000D01*
X66123000Y-66123000D01*
X66123000Y-65696000D01*
X66377000Y-65696000D01*
X66377000Y-66123000D01*
X67378999Y-66123000D01*
X67378999Y-66068211D01*
X67378998Y-66068202D01*
X67364015Y-65973599D01*
X67305916Y-65859574D01*
X67215425Y-65769083D01*
X67101399Y-65710984D01*
X67101401Y-65710984D01*
X67006797Y-65696000D01*
X66377000Y-65696000D01*
X66123000Y-65696000D01*
X65493212Y-65696000D01*
X65493201Y-65696001D01*
X65398599Y-65710984D01*
X65284574Y-65769083D01*
X65194083Y-65859574D01*
X65135984Y-65973599D01*
X65121000Y-66068202D01*
X65121000Y-66123000D01*
X62479100Y-66123000D01*
X62479100Y-65996552D01*
X62479152Y-65994584D01*
X62481334Y-65952939D01*
X62478100Y-65944514D01*
X62472465Y-65929836D01*
X62469116Y-65918526D01*
X62465699Y-65902455D01*
X62463969Y-65894314D01*
X62458890Y-65887323D01*
X62449524Y-65870070D01*
X62446432Y-65862016D01*
X62446430Y-65862012D01*
X62428932Y-65844514D01*
X62421268Y-65835542D01*
X62406720Y-65815518D01*
X62401199Y-65810547D01*
X62377051Y-65765128D01*
X62387749Y-65714812D01*
X62428285Y-65683145D01*
X62439752Y-65680392D01*
X62487290Y-65672863D01*
X62602135Y-65614346D01*
X62693276Y-65523205D01*
X62751793Y-65408360D01*
X62771956Y-65281054D01*
X62755194Y-65175223D01*
X65222100Y-65175223D01*
X65225037Y-65200548D01*
X65270780Y-65304145D01*
X65270782Y-65304148D01*
X65350851Y-65384217D01*
X65350854Y-65384219D01*
X65350855Y-65384220D01*
X65454450Y-65429962D01*
X65479774Y-65432900D01*
X65479776Y-65432900D01*
X67020224Y-65432900D01*
X67020226Y-65432900D01*
X67045550Y-65429962D01*
X67149145Y-65384220D01*
X67229220Y-65304145D01*
X67251395Y-65253923D01*
X67287013Y-65216813D01*
X67320187Y-65209100D01*
X67604379Y-65209100D01*
X67652717Y-65226693D01*
X67665215Y-65240096D01*
X67666706Y-65242148D01*
X67666708Y-65242151D01*
X67757849Y-65333292D01*
X67872692Y-65391808D01*
X67872694Y-65391809D01*
X67955513Y-65404926D01*
X67999999Y-65411972D01*
X68000000Y-65411972D01*
X68000001Y-65411972D01*
X68022799Y-65408361D01*
X68127306Y-65391809D01*
X68203468Y-65353002D01*
X68793848Y-65353002D01*
X68812427Y-65589080D01*
X68812429Y-65589090D01*
X68854927Y-65766103D01*
X68867711Y-65819354D01*
X68958336Y-66038141D01*
X69082070Y-66240057D01*
X69090561Y-66249999D01*
X69235867Y-66420132D01*
X69354918Y-66521810D01*
X69415943Y-66573930D01*
X69617859Y-66697664D01*
X69836646Y-66788289D01*
X70066917Y-66843572D01*
X70161350Y-66851003D01*
X70302997Y-66862152D01*
X70303000Y-66862152D01*
X70303003Y-66862152D01*
X70421041Y-66852862D01*
X70539083Y-66843572D01*
X70769354Y-66788289D01*
X70988141Y-66697664D01*
X71190057Y-66573930D01*
X71370132Y-66420132D01*
X71523930Y-66240057D01*
X71647664Y-66038141D01*
X71716068Y-65873000D01*
X74746000Y-65873000D01*
X75284186Y-65873000D01*
X75264505Y-65902455D01*
X75245102Y-66000000D01*
X75264505Y-66097545D01*
X75284186Y-66127000D01*
X74746001Y-66127000D01*
X74746001Y-66525017D01*
X74760737Y-66599105D01*
X74816876Y-66683124D01*
X74900894Y-66739262D01*
X74900896Y-66739263D01*
X74974982Y-66753999D01*
X75373000Y-66753999D01*
X75373000Y-66215813D01*
X75402455Y-66235495D01*
X75475376Y-66250000D01*
X75524624Y-66250000D01*
X75597545Y-66235495D01*
X75627000Y-66215813D01*
X75627000Y-66753999D01*
X76025016Y-66753999D01*
X76025017Y-66753998D01*
X76099105Y-66739262D01*
X76183124Y-66683123D01*
X76239262Y-66599105D01*
X76239263Y-66599103D01*
X76254000Y-66525017D01*
X76254000Y-66127000D01*
X75715814Y-66127000D01*
X75735495Y-66097545D01*
X75754898Y-66000000D01*
X75735495Y-65902455D01*
X75715814Y-65873000D01*
X76253999Y-65873000D01*
X76253999Y-65474984D01*
X76253998Y-65474982D01*
X76239262Y-65400894D01*
X76183123Y-65316875D01*
X76099105Y-65260737D01*
X76099103Y-65260736D01*
X76025018Y-65246000D01*
X75627000Y-65246000D01*
X75627000Y-65784186D01*
X75597545Y-65764505D01*
X75524624Y-65750000D01*
X75475376Y-65750000D01*
X75402455Y-65764505D01*
X75373000Y-65784186D01*
X75373000Y-65246000D01*
X74974984Y-65246000D01*
X74974982Y-65246001D01*
X74900894Y-65260737D01*
X74816875Y-65316876D01*
X74760737Y-65400894D01*
X74760736Y-65400896D01*
X74746000Y-65474982D01*
X74746000Y-65873000D01*
X71716068Y-65873000D01*
X71738289Y-65819354D01*
X71793572Y-65589083D01*
X71810239Y-65377306D01*
X71812152Y-65353002D01*
X71812152Y-65352997D01*
X71794390Y-65127307D01*
X71793572Y-65116917D01*
X71738289Y-64886646D01*
X71647664Y-64667859D01*
X71523930Y-64465943D01*
X71471653Y-64404734D01*
X71370132Y-64285867D01*
X71200852Y-64141290D01*
X71190057Y-64132070D01*
X70988141Y-64008336D01*
X70769354Y-63917711D01*
X70717338Y-63905223D01*
X70539090Y-63862429D01*
X70539080Y-63862427D01*
X70303003Y-63843848D01*
X70302997Y-63843848D01*
X70066919Y-63862427D01*
X70066909Y-63862429D01*
X69836654Y-63917709D01*
X69836646Y-63917711D01*
X69836644Y-63917711D01*
X69836643Y-63917712D01*
X69617861Y-64008335D01*
X69617859Y-64008336D01*
X69575738Y-64034148D01*
X69415944Y-64132069D01*
X69415940Y-64132072D01*
X69235867Y-64285867D01*
X69082072Y-64465940D01*
X69082069Y-64465944D01*
X69038984Y-64536253D01*
X68959042Y-64666708D01*
X68958335Y-64667861D01*
X68867712Y-64886643D01*
X68867709Y-64886654D01*
X68812429Y-65116909D01*
X68812427Y-65116919D01*
X68793848Y-65352997D01*
X68793848Y-65353002D01*
X68203468Y-65353002D01*
X68242151Y-65333292D01*
X68333292Y-65242151D01*
X68391809Y-65127306D01*
X68411972Y-65000000D01*
X68391809Y-64872694D01*
X68333292Y-64757849D01*
X68333291Y-64757847D01*
X68242152Y-64666708D01*
X68127306Y-64608191D01*
X68127308Y-64608191D01*
X68000001Y-64588028D01*
X67999999Y-64588028D01*
X67872692Y-64608191D01*
X67757849Y-64666707D01*
X67741618Y-64682939D01*
X67695682Y-64728874D01*
X67649064Y-64750614D01*
X67642509Y-64750900D01*
X67320187Y-64750900D01*
X67271849Y-64733307D01*
X67251395Y-64706076D01*
X67229220Y-64655855D01*
X67229219Y-64655854D01*
X67229217Y-64655851D01*
X67149148Y-64575782D01*
X67149145Y-64575780D01*
X67045548Y-64530037D01*
X67026100Y-64527781D01*
X67020226Y-64527100D01*
X65479774Y-64527100D01*
X65474510Y-64527710D01*
X65454451Y-64530037D01*
X65350854Y-64575780D01*
X65350851Y-64575782D01*
X65270782Y-64655851D01*
X65270780Y-64655854D01*
X65225037Y-64759451D01*
X65222100Y-64784776D01*
X65222100Y-65175223D01*
X62755194Y-65175223D01*
X62751793Y-65153748D01*
X62733027Y-65116917D01*
X62693275Y-65038901D01*
X62602136Y-64947762D01*
X62602133Y-64947760D01*
X62520158Y-64905991D01*
X62485077Y-64868370D01*
X62479099Y-64838991D01*
X62479099Y-64726553D01*
X62479151Y-64724585D01*
X62481334Y-64682939D01*
X62475545Y-64667859D01*
X62472465Y-64659836D01*
X62469116Y-64648526D01*
X62463969Y-64624316D01*
X62463969Y-64624314D01*
X62458890Y-64617323D01*
X62449524Y-64600070D01*
X62446881Y-64593185D01*
X62446432Y-64592015D01*
X62446431Y-64592014D01*
X62446430Y-64592012D01*
X62428932Y-64574514D01*
X62421268Y-64565542D01*
X62406721Y-64545519D01*
X62399242Y-64541202D01*
X62383668Y-64529251D01*
X62037065Y-64182648D01*
X62015325Y-64136028D01*
X62028639Y-64086341D01*
X62037059Y-64076305D01*
X62079220Y-64034145D01*
X62124962Y-63930550D01*
X62127900Y-63905226D01*
X65222100Y-63905226D01*
X65223015Y-63913121D01*
X65225037Y-63930548D01*
X65270780Y-64034145D01*
X65270782Y-64034148D01*
X65350851Y-64114217D01*
X65350854Y-64114219D01*
X65350855Y-64114220D01*
X65454450Y-64159962D01*
X65479774Y-64162900D01*
X65479776Y-64162900D01*
X67020224Y-64162900D01*
X67020226Y-64162900D01*
X67045550Y-64159962D01*
X67149145Y-64114220D01*
X67229220Y-64034145D01*
X67274962Y-63930550D01*
X67277900Y-63905226D01*
X67277900Y-63514774D01*
X67274962Y-63489450D01*
X67229220Y-63385855D01*
X67229219Y-63385854D01*
X67229217Y-63385851D01*
X67149148Y-63305782D01*
X67149145Y-63305780D01*
X67056913Y-63265055D01*
X74847100Y-63265055D01*
X74847101Y-63265057D01*
X74855972Y-63309659D01*
X74889764Y-63360232D01*
X74889765Y-63360232D01*
X74889766Y-63360234D01*
X74940342Y-63394028D01*
X74984943Y-63402900D01*
X76015056Y-63402899D01*
X76059658Y-63394028D01*
X76110234Y-63360234D01*
X76144028Y-63309658D01*
X76152900Y-63265057D01*
X76152899Y-62234944D01*
X76144028Y-62190342D01*
X76130068Y-62169450D01*
X76110235Y-62139767D01*
X76092725Y-62128067D01*
X76059658Y-62105972D01*
X76059656Y-62105971D01*
X76015057Y-62097100D01*
X74984944Y-62097100D01*
X74984942Y-62097101D01*
X74940340Y-62105972D01*
X74889767Y-62139764D01*
X74855972Y-62190342D01*
X74855971Y-62190343D01*
X74847100Y-62234942D01*
X74847100Y-63265055D01*
X67056913Y-63265055D01*
X67045548Y-63260037D01*
X67026100Y-63257781D01*
X67020226Y-63257100D01*
X67020224Y-63257100D01*
X66236225Y-63257100D01*
X66187887Y-63239507D01*
X66162167Y-63194958D01*
X66162001Y-63175918D01*
X66161972Y-63175918D01*
X66161972Y-63172657D01*
X66161950Y-63170142D01*
X66161972Y-63170003D01*
X66161972Y-63169999D01*
X66143293Y-63052066D01*
X66141809Y-63042694D01*
X66141808Y-63042692D01*
X66121197Y-63002240D01*
X66114928Y-62951184D01*
X66142945Y-62908043D01*
X66188201Y-62892900D01*
X67020224Y-62892900D01*
X67020226Y-62892900D01*
X67045550Y-62889962D01*
X67149145Y-62844220D01*
X67229220Y-62764145D01*
X67274962Y-62660550D01*
X67277900Y-62635226D01*
X67277900Y-62244774D01*
X67274962Y-62219450D01*
X67229220Y-62115855D01*
X67229219Y-62115854D01*
X67229217Y-62115851D01*
X67149148Y-62035782D01*
X67149145Y-62035780D01*
X67045548Y-61990037D01*
X67026100Y-61987781D01*
X67020226Y-61987100D01*
X67020224Y-61987100D01*
X66152246Y-61987100D01*
X66103908Y-61969507D01*
X66099072Y-61965075D01*
X66068007Y-61934010D01*
X66032893Y-61898897D01*
X66011154Y-61852278D01*
X66024467Y-61802591D01*
X66032888Y-61792554D01*
X66083292Y-61742151D01*
X66141809Y-61627306D01*
X66161972Y-61500000D01*
X66141809Y-61372694D01*
X66083292Y-61257849D01*
X66083291Y-61257847D01*
X65992152Y-61166708D01*
X65877306Y-61108191D01*
X65877308Y-61108191D01*
X65750001Y-61088028D01*
X65749999Y-61088028D01*
X65622692Y-61108191D01*
X65507847Y-61166708D01*
X65416708Y-61257847D01*
X65358191Y-61372692D01*
X65338028Y-61499999D01*
X65338028Y-61500000D01*
X65358191Y-61627307D01*
X65416708Y-61742152D01*
X65498874Y-61824318D01*
X65520614Y-61870938D01*
X65520900Y-61877492D01*
X65520900Y-61915348D01*
X65503307Y-61963686D01*
X65458758Y-61989406D01*
X65454470Y-61990032D01*
X65454453Y-61990037D01*
X65454450Y-61990037D01*
X65454450Y-61990038D01*
X65410557Y-62009418D01*
X65350854Y-62035780D01*
X65350851Y-62035782D01*
X65270782Y-62115851D01*
X65270780Y-62115854D01*
X65225037Y-62219451D01*
X65222100Y-62244776D01*
X65222100Y-62635223D01*
X65225037Y-62660548D01*
X65270780Y-62764145D01*
X65270782Y-62764148D01*
X65350851Y-62844217D01*
X65350853Y-62844218D01*
X65350855Y-62844220D01*
X65359613Y-62848087D01*
X65366681Y-62851208D01*
X65403794Y-62886827D01*
X65409329Y-62937968D01*
X65403311Y-62954141D01*
X65358191Y-63042692D01*
X65338028Y-63169999D01*
X65338028Y-63170001D01*
X65352352Y-63260444D01*
X65342537Y-63310938D01*
X65331253Y-63325381D01*
X65270780Y-63385854D01*
X65225037Y-63489451D01*
X65223432Y-63503291D01*
X65222100Y-63514774D01*
X65222100Y-63905226D01*
X62127900Y-63905226D01*
X62127900Y-63514774D01*
X62124962Y-63489450D01*
X62079220Y-63385855D01*
X62079219Y-63385854D01*
X62079217Y-63385851D01*
X61999148Y-63305782D01*
X61999145Y-63305780D01*
X61895548Y-63260037D01*
X61876100Y-63257781D01*
X61870226Y-63257100D01*
X60329774Y-63257100D01*
X60324510Y-63257710D01*
X60304451Y-63260037D01*
X60200854Y-63305780D01*
X60200851Y-63305782D01*
X60120782Y-63385851D01*
X60120780Y-63385854D01*
X60075037Y-63489451D01*
X60072100Y-63514776D01*
X60072100Y-63834728D01*
X60054507Y-63883066D01*
X60009958Y-63908786D01*
X59962760Y-63901732D01*
X59877306Y-63858191D01*
X59877308Y-63858191D01*
X59750001Y-63838028D01*
X59749997Y-63838028D01*
X59711895Y-63844062D01*
X59661401Y-63834246D01*
X59646959Y-63822962D01*
X59646958Y-63822962D01*
X59416914Y-63592917D01*
X59415578Y-63591509D01*
X59406008Y-63580881D01*
X59387670Y-63560514D01*
X59387669Y-63560513D01*
X59365058Y-63550445D01*
X59354692Y-63544817D01*
X59333936Y-63531339D01*
X59333933Y-63531338D01*
X59325401Y-63529986D01*
X59306587Y-63524412D01*
X59298698Y-63520900D01*
X59298697Y-63520900D01*
X59273946Y-63520900D01*
X59262183Y-63519974D01*
X59246889Y-63517551D01*
X59237743Y-63516103D01*
X59237741Y-63516103D01*
X59229400Y-63518338D01*
X59209939Y-63520900D01*
X58201391Y-63520900D01*
X58153053Y-63503307D01*
X58127333Y-63458758D01*
X58126692Y-63454365D01*
X58124962Y-63439451D01*
X58124962Y-63439450D01*
X58079220Y-63335855D01*
X58079219Y-63335854D01*
X58079217Y-63335851D01*
X57999148Y-63255782D01*
X57999145Y-63255780D01*
X57895548Y-63210037D01*
X57876100Y-63207781D01*
X57870226Y-63207100D01*
X57870224Y-63207100D01*
X56482075Y-63207100D01*
X56433737Y-63189507D01*
X56408017Y-63144958D01*
X56407801Y-63143664D01*
X56393293Y-63052066D01*
X56391809Y-63042694D01*
X56345720Y-62952240D01*
X56339451Y-62901184D01*
X56367467Y-62858043D01*
X56412724Y-62842900D01*
X57870224Y-62842900D01*
X57870226Y-62842900D01*
X57895550Y-62839962D01*
X57999145Y-62794220D01*
X58079220Y-62714145D01*
X58114068Y-62635223D01*
X60072100Y-62635223D01*
X60075037Y-62660548D01*
X60120780Y-62764145D01*
X60120782Y-62764148D01*
X60200851Y-62844217D01*
X60200854Y-62844219D01*
X60200855Y-62844220D01*
X60304450Y-62889962D01*
X60329774Y-62892900D01*
X60329776Y-62892900D01*
X61870224Y-62892900D01*
X61870226Y-62892900D01*
X61895550Y-62889962D01*
X61982617Y-62851517D01*
X62033939Y-62848087D01*
X62047125Y-62853304D01*
X62122694Y-62891809D01*
X62234686Y-62909546D01*
X62249999Y-62911972D01*
X62250000Y-62911972D01*
X62250001Y-62911972D01*
X62274807Y-62908043D01*
X62377306Y-62891809D01*
X62492151Y-62833292D01*
X62583292Y-62742151D01*
X62641809Y-62627306D01*
X62661972Y-62500000D01*
X62641809Y-62372694D01*
X62583292Y-62257849D01*
X62583291Y-62257847D01*
X62492152Y-62166708D01*
X62377306Y-62108191D01*
X62377308Y-62108191D01*
X62250001Y-62088028D01*
X62249999Y-62088028D01*
X62199136Y-62096083D01*
X62122694Y-62108191D01*
X62122693Y-62108191D01*
X62116849Y-62109117D01*
X62116374Y-62106119D01*
X62076362Y-62104634D01*
X62051512Y-62088147D01*
X61999145Y-62035780D01*
X61895550Y-61990038D01*
X61895548Y-61990037D01*
X61876100Y-61987781D01*
X61870226Y-61987100D01*
X60329774Y-61987100D01*
X60324510Y-61987710D01*
X60304451Y-61990037D01*
X60200854Y-62035780D01*
X60200851Y-62035782D01*
X60120782Y-62115851D01*
X60120780Y-62115854D01*
X60075037Y-62219451D01*
X60072100Y-62244776D01*
X60072100Y-62635223D01*
X58114068Y-62635223D01*
X58124962Y-62610550D01*
X58127900Y-62585226D01*
X58127900Y-62194774D01*
X58124962Y-62169450D01*
X58079220Y-62065855D01*
X58079219Y-62065854D01*
X58079217Y-62065851D01*
X57999148Y-61985782D01*
X57999145Y-61985780D01*
X57895548Y-61940037D01*
X57876100Y-61937781D01*
X57870226Y-61937100D01*
X57870224Y-61937100D01*
X57042244Y-61937100D01*
X56993906Y-61919507D01*
X56989070Y-61915074D01*
X56679771Y-61605775D01*
X56663088Y-61570000D01*
X59408028Y-61570000D01*
X59428191Y-61697307D01*
X59486708Y-61812152D01*
X59577847Y-61903291D01*
X59577849Y-61903292D01*
X59692692Y-61961808D01*
X59692694Y-61961809D01*
X59786328Y-61976639D01*
X59819999Y-61981972D01*
X59820000Y-61981972D01*
X59820001Y-61981972D01*
X59840163Y-61978778D01*
X59947306Y-61961809D01*
X60062151Y-61903292D01*
X60153292Y-61812151D01*
X60211809Y-61697306D01*
X60231972Y-61570000D01*
X60211809Y-61442694D01*
X60186333Y-61392694D01*
X60153291Y-61327847D01*
X60062152Y-61236708D01*
X59947306Y-61178191D01*
X59947308Y-61178191D01*
X59820001Y-61158028D01*
X59819999Y-61158028D01*
X59692692Y-61178191D01*
X59577847Y-61236708D01*
X59486708Y-61327847D01*
X59428191Y-61442692D01*
X59408028Y-61569999D01*
X59408028Y-61570000D01*
X56663088Y-61570000D01*
X56658031Y-61559155D01*
X56658670Y-61540841D01*
X56661972Y-61520000D01*
X56641809Y-61392694D01*
X56608768Y-61327847D01*
X56583291Y-61277847D01*
X56492152Y-61186708D01*
X56377306Y-61128191D01*
X56377308Y-61128191D01*
X56250001Y-61108028D01*
X56249999Y-61108028D01*
X56122692Y-61128191D01*
X56007847Y-61186708D01*
X55916708Y-61277847D01*
X55858191Y-61392692D01*
X55838028Y-61519999D01*
X55838028Y-61520000D01*
X55858191Y-61647307D01*
X55916708Y-61762152D01*
X56007847Y-61853291D01*
X56127967Y-61914496D01*
X56127129Y-61916140D01*
X56161332Y-61942847D01*
X56172041Y-61993160D01*
X56150745Y-62035889D01*
X56120780Y-62065854D01*
X56075037Y-62169451D01*
X56072100Y-62194776D01*
X56072100Y-62585223D01*
X56075037Y-62610548D01*
X56094956Y-62655659D01*
X56098386Y-62706985D01*
X56068022Y-62748507D01*
X56018072Y-62760797D01*
X56014401Y-62760308D01*
X56000003Y-62758028D01*
X55999999Y-62758028D01*
X55872692Y-62778191D01*
X55757847Y-62836708D01*
X55666708Y-62927847D01*
X55608191Y-63042692D01*
X55588028Y-63169999D01*
X55588028Y-63170000D01*
X48921377Y-63170000D01*
X48835702Y-63052079D01*
X48835699Y-63052075D01*
X48835692Y-63052066D01*
X48607437Y-62798563D01*
X48370499Y-62585223D01*
X50922100Y-62585223D01*
X50925037Y-62610548D01*
X50970780Y-62714145D01*
X50970782Y-62714148D01*
X51050851Y-62794217D01*
X51050854Y-62794219D01*
X51050855Y-62794220D01*
X51154450Y-62839962D01*
X51179774Y-62842900D01*
X51179776Y-62842900D01*
X52720224Y-62842900D01*
X52720226Y-62842900D01*
X52745550Y-62839962D01*
X52849145Y-62794220D01*
X52855786Y-62787578D01*
X52902403Y-62765838D01*
X52952090Y-62779150D01*
X52962134Y-62787578D01*
X53007847Y-62833291D01*
X53007849Y-62833292D01*
X53122692Y-62891808D01*
X53122694Y-62891809D01*
X53220487Y-62907297D01*
X53249999Y-62911972D01*
X53250000Y-62911972D01*
X53250001Y-62911972D01*
X53274807Y-62908043D01*
X53377306Y-62891809D01*
X53492151Y-62833292D01*
X53583292Y-62742151D01*
X53641809Y-62627306D01*
X53661972Y-62500000D01*
X53641809Y-62372694D01*
X53583292Y-62257849D01*
X53583291Y-62257847D01*
X53492152Y-62166708D01*
X53377306Y-62108191D01*
X53377308Y-62108191D01*
X53250001Y-62088028D01*
X53249999Y-62088028D01*
X53122693Y-62108191D01*
X53050837Y-62144803D01*
X52999781Y-62151071D01*
X52956640Y-62123055D01*
X52947905Y-62108173D01*
X52946998Y-62106119D01*
X52929220Y-62065855D01*
X52929219Y-62065854D01*
X52929217Y-62065851D01*
X52849148Y-61985782D01*
X52849145Y-61985780D01*
X52745548Y-61940037D01*
X52726100Y-61937781D01*
X52720226Y-61937100D01*
X51179774Y-61937100D01*
X51174510Y-61937710D01*
X51154451Y-61940037D01*
X51050854Y-61985780D01*
X51050851Y-61985782D01*
X50970782Y-62065851D01*
X50970780Y-62065854D01*
X50925037Y-62169451D01*
X50922100Y-62194776D01*
X50922100Y-62585223D01*
X48370499Y-62585223D01*
X48353934Y-62570308D01*
X48353924Y-62570301D01*
X48353920Y-62570297D01*
X48077965Y-62369804D01*
X48077957Y-62369798D01*
X47782544Y-62199242D01*
X47772513Y-62194776D01*
X47595245Y-62115851D01*
X47470912Y-62060494D01*
X47146482Y-61955081D01*
X46812820Y-61884158D01*
X46812819Y-61884157D01*
X46812815Y-61884157D01*
X46812807Y-61884156D01*
X46812806Y-61884156D01*
X46473562Y-61848500D01*
X46473561Y-61848500D01*
X46328067Y-61848500D01*
X43382700Y-61848500D01*
X43334362Y-61830907D01*
X43308642Y-61786358D01*
X43307500Y-61773300D01*
X43307500Y-61500000D01*
X50338028Y-61500000D01*
X50358191Y-61627307D01*
X50416708Y-61742152D01*
X50507847Y-61833291D01*
X50507849Y-61833292D01*
X50622692Y-61891808D01*
X50622694Y-61891809D01*
X50720487Y-61907297D01*
X50749999Y-61911972D01*
X50750000Y-61911972D01*
X50750001Y-61911972D01*
X50770163Y-61908778D01*
X50877306Y-61891809D01*
X50992151Y-61833292D01*
X51083292Y-61742151D01*
X51141809Y-61627306D01*
X51161972Y-61500000D01*
X51141809Y-61372694D01*
X51083292Y-61257849D01*
X51083291Y-61257847D01*
X50992152Y-61166708D01*
X50877306Y-61108191D01*
X50877308Y-61108191D01*
X50750001Y-61088028D01*
X50749999Y-61088028D01*
X50622692Y-61108191D01*
X50507847Y-61166708D01*
X50416708Y-61257847D01*
X50358191Y-61372692D01*
X50338028Y-61499999D01*
X50338028Y-61500000D01*
X43307500Y-61500000D01*
X43307500Y-59750000D01*
X51588028Y-59750000D01*
X51608191Y-59877307D01*
X51666708Y-59992152D01*
X51757847Y-60083291D01*
X51757849Y-60083292D01*
X51872692Y-60141808D01*
X51872694Y-60141809D01*
X51970487Y-60157297D01*
X51999999Y-60161972D01*
X52000000Y-60161972D01*
X52000001Y-60161972D01*
X52020163Y-60158778D01*
X52127306Y-60141809D01*
X52242151Y-60083292D01*
X52333292Y-59992151D01*
X52391809Y-59877306D01*
X52411972Y-59750000D01*
X52411971Y-59749996D01*
X52395652Y-59646959D01*
X52391809Y-59622694D01*
X52333292Y-59507849D01*
X52333291Y-59507847D01*
X52242152Y-59416708D01*
X52127306Y-59358191D01*
X52127308Y-59358191D01*
X52000001Y-59338028D01*
X51999999Y-59338028D01*
X51872692Y-59358191D01*
X51757847Y-59416708D01*
X51666708Y-59507847D01*
X51608191Y-59622692D01*
X51588028Y-59749999D01*
X51588028Y-59750000D01*
X43307500Y-59750000D01*
X43307500Y-52445223D01*
X44172100Y-52445223D01*
X44175037Y-52470548D01*
X44220780Y-52574145D01*
X44220782Y-52574148D01*
X44300851Y-52654217D01*
X44300854Y-52654219D01*
X44300855Y-52654220D01*
X44404450Y-52699962D01*
X44429774Y-52702900D01*
X44758200Y-52702900D01*
X44806538Y-52720493D01*
X44832258Y-52765042D01*
X44833400Y-52778100D01*
X44833400Y-53332129D01*
X44815807Y-53380467D01*
X44792341Y-53399132D01*
X44757850Y-53416706D01*
X44757847Y-53416708D01*
X44666708Y-53507847D01*
X44608191Y-53622692D01*
X44588028Y-53749999D01*
X44588028Y-53750000D01*
X44608191Y-53877307D01*
X44666708Y-53992152D01*
X44757847Y-54083291D01*
X44757849Y-54083292D01*
X44872692Y-54141808D01*
X44872694Y-54141809D01*
X44957849Y-54155296D01*
X44999999Y-54161972D01*
X45000000Y-54161972D01*
X45000001Y-54161972D01*
X45020163Y-54158778D01*
X45127306Y-54141809D01*
X45242151Y-54083292D01*
X45333292Y-53992151D01*
X45391809Y-53877306D01*
X45411972Y-53750000D01*
X45410366Y-53739863D01*
X45406435Y-53715042D01*
X45391809Y-53622694D01*
X45333292Y-53507849D01*
X45333291Y-53507847D01*
X45313626Y-53488182D01*
X45291886Y-53441562D01*
X45291600Y-53435008D01*
X45291600Y-53395223D01*
X46047100Y-53395223D01*
X46050037Y-53420548D01*
X46095780Y-53524145D01*
X46095782Y-53524148D01*
X46175851Y-53604217D01*
X46175854Y-53604219D01*
X46175855Y-53604220D01*
X46279450Y-53649962D01*
X46279455Y-53649962D01*
X46284908Y-53651447D01*
X46284162Y-53654186D01*
X46320588Y-53672390D01*
X46341056Y-53719583D01*
X46340266Y-53735867D01*
X46338028Y-53749998D01*
X46338028Y-53750000D01*
X46358191Y-53877307D01*
X46416708Y-53992152D01*
X46498874Y-54074318D01*
X46520614Y-54120938D01*
X46520900Y-54127492D01*
X46520900Y-55993024D01*
X46520848Y-55994992D01*
X46518665Y-56036638D01*
X46527533Y-56059740D01*
X46530883Y-56071050D01*
X46536030Y-56095263D01*
X46536031Y-56095265D01*
X46541108Y-56102253D01*
X46550473Y-56119501D01*
X46553569Y-56127566D01*
X46571064Y-56145061D01*
X46578726Y-56154031D01*
X46593276Y-56174056D01*
X46593278Y-56174058D01*
X46600759Y-56178377D01*
X46616330Y-56190326D01*
X48833055Y-58407051D01*
X48834409Y-58408476D01*
X48862330Y-58439486D01*
X48884934Y-58449550D01*
X48895302Y-58455180D01*
X48916061Y-58468661D01*
X48916064Y-58468662D01*
X48924593Y-58470013D01*
X48943416Y-58475588D01*
X48951303Y-58479100D01*
X48976053Y-58479100D01*
X48987816Y-58480025D01*
X49012259Y-58483897D01*
X49017399Y-58482519D01*
X49020602Y-58481662D01*
X49040063Y-58479100D01*
X51623956Y-58479100D01*
X51672294Y-58496693D01*
X51677130Y-58501126D01*
X52822962Y-59646958D01*
X52844702Y-59693578D01*
X52844062Y-59711894D01*
X52838028Y-59749996D01*
X52838028Y-59750000D01*
X52858191Y-59877307D01*
X52916708Y-59992152D01*
X53007847Y-60083291D01*
X53007849Y-60083292D01*
X53122692Y-60141808D01*
X53122694Y-60141809D01*
X53220487Y-60157297D01*
X53249999Y-60161972D01*
X53250000Y-60161972D01*
X53250001Y-60161972D01*
X53270164Y-60158778D01*
X53377306Y-60141809D01*
X53492151Y-60083292D01*
X53583292Y-59992151D01*
X53641809Y-59877306D01*
X53661972Y-59750000D01*
X54338028Y-59750000D01*
X54358191Y-59877307D01*
X54416708Y-59992152D01*
X54507847Y-60083291D01*
X54507849Y-60083292D01*
X54622692Y-60141808D01*
X54622694Y-60141809D01*
X54720487Y-60157297D01*
X54749999Y-60161972D01*
X54750000Y-60161972D01*
X54750001Y-60161972D01*
X54770163Y-60158778D01*
X54877306Y-60141809D01*
X54992151Y-60083292D01*
X55083292Y-59992151D01*
X55141809Y-59877306D01*
X55161972Y-59750000D01*
X55161971Y-59749996D01*
X55145652Y-59646959D01*
X55141809Y-59622694D01*
X55083292Y-59507849D01*
X55083291Y-59507847D01*
X54992152Y-59416708D01*
X54877306Y-59358191D01*
X54877308Y-59358191D01*
X54750001Y-59338028D01*
X54749999Y-59338028D01*
X54622692Y-59358191D01*
X54507847Y-59416708D01*
X54416708Y-59507847D01*
X54358191Y-59622692D01*
X54338028Y-59749999D01*
X54338028Y-59750000D01*
X53661972Y-59750000D01*
X53661971Y-59749996D01*
X53645652Y-59646959D01*
X53641809Y-59622694D01*
X53583292Y-59507849D01*
X53583291Y-59507847D01*
X53492152Y-59416708D01*
X53377306Y-59358191D01*
X53377308Y-59358191D01*
X53250001Y-59338028D01*
X53249997Y-59338028D01*
X53211894Y-59344062D01*
X53161400Y-59334246D01*
X53146958Y-59322962D01*
X52671096Y-58847100D01*
X51916914Y-58092917D01*
X51915578Y-58091509D01*
X51901561Y-58075942D01*
X51887670Y-58060514D01*
X51887669Y-58060513D01*
X51865058Y-58050445D01*
X51854692Y-58044817D01*
X51833936Y-58031339D01*
X51833933Y-58031338D01*
X51825401Y-58029986D01*
X51806587Y-58024412D01*
X51798698Y-58020900D01*
X51798697Y-58020900D01*
X51773946Y-58020900D01*
X51762183Y-58019974D01*
X51746889Y-58017551D01*
X51737743Y-58016103D01*
X51737741Y-58016103D01*
X51729400Y-58018338D01*
X51709939Y-58020900D01*
X49126044Y-58020900D01*
X49077706Y-58003307D01*
X49072870Y-57998874D01*
X47001126Y-55927129D01*
X46979386Y-55880509D01*
X46979100Y-55873955D01*
X46979100Y-54127492D01*
X46996693Y-54079154D01*
X47001126Y-54074318D01*
X47083291Y-53992152D01*
X47083293Y-53992150D01*
X47141809Y-53877306D01*
X47161972Y-53750000D01*
X47161972Y-53749997D01*
X47160367Y-53739863D01*
X47170183Y-53689368D01*
X47210160Y-53656997D01*
X47234641Y-53652900D01*
X47570224Y-53652900D01*
X47570226Y-53652900D01*
X47595550Y-53649962D01*
X47699145Y-53604220D01*
X47779220Y-53524145D01*
X47824962Y-53420550D01*
X47827900Y-53395226D01*
X47827900Y-53004774D01*
X47824962Y-52979450D01*
X47779220Y-52875855D01*
X47779219Y-52875854D01*
X47779217Y-52875851D01*
X47699148Y-52795782D01*
X47699145Y-52795780D01*
X47595548Y-52750037D01*
X47576100Y-52747781D01*
X47570226Y-52747100D01*
X46304774Y-52747100D01*
X46299510Y-52747710D01*
X46279451Y-52750037D01*
X46175854Y-52795780D01*
X46175851Y-52795782D01*
X46095782Y-52875851D01*
X46095780Y-52875854D01*
X46050037Y-52979451D01*
X46047100Y-53004776D01*
X46047100Y-53395223D01*
X45291600Y-53395223D01*
X45291600Y-52778100D01*
X45309193Y-52729762D01*
X45353742Y-52704042D01*
X45366800Y-52702900D01*
X45695224Y-52702900D01*
X45695226Y-52702900D01*
X45720550Y-52699962D01*
X45824145Y-52654220D01*
X45904220Y-52574145D01*
X45949962Y-52470550D01*
X45952900Y-52445226D01*
X45952900Y-52445223D01*
X48422100Y-52445223D01*
X48425037Y-52470548D01*
X48470780Y-52574145D01*
X48470782Y-52574148D01*
X48550851Y-52654217D01*
X48550854Y-52654219D01*
X48550855Y-52654220D01*
X48654450Y-52699962D01*
X48679774Y-52702900D01*
X49008200Y-52702900D01*
X49056538Y-52720493D01*
X49082258Y-52765042D01*
X49083400Y-52778100D01*
X49083400Y-53332129D01*
X49065807Y-53380467D01*
X49042341Y-53399132D01*
X49007850Y-53416706D01*
X49007847Y-53416708D01*
X48916708Y-53507847D01*
X48858191Y-53622692D01*
X48838028Y-53749999D01*
X48838028Y-53750000D01*
X48858191Y-53877307D01*
X48916708Y-53992152D01*
X49007847Y-54083291D01*
X49007849Y-54083292D01*
X49122692Y-54141808D01*
X49122694Y-54141809D01*
X49207849Y-54155296D01*
X49249999Y-54161972D01*
X49250000Y-54161972D01*
X49250001Y-54161972D01*
X49270164Y-54158778D01*
X49377306Y-54141809D01*
X49492151Y-54083292D01*
X49583292Y-53992151D01*
X49641809Y-53877306D01*
X49661972Y-53750000D01*
X49660366Y-53739863D01*
X49656435Y-53715042D01*
X49641809Y-53622694D01*
X49641808Y-53622692D01*
X49641808Y-53622691D01*
X49641808Y-53622690D01*
X49583292Y-53507849D01*
X49563624Y-53488180D01*
X49541886Y-53441560D01*
X49541600Y-53435007D01*
X49541600Y-53395223D01*
X50297100Y-53395223D01*
X50300037Y-53420548D01*
X50345780Y-53524145D01*
X50345782Y-53524148D01*
X50425851Y-53604217D01*
X50425854Y-53604219D01*
X50425855Y-53604220D01*
X50529450Y-53649962D01*
X50529455Y-53649962D01*
X50534908Y-53651447D01*
X50534162Y-53654186D01*
X50570588Y-53672390D01*
X50591056Y-53719583D01*
X50590266Y-53735867D01*
X50588028Y-53749998D01*
X50588028Y-53750000D01*
X50608191Y-53877307D01*
X50666708Y-53992152D01*
X50748874Y-54074318D01*
X50770614Y-54120938D01*
X50770900Y-54127492D01*
X50770900Y-55743024D01*
X50770848Y-55744992D01*
X50768665Y-55786638D01*
X50777533Y-55809740D01*
X50780883Y-55821050D01*
X50786030Y-55845263D01*
X50786031Y-55845265D01*
X50791108Y-55852253D01*
X50800473Y-55869501D01*
X50803569Y-55877566D01*
X50821064Y-55895061D01*
X50828726Y-55904031D01*
X50843276Y-55924056D01*
X50843278Y-55924058D01*
X50850759Y-55928377D01*
X50866330Y-55940326D01*
X53083055Y-58157051D01*
X53084409Y-58158476D01*
X53112330Y-58189486D01*
X53134934Y-58199550D01*
X53145302Y-58205180D01*
X53166061Y-58218661D01*
X53166064Y-58218662D01*
X53174593Y-58220013D01*
X53193416Y-58225588D01*
X53201303Y-58229100D01*
X53226053Y-58229100D01*
X53237816Y-58230025D01*
X53262259Y-58233897D01*
X53267399Y-58232519D01*
X53270602Y-58231662D01*
X53290063Y-58229100D01*
X54123956Y-58229100D01*
X54172294Y-58246693D01*
X54177130Y-58251126D01*
X55572962Y-59646959D01*
X55594702Y-59693579D01*
X55594062Y-59711895D01*
X55588028Y-59749996D01*
X55588028Y-59750000D01*
X55608191Y-59877307D01*
X55666708Y-59992152D01*
X55757847Y-60083291D01*
X55757849Y-60083292D01*
X55872692Y-60141808D01*
X55872694Y-60141809D01*
X55970487Y-60157297D01*
X55999999Y-60161972D01*
X56000000Y-60161972D01*
X56000001Y-60161972D01*
X56020163Y-60158778D01*
X56127306Y-60141809D01*
X56242151Y-60083292D01*
X56333292Y-59992151D01*
X56391809Y-59877306D01*
X56411972Y-59750000D01*
X56588028Y-59750000D01*
X56608191Y-59877307D01*
X56666708Y-59992152D01*
X56757847Y-60083291D01*
X56757849Y-60083292D01*
X56872692Y-60141808D01*
X56872694Y-60141809D01*
X56970487Y-60157297D01*
X56999999Y-60161972D01*
X57000000Y-60161972D01*
X57000001Y-60161972D01*
X57020163Y-60158778D01*
X57127306Y-60141809D01*
X57242151Y-60083292D01*
X57333292Y-59992151D01*
X57391809Y-59877306D01*
X57411972Y-59750000D01*
X57411971Y-59749996D01*
X57395652Y-59646959D01*
X57391809Y-59622694D01*
X57333292Y-59507849D01*
X57333291Y-59507847D01*
X57242152Y-59416708D01*
X57127306Y-59358191D01*
X57127308Y-59358191D01*
X57000001Y-59338028D01*
X56999999Y-59338028D01*
X56872692Y-59358191D01*
X56757847Y-59416708D01*
X56666708Y-59507847D01*
X56608191Y-59622692D01*
X56588028Y-59749999D01*
X56588028Y-59750000D01*
X56411972Y-59750000D01*
X56411971Y-59749996D01*
X56395652Y-59646959D01*
X56391809Y-59622694D01*
X56333292Y-59507849D01*
X56333291Y-59507847D01*
X56242152Y-59416708D01*
X56127306Y-59358191D01*
X56127308Y-59358191D01*
X56000001Y-59338028D01*
X55999997Y-59338028D01*
X55961894Y-59344062D01*
X55911400Y-59334246D01*
X55896958Y-59322962D01*
X55193486Y-58619490D01*
X54416914Y-57842917D01*
X54415578Y-57841509D01*
X54387669Y-57810513D01*
X54365058Y-57800445D01*
X54354692Y-57794817D01*
X54333936Y-57781339D01*
X54333933Y-57781338D01*
X54325401Y-57779986D01*
X54306587Y-57774412D01*
X54298698Y-57770900D01*
X54298697Y-57770900D01*
X54273946Y-57770900D01*
X54262183Y-57769974D01*
X54246889Y-57767551D01*
X54237743Y-57766103D01*
X54237741Y-57766103D01*
X54229400Y-57768338D01*
X54209939Y-57770900D01*
X53376044Y-57770900D01*
X53327706Y-57753307D01*
X53322870Y-57748874D01*
X51251126Y-55677129D01*
X51229386Y-55630509D01*
X51229100Y-55623955D01*
X51229100Y-54127492D01*
X51246693Y-54079154D01*
X51251126Y-54074318D01*
X51333291Y-53992152D01*
X51333293Y-53992150D01*
X51391809Y-53877306D01*
X51411972Y-53750000D01*
X51411972Y-53749997D01*
X51410367Y-53739863D01*
X51420183Y-53689368D01*
X51460160Y-53656997D01*
X51484641Y-53652900D01*
X51765359Y-53652900D01*
X51813697Y-53670493D01*
X51839417Y-53715042D01*
X51839633Y-53739863D01*
X51838028Y-53749997D01*
X51838028Y-53750000D01*
X51858191Y-53877307D01*
X51916708Y-53992152D01*
X52007847Y-54083291D01*
X52007849Y-54083292D01*
X52122692Y-54141808D01*
X52122694Y-54141809D01*
X52207849Y-54155296D01*
X52249999Y-54161972D01*
X52250000Y-54161972D01*
X52250001Y-54161972D01*
X52270164Y-54158778D01*
X52377306Y-54141809D01*
X52492151Y-54083292D01*
X52583292Y-53992151D01*
X52641809Y-53877306D01*
X52661972Y-53750000D01*
X52660366Y-53739863D01*
X52656435Y-53715042D01*
X52641809Y-53622694D01*
X52583292Y-53507849D01*
X52583291Y-53507847D01*
X52492152Y-53416708D01*
X52377306Y-53358191D01*
X52377308Y-53358191D01*
X52250001Y-53338028D01*
X52249999Y-53338028D01*
X52164864Y-53351512D01*
X52114369Y-53341697D01*
X52081997Y-53301721D01*
X52077900Y-53277238D01*
X52077900Y-53004776D01*
X52074962Y-52979451D01*
X52074962Y-52979450D01*
X52029220Y-52875855D01*
X52029219Y-52875854D01*
X52029217Y-52875851D01*
X51949148Y-52795782D01*
X51949145Y-52795780D01*
X51845548Y-52750037D01*
X51826100Y-52747781D01*
X51820226Y-52747100D01*
X50554774Y-52747100D01*
X50549510Y-52747710D01*
X50529451Y-52750037D01*
X50425854Y-52795780D01*
X50425851Y-52795782D01*
X50345782Y-52875851D01*
X50345780Y-52875854D01*
X50300037Y-52979451D01*
X50297100Y-53004776D01*
X50297100Y-53395223D01*
X49541600Y-53395223D01*
X49541600Y-52778100D01*
X49559193Y-52729762D01*
X49603742Y-52704042D01*
X49616800Y-52702900D01*
X49945224Y-52702900D01*
X49945226Y-52702900D01*
X49970550Y-52699962D01*
X50074145Y-52654220D01*
X50154220Y-52574145D01*
X50199962Y-52470550D01*
X50200580Y-52465226D01*
X52484600Y-52465226D01*
X52485218Y-52470550D01*
X52487537Y-52490548D01*
X52533280Y-52594145D01*
X52533282Y-52594148D01*
X52613351Y-52674217D01*
X52613354Y-52674219D01*
X52613355Y-52674220D01*
X52716950Y-52719962D01*
X52742274Y-52722900D01*
X53070700Y-52722900D01*
X53119038Y-52740493D01*
X53144758Y-52785042D01*
X53145900Y-52798100D01*
X53145900Y-53300284D01*
X53128307Y-53348622D01*
X53104840Y-53367288D01*
X53007847Y-53416708D01*
X52916708Y-53507847D01*
X52858191Y-53622692D01*
X52838028Y-53749999D01*
X52838028Y-53750000D01*
X52858191Y-53877307D01*
X52916708Y-53992152D01*
X53007847Y-54083291D01*
X53007849Y-54083292D01*
X53122692Y-54141808D01*
X53122694Y-54141809D01*
X53207849Y-54155296D01*
X53249999Y-54161972D01*
X53250000Y-54161972D01*
X53250001Y-54161972D01*
X53270164Y-54158778D01*
X53377306Y-54141809D01*
X53492151Y-54083292D01*
X53575443Y-54000000D01*
X53838028Y-54000000D01*
X53858191Y-54127307D01*
X53916708Y-54242152D01*
X54007847Y-54333291D01*
X54007849Y-54333292D01*
X54122692Y-54391808D01*
X54122694Y-54391809D01*
X54220487Y-54407297D01*
X54249999Y-54411972D01*
X54250000Y-54411972D01*
X54250001Y-54411972D01*
X54270163Y-54408778D01*
X54377306Y-54391809D01*
X54492151Y-54333292D01*
X54583292Y-54242151D01*
X54641809Y-54127306D01*
X54661972Y-54000000D01*
X54641809Y-53872694D01*
X54595720Y-53782240D01*
X54589451Y-53731184D01*
X54617467Y-53688043D01*
X54662724Y-53672900D01*
X54762828Y-53672900D01*
X54811166Y-53690493D01*
X54836886Y-53735042D01*
X54838028Y-53748100D01*
X54838028Y-53750000D01*
X54858191Y-53877307D01*
X54916707Y-53992150D01*
X54916708Y-53992151D01*
X54998874Y-54074317D01*
X55020614Y-54120936D01*
X55020900Y-54127491D01*
X55020900Y-55493024D01*
X55020848Y-55494992D01*
X55018665Y-55536638D01*
X55027533Y-55559740D01*
X55030883Y-55571050D01*
X55036030Y-55595263D01*
X55036031Y-55595265D01*
X55041108Y-55602253D01*
X55050473Y-55619501D01*
X55053569Y-55627566D01*
X55071064Y-55645061D01*
X55078726Y-55654031D01*
X55093276Y-55674056D01*
X55093278Y-55674058D01*
X55100759Y-55678377D01*
X55116330Y-55690326D01*
X57998874Y-58572870D01*
X58020614Y-58619490D01*
X58020900Y-58626044D01*
X58020900Y-59372508D01*
X58003307Y-59420846D01*
X57998874Y-59425682D01*
X57916708Y-59507847D01*
X57858191Y-59622692D01*
X57838028Y-59749999D01*
X57838028Y-59750000D01*
X57858191Y-59877307D01*
X57916708Y-59992152D01*
X58007847Y-60083291D01*
X58007849Y-60083292D01*
X58122692Y-60141808D01*
X58122694Y-60141809D01*
X58220487Y-60157297D01*
X58249999Y-60161972D01*
X58250000Y-60161972D01*
X58250001Y-60161972D01*
X58270164Y-60158778D01*
X58377306Y-60141809D01*
X58492151Y-60083292D01*
X58583292Y-59992151D01*
X58641809Y-59877306D01*
X58661972Y-59750000D01*
X58661971Y-59749996D01*
X58652469Y-59690000D01*
X59278028Y-59690000D01*
X59298191Y-59817307D01*
X59356708Y-59932152D01*
X59447847Y-60023291D01*
X59447849Y-60023292D01*
X59562692Y-60081808D01*
X59562694Y-60081809D01*
X59660487Y-60097297D01*
X59689999Y-60101972D01*
X59690000Y-60101972D01*
X59690001Y-60101972D01*
X59710164Y-60098778D01*
X59817306Y-60081809D01*
X59932151Y-60023292D01*
X60023292Y-59932151D01*
X60081809Y-59817306D01*
X60101972Y-59690000D01*
X60081809Y-59562694D01*
X60023292Y-59447849D01*
X60023291Y-59447847D01*
X59932152Y-59356708D01*
X59817306Y-59298191D01*
X59817308Y-59298191D01*
X59690001Y-59278028D01*
X59689999Y-59278028D01*
X59562692Y-59298191D01*
X59447847Y-59356708D01*
X59356708Y-59447847D01*
X59298191Y-59562692D01*
X59278028Y-59689999D01*
X59278028Y-59690000D01*
X58652469Y-59690000D01*
X58645652Y-59646959D01*
X58641809Y-59622694D01*
X58583292Y-59507849D01*
X58583291Y-59507847D01*
X58501126Y-59425682D01*
X58479386Y-59379062D01*
X58479100Y-59372508D01*
X58479100Y-58506982D01*
X58479152Y-58505014D01*
X58481334Y-58463362D01*
X58481334Y-58463361D01*
X58472463Y-58440253D01*
X58469114Y-58428943D01*
X58463969Y-58404735D01*
X58458887Y-58397741D01*
X58449526Y-58380497D01*
X58446432Y-58372436D01*
X58446430Y-58372434D01*
X58446430Y-58372433D01*
X58428932Y-58354935D01*
X58421268Y-58345963D01*
X58406721Y-58325940D01*
X58399242Y-58321623D01*
X58383668Y-58309672D01*
X55501126Y-55427129D01*
X55479386Y-55380509D01*
X55479100Y-55373955D01*
X55479100Y-54127491D01*
X55496693Y-54079153D01*
X55501115Y-54074327D01*
X55583292Y-53992151D01*
X55641809Y-53877306D01*
X55642227Y-53874667D01*
X56605428Y-53874667D01*
X56625591Y-54001974D01*
X56684108Y-54116819D01*
X56775247Y-54207958D01*
X56775249Y-54207959D01*
X56890092Y-54266475D01*
X56890094Y-54266476D01*
X56987887Y-54281964D01*
X57017399Y-54286639D01*
X57017400Y-54286639D01*
X57017401Y-54286639D01*
X57037564Y-54283445D01*
X57144706Y-54266476D01*
X57259551Y-54207959D01*
X57350692Y-54116818D01*
X57409209Y-54001973D01*
X57409521Y-54000000D01*
X57838028Y-54000000D01*
X57858191Y-54127307D01*
X57916708Y-54242152D01*
X58007847Y-54333291D01*
X58007849Y-54333292D01*
X58122692Y-54391808D01*
X58122694Y-54391809D01*
X58220487Y-54407297D01*
X58249999Y-54411972D01*
X58250000Y-54411972D01*
X58250001Y-54411972D01*
X58270163Y-54408778D01*
X58377306Y-54391809D01*
X58492151Y-54333292D01*
X58583292Y-54242151D01*
X58641809Y-54127306D01*
X58661972Y-54000000D01*
X58641809Y-53872694D01*
X58641808Y-53872692D01*
X58641808Y-53872691D01*
X58641807Y-53872687D01*
X58582653Y-53756593D01*
X58576383Y-53705537D01*
X58604399Y-53662396D01*
X58653591Y-53647356D01*
X58680031Y-53653661D01*
X58708523Y-53666241D01*
X58716950Y-53669962D01*
X58742274Y-53672900D01*
X58762828Y-53672900D01*
X58811166Y-53690493D01*
X58836886Y-53735042D01*
X58838028Y-53748100D01*
X58838028Y-53750000D01*
X58858191Y-53877307D01*
X58916708Y-53992152D01*
X58998873Y-54074317D01*
X59020613Y-54120937D01*
X59020899Y-54127491D01*
X59020899Y-56493023D01*
X59020847Y-56494991D01*
X59018665Y-56536637D01*
X59018665Y-56536638D01*
X59027533Y-56559740D01*
X59030883Y-56571050D01*
X59036030Y-56595263D01*
X59036031Y-56595265D01*
X59041108Y-56602253D01*
X59050473Y-56619501D01*
X59053569Y-56627566D01*
X59071064Y-56645061D01*
X59078726Y-56654031D01*
X59093276Y-56674056D01*
X59093278Y-56674058D01*
X59100759Y-56678377D01*
X59116330Y-56690326D01*
X60748873Y-58322870D01*
X60770613Y-58369490D01*
X60770899Y-58376044D01*
X60770899Y-59372508D01*
X60753306Y-59420846D01*
X60748874Y-59425682D01*
X60666707Y-59507849D01*
X60608191Y-59622692D01*
X60588028Y-59749999D01*
X60588028Y-59750000D01*
X60608191Y-59877307D01*
X60666708Y-59992152D01*
X60757847Y-60083291D01*
X60757849Y-60083292D01*
X60872692Y-60141808D01*
X60872694Y-60141809D01*
X60970487Y-60157297D01*
X60999999Y-60161972D01*
X61000000Y-60161972D01*
X61000001Y-60161972D01*
X61020163Y-60158778D01*
X61127306Y-60141809D01*
X61242151Y-60083292D01*
X61333292Y-59992151D01*
X61391809Y-59877306D01*
X61411972Y-59750000D01*
X61411971Y-59749996D01*
X61408804Y-59730000D01*
X61818028Y-59730000D01*
X61838191Y-59857307D01*
X61896708Y-59972152D01*
X61987847Y-60063291D01*
X61987849Y-60063292D01*
X62102692Y-60121808D01*
X62102694Y-60121809D01*
X62200487Y-60137297D01*
X62229999Y-60141972D01*
X62230000Y-60141972D01*
X62230001Y-60141972D01*
X62250163Y-60138778D01*
X62357306Y-60121809D01*
X62472151Y-60063292D01*
X62563292Y-59972151D01*
X62621809Y-59857306D01*
X62641972Y-59730000D01*
X62639104Y-59711895D01*
X62638177Y-59706041D01*
X62621809Y-59602694D01*
X62598311Y-59556576D01*
X62563291Y-59487847D01*
X62472152Y-59396708D01*
X62357306Y-59338191D01*
X62357308Y-59338191D01*
X62230001Y-59318028D01*
X62229999Y-59318028D01*
X62102692Y-59338191D01*
X61987847Y-59396708D01*
X61896708Y-59487847D01*
X61838191Y-59602692D01*
X61818028Y-59729999D01*
X61818028Y-59730000D01*
X61408804Y-59730000D01*
X61395652Y-59646959D01*
X61391809Y-59622694D01*
X61333292Y-59507849D01*
X61333291Y-59507847D01*
X61251126Y-59425682D01*
X61229386Y-59379062D01*
X61229100Y-59372508D01*
X61229100Y-58256982D01*
X61229152Y-58255014D01*
X61231334Y-58213362D01*
X61231334Y-58213361D01*
X61222463Y-58190253D01*
X61219114Y-58178943D01*
X61213969Y-58154735D01*
X61208887Y-58147741D01*
X61199526Y-58130497D01*
X61196432Y-58122436D01*
X61196430Y-58122434D01*
X61196430Y-58122433D01*
X61178932Y-58104935D01*
X61171268Y-58095963D01*
X61156721Y-58075940D01*
X61149242Y-58071623D01*
X61133668Y-58059672D01*
X59501125Y-56427128D01*
X59479385Y-56380508D01*
X59479099Y-56373976D01*
X59479099Y-54127491D01*
X59496692Y-54079154D01*
X59501114Y-54074328D01*
X59583292Y-53992151D01*
X59641809Y-53877306D01*
X59661972Y-53750000D01*
X59661972Y-53749997D01*
X59661972Y-53748100D01*
X59662504Y-53746635D01*
X59662898Y-53744154D01*
X59663380Y-53744230D01*
X59679565Y-53699762D01*
X59724114Y-53674042D01*
X59737172Y-53672900D01*
X59837276Y-53672900D01*
X59885614Y-53690493D01*
X59911334Y-53735042D01*
X59904280Y-53782240D01*
X59858191Y-53872692D01*
X59838028Y-53999999D01*
X59838028Y-54000000D01*
X59858191Y-54127307D01*
X59916708Y-54242152D01*
X60007847Y-54333291D01*
X60007849Y-54333292D01*
X60122692Y-54391808D01*
X60122694Y-54391809D01*
X60220487Y-54407297D01*
X60249999Y-54411972D01*
X60250000Y-54411972D01*
X60250001Y-54411972D01*
X60270163Y-54408778D01*
X60377306Y-54391809D01*
X60492151Y-54333292D01*
X60583292Y-54242151D01*
X60641809Y-54127306D01*
X60661972Y-54000000D01*
X60641809Y-53872694D01*
X60583292Y-53757849D01*
X60583291Y-53757847D01*
X60492152Y-53666708D01*
X60377306Y-53608191D01*
X60377308Y-53608191D01*
X60297273Y-53595515D01*
X60252283Y-53570576D01*
X60233848Y-53522553D01*
X60240245Y-53490866D01*
X60262462Y-53440550D01*
X60265400Y-53415226D01*
X60265400Y-53024774D01*
X60262462Y-52999450D01*
X60216720Y-52895855D01*
X60216719Y-52895854D01*
X60216717Y-52895851D01*
X60136648Y-52815782D01*
X60136645Y-52815780D01*
X60033048Y-52770037D01*
X60013600Y-52767781D01*
X60007726Y-52767100D01*
X58742274Y-52767100D01*
X58737010Y-52767710D01*
X58716951Y-52770037D01*
X58613354Y-52815780D01*
X58613351Y-52815782D01*
X58533282Y-52895851D01*
X58533280Y-52895854D01*
X58487537Y-52999451D01*
X58485210Y-53019510D01*
X58484600Y-53024774D01*
X58484600Y-53415226D01*
X58485218Y-53420550D01*
X58487537Y-53440548D01*
X58529686Y-53536006D01*
X58533116Y-53587332D01*
X58502752Y-53628854D01*
X58452802Y-53641144D01*
X58426753Y-53633385D01*
X58377306Y-53608191D01*
X58377308Y-53608191D01*
X58250001Y-53588028D01*
X58249999Y-53588028D01*
X58122692Y-53608191D01*
X58007847Y-53666708D01*
X57916708Y-53757847D01*
X57858191Y-53872692D01*
X57838028Y-53999999D01*
X57838028Y-54000000D01*
X57409521Y-54000000D01*
X57429372Y-53874667D01*
X57423336Y-53836561D01*
X57433150Y-53786070D01*
X57444432Y-53771629D01*
X57657089Y-53558972D01*
X57658455Y-53557675D01*
X57689486Y-53529737D01*
X57699556Y-53507117D01*
X57705179Y-53496762D01*
X57718661Y-53476004D01*
X57720011Y-53467475D01*
X57725585Y-53448657D01*
X57729100Y-53440764D01*
X57729100Y-53416007D01*
X57730026Y-53404242D01*
X57733896Y-53379809D01*
X57731940Y-53372508D01*
X57731662Y-53371469D01*
X57729100Y-53352009D01*
X57729100Y-52798100D01*
X57746693Y-52749762D01*
X57791242Y-52724042D01*
X57804300Y-52722900D01*
X58132724Y-52722900D01*
X58132726Y-52722900D01*
X58158050Y-52719962D01*
X58261645Y-52674220D01*
X58341720Y-52594145D01*
X58387462Y-52490550D01*
X58390400Y-52465226D01*
X60609600Y-52465226D01*
X60610218Y-52470550D01*
X60612537Y-52490548D01*
X60658280Y-52594145D01*
X60658282Y-52594148D01*
X60738351Y-52674217D01*
X60738354Y-52674219D01*
X60738355Y-52674220D01*
X60841950Y-52719962D01*
X60867274Y-52722900D01*
X61195700Y-52722900D01*
X61244038Y-52740493D01*
X61269758Y-52785042D01*
X61270900Y-52798100D01*
X61270899Y-53622508D01*
X61253305Y-53670846D01*
X61248874Y-53675682D01*
X61166707Y-53757849D01*
X61108191Y-53872692D01*
X61088028Y-53999999D01*
X61088028Y-54000000D01*
X61108191Y-54127307D01*
X61166708Y-54242152D01*
X61257847Y-54333291D01*
X61257849Y-54333292D01*
X61372692Y-54391808D01*
X61372694Y-54391809D01*
X61470487Y-54407297D01*
X61499999Y-54411972D01*
X61500000Y-54411972D01*
X61500001Y-54411972D01*
X61520163Y-54408778D01*
X61627306Y-54391809D01*
X61742151Y-54333292D01*
X61833292Y-54242151D01*
X61891809Y-54127306D01*
X61911972Y-54000000D01*
X62088028Y-54000000D01*
X62108191Y-54127307D01*
X62166708Y-54242152D01*
X62257847Y-54333291D01*
X62257849Y-54333292D01*
X62372692Y-54391808D01*
X62372694Y-54391809D01*
X62470487Y-54407297D01*
X62499999Y-54411972D01*
X62500000Y-54411972D01*
X62500001Y-54411972D01*
X62520163Y-54408778D01*
X62627306Y-54391809D01*
X62742151Y-54333292D01*
X62833292Y-54242151D01*
X62891809Y-54127306D01*
X62911972Y-54000000D01*
X62891809Y-53872694D01*
X62845720Y-53782240D01*
X62839451Y-53731184D01*
X62867467Y-53688043D01*
X62912724Y-53672900D01*
X63012828Y-53672900D01*
X63061166Y-53690493D01*
X63086886Y-53735042D01*
X63088028Y-53748100D01*
X63088028Y-53750000D01*
X63108191Y-53877307D01*
X63166708Y-53992152D01*
X63248874Y-54074318D01*
X63270614Y-54120938D01*
X63270900Y-54127492D01*
X63270900Y-59372508D01*
X63253307Y-59420846D01*
X63248874Y-59425682D01*
X63166708Y-59507847D01*
X63108191Y-59622692D01*
X63088028Y-59749999D01*
X63088028Y-59750000D01*
X63108191Y-59877307D01*
X63166708Y-59992152D01*
X63257847Y-60083291D01*
X63257849Y-60083292D01*
X63372692Y-60141808D01*
X63372694Y-60141809D01*
X63470487Y-60157297D01*
X63499999Y-60161972D01*
X63500000Y-60161972D01*
X63500001Y-60161972D01*
X63520164Y-60158778D01*
X63627306Y-60141809D01*
X63742151Y-60083292D01*
X63833292Y-59992151D01*
X63891809Y-59877306D01*
X63911972Y-59750000D01*
X64338028Y-59750000D01*
X64358191Y-59877307D01*
X64416708Y-59992152D01*
X64507847Y-60083291D01*
X64507849Y-60083292D01*
X64622692Y-60141808D01*
X64622694Y-60141809D01*
X64720487Y-60157297D01*
X64749999Y-60161972D01*
X64750000Y-60161972D01*
X64750001Y-60161972D01*
X64770163Y-60158778D01*
X64877306Y-60141809D01*
X64992151Y-60083292D01*
X65083292Y-59992151D01*
X65141809Y-59877306D01*
X65161972Y-59750000D01*
X65588028Y-59750000D01*
X65608191Y-59877307D01*
X65666708Y-59992152D01*
X65757847Y-60083291D01*
X65757849Y-60083292D01*
X65872692Y-60141808D01*
X65872694Y-60141809D01*
X65970487Y-60157297D01*
X65999999Y-60161972D01*
X66000000Y-60161972D01*
X66000001Y-60161972D01*
X66020163Y-60158778D01*
X66127306Y-60141809D01*
X66242151Y-60083292D01*
X66333292Y-59992151D01*
X66391809Y-59877306D01*
X66411972Y-59750000D01*
X66838028Y-59750000D01*
X66858191Y-59877307D01*
X66916708Y-59992152D01*
X67007847Y-60083291D01*
X67007849Y-60083292D01*
X67122692Y-60141808D01*
X67122694Y-60141809D01*
X67220487Y-60157297D01*
X67249999Y-60161972D01*
X67250000Y-60161972D01*
X67250001Y-60161972D01*
X67270164Y-60158778D01*
X67377306Y-60141809D01*
X67492151Y-60083292D01*
X67583292Y-59992151D01*
X67641809Y-59877306D01*
X67661972Y-59750000D01*
X68088028Y-59750000D01*
X68108191Y-59877307D01*
X68166708Y-59992152D01*
X68257847Y-60083291D01*
X68257849Y-60083292D01*
X68372692Y-60141808D01*
X68372694Y-60141809D01*
X68470487Y-60157297D01*
X68499999Y-60161972D01*
X68500000Y-60161972D01*
X68500001Y-60161972D01*
X68520164Y-60158778D01*
X68627306Y-60141809D01*
X68742151Y-60083292D01*
X68833292Y-59992151D01*
X68891809Y-59877306D01*
X68911972Y-59750000D01*
X69588028Y-59750000D01*
X69608191Y-59877307D01*
X69666708Y-59992152D01*
X69757847Y-60083291D01*
X69757849Y-60083292D01*
X69872692Y-60141808D01*
X69872694Y-60141809D01*
X69970487Y-60157297D01*
X69999999Y-60161972D01*
X70000000Y-60161972D01*
X70000001Y-60161972D01*
X70020164Y-60158778D01*
X70127306Y-60141809D01*
X70242151Y-60083292D01*
X70333292Y-59992151D01*
X70391809Y-59877306D01*
X70411972Y-59750000D01*
X70838028Y-59750000D01*
X70858191Y-59877307D01*
X70916708Y-59992152D01*
X71007847Y-60083291D01*
X71007849Y-60083292D01*
X71122692Y-60141808D01*
X71122694Y-60141809D01*
X71220487Y-60157297D01*
X71249999Y-60161972D01*
X71250000Y-60161972D01*
X71250001Y-60161972D01*
X71270163Y-60158778D01*
X71377306Y-60141809D01*
X71492151Y-60083292D01*
X71560388Y-60015055D01*
X74847100Y-60015055D01*
X74847101Y-60015057D01*
X74855972Y-60059659D01*
X74889764Y-60110232D01*
X74889765Y-60110232D01*
X74889766Y-60110234D01*
X74940342Y-60144028D01*
X74984943Y-60152900D01*
X76015056Y-60152899D01*
X76059658Y-60144028D01*
X76110234Y-60110234D01*
X76144028Y-60059658D01*
X76152900Y-60015057D01*
X76152899Y-58984944D01*
X76144028Y-58940342D01*
X76110234Y-58889766D01*
X76059658Y-58855972D01*
X76059656Y-58855971D01*
X76015057Y-58847100D01*
X74984944Y-58847100D01*
X74984942Y-58847101D01*
X74940340Y-58855972D01*
X74889767Y-58889764D01*
X74855972Y-58940342D01*
X74855971Y-58940343D01*
X74847100Y-58984942D01*
X74847100Y-60015055D01*
X71560388Y-60015055D01*
X71583292Y-59992151D01*
X71641809Y-59877306D01*
X71661972Y-59750000D01*
X71661971Y-59749996D01*
X71645652Y-59646959D01*
X71641809Y-59622694D01*
X71583292Y-59507849D01*
X71583291Y-59507847D01*
X71501126Y-59425682D01*
X71479386Y-59379062D01*
X71479100Y-59372508D01*
X71479100Y-56876044D01*
X71496693Y-56827706D01*
X71501126Y-56822870D01*
X74322871Y-54001126D01*
X74369491Y-53979386D01*
X74376045Y-53979100D01*
X75372508Y-53979100D01*
X75420846Y-53996693D01*
X75425682Y-54001126D01*
X75507847Y-54083291D01*
X75507849Y-54083292D01*
X75622692Y-54141808D01*
X75622694Y-54141809D01*
X75707849Y-54155296D01*
X75749999Y-54161972D01*
X75750000Y-54161972D01*
X75750001Y-54161972D01*
X75770163Y-54158778D01*
X75877306Y-54141809D01*
X75992151Y-54083292D01*
X76083292Y-53992151D01*
X76141809Y-53877306D01*
X76161972Y-53750000D01*
X76161972Y-53749997D01*
X76160367Y-53739863D01*
X76170183Y-53689368D01*
X76210160Y-53656997D01*
X76234641Y-53652900D01*
X76257724Y-53652900D01*
X76257726Y-53652900D01*
X76283050Y-53649962D01*
X76386645Y-53604220D01*
X76466720Y-53524145D01*
X76512462Y-53420550D01*
X76515400Y-53395226D01*
X76515400Y-53004774D01*
X76512462Y-52979450D01*
X76466720Y-52875855D01*
X76466719Y-52875854D01*
X76466717Y-52875851D01*
X76386648Y-52795782D01*
X76386645Y-52795780D01*
X76283048Y-52750037D01*
X76263600Y-52747781D01*
X76257726Y-52747100D01*
X74992274Y-52747100D01*
X74987010Y-52747710D01*
X74966951Y-52750037D01*
X74863354Y-52795780D01*
X74863351Y-52795782D01*
X74783282Y-52875851D01*
X74783280Y-52875854D01*
X74737537Y-52979451D01*
X74734600Y-53004776D01*
X74734600Y-53395223D01*
X74737538Y-53420552D01*
X74739009Y-53425958D01*
X74734723Y-53477219D01*
X74698489Y-53513732D01*
X74666447Y-53520900D01*
X74256984Y-53520900D01*
X74255016Y-53520848D01*
X74213362Y-53518665D01*
X74190254Y-53527535D01*
X74178946Y-53530884D01*
X74154736Y-53536030D01*
X74154734Y-53536031D01*
X74147748Y-53541107D01*
X74130502Y-53550471D01*
X74122439Y-53553566D01*
X74122434Y-53553569D01*
X74104931Y-53571071D01*
X74095965Y-53578729D01*
X74075942Y-53593277D01*
X74075940Y-53593280D01*
X74071622Y-53600759D01*
X74059673Y-53616329D01*
X74018187Y-53657815D01*
X73971567Y-53679555D01*
X73921880Y-53666241D01*
X73893492Y-53627875D01*
X73891808Y-53622692D01*
X73833291Y-53507847D01*
X73751126Y-53425682D01*
X73729386Y-53379062D01*
X73729100Y-53372508D01*
X73729100Y-52778100D01*
X73746693Y-52729762D01*
X73791242Y-52704042D01*
X73804300Y-52702900D01*
X74382724Y-52702900D01*
X74382726Y-52702900D01*
X74408050Y-52699962D01*
X74511645Y-52654220D01*
X74591720Y-52574145D01*
X74637462Y-52470550D01*
X74640400Y-52445226D01*
X74640400Y-52054774D01*
X74637462Y-52029450D01*
X74591720Y-51925855D01*
X74591719Y-51925854D01*
X74591717Y-51925851D01*
X74511648Y-51845782D01*
X74511645Y-51845780D01*
X74408048Y-51800037D01*
X74388600Y-51797781D01*
X74382726Y-51797100D01*
X73117274Y-51797100D01*
X73112010Y-51797710D01*
X73091951Y-51800037D01*
X72988354Y-51845780D01*
X72988351Y-51845782D01*
X72908282Y-51925851D01*
X72908280Y-51925854D01*
X72862537Y-52029451D01*
X72859600Y-52054776D01*
X72859600Y-52445223D01*
X72862537Y-52470548D01*
X72908280Y-52574145D01*
X72908282Y-52574148D01*
X72988351Y-52654217D01*
X72988354Y-52654219D01*
X72988355Y-52654220D01*
X73091950Y-52699962D01*
X73117274Y-52702900D01*
X73195700Y-52702900D01*
X73244038Y-52720493D01*
X73269758Y-52765042D01*
X73270900Y-52778100D01*
X73270900Y-53372508D01*
X73253307Y-53420846D01*
X73248874Y-53425682D01*
X73166708Y-53507847D01*
X73108191Y-53622692D01*
X73088028Y-53749999D01*
X73088028Y-53750000D01*
X73108191Y-53877307D01*
X73166708Y-53992152D01*
X73257847Y-54083291D01*
X73344231Y-54127306D01*
X73372694Y-54141809D01*
X73372696Y-54141809D01*
X73377875Y-54143492D01*
X73418412Y-54175159D01*
X73429110Y-54225475D01*
X73407815Y-54268187D01*
X71092936Y-56583066D01*
X71091509Y-56584420D01*
X71060514Y-56612329D01*
X71060512Y-56612333D01*
X71050446Y-56634939D01*
X71044821Y-56645300D01*
X71031338Y-56666065D01*
X71029986Y-56674599D01*
X71024414Y-56693409D01*
X71020900Y-56701303D01*
X71020900Y-56726053D01*
X71019974Y-56737818D01*
X71016103Y-56762256D01*
X71016103Y-56762257D01*
X71018337Y-56770594D01*
X71020900Y-56790059D01*
X71020900Y-59372507D01*
X71003307Y-59420845D01*
X70998875Y-59425681D01*
X70916707Y-59507849D01*
X70858191Y-59622692D01*
X70838028Y-59749999D01*
X70838028Y-59750000D01*
X70411972Y-59750000D01*
X70411971Y-59749996D01*
X70395652Y-59646959D01*
X70391809Y-59622694D01*
X70333292Y-59507849D01*
X70333291Y-59507847D01*
X70242152Y-59416708D01*
X70127306Y-59358191D01*
X70127308Y-59358191D01*
X70000001Y-59338028D01*
X69999999Y-59338028D01*
X69872692Y-59358191D01*
X69757847Y-59416708D01*
X69666708Y-59507847D01*
X69608191Y-59622692D01*
X69588028Y-59749999D01*
X69588028Y-59750000D01*
X68911972Y-59750000D01*
X68906222Y-59713698D01*
X68916037Y-59663205D01*
X68930176Y-59646052D01*
X68939486Y-59637670D01*
X68949552Y-59615059D01*
X68955184Y-59604689D01*
X68968660Y-59583938D01*
X68968659Y-59583938D01*
X68968661Y-59583937D01*
X68970011Y-59575407D01*
X68975586Y-59556586D01*
X68979100Y-59548697D01*
X68979100Y-59523946D01*
X68980026Y-59512180D01*
X68980712Y-59507849D01*
X68983897Y-59487742D01*
X68983419Y-59485960D01*
X68981662Y-59479398D01*
X68979100Y-59459938D01*
X68979100Y-56626043D01*
X68996693Y-56577705D01*
X69001126Y-56572869D01*
X70193486Y-55380509D01*
X71396959Y-54177035D01*
X71443578Y-54155296D01*
X71461888Y-54155935D01*
X71500000Y-54161972D01*
X71627306Y-54141809D01*
X71742151Y-54083292D01*
X71833292Y-53992151D01*
X71891809Y-53877306D01*
X71911972Y-53750000D01*
X71911972Y-53749997D01*
X71911972Y-53748100D01*
X71912504Y-53746635D01*
X71912898Y-53744154D01*
X71913380Y-53744230D01*
X71929565Y-53699762D01*
X71974114Y-53674042D01*
X71987172Y-53672900D01*
X72007724Y-53672900D01*
X72007726Y-53672900D01*
X72033050Y-53669962D01*
X72136645Y-53624220D01*
X72216720Y-53544145D01*
X72262462Y-53440550D01*
X72265400Y-53415226D01*
X72265400Y-53024774D01*
X72262462Y-52999450D01*
X72216720Y-52895855D01*
X72216719Y-52895854D01*
X72216717Y-52895851D01*
X72136648Y-52815782D01*
X72136645Y-52815780D01*
X72033048Y-52770037D01*
X72013600Y-52767781D01*
X72007726Y-52767100D01*
X70742274Y-52767100D01*
X70737010Y-52767710D01*
X70716951Y-52770037D01*
X70613354Y-52815780D01*
X70613351Y-52815782D01*
X70533282Y-52895851D01*
X70533280Y-52895854D01*
X70487537Y-52999451D01*
X70485210Y-53019510D01*
X70484600Y-53024774D01*
X70484600Y-53415226D01*
X70485218Y-53420550D01*
X70487537Y-53440548D01*
X70487632Y-53440764D01*
X70509754Y-53490865D01*
X70509755Y-53490866D01*
X70513185Y-53542192D01*
X70482821Y-53583714D01*
X70452726Y-53595515D01*
X70372692Y-53608191D01*
X70257847Y-53666708D01*
X70166708Y-53757847D01*
X70108191Y-53872692D01*
X70088028Y-53999999D01*
X70088028Y-54000000D01*
X70108191Y-54127307D01*
X70166708Y-54242152D01*
X70257847Y-54333291D01*
X70257849Y-54333292D01*
X70372694Y-54391809D01*
X70372696Y-54391809D01*
X70377875Y-54393492D01*
X70418412Y-54425159D01*
X70429110Y-54475475D01*
X70407815Y-54518187D01*
X68592936Y-56333066D01*
X68591509Y-56334420D01*
X68560514Y-56362329D01*
X68560512Y-56362333D01*
X68550446Y-56384939D01*
X68544821Y-56395300D01*
X68531338Y-56416065D01*
X68529986Y-56424599D01*
X68524414Y-56443409D01*
X68520900Y-56451303D01*
X68520900Y-56476053D01*
X68519974Y-56487818D01*
X68516103Y-56512256D01*
X68516103Y-56512257D01*
X68518337Y-56520594D01*
X68520900Y-56540059D01*
X68520900Y-59270490D01*
X68503307Y-59318828D01*
X68458758Y-59344548D01*
X68457465Y-59344764D01*
X68372692Y-59358191D01*
X68257847Y-59416708D01*
X68166708Y-59507847D01*
X68108191Y-59622692D01*
X68088028Y-59749999D01*
X68088028Y-59750000D01*
X67661972Y-59750000D01*
X67661971Y-59749996D01*
X67645652Y-59646959D01*
X67641809Y-59622694D01*
X67583292Y-59507849D01*
X67583291Y-59507847D01*
X67492152Y-59416708D01*
X67377306Y-59358191D01*
X67377308Y-59358191D01*
X67250001Y-59338028D01*
X67249999Y-59338028D01*
X67122692Y-59358191D01*
X67007847Y-59416708D01*
X66916708Y-59507847D01*
X66858191Y-59622692D01*
X66838028Y-59749999D01*
X66838028Y-59750000D01*
X66411972Y-59750000D01*
X66411971Y-59749996D01*
X66395652Y-59646959D01*
X66391809Y-59622694D01*
X66333292Y-59507849D01*
X66333291Y-59507847D01*
X66251126Y-59425682D01*
X66229386Y-59379062D01*
X66229100Y-59372508D01*
X66229100Y-58126044D01*
X66246693Y-58077706D01*
X66251126Y-58072870D01*
X66529179Y-57794817D01*
X67407099Y-56916896D01*
X67408465Y-56915599D01*
X67439486Y-56887670D01*
X67449556Y-56865050D01*
X67455174Y-56854702D01*
X67468661Y-56833936D01*
X67470011Y-56825407D01*
X67475585Y-56806590D01*
X67479100Y-56798697D01*
X67479100Y-56773946D01*
X67480026Y-56762180D01*
X67483897Y-56737742D01*
X67482351Y-56731971D01*
X67481662Y-56729398D01*
X67479100Y-56709938D01*
X67479100Y-54127492D01*
X67496693Y-54079154D01*
X67501126Y-54074318D01*
X67583291Y-53992152D01*
X67583293Y-53992150D01*
X67641809Y-53877306D01*
X67661972Y-53750000D01*
X67661972Y-53749997D01*
X67661972Y-53748100D01*
X67662504Y-53746635D01*
X67662898Y-53744154D01*
X67663380Y-53744230D01*
X67679565Y-53699762D01*
X67724114Y-53674042D01*
X67737172Y-53672900D01*
X68007724Y-53672900D01*
X68007726Y-53672900D01*
X68033050Y-53669962D01*
X68069968Y-53653660D01*
X68121293Y-53650230D01*
X68162815Y-53680593D01*
X68175107Y-53730543D01*
X68167347Y-53756593D01*
X68108191Y-53872692D01*
X68088028Y-53999999D01*
X68088028Y-54000000D01*
X68108191Y-54127307D01*
X68166708Y-54242152D01*
X68257847Y-54333291D01*
X68257849Y-54333292D01*
X68372692Y-54391808D01*
X68372694Y-54391809D01*
X68470487Y-54407297D01*
X68499999Y-54411972D01*
X68500000Y-54411972D01*
X68500001Y-54411972D01*
X68520163Y-54408778D01*
X68627306Y-54391809D01*
X68742151Y-54333292D01*
X68833292Y-54242151D01*
X68891809Y-54127306D01*
X68911972Y-54000000D01*
X68891809Y-53872694D01*
X68833292Y-53757849D01*
X68833291Y-53757847D01*
X68742152Y-53666708D01*
X68627306Y-53608191D01*
X68627308Y-53608191D01*
X68500001Y-53588028D01*
X68499999Y-53588028D01*
X68372691Y-53608191D01*
X68372690Y-53608192D01*
X68323245Y-53633385D01*
X68272189Y-53639653D01*
X68229048Y-53611637D01*
X68214009Y-53562445D01*
X68220314Y-53536006D01*
X68262016Y-53441560D01*
X68262462Y-53440550D01*
X68265400Y-53415226D01*
X68265400Y-53024774D01*
X68262462Y-52999450D01*
X68216720Y-52895855D01*
X68216719Y-52895854D01*
X68216717Y-52895851D01*
X68136648Y-52815782D01*
X68136645Y-52815780D01*
X68033048Y-52770037D01*
X68013600Y-52767781D01*
X68007726Y-52767100D01*
X66742274Y-52767100D01*
X66737010Y-52767710D01*
X66716951Y-52770037D01*
X66613354Y-52815780D01*
X66613351Y-52815782D01*
X66533282Y-52895851D01*
X66533280Y-52895854D01*
X66487537Y-52999451D01*
X66485210Y-53019510D01*
X66484600Y-53024774D01*
X66484600Y-53415226D01*
X66485218Y-53420550D01*
X66487537Y-53440548D01*
X66533280Y-53544145D01*
X66533282Y-53544148D01*
X66613351Y-53624217D01*
X66613354Y-53624219D01*
X66613355Y-53624220D01*
X66716950Y-53669962D01*
X66742274Y-53672900D01*
X66762828Y-53672900D01*
X66811166Y-53690493D01*
X66836886Y-53735042D01*
X66838028Y-53748100D01*
X66838028Y-53750000D01*
X66858191Y-53877307D01*
X66916708Y-53992152D01*
X66998873Y-54074317D01*
X67020613Y-54120937D01*
X67020899Y-54127491D01*
X67020899Y-56623954D01*
X67003306Y-56672292D01*
X66998873Y-56677128D01*
X65842936Y-57833066D01*
X65841509Y-57834420D01*
X65810514Y-57862329D01*
X65810512Y-57862333D01*
X65800446Y-57884939D01*
X65794821Y-57895300D01*
X65781338Y-57916065D01*
X65779986Y-57924599D01*
X65774414Y-57943409D01*
X65770900Y-57951303D01*
X65770900Y-57976053D01*
X65769974Y-57987817D01*
X65766103Y-58012258D01*
X65767133Y-58016103D01*
X65768337Y-58020594D01*
X65770900Y-58040059D01*
X65770900Y-59372508D01*
X65753307Y-59420846D01*
X65748874Y-59425682D01*
X65666708Y-59507847D01*
X65608191Y-59622692D01*
X65588028Y-59749999D01*
X65588028Y-59750000D01*
X65161972Y-59750000D01*
X65161971Y-59749996D01*
X65145652Y-59646959D01*
X65141809Y-59622694D01*
X65083292Y-59507849D01*
X65083291Y-59507847D01*
X64992152Y-59416708D01*
X64877306Y-59358191D01*
X64877308Y-59358191D01*
X64750001Y-59338028D01*
X64749999Y-59338028D01*
X64622692Y-59358191D01*
X64507847Y-59416708D01*
X64416708Y-59507847D01*
X64358191Y-59622692D01*
X64338028Y-59749999D01*
X64338028Y-59750000D01*
X63911972Y-59750000D01*
X63911971Y-59749996D01*
X63895652Y-59646959D01*
X63891809Y-59622694D01*
X63833292Y-59507849D01*
X63833291Y-59507847D01*
X63751126Y-59425682D01*
X63729386Y-59379062D01*
X63729100Y-59372508D01*
X63729100Y-54127492D01*
X63746693Y-54079154D01*
X63751126Y-54074318D01*
X63825443Y-54000000D01*
X64338028Y-54000000D01*
X64358191Y-54127307D01*
X64416708Y-54242152D01*
X64507847Y-54333291D01*
X64507849Y-54333292D01*
X64622692Y-54391808D01*
X64622694Y-54391809D01*
X64720487Y-54407297D01*
X64749999Y-54411972D01*
X64750000Y-54411972D01*
X64750001Y-54411972D01*
X64770163Y-54408778D01*
X64877306Y-54391809D01*
X64992151Y-54333292D01*
X65083292Y-54242151D01*
X65141809Y-54127306D01*
X65161972Y-54000000D01*
X65141809Y-53872694D01*
X65083292Y-53757849D01*
X65083291Y-53757847D01*
X64992152Y-53666708D01*
X64877306Y-53608191D01*
X64877308Y-53608191D01*
X64750001Y-53588028D01*
X64749999Y-53588028D01*
X64622692Y-53608191D01*
X64507847Y-53666708D01*
X64416708Y-53757847D01*
X64358191Y-53872692D01*
X64338028Y-53999999D01*
X64338028Y-54000000D01*
X63825443Y-54000000D01*
X63833291Y-53992152D01*
X63833293Y-53992150D01*
X63891809Y-53877306D01*
X63911972Y-53750000D01*
X63911972Y-53749997D01*
X63911972Y-53748100D01*
X63912504Y-53746635D01*
X63912898Y-53744154D01*
X63913380Y-53744230D01*
X63929565Y-53699762D01*
X63974114Y-53674042D01*
X63987172Y-53672900D01*
X64007724Y-53672900D01*
X64007726Y-53672900D01*
X64033050Y-53669962D01*
X64136645Y-53624220D01*
X64216720Y-53544145D01*
X64262462Y-53440550D01*
X64265400Y-53415226D01*
X64265400Y-53024774D01*
X64262462Y-52999450D01*
X64216720Y-52895855D01*
X64216719Y-52895854D01*
X64216717Y-52895851D01*
X64136648Y-52815782D01*
X64136645Y-52815780D01*
X64033048Y-52770037D01*
X64013600Y-52767781D01*
X64007726Y-52767100D01*
X62742274Y-52767100D01*
X62737010Y-52767710D01*
X62716951Y-52770037D01*
X62613354Y-52815780D01*
X62613351Y-52815782D01*
X62533282Y-52895851D01*
X62533280Y-52895854D01*
X62487537Y-52999451D01*
X62485210Y-53019510D01*
X62484600Y-53024774D01*
X62484600Y-53415226D01*
X62485218Y-53420550D01*
X62487537Y-53440548D01*
X62487632Y-53440764D01*
X62509754Y-53490865D01*
X62509755Y-53490866D01*
X62513185Y-53542192D01*
X62482821Y-53583714D01*
X62452726Y-53595515D01*
X62372692Y-53608191D01*
X62257847Y-53666708D01*
X62166708Y-53757847D01*
X62108191Y-53872692D01*
X62088028Y-53999999D01*
X62088028Y-54000000D01*
X61911972Y-54000000D01*
X61891809Y-53872694D01*
X61833292Y-53757849D01*
X61833291Y-53757847D01*
X61751126Y-53675682D01*
X61729386Y-53629062D01*
X61729100Y-53622508D01*
X61729100Y-52798100D01*
X61746693Y-52749762D01*
X61791242Y-52724042D01*
X61804300Y-52722900D01*
X62132724Y-52722900D01*
X62132726Y-52722900D01*
X62158050Y-52719962D01*
X62261645Y-52674220D01*
X62341720Y-52594145D01*
X62387462Y-52490550D01*
X62390400Y-52465226D01*
X64609600Y-52465226D01*
X64610218Y-52470550D01*
X64612537Y-52490548D01*
X64658280Y-52594145D01*
X64658282Y-52594148D01*
X64738351Y-52674217D01*
X64738354Y-52674219D01*
X64738355Y-52674220D01*
X64841950Y-52719962D01*
X64867274Y-52722900D01*
X65195700Y-52722900D01*
X65244038Y-52740493D01*
X65269758Y-52785042D01*
X65270900Y-52798100D01*
X65270900Y-53493024D01*
X65270848Y-53494992D01*
X65268665Y-53536638D01*
X65277533Y-53559740D01*
X65280883Y-53571050D01*
X65286030Y-53595263D01*
X65286031Y-53595265D01*
X65290022Y-53600759D01*
X65291108Y-53602253D01*
X65300471Y-53619498D01*
X65303568Y-53627564D01*
X65303569Y-53627566D01*
X65321064Y-53645061D01*
X65328716Y-53654018D01*
X65330521Y-53656501D01*
X65344713Y-53705944D01*
X65343970Y-53712478D01*
X65338029Y-53749998D01*
X65338028Y-53750002D01*
X65358191Y-53877307D01*
X65416708Y-53992152D01*
X65507847Y-54083291D01*
X65507849Y-54083292D01*
X65622692Y-54141808D01*
X65622694Y-54141809D01*
X65707849Y-54155296D01*
X65749999Y-54161972D01*
X65750000Y-54161972D01*
X65750001Y-54161972D01*
X65770163Y-54158778D01*
X65877306Y-54141809D01*
X65992151Y-54083292D01*
X66083292Y-53992151D01*
X66141809Y-53877306D01*
X66161972Y-53750000D01*
X66160366Y-53739863D01*
X66156435Y-53715042D01*
X66141809Y-53622694D01*
X66083292Y-53507849D01*
X66083291Y-53507847D01*
X65992152Y-53416708D01*
X65877306Y-53358191D01*
X65877308Y-53358191D01*
X65792534Y-53344764D01*
X65747544Y-53319825D01*
X65729110Y-53271802D01*
X65729100Y-53270609D01*
X65729100Y-52798100D01*
X65746694Y-52749762D01*
X65791242Y-52724042D01*
X65804300Y-52722900D01*
X66132724Y-52722900D01*
X66132726Y-52722900D01*
X66158050Y-52719962D01*
X66261645Y-52674220D01*
X66341720Y-52594145D01*
X66387462Y-52490550D01*
X66390400Y-52465226D01*
X68609600Y-52465226D01*
X68610218Y-52470550D01*
X68612537Y-52490548D01*
X68658280Y-52594145D01*
X68658282Y-52594148D01*
X68738351Y-52674217D01*
X68738354Y-52674219D01*
X68738355Y-52674220D01*
X68841950Y-52719962D01*
X68867274Y-52722900D01*
X69195700Y-52722900D01*
X69244038Y-52740493D01*
X69269758Y-52785042D01*
X69270900Y-52798100D01*
X69270900Y-53372508D01*
X69253307Y-53420846D01*
X69248874Y-53425682D01*
X69166708Y-53507847D01*
X69108191Y-53622692D01*
X69088028Y-53749999D01*
X69088028Y-53750000D01*
X69108191Y-53877307D01*
X69166708Y-53992152D01*
X69257847Y-54083291D01*
X69257849Y-54083292D01*
X69372692Y-54141808D01*
X69372694Y-54141809D01*
X69457849Y-54155296D01*
X69499999Y-54161972D01*
X69500000Y-54161972D01*
X69500001Y-54161972D01*
X69520164Y-54158778D01*
X69627306Y-54141809D01*
X69742151Y-54083292D01*
X69833292Y-53992151D01*
X69891809Y-53877306D01*
X69911972Y-53750000D01*
X69910366Y-53739863D01*
X69906435Y-53715042D01*
X69891809Y-53622694D01*
X69833292Y-53507849D01*
X69833291Y-53507847D01*
X69751126Y-53425682D01*
X69729386Y-53379062D01*
X69729100Y-53372508D01*
X69729100Y-52798100D01*
X69746693Y-52749762D01*
X69791242Y-52724042D01*
X69804300Y-52722900D01*
X70132724Y-52722900D01*
X70132726Y-52722900D01*
X70158050Y-52719962D01*
X70261645Y-52674220D01*
X70341720Y-52594145D01*
X70387462Y-52490550D01*
X70390400Y-52465226D01*
X70390400Y-52074774D01*
X70387462Y-52049450D01*
X70341720Y-51945855D01*
X70341719Y-51945854D01*
X70341717Y-51945851D01*
X70261648Y-51865782D01*
X70261645Y-51865780D01*
X70158048Y-51820037D01*
X70138600Y-51817781D01*
X70132726Y-51817100D01*
X68867274Y-51817100D01*
X68862010Y-51817710D01*
X68841951Y-51820037D01*
X68738354Y-51865780D01*
X68738351Y-51865782D01*
X68658282Y-51945851D01*
X68658280Y-51945854D01*
X68612537Y-52049451D01*
X68610210Y-52069510D01*
X68609600Y-52074774D01*
X68609600Y-52465226D01*
X66390400Y-52465226D01*
X66390400Y-52074774D01*
X66387462Y-52049450D01*
X66341720Y-51945855D01*
X66341719Y-51945854D01*
X66341717Y-51945851D01*
X66261648Y-51865782D01*
X66261645Y-51865780D01*
X66158048Y-51820037D01*
X66138600Y-51817781D01*
X66132726Y-51817100D01*
X64867274Y-51817100D01*
X64862010Y-51817710D01*
X64841951Y-51820037D01*
X64738354Y-51865780D01*
X64738351Y-51865782D01*
X64658282Y-51945851D01*
X64658280Y-51945854D01*
X64612537Y-52049451D01*
X64610210Y-52069510D01*
X64609600Y-52074774D01*
X64609600Y-52465226D01*
X62390400Y-52465226D01*
X62390400Y-52074774D01*
X62387462Y-52049450D01*
X62341720Y-51945855D01*
X62341719Y-51945854D01*
X62341717Y-51945851D01*
X62261648Y-51865782D01*
X62261645Y-51865780D01*
X62158048Y-51820037D01*
X62138600Y-51817781D01*
X62132726Y-51817100D01*
X60867274Y-51817100D01*
X60862010Y-51817710D01*
X60841951Y-51820037D01*
X60738354Y-51865780D01*
X60738351Y-51865782D01*
X60658282Y-51945851D01*
X60658280Y-51945854D01*
X60612537Y-52049451D01*
X60610210Y-52069510D01*
X60609600Y-52074774D01*
X60609600Y-52465226D01*
X58390400Y-52465226D01*
X58390400Y-52074774D01*
X58387462Y-52049450D01*
X58341720Y-51945855D01*
X58341719Y-51945854D01*
X58341717Y-51945851D01*
X58261648Y-51865782D01*
X58261645Y-51865780D01*
X58158048Y-51820037D01*
X58138600Y-51817781D01*
X58132726Y-51817100D01*
X56867274Y-51817100D01*
X56862010Y-51817710D01*
X56841951Y-51820037D01*
X56738354Y-51865780D01*
X56738351Y-51865782D01*
X56658282Y-51945851D01*
X56658280Y-51945854D01*
X56612537Y-52049451D01*
X56610210Y-52069510D01*
X56609600Y-52074774D01*
X56609600Y-52465226D01*
X56610218Y-52470550D01*
X56612537Y-52490548D01*
X56658280Y-52594145D01*
X56658282Y-52594148D01*
X56738351Y-52674217D01*
X56738354Y-52674219D01*
X56738355Y-52674220D01*
X56841950Y-52719962D01*
X56867274Y-52722900D01*
X57195700Y-52722900D01*
X57244038Y-52740493D01*
X57269758Y-52785042D01*
X57270900Y-52798100D01*
X57270900Y-53266020D01*
X57253307Y-53314358D01*
X57248874Y-53319195D01*
X57120438Y-53447630D01*
X57073818Y-53469369D01*
X57055501Y-53468729D01*
X57017402Y-53462695D01*
X57017399Y-53462695D01*
X56890092Y-53482858D01*
X56775247Y-53541375D01*
X56684108Y-53632514D01*
X56625591Y-53747359D01*
X56605428Y-53874666D01*
X56605428Y-53874667D01*
X55642227Y-53874667D01*
X55661972Y-53750000D01*
X55661972Y-53749997D01*
X55661972Y-53748100D01*
X55662504Y-53746635D01*
X55662898Y-53744154D01*
X55663380Y-53744230D01*
X55679565Y-53699762D01*
X55724114Y-53674042D01*
X55737172Y-53672900D01*
X55882724Y-53672900D01*
X55882726Y-53672900D01*
X55908050Y-53669962D01*
X56011645Y-53624220D01*
X56091720Y-53544145D01*
X56137462Y-53440550D01*
X56140400Y-53415226D01*
X56140400Y-53024774D01*
X56137462Y-52999450D01*
X56091720Y-52895855D01*
X56091719Y-52895854D01*
X56091717Y-52895851D01*
X56011648Y-52815782D01*
X56011645Y-52815780D01*
X55908048Y-52770037D01*
X55888600Y-52767781D01*
X55882726Y-52767100D01*
X54617274Y-52767100D01*
X54612010Y-52767710D01*
X54591951Y-52770037D01*
X54488354Y-52815780D01*
X54488351Y-52815782D01*
X54408282Y-52895851D01*
X54408280Y-52895854D01*
X54362537Y-52999451D01*
X54360210Y-53019510D01*
X54359600Y-53024774D01*
X54359600Y-53415226D01*
X54360218Y-53420550D01*
X54362538Y-53440550D01*
X54362538Y-53440552D01*
X54385275Y-53492045D01*
X54388706Y-53543370D01*
X54358342Y-53584893D01*
X54308392Y-53597184D01*
X54304720Y-53596694D01*
X54250002Y-53588028D01*
X54249999Y-53588028D01*
X54122692Y-53608191D01*
X54007847Y-53666708D01*
X53916708Y-53757847D01*
X53858191Y-53872692D01*
X53838028Y-53999999D01*
X53838028Y-54000000D01*
X53575443Y-54000000D01*
X53583292Y-53992151D01*
X53641809Y-53877306D01*
X53661972Y-53750000D01*
X53660366Y-53739863D01*
X53656435Y-53715042D01*
X53641809Y-53622694D01*
X53632396Y-53604219D01*
X53612296Y-53564771D01*
X53604100Y-53530631D01*
X53604100Y-52798100D01*
X53621693Y-52749762D01*
X53666242Y-52724042D01*
X53679300Y-52722900D01*
X54007724Y-52722900D01*
X54007726Y-52722900D01*
X54033050Y-52719962D01*
X54136645Y-52674220D01*
X54216720Y-52594145D01*
X54262462Y-52490550D01*
X54265400Y-52465226D01*
X54265400Y-52074774D01*
X54262462Y-52049450D01*
X54216720Y-51945855D01*
X54216719Y-51945854D01*
X54216717Y-51945851D01*
X54136648Y-51865782D01*
X54136645Y-51865780D01*
X54033048Y-51820037D01*
X54013600Y-51817781D01*
X54007726Y-51817100D01*
X52742274Y-51817100D01*
X52737010Y-51817710D01*
X52716951Y-51820037D01*
X52613354Y-51865780D01*
X52613351Y-51865782D01*
X52533282Y-51945851D01*
X52533280Y-51945854D01*
X52487537Y-52049451D01*
X52485210Y-52069510D01*
X52484600Y-52074774D01*
X52484600Y-52465226D01*
X50200580Y-52465226D01*
X50202900Y-52445226D01*
X50202900Y-52054774D01*
X50199962Y-52029450D01*
X50154220Y-51925855D01*
X50154219Y-51925854D01*
X50154217Y-51925851D01*
X50074148Y-51845782D01*
X50074145Y-51845780D01*
X49970548Y-51800037D01*
X49951100Y-51797781D01*
X49945226Y-51797100D01*
X48679774Y-51797100D01*
X48674510Y-51797710D01*
X48654451Y-51800037D01*
X48550854Y-51845780D01*
X48550851Y-51845782D01*
X48470782Y-51925851D01*
X48470780Y-51925854D01*
X48425037Y-52029451D01*
X48422100Y-52054776D01*
X48422100Y-52445223D01*
X45952900Y-52445223D01*
X45952900Y-52054774D01*
X45949962Y-52029450D01*
X45904220Y-51925855D01*
X45904219Y-51925854D01*
X45904217Y-51925851D01*
X45824148Y-51845782D01*
X45824145Y-51845780D01*
X45720548Y-51800037D01*
X45701100Y-51797781D01*
X45695226Y-51797100D01*
X44429774Y-51797100D01*
X44424510Y-51797710D01*
X44404451Y-51800037D01*
X44300854Y-51845780D01*
X44300851Y-51845782D01*
X44220782Y-51925851D01*
X44220780Y-51925854D01*
X44175037Y-52029451D01*
X44172100Y-52054776D01*
X44172100Y-52445223D01*
X43307500Y-52445223D01*
X43307500Y-51495223D01*
X46047100Y-51495223D01*
X46050037Y-51520548D01*
X46095780Y-51624145D01*
X46095782Y-51624148D01*
X46175851Y-51704217D01*
X46175854Y-51704219D01*
X46175855Y-51704220D01*
X46279450Y-51749962D01*
X46304774Y-51752900D01*
X46304776Y-51752900D01*
X47570224Y-51752900D01*
X47570226Y-51752900D01*
X47595550Y-51749962D01*
X47699145Y-51704220D01*
X47779220Y-51624145D01*
X47824962Y-51520550D01*
X47827900Y-51495226D01*
X47827900Y-51495223D01*
X50297100Y-51495223D01*
X50300037Y-51520548D01*
X50345780Y-51624145D01*
X50345782Y-51624148D01*
X50425851Y-51704217D01*
X50425854Y-51704219D01*
X50425855Y-51704220D01*
X50529450Y-51749962D01*
X50554774Y-51752900D01*
X50554776Y-51752900D01*
X51820224Y-51752900D01*
X51820226Y-51752900D01*
X51845550Y-51749962D01*
X51949145Y-51704220D01*
X52029220Y-51624145D01*
X52074962Y-51520550D01*
X52075580Y-51515226D01*
X54359600Y-51515226D01*
X54360218Y-51520550D01*
X54362537Y-51540548D01*
X54408280Y-51644145D01*
X54408282Y-51644148D01*
X54488351Y-51724217D01*
X54488354Y-51724219D01*
X54488355Y-51724220D01*
X54591950Y-51769962D01*
X54617274Y-51772900D01*
X54617276Y-51772900D01*
X55882724Y-51772900D01*
X55882726Y-51772900D01*
X55908050Y-51769962D01*
X56011645Y-51724220D01*
X56091720Y-51644145D01*
X56137462Y-51540550D01*
X56140400Y-51515226D01*
X58484600Y-51515226D01*
X58485218Y-51520550D01*
X58487537Y-51540548D01*
X58533280Y-51644145D01*
X58533282Y-51644148D01*
X58613351Y-51724217D01*
X58613354Y-51724219D01*
X58613355Y-51724220D01*
X58716950Y-51769962D01*
X58742274Y-51772900D01*
X58742276Y-51772900D01*
X60007724Y-51772900D01*
X60007726Y-51772900D01*
X60033050Y-51769962D01*
X60136645Y-51724220D01*
X60216720Y-51644145D01*
X60262462Y-51540550D01*
X60265400Y-51515226D01*
X62484600Y-51515226D01*
X62485218Y-51520550D01*
X62487537Y-51540548D01*
X62533280Y-51644145D01*
X62533282Y-51644148D01*
X62613351Y-51724217D01*
X62613354Y-51724219D01*
X62613355Y-51724220D01*
X62716950Y-51769962D01*
X62742274Y-51772900D01*
X62742276Y-51772900D01*
X64007724Y-51772900D01*
X64007726Y-51772900D01*
X64033050Y-51769962D01*
X64136645Y-51724220D01*
X64216720Y-51644145D01*
X64262462Y-51540550D01*
X64265400Y-51515226D01*
X66484600Y-51515226D01*
X66485218Y-51520550D01*
X66487537Y-51540548D01*
X66533280Y-51644145D01*
X66533282Y-51644148D01*
X66613351Y-51724217D01*
X66613354Y-51724219D01*
X66613355Y-51724220D01*
X66716950Y-51769962D01*
X66742274Y-51772900D01*
X66742276Y-51772900D01*
X68007724Y-51772900D01*
X68007726Y-51772900D01*
X68033050Y-51769962D01*
X68136645Y-51724220D01*
X68216720Y-51644145D01*
X68262462Y-51540550D01*
X68265400Y-51515226D01*
X70484600Y-51515226D01*
X70485218Y-51520550D01*
X70487537Y-51540548D01*
X70533280Y-51644145D01*
X70533282Y-51644148D01*
X70613351Y-51724217D01*
X70613354Y-51724219D01*
X70613355Y-51724220D01*
X70716950Y-51769962D01*
X70742274Y-51772900D01*
X70742276Y-51772900D01*
X72007724Y-51772900D01*
X72007726Y-51772900D01*
X72033050Y-51769962D01*
X72136645Y-51724220D01*
X72216720Y-51644145D01*
X72262462Y-51540550D01*
X72265400Y-51515226D01*
X72265400Y-51495223D01*
X74734600Y-51495223D01*
X74737537Y-51520548D01*
X74783280Y-51624145D01*
X74783282Y-51624148D01*
X74863351Y-51704217D01*
X74863354Y-51704219D01*
X74863355Y-51704220D01*
X74966950Y-51749962D01*
X74992274Y-51752900D01*
X74992276Y-51752900D01*
X76257724Y-51752900D01*
X76257726Y-51752900D01*
X76283050Y-51749962D01*
X76386645Y-51704220D01*
X76466720Y-51624145D01*
X76512462Y-51520550D01*
X76515400Y-51495226D01*
X76515400Y-51104774D01*
X76512462Y-51079450D01*
X76466720Y-50975855D01*
X76466719Y-50975854D01*
X76466717Y-50975851D01*
X76386648Y-50895782D01*
X76386645Y-50895780D01*
X76283048Y-50850037D01*
X76263600Y-50847781D01*
X76257726Y-50847100D01*
X76257724Y-50847100D01*
X76152534Y-50847100D01*
X76104196Y-50829507D01*
X76078476Y-50784958D01*
X76085530Y-50737760D01*
X76125609Y-50659100D01*
X76141809Y-50627306D01*
X76161972Y-50500000D01*
X76141809Y-50372694D01*
X76083292Y-50257849D01*
X76083291Y-50257847D01*
X75992152Y-50166708D01*
X75877306Y-50108191D01*
X75877308Y-50108191D01*
X75750001Y-50088028D01*
X75749999Y-50088028D01*
X75622692Y-50108191D01*
X75507847Y-50166708D01*
X75416708Y-50257847D01*
X75358191Y-50372692D01*
X75342495Y-50471794D01*
X75338028Y-50500000D01*
X75358191Y-50627306D01*
X75387703Y-50685227D01*
X75395900Y-50719365D01*
X75395900Y-50771900D01*
X75378307Y-50820238D01*
X75333758Y-50845958D01*
X75320700Y-50847100D01*
X74992274Y-50847100D01*
X74987010Y-50847710D01*
X74966951Y-50850037D01*
X74863354Y-50895780D01*
X74863351Y-50895782D01*
X74783282Y-50975851D01*
X74783280Y-50975854D01*
X74737537Y-51079451D01*
X74734600Y-51104776D01*
X74734600Y-51495223D01*
X72265400Y-51495223D01*
X72265400Y-51124774D01*
X72262462Y-51099450D01*
X72216720Y-50995855D01*
X72216719Y-50995854D01*
X72216717Y-50995851D01*
X72136648Y-50915782D01*
X72136645Y-50915780D01*
X72033048Y-50870037D01*
X72013600Y-50867781D01*
X72007726Y-50867100D01*
X72007724Y-50867100D01*
X71942837Y-50867100D01*
X71894499Y-50849507D01*
X71868779Y-50804958D01*
X71875834Y-50757759D01*
X71891808Y-50726408D01*
X71891808Y-50726407D01*
X71891809Y-50726406D01*
X71911972Y-50599100D01*
X71891809Y-50471794D01*
X71833292Y-50356949D01*
X71833291Y-50356947D01*
X71742152Y-50265808D01*
X71627306Y-50207291D01*
X71627308Y-50207291D01*
X71500001Y-50187128D01*
X71499999Y-50187128D01*
X71372692Y-50207291D01*
X71257847Y-50265808D01*
X71166708Y-50356947D01*
X71108191Y-50471792D01*
X71088028Y-50599099D01*
X71088028Y-50599100D01*
X71108191Y-50726408D01*
X71124166Y-50757759D01*
X71130436Y-50808815D01*
X71102420Y-50851957D01*
X71057163Y-50867100D01*
X70742274Y-50867100D01*
X70737010Y-50867710D01*
X70716951Y-50870037D01*
X70613354Y-50915780D01*
X70613351Y-50915782D01*
X70533282Y-50995851D01*
X70533280Y-50995854D01*
X70487537Y-51099451D01*
X70485210Y-51119510D01*
X70484600Y-51124774D01*
X70484600Y-51515226D01*
X68265400Y-51515226D01*
X68265400Y-51124774D01*
X68262462Y-51099450D01*
X68216720Y-50995855D01*
X68216719Y-50995854D01*
X68216717Y-50995851D01*
X68136648Y-50915782D01*
X68136645Y-50915780D01*
X68033048Y-50870037D01*
X68013600Y-50867781D01*
X68007726Y-50867100D01*
X68007724Y-50867100D01*
X67889892Y-50867100D01*
X67841554Y-50849507D01*
X67815834Y-50804958D01*
X67824767Y-50754300D01*
X67830201Y-50747217D01*
X67829815Y-50746937D01*
X67833291Y-50742152D01*
X67841314Y-50726408D01*
X67891809Y-50627306D01*
X67911972Y-50500000D01*
X67891809Y-50372694D01*
X67833292Y-50257849D01*
X67833291Y-50257847D01*
X67742152Y-50166708D01*
X67627306Y-50108191D01*
X67627308Y-50108191D01*
X67500001Y-50088028D01*
X67499999Y-50088028D01*
X67372692Y-50108191D01*
X67257847Y-50166708D01*
X67166708Y-50257847D01*
X67108191Y-50372692D01*
X67092495Y-50471794D01*
X67088028Y-50500000D01*
X67108191Y-50627306D01*
X67137703Y-50685227D01*
X67145900Y-50719365D01*
X67145900Y-50791900D01*
X67128307Y-50840238D01*
X67083758Y-50865958D01*
X67070700Y-50867100D01*
X66742274Y-50867100D01*
X66737010Y-50867710D01*
X66716951Y-50870037D01*
X66613354Y-50915780D01*
X66613351Y-50915782D01*
X66533282Y-50995851D01*
X66533280Y-50995854D01*
X66487537Y-51099451D01*
X66485210Y-51119510D01*
X66484600Y-51124774D01*
X66484600Y-51515226D01*
X64265400Y-51515226D01*
X64265400Y-51124774D01*
X64262462Y-51099450D01*
X64216720Y-50995855D01*
X64216719Y-50995854D01*
X64216717Y-50995851D01*
X64136648Y-50915782D01*
X64136645Y-50915780D01*
X64033048Y-50870037D01*
X64013600Y-50867781D01*
X64007726Y-50867100D01*
X64007724Y-50867100D01*
X63942837Y-50867100D01*
X63894499Y-50849507D01*
X63868779Y-50804958D01*
X63875834Y-50757759D01*
X63891808Y-50726408D01*
X63891808Y-50726407D01*
X63891809Y-50726406D01*
X63911972Y-50599100D01*
X63891809Y-50471794D01*
X63833292Y-50356949D01*
X63833291Y-50356947D01*
X63742152Y-50265808D01*
X63627306Y-50207291D01*
X63627308Y-50207291D01*
X63500001Y-50187128D01*
X63499999Y-50187128D01*
X63372692Y-50207291D01*
X63257847Y-50265808D01*
X63166708Y-50356947D01*
X63108191Y-50471792D01*
X63088028Y-50599099D01*
X63088028Y-50599100D01*
X63108191Y-50726408D01*
X63124166Y-50757759D01*
X63130436Y-50808815D01*
X63102420Y-50851957D01*
X63057163Y-50867100D01*
X62742274Y-50867100D01*
X62737010Y-50867710D01*
X62716951Y-50870037D01*
X62613354Y-50915780D01*
X62613351Y-50915782D01*
X62533282Y-50995851D01*
X62533280Y-50995854D01*
X62487537Y-51099451D01*
X62485210Y-51119510D01*
X62484600Y-51124774D01*
X62484600Y-51515226D01*
X60265400Y-51515226D01*
X60265400Y-51124774D01*
X60262462Y-51099450D01*
X60216720Y-50995855D01*
X60216719Y-50995854D01*
X60216717Y-50995851D01*
X60136648Y-50915782D01*
X60136645Y-50915780D01*
X60033048Y-50870037D01*
X60013600Y-50867781D01*
X60007726Y-50867100D01*
X60007724Y-50867100D01*
X59703027Y-50867100D01*
X59654689Y-50849507D01*
X59628969Y-50804958D01*
X59636024Y-50757760D01*
X59640659Y-50748662D01*
X59641809Y-50746406D01*
X59661972Y-50619100D01*
X59641809Y-50491794D01*
X59583292Y-50376949D01*
X59583291Y-50376947D01*
X59492152Y-50285808D01*
X59377306Y-50227291D01*
X59377308Y-50227291D01*
X59250001Y-50207128D01*
X59249999Y-50207128D01*
X59122692Y-50227291D01*
X59007847Y-50285808D01*
X58916708Y-50376947D01*
X58858191Y-50491792D01*
X58838028Y-50619099D01*
X58838028Y-50619100D01*
X58858191Y-50746408D01*
X58858192Y-50746412D01*
X58863975Y-50757760D01*
X58870245Y-50808816D01*
X58842229Y-50851957D01*
X58796972Y-50867100D01*
X58742274Y-50867100D01*
X58737010Y-50867710D01*
X58716951Y-50870037D01*
X58613354Y-50915780D01*
X58613351Y-50915782D01*
X58533282Y-50995851D01*
X58533280Y-50995854D01*
X58487537Y-51099451D01*
X58485210Y-51119510D01*
X58484600Y-51124774D01*
X58484600Y-51515226D01*
X56140400Y-51515226D01*
X56140400Y-51124774D01*
X56137462Y-51099450D01*
X56091720Y-50995855D01*
X56091719Y-50995854D01*
X56091717Y-50995851D01*
X56011648Y-50915782D01*
X56011645Y-50915780D01*
X55908048Y-50870037D01*
X55888600Y-50867781D01*
X55882726Y-50867100D01*
X55882724Y-50867100D01*
X55712595Y-50867100D01*
X55664257Y-50849507D01*
X55638537Y-50804958D01*
X55641076Y-50768662D01*
X55641808Y-50766407D01*
X55641809Y-50766406D01*
X55661972Y-50639100D01*
X55641809Y-50511794D01*
X55583292Y-50396949D01*
X55583291Y-50396947D01*
X55492152Y-50305808D01*
X55377306Y-50247291D01*
X55377308Y-50247291D01*
X55250001Y-50227128D01*
X55249999Y-50227128D01*
X55122692Y-50247291D01*
X55007847Y-50305808D01*
X54916708Y-50396947D01*
X54858191Y-50511792D01*
X54838028Y-50639099D01*
X54838028Y-50639100D01*
X54858191Y-50766407D01*
X54858924Y-50768662D01*
X54858856Y-50770604D01*
X54859117Y-50772251D01*
X54858796Y-50772301D01*
X54857129Y-50820070D01*
X54822709Y-50858298D01*
X54787405Y-50867100D01*
X54617274Y-50867100D01*
X54612010Y-50867710D01*
X54591951Y-50870037D01*
X54488354Y-50915780D01*
X54488351Y-50915782D01*
X54408282Y-50995851D01*
X54408280Y-50995854D01*
X54362537Y-51099451D01*
X54360210Y-51119510D01*
X54359600Y-51124774D01*
X54359600Y-51515226D01*
X52075580Y-51515226D01*
X52077900Y-51495226D01*
X52077900Y-51104774D01*
X52074962Y-51079450D01*
X52029220Y-50975855D01*
X52029219Y-50975854D01*
X52029217Y-50975851D01*
X51949148Y-50895782D01*
X51949145Y-50895780D01*
X51845548Y-50850037D01*
X51826100Y-50847781D01*
X51820226Y-50847100D01*
X51820224Y-50847100D01*
X51712595Y-50847100D01*
X51664257Y-50829507D01*
X51638537Y-50784958D01*
X51641076Y-50748662D01*
X51641808Y-50746407D01*
X51641809Y-50746406D01*
X51661972Y-50619100D01*
X51641809Y-50491794D01*
X51583292Y-50376949D01*
X51583291Y-50376947D01*
X51492152Y-50285808D01*
X51377306Y-50227291D01*
X51377308Y-50227291D01*
X51250001Y-50207128D01*
X51249999Y-50207128D01*
X51122692Y-50227291D01*
X51007847Y-50285808D01*
X50916708Y-50376947D01*
X50858191Y-50491792D01*
X50838028Y-50619099D01*
X50838028Y-50619100D01*
X50858191Y-50746407D01*
X50858924Y-50748662D01*
X50858856Y-50750604D01*
X50859117Y-50752251D01*
X50858796Y-50752301D01*
X50857129Y-50800070D01*
X50822709Y-50838298D01*
X50787405Y-50847100D01*
X50554774Y-50847100D01*
X50549510Y-50847710D01*
X50529451Y-50850037D01*
X50425854Y-50895780D01*
X50425851Y-50895782D01*
X50345782Y-50975851D01*
X50345780Y-50975854D01*
X50300037Y-51079451D01*
X50297100Y-51104776D01*
X50297100Y-51495223D01*
X47827900Y-51495223D01*
X47827900Y-51104774D01*
X47824962Y-51079450D01*
X47779220Y-50975855D01*
X47779219Y-50975854D01*
X47779217Y-50975851D01*
X47699148Y-50895782D01*
X47699145Y-50895780D01*
X47595548Y-50850037D01*
X47576100Y-50847781D01*
X47570226Y-50847100D01*
X47570224Y-50847100D01*
X47470244Y-50847100D01*
X47421906Y-50829507D01*
X47396186Y-50784958D01*
X47395970Y-50760136D01*
X47411972Y-50659100D01*
X47411972Y-50659099D01*
X47405637Y-50619100D01*
X47391809Y-50531794D01*
X47375609Y-50499999D01*
X47333291Y-50416947D01*
X47242152Y-50325808D01*
X47127306Y-50267291D01*
X47127308Y-50267291D01*
X47000001Y-50247128D01*
X46999999Y-50247128D01*
X46872692Y-50267291D01*
X46757847Y-50325808D01*
X46666708Y-50416947D01*
X46608191Y-50531792D01*
X46588028Y-50659099D01*
X46588028Y-50659100D01*
X46604030Y-50760136D01*
X46594215Y-50810631D01*
X46554238Y-50843003D01*
X46529756Y-50847100D01*
X46304774Y-50847100D01*
X46299510Y-50847710D01*
X46279451Y-50850037D01*
X46175854Y-50895780D01*
X46175851Y-50895782D01*
X46095782Y-50975851D01*
X46095780Y-50975854D01*
X46050037Y-51079451D01*
X46047100Y-51104776D01*
X46047100Y-51495223D01*
X43307500Y-51495223D01*
X43307500Y-47000000D01*
X51088028Y-47000000D01*
X51108191Y-47127307D01*
X51166708Y-47242152D01*
X51257847Y-47333291D01*
X51257849Y-47333292D01*
X51372692Y-47391808D01*
X51372694Y-47391809D01*
X51470487Y-47407297D01*
X51499999Y-47411972D01*
X51500000Y-47411972D01*
X51500001Y-47411972D01*
X51520163Y-47408778D01*
X51627306Y-47391809D01*
X51742151Y-47333292D01*
X51833292Y-47242151D01*
X51891809Y-47127306D01*
X51908012Y-47025000D01*
X53563028Y-47025000D01*
X53583191Y-47152307D01*
X53641708Y-47267152D01*
X53732847Y-47358291D01*
X53732849Y-47358292D01*
X53847692Y-47416808D01*
X53847694Y-47416809D01*
X53945487Y-47432297D01*
X53974999Y-47436972D01*
X53975000Y-47436972D01*
X53975001Y-47436972D01*
X53995163Y-47433778D01*
X54102306Y-47416809D01*
X54217151Y-47358292D01*
X54308292Y-47267151D01*
X54366809Y-47152306D01*
X54386972Y-47025000D01*
X54383012Y-47000000D01*
X56088028Y-47000000D01*
X56108191Y-47127307D01*
X56166708Y-47242152D01*
X56257847Y-47333291D01*
X56257849Y-47333292D01*
X56372692Y-47391808D01*
X56372694Y-47391809D01*
X56470487Y-47407297D01*
X56499999Y-47411972D01*
X56500000Y-47411972D01*
X56500001Y-47411972D01*
X56520163Y-47408778D01*
X56627306Y-47391809D01*
X56742151Y-47333292D01*
X56833292Y-47242151D01*
X56891809Y-47127306D01*
X56911972Y-47000000D01*
X58588028Y-47000000D01*
X58608191Y-47127307D01*
X58666708Y-47242152D01*
X58757847Y-47333291D01*
X58757849Y-47333292D01*
X58872692Y-47391808D01*
X58872694Y-47391809D01*
X58970487Y-47407297D01*
X58999999Y-47411972D01*
X59000000Y-47411972D01*
X59000001Y-47411972D01*
X59020163Y-47408778D01*
X59127306Y-47391809D01*
X59242151Y-47333292D01*
X59333292Y-47242151D01*
X59391809Y-47127306D01*
X59411972Y-47000000D01*
X61338028Y-47000000D01*
X61358191Y-47127307D01*
X61416708Y-47242152D01*
X61507847Y-47333291D01*
X61507849Y-47333292D01*
X61622692Y-47391808D01*
X61622694Y-47391809D01*
X61720487Y-47407297D01*
X61749999Y-47411972D01*
X61750000Y-47411972D01*
X61750001Y-47411972D01*
X61770163Y-47408778D01*
X61877306Y-47391809D01*
X61992151Y-47333292D01*
X62083292Y-47242151D01*
X62141809Y-47127306D01*
X62161972Y-47000000D01*
X63838028Y-47000000D01*
X63858191Y-47127307D01*
X63916708Y-47242152D01*
X64007847Y-47333291D01*
X64007849Y-47333292D01*
X64122692Y-47391808D01*
X64122694Y-47391809D01*
X64220487Y-47407297D01*
X64249999Y-47411972D01*
X64250000Y-47411972D01*
X64250001Y-47411972D01*
X64270163Y-47408778D01*
X64377306Y-47391809D01*
X64492151Y-47333292D01*
X64583292Y-47242151D01*
X64641809Y-47127306D01*
X64661972Y-47000000D01*
X66338028Y-47000000D01*
X66358191Y-47127307D01*
X66416708Y-47242152D01*
X66507847Y-47333291D01*
X66507849Y-47333292D01*
X66622692Y-47391808D01*
X66622694Y-47391809D01*
X66720487Y-47407297D01*
X66749999Y-47411972D01*
X66750000Y-47411972D01*
X66750001Y-47411972D01*
X66770163Y-47408778D01*
X66877306Y-47391809D01*
X66992151Y-47333292D01*
X67083292Y-47242151D01*
X67141809Y-47127306D01*
X67161972Y-47000000D01*
X68838028Y-47000000D01*
X68858191Y-47127307D01*
X68916708Y-47242152D01*
X69007847Y-47333291D01*
X69007849Y-47333292D01*
X69122692Y-47391808D01*
X69122694Y-47391809D01*
X69220487Y-47407297D01*
X69249999Y-47411972D01*
X69250000Y-47411972D01*
X69250001Y-47411972D01*
X69270163Y-47408778D01*
X69377306Y-47391809D01*
X69492151Y-47333292D01*
X69583292Y-47242151D01*
X69641809Y-47127306D01*
X69661972Y-47000000D01*
X69641809Y-46872694D01*
X69583292Y-46757849D01*
X69583291Y-46757847D01*
X69492152Y-46666708D01*
X69377306Y-46608191D01*
X69377308Y-46608191D01*
X69250001Y-46588028D01*
X69249999Y-46588028D01*
X69122692Y-46608191D01*
X69007847Y-46666708D01*
X68916708Y-46757847D01*
X68858191Y-46872692D01*
X68838028Y-46999999D01*
X68838028Y-47000000D01*
X67161972Y-47000000D01*
X67141809Y-46872694D01*
X67083292Y-46757849D01*
X67083291Y-46757847D01*
X66992152Y-46666708D01*
X66877306Y-46608191D01*
X66877308Y-46608191D01*
X66750001Y-46588028D01*
X66749999Y-46588028D01*
X66622692Y-46608191D01*
X66507847Y-46666708D01*
X66416708Y-46757847D01*
X66358191Y-46872692D01*
X66338028Y-46999999D01*
X66338028Y-47000000D01*
X64661972Y-47000000D01*
X64641809Y-46872694D01*
X64583292Y-46757849D01*
X64583291Y-46757847D01*
X64492152Y-46666708D01*
X64377306Y-46608191D01*
X64377308Y-46608191D01*
X64250001Y-46588028D01*
X64249999Y-46588028D01*
X64122692Y-46608191D01*
X64007847Y-46666708D01*
X63916708Y-46757847D01*
X63858191Y-46872692D01*
X63838028Y-46999999D01*
X63838028Y-47000000D01*
X62161972Y-47000000D01*
X62141809Y-46872694D01*
X62083292Y-46757849D01*
X62083291Y-46757847D01*
X61992152Y-46666708D01*
X61877306Y-46608191D01*
X61877308Y-46608191D01*
X61750001Y-46588028D01*
X61749999Y-46588028D01*
X61622692Y-46608191D01*
X61507847Y-46666708D01*
X61416708Y-46757847D01*
X61358191Y-46872692D01*
X61338028Y-46999999D01*
X61338028Y-47000000D01*
X59411972Y-47000000D01*
X59391809Y-46872694D01*
X59333292Y-46757849D01*
X59333291Y-46757847D01*
X59242152Y-46666708D01*
X59127306Y-46608191D01*
X59127308Y-46608191D01*
X59000001Y-46588028D01*
X58999999Y-46588028D01*
X58872692Y-46608191D01*
X58757847Y-46666708D01*
X58666708Y-46757847D01*
X58608191Y-46872692D01*
X58588028Y-46999999D01*
X58588028Y-47000000D01*
X56911972Y-47000000D01*
X56891809Y-46872694D01*
X56833292Y-46757849D01*
X56833291Y-46757847D01*
X56742152Y-46666708D01*
X56627306Y-46608191D01*
X56627308Y-46608191D01*
X56500001Y-46588028D01*
X56499999Y-46588028D01*
X56372692Y-46608191D01*
X56257847Y-46666708D01*
X56166708Y-46757847D01*
X56108191Y-46872692D01*
X56088028Y-46999999D01*
X56088028Y-47000000D01*
X54383012Y-47000000D01*
X54366809Y-46897694D01*
X54308292Y-46782849D01*
X54308291Y-46782847D01*
X54217152Y-46691708D01*
X54102306Y-46633191D01*
X54102308Y-46633191D01*
X53975001Y-46613028D01*
X53974999Y-46613028D01*
X53847692Y-46633191D01*
X53732847Y-46691708D01*
X53641708Y-46782847D01*
X53583191Y-46897692D01*
X53563028Y-47024999D01*
X53563028Y-47025000D01*
X51908012Y-47025000D01*
X51911972Y-47000000D01*
X51891809Y-46872694D01*
X51833292Y-46757849D01*
X51833291Y-46757847D01*
X51742152Y-46666708D01*
X51627306Y-46608191D01*
X51627308Y-46608191D01*
X51500001Y-46588028D01*
X51499999Y-46588028D01*
X51372692Y-46608191D01*
X51257847Y-46666708D01*
X51166708Y-46757847D01*
X51108191Y-46872692D01*
X51088028Y-46999999D01*
X51088028Y-47000000D01*
X43307500Y-47000000D01*
X43307500Y-42815000D01*
X51070628Y-42815000D01*
X51090791Y-42942307D01*
X51149308Y-43057152D01*
X51240447Y-43148291D01*
X51240449Y-43148292D01*
X51355292Y-43206808D01*
X51355294Y-43206809D01*
X51453087Y-43222297D01*
X51482599Y-43226972D01*
X51482600Y-43226972D01*
X51482601Y-43226972D01*
X51502764Y-43223778D01*
X51609906Y-43206809D01*
X51724751Y-43148292D01*
X51815892Y-43057151D01*
X51874409Y-42942306D01*
X51894572Y-42815000D01*
X51884277Y-42750000D01*
X53588028Y-42750000D01*
X53608191Y-42877307D01*
X53666708Y-42992152D01*
X53757847Y-43083291D01*
X53757849Y-43083292D01*
X53872692Y-43141808D01*
X53872694Y-43141809D01*
X53970487Y-43157297D01*
X53999999Y-43161972D01*
X54000000Y-43161972D01*
X54000001Y-43161972D01*
X54020163Y-43158778D01*
X54127306Y-43141809D01*
X54242151Y-43083292D01*
X54333292Y-42992151D01*
X54391809Y-42877306D01*
X54411972Y-42750000D01*
X56088028Y-42750000D01*
X56108191Y-42877307D01*
X56166708Y-42992152D01*
X56257847Y-43083291D01*
X56257849Y-43083292D01*
X56372692Y-43141808D01*
X56372694Y-43141809D01*
X56470487Y-43157297D01*
X56499999Y-43161972D01*
X56500000Y-43161972D01*
X56500001Y-43161972D01*
X56520164Y-43158778D01*
X56627306Y-43141809D01*
X56742151Y-43083292D01*
X56833292Y-42992151D01*
X56891809Y-42877306D01*
X56911972Y-42750000D01*
X58588028Y-42750000D01*
X58608191Y-42877307D01*
X58666708Y-42992152D01*
X58757847Y-43083291D01*
X58757849Y-43083292D01*
X58872692Y-43141808D01*
X58872694Y-43141809D01*
X58970487Y-43157297D01*
X58999999Y-43161972D01*
X59000000Y-43161972D01*
X59000001Y-43161972D01*
X59020163Y-43158778D01*
X59127306Y-43141809D01*
X59242151Y-43083292D01*
X59333292Y-42992151D01*
X59391809Y-42877306D01*
X59411972Y-42750000D01*
X61088028Y-42750000D01*
X61108191Y-42877307D01*
X61166708Y-42992152D01*
X61257847Y-43083291D01*
X61257849Y-43083292D01*
X61372692Y-43141808D01*
X61372694Y-43141809D01*
X61470487Y-43157297D01*
X61499999Y-43161972D01*
X61500000Y-43161972D01*
X61500001Y-43161972D01*
X61520164Y-43158778D01*
X61627306Y-43141809D01*
X61742151Y-43083292D01*
X61833292Y-42992151D01*
X61891809Y-42877306D01*
X61911972Y-42750000D01*
X63838028Y-42750000D01*
X63858191Y-42877307D01*
X63916708Y-42992152D01*
X64007847Y-43083291D01*
X64007849Y-43083292D01*
X64122692Y-43141808D01*
X64122694Y-43141809D01*
X64220487Y-43157297D01*
X64249999Y-43161972D01*
X64250000Y-43161972D01*
X64250001Y-43161972D01*
X64270164Y-43158778D01*
X64377306Y-43141809D01*
X64492151Y-43083292D01*
X64583292Y-42992151D01*
X64641809Y-42877306D01*
X64661972Y-42750000D01*
X64641809Y-42622694D01*
X64583292Y-42507849D01*
X64583291Y-42507847D01*
X64492152Y-42416708D01*
X64377306Y-42358191D01*
X64377308Y-42358191D01*
X64250001Y-42338028D01*
X64249999Y-42338028D01*
X64122692Y-42358191D01*
X64007847Y-42416708D01*
X63916708Y-42507847D01*
X63858191Y-42622692D01*
X63838028Y-42749999D01*
X63838028Y-42750000D01*
X61911972Y-42750000D01*
X61891809Y-42622694D01*
X61833292Y-42507849D01*
X61833291Y-42507847D01*
X61742152Y-42416708D01*
X61627306Y-42358191D01*
X61627308Y-42358191D01*
X61500001Y-42338028D01*
X61499999Y-42338028D01*
X61372692Y-42358191D01*
X61257847Y-42416708D01*
X61166708Y-42507847D01*
X61108191Y-42622692D01*
X61088028Y-42749999D01*
X61088028Y-42750000D01*
X59411972Y-42750000D01*
X59391809Y-42622694D01*
X59333292Y-42507849D01*
X59333291Y-42507847D01*
X59242152Y-42416708D01*
X59127306Y-42358191D01*
X59127308Y-42358191D01*
X59000001Y-42338028D01*
X58999999Y-42338028D01*
X58872692Y-42358191D01*
X58757847Y-42416708D01*
X58666708Y-42507847D01*
X58608191Y-42622692D01*
X58588028Y-42749999D01*
X58588028Y-42750000D01*
X56911972Y-42750000D01*
X56891809Y-42622694D01*
X56833292Y-42507849D01*
X56833291Y-42507847D01*
X56742152Y-42416708D01*
X56627306Y-42358191D01*
X56627308Y-42358191D01*
X56500001Y-42338028D01*
X56499999Y-42338028D01*
X56372692Y-42358191D01*
X56257847Y-42416708D01*
X56166708Y-42507847D01*
X56108191Y-42622692D01*
X56088028Y-42749999D01*
X56088028Y-42750000D01*
X54411972Y-42750000D01*
X54391809Y-42622694D01*
X54333292Y-42507849D01*
X54333291Y-42507847D01*
X54242152Y-42416708D01*
X54127306Y-42358191D01*
X54127308Y-42358191D01*
X54000001Y-42338028D01*
X53999999Y-42338028D01*
X53872692Y-42358191D01*
X53757847Y-42416708D01*
X53666708Y-42507847D01*
X53608191Y-42622692D01*
X53588028Y-42749999D01*
X53588028Y-42750000D01*
X51884277Y-42750000D01*
X51874409Y-42687694D01*
X51815892Y-42572849D01*
X51815891Y-42572847D01*
X51724752Y-42481708D01*
X51609906Y-42423191D01*
X51609908Y-42423191D01*
X51482601Y-42403028D01*
X51482599Y-42403028D01*
X51355292Y-42423191D01*
X51240447Y-42481708D01*
X51149308Y-42572847D01*
X51090791Y-42687692D01*
X51070628Y-42814999D01*
X51070628Y-42815000D01*
X43307500Y-42815000D01*
X43307500Y-42252184D01*
X65855428Y-42252184D01*
X65875591Y-42379491D01*
X65934108Y-42494336D01*
X66025247Y-42585475D01*
X66025249Y-42585476D01*
X66140092Y-42643992D01*
X66140094Y-42643993D01*
X66237887Y-42659481D01*
X66267399Y-42664156D01*
X66267400Y-42664156D01*
X66267401Y-42664156D01*
X66287564Y-42660962D01*
X66394706Y-42643993D01*
X66509551Y-42585476D01*
X66600692Y-42494335D01*
X66659209Y-42379490D01*
X66679372Y-42252184D01*
X66679204Y-42251126D01*
X66675577Y-42228225D01*
X66659209Y-42124878D01*
X66600692Y-42010033D01*
X66600691Y-42010031D01*
X66509552Y-41918892D01*
X66394706Y-41860375D01*
X66394708Y-41860375D01*
X66267401Y-41840212D01*
X66267399Y-41840212D01*
X66140092Y-41860375D01*
X66025247Y-41918892D01*
X65934108Y-42010031D01*
X65875591Y-42124876D01*
X65855428Y-42252183D01*
X65855428Y-42252184D01*
X43307500Y-42252184D01*
X43307500Y-40730000D01*
X52608028Y-40730000D01*
X52628191Y-40857307D01*
X52686708Y-40972152D01*
X52777847Y-41063291D01*
X52777849Y-41063292D01*
X52892692Y-41121808D01*
X52892694Y-41121809D01*
X52990487Y-41137297D01*
X53019999Y-41141972D01*
X53020000Y-41141972D01*
X53020001Y-41141972D01*
X53040164Y-41138778D01*
X53147306Y-41121809D01*
X53262151Y-41063292D01*
X53314711Y-41010731D01*
X53361330Y-40988992D01*
X53411017Y-41002305D01*
X53436677Y-41033531D01*
X53445777Y-41054141D01*
X53445782Y-41054148D01*
X53525851Y-41134217D01*
X53525854Y-41134219D01*
X53525855Y-41134220D01*
X53629450Y-41179962D01*
X53654774Y-41182900D01*
X53654776Y-41182900D01*
X55195224Y-41182900D01*
X55195226Y-41182900D01*
X55220550Y-41179962D01*
X55324145Y-41134220D01*
X55404220Y-41054145D01*
X55449962Y-40950550D01*
X55452900Y-40925226D01*
X55452900Y-40857000D01*
X58446001Y-40857000D01*
X58446001Y-40911797D01*
X58460984Y-41006400D01*
X58519083Y-41120425D01*
X58609574Y-41210916D01*
X58723600Y-41269015D01*
X58723598Y-41269015D01*
X58818206Y-41283999D01*
X59447999Y-41283999D01*
X59448000Y-40857000D01*
X59702000Y-40857000D01*
X59702000Y-41283999D01*
X60331789Y-41283999D01*
X60331797Y-41283998D01*
X60426400Y-41269015D01*
X60540425Y-41210916D01*
X60630916Y-41120425D01*
X60689015Y-41006400D01*
X60703999Y-40911797D01*
X60704000Y-40911790D01*
X60704000Y-40857000D01*
X59702000Y-40857000D01*
X59448000Y-40857000D01*
X58446001Y-40857000D01*
X55452900Y-40857000D01*
X55452900Y-40750000D01*
X61088028Y-40750000D01*
X61108191Y-40877307D01*
X61166708Y-40992152D01*
X61257847Y-41083291D01*
X61257849Y-41083292D01*
X61372692Y-41141808D01*
X61372694Y-41141809D01*
X61470487Y-41157297D01*
X61499999Y-41161972D01*
X61500000Y-41161972D01*
X61500001Y-41161972D01*
X61520164Y-41158778D01*
X61627306Y-41141809D01*
X61742151Y-41083292D01*
X61814713Y-41010729D01*
X61861330Y-40988991D01*
X61911017Y-41002304D01*
X61936678Y-41033531D01*
X61945779Y-41054143D01*
X61945782Y-41054148D01*
X62025851Y-41134217D01*
X62025854Y-41134219D01*
X62025855Y-41134220D01*
X62129450Y-41179962D01*
X62154774Y-41182900D01*
X63332180Y-41182900D01*
X63380518Y-41200493D01*
X63406238Y-41245042D01*
X63399184Y-41292240D01*
X63358191Y-41372692D01*
X63338028Y-41499999D01*
X63338028Y-41500000D01*
X63358191Y-41627307D01*
X63416708Y-41742152D01*
X63507847Y-41833291D01*
X63507849Y-41833292D01*
X63622692Y-41891808D01*
X63622694Y-41891809D01*
X63720487Y-41907297D01*
X63749999Y-41911972D01*
X63750000Y-41911972D01*
X63750001Y-41911972D01*
X63770163Y-41908778D01*
X63877306Y-41891809D01*
X63992151Y-41833292D01*
X64083292Y-41742151D01*
X64141809Y-41627306D01*
X64155235Y-41542535D01*
X64180173Y-41497546D01*
X64228197Y-41479111D01*
X64229509Y-41479100D01*
X66373956Y-41479100D01*
X66422294Y-41496693D01*
X66427130Y-41501126D01*
X67083055Y-42157051D01*
X67084409Y-42158476D01*
X67112330Y-42189486D01*
X67134936Y-42199551D01*
X67145304Y-42205181D01*
X67164997Y-42217969D01*
X67166063Y-42218661D01*
X67174591Y-42220011D01*
X67193412Y-42225587D01*
X67201302Y-42229100D01*
X67201303Y-42229100D01*
X67226053Y-42229100D01*
X67237817Y-42230025D01*
X67262258Y-42233897D01*
X67269278Y-42232015D01*
X67270600Y-42231662D01*
X67290061Y-42229100D01*
X68372508Y-42229100D01*
X68420846Y-42246693D01*
X68425682Y-42251126D01*
X68507847Y-42333291D01*
X68507849Y-42333292D01*
X68622692Y-42391808D01*
X68622694Y-42391809D01*
X68720487Y-42407297D01*
X68749999Y-42411972D01*
X68750000Y-42411972D01*
X68838712Y-42397921D01*
X68889204Y-42407736D01*
X68921577Y-42447712D01*
X68920679Y-42499144D01*
X68917478Y-42506335D01*
X68858191Y-42622692D01*
X68838028Y-42749999D01*
X68838028Y-42750000D01*
X68858191Y-42877307D01*
X68916708Y-42992152D01*
X69007847Y-43083291D01*
X69007849Y-43083292D01*
X69122692Y-43141808D01*
X69122694Y-43141809D01*
X69220487Y-43157297D01*
X69249999Y-43161972D01*
X69250000Y-43161972D01*
X69250001Y-43161972D01*
X69270164Y-43158778D01*
X69377306Y-43141809D01*
X69492151Y-43083292D01*
X69583292Y-42992151D01*
X69641809Y-42877306D01*
X69661972Y-42750000D01*
X69641809Y-42622694D01*
X69583292Y-42507849D01*
X69583291Y-42507847D01*
X69492152Y-42416708D01*
X69377306Y-42358191D01*
X69377308Y-42358191D01*
X69250001Y-42338028D01*
X69249999Y-42338028D01*
X69161289Y-42352078D01*
X69110794Y-42342263D01*
X69078422Y-42302286D01*
X69079320Y-42250854D01*
X69082522Y-42243664D01*
X69141807Y-42127312D01*
X69141808Y-42127308D01*
X69141808Y-42127307D01*
X69141809Y-42127306D01*
X69161972Y-42000000D01*
X69141809Y-41872694D01*
X69121733Y-41833292D01*
X69083291Y-41757847D01*
X68992152Y-41666708D01*
X68877306Y-41608191D01*
X68877308Y-41608191D01*
X68750001Y-41588028D01*
X68749999Y-41588028D01*
X68622692Y-41608191D01*
X68507847Y-41666708D01*
X68425682Y-41748874D01*
X68379062Y-41770614D01*
X68372508Y-41770900D01*
X67376044Y-41770900D01*
X67327706Y-41753307D01*
X67322870Y-41748874D01*
X67053096Y-41479100D01*
X66666914Y-41092917D01*
X66665578Y-41091509D01*
X66658179Y-41083292D01*
X66637670Y-41060514D01*
X66637669Y-41060513D01*
X66615058Y-41050445D01*
X66604692Y-41044817D01*
X66583936Y-41031339D01*
X66583933Y-41031338D01*
X66575401Y-41029986D01*
X66556587Y-41024412D01*
X66548698Y-41020900D01*
X66548697Y-41020900D01*
X66523946Y-41020900D01*
X66512183Y-41019974D01*
X66496889Y-41017551D01*
X66487743Y-41016103D01*
X66487741Y-41016103D01*
X66479400Y-41018338D01*
X66459939Y-41020900D01*
X64554300Y-41020900D01*
X64505962Y-41003307D01*
X64480242Y-40958758D01*
X64479100Y-40945700D01*
X64479100Y-40857000D01*
X66946001Y-40857000D01*
X66946001Y-40911797D01*
X66960984Y-41006400D01*
X67019083Y-41120425D01*
X67109574Y-41210916D01*
X67223600Y-41269015D01*
X67223598Y-41269015D01*
X67318206Y-41283999D01*
X67948000Y-41283999D01*
X67948000Y-40857000D01*
X68202000Y-40857000D01*
X68202000Y-41283999D01*
X68831789Y-41283999D01*
X68831797Y-41283998D01*
X68926400Y-41269015D01*
X69040425Y-41210916D01*
X69130916Y-41120425D01*
X69189015Y-41006400D01*
X69203999Y-40911797D01*
X69204000Y-40911790D01*
X69204000Y-40857000D01*
X68202000Y-40857000D01*
X67948000Y-40857000D01*
X66946001Y-40857000D01*
X64479100Y-40857000D01*
X64479100Y-40603000D01*
X66946000Y-40603000D01*
X67948000Y-40603000D01*
X67948000Y-40176000D01*
X68202000Y-40176000D01*
X68202000Y-40603000D01*
X69203999Y-40603000D01*
X69203999Y-40548211D01*
X69203998Y-40548202D01*
X69189015Y-40453599D01*
X69130916Y-40339574D01*
X69040425Y-40249083D01*
X68926399Y-40190984D01*
X68926401Y-40190984D01*
X68831797Y-40176000D01*
X68202000Y-40176000D01*
X67948000Y-40176000D01*
X67318212Y-40176000D01*
X67318201Y-40176001D01*
X67223599Y-40190984D01*
X67109574Y-40249083D01*
X67019083Y-40339574D01*
X66960984Y-40453599D01*
X66946000Y-40548202D01*
X66946000Y-40603000D01*
X64479100Y-40603000D01*
X64479100Y-40006973D01*
X64479152Y-40005005D01*
X64481334Y-39963360D01*
X64472467Y-39940261D01*
X64469116Y-39928947D01*
X64466046Y-39914507D01*
X64463969Y-39904735D01*
X64458890Y-39897744D01*
X64449524Y-39880491D01*
X64446432Y-39872436D01*
X64446431Y-39872435D01*
X64446430Y-39872433D01*
X64428932Y-39854935D01*
X64421268Y-39845963D01*
X64406721Y-39825940D01*
X64399242Y-39821623D01*
X64383668Y-39809672D01*
X63974926Y-39400929D01*
X63953186Y-39354309D01*
X63952900Y-39347755D01*
X63952900Y-39264776D01*
X63952096Y-39257849D01*
X63949962Y-39239450D01*
X63904220Y-39135855D01*
X63904219Y-39135854D01*
X63904217Y-39135851D01*
X63824148Y-39055782D01*
X63824145Y-39055780D01*
X63720548Y-39010037D01*
X63701100Y-39007781D01*
X63695226Y-39007100D01*
X62154774Y-39007100D01*
X62149510Y-39007710D01*
X62129451Y-39010037D01*
X62025854Y-39055780D01*
X62025851Y-39055782D01*
X61945782Y-39135851D01*
X61945780Y-39135854D01*
X61900037Y-39239451D01*
X61897100Y-39264776D01*
X61897100Y-39655223D01*
X61900037Y-39680548D01*
X61945780Y-39784145D01*
X61945782Y-39784148D01*
X62025851Y-39864217D01*
X62025854Y-39864219D01*
X62025855Y-39864220D01*
X62129450Y-39909962D01*
X62154774Y-39912900D01*
X62154776Y-39912900D01*
X63695224Y-39912900D01*
X63695226Y-39912900D01*
X63720550Y-39909962D01*
X63753491Y-39895416D01*
X63804814Y-39891986D01*
X63837039Y-39911035D01*
X63998874Y-40072870D01*
X64020614Y-40119490D01*
X64020900Y-40126044D01*
X64020900Y-40340986D01*
X64003307Y-40389324D01*
X63958758Y-40415044D01*
X63908100Y-40406111D01*
X63892526Y-40394160D01*
X63824148Y-40325782D01*
X63824145Y-40325780D01*
X63720548Y-40280037D01*
X63701100Y-40277781D01*
X63695226Y-40277100D01*
X62154774Y-40277100D01*
X62149510Y-40277710D01*
X62129451Y-40280037D01*
X62025854Y-40325780D01*
X62025851Y-40325782D01*
X61945782Y-40405851D01*
X61945777Y-40405858D01*
X61924425Y-40454217D01*
X61888806Y-40491330D01*
X61837665Y-40496864D01*
X61802460Y-40477017D01*
X61742151Y-40416708D01*
X61742150Y-40416707D01*
X61627306Y-40358191D01*
X61627308Y-40358191D01*
X61500001Y-40338028D01*
X61499999Y-40338028D01*
X61372692Y-40358191D01*
X61257847Y-40416708D01*
X61166708Y-40507847D01*
X61108191Y-40622692D01*
X61088028Y-40749999D01*
X61088028Y-40750000D01*
X55452900Y-40750000D01*
X55452900Y-40603000D01*
X58446000Y-40603000D01*
X59448000Y-40603000D01*
X59447999Y-40176000D01*
X59702000Y-40176000D01*
X59702000Y-40603000D01*
X60703999Y-40603000D01*
X60703999Y-40548211D01*
X60703998Y-40548202D01*
X60689015Y-40453599D01*
X60630916Y-40339574D01*
X60540425Y-40249083D01*
X60426399Y-40190984D01*
X60426401Y-40190984D01*
X60331797Y-40176000D01*
X59702000Y-40176000D01*
X59447999Y-40176000D01*
X58818212Y-40176000D01*
X58818201Y-40176001D01*
X58723599Y-40190984D01*
X58609574Y-40249083D01*
X58519083Y-40339574D01*
X58460984Y-40453599D01*
X58446000Y-40548202D01*
X58446000Y-40603000D01*
X55452900Y-40603000D01*
X55452900Y-40534774D01*
X55449962Y-40509450D01*
X55404220Y-40405855D01*
X55404219Y-40405854D01*
X55404217Y-40405851D01*
X55324148Y-40325782D01*
X55324145Y-40325780D01*
X55220548Y-40280037D01*
X55201100Y-40277781D01*
X55195226Y-40277100D01*
X53654774Y-40277100D01*
X53649510Y-40277710D01*
X53629451Y-40280037D01*
X53525854Y-40325780D01*
X53525851Y-40325782D01*
X53445782Y-40405851D01*
X53445778Y-40405857D01*
X53436677Y-40426469D01*
X53401057Y-40463581D01*
X53349916Y-40469115D01*
X53314711Y-40449267D01*
X53262152Y-40396708D01*
X53147306Y-40338191D01*
X53147308Y-40338191D01*
X53020001Y-40318028D01*
X53019999Y-40318028D01*
X52892692Y-40338191D01*
X52777847Y-40396708D01*
X52686708Y-40487847D01*
X52628191Y-40602692D01*
X52608028Y-40729999D01*
X52608028Y-40730000D01*
X43307500Y-40730000D01*
X43307500Y-39460000D01*
X52628028Y-39460000D01*
X52648191Y-39587307D01*
X52706708Y-39702152D01*
X52797847Y-39793291D01*
X52797849Y-39793292D01*
X52912692Y-39851808D01*
X52912694Y-39851809D01*
X53010487Y-39867297D01*
X53039999Y-39871972D01*
X53040000Y-39871972D01*
X53040001Y-39871972D01*
X53060163Y-39868778D01*
X53167306Y-39851809D01*
X53282151Y-39793292D01*
X53320837Y-39754605D01*
X53367456Y-39732866D01*
X53417143Y-39746179D01*
X53442803Y-39777404D01*
X53445778Y-39784142D01*
X53445782Y-39784148D01*
X53525851Y-39864217D01*
X53525854Y-39864219D01*
X53525855Y-39864220D01*
X53629450Y-39909962D01*
X53654774Y-39912900D01*
X53654776Y-39912900D01*
X55195224Y-39912900D01*
X55195226Y-39912900D01*
X55220550Y-39909962D01*
X55324145Y-39864220D01*
X55404220Y-39784145D01*
X55449962Y-39680550D01*
X55452900Y-39655226D01*
X55452900Y-39655223D01*
X58547100Y-39655223D01*
X58550037Y-39680548D01*
X58595780Y-39784145D01*
X58595782Y-39784148D01*
X58675851Y-39864217D01*
X58675854Y-39864219D01*
X58675855Y-39864220D01*
X58779450Y-39909962D01*
X58804774Y-39912900D01*
X58804776Y-39912900D01*
X60345224Y-39912900D01*
X60345226Y-39912900D01*
X60370550Y-39909962D01*
X60474145Y-39864220D01*
X60554220Y-39784145D01*
X60576395Y-39733923D01*
X60612013Y-39696813D01*
X60645187Y-39689100D01*
X60843594Y-39689100D01*
X60891932Y-39706693D01*
X60910598Y-39730160D01*
X60916708Y-39742152D01*
X61007847Y-39833291D01*
X61007849Y-39833292D01*
X61122692Y-39891808D01*
X61122694Y-39891809D01*
X61220487Y-39907297D01*
X61249999Y-39911972D01*
X61250000Y-39911972D01*
X61250001Y-39911972D01*
X61270163Y-39908778D01*
X61377306Y-39891809D01*
X61492151Y-39833292D01*
X61583292Y-39742151D01*
X61641809Y-39627306D01*
X61661972Y-39500000D01*
X61661971Y-39499996D01*
X61655637Y-39460000D01*
X61641809Y-39372694D01*
X61586821Y-39264774D01*
X61583291Y-39257847D01*
X61492152Y-39166708D01*
X61377306Y-39108191D01*
X61377308Y-39108191D01*
X61250001Y-39088028D01*
X61249999Y-39088028D01*
X61122692Y-39108191D01*
X61007849Y-39166707D01*
X60994849Y-39179708D01*
X60965682Y-39208874D01*
X60919064Y-39230614D01*
X60912509Y-39230900D01*
X60645187Y-39230900D01*
X60596849Y-39213307D01*
X60576395Y-39186076D01*
X60554220Y-39135855D01*
X60554219Y-39135854D01*
X60554217Y-39135851D01*
X60474148Y-39055782D01*
X60474145Y-39055780D01*
X60370548Y-39010037D01*
X60351100Y-39007781D01*
X60345226Y-39007100D01*
X58804774Y-39007100D01*
X58799510Y-39007710D01*
X58779451Y-39010037D01*
X58675854Y-39055780D01*
X58675851Y-39055782D01*
X58595782Y-39135851D01*
X58595780Y-39135854D01*
X58550037Y-39239451D01*
X58547100Y-39264776D01*
X58547100Y-39655223D01*
X55452900Y-39655223D01*
X55452900Y-39264774D01*
X55449962Y-39239450D01*
X55404220Y-39135855D01*
X55404219Y-39135854D01*
X55404217Y-39135851D01*
X55324148Y-39055782D01*
X55324145Y-39055780D01*
X55220548Y-39010037D01*
X55201100Y-39007781D01*
X55195226Y-39007100D01*
X53654774Y-39007100D01*
X53649510Y-39007710D01*
X53629451Y-39010037D01*
X53525854Y-39055780D01*
X53525851Y-39055782D01*
X53445782Y-39135851D01*
X53445777Y-39135858D01*
X53442802Y-39142597D01*
X53407182Y-39179708D01*
X53356040Y-39185240D01*
X53320837Y-39165393D01*
X53282152Y-39126708D01*
X53167306Y-39068191D01*
X53167308Y-39068191D01*
X53040001Y-39048028D01*
X53039999Y-39048028D01*
X52912692Y-39068191D01*
X52797847Y-39126708D01*
X52706708Y-39217847D01*
X52648191Y-39332692D01*
X52628028Y-39459999D01*
X52628028Y-39460000D01*
X43307500Y-39460000D01*
X43307500Y-36853002D01*
X48793848Y-36853002D01*
X48812427Y-37089080D01*
X48812429Y-37089090D01*
X48824784Y-37140550D01*
X48867711Y-37319354D01*
X48958336Y-37538141D01*
X49082069Y-37740055D01*
X49082072Y-37740059D01*
X49235867Y-37920132D01*
X49283601Y-37960900D01*
X49415943Y-38073930D01*
X49617859Y-38197664D01*
X49836646Y-38288289D01*
X50066917Y-38343572D01*
X50161350Y-38351003D01*
X50302997Y-38362152D01*
X50303000Y-38362152D01*
X50303003Y-38362152D01*
X50421041Y-38352862D01*
X50539083Y-38343572D01*
X50769354Y-38288289D01*
X50861791Y-38250000D01*
X51588028Y-38250000D01*
X51608191Y-38377307D01*
X51666708Y-38492152D01*
X51757847Y-38583291D01*
X51757849Y-38583292D01*
X51872692Y-38641808D01*
X51872694Y-38641809D01*
X51970487Y-38657297D01*
X51999999Y-38661972D01*
X52000000Y-38661972D01*
X52000001Y-38661972D01*
X52020163Y-38658778D01*
X52127306Y-38641809D01*
X52242151Y-38583292D01*
X52275365Y-38550078D01*
X52324318Y-38501126D01*
X52370938Y-38479386D01*
X52377492Y-38479100D01*
X53382135Y-38479100D01*
X53430473Y-38496693D01*
X53444175Y-38511803D01*
X53445779Y-38514145D01*
X53525851Y-38594217D01*
X53525854Y-38594219D01*
X53525855Y-38594220D01*
X53629450Y-38639962D01*
X53654774Y-38642900D01*
X53654776Y-38642900D01*
X55195224Y-38642900D01*
X55195226Y-38642900D01*
X55220550Y-38639962D01*
X55324145Y-38594220D01*
X55335825Y-38582540D01*
X55368287Y-38550079D01*
X55414907Y-38528339D01*
X55464594Y-38541653D01*
X55474635Y-38550079D01*
X55507847Y-38583291D01*
X55507849Y-38583292D01*
X55622692Y-38641808D01*
X55622694Y-38641809D01*
X55720487Y-38657297D01*
X55749999Y-38661972D01*
X55750000Y-38661972D01*
X55750001Y-38661972D01*
X55770163Y-38658778D01*
X55877306Y-38641809D01*
X55992151Y-38583292D01*
X56083292Y-38492151D01*
X56141809Y-38377306D01*
X56161972Y-38250000D01*
X57588028Y-38250000D01*
X57608191Y-38377307D01*
X57666708Y-38492152D01*
X57757847Y-38583291D01*
X57757849Y-38583292D01*
X57872692Y-38641808D01*
X57872694Y-38641809D01*
X57970487Y-38657297D01*
X57999999Y-38661972D01*
X58000000Y-38661972D01*
X58000001Y-38661972D01*
X58020163Y-38658778D01*
X58127306Y-38641809D01*
X58242151Y-38583292D01*
X58333292Y-38492151D01*
X58349592Y-38460160D01*
X58387212Y-38425078D01*
X58416596Y-38419100D01*
X58504813Y-38419100D01*
X58553151Y-38436693D01*
X58573604Y-38463923D01*
X58594746Y-38511803D01*
X58595780Y-38514145D01*
X58595782Y-38514148D01*
X58675851Y-38594217D01*
X58675854Y-38594219D01*
X58675855Y-38594220D01*
X58779450Y-38639962D01*
X58804774Y-38642900D01*
X58804776Y-38642900D01*
X60345224Y-38642900D01*
X60345226Y-38642900D01*
X60370550Y-38639962D01*
X60474145Y-38594220D01*
X60554220Y-38514145D01*
X60599962Y-38410550D01*
X60602900Y-38385226D01*
X60602900Y-38385223D01*
X61897100Y-38385223D01*
X61900037Y-38410548D01*
X61945780Y-38514145D01*
X61945782Y-38514148D01*
X62025851Y-38594217D01*
X62025854Y-38594219D01*
X62025855Y-38594220D01*
X62129450Y-38639962D01*
X62154774Y-38642900D01*
X62154776Y-38642900D01*
X63695224Y-38642900D01*
X63695226Y-38642900D01*
X63720550Y-38639962D01*
X63824145Y-38594220D01*
X63835825Y-38582540D01*
X63868287Y-38550079D01*
X63914907Y-38528339D01*
X63964594Y-38541653D01*
X63974635Y-38550079D01*
X64007847Y-38583291D01*
X64007849Y-38583292D01*
X64122692Y-38641808D01*
X64122694Y-38641809D01*
X64220487Y-38657297D01*
X64249999Y-38661972D01*
X64250000Y-38661972D01*
X64250001Y-38661972D01*
X64270164Y-38658778D01*
X64377306Y-38641809D01*
X64492151Y-38583292D01*
X64525365Y-38550078D01*
X64574318Y-38501126D01*
X64620938Y-38479386D01*
X64627492Y-38479100D01*
X65373956Y-38479100D01*
X65422294Y-38496693D01*
X65427130Y-38501126D01*
X66322962Y-39396959D01*
X66344702Y-39443579D01*
X66344062Y-39461895D01*
X66338028Y-39499996D01*
X66338028Y-39500000D01*
X66358191Y-39627307D01*
X66416708Y-39742152D01*
X66507847Y-39833291D01*
X66507849Y-39833292D01*
X66622692Y-39891808D01*
X66622694Y-39891809D01*
X66720487Y-39907297D01*
X66749999Y-39911972D01*
X66750000Y-39911972D01*
X66750001Y-39911972D01*
X66770163Y-39908778D01*
X66877306Y-39891809D01*
X66992151Y-39833292D01*
X67015363Y-39810079D01*
X67061981Y-39788338D01*
X67111669Y-39801650D01*
X67121712Y-39810078D01*
X67175851Y-39864217D01*
X67175854Y-39864219D01*
X67175855Y-39864220D01*
X67279450Y-39909962D01*
X67304774Y-39912900D01*
X67304776Y-39912900D01*
X68845224Y-39912900D01*
X68845226Y-39912900D01*
X68870550Y-39909962D01*
X68974145Y-39864220D01*
X69054220Y-39784145D01*
X69076395Y-39733923D01*
X69112013Y-39696813D01*
X69145187Y-39689100D01*
X69593594Y-39689100D01*
X69641932Y-39706693D01*
X69660598Y-39730160D01*
X69666708Y-39742152D01*
X69757847Y-39833291D01*
X69757849Y-39833292D01*
X69872692Y-39891808D01*
X69872694Y-39891809D01*
X69970487Y-39907297D01*
X69999999Y-39911972D01*
X70000000Y-39911972D01*
X70000001Y-39911972D01*
X70020163Y-39908778D01*
X70127306Y-39891809D01*
X70242151Y-39833292D01*
X70333292Y-39742151D01*
X70391809Y-39627306D01*
X70411972Y-39500000D01*
X70411971Y-39499996D01*
X70405637Y-39460000D01*
X70391809Y-39372694D01*
X70336821Y-39264774D01*
X70333291Y-39257847D01*
X70242152Y-39166708D01*
X70127306Y-39108191D01*
X70127308Y-39108191D01*
X70000001Y-39088028D01*
X69999999Y-39088028D01*
X69872692Y-39108191D01*
X69757849Y-39166707D01*
X69744849Y-39179708D01*
X69715682Y-39208874D01*
X69669064Y-39230614D01*
X69662509Y-39230900D01*
X69145187Y-39230900D01*
X69096849Y-39213307D01*
X69076395Y-39186076D01*
X69054220Y-39135855D01*
X69054219Y-39135854D01*
X69054217Y-39135851D01*
X68974148Y-39055782D01*
X68974145Y-39055780D01*
X68870548Y-39010037D01*
X68851100Y-39007781D01*
X68845226Y-39007100D01*
X67304774Y-39007100D01*
X67299510Y-39007710D01*
X67279451Y-39010037D01*
X67175854Y-39055780D01*
X67175851Y-39055782D01*
X67095782Y-39135851D01*
X67091841Y-39141605D01*
X67089506Y-39140005D01*
X67062102Y-39168548D01*
X67010960Y-39174073D01*
X66994801Y-39168058D01*
X66877306Y-39108191D01*
X66877308Y-39108191D01*
X66750001Y-39088028D01*
X66749997Y-39088028D01*
X66711894Y-39094062D01*
X66661400Y-39084246D01*
X66646958Y-39072962D01*
X66213958Y-38639962D01*
X65823997Y-38250000D01*
X66338028Y-38250000D01*
X66358191Y-38377307D01*
X66416708Y-38492152D01*
X66507847Y-38583291D01*
X66507849Y-38583292D01*
X66622692Y-38641808D01*
X66622694Y-38641809D01*
X66720487Y-38657297D01*
X66749999Y-38661972D01*
X66750000Y-38661972D01*
X66750001Y-38661972D01*
X66770163Y-38658778D01*
X66877306Y-38641809D01*
X66992151Y-38583292D01*
X67025364Y-38550078D01*
X67071983Y-38528339D01*
X67121670Y-38541652D01*
X67131712Y-38550078D01*
X67164175Y-38582540D01*
X67175855Y-38594220D01*
X67279450Y-38639962D01*
X67304774Y-38642900D01*
X67304776Y-38642900D01*
X68845224Y-38642900D01*
X68845226Y-38642900D01*
X68870550Y-38639962D01*
X68974145Y-38594220D01*
X69054220Y-38514145D01*
X69055825Y-38511803D01*
X69058420Y-38509945D01*
X69059148Y-38509218D01*
X69059268Y-38509338D01*
X69097656Y-38481866D01*
X69117865Y-38479100D01*
X70122508Y-38479100D01*
X70170846Y-38496693D01*
X70175682Y-38501126D01*
X70257847Y-38583291D01*
X70257849Y-38583292D01*
X70372692Y-38641808D01*
X70372694Y-38641809D01*
X70470487Y-38657297D01*
X70499999Y-38661972D01*
X70500000Y-38661972D01*
X70500001Y-38661972D01*
X70520164Y-38658778D01*
X70627306Y-38641809D01*
X70742151Y-38583292D01*
X70833292Y-38492151D01*
X70891809Y-38377306D01*
X70911972Y-38250000D01*
X70891809Y-38122694D01*
X70833292Y-38007849D01*
X70833291Y-38007847D01*
X70742152Y-37916708D01*
X70627306Y-37858191D01*
X70627308Y-37858191D01*
X70500001Y-37838028D01*
X70499999Y-37838028D01*
X70372692Y-37858191D01*
X70257847Y-37916708D01*
X70175682Y-37998874D01*
X70129062Y-38020614D01*
X70122508Y-38020900D01*
X69171434Y-38020900D01*
X69123096Y-38003307D01*
X69104193Y-37973764D01*
X69102246Y-37974624D01*
X69099962Y-37969451D01*
X69099962Y-37969450D01*
X69054220Y-37865855D01*
X69054219Y-37865854D01*
X69054217Y-37865851D01*
X68974148Y-37785782D01*
X68974145Y-37785780D01*
X68870548Y-37740037D01*
X68851100Y-37737781D01*
X68845226Y-37737100D01*
X67304774Y-37737100D01*
X67299510Y-37737710D01*
X67279451Y-37740037D01*
X67175854Y-37785780D01*
X67175851Y-37785782D01*
X67095782Y-37865851D01*
X67095778Y-37865857D01*
X67090524Y-37877757D01*
X67054904Y-37914869D01*
X67003763Y-37920403D01*
X66987592Y-37914385D01*
X66877306Y-37858191D01*
X66877308Y-37858191D01*
X66750001Y-37838028D01*
X66749999Y-37838028D01*
X66622692Y-37858191D01*
X66507847Y-37916708D01*
X66416708Y-38007847D01*
X66358191Y-38122692D01*
X66338028Y-38249999D01*
X66338028Y-38250000D01*
X65823997Y-38250000D01*
X65666914Y-38092917D01*
X65665578Y-38091509D01*
X65637669Y-38060513D01*
X65615058Y-38050445D01*
X65604692Y-38044817D01*
X65583936Y-38031339D01*
X65583933Y-38031338D01*
X65575401Y-38029986D01*
X65556587Y-38024412D01*
X65548698Y-38020900D01*
X65548697Y-38020900D01*
X65523946Y-38020900D01*
X65512183Y-38019974D01*
X65496889Y-38017551D01*
X65487743Y-38016103D01*
X65487741Y-38016103D01*
X65479400Y-38018338D01*
X65459939Y-38020900D01*
X64627492Y-38020900D01*
X64579154Y-38003307D01*
X64574318Y-37998874D01*
X64492152Y-37916708D01*
X64377306Y-37858191D01*
X64377308Y-37858191D01*
X64250001Y-37838028D01*
X64249999Y-37838028D01*
X64122692Y-37858191D01*
X64012407Y-37914385D01*
X63961351Y-37920654D01*
X63918210Y-37892638D01*
X63909474Y-37877754D01*
X63904221Y-37865857D01*
X63904217Y-37865851D01*
X63824148Y-37785782D01*
X63824145Y-37785780D01*
X63720548Y-37740037D01*
X63701100Y-37737781D01*
X63695226Y-37737100D01*
X62154774Y-37737100D01*
X62149510Y-37737710D01*
X62129451Y-37740037D01*
X62025854Y-37785780D01*
X62025851Y-37785782D01*
X61945782Y-37865851D01*
X61945780Y-37865854D01*
X61900037Y-37969451D01*
X61897100Y-37994776D01*
X61897100Y-38385223D01*
X60602900Y-38385223D01*
X60602900Y-37994774D01*
X60599962Y-37969450D01*
X60554220Y-37865855D01*
X60554219Y-37865854D01*
X60554217Y-37865851D01*
X60474148Y-37785782D01*
X60474145Y-37785780D01*
X60370548Y-37740037D01*
X60351100Y-37737781D01*
X60345226Y-37737100D01*
X58804774Y-37737100D01*
X58799510Y-37737710D01*
X58779451Y-37740037D01*
X58675854Y-37785780D01*
X58675851Y-37785782D01*
X58595782Y-37865851D01*
X58595780Y-37865854D01*
X58586174Y-37887609D01*
X58573604Y-37916076D01*
X58537987Y-37953187D01*
X58504813Y-37960900D01*
X58317491Y-37960900D01*
X58269153Y-37943307D01*
X58264316Y-37938873D01*
X58242152Y-37916708D01*
X58127306Y-37858191D01*
X58127308Y-37858191D01*
X58000001Y-37838028D01*
X57999999Y-37838028D01*
X57872692Y-37858191D01*
X57757847Y-37916708D01*
X57666708Y-38007847D01*
X57608191Y-38122692D01*
X57588028Y-38249999D01*
X57588028Y-38250000D01*
X56161972Y-38250000D01*
X56141809Y-38122694D01*
X56083292Y-38007849D01*
X56083291Y-38007847D01*
X55992152Y-37916708D01*
X55877306Y-37858191D01*
X55877308Y-37858191D01*
X55750001Y-37838028D01*
X55749999Y-37838028D01*
X55622692Y-37858191D01*
X55512407Y-37914385D01*
X55461351Y-37920654D01*
X55418210Y-37892638D01*
X55409474Y-37877754D01*
X55404221Y-37865857D01*
X55404217Y-37865851D01*
X55324148Y-37785782D01*
X55324145Y-37785780D01*
X55220548Y-37740037D01*
X55201100Y-37737781D01*
X55195226Y-37737100D01*
X53654774Y-37737100D01*
X53649510Y-37737710D01*
X53629451Y-37740037D01*
X53525854Y-37785780D01*
X53525851Y-37785782D01*
X53445782Y-37865851D01*
X53445780Y-37865854D01*
X53433954Y-37892638D01*
X53400038Y-37969450D01*
X53400037Y-37969451D01*
X53397754Y-37974624D01*
X53395386Y-37973578D01*
X53371453Y-38007472D01*
X53328566Y-38020900D01*
X52377492Y-38020900D01*
X52329154Y-38003307D01*
X52324318Y-37998874D01*
X52242152Y-37916708D01*
X52127306Y-37858191D01*
X52127308Y-37858191D01*
X52000001Y-37838028D01*
X51999999Y-37838028D01*
X51872692Y-37858191D01*
X51757847Y-37916708D01*
X51666708Y-38007847D01*
X51608191Y-38122692D01*
X51588028Y-38249999D01*
X51588028Y-38250000D01*
X50861791Y-38250000D01*
X50988141Y-38197664D01*
X51190057Y-38073930D01*
X51370132Y-37920132D01*
X51523930Y-37740057D01*
X51647664Y-37538141D01*
X51738289Y-37319354D01*
X51787296Y-37115223D01*
X53397100Y-37115223D01*
X53400037Y-37140548D01*
X53445780Y-37244145D01*
X53445782Y-37244148D01*
X53525851Y-37324217D01*
X53525854Y-37324219D01*
X53525855Y-37324220D01*
X53629450Y-37369962D01*
X53654774Y-37372900D01*
X53654776Y-37372900D01*
X55195224Y-37372900D01*
X55195226Y-37372900D01*
X55220550Y-37369962D01*
X55324145Y-37324220D01*
X55329020Y-37319345D01*
X55358287Y-37290079D01*
X55404907Y-37268339D01*
X55454594Y-37281653D01*
X55464635Y-37290079D01*
X55507847Y-37333291D01*
X55507849Y-37333292D01*
X55622692Y-37391808D01*
X55622694Y-37391809D01*
X55712736Y-37406070D01*
X55749999Y-37411972D01*
X55750000Y-37411972D01*
X55750001Y-37411972D01*
X55770163Y-37408778D01*
X55877306Y-37391809D01*
X55992151Y-37333292D01*
X56083292Y-37242151D01*
X56141809Y-37127306D01*
X56161972Y-37000000D01*
X56141809Y-36872694D01*
X56083292Y-36757849D01*
X56083291Y-36757847D01*
X55992152Y-36666708D01*
X55877306Y-36608191D01*
X55877308Y-36608191D01*
X55750001Y-36588028D01*
X55749999Y-36588028D01*
X55622692Y-36608191D01*
X55519616Y-36660712D01*
X55468560Y-36666981D01*
X55425419Y-36638965D01*
X55416685Y-36624085D01*
X55404220Y-36595855D01*
X55404219Y-36595854D01*
X55404217Y-36595851D01*
X55324148Y-36515782D01*
X55324145Y-36515780D01*
X55220548Y-36470037D01*
X55201100Y-36467781D01*
X55195226Y-36467100D01*
X53654774Y-36467100D01*
X53649510Y-36467710D01*
X53629451Y-36470037D01*
X53525854Y-36515780D01*
X53525851Y-36515782D01*
X53445782Y-36595851D01*
X53445780Y-36595854D01*
X53400037Y-36699451D01*
X53397100Y-36724776D01*
X53397100Y-37115223D01*
X51787296Y-37115223D01*
X51793572Y-37089083D01*
X51812152Y-36853000D01*
X51793572Y-36616917D01*
X51738289Y-36386646D01*
X51647664Y-36167859D01*
X51523930Y-35965943D01*
X51447648Y-35876628D01*
X51370132Y-35785867D01*
X51328137Y-35750000D01*
X55088028Y-35750000D01*
X55108191Y-35877307D01*
X55166708Y-35992152D01*
X55257847Y-36083291D01*
X55257849Y-36083292D01*
X55372692Y-36141808D01*
X55372694Y-36141809D01*
X55470487Y-36157297D01*
X55499999Y-36161972D01*
X55500000Y-36161972D01*
X55500001Y-36161972D01*
X55520164Y-36158778D01*
X55627306Y-36141809D01*
X55742151Y-36083292D01*
X55833292Y-35992151D01*
X55891809Y-35877306D01*
X55911972Y-35750000D01*
X55891809Y-35622694D01*
X55866333Y-35572694D01*
X55833291Y-35507847D01*
X55742152Y-35416708D01*
X55627306Y-35358191D01*
X55627308Y-35358191D01*
X55500001Y-35338028D01*
X55499999Y-35338028D01*
X55372692Y-35358191D01*
X55257847Y-35416708D01*
X55166708Y-35507847D01*
X55108191Y-35622692D01*
X55088028Y-35749999D01*
X55088028Y-35750000D01*
X51328137Y-35750000D01*
X51190059Y-35632072D01*
X51190057Y-35632070D01*
X50988141Y-35508336D01*
X50769354Y-35417711D01*
X50725359Y-35407148D01*
X50539090Y-35362429D01*
X50539080Y-35362427D01*
X50303003Y-35343848D01*
X50302997Y-35343848D01*
X50066919Y-35362427D01*
X50066909Y-35362429D01*
X49836654Y-35417709D01*
X49836646Y-35417711D01*
X49836644Y-35417711D01*
X49836643Y-35417712D01*
X49617861Y-35508335D01*
X49415944Y-35632069D01*
X49415940Y-35632072D01*
X49235867Y-35785867D01*
X49082072Y-35965940D01*
X49082069Y-35965944D01*
X49032444Y-36046925D01*
X48974300Y-36141809D01*
X48958335Y-36167861D01*
X48867712Y-36386643D01*
X48867709Y-36386654D01*
X48812429Y-36616909D01*
X48812427Y-36616919D01*
X48793848Y-36852997D01*
X48793848Y-36853002D01*
X43307500Y-36853002D01*
X43307500Y-34854848D01*
X43307681Y-34851160D01*
X43317645Y-34750000D01*
X54088028Y-34750000D01*
X54108191Y-34877307D01*
X54166708Y-34992152D01*
X54257847Y-35083291D01*
X54257849Y-35083292D01*
X54372692Y-35141808D01*
X54372694Y-35141809D01*
X54470487Y-35157297D01*
X54499999Y-35161972D01*
X54500000Y-35161972D01*
X54500001Y-35161972D01*
X54520164Y-35158778D01*
X54627306Y-35141809D01*
X54742151Y-35083292D01*
X54742151Y-35083290D01*
X54824318Y-35001126D01*
X54870938Y-34979386D01*
X54877492Y-34979100D01*
X57923956Y-34979100D01*
X57972294Y-34996693D01*
X57977130Y-35001126D01*
X58572962Y-35596959D01*
X58594702Y-35643579D01*
X58594062Y-35661895D01*
X58588028Y-35699996D01*
X58588028Y-35700000D01*
X58608191Y-35827307D01*
X58666708Y-35942152D01*
X58748874Y-36024318D01*
X58770614Y-36070938D01*
X58770900Y-36077492D01*
X58770900Y-36338024D01*
X58770848Y-36339992D01*
X58768665Y-36381638D01*
X58768665Y-36381640D01*
X58773591Y-36394472D01*
X58774487Y-36445904D01*
X58742113Y-36485879D01*
X58733760Y-36490211D01*
X58675858Y-36515777D01*
X58675851Y-36515782D01*
X58595782Y-36595851D01*
X58595780Y-36595854D01*
X58550037Y-36699451D01*
X58547100Y-36724776D01*
X58547100Y-37115223D01*
X58550037Y-37140548D01*
X58595780Y-37244145D01*
X58595782Y-37244148D01*
X58675851Y-37324217D01*
X58675854Y-37324219D01*
X58675855Y-37324220D01*
X58779450Y-37369962D01*
X58804774Y-37372900D01*
X58804776Y-37372900D01*
X60345224Y-37372900D01*
X60345226Y-37372900D01*
X60370550Y-37369962D01*
X60474145Y-37324220D01*
X60554220Y-37244145D01*
X60599962Y-37140550D01*
X60602900Y-37115226D01*
X60602900Y-37115223D01*
X61897100Y-37115223D01*
X61900037Y-37140548D01*
X61945780Y-37244145D01*
X61945782Y-37244148D01*
X62025851Y-37324217D01*
X62025854Y-37324219D01*
X62025855Y-37324220D01*
X62129450Y-37369962D01*
X62154774Y-37372900D01*
X62154776Y-37372900D01*
X63695224Y-37372900D01*
X63695226Y-37372900D01*
X63720550Y-37369962D01*
X63824145Y-37324220D01*
X63829020Y-37319345D01*
X63858287Y-37290079D01*
X63904907Y-37268339D01*
X63954594Y-37281653D01*
X63964635Y-37290079D01*
X64007847Y-37333291D01*
X64007849Y-37333292D01*
X64122692Y-37391808D01*
X64122694Y-37391809D01*
X64212736Y-37406070D01*
X64249999Y-37411972D01*
X64250000Y-37411972D01*
X64250001Y-37411972D01*
X64270163Y-37408778D01*
X64377306Y-37391809D01*
X64492151Y-37333292D01*
X64583292Y-37242151D01*
X64641809Y-37127306D01*
X64643723Y-37115223D01*
X67047100Y-37115223D01*
X67050037Y-37140548D01*
X67095780Y-37244145D01*
X67095782Y-37244148D01*
X67175851Y-37324217D01*
X67175854Y-37324219D01*
X67175855Y-37324220D01*
X67279450Y-37369962D01*
X67304774Y-37372900D01*
X67304776Y-37372900D01*
X68845224Y-37372900D01*
X68845226Y-37372900D01*
X68870550Y-37369962D01*
X68974145Y-37324220D01*
X69054220Y-37244145D01*
X69099962Y-37140550D01*
X69102900Y-37115226D01*
X69102900Y-36724774D01*
X69099962Y-36699450D01*
X69054220Y-36595855D01*
X69054219Y-36595854D01*
X69051405Y-36589480D01*
X69052825Y-36588852D01*
X69042063Y-36546982D01*
X69064276Y-36500586D01*
X69111116Y-36479323D01*
X69116906Y-36479100D01*
X69622508Y-36479100D01*
X69670846Y-36496693D01*
X69675682Y-36501126D01*
X69757847Y-36583291D01*
X69757849Y-36583292D01*
X69872692Y-36641808D01*
X69872694Y-36641809D01*
X69970487Y-36657297D01*
X69999999Y-36661972D01*
X70000000Y-36661972D01*
X70000001Y-36661972D01*
X70020163Y-36658778D01*
X70127306Y-36641809D01*
X70242151Y-36583292D01*
X70333292Y-36492151D01*
X70391809Y-36377306D01*
X70411972Y-36250000D01*
X70391809Y-36122694D01*
X70371733Y-36083292D01*
X70333291Y-36007847D01*
X70242152Y-35916708D01*
X70127306Y-35858191D01*
X70127308Y-35858191D01*
X70000001Y-35838028D01*
X69999999Y-35838028D01*
X69872692Y-35858191D01*
X69757847Y-35916708D01*
X69675682Y-35998874D01*
X69629062Y-36020614D01*
X69622508Y-36020900D01*
X68751975Y-36020900D01*
X68750007Y-36020848D01*
X68708362Y-36018665D01*
X68708360Y-36018665D01*
X68685252Y-36027535D01*
X68673945Y-36030884D01*
X68649735Y-36036030D01*
X68642748Y-36041107D01*
X68625502Y-36050471D01*
X68617439Y-36053566D01*
X68617434Y-36053569D01*
X68599931Y-36071071D01*
X68590965Y-36078729D01*
X68570942Y-36093277D01*
X68570940Y-36093280D01*
X68566622Y-36100759D01*
X68554673Y-36116329D01*
X68432474Y-36238528D01*
X68385854Y-36260268D01*
X68336167Y-36246954D01*
X68306662Y-36204817D01*
X68304100Y-36185354D01*
X68304100Y-36081973D01*
X68304152Y-36080005D01*
X68306334Y-36038360D01*
X68297467Y-36015261D01*
X68294116Y-36003947D01*
X68288969Y-35979737D01*
X68288969Y-35979735D01*
X68283890Y-35972744D01*
X68274524Y-35955491D01*
X68271432Y-35947437D01*
X68271430Y-35947433D01*
X68253932Y-35929935D01*
X68246268Y-35920963D01*
X68231721Y-35900941D01*
X68224244Y-35896624D01*
X68208672Y-35884674D01*
X68177037Y-35853039D01*
X68155297Y-35806419D01*
X68155937Y-35788100D01*
X68161972Y-35749999D01*
X68154052Y-35699996D01*
X68141809Y-35622694D01*
X68116333Y-35572694D01*
X68083291Y-35507847D01*
X67992152Y-35416708D01*
X67877306Y-35358191D01*
X67877308Y-35358191D01*
X67750001Y-35338028D01*
X67749999Y-35338028D01*
X67622692Y-35358191D01*
X67507847Y-35416708D01*
X67416708Y-35507847D01*
X67358191Y-35622692D01*
X67338028Y-35749999D01*
X67338028Y-35750000D01*
X67358191Y-35877307D01*
X67416708Y-35992152D01*
X67507847Y-36083291D01*
X67507849Y-36083292D01*
X67622692Y-36141808D01*
X67622694Y-36141809D01*
X67720487Y-36157297D01*
X67749999Y-36161972D01*
X67750000Y-36161972D01*
X67750002Y-36161972D01*
X67754668Y-36161232D01*
X67758932Y-36160557D01*
X67809427Y-36170369D01*
X67841802Y-36210343D01*
X67845900Y-36234830D01*
X67845900Y-36391900D01*
X67828307Y-36440238D01*
X67783758Y-36465958D01*
X67770700Y-36467100D01*
X67304774Y-36467100D01*
X67299510Y-36467710D01*
X67279451Y-36470037D01*
X67175854Y-36515780D01*
X67175851Y-36515782D01*
X67095782Y-36595851D01*
X67095780Y-36595854D01*
X67050037Y-36699451D01*
X67047100Y-36724776D01*
X67047100Y-37115223D01*
X64643723Y-37115223D01*
X64661972Y-37000000D01*
X64641809Y-36872694D01*
X64583292Y-36757849D01*
X64583291Y-36757847D01*
X64492152Y-36666708D01*
X64377306Y-36608191D01*
X64377308Y-36608191D01*
X64250001Y-36588028D01*
X64249999Y-36588028D01*
X64122692Y-36608191D01*
X64019616Y-36660712D01*
X63968560Y-36666981D01*
X63925419Y-36638965D01*
X63916685Y-36624085D01*
X63904220Y-36595855D01*
X63904219Y-36595854D01*
X63904217Y-36595851D01*
X63824148Y-36515782D01*
X63824145Y-36515780D01*
X63720548Y-36470037D01*
X63701100Y-36467781D01*
X63695226Y-36467100D01*
X62154774Y-36467100D01*
X62149510Y-36467710D01*
X62129451Y-36470037D01*
X62025854Y-36515780D01*
X62025851Y-36515782D01*
X61945782Y-36595851D01*
X61945780Y-36595854D01*
X61900037Y-36699451D01*
X61897100Y-36724776D01*
X61897100Y-37115223D01*
X60602900Y-37115223D01*
X60602900Y-36724774D01*
X60599962Y-36699450D01*
X60554220Y-36595855D01*
X60554219Y-36595854D01*
X60554217Y-36595851D01*
X60474148Y-36515782D01*
X60474145Y-36515780D01*
X60370548Y-36470037D01*
X60351100Y-36467781D01*
X60345226Y-36467100D01*
X60345224Y-36467100D01*
X59477245Y-36467100D01*
X59428907Y-36449507D01*
X59424071Y-36445074D01*
X59251126Y-36272129D01*
X59229386Y-36225509D01*
X59229100Y-36218955D01*
X59229100Y-36077492D01*
X59246693Y-36029154D01*
X59251126Y-36024318D01*
X59333291Y-35942152D01*
X59341649Y-35925750D01*
X59391809Y-35827306D01*
X59404053Y-35750000D01*
X63588028Y-35750000D01*
X63608191Y-35877307D01*
X63666708Y-35992152D01*
X63757847Y-36083291D01*
X63757849Y-36083292D01*
X63872692Y-36141808D01*
X63872694Y-36141809D01*
X63970487Y-36157297D01*
X63999999Y-36161972D01*
X64000000Y-36161972D01*
X64000001Y-36161972D01*
X64020163Y-36158778D01*
X64127306Y-36141809D01*
X64242151Y-36083292D01*
X64333292Y-35992151D01*
X64391809Y-35877306D01*
X64411972Y-35750000D01*
X64391809Y-35622694D01*
X64366333Y-35572694D01*
X64333291Y-35507847D01*
X64242152Y-35416708D01*
X64127306Y-35358191D01*
X64127308Y-35358191D01*
X64000001Y-35338028D01*
X63999999Y-35338028D01*
X63872692Y-35358191D01*
X63757847Y-35416708D01*
X63666708Y-35507847D01*
X63608191Y-35622692D01*
X63588028Y-35749999D01*
X63588028Y-35750000D01*
X59404053Y-35750000D01*
X59411972Y-35700000D01*
X59411971Y-35699996D01*
X59399728Y-35622694D01*
X59391809Y-35572694D01*
X59358768Y-35507847D01*
X59333291Y-35457847D01*
X59242152Y-35366708D01*
X59127306Y-35308191D01*
X59127308Y-35308191D01*
X59000001Y-35288028D01*
X58999997Y-35288028D01*
X58961894Y-35294062D01*
X58911400Y-35284246D01*
X58896958Y-35272962D01*
X58603096Y-34979100D01*
X58216914Y-34592917D01*
X58215578Y-34591509D01*
X58188270Y-34561181D01*
X58187670Y-34560514D01*
X58187669Y-34560513D01*
X58165058Y-34550445D01*
X58154692Y-34544817D01*
X58133936Y-34531339D01*
X58133933Y-34531338D01*
X58125401Y-34529986D01*
X58106587Y-34524412D01*
X58098698Y-34520900D01*
X58098697Y-34520900D01*
X58073946Y-34520900D01*
X58062183Y-34519974D01*
X58046889Y-34517551D01*
X58037743Y-34516103D01*
X58037741Y-34516103D01*
X58029400Y-34518338D01*
X58009939Y-34520900D01*
X54877492Y-34520900D01*
X54829154Y-34503307D01*
X54824318Y-34498874D01*
X54742152Y-34416708D01*
X54627306Y-34358191D01*
X54627308Y-34358191D01*
X54500001Y-34338028D01*
X54499999Y-34338028D01*
X54372692Y-34358191D01*
X54257847Y-34416708D01*
X54166708Y-34507847D01*
X54108191Y-34622692D01*
X54088028Y-34749999D01*
X54088028Y-34750000D01*
X43317645Y-34750000D01*
X43321099Y-34714930D01*
X43323975Y-34700472D01*
X43356595Y-34592937D01*
X43362098Y-34574797D01*
X43367738Y-34561181D01*
X43429648Y-34445353D01*
X43437839Y-34433095D01*
X43488439Y-34371439D01*
X43521156Y-34331573D01*
X43531573Y-34321156D01*
X43633095Y-34237838D01*
X43645353Y-34229648D01*
X43761181Y-34167738D01*
X43774797Y-34162098D01*
X43900473Y-34123974D01*
X43914929Y-34121099D01*
X44051162Y-34107680D01*
X44054850Y-34107500D01*
X44097875Y-34107500D01*
X70973300Y-34107500D01*
X71021638Y-34125093D01*
G37*
%TD.AperFunction*%
%TD*%
M02*
