%TF.GenerationSoftware,KiCad,Pcbnew,7.0.6-7.0.6~ubuntu22.04.1*%
%TF.CreationDate,2023-07-31T15:05:58-04:00*%
%TF.ProjectId,readout-box,72656164-6f75-4742-9d62-6f782e6b6963,rev?*%
%TF.SameCoordinates,Original*%
%TF.FileFunction,Legend,Bot*%
%TF.FilePolarity,Positive*%
%FSLAX46Y46*%
G04 Gerber Fmt 4.6, Leading zero omitted, Abs format (unit mm)*
G04 Created by KiCad (PCBNEW 7.0.6-7.0.6~ubuntu22.04.1) date 2023-07-31 15:05:58*
%MOMM*%
%LPD*%
G01*
G04 APERTURE LIST*
%ADD10C,0.152400*%
%ADD11C,0.127000*%
%ADD12C,0.120000*%
G04 APERTURE END LIST*
D10*
X71097356Y-45195284D02*
X71097356Y-46041951D01*
X71097356Y-45316236D02*
X71036879Y-45255760D01*
X71036879Y-45255760D02*
X70915927Y-45195284D01*
X70915927Y-45195284D02*
X70734498Y-45195284D01*
X70734498Y-45195284D02*
X70613546Y-45255760D01*
X70613546Y-45255760D02*
X70553070Y-45376713D01*
X70553070Y-45376713D02*
X70553070Y-46041951D01*
X69948308Y-46041951D02*
X69948308Y-45195284D01*
X69948308Y-44771951D02*
X70008784Y-44832427D01*
X70008784Y-44832427D02*
X69948308Y-44892903D01*
X69948308Y-44892903D02*
X69887831Y-44832427D01*
X69887831Y-44832427D02*
X69948308Y-44771951D01*
X69948308Y-44771951D02*
X69948308Y-44892903D01*
X69343546Y-45195284D02*
X69343546Y-46041951D01*
X69343546Y-45316236D02*
X69283069Y-45255760D01*
X69283069Y-45255760D02*
X69162117Y-45195284D01*
X69162117Y-45195284D02*
X68980688Y-45195284D01*
X68980688Y-45195284D02*
X68859736Y-45255760D01*
X68859736Y-45255760D02*
X68799260Y-45376713D01*
X68799260Y-45376713D02*
X68799260Y-46041951D01*
X68194498Y-45195284D02*
X68194498Y-46283855D01*
X68194498Y-46283855D02*
X68254974Y-46404808D01*
X68254974Y-46404808D02*
X68375926Y-46465284D01*
X68375926Y-46465284D02*
X68436402Y-46465284D01*
X68194498Y-44771951D02*
X68254974Y-44832427D01*
X68254974Y-44832427D02*
X68194498Y-44892903D01*
X68194498Y-44892903D02*
X68134021Y-44832427D01*
X68134021Y-44832427D02*
X68194498Y-44771951D01*
X68194498Y-44771951D02*
X68194498Y-44892903D01*
X67045450Y-46041951D02*
X67045450Y-45376713D01*
X67045450Y-45376713D02*
X67105926Y-45255760D01*
X67105926Y-45255760D02*
X67226878Y-45195284D01*
X67226878Y-45195284D02*
X67468783Y-45195284D01*
X67468783Y-45195284D02*
X67589736Y-45255760D01*
X67045450Y-45981475D02*
X67166402Y-46041951D01*
X67166402Y-46041951D02*
X67468783Y-46041951D01*
X67468783Y-46041951D02*
X67589736Y-45981475D01*
X67589736Y-45981475D02*
X67650212Y-45860522D01*
X67650212Y-45860522D02*
X67650212Y-45739570D01*
X67650212Y-45739570D02*
X67589736Y-45618617D01*
X67589736Y-45618617D02*
X67468783Y-45558141D01*
X67468783Y-45558141D02*
X67166402Y-45558141D01*
X67166402Y-45558141D02*
X67045450Y-45497665D01*
X66440688Y-46041951D02*
X66440688Y-44771951D01*
X66440688Y-44771951D02*
X65714973Y-46041951D01*
X65714973Y-46041951D02*
X65714973Y-44771951D01*
X65110212Y-46041951D02*
X65110212Y-44771951D01*
X63779735Y-46041951D02*
X64203069Y-45437189D01*
X64505450Y-46041951D02*
X64505450Y-44771951D01*
X64505450Y-44771951D02*
X64021640Y-44771951D01*
X64021640Y-44771951D02*
X63900688Y-44832427D01*
X63900688Y-44832427D02*
X63840211Y-44892903D01*
X63840211Y-44892903D02*
X63779735Y-45013855D01*
X63779735Y-45013855D02*
X63779735Y-45195284D01*
X63779735Y-45195284D02*
X63840211Y-45316236D01*
X63840211Y-45316236D02*
X63900688Y-45376713D01*
X63900688Y-45376713D02*
X64021640Y-45437189D01*
X64021640Y-45437189D02*
X64505450Y-45437189D01*
X63295926Y-45981475D02*
X63114497Y-46041951D01*
X63114497Y-46041951D02*
X62812116Y-46041951D01*
X62812116Y-46041951D02*
X62691164Y-45981475D01*
X62691164Y-45981475D02*
X62630688Y-45920998D01*
X62630688Y-45920998D02*
X62570211Y-45800046D01*
X62570211Y-45800046D02*
X62570211Y-45679094D01*
X62570211Y-45679094D02*
X62630688Y-45558141D01*
X62630688Y-45558141D02*
X62691164Y-45497665D01*
X62691164Y-45497665D02*
X62812116Y-45437189D01*
X62812116Y-45437189D02*
X63054021Y-45376713D01*
X63054021Y-45376713D02*
X63174973Y-45316236D01*
X63174973Y-45316236D02*
X63235450Y-45255760D01*
X63235450Y-45255760D02*
X63295926Y-45134808D01*
X63295926Y-45134808D02*
X63295926Y-45013855D01*
X63295926Y-45013855D02*
X63235450Y-44892903D01*
X63235450Y-44892903D02*
X63174973Y-44832427D01*
X63174973Y-44832427D02*
X63054021Y-44771951D01*
X63054021Y-44771951D02*
X62751640Y-44771951D01*
X62751640Y-44771951D02*
X62570211Y-44832427D01*
X60332592Y-46041951D02*
X60755926Y-45437189D01*
X61058307Y-46041951D02*
X61058307Y-44771951D01*
X61058307Y-44771951D02*
X60574497Y-44771951D01*
X60574497Y-44771951D02*
X60453545Y-44832427D01*
X60453545Y-44832427D02*
X60393068Y-44892903D01*
X60393068Y-44892903D02*
X60332592Y-45013855D01*
X60332592Y-45013855D02*
X60332592Y-45195284D01*
X60332592Y-45195284D02*
X60393068Y-45316236D01*
X60393068Y-45316236D02*
X60453545Y-45376713D01*
X60453545Y-45376713D02*
X60574497Y-45437189D01*
X60574497Y-45437189D02*
X61058307Y-45437189D01*
X59304497Y-45981475D02*
X59425449Y-46041951D01*
X59425449Y-46041951D02*
X59667354Y-46041951D01*
X59667354Y-46041951D02*
X59788307Y-45981475D01*
X59788307Y-45981475D02*
X59848783Y-45860522D01*
X59848783Y-45860522D02*
X59848783Y-45376713D01*
X59848783Y-45376713D02*
X59788307Y-45255760D01*
X59788307Y-45255760D02*
X59667354Y-45195284D01*
X59667354Y-45195284D02*
X59425449Y-45195284D01*
X59425449Y-45195284D02*
X59304497Y-45255760D01*
X59304497Y-45255760D02*
X59244021Y-45376713D01*
X59244021Y-45376713D02*
X59244021Y-45497665D01*
X59244021Y-45497665D02*
X59848783Y-45618617D01*
X58155450Y-46041951D02*
X58155450Y-45376713D01*
X58155450Y-45376713D02*
X58215926Y-45255760D01*
X58215926Y-45255760D02*
X58336878Y-45195284D01*
X58336878Y-45195284D02*
X58578783Y-45195284D01*
X58578783Y-45195284D02*
X58699736Y-45255760D01*
X58155450Y-45981475D02*
X58276402Y-46041951D01*
X58276402Y-46041951D02*
X58578783Y-46041951D01*
X58578783Y-46041951D02*
X58699736Y-45981475D01*
X58699736Y-45981475D02*
X58760212Y-45860522D01*
X58760212Y-45860522D02*
X58760212Y-45739570D01*
X58760212Y-45739570D02*
X58699736Y-45618617D01*
X58699736Y-45618617D02*
X58578783Y-45558141D01*
X58578783Y-45558141D02*
X58276402Y-45558141D01*
X58276402Y-45558141D02*
X58155450Y-45497665D01*
X57006402Y-46041951D02*
X57006402Y-44771951D01*
X57006402Y-45981475D02*
X57127354Y-46041951D01*
X57127354Y-46041951D02*
X57369259Y-46041951D01*
X57369259Y-46041951D02*
X57490211Y-45981475D01*
X57490211Y-45981475D02*
X57550688Y-45920998D01*
X57550688Y-45920998D02*
X57611164Y-45800046D01*
X57611164Y-45800046D02*
X57611164Y-45437189D01*
X57611164Y-45437189D02*
X57550688Y-45316236D01*
X57550688Y-45316236D02*
X57490211Y-45255760D01*
X57490211Y-45255760D02*
X57369259Y-45195284D01*
X57369259Y-45195284D02*
X57127354Y-45195284D01*
X57127354Y-45195284D02*
X57006402Y-45255760D01*
X56220211Y-46041951D02*
X56341163Y-45981475D01*
X56341163Y-45981475D02*
X56401640Y-45920998D01*
X56401640Y-45920998D02*
X56462116Y-45800046D01*
X56462116Y-45800046D02*
X56462116Y-45437189D01*
X56462116Y-45437189D02*
X56401640Y-45316236D01*
X56401640Y-45316236D02*
X56341163Y-45255760D01*
X56341163Y-45255760D02*
X56220211Y-45195284D01*
X56220211Y-45195284D02*
X56038782Y-45195284D01*
X56038782Y-45195284D02*
X55917830Y-45255760D01*
X55917830Y-45255760D02*
X55857354Y-45316236D01*
X55857354Y-45316236D02*
X55796878Y-45437189D01*
X55796878Y-45437189D02*
X55796878Y-45800046D01*
X55796878Y-45800046D02*
X55857354Y-45920998D01*
X55857354Y-45920998D02*
X55917830Y-45981475D01*
X55917830Y-45981475D02*
X56038782Y-46041951D01*
X56038782Y-46041951D02*
X56220211Y-46041951D01*
X54708306Y-45195284D02*
X54708306Y-46041951D01*
X55252592Y-45195284D02*
X55252592Y-45860522D01*
X55252592Y-45860522D02*
X55192115Y-45981475D01*
X55192115Y-45981475D02*
X55071163Y-46041951D01*
X55071163Y-46041951D02*
X54889734Y-46041951D01*
X54889734Y-46041951D02*
X54768782Y-45981475D01*
X54768782Y-45981475D02*
X54708306Y-45920998D01*
X54284972Y-45195284D02*
X53801163Y-45195284D01*
X54103544Y-44771951D02*
X54103544Y-45860522D01*
X54103544Y-45860522D02*
X54043067Y-45981475D01*
X54043067Y-45981475D02*
X53922115Y-46041951D01*
X53922115Y-46041951D02*
X53801163Y-46041951D01*
X52591639Y-44771951D02*
X52168306Y-46041951D01*
X52168306Y-46041951D02*
X51744972Y-44771951D01*
X50656401Y-46041951D02*
X51382116Y-46041951D01*
X51019259Y-46041951D02*
X51019259Y-44771951D01*
X51019259Y-44771951D02*
X51140211Y-44953379D01*
X51140211Y-44953379D02*
X51261163Y-45074332D01*
X51261163Y-45074332D02*
X51382116Y-45134808D01*
X50112116Y-45920998D02*
X50051639Y-45981475D01*
X50051639Y-45981475D02*
X50112116Y-46041951D01*
X50112116Y-46041951D02*
X50172592Y-45981475D01*
X50172592Y-45981475D02*
X50112116Y-45920998D01*
X50112116Y-45920998D02*
X50112116Y-46041951D01*
X49265449Y-44771951D02*
X49144496Y-44771951D01*
X49144496Y-44771951D02*
X49023544Y-44832427D01*
X49023544Y-44832427D02*
X48963068Y-44892903D01*
X48963068Y-44892903D02*
X48902592Y-45013855D01*
X48902592Y-45013855D02*
X48842115Y-45255760D01*
X48842115Y-45255760D02*
X48842115Y-45558141D01*
X48842115Y-45558141D02*
X48902592Y-45800046D01*
X48902592Y-45800046D02*
X48963068Y-45920998D01*
X48963068Y-45920998D02*
X49023544Y-45981475D01*
X49023544Y-45981475D02*
X49144496Y-46041951D01*
X49144496Y-46041951D02*
X49265449Y-46041951D01*
X49265449Y-46041951D02*
X49386401Y-45981475D01*
X49386401Y-45981475D02*
X49446877Y-45920998D01*
X49446877Y-45920998D02*
X49507354Y-45800046D01*
X49507354Y-45800046D02*
X49567830Y-45558141D01*
X49567830Y-45558141D02*
X49567830Y-45255760D01*
X49567830Y-45255760D02*
X49507354Y-45013855D01*
X49507354Y-45013855D02*
X49446877Y-44892903D01*
X49446877Y-44892903D02*
X49386401Y-44832427D01*
X49386401Y-44832427D02*
X49265449Y-44771951D01*
X71097356Y-47421413D02*
X70674022Y-47421413D01*
X70492594Y-48086651D02*
X71097356Y-48086651D01*
X71097356Y-48086651D02*
X71097356Y-46816651D01*
X71097356Y-46816651D02*
X70492594Y-46816651D01*
X69948308Y-47965698D02*
X69887831Y-48026175D01*
X69887831Y-48026175D02*
X69948308Y-48086651D01*
X69948308Y-48086651D02*
X70008784Y-48026175D01*
X70008784Y-48026175D02*
X69948308Y-47965698D01*
X69948308Y-47965698D02*
X69948308Y-48086651D01*
X68375927Y-48086651D02*
X68375927Y-46816651D01*
X68375927Y-47421413D02*
X67650212Y-47421413D01*
X67650212Y-48086651D02*
X67650212Y-46816651D01*
X66501165Y-48086651D02*
X66501165Y-47421413D01*
X66501165Y-47421413D02*
X66561641Y-47300460D01*
X66561641Y-47300460D02*
X66682593Y-47239984D01*
X66682593Y-47239984D02*
X66924498Y-47239984D01*
X66924498Y-47239984D02*
X67045451Y-47300460D01*
X66501165Y-48026175D02*
X66622117Y-48086651D01*
X66622117Y-48086651D02*
X66924498Y-48086651D01*
X66924498Y-48086651D02*
X67045451Y-48026175D01*
X67045451Y-48026175D02*
X67105927Y-47905222D01*
X67105927Y-47905222D02*
X67105927Y-47784270D01*
X67105927Y-47784270D02*
X67045451Y-47663317D01*
X67045451Y-47663317D02*
X66924498Y-47602841D01*
X66924498Y-47602841D02*
X66622117Y-47602841D01*
X66622117Y-47602841D02*
X66501165Y-47542365D01*
X66017355Y-47239984D02*
X65352117Y-47239984D01*
X65352117Y-47239984D02*
X66017355Y-48086651D01*
X66017355Y-48086651D02*
X65352117Y-48086651D01*
X64384498Y-48026175D02*
X64505450Y-48086651D01*
X64505450Y-48086651D02*
X64747355Y-48086651D01*
X64747355Y-48086651D02*
X64868308Y-48026175D01*
X64868308Y-48026175D02*
X64928784Y-47905222D01*
X64928784Y-47905222D02*
X64928784Y-47421413D01*
X64928784Y-47421413D02*
X64868308Y-47300460D01*
X64868308Y-47300460D02*
X64747355Y-47239984D01*
X64747355Y-47239984D02*
X64505450Y-47239984D01*
X64505450Y-47239984D02*
X64384498Y-47300460D01*
X64384498Y-47300460D02*
X64324022Y-47421413D01*
X64324022Y-47421413D02*
X64324022Y-47542365D01*
X64324022Y-47542365D02*
X64928784Y-47663317D01*
X63779737Y-47239984D02*
X63779737Y-48086651D01*
X63779737Y-47360936D02*
X63719260Y-47300460D01*
X63719260Y-47300460D02*
X63598308Y-47239984D01*
X63598308Y-47239984D02*
X63416879Y-47239984D01*
X63416879Y-47239984D02*
X63295927Y-47300460D01*
X63295927Y-47300460D02*
X63235451Y-47421413D01*
X63235451Y-47421413D02*
X63235451Y-48086651D01*
X61663070Y-47602841D02*
X60695451Y-47602841D01*
X59183546Y-46937603D02*
X59123070Y-46877127D01*
X59123070Y-46877127D02*
X59002117Y-46816651D01*
X59002117Y-46816651D02*
X58699736Y-46816651D01*
X58699736Y-46816651D02*
X58578784Y-46877127D01*
X58578784Y-46877127D02*
X58518308Y-46937603D01*
X58518308Y-46937603D02*
X58457831Y-47058555D01*
X58457831Y-47058555D02*
X58457831Y-47179508D01*
X58457831Y-47179508D02*
X58518308Y-47360936D01*
X58518308Y-47360936D02*
X59244022Y-48086651D01*
X59244022Y-48086651D02*
X58457831Y-48086651D01*
X57671641Y-46816651D02*
X57550688Y-46816651D01*
X57550688Y-46816651D02*
X57429736Y-46877127D01*
X57429736Y-46877127D02*
X57369260Y-46937603D01*
X57369260Y-46937603D02*
X57308784Y-47058555D01*
X57308784Y-47058555D02*
X57248307Y-47300460D01*
X57248307Y-47300460D02*
X57248307Y-47602841D01*
X57248307Y-47602841D02*
X57308784Y-47844746D01*
X57308784Y-47844746D02*
X57369260Y-47965698D01*
X57369260Y-47965698D02*
X57429736Y-48026175D01*
X57429736Y-48026175D02*
X57550688Y-48086651D01*
X57550688Y-48086651D02*
X57671641Y-48086651D01*
X57671641Y-48086651D02*
X57792593Y-48026175D01*
X57792593Y-48026175D02*
X57853069Y-47965698D01*
X57853069Y-47965698D02*
X57913546Y-47844746D01*
X57913546Y-47844746D02*
X57974022Y-47602841D01*
X57974022Y-47602841D02*
X57974022Y-47300460D01*
X57974022Y-47300460D02*
X57913546Y-47058555D01*
X57913546Y-47058555D02*
X57853069Y-46937603D01*
X57853069Y-46937603D02*
X57792593Y-46877127D01*
X57792593Y-46877127D02*
X57671641Y-46816651D01*
X56764498Y-46937603D02*
X56704022Y-46877127D01*
X56704022Y-46877127D02*
X56583069Y-46816651D01*
X56583069Y-46816651D02*
X56280688Y-46816651D01*
X56280688Y-46816651D02*
X56159736Y-46877127D01*
X56159736Y-46877127D02*
X56099260Y-46937603D01*
X56099260Y-46937603D02*
X56038783Y-47058555D01*
X56038783Y-47058555D02*
X56038783Y-47179508D01*
X56038783Y-47179508D02*
X56099260Y-47360936D01*
X56099260Y-47360936D02*
X56824974Y-48086651D01*
X56824974Y-48086651D02*
X56038783Y-48086651D01*
X55615450Y-46816651D02*
X54829259Y-46816651D01*
X54829259Y-46816651D02*
X55252593Y-47300460D01*
X55252593Y-47300460D02*
X55071164Y-47300460D01*
X55071164Y-47300460D02*
X54950212Y-47360936D01*
X54950212Y-47360936D02*
X54889736Y-47421413D01*
X54889736Y-47421413D02*
X54829259Y-47542365D01*
X54829259Y-47542365D02*
X54829259Y-47844746D01*
X54829259Y-47844746D02*
X54889736Y-47965698D01*
X54889736Y-47965698D02*
X54950212Y-48026175D01*
X54950212Y-48026175D02*
X55071164Y-48086651D01*
X55071164Y-48086651D02*
X55434021Y-48086651D01*
X55434021Y-48086651D02*
X55554974Y-48026175D01*
X55554974Y-48026175D02*
X55615450Y-47965698D01*
X54284974Y-47602841D02*
X53317355Y-47602841D01*
X52470688Y-46816651D02*
X52349735Y-46816651D01*
X52349735Y-46816651D02*
X52228783Y-46877127D01*
X52228783Y-46877127D02*
X52168307Y-46937603D01*
X52168307Y-46937603D02*
X52107831Y-47058555D01*
X52107831Y-47058555D02*
X52047354Y-47300460D01*
X52047354Y-47300460D02*
X52047354Y-47602841D01*
X52047354Y-47602841D02*
X52107831Y-47844746D01*
X52107831Y-47844746D02*
X52168307Y-47965698D01*
X52168307Y-47965698D02*
X52228783Y-48026175D01*
X52228783Y-48026175D02*
X52349735Y-48086651D01*
X52349735Y-48086651D02*
X52470688Y-48086651D01*
X52470688Y-48086651D02*
X52591640Y-48026175D01*
X52591640Y-48026175D02*
X52652116Y-47965698D01*
X52652116Y-47965698D02*
X52712593Y-47844746D01*
X52712593Y-47844746D02*
X52773069Y-47602841D01*
X52773069Y-47602841D02*
X52773069Y-47300460D01*
X52773069Y-47300460D02*
X52712593Y-47058555D01*
X52712593Y-47058555D02*
X52652116Y-46937603D01*
X52652116Y-46937603D02*
X52591640Y-46877127D01*
X52591640Y-46877127D02*
X52470688Y-46816651D01*
X51624021Y-46816651D02*
X50777354Y-46816651D01*
X50777354Y-46816651D02*
X51321640Y-48086651D01*
D11*
X64255571Y-60528911D02*
X64255571Y-61145768D01*
X64255571Y-61145768D02*
X64219285Y-61218340D01*
X64219285Y-61218340D02*
X64183000Y-61254626D01*
X64183000Y-61254626D02*
X64110428Y-61290911D01*
X64110428Y-61290911D02*
X63965285Y-61290911D01*
X63965285Y-61290911D02*
X63892714Y-61254626D01*
X63892714Y-61254626D02*
X63856428Y-61218340D01*
X63856428Y-61218340D02*
X63820142Y-61145768D01*
X63820142Y-61145768D02*
X63820142Y-60528911D01*
X63493571Y-60601483D02*
X63457285Y-60565197D01*
X63457285Y-60565197D02*
X63384714Y-60528911D01*
X63384714Y-60528911D02*
X63203285Y-60528911D01*
X63203285Y-60528911D02*
X63130714Y-60565197D01*
X63130714Y-60565197D02*
X63094428Y-60601483D01*
X63094428Y-60601483D02*
X63058142Y-60674054D01*
X63058142Y-60674054D02*
X63058142Y-60746626D01*
X63058142Y-60746626D02*
X63094428Y-60855483D01*
X63094428Y-60855483D02*
X63529856Y-61290911D01*
X63529856Y-61290911D02*
X63058142Y-61290911D01*
X67380928Y-49453911D02*
X67380928Y-50070768D01*
X67380928Y-50070768D02*
X67344642Y-50143340D01*
X67344642Y-50143340D02*
X67308357Y-50179626D01*
X67308357Y-50179626D02*
X67235785Y-50215911D01*
X67235785Y-50215911D02*
X67090642Y-50215911D01*
X67090642Y-50215911D02*
X67018071Y-50179626D01*
X67018071Y-50179626D02*
X66981785Y-50143340D01*
X66981785Y-50143340D02*
X66945499Y-50070768D01*
X66945499Y-50070768D02*
X66945499Y-49453911D01*
X66183499Y-50215911D02*
X66618928Y-50215911D01*
X66401213Y-50215911D02*
X66401213Y-49453911D01*
X66401213Y-49453911D02*
X66473785Y-49562768D01*
X66473785Y-49562768D02*
X66546356Y-49635340D01*
X66546356Y-49635340D02*
X66618928Y-49671626D01*
X65494071Y-49453911D02*
X65856928Y-49453911D01*
X65856928Y-49453911D02*
X65893214Y-49816768D01*
X65893214Y-49816768D02*
X65856928Y-49780483D01*
X65856928Y-49780483D02*
X65784357Y-49744197D01*
X65784357Y-49744197D02*
X65602928Y-49744197D01*
X65602928Y-49744197D02*
X65530357Y-49780483D01*
X65530357Y-49780483D02*
X65494071Y-49816768D01*
X65494071Y-49816768D02*
X65457785Y-49889340D01*
X65457785Y-49889340D02*
X65457785Y-50070768D01*
X65457785Y-50070768D02*
X65494071Y-50143340D01*
X65494071Y-50143340D02*
X65530357Y-50179626D01*
X65530357Y-50179626D02*
X65602928Y-50215911D01*
X65602928Y-50215911D02*
X65784357Y-50215911D01*
X65784357Y-50215911D02*
X65856928Y-50179626D01*
X65856928Y-50179626D02*
X65893214Y-50143340D01*
X51193428Y-49433911D02*
X51193428Y-50050768D01*
X51193428Y-50050768D02*
X51157142Y-50123340D01*
X51157142Y-50123340D02*
X51120857Y-50159626D01*
X51120857Y-50159626D02*
X51048285Y-50195911D01*
X51048285Y-50195911D02*
X50903142Y-50195911D01*
X50903142Y-50195911D02*
X50830571Y-50159626D01*
X50830571Y-50159626D02*
X50794285Y-50123340D01*
X50794285Y-50123340D02*
X50757999Y-50050768D01*
X50757999Y-50050768D02*
X50757999Y-49433911D01*
X49995999Y-50195911D02*
X50431428Y-50195911D01*
X50213713Y-50195911D02*
X50213713Y-49433911D01*
X50213713Y-49433911D02*
X50286285Y-49542768D01*
X50286285Y-49542768D02*
X50358856Y-49615340D01*
X50358856Y-49615340D02*
X50431428Y-49651626D01*
X49633142Y-50195911D02*
X49487999Y-50195911D01*
X49487999Y-50195911D02*
X49415428Y-50159626D01*
X49415428Y-50159626D02*
X49379142Y-50123340D01*
X49379142Y-50123340D02*
X49306571Y-50014483D01*
X49306571Y-50014483D02*
X49270285Y-49869340D01*
X49270285Y-49869340D02*
X49270285Y-49579054D01*
X49270285Y-49579054D02*
X49306571Y-49506483D01*
X49306571Y-49506483D02*
X49342857Y-49470197D01*
X49342857Y-49470197D02*
X49415428Y-49433911D01*
X49415428Y-49433911D02*
X49560571Y-49433911D01*
X49560571Y-49433911D02*
X49633142Y-49470197D01*
X49633142Y-49470197D02*
X49669428Y-49506483D01*
X49669428Y-49506483D02*
X49705714Y-49579054D01*
X49705714Y-49579054D02*
X49705714Y-49760483D01*
X49705714Y-49760483D02*
X49669428Y-49833054D01*
X49669428Y-49833054D02*
X49633142Y-49869340D01*
X49633142Y-49869340D02*
X49560571Y-49905626D01*
X49560571Y-49905626D02*
X49415428Y-49905626D01*
X49415428Y-49905626D02*
X49342857Y-49869340D01*
X49342857Y-49869340D02*
X49306571Y-49833054D01*
X49306571Y-49833054D02*
X49270285Y-49760483D01*
X55105571Y-60478911D02*
X55105571Y-61095768D01*
X55105571Y-61095768D02*
X55069285Y-61168340D01*
X55069285Y-61168340D02*
X55033000Y-61204626D01*
X55033000Y-61204626D02*
X54960428Y-61240911D01*
X54960428Y-61240911D02*
X54815285Y-61240911D01*
X54815285Y-61240911D02*
X54742714Y-61204626D01*
X54742714Y-61204626D02*
X54706428Y-61168340D01*
X54706428Y-61168340D02*
X54670142Y-61095768D01*
X54670142Y-61095768D02*
X54670142Y-60478911D01*
X54379856Y-60478911D02*
X53908142Y-60478911D01*
X53908142Y-60478911D02*
X54162142Y-60769197D01*
X54162142Y-60769197D02*
X54053285Y-60769197D01*
X54053285Y-60769197D02*
X53980714Y-60805483D01*
X53980714Y-60805483D02*
X53944428Y-60841768D01*
X53944428Y-60841768D02*
X53908142Y-60914340D01*
X53908142Y-60914340D02*
X53908142Y-61095768D01*
X53908142Y-61095768D02*
X53944428Y-61168340D01*
X53944428Y-61168340D02*
X53980714Y-61204626D01*
X53980714Y-61204626D02*
X54053285Y-61240911D01*
X54053285Y-61240911D02*
X54270999Y-61240911D01*
X54270999Y-61240911D02*
X54343571Y-61204626D01*
X54343571Y-61204626D02*
X54379856Y-61168340D01*
X63380928Y-49453911D02*
X63380928Y-50070768D01*
X63380928Y-50070768D02*
X63344642Y-50143340D01*
X63344642Y-50143340D02*
X63308357Y-50179626D01*
X63308357Y-50179626D02*
X63235785Y-50215911D01*
X63235785Y-50215911D02*
X63090642Y-50215911D01*
X63090642Y-50215911D02*
X63018071Y-50179626D01*
X63018071Y-50179626D02*
X62981785Y-50143340D01*
X62981785Y-50143340D02*
X62945499Y-50070768D01*
X62945499Y-50070768D02*
X62945499Y-49453911D01*
X62183499Y-50215911D02*
X62618928Y-50215911D01*
X62401213Y-50215911D02*
X62401213Y-49453911D01*
X62401213Y-49453911D02*
X62473785Y-49562768D01*
X62473785Y-49562768D02*
X62546356Y-49635340D01*
X62546356Y-49635340D02*
X62618928Y-49671626D01*
X61530357Y-49453911D02*
X61675499Y-49453911D01*
X61675499Y-49453911D02*
X61748071Y-49490197D01*
X61748071Y-49490197D02*
X61784357Y-49526483D01*
X61784357Y-49526483D02*
X61856928Y-49635340D01*
X61856928Y-49635340D02*
X61893214Y-49780483D01*
X61893214Y-49780483D02*
X61893214Y-50070768D01*
X61893214Y-50070768D02*
X61856928Y-50143340D01*
X61856928Y-50143340D02*
X61820642Y-50179626D01*
X61820642Y-50179626D02*
X61748071Y-50215911D01*
X61748071Y-50215911D02*
X61602928Y-50215911D01*
X61602928Y-50215911D02*
X61530357Y-50179626D01*
X61530357Y-50179626D02*
X61494071Y-50143340D01*
X61494071Y-50143340D02*
X61457785Y-50070768D01*
X61457785Y-50070768D02*
X61457785Y-49889340D01*
X61457785Y-49889340D02*
X61494071Y-49816768D01*
X61494071Y-49816768D02*
X61530357Y-49780483D01*
X61530357Y-49780483D02*
X61602928Y-49744197D01*
X61602928Y-49744197D02*
X61748071Y-49744197D01*
X61748071Y-49744197D02*
X61820642Y-49780483D01*
X61820642Y-49780483D02*
X61856928Y-49816768D01*
X61856928Y-49816768D02*
X61893214Y-49889340D01*
X75630928Y-49433911D02*
X75630928Y-50050768D01*
X75630928Y-50050768D02*
X75594642Y-50123340D01*
X75594642Y-50123340D02*
X75558357Y-50159626D01*
X75558357Y-50159626D02*
X75485785Y-50195911D01*
X75485785Y-50195911D02*
X75340642Y-50195911D01*
X75340642Y-50195911D02*
X75268071Y-50159626D01*
X75268071Y-50159626D02*
X75231785Y-50123340D01*
X75231785Y-50123340D02*
X75195499Y-50050768D01*
X75195499Y-50050768D02*
X75195499Y-49433911D01*
X74433499Y-50195911D02*
X74868928Y-50195911D01*
X74651213Y-50195911D02*
X74651213Y-49433911D01*
X74651213Y-49433911D02*
X74723785Y-49542768D01*
X74723785Y-49542768D02*
X74796356Y-49615340D01*
X74796356Y-49615340D02*
X74868928Y-49651626D01*
X74179499Y-49433911D02*
X73707785Y-49433911D01*
X73707785Y-49433911D02*
X73961785Y-49724197D01*
X73961785Y-49724197D02*
X73852928Y-49724197D01*
X73852928Y-49724197D02*
X73780357Y-49760483D01*
X73780357Y-49760483D02*
X73744071Y-49796768D01*
X73744071Y-49796768D02*
X73707785Y-49869340D01*
X73707785Y-49869340D02*
X73707785Y-50050768D01*
X73707785Y-50050768D02*
X73744071Y-50123340D01*
X73744071Y-50123340D02*
X73780357Y-50159626D01*
X73780357Y-50159626D02*
X73852928Y-50195911D01*
X73852928Y-50195911D02*
X74070642Y-50195911D01*
X74070642Y-50195911D02*
X74143214Y-50159626D01*
X74143214Y-50159626D02*
X74179499Y-50123340D01*
X66080571Y-35008911D02*
X66080571Y-35625768D01*
X66080571Y-35625768D02*
X66044285Y-35698340D01*
X66044285Y-35698340D02*
X66008000Y-35734626D01*
X66008000Y-35734626D02*
X65935428Y-35770911D01*
X65935428Y-35770911D02*
X65790285Y-35770911D01*
X65790285Y-35770911D02*
X65717714Y-35734626D01*
X65717714Y-35734626D02*
X65681428Y-35698340D01*
X65681428Y-35698340D02*
X65645142Y-35625768D01*
X65645142Y-35625768D02*
X65645142Y-35008911D01*
X64883142Y-35770911D02*
X65318571Y-35770911D01*
X65100856Y-35770911D02*
X65100856Y-35008911D01*
X65100856Y-35008911D02*
X65173428Y-35117768D01*
X65173428Y-35117768D02*
X65245999Y-35190340D01*
X65245999Y-35190340D02*
X65318571Y-35226626D01*
X46943428Y-49433911D02*
X46943428Y-50050768D01*
X46943428Y-50050768D02*
X46907142Y-50123340D01*
X46907142Y-50123340D02*
X46870857Y-50159626D01*
X46870857Y-50159626D02*
X46798285Y-50195911D01*
X46798285Y-50195911D02*
X46653142Y-50195911D01*
X46653142Y-50195911D02*
X46580571Y-50159626D01*
X46580571Y-50159626D02*
X46544285Y-50123340D01*
X46544285Y-50123340D02*
X46507999Y-50050768D01*
X46507999Y-50050768D02*
X46507999Y-49433911D01*
X46181428Y-49506483D02*
X46145142Y-49470197D01*
X46145142Y-49470197D02*
X46072571Y-49433911D01*
X46072571Y-49433911D02*
X45891142Y-49433911D01*
X45891142Y-49433911D02*
X45818571Y-49470197D01*
X45818571Y-49470197D02*
X45782285Y-49506483D01*
X45782285Y-49506483D02*
X45745999Y-49579054D01*
X45745999Y-49579054D02*
X45745999Y-49651626D01*
X45745999Y-49651626D02*
X45782285Y-49760483D01*
X45782285Y-49760483D02*
X46217713Y-50195911D01*
X46217713Y-50195911D02*
X45745999Y-50195911D01*
X45274285Y-49433911D02*
X45201714Y-49433911D01*
X45201714Y-49433911D02*
X45129142Y-49470197D01*
X45129142Y-49470197D02*
X45092857Y-49506483D01*
X45092857Y-49506483D02*
X45056571Y-49579054D01*
X45056571Y-49579054D02*
X45020285Y-49724197D01*
X45020285Y-49724197D02*
X45020285Y-49905626D01*
X45020285Y-49905626D02*
X45056571Y-50050768D01*
X45056571Y-50050768D02*
X45092857Y-50123340D01*
X45092857Y-50123340D02*
X45129142Y-50159626D01*
X45129142Y-50159626D02*
X45201714Y-50195911D01*
X45201714Y-50195911D02*
X45274285Y-50195911D01*
X45274285Y-50195911D02*
X45346857Y-50159626D01*
X45346857Y-50159626D02*
X45383142Y-50123340D01*
X45383142Y-50123340D02*
X45419428Y-50050768D01*
X45419428Y-50050768D02*
X45455714Y-49905626D01*
X45455714Y-49905626D02*
X45455714Y-49724197D01*
X45455714Y-49724197D02*
X45419428Y-49579054D01*
X45419428Y-49579054D02*
X45383142Y-49506483D01*
X45383142Y-49506483D02*
X45346857Y-49470197D01*
X45346857Y-49470197D02*
X45274285Y-49433911D01*
X55255928Y-49453911D02*
X55255928Y-50070768D01*
X55255928Y-50070768D02*
X55219642Y-50143340D01*
X55219642Y-50143340D02*
X55183357Y-50179626D01*
X55183357Y-50179626D02*
X55110785Y-50215911D01*
X55110785Y-50215911D02*
X54965642Y-50215911D01*
X54965642Y-50215911D02*
X54893071Y-50179626D01*
X54893071Y-50179626D02*
X54856785Y-50143340D01*
X54856785Y-50143340D02*
X54820499Y-50070768D01*
X54820499Y-50070768D02*
X54820499Y-49453911D01*
X54058499Y-50215911D02*
X54493928Y-50215911D01*
X54276213Y-50215911D02*
X54276213Y-49453911D01*
X54276213Y-49453911D02*
X54348785Y-49562768D01*
X54348785Y-49562768D02*
X54421356Y-49635340D01*
X54421356Y-49635340D02*
X54493928Y-49671626D01*
X53623071Y-49780483D02*
X53695642Y-49744197D01*
X53695642Y-49744197D02*
X53731928Y-49707911D01*
X53731928Y-49707911D02*
X53768214Y-49635340D01*
X53768214Y-49635340D02*
X53768214Y-49599054D01*
X53768214Y-49599054D02*
X53731928Y-49526483D01*
X53731928Y-49526483D02*
X53695642Y-49490197D01*
X53695642Y-49490197D02*
X53623071Y-49453911D01*
X53623071Y-49453911D02*
X53477928Y-49453911D01*
X53477928Y-49453911D02*
X53405357Y-49490197D01*
X53405357Y-49490197D02*
X53369071Y-49526483D01*
X53369071Y-49526483D02*
X53332785Y-49599054D01*
X53332785Y-49599054D02*
X53332785Y-49635340D01*
X53332785Y-49635340D02*
X53369071Y-49707911D01*
X53369071Y-49707911D02*
X53405357Y-49744197D01*
X53405357Y-49744197D02*
X53477928Y-49780483D01*
X53477928Y-49780483D02*
X53623071Y-49780483D01*
X53623071Y-49780483D02*
X53695642Y-49816768D01*
X53695642Y-49816768D02*
X53731928Y-49853054D01*
X53731928Y-49853054D02*
X53768214Y-49925626D01*
X53768214Y-49925626D02*
X53768214Y-50070768D01*
X53768214Y-50070768D02*
X53731928Y-50143340D01*
X53731928Y-50143340D02*
X53695642Y-50179626D01*
X53695642Y-50179626D02*
X53623071Y-50215911D01*
X53623071Y-50215911D02*
X53477928Y-50215911D01*
X53477928Y-50215911D02*
X53405357Y-50179626D01*
X53405357Y-50179626D02*
X53369071Y-50143340D01*
X53369071Y-50143340D02*
X53332785Y-50070768D01*
X53332785Y-50070768D02*
X53332785Y-49925626D01*
X53332785Y-49925626D02*
X53369071Y-49853054D01*
X53369071Y-49853054D02*
X53405357Y-49816768D01*
X53405357Y-49816768D02*
X53477928Y-49780483D01*
X57580571Y-35008911D02*
X57580571Y-35625768D01*
X57580571Y-35625768D02*
X57544285Y-35698340D01*
X57544285Y-35698340D02*
X57508000Y-35734626D01*
X57508000Y-35734626D02*
X57435428Y-35770911D01*
X57435428Y-35770911D02*
X57290285Y-35770911D01*
X57290285Y-35770911D02*
X57217714Y-35734626D01*
X57217714Y-35734626D02*
X57181428Y-35698340D01*
X57181428Y-35698340D02*
X57145142Y-35625768D01*
X57145142Y-35625768D02*
X57145142Y-35008911D01*
X56455714Y-35262911D02*
X56455714Y-35770911D01*
X56637142Y-34972626D02*
X56818571Y-35516911D01*
X56818571Y-35516911D02*
X56346856Y-35516911D01*
X71380928Y-49453911D02*
X71380928Y-50070768D01*
X71380928Y-50070768D02*
X71344642Y-50143340D01*
X71344642Y-50143340D02*
X71308357Y-50179626D01*
X71308357Y-50179626D02*
X71235785Y-50215911D01*
X71235785Y-50215911D02*
X71090642Y-50215911D01*
X71090642Y-50215911D02*
X71018071Y-50179626D01*
X71018071Y-50179626D02*
X70981785Y-50143340D01*
X70981785Y-50143340D02*
X70945499Y-50070768D01*
X70945499Y-50070768D02*
X70945499Y-49453911D01*
X70183499Y-50215911D02*
X70618928Y-50215911D01*
X70401213Y-50215911D02*
X70401213Y-49453911D01*
X70401213Y-49453911D02*
X70473785Y-49562768D01*
X70473785Y-49562768D02*
X70546356Y-49635340D01*
X70546356Y-49635340D02*
X70618928Y-49671626D01*
X69530357Y-49707911D02*
X69530357Y-50215911D01*
X69711785Y-49417626D02*
X69893214Y-49961911D01*
X69893214Y-49961911D02*
X69421499Y-49961911D01*
X59380928Y-49453911D02*
X59380928Y-50070768D01*
X59380928Y-50070768D02*
X59344642Y-50143340D01*
X59344642Y-50143340D02*
X59308357Y-50179626D01*
X59308357Y-50179626D02*
X59235785Y-50215911D01*
X59235785Y-50215911D02*
X59090642Y-50215911D01*
X59090642Y-50215911D02*
X59018071Y-50179626D01*
X59018071Y-50179626D02*
X58981785Y-50143340D01*
X58981785Y-50143340D02*
X58945499Y-50070768D01*
X58945499Y-50070768D02*
X58945499Y-49453911D01*
X58183499Y-50215911D02*
X58618928Y-50215911D01*
X58401213Y-50215911D02*
X58401213Y-49453911D01*
X58401213Y-49453911D02*
X58473785Y-49562768D01*
X58473785Y-49562768D02*
X58546356Y-49635340D01*
X58546356Y-49635340D02*
X58618928Y-49671626D01*
X57929499Y-49453911D02*
X57421499Y-49453911D01*
X57421499Y-49453911D02*
X57748071Y-50215911D01*
D12*
%TO.C,U2*%
X63675000Y-66905000D02*
X65625000Y-66905000D01*
X63675000Y-66905000D02*
X61725000Y-66905000D01*
X63675000Y-61785000D02*
X67125000Y-61785000D01*
X63675000Y-61785000D02*
X61725000Y-61785000D01*
%TO.C,U15*%
X66437500Y-53830000D02*
X67087500Y-53830000D01*
X66437500Y-53830000D02*
X65787500Y-53830000D01*
X66437500Y-50710000D02*
X68112500Y-50710000D01*
X66437500Y-50710000D02*
X65787500Y-50710000D01*
%TO.C,U19*%
X50250000Y-53810000D02*
X50900000Y-53810000D01*
X50250000Y-53810000D02*
X49600000Y-53810000D01*
X50250000Y-50690000D02*
X51925000Y-50690000D01*
X50250000Y-50690000D02*
X49600000Y-50690000D01*
%TO.C,U3*%
X54525000Y-66855000D02*
X56475000Y-66855000D01*
X54525000Y-66855000D02*
X52575000Y-66855000D01*
X54525000Y-61735000D02*
X57975000Y-61735000D01*
X54525000Y-61735000D02*
X52575000Y-61735000D01*
%TO.C,U16*%
X62437500Y-53830000D02*
X63087500Y-53830000D01*
X62437500Y-53830000D02*
X61787500Y-53830000D01*
X62437500Y-50710000D02*
X64112500Y-50710000D01*
X62437500Y-50710000D02*
X61787500Y-50710000D01*
%TO.C,U13*%
X74687500Y-53810000D02*
X75337500Y-53810000D01*
X74687500Y-53810000D02*
X74037500Y-53810000D01*
X74687500Y-50690000D02*
X76362500Y-50690000D01*
X74687500Y-50690000D02*
X74037500Y-50690000D01*
%TO.C,U1*%
X65500000Y-41385000D02*
X67450000Y-41385000D01*
X65500000Y-41385000D02*
X63550000Y-41385000D01*
X65500000Y-36265000D02*
X68950000Y-36265000D01*
X65500000Y-36265000D02*
X63550000Y-36265000D01*
%TO.C,U20*%
X46000000Y-53810000D02*
X46650000Y-53810000D01*
X46000000Y-53810000D02*
X45350000Y-53810000D01*
X46000000Y-50690000D02*
X47675000Y-50690000D01*
X46000000Y-50690000D02*
X45350000Y-50690000D01*
%TO.C,U18*%
X54312500Y-53830000D02*
X54962500Y-53830000D01*
X54312500Y-53830000D02*
X53662500Y-53830000D01*
X54312500Y-50710000D02*
X55987500Y-50710000D01*
X54312500Y-50710000D02*
X53662500Y-50710000D01*
%TO.C,U4*%
X57000000Y-41385000D02*
X58950000Y-41385000D01*
X57000000Y-41385000D02*
X55050000Y-41385000D01*
X57000000Y-36265000D02*
X60450000Y-36265000D01*
X57000000Y-36265000D02*
X55050000Y-36265000D01*
%TO.C,U14*%
X70437500Y-53830000D02*
X71087500Y-53830000D01*
X70437500Y-53830000D02*
X69787500Y-53830000D01*
X70437500Y-50710000D02*
X72112500Y-50710000D01*
X70437500Y-50710000D02*
X69787500Y-50710000D01*
%TO.C,U17*%
X58437500Y-53830000D02*
X59087500Y-53830000D01*
X58437500Y-53830000D02*
X57787500Y-53830000D01*
X58437500Y-50710000D02*
X60112500Y-50710000D01*
X58437500Y-50710000D02*
X57787500Y-50710000D01*
%TD*%
M02*
