%TF.GenerationSoftware,KiCad,Pcbnew,7.0.10-7.0.10~ubuntu22.04.1*%
%TF.CreationDate,2024-01-03T10:10:25-05:00*%
%TF.ProjectId,readout-splitter,72656164-6f75-4742-9d73-706c69747465,rev?*%
%TF.SameCoordinates,Original*%
%TF.FileFunction,Soldermask,Top*%
%TF.FilePolarity,Negative*%
%FSLAX46Y46*%
G04 Gerber Fmt 4.6, Leading zero omitted, Abs format (unit mm)*
G04 Created by KiCad (PCBNEW 7.0.10-7.0.10~ubuntu22.04.1) date 2024-01-03 10:10:25*
%MOMM*%
%LPD*%
G01*
G04 APERTURE LIST*
G04 Aperture macros list*
%AMRoundRect*
0 Rectangle with rounded corners*
0 $1 Rounding radius*
0 $2 $3 $4 $5 $6 $7 $8 $9 X,Y pos of 4 corners*
0 Add a 4 corners polygon primitive as box body*
4,1,4,$2,$3,$4,$5,$6,$7,$8,$9,$2,$3,0*
0 Add four circle primitives for the rounded corners*
1,1,$1+$1,$2,$3*
1,1,$1+$1,$4,$5*
1,1,$1+$1,$6,$7*
1,1,$1+$1,$8,$9*
0 Add four rect primitives between the rounded corners*
20,1,$1+$1,$2,$3,$4,$5,0*
20,1,$1+$1,$4,$5,$6,$7,0*
20,1,$1+$1,$6,$7,$8,$9,0*
20,1,$1+$1,$8,$9,$2,$3,0*%
G04 Aperture macros list end*
%ADD10R,0.736600X2.794000*%
%ADD11RoundRect,0.225000X0.225000X0.250000X-0.225000X0.250000X-0.225000X-0.250000X0.225000X-0.250000X0*%
%ADD12RoundRect,0.200000X-0.200000X-0.275000X0.200000X-0.275000X0.200000X0.275000X-0.200000X0.275000X0*%
%ADD13R,1.000000X1.000000*%
%ADD14R,0.740000X2.220000*%
G04 APERTURE END LIST*
D10*
%TO.C,J4*%
X45582000Y-33124000D03*
X45582000Y-37188000D03*
X44312000Y-33124000D03*
X44312000Y-37188000D03*
X43042000Y-33124000D03*
X43042000Y-37188000D03*
X41772000Y-33124000D03*
X41772000Y-37188000D03*
X40502000Y-33124000D03*
X40502000Y-37188000D03*
X39232000Y-33124000D03*
X39232000Y-37188000D03*
X37962000Y-33124000D03*
X37962000Y-37188000D03*
X36692000Y-33124000D03*
X36692000Y-37188000D03*
X35422000Y-33124000D03*
X35422000Y-37188000D03*
X34152000Y-33124000D03*
X34152000Y-37188000D03*
X32882000Y-33124000D03*
X32882000Y-37188000D03*
X31612000Y-33124000D03*
X31612000Y-37188000D03*
X30342000Y-33124000D03*
X30342000Y-37188000D03*
X29072000Y-33124000D03*
X29072000Y-37188000D03*
X27802000Y-33124000D03*
X27802000Y-37188000D03*
X26532000Y-33124000D03*
X26532000Y-37188000D03*
X25262000Y-33124000D03*
X25262000Y-37188000D03*
%TD*%
D11*
%TO.C,C33*%
X50215000Y-41694000D03*
X48665000Y-41694000D03*
%TD*%
%TO.C,C35*%
X42595000Y-41694000D03*
X41045000Y-41694000D03*
%TD*%
%TO.C,C40*%
X23545000Y-41694000D03*
X21995000Y-41694000D03*
%TD*%
%TO.C,C38*%
X31165000Y-41694000D03*
X29615000Y-41694000D03*
%TD*%
D12*
%TO.C,R20*%
X37185000Y-39916000D03*
X38835000Y-39916000D03*
%TD*%
%TO.C,R21*%
X33502000Y-39916000D03*
X35152000Y-39916000D03*
%TD*%
D13*
%TO.C,J3*%
X35597000Y-52997000D03*
%TD*%
D12*
%TO.C,R19*%
X40995000Y-39916000D03*
X42645000Y-39916000D03*
%TD*%
D13*
%TO.C,J1*%
X29247000Y-52997000D03*
%TD*%
D12*
%TO.C,R17*%
X48615000Y-39916000D03*
X50265000Y-39916000D03*
%TD*%
%TO.C,R18*%
X44805000Y-39916000D03*
X46455000Y-39916000D03*
%TD*%
%TO.C,R23*%
X25755000Y-39916000D03*
X27405000Y-39916000D03*
%TD*%
D11*
%TO.C,C36*%
X38785000Y-41694000D03*
X37235000Y-41694000D03*
%TD*%
D12*
%TO.C,R22*%
X29565000Y-39916000D03*
X31215000Y-39916000D03*
%TD*%
D11*
%TO.C,C37*%
X35102000Y-41694000D03*
X33552000Y-41694000D03*
%TD*%
%TO.C,C34*%
X46418000Y-41694000D03*
X44868000Y-41694000D03*
%TD*%
D13*
%TO.C,J2*%
X32422000Y-52997000D03*
%TD*%
D11*
%TO.C,C39*%
X27355000Y-41694000D03*
X25805000Y-41694000D03*
%TD*%
D14*
%TO.C,J5*%
X46217000Y-46826800D03*
X46217000Y-44096800D03*
X44947000Y-46826800D03*
X44947000Y-44096800D03*
X43677000Y-46826800D03*
X43677000Y-44096800D03*
X42407000Y-46826800D03*
X42407000Y-44096800D03*
X41137000Y-46826800D03*
X41137000Y-44096800D03*
X39867000Y-46826800D03*
X39867000Y-44096800D03*
X38597000Y-46826800D03*
X38597000Y-44096800D03*
X37327000Y-46826800D03*
X37327000Y-44096800D03*
X36057000Y-46826800D03*
X36057000Y-44096800D03*
X34787000Y-46826800D03*
X34787000Y-44096800D03*
X33517000Y-46826800D03*
X33517000Y-44096800D03*
X32247000Y-46826800D03*
X32247000Y-44096800D03*
X30977000Y-46826800D03*
X30977000Y-44096800D03*
X29707000Y-46826800D03*
X29707000Y-44096800D03*
X28437000Y-46826800D03*
X28437000Y-44096800D03*
X27167000Y-46826800D03*
X27167000Y-44096800D03*
X25897000Y-46826800D03*
X25897000Y-44096800D03*
X24627000Y-46826800D03*
X24627000Y-44096800D03*
%TD*%
D12*
%TO.C,R24*%
X21945000Y-39916000D03*
X23595000Y-39916000D03*
%TD*%
M02*
