G75*
%MOIN*%
%OFA0B0*%
%FSLAX25Y25*%
%IPPOS*%
%LPD*%
%AMOC8*
5,1,8,0,0,1.08239X$1,22.5*
%
%ADD10C,0.06496*%
%ADD11C,0.07087*%
%ADD12C,0.05315*%
%ADD13C,0.04134*%
%ADD14C,0.00500*%
%ADD15C,0.01800*%
D10*
X0152000Y0029050D03*
D11*
X0167220Y0018050D03*
X0194780Y0018050D03*
D12*
X0190843Y0028680D03*
X0171157Y0028680D03*
D13*
X0099000Y0102050D03*
X0094000Y0102050D03*
X0089000Y0102050D03*
X0084000Y0102050D03*
D14*
X0005750Y0006775D02*
X0008725Y0003800D01*
X0151275Y0003800D01*
X0160250Y0012775D01*
X0161275Y0013800D01*
X0165003Y0013800D01*
X0164708Y0013950D01*
X0164098Y0014394D01*
X0163564Y0014927D01*
X0163121Y0015538D01*
X0162778Y0016210D01*
X0162545Y0016928D01*
X0162427Y0017673D01*
X0162427Y0017800D01*
X0166970Y0017800D01*
X0166970Y0018300D01*
X0162427Y0018300D01*
X0162427Y0018427D01*
X0162545Y0019172D01*
X0162778Y0019890D01*
X0163121Y0020562D01*
X0163564Y0021173D01*
X0164098Y0021706D01*
X0164708Y0022150D01*
X0165380Y0022492D01*
X0166098Y0022725D01*
X0166843Y0022843D01*
X0166970Y0022843D01*
X0166970Y0018300D01*
X0167470Y0018300D01*
X0167470Y0022843D01*
X0167598Y0022843D01*
X0168343Y0022725D01*
X0169060Y0022492D01*
X0169733Y0022150D01*
X0170343Y0021706D01*
X0170877Y0021173D01*
X0171320Y0020562D01*
X0171663Y0019890D01*
X0171896Y0019172D01*
X0172014Y0018427D01*
X0172014Y0018300D01*
X0167471Y0018300D01*
X0167471Y0017800D01*
X0172014Y0017800D01*
X0172014Y0017673D01*
X0171896Y0016928D01*
X0171663Y0016210D01*
X0171320Y0015538D01*
X0170877Y0014927D01*
X0170343Y0014394D01*
X0169733Y0013950D01*
X0169438Y0013800D01*
X0192562Y0013800D01*
X0192267Y0013950D01*
X0191657Y0014394D01*
X0191123Y0014927D01*
X0190680Y0015538D01*
X0190337Y0016210D01*
X0190104Y0016928D01*
X0189986Y0017673D01*
X0189986Y0017800D01*
X0194529Y0017800D01*
X0194529Y0018300D01*
X0189986Y0018300D01*
X0189986Y0018427D01*
X0190104Y0019172D01*
X0190337Y0019890D01*
X0190680Y0020562D01*
X0191123Y0021173D01*
X0191657Y0021706D01*
X0192267Y0022150D01*
X0192940Y0022492D01*
X0193657Y0022725D01*
X0194402Y0022843D01*
X0194530Y0022843D01*
X0194530Y0018300D01*
X0195030Y0018300D01*
X0199573Y0018300D01*
X0199573Y0018427D01*
X0199455Y0019172D01*
X0199222Y0019890D01*
X0198879Y0020562D01*
X0198436Y0021173D01*
X0197902Y0021706D01*
X0197292Y0022150D01*
X0196620Y0022492D01*
X0195902Y0022725D01*
X0195157Y0022843D01*
X0195030Y0022843D01*
X0195030Y0018300D01*
X0195030Y0017800D01*
X0199573Y0017800D01*
X0199573Y0017673D01*
X0199455Y0016928D01*
X0199222Y0016210D01*
X0198879Y0015538D01*
X0198436Y0014927D01*
X0197902Y0014394D01*
X0197292Y0013950D01*
X0196997Y0013800D01*
X0200725Y0013800D01*
X0201750Y0012775D01*
X0210725Y0003800D01*
X0249275Y0003800D01*
X0252250Y0006775D01*
X0252250Y0127325D01*
X0249275Y0130300D01*
X0008725Y0130300D01*
X0005750Y0127325D01*
X0005750Y0006775D01*
X0005750Y0007035D02*
X0154510Y0007035D01*
X0154012Y0006537D02*
X0005988Y0006537D01*
X0006487Y0006038D02*
X0153513Y0006038D01*
X0153015Y0005540D02*
X0006985Y0005540D01*
X0007484Y0005041D02*
X0152516Y0005041D01*
X0152018Y0004543D02*
X0007982Y0004543D01*
X0008481Y0004044D02*
X0151519Y0004044D01*
X0155009Y0007534D02*
X0005750Y0007534D01*
X0005750Y0008032D02*
X0155507Y0008032D01*
X0156006Y0008531D02*
X0005750Y0008531D01*
X0005750Y0009029D02*
X0156504Y0009029D01*
X0157003Y0009528D02*
X0005750Y0009528D01*
X0005750Y0010026D02*
X0157501Y0010026D01*
X0158000Y0010525D02*
X0140732Y0010525D01*
X0140308Y0010100D02*
X0141450Y0011242D01*
X0141450Y0012858D01*
X0140308Y0014000D01*
X0138692Y0014000D01*
X0137550Y0012858D01*
X0137550Y0011242D01*
X0138692Y0010100D01*
X0140308Y0010100D01*
X0141231Y0011023D02*
X0158498Y0011023D01*
X0158997Y0011522D02*
X0141450Y0011522D01*
X0141450Y0012020D02*
X0159495Y0012020D01*
X0159994Y0012519D02*
X0141450Y0012519D01*
X0141290Y0013017D02*
X0160492Y0013017D01*
X0160991Y0013516D02*
X0140792Y0013516D01*
X0138208Y0013516D02*
X0005750Y0013516D01*
X0005750Y0014014D02*
X0146778Y0014014D01*
X0147192Y0013600D02*
X0148808Y0013600D01*
X0149950Y0014742D01*
X0149950Y0016358D01*
X0148808Y0017500D01*
X0147192Y0017500D01*
X0146050Y0016358D01*
X0146050Y0014742D01*
X0147192Y0013600D01*
X0146279Y0014513D02*
X0005750Y0014513D01*
X0005750Y0015011D02*
X0146050Y0015011D01*
X0146050Y0015510D02*
X0005750Y0015510D01*
X0005750Y0016008D02*
X0146050Y0016008D01*
X0146199Y0016507D02*
X0005750Y0016507D01*
X0005750Y0017005D02*
X0138287Y0017005D01*
X0138692Y0016600D02*
X0140308Y0016600D01*
X0141450Y0017742D01*
X0141450Y0019358D01*
X0140308Y0020500D01*
X0138692Y0020500D01*
X0137550Y0019358D01*
X0137550Y0017742D01*
X0138692Y0016600D01*
X0137788Y0017504D02*
X0005750Y0017504D01*
X0005750Y0018002D02*
X0137550Y0018002D01*
X0137550Y0018501D02*
X0005750Y0018501D01*
X0005750Y0018999D02*
X0137550Y0018999D01*
X0137690Y0019498D02*
X0005750Y0019498D01*
X0005750Y0019996D02*
X0138189Y0019996D01*
X0138687Y0020495D02*
X0005750Y0020495D01*
X0005750Y0020993D02*
X0163434Y0020993D01*
X0163087Y0020495D02*
X0140313Y0020495D01*
X0140811Y0019996D02*
X0162833Y0019996D01*
X0162651Y0019498D02*
X0141310Y0019498D01*
X0141450Y0018999D02*
X0162518Y0018999D01*
X0162439Y0018501D02*
X0141450Y0018501D01*
X0141450Y0018002D02*
X0166970Y0018002D01*
X0166970Y0018501D02*
X0167470Y0018501D01*
X0167470Y0018999D02*
X0166970Y0018999D01*
X0166970Y0019498D02*
X0167470Y0019498D01*
X0167470Y0019996D02*
X0166970Y0019996D01*
X0166970Y0020495D02*
X0167470Y0020495D01*
X0167470Y0020993D02*
X0166970Y0020993D01*
X0166970Y0021492D02*
X0167470Y0021492D01*
X0167470Y0021990D02*
X0166970Y0021990D01*
X0166970Y0022489D02*
X0167470Y0022489D01*
X0169067Y0022489D02*
X0192933Y0022489D01*
X0192048Y0021990D02*
X0169952Y0021990D01*
X0170557Y0021492D02*
X0191443Y0021492D01*
X0190993Y0020993D02*
X0171007Y0020993D01*
X0171354Y0020495D02*
X0190646Y0020495D01*
X0190392Y0019996D02*
X0171608Y0019996D01*
X0171790Y0019498D02*
X0190210Y0019498D01*
X0190077Y0018999D02*
X0171923Y0018999D01*
X0172002Y0018501D02*
X0189998Y0018501D01*
X0190013Y0017504D02*
X0171987Y0017504D01*
X0171908Y0017005D02*
X0190092Y0017005D01*
X0190241Y0016507D02*
X0171759Y0016507D01*
X0171560Y0016008D02*
X0190440Y0016008D01*
X0190700Y0015510D02*
X0171300Y0015510D01*
X0170938Y0015011D02*
X0191062Y0015011D01*
X0191538Y0014513D02*
X0170462Y0014513D01*
X0169821Y0014014D02*
X0192179Y0014014D01*
X0197380Y0014014D02*
X0233236Y0014014D01*
X0232846Y0013625D02*
X0232100Y0011824D01*
X0232100Y0009875D01*
X0232846Y0008074D01*
X0234225Y0006696D01*
X0236025Y0005950D01*
X0237975Y0005950D01*
X0239775Y0006696D01*
X0241154Y0008074D01*
X0241900Y0009875D01*
X0241900Y0011824D01*
X0241154Y0013625D01*
X0239775Y0015003D01*
X0237975Y0015749D01*
X0236025Y0015749D01*
X0234225Y0015003D01*
X0232846Y0013625D01*
X0232801Y0013516D02*
X0201009Y0013516D01*
X0201508Y0013017D02*
X0232595Y0013017D01*
X0232388Y0012519D02*
X0202006Y0012519D01*
X0202505Y0012020D02*
X0232182Y0012020D01*
X0232100Y0011522D02*
X0203003Y0011522D01*
X0203502Y0011023D02*
X0232100Y0011023D01*
X0232100Y0010525D02*
X0204000Y0010525D01*
X0204499Y0010026D02*
X0232100Y0010026D01*
X0232244Y0009528D02*
X0204997Y0009528D01*
X0205496Y0009029D02*
X0232451Y0009029D01*
X0232657Y0008531D02*
X0205994Y0008531D01*
X0206493Y0008032D02*
X0232888Y0008032D01*
X0233386Y0007534D02*
X0206991Y0007534D01*
X0207490Y0007035D02*
X0233885Y0007035D01*
X0234608Y0006537D02*
X0207988Y0006537D01*
X0208487Y0006038D02*
X0235812Y0006038D01*
X0238188Y0006038D02*
X0251513Y0006038D01*
X0251015Y0005540D02*
X0208985Y0005540D01*
X0209484Y0005041D02*
X0250516Y0005041D01*
X0250018Y0004543D02*
X0209982Y0004543D01*
X0210481Y0004044D02*
X0249519Y0004044D01*
X0252012Y0006537D02*
X0239392Y0006537D01*
X0240115Y0007035D02*
X0252250Y0007035D01*
X0252250Y0007534D02*
X0240613Y0007534D01*
X0241112Y0008032D02*
X0252250Y0008032D01*
X0252250Y0008531D02*
X0241343Y0008531D01*
X0241549Y0009029D02*
X0252250Y0009029D01*
X0252250Y0009528D02*
X0241756Y0009528D01*
X0241900Y0010026D02*
X0252250Y0010026D01*
X0252250Y0010525D02*
X0241900Y0010525D01*
X0241900Y0011023D02*
X0252250Y0011023D01*
X0252250Y0011522D02*
X0241900Y0011522D01*
X0241818Y0012020D02*
X0252250Y0012020D01*
X0252250Y0012519D02*
X0241612Y0012519D01*
X0241405Y0013017D02*
X0252250Y0013017D01*
X0252250Y0013516D02*
X0241199Y0013516D01*
X0240764Y0014014D02*
X0252250Y0014014D01*
X0252250Y0014513D02*
X0240266Y0014513D01*
X0239755Y0015011D02*
X0252250Y0015011D01*
X0252250Y0015510D02*
X0238552Y0015510D01*
X0235448Y0015510D02*
X0198859Y0015510D01*
X0199119Y0016008D02*
X0252250Y0016008D01*
X0252250Y0016507D02*
X0199318Y0016507D01*
X0199467Y0017005D02*
X0252250Y0017005D01*
X0252250Y0017504D02*
X0199546Y0017504D01*
X0199561Y0018501D02*
X0219291Y0018501D01*
X0219050Y0018742D02*
X0220192Y0017600D01*
X0221808Y0017600D01*
X0222950Y0018742D01*
X0222950Y0020358D01*
X0221808Y0021500D01*
X0220192Y0021500D01*
X0219050Y0020358D01*
X0219050Y0018742D01*
X0219050Y0018999D02*
X0199482Y0018999D01*
X0199349Y0019498D02*
X0219050Y0019498D01*
X0219050Y0019996D02*
X0199167Y0019996D01*
X0198913Y0020495D02*
X0219187Y0020495D01*
X0219686Y0020993D02*
X0198566Y0020993D01*
X0198116Y0021492D02*
X0220184Y0021492D01*
X0221816Y0021492D02*
X0252250Y0021492D01*
X0252250Y0021990D02*
X0197511Y0021990D01*
X0196626Y0022489D02*
X0252250Y0022489D01*
X0252250Y0022987D02*
X0233695Y0022987D01*
X0233308Y0022600D02*
X0234450Y0023742D01*
X0234450Y0025358D01*
X0233308Y0026500D01*
X0231692Y0026500D01*
X0230550Y0025358D01*
X0230550Y0023742D01*
X0231692Y0022600D01*
X0233308Y0022600D01*
X0234194Y0023486D02*
X0252250Y0023486D01*
X0252250Y0023984D02*
X0234450Y0023984D01*
X0234450Y0024483D02*
X0252250Y0024483D01*
X0252250Y0024982D02*
X0234450Y0024982D01*
X0234328Y0025480D02*
X0252250Y0025480D01*
X0252250Y0025979D02*
X0233829Y0025979D01*
X0233331Y0026477D02*
X0252250Y0026477D01*
X0252250Y0026976D02*
X0194366Y0026976D01*
X0194305Y0026829D02*
X0194600Y0027540D01*
X0194750Y0028295D01*
X0194750Y0028430D01*
X0191093Y0028430D01*
X0191093Y0028930D01*
X0194750Y0028930D01*
X0194750Y0029065D01*
X0194600Y0029820D01*
X0194305Y0030531D01*
X0193878Y0031171D01*
X0193333Y0031715D01*
X0192693Y0032143D01*
X0191982Y0032437D01*
X0191227Y0032587D01*
X0191092Y0032587D01*
X0191092Y0028930D01*
X0190593Y0028930D01*
X0190593Y0032587D01*
X0190458Y0032587D01*
X0189703Y0032437D01*
X0188992Y0032143D01*
X0188352Y0031715D01*
X0187807Y0031171D01*
X0187380Y0030531D01*
X0187085Y0029820D01*
X0186935Y0029065D01*
X0186935Y0028930D01*
X0190592Y0028930D01*
X0190592Y0028430D01*
X0186935Y0028430D01*
X0186935Y0028295D01*
X0187085Y0027540D01*
X0187380Y0026829D01*
X0187807Y0026189D01*
X0188352Y0025645D01*
X0188992Y0025217D01*
X0189703Y0024923D01*
X0190458Y0024772D01*
X0190593Y0024772D01*
X0190593Y0028430D01*
X0191092Y0028430D01*
X0191092Y0024772D01*
X0191227Y0024772D01*
X0191982Y0024923D01*
X0192693Y0025217D01*
X0193333Y0025645D01*
X0193878Y0026189D01*
X0194305Y0026829D01*
X0194070Y0026477D02*
X0231669Y0026477D01*
X0231171Y0025979D02*
X0193667Y0025979D01*
X0193087Y0025480D02*
X0230672Y0025480D01*
X0230550Y0024982D02*
X0192125Y0024982D01*
X0191092Y0024982D02*
X0190593Y0024982D01*
X0190593Y0025480D02*
X0191092Y0025480D01*
X0191092Y0025979D02*
X0190593Y0025979D01*
X0190593Y0026477D02*
X0191092Y0026477D01*
X0191092Y0026976D02*
X0190593Y0026976D01*
X0190593Y0027474D02*
X0191092Y0027474D01*
X0191092Y0027973D02*
X0190593Y0027973D01*
X0190592Y0028471D02*
X0171408Y0028471D01*
X0171408Y0028430D02*
X0171408Y0028930D01*
X0175065Y0028930D01*
X0175065Y0029065D01*
X0174915Y0029820D01*
X0174620Y0030531D01*
X0174193Y0031171D01*
X0173648Y0031715D01*
X0173008Y0032143D01*
X0172297Y0032437D01*
X0171542Y0032587D01*
X0171407Y0032587D01*
X0171407Y0028930D01*
X0170907Y0028930D01*
X0170907Y0028430D01*
X0167250Y0028430D01*
X0167250Y0028295D01*
X0167400Y0027540D01*
X0167695Y0026829D01*
X0168122Y0026189D01*
X0168667Y0025645D01*
X0169307Y0025217D01*
X0170018Y0024923D01*
X0170773Y0024772D01*
X0170907Y0024772D01*
X0170907Y0028430D01*
X0171407Y0028430D01*
X0171407Y0024772D01*
X0171542Y0024772D01*
X0172297Y0024923D01*
X0173008Y0025217D01*
X0173648Y0025645D01*
X0174193Y0026189D01*
X0174620Y0026829D01*
X0174915Y0027540D01*
X0175065Y0028295D01*
X0175065Y0028430D01*
X0171408Y0028430D01*
X0171407Y0027973D02*
X0170907Y0027973D01*
X0170907Y0028471D02*
X0156462Y0028471D01*
X0156498Y0028696D02*
X0156498Y0028800D01*
X0152250Y0028800D01*
X0152250Y0029300D01*
X0151750Y0029300D01*
X0151750Y0033548D01*
X0151646Y0033548D01*
X0150947Y0033437D01*
X0150273Y0033218D01*
X0149643Y0032897D01*
X0149070Y0032481D01*
X0148569Y0031980D01*
X0148153Y0031407D01*
X0147832Y0030777D01*
X0147613Y0030103D01*
X0147502Y0029404D01*
X0147502Y0029300D01*
X0151750Y0029300D01*
X0151750Y0028800D01*
X0147502Y0028800D01*
X0147502Y0028696D01*
X0147613Y0027997D01*
X0147832Y0027323D01*
X0148153Y0026693D01*
X0148569Y0026120D01*
X0149070Y0025619D01*
X0149643Y0025203D01*
X0150273Y0024882D01*
X0150947Y0024663D01*
X0151646Y0024552D01*
X0151750Y0024552D01*
X0151750Y0028800D01*
X0152250Y0028800D01*
X0152250Y0024552D01*
X0152354Y0024552D01*
X0153053Y0024663D01*
X0153727Y0024882D01*
X0154357Y0025203D01*
X0154930Y0025619D01*
X0155431Y0026120D01*
X0155847Y0026693D01*
X0156168Y0027323D01*
X0156387Y0027997D01*
X0156498Y0028696D01*
X0156498Y0029300D02*
X0156498Y0029404D01*
X0156387Y0030103D01*
X0156168Y0030777D01*
X0155847Y0031407D01*
X0155431Y0031980D01*
X0154930Y0032481D01*
X0154357Y0032897D01*
X0153727Y0033218D01*
X0153053Y0033437D01*
X0152354Y0033548D01*
X0152250Y0033548D01*
X0152250Y0029300D01*
X0156498Y0029300D01*
X0156488Y0029468D02*
X0167330Y0029468D01*
X0167400Y0029820D02*
X0167250Y0029065D01*
X0167250Y0028930D01*
X0170907Y0028930D01*
X0170907Y0032587D01*
X0170773Y0032587D01*
X0170018Y0032437D01*
X0169307Y0032143D01*
X0168667Y0031715D01*
X0168122Y0031171D01*
X0167695Y0030531D01*
X0167400Y0029820D01*
X0167461Y0029967D02*
X0156409Y0029967D01*
X0156270Y0030465D02*
X0167668Y0030465D01*
X0167984Y0030964D02*
X0156073Y0030964D01*
X0155807Y0031462D02*
X0168414Y0031462D01*
X0169034Y0031961D02*
X0155445Y0031961D01*
X0154952Y0032459D02*
X0170128Y0032459D01*
X0170907Y0032459D02*
X0171407Y0032459D01*
X0171407Y0031961D02*
X0170907Y0031961D01*
X0170907Y0031462D02*
X0171407Y0031462D01*
X0171407Y0030964D02*
X0170907Y0030964D01*
X0170907Y0030465D02*
X0171407Y0030465D01*
X0171407Y0029967D02*
X0170907Y0029967D01*
X0170907Y0029468D02*
X0171407Y0029468D01*
X0171407Y0028970D02*
X0170907Y0028970D01*
X0170907Y0027474D02*
X0171407Y0027474D01*
X0171407Y0026976D02*
X0170907Y0026976D01*
X0170907Y0026477D02*
X0171407Y0026477D01*
X0171407Y0025979D02*
X0170907Y0025979D01*
X0170907Y0025480D02*
X0171407Y0025480D01*
X0171407Y0024982D02*
X0170907Y0024982D01*
X0169875Y0024982D02*
X0153923Y0024982D01*
X0154739Y0025480D02*
X0168913Y0025480D01*
X0168333Y0025979D02*
X0155290Y0025979D01*
X0155691Y0026477D02*
X0167930Y0026477D01*
X0167634Y0026976D02*
X0155991Y0026976D01*
X0156217Y0027474D02*
X0167428Y0027474D01*
X0167314Y0027973D02*
X0156379Y0027973D01*
X0152250Y0027973D02*
X0151750Y0027973D01*
X0151750Y0028471D02*
X0152250Y0028471D01*
X0152250Y0028970D02*
X0167250Y0028970D01*
X0172187Y0032459D02*
X0189813Y0032459D01*
X0190593Y0032459D02*
X0191092Y0032459D01*
X0191092Y0031961D02*
X0190593Y0031961D01*
X0190593Y0031462D02*
X0191092Y0031462D01*
X0191092Y0030964D02*
X0190593Y0030964D01*
X0190593Y0030465D02*
X0191092Y0030465D01*
X0191092Y0029967D02*
X0190593Y0029967D01*
X0190593Y0029468D02*
X0191092Y0029468D01*
X0191092Y0028970D02*
X0190593Y0028970D01*
X0191093Y0028471D02*
X0230821Y0028471D01*
X0230550Y0028742D02*
X0231692Y0027600D01*
X0233308Y0027600D01*
X0234450Y0028742D01*
X0234450Y0030358D01*
X0233308Y0031500D01*
X0231692Y0031500D01*
X0230550Y0030358D01*
X0230550Y0028742D01*
X0230550Y0028970D02*
X0194750Y0028970D01*
X0194670Y0029468D02*
X0230550Y0029468D01*
X0230550Y0029967D02*
X0194539Y0029967D01*
X0194332Y0030465D02*
X0230657Y0030465D01*
X0231156Y0030964D02*
X0194016Y0030964D01*
X0193586Y0031462D02*
X0231654Y0031462D01*
X0233346Y0031462D02*
X0252250Y0031462D01*
X0252250Y0030964D02*
X0233844Y0030964D01*
X0234343Y0030465D02*
X0252250Y0030465D01*
X0252250Y0029967D02*
X0234450Y0029967D01*
X0234450Y0029468D02*
X0252250Y0029468D01*
X0252250Y0028970D02*
X0234450Y0028970D01*
X0234179Y0028471D02*
X0252250Y0028471D01*
X0252250Y0027973D02*
X0233680Y0027973D01*
X0231320Y0027973D02*
X0194686Y0027973D01*
X0194572Y0027474D02*
X0252250Y0027474D01*
X0252250Y0031961D02*
X0192966Y0031961D01*
X0191872Y0032459D02*
X0252250Y0032459D01*
X0252250Y0032958D02*
X0154238Y0032958D01*
X0152934Y0033456D02*
X0252250Y0033456D01*
X0252250Y0033955D02*
X0054950Y0033955D01*
X0054950Y0034358D02*
X0054950Y0032742D01*
X0053808Y0031600D01*
X0052192Y0031600D01*
X0051050Y0032742D01*
X0051050Y0034358D01*
X0052192Y0035500D01*
X0053808Y0035500D01*
X0054950Y0034358D01*
X0054854Y0034453D02*
X0252250Y0034453D01*
X0252250Y0034952D02*
X0054356Y0034952D01*
X0053857Y0035450D02*
X0252250Y0035450D01*
X0252250Y0035949D02*
X0175656Y0035949D01*
X0175308Y0035600D02*
X0176450Y0036742D01*
X0176450Y0038358D01*
X0175308Y0039500D01*
X0173692Y0039500D01*
X0172550Y0038358D01*
X0172550Y0036742D01*
X0173692Y0035600D01*
X0175308Y0035600D01*
X0176155Y0036447D02*
X0189845Y0036447D01*
X0190192Y0036100D02*
X0191808Y0036100D01*
X0192950Y0037242D01*
X0192950Y0038858D01*
X0191808Y0040000D01*
X0190192Y0040000D01*
X0189050Y0038858D01*
X0189050Y0037242D01*
X0190192Y0036100D01*
X0189346Y0036946D02*
X0176450Y0036946D01*
X0176450Y0037444D02*
X0189050Y0037444D01*
X0189050Y0037943D02*
X0176450Y0037943D01*
X0176366Y0038441D02*
X0189050Y0038441D01*
X0189132Y0038940D02*
X0175868Y0038940D01*
X0175369Y0039438D02*
X0189631Y0039438D01*
X0190129Y0039937D02*
X0168871Y0039937D01*
X0168808Y0040000D02*
X0167192Y0040000D01*
X0166050Y0038858D01*
X0166050Y0037242D01*
X0167192Y0036100D01*
X0168808Y0036100D01*
X0169950Y0037242D01*
X0169950Y0038858D01*
X0168808Y0040000D01*
X0169369Y0039438D02*
X0173631Y0039438D01*
X0173132Y0038940D02*
X0169868Y0038940D01*
X0169950Y0038441D02*
X0172634Y0038441D01*
X0172550Y0037943D02*
X0169950Y0037943D01*
X0169950Y0037444D02*
X0172550Y0037444D01*
X0172550Y0036946D02*
X0169654Y0036946D01*
X0169155Y0036447D02*
X0172845Y0036447D01*
X0173344Y0035949D02*
X0005750Y0035949D01*
X0005750Y0036447D02*
X0166845Y0036447D01*
X0166346Y0036946D02*
X0005750Y0036946D01*
X0005750Y0037444D02*
X0166050Y0037444D01*
X0166050Y0037943D02*
X0005750Y0037943D01*
X0005750Y0038441D02*
X0166050Y0038441D01*
X0166132Y0038940D02*
X0005750Y0038940D01*
X0005750Y0039438D02*
X0166631Y0039438D01*
X0167129Y0039937D02*
X0005750Y0039937D01*
X0005750Y0040435D02*
X0219128Y0040435D01*
X0219050Y0040358D02*
X0219050Y0038742D01*
X0220192Y0037600D01*
X0221808Y0037600D01*
X0222950Y0038742D01*
X0222950Y0040358D01*
X0221808Y0041500D01*
X0220192Y0041500D01*
X0219050Y0040358D01*
X0219050Y0039937D02*
X0191871Y0039937D01*
X0192369Y0039438D02*
X0219050Y0039438D01*
X0219050Y0038940D02*
X0192868Y0038940D01*
X0192950Y0038441D02*
X0219351Y0038441D01*
X0219849Y0037943D02*
X0192950Y0037943D01*
X0192950Y0037444D02*
X0252250Y0037444D01*
X0252250Y0036946D02*
X0192654Y0036946D01*
X0192155Y0036447D02*
X0252250Y0036447D01*
X0252250Y0037943D02*
X0222151Y0037943D01*
X0222649Y0038441D02*
X0252250Y0038441D01*
X0252250Y0038940D02*
X0222950Y0038940D01*
X0222950Y0039438D02*
X0252250Y0039438D01*
X0252250Y0039937D02*
X0222950Y0039937D01*
X0222872Y0040435D02*
X0252250Y0040435D01*
X0252250Y0040934D02*
X0222374Y0040934D01*
X0221875Y0041432D02*
X0252250Y0041432D01*
X0252250Y0041931D02*
X0216639Y0041931D01*
X0216950Y0042242D02*
X0215808Y0041100D01*
X0214192Y0041100D01*
X0213050Y0042242D01*
X0213050Y0043858D01*
X0214192Y0045000D01*
X0215808Y0045000D01*
X0216950Y0043858D01*
X0216950Y0042242D01*
X0216950Y0042429D02*
X0252250Y0042429D01*
X0252250Y0042928D02*
X0216950Y0042928D01*
X0216950Y0043426D02*
X0252250Y0043426D01*
X0252250Y0043925D02*
X0216883Y0043925D01*
X0216384Y0044423D02*
X0252250Y0044423D01*
X0252250Y0044922D02*
X0215886Y0044922D01*
X0214114Y0044922D02*
X0095450Y0044922D01*
X0095450Y0045358D02*
X0094308Y0046500D01*
X0092692Y0046500D01*
X0091550Y0045358D01*
X0091550Y0043742D01*
X0092692Y0042600D01*
X0094308Y0042600D01*
X0095450Y0043742D01*
X0095450Y0045358D01*
X0095387Y0045420D02*
X0252250Y0045420D01*
X0252250Y0045919D02*
X0094889Y0045919D01*
X0094390Y0046418D02*
X0252250Y0046418D01*
X0252250Y0046916D02*
X0175124Y0046916D01*
X0174808Y0046600D02*
X0175808Y0047600D01*
X0177308Y0047600D01*
X0178450Y0048742D01*
X0178450Y0050358D01*
X0177308Y0051500D01*
X0175692Y0051500D01*
X0174692Y0050500D01*
X0173192Y0050500D01*
X0172050Y0049358D01*
X0172050Y0047742D01*
X0173192Y0046600D01*
X0174808Y0046600D01*
X0175622Y0047415D02*
X0183378Y0047415D01*
X0183692Y0047100D02*
X0185308Y0047100D01*
X0186450Y0048242D01*
X0186450Y0049858D01*
X0185308Y0051000D01*
X0183692Y0051000D01*
X0183500Y0050808D01*
X0182808Y0051500D01*
X0181192Y0051500D01*
X0180050Y0050358D01*
X0180050Y0048742D01*
X0181192Y0047600D01*
X0182808Y0047600D01*
X0183000Y0047792D01*
X0183692Y0047100D01*
X0185622Y0047415D02*
X0252250Y0047415D01*
X0252250Y0047913D02*
X0186121Y0047913D01*
X0186450Y0048412D02*
X0252250Y0048412D01*
X0252250Y0048910D02*
X0186450Y0048910D01*
X0186450Y0049409D02*
X0252250Y0049409D01*
X0252250Y0049907D02*
X0186401Y0049907D01*
X0185902Y0050406D02*
X0252250Y0050406D01*
X0252250Y0050904D02*
X0185404Y0050904D01*
X0183596Y0050904D02*
X0183404Y0050904D01*
X0182905Y0051403D02*
X0252250Y0051403D01*
X0252250Y0051901D02*
X0069950Y0051901D01*
X0069950Y0052358D02*
X0069950Y0050742D01*
X0068808Y0049600D01*
X0067192Y0049600D01*
X0066050Y0050742D01*
X0066050Y0052358D01*
X0067192Y0053500D01*
X0068808Y0053500D01*
X0069950Y0052358D01*
X0069908Y0052400D02*
X0252250Y0052400D01*
X0252250Y0052898D02*
X0069410Y0052898D01*
X0068911Y0053397D02*
X0252250Y0053397D01*
X0252250Y0053895D02*
X0054413Y0053895D01*
X0054911Y0053397D02*
X0067089Y0053397D01*
X0066590Y0052898D02*
X0054950Y0052898D01*
X0054950Y0053358D02*
X0053808Y0054500D01*
X0052192Y0054500D01*
X0051050Y0053358D01*
X0051050Y0051742D01*
X0052192Y0050600D01*
X0053808Y0050600D01*
X0054950Y0051742D01*
X0054950Y0053358D01*
X0054950Y0052400D02*
X0066092Y0052400D01*
X0066050Y0051901D02*
X0054950Y0051901D01*
X0054610Y0051403D02*
X0066050Y0051403D01*
X0066050Y0050904D02*
X0054112Y0050904D01*
X0051888Y0050904D02*
X0030612Y0050904D01*
X0030950Y0051242D02*
X0029808Y0050100D01*
X0028192Y0050100D01*
X0027050Y0051242D01*
X0027050Y0052858D01*
X0028192Y0054000D01*
X0029808Y0054000D01*
X0030950Y0052858D01*
X0030950Y0051242D01*
X0030950Y0051403D02*
X0051390Y0051403D01*
X0051050Y0051901D02*
X0030950Y0051901D01*
X0030950Y0052400D02*
X0051050Y0052400D01*
X0051050Y0052898D02*
X0030910Y0052898D01*
X0030411Y0053397D02*
X0051089Y0053397D01*
X0051587Y0053895D02*
X0029913Y0053895D01*
X0029808Y0055100D02*
X0028192Y0055100D01*
X0027050Y0056242D01*
X0027050Y0057858D01*
X0028192Y0059000D01*
X0029808Y0059000D01*
X0030950Y0057858D01*
X0030950Y0056242D01*
X0029808Y0055100D01*
X0030098Y0055391D02*
X0069902Y0055391D01*
X0070192Y0055100D02*
X0071808Y0055100D01*
X0072950Y0056242D01*
X0072950Y0057858D01*
X0071808Y0059000D01*
X0070192Y0059000D01*
X0069050Y0057858D01*
X0069050Y0056242D01*
X0070192Y0055100D01*
X0069403Y0055889D02*
X0030597Y0055889D01*
X0030950Y0056388D02*
X0069050Y0056388D01*
X0069050Y0056886D02*
X0030950Y0056886D01*
X0030950Y0057385D02*
X0069050Y0057385D01*
X0069076Y0057883D02*
X0030924Y0057883D01*
X0030426Y0058382D02*
X0069574Y0058382D01*
X0070073Y0058880D02*
X0029927Y0058880D01*
X0029808Y0060100D02*
X0028192Y0060100D01*
X0027050Y0061242D01*
X0027050Y0062858D01*
X0028192Y0064000D01*
X0029808Y0064000D01*
X0030950Y0062858D01*
X0030950Y0061242D01*
X0029808Y0060100D01*
X0030084Y0060376D02*
X0252250Y0060376D01*
X0252250Y0060874D02*
X0072082Y0060874D01*
X0071808Y0060600D02*
X0072950Y0061742D01*
X0072950Y0063100D01*
X0073808Y0063100D01*
X0074950Y0064242D01*
X0074950Y0065858D01*
X0073808Y0067000D01*
X0072192Y0067000D01*
X0071050Y0065858D01*
X0071050Y0064500D01*
X0070192Y0064500D01*
X0069050Y0063358D01*
X0069050Y0061742D01*
X0070192Y0060600D01*
X0071808Y0060600D01*
X0072581Y0061373D02*
X0252250Y0061373D01*
X0252250Y0061871D02*
X0072950Y0061871D01*
X0072950Y0062370D02*
X0252250Y0062370D01*
X0252250Y0062868D02*
X0072950Y0062868D01*
X0074075Y0063367D02*
X0252250Y0063367D01*
X0252250Y0063865D02*
X0074573Y0063865D01*
X0074950Y0064364D02*
X0252250Y0064364D01*
X0252250Y0064862D02*
X0074950Y0064862D01*
X0074950Y0065361D02*
X0252250Y0065361D01*
X0252250Y0065859D02*
X0080567Y0065859D01*
X0080308Y0065600D02*
X0081450Y0066742D01*
X0081450Y0068358D01*
X0080308Y0069500D01*
X0078692Y0069500D01*
X0077550Y0068358D01*
X0077550Y0066742D01*
X0078692Y0065600D01*
X0080308Y0065600D01*
X0081066Y0066358D02*
X0252250Y0066358D01*
X0252250Y0066856D02*
X0081450Y0066856D01*
X0081450Y0067355D02*
X0252250Y0067355D01*
X0252250Y0067853D02*
X0081450Y0067853D01*
X0081450Y0068352D02*
X0252250Y0068352D01*
X0252250Y0068851D02*
X0080957Y0068851D01*
X0080459Y0069349D02*
X0165443Y0069349D01*
X0165692Y0069100D02*
X0167308Y0069100D01*
X0168450Y0070242D01*
X0168450Y0071858D01*
X0167308Y0073000D01*
X0165692Y0073000D01*
X0164550Y0071858D01*
X0164550Y0070242D01*
X0165692Y0069100D01*
X0164945Y0069848D02*
X0054055Y0069848D01*
X0053808Y0069600D02*
X0054950Y0070742D01*
X0054950Y0072358D01*
X0053808Y0073500D01*
X0052192Y0073500D01*
X0051050Y0072358D01*
X0051050Y0070742D01*
X0052192Y0069600D01*
X0053808Y0069600D01*
X0054554Y0070346D02*
X0164550Y0070346D01*
X0164550Y0070845D02*
X0071052Y0070845D01*
X0070808Y0070600D02*
X0071950Y0071742D01*
X0071950Y0073358D01*
X0070808Y0074500D01*
X0069192Y0074500D01*
X0068050Y0073358D01*
X0068050Y0071742D01*
X0069192Y0070600D01*
X0070808Y0070600D01*
X0071551Y0071343D02*
X0164550Y0071343D01*
X0164550Y0071842D02*
X0071950Y0071842D01*
X0071950Y0072340D02*
X0165032Y0072340D01*
X0165531Y0072839D02*
X0071950Y0072839D01*
X0071950Y0073337D02*
X0201029Y0073337D01*
X0201192Y0073500D02*
X0200050Y0072358D01*
X0200050Y0070742D01*
X0201192Y0069600D01*
X0202808Y0069600D01*
X0203950Y0070742D01*
X0203950Y0072358D01*
X0202808Y0073500D01*
X0201192Y0073500D01*
X0200531Y0072839D02*
X0167469Y0072839D01*
X0167968Y0072340D02*
X0200050Y0072340D01*
X0200050Y0071842D02*
X0168450Y0071842D01*
X0168450Y0071343D02*
X0200050Y0071343D01*
X0200050Y0070845D02*
X0168450Y0070845D01*
X0168450Y0070346D02*
X0200446Y0070346D01*
X0200945Y0069848D02*
X0168055Y0069848D01*
X0167557Y0069349D02*
X0252250Y0069349D01*
X0252250Y0069848D02*
X0203055Y0069848D01*
X0203554Y0070346D02*
X0252250Y0070346D01*
X0252250Y0070845D02*
X0203950Y0070845D01*
X0203950Y0071343D02*
X0252250Y0071343D01*
X0252250Y0071842D02*
X0203950Y0071842D01*
X0203950Y0072340D02*
X0252250Y0072340D01*
X0252250Y0072839D02*
X0203469Y0072839D01*
X0202971Y0073337D02*
X0217955Y0073337D01*
X0218192Y0073100D02*
X0219808Y0073100D01*
X0220950Y0074242D01*
X0220950Y0075858D01*
X0219808Y0077000D01*
X0218192Y0077000D01*
X0217050Y0075858D01*
X0217050Y0074242D01*
X0218192Y0073100D01*
X0217457Y0073836D02*
X0071472Y0073836D01*
X0070974Y0074334D02*
X0217050Y0074334D01*
X0217050Y0074833D02*
X0067950Y0074833D01*
X0067950Y0075331D02*
X0217050Y0075331D01*
X0217050Y0075830D02*
X0079037Y0075830D01*
X0078808Y0075600D02*
X0079950Y0076742D01*
X0079950Y0078358D01*
X0078808Y0079500D01*
X0077192Y0079500D01*
X0076050Y0078358D01*
X0076050Y0076742D01*
X0077192Y0075600D01*
X0078808Y0075600D01*
X0079536Y0076328D02*
X0217520Y0076328D01*
X0218019Y0076827D02*
X0079950Y0076827D01*
X0079950Y0077325D02*
X0252250Y0077325D01*
X0252250Y0076827D02*
X0219981Y0076827D01*
X0220480Y0076328D02*
X0252250Y0076328D01*
X0252250Y0075830D02*
X0220950Y0075830D01*
X0220950Y0075331D02*
X0252250Y0075331D01*
X0252250Y0074833D02*
X0220950Y0074833D01*
X0220950Y0074334D02*
X0252250Y0074334D01*
X0252250Y0073836D02*
X0220543Y0073836D01*
X0220045Y0073337D02*
X0252250Y0073337D01*
X0252250Y0077824D02*
X0079950Y0077824D01*
X0079950Y0078322D02*
X0252250Y0078322D01*
X0252250Y0078821D02*
X0079487Y0078821D01*
X0078988Y0079319D02*
X0252250Y0079319D01*
X0252250Y0079818D02*
X0076450Y0079818D01*
X0076450Y0080316D02*
X0252250Y0080316D01*
X0252250Y0080815D02*
X0076450Y0080815D01*
X0076450Y0080858D02*
X0075308Y0082000D01*
X0073692Y0082000D01*
X0072550Y0080858D01*
X0072550Y0079242D01*
X0073692Y0078100D01*
X0075308Y0078100D01*
X0076450Y0079242D01*
X0076450Y0080858D01*
X0075994Y0081313D02*
X0252250Y0081313D01*
X0252250Y0081812D02*
X0075496Y0081812D01*
X0073504Y0081812D02*
X0068450Y0081812D01*
X0068450Y0081742D02*
X0067308Y0080600D01*
X0065692Y0080600D01*
X0064550Y0081742D01*
X0064550Y0083358D01*
X0065692Y0084500D01*
X0067308Y0084500D01*
X0068450Y0083358D01*
X0068450Y0081742D01*
X0068450Y0082310D02*
X0252250Y0082310D01*
X0252250Y0082809D02*
X0222017Y0082809D01*
X0221808Y0082600D02*
X0222950Y0083742D01*
X0222950Y0085358D01*
X0221808Y0086500D01*
X0220192Y0086500D01*
X0219050Y0085358D01*
X0219050Y0083742D01*
X0220192Y0082600D01*
X0221808Y0082600D01*
X0222515Y0083307D02*
X0252250Y0083307D01*
X0252250Y0083806D02*
X0222950Y0083806D01*
X0222950Y0084304D02*
X0252250Y0084304D01*
X0252250Y0084803D02*
X0222950Y0084803D01*
X0222950Y0085301D02*
X0252250Y0085301D01*
X0252250Y0085800D02*
X0222508Y0085800D01*
X0222009Y0086298D02*
X0252250Y0086298D01*
X0252250Y0086797D02*
X0191950Y0086797D01*
X0191950Y0086742D02*
X0191950Y0087600D01*
X0192808Y0087600D01*
X0193808Y0088600D01*
X0195308Y0088600D01*
X0196450Y0089742D01*
X0196450Y0091358D01*
X0195308Y0092500D01*
X0193692Y0092500D01*
X0192692Y0091500D01*
X0191192Y0091500D01*
X0190050Y0090358D01*
X0190050Y0089500D01*
X0189192Y0089500D01*
X0188050Y0088358D01*
X0188050Y0087000D01*
X0187692Y0087000D01*
X0186550Y0085858D01*
X0186550Y0084242D01*
X0187692Y0083100D01*
X0189308Y0083100D01*
X0190450Y0084242D01*
X0190450Y0085600D01*
X0190808Y0085600D01*
X0191950Y0086742D01*
X0191950Y0087295D02*
X0252250Y0087295D01*
X0252250Y0087794D02*
X0222002Y0087794D01*
X0221808Y0087600D02*
X0222950Y0088742D01*
X0222950Y0090358D01*
X0221808Y0091500D01*
X0220192Y0091500D01*
X0219050Y0090358D01*
X0219050Y0088742D01*
X0220192Y0087600D01*
X0221808Y0087600D01*
X0222500Y0088292D02*
X0252250Y0088292D01*
X0252250Y0088791D02*
X0222950Y0088791D01*
X0222950Y0089289D02*
X0252250Y0089289D01*
X0252250Y0089788D02*
X0222950Y0089788D01*
X0222950Y0090287D02*
X0252250Y0090287D01*
X0252250Y0090785D02*
X0222523Y0090785D01*
X0222024Y0091284D02*
X0252250Y0091284D01*
X0252250Y0091782D02*
X0203950Y0091782D01*
X0203950Y0091284D02*
X0219976Y0091284D01*
X0219477Y0090785D02*
X0203493Y0090785D01*
X0203950Y0091242D02*
X0202808Y0090100D01*
X0201192Y0090100D01*
X0200050Y0091242D01*
X0200050Y0092858D01*
X0201192Y0094000D01*
X0202808Y0094000D01*
X0203950Y0092858D01*
X0203950Y0091242D01*
X0203950Y0092281D02*
X0252250Y0092281D01*
X0252250Y0092779D02*
X0221987Y0092779D01*
X0221808Y0092600D02*
X0222950Y0093742D01*
X0222950Y0095358D01*
X0221808Y0096500D01*
X0220192Y0096500D01*
X0219050Y0095358D01*
X0219050Y0093742D01*
X0220192Y0092600D01*
X0221808Y0092600D01*
X0222485Y0093278D02*
X0252250Y0093278D01*
X0252250Y0093776D02*
X0222950Y0093776D01*
X0222950Y0094275D02*
X0252250Y0094275D01*
X0252250Y0094773D02*
X0222950Y0094773D01*
X0222950Y0095272D02*
X0252250Y0095272D01*
X0252250Y0095770D02*
X0222538Y0095770D01*
X0222039Y0096269D02*
X0252250Y0096269D01*
X0252250Y0096767D02*
X0174450Y0096767D01*
X0174450Y0096858D02*
X0173308Y0098000D01*
X0171692Y0098000D01*
X0170550Y0096858D01*
X0170550Y0095242D01*
X0171692Y0094100D01*
X0173308Y0094100D01*
X0174450Y0095242D01*
X0174450Y0096858D01*
X0174042Y0097266D02*
X0252250Y0097266D01*
X0252250Y0097764D02*
X0173544Y0097764D01*
X0174450Y0096269D02*
X0219961Y0096269D01*
X0219462Y0095770D02*
X0174450Y0095770D01*
X0174450Y0095272D02*
X0219050Y0095272D01*
X0219050Y0094773D02*
X0173981Y0094773D01*
X0173482Y0094275D02*
X0219050Y0094275D01*
X0219050Y0093776D02*
X0203032Y0093776D01*
X0203530Y0093278D02*
X0219515Y0093278D01*
X0220013Y0092779D02*
X0203950Y0092779D01*
X0202994Y0090287D02*
X0219050Y0090287D01*
X0219050Y0089788D02*
X0196450Y0089788D01*
X0196450Y0090287D02*
X0201006Y0090287D01*
X0200507Y0090785D02*
X0196450Y0090785D01*
X0196450Y0091284D02*
X0200050Y0091284D01*
X0200050Y0091782D02*
X0196026Y0091782D01*
X0195527Y0092281D02*
X0200050Y0092281D01*
X0200050Y0092779D02*
X0150950Y0092779D01*
X0150950Y0092281D02*
X0193473Y0092281D01*
X0192974Y0091782D02*
X0150490Y0091782D01*
X0150950Y0092242D02*
X0149808Y0091100D01*
X0148192Y0091100D01*
X0147050Y0092242D01*
X0147050Y0093858D01*
X0148192Y0095000D01*
X0148792Y0095000D01*
X0148550Y0095242D01*
X0148550Y0096858D01*
X0149692Y0098000D01*
X0151308Y0098000D01*
X0152450Y0096858D01*
X0152450Y0095242D01*
X0151308Y0094100D01*
X0150708Y0094100D01*
X0150950Y0093858D01*
X0150950Y0092242D01*
X0150950Y0093278D02*
X0153515Y0093278D01*
X0153692Y0093100D02*
X0155308Y0093100D01*
X0156450Y0094242D01*
X0156450Y0095858D01*
X0155308Y0097000D01*
X0153692Y0097000D01*
X0152550Y0095858D01*
X0152550Y0094242D01*
X0153692Y0093100D01*
X0153016Y0093776D02*
X0150950Y0093776D01*
X0151482Y0094275D02*
X0152550Y0094275D01*
X0152550Y0094773D02*
X0151981Y0094773D01*
X0152450Y0095272D02*
X0152550Y0095272D01*
X0152550Y0095770D02*
X0152450Y0095770D01*
X0152450Y0096269D02*
X0152961Y0096269D01*
X0153459Y0096767D02*
X0152450Y0096767D01*
X0152042Y0097266D02*
X0160050Y0097266D01*
X0160050Y0097242D02*
X0161192Y0096100D01*
X0162808Y0096100D01*
X0163950Y0097242D01*
X0163950Y0098858D01*
X0162808Y0100000D01*
X0161192Y0100000D01*
X0160050Y0098858D01*
X0160050Y0097242D01*
X0160050Y0097764D02*
X0151544Y0097764D01*
X0149456Y0097764D02*
X0005750Y0097764D01*
X0005750Y0097266D02*
X0140458Y0097266D01*
X0140692Y0097500D02*
X0139550Y0096358D01*
X0139550Y0094742D01*
X0140692Y0093600D01*
X0142308Y0093600D01*
X0143450Y0094742D01*
X0143450Y0096358D01*
X0142308Y0097500D01*
X0140692Y0097500D01*
X0139959Y0096767D02*
X0005750Y0096767D01*
X0005750Y0096269D02*
X0139550Y0096269D01*
X0139550Y0095770D02*
X0005750Y0095770D01*
X0005750Y0095272D02*
X0139550Y0095272D01*
X0139550Y0094773D02*
X0005750Y0094773D01*
X0005750Y0094275D02*
X0140018Y0094275D01*
X0140516Y0093776D02*
X0005750Y0093776D01*
X0005750Y0093278D02*
X0147050Y0093278D01*
X0147050Y0093776D02*
X0142484Y0093776D01*
X0142982Y0094275D02*
X0147467Y0094275D01*
X0147965Y0094773D02*
X0143450Y0094773D01*
X0143450Y0095272D02*
X0148550Y0095272D01*
X0148550Y0095770D02*
X0143450Y0095770D01*
X0143450Y0096269D02*
X0148550Y0096269D01*
X0148550Y0096767D02*
X0143041Y0096767D01*
X0142542Y0097266D02*
X0148958Y0097266D01*
X0155541Y0096767D02*
X0160525Y0096767D01*
X0161024Y0096269D02*
X0156039Y0096269D01*
X0156450Y0095770D02*
X0170550Y0095770D01*
X0170550Y0095272D02*
X0156450Y0095272D01*
X0156450Y0094773D02*
X0171019Y0094773D01*
X0171518Y0094275D02*
X0156450Y0094275D01*
X0155984Y0093776D02*
X0200968Y0093776D01*
X0200470Y0093278D02*
X0155485Y0093278D01*
X0154308Y0089500D02*
X0152692Y0089500D01*
X0151550Y0088358D01*
X0151550Y0086742D01*
X0152692Y0085600D01*
X0154308Y0085600D01*
X0155450Y0086742D01*
X0155450Y0088358D01*
X0154308Y0089500D01*
X0154518Y0089289D02*
X0188982Y0089289D01*
X0188483Y0088791D02*
X0155017Y0088791D01*
X0155450Y0088292D02*
X0188050Y0088292D01*
X0188050Y0087794D02*
X0155450Y0087794D01*
X0155450Y0087295D02*
X0156488Y0087295D01*
X0156692Y0087500D02*
X0155550Y0086358D01*
X0155550Y0084742D01*
X0156692Y0083600D01*
X0158308Y0083600D01*
X0159450Y0084742D01*
X0159450Y0086358D01*
X0158308Y0087500D01*
X0156692Y0087500D01*
X0155989Y0086797D02*
X0155450Y0086797D01*
X0155550Y0086298D02*
X0155006Y0086298D01*
X0154508Y0085800D02*
X0155550Y0085800D01*
X0155550Y0085301D02*
X0005750Y0085301D01*
X0005750Y0084803D02*
X0155550Y0084803D01*
X0155988Y0084304D02*
X0067503Y0084304D01*
X0068002Y0083806D02*
X0156486Y0083806D01*
X0158514Y0083806D02*
X0179050Y0083806D01*
X0179050Y0083742D02*
X0180192Y0082600D01*
X0181808Y0082600D01*
X0182250Y0083042D01*
X0182692Y0082600D01*
X0184308Y0082600D01*
X0185450Y0083742D01*
X0185450Y0085358D01*
X0184308Y0086500D01*
X0182692Y0086500D01*
X0182250Y0086058D01*
X0181808Y0086500D01*
X0180192Y0086500D01*
X0179050Y0085358D01*
X0179050Y0083742D01*
X0179050Y0084304D02*
X0159012Y0084304D01*
X0159450Y0084803D02*
X0179050Y0084803D01*
X0179050Y0085301D02*
X0159450Y0085301D01*
X0159450Y0085800D02*
X0179492Y0085800D01*
X0179991Y0086298D02*
X0159450Y0086298D01*
X0159011Y0086797D02*
X0187489Y0086797D01*
X0186991Y0086298D02*
X0184509Y0086298D01*
X0185008Y0085800D02*
X0186550Y0085800D01*
X0186550Y0085301D02*
X0185450Y0085301D01*
X0185450Y0084803D02*
X0186550Y0084803D01*
X0186550Y0084304D02*
X0185450Y0084304D01*
X0185450Y0083806D02*
X0186986Y0083806D01*
X0187485Y0083307D02*
X0185015Y0083307D01*
X0184517Y0082809D02*
X0219983Y0082809D01*
X0219485Y0083307D02*
X0189515Y0083307D01*
X0190014Y0083806D02*
X0219050Y0083806D01*
X0219050Y0084304D02*
X0190450Y0084304D01*
X0190450Y0084803D02*
X0219050Y0084803D01*
X0219050Y0085301D02*
X0190450Y0085301D01*
X0191008Y0085800D02*
X0219492Y0085800D01*
X0219991Y0086298D02*
X0191506Y0086298D01*
X0193002Y0087794D02*
X0219998Y0087794D01*
X0219500Y0088292D02*
X0193500Y0088292D01*
X0195499Y0088791D02*
X0219050Y0088791D01*
X0219050Y0089289D02*
X0195997Y0089289D01*
X0190976Y0091284D02*
X0149991Y0091284D01*
X0148009Y0091284D02*
X0054950Y0091284D01*
X0054950Y0091358D02*
X0053808Y0092500D01*
X0052192Y0092500D01*
X0051050Y0091358D01*
X0051050Y0089742D01*
X0052192Y0088600D01*
X0053808Y0088600D01*
X0054950Y0089742D01*
X0054950Y0091358D01*
X0054950Y0090785D02*
X0190477Y0090785D01*
X0190050Y0090287D02*
X0054950Y0090287D01*
X0054950Y0089788D02*
X0190050Y0089788D01*
X0188050Y0087295D02*
X0158512Y0087295D01*
X0152492Y0085800D02*
X0005750Y0085800D01*
X0005750Y0086298D02*
X0151994Y0086298D01*
X0151550Y0086797D02*
X0005750Y0086797D01*
X0005750Y0087295D02*
X0151550Y0087295D01*
X0151550Y0087794D02*
X0005750Y0087794D01*
X0005750Y0088292D02*
X0151550Y0088292D01*
X0151983Y0088791D02*
X0053999Y0088791D01*
X0054497Y0089289D02*
X0152482Y0089289D01*
X0147510Y0091782D02*
X0054526Y0091782D01*
X0054027Y0092281D02*
X0147050Y0092281D01*
X0147050Y0092779D02*
X0005750Y0092779D01*
X0005750Y0092281D02*
X0051973Y0092281D01*
X0051474Y0091782D02*
X0005750Y0091782D01*
X0005750Y0091284D02*
X0051050Y0091284D01*
X0051050Y0090785D02*
X0005750Y0090785D01*
X0005750Y0090287D02*
X0051050Y0090287D01*
X0051050Y0089788D02*
X0005750Y0089788D01*
X0005750Y0089289D02*
X0051503Y0089289D01*
X0052001Y0088791D02*
X0005750Y0088791D01*
X0005750Y0084304D02*
X0065497Y0084304D01*
X0064998Y0083806D02*
X0030002Y0083806D01*
X0029808Y0084000D02*
X0028192Y0084000D01*
X0027050Y0082858D01*
X0027050Y0081242D01*
X0028192Y0080100D01*
X0029808Y0080100D01*
X0030950Y0081242D01*
X0030950Y0082858D01*
X0029808Y0084000D01*
X0030500Y0083307D02*
X0064550Y0083307D01*
X0064550Y0082809D02*
X0030950Y0082809D01*
X0030950Y0082310D02*
X0064550Y0082310D01*
X0064550Y0081812D02*
X0030950Y0081812D01*
X0030950Y0081313D02*
X0064979Y0081313D01*
X0065477Y0080815D02*
X0030523Y0080815D01*
X0030024Y0080316D02*
X0068509Y0080316D01*
X0068050Y0079858D02*
X0068050Y0078242D01*
X0069192Y0077100D01*
X0070808Y0077100D01*
X0071950Y0078242D01*
X0071950Y0079858D01*
X0070808Y0081000D01*
X0069192Y0081000D01*
X0068050Y0079858D01*
X0068050Y0079818D02*
X0005750Y0079818D01*
X0005750Y0080316D02*
X0027976Y0080316D01*
X0027477Y0080815D02*
X0005750Y0080815D01*
X0005750Y0081313D02*
X0027050Y0081313D01*
X0027050Y0081812D02*
X0005750Y0081812D01*
X0005750Y0082310D02*
X0027050Y0082310D01*
X0027050Y0082809D02*
X0005750Y0082809D01*
X0005750Y0083307D02*
X0027500Y0083307D01*
X0027998Y0083806D02*
X0005750Y0083806D01*
X0005750Y0079319D02*
X0068050Y0079319D01*
X0068050Y0078821D02*
X0029987Y0078821D01*
X0029808Y0079000D02*
X0028192Y0079000D01*
X0027050Y0077858D01*
X0027050Y0076242D01*
X0028192Y0075100D01*
X0029808Y0075100D01*
X0030950Y0076242D01*
X0030950Y0077858D01*
X0029808Y0079000D01*
X0030485Y0078322D02*
X0068050Y0078322D01*
X0068469Y0077824D02*
X0030950Y0077824D01*
X0030950Y0077325D02*
X0068967Y0077325D01*
X0067950Y0075858D02*
X0066808Y0077000D01*
X0065192Y0077000D01*
X0064050Y0075858D01*
X0064050Y0074242D01*
X0065192Y0073100D01*
X0066808Y0073100D01*
X0067950Y0074242D01*
X0067950Y0075858D01*
X0067950Y0075830D02*
X0076963Y0075830D01*
X0076464Y0076328D02*
X0067480Y0076328D01*
X0066981Y0076827D02*
X0076050Y0076827D01*
X0076050Y0077325D02*
X0071033Y0077325D01*
X0071531Y0077824D02*
X0076050Y0077824D01*
X0076050Y0078322D02*
X0075530Y0078322D01*
X0076028Y0078821D02*
X0076513Y0078821D01*
X0076450Y0079319D02*
X0077012Y0079319D01*
X0073470Y0078322D02*
X0071950Y0078322D01*
X0071950Y0078821D02*
X0072972Y0078821D01*
X0072550Y0079319D02*
X0071950Y0079319D01*
X0071950Y0079818D02*
X0072550Y0079818D01*
X0072550Y0080316D02*
X0071491Y0080316D01*
X0070993Y0080815D02*
X0072550Y0080815D01*
X0073006Y0081313D02*
X0068021Y0081313D01*
X0067523Y0080815D02*
X0069007Y0080815D01*
X0068450Y0082809D02*
X0179983Y0082809D01*
X0179485Y0083307D02*
X0068450Y0083307D01*
X0065019Y0076827D02*
X0030950Y0076827D01*
X0030950Y0076328D02*
X0064520Y0076328D01*
X0064050Y0075830D02*
X0030537Y0075830D01*
X0030039Y0075331D02*
X0064050Y0075331D01*
X0064050Y0074833D02*
X0005750Y0074833D01*
X0005750Y0075331D02*
X0027961Y0075331D01*
X0027463Y0075830D02*
X0005750Y0075830D01*
X0005750Y0076328D02*
X0027050Y0076328D01*
X0027050Y0076827D02*
X0005750Y0076827D01*
X0005750Y0077325D02*
X0027050Y0077325D01*
X0027050Y0077824D02*
X0005750Y0077824D01*
X0005750Y0078322D02*
X0027515Y0078322D01*
X0028013Y0078821D02*
X0005750Y0078821D01*
X0005750Y0074334D02*
X0064050Y0074334D01*
X0064457Y0073836D02*
X0029972Y0073836D01*
X0029808Y0074000D02*
X0028192Y0074000D01*
X0027050Y0072858D01*
X0027050Y0071242D01*
X0028192Y0070100D01*
X0029808Y0070100D01*
X0030950Y0071242D01*
X0030950Y0072858D01*
X0029808Y0074000D01*
X0030471Y0073337D02*
X0052029Y0073337D01*
X0051531Y0072839D02*
X0030950Y0072839D01*
X0030950Y0072340D02*
X0051050Y0072340D01*
X0051050Y0071842D02*
X0030950Y0071842D01*
X0030950Y0071343D02*
X0051050Y0071343D01*
X0051050Y0070845D02*
X0030552Y0070845D01*
X0030054Y0070346D02*
X0051446Y0070346D01*
X0051945Y0069848D02*
X0005750Y0069848D01*
X0005750Y0070346D02*
X0027946Y0070346D01*
X0027448Y0070845D02*
X0005750Y0070845D01*
X0005750Y0071343D02*
X0027050Y0071343D01*
X0027050Y0071842D02*
X0005750Y0071842D01*
X0005750Y0072340D02*
X0027050Y0072340D01*
X0027050Y0072839D02*
X0005750Y0072839D01*
X0005750Y0073337D02*
X0027529Y0073337D01*
X0028028Y0073836D02*
X0005750Y0073836D01*
X0005750Y0069349D02*
X0078541Y0069349D01*
X0078043Y0068851D02*
X0029957Y0068851D01*
X0029808Y0069000D02*
X0028192Y0069000D01*
X0027050Y0067858D01*
X0027050Y0066242D01*
X0028192Y0065100D01*
X0029808Y0065100D01*
X0030950Y0066242D01*
X0030950Y0067858D01*
X0029808Y0069000D01*
X0030456Y0068352D02*
X0077550Y0068352D01*
X0077550Y0067853D02*
X0030950Y0067853D01*
X0030950Y0067355D02*
X0077550Y0067355D01*
X0077550Y0066856D02*
X0073951Y0066856D01*
X0074450Y0066358D02*
X0077934Y0066358D01*
X0078433Y0065859D02*
X0074948Y0065859D01*
X0072049Y0066856D02*
X0030950Y0066856D01*
X0030950Y0066358D02*
X0071550Y0066358D01*
X0071052Y0065859D02*
X0030567Y0065859D01*
X0030069Y0065361D02*
X0071050Y0065361D01*
X0071050Y0064862D02*
X0005750Y0064862D01*
X0005750Y0064364D02*
X0070056Y0064364D01*
X0069558Y0063865D02*
X0029942Y0063865D01*
X0030441Y0063367D02*
X0069059Y0063367D01*
X0069050Y0062868D02*
X0030939Y0062868D01*
X0030950Y0062370D02*
X0069050Y0062370D01*
X0069050Y0061871D02*
X0030950Y0061871D01*
X0030950Y0061373D02*
X0069419Y0061373D01*
X0069918Y0060874D02*
X0030582Y0060874D01*
X0027916Y0060376D02*
X0005750Y0060376D01*
X0005750Y0060874D02*
X0027418Y0060874D01*
X0027050Y0061373D02*
X0005750Y0061373D01*
X0005750Y0061871D02*
X0027050Y0061871D01*
X0027050Y0062370D02*
X0005750Y0062370D01*
X0005750Y0062868D02*
X0027061Y0062868D01*
X0027559Y0063367D02*
X0005750Y0063367D01*
X0005750Y0063865D02*
X0028058Y0063865D01*
X0027931Y0065361D02*
X0005750Y0065361D01*
X0005750Y0065859D02*
X0027433Y0065859D01*
X0027050Y0066358D02*
X0005750Y0066358D01*
X0005750Y0066856D02*
X0027050Y0066856D01*
X0027050Y0067355D02*
X0005750Y0067355D01*
X0005750Y0067853D02*
X0027050Y0067853D01*
X0027544Y0068352D02*
X0005750Y0068352D01*
X0005750Y0068851D02*
X0028043Y0068851D01*
X0028073Y0058880D02*
X0005750Y0058880D01*
X0005750Y0058382D02*
X0027574Y0058382D01*
X0027076Y0057883D02*
X0005750Y0057883D01*
X0005750Y0057385D02*
X0027050Y0057385D01*
X0027050Y0056886D02*
X0005750Y0056886D01*
X0005750Y0056388D02*
X0027050Y0056388D01*
X0027403Y0055889D02*
X0005750Y0055889D01*
X0005750Y0055391D02*
X0027902Y0055391D01*
X0028087Y0053895D02*
X0005750Y0053895D01*
X0005750Y0053397D02*
X0027589Y0053397D01*
X0027090Y0052898D02*
X0005750Y0052898D01*
X0005750Y0052400D02*
X0027050Y0052400D01*
X0027050Y0051901D02*
X0005750Y0051901D01*
X0005750Y0051403D02*
X0027050Y0051403D01*
X0027388Y0050904D02*
X0005750Y0050904D01*
X0005750Y0050406D02*
X0027887Y0050406D01*
X0030113Y0050406D02*
X0066387Y0050406D01*
X0066885Y0049907D02*
X0005750Y0049907D01*
X0005750Y0049409D02*
X0172101Y0049409D01*
X0172050Y0048910D02*
X0005750Y0048910D01*
X0005750Y0048412D02*
X0172050Y0048412D01*
X0172050Y0047913D02*
X0005750Y0047913D01*
X0005750Y0047415D02*
X0172378Y0047415D01*
X0172876Y0046916D02*
X0005750Y0046916D01*
X0005750Y0046418D02*
X0072110Y0046418D01*
X0072192Y0046500D02*
X0071050Y0045358D01*
X0071050Y0043742D01*
X0072192Y0042600D01*
X0073808Y0042600D01*
X0074950Y0043742D01*
X0074950Y0045358D01*
X0073808Y0046500D01*
X0072192Y0046500D01*
X0071611Y0045919D02*
X0005750Y0045919D01*
X0005750Y0045420D02*
X0071113Y0045420D01*
X0071050Y0044922D02*
X0005750Y0044922D01*
X0005750Y0044423D02*
X0071050Y0044423D01*
X0071050Y0043925D02*
X0005750Y0043925D01*
X0005750Y0043426D02*
X0071366Y0043426D01*
X0071864Y0042928D02*
X0005750Y0042928D01*
X0005750Y0042429D02*
X0213050Y0042429D01*
X0213050Y0042928D02*
X0094636Y0042928D01*
X0095134Y0043426D02*
X0213050Y0043426D01*
X0213117Y0043925D02*
X0095450Y0043925D01*
X0095450Y0044423D02*
X0213616Y0044423D01*
X0213361Y0041931D02*
X0005750Y0041931D01*
X0005750Y0041432D02*
X0213860Y0041432D01*
X0216140Y0041432D02*
X0220125Y0041432D01*
X0219626Y0040934D02*
X0005750Y0040934D01*
X0005750Y0035450D02*
X0052143Y0035450D01*
X0051644Y0034952D02*
X0005750Y0034952D01*
X0005750Y0034453D02*
X0051146Y0034453D01*
X0051050Y0033955D02*
X0005750Y0033955D01*
X0005750Y0033456D02*
X0051050Y0033456D01*
X0051050Y0032958D02*
X0005750Y0032958D01*
X0005750Y0032459D02*
X0051333Y0032459D01*
X0051832Y0031961D02*
X0005750Y0031961D01*
X0005750Y0031462D02*
X0148193Y0031462D01*
X0147927Y0030964D02*
X0005750Y0030964D01*
X0005750Y0030465D02*
X0147730Y0030465D01*
X0147591Y0029967D02*
X0005750Y0029967D01*
X0005750Y0029468D02*
X0147512Y0029468D01*
X0147538Y0028471D02*
X0005750Y0028471D01*
X0005750Y0027973D02*
X0147621Y0027973D01*
X0147783Y0027474D02*
X0005750Y0027474D01*
X0005750Y0026976D02*
X0148009Y0026976D01*
X0148309Y0026477D02*
X0005750Y0026477D01*
X0005750Y0025979D02*
X0148710Y0025979D01*
X0149261Y0025480D02*
X0005750Y0025480D01*
X0005750Y0024982D02*
X0150077Y0024982D01*
X0151750Y0024982D02*
X0152250Y0024982D01*
X0152250Y0025480D02*
X0151750Y0025480D01*
X0151750Y0025979D02*
X0152250Y0025979D01*
X0152250Y0026477D02*
X0151750Y0026477D01*
X0151750Y0026976D02*
X0152250Y0026976D01*
X0152250Y0027474D02*
X0151750Y0027474D01*
X0151750Y0028970D02*
X0005750Y0028970D01*
X0005750Y0024483D02*
X0230550Y0024483D01*
X0230550Y0023984D02*
X0005750Y0023984D01*
X0005750Y0023486D02*
X0230806Y0023486D01*
X0231305Y0022987D02*
X0005750Y0022987D01*
X0005750Y0022489D02*
X0165374Y0022489D01*
X0164489Y0021990D02*
X0005750Y0021990D01*
X0005750Y0021492D02*
X0163884Y0021492D01*
X0167471Y0018002D02*
X0194529Y0018002D01*
X0194530Y0018501D02*
X0195030Y0018501D01*
X0195030Y0018999D02*
X0194530Y0018999D01*
X0194530Y0019498D02*
X0195030Y0019498D01*
X0195030Y0019996D02*
X0194530Y0019996D01*
X0194530Y0020495D02*
X0195030Y0020495D01*
X0195030Y0020993D02*
X0194530Y0020993D01*
X0194530Y0021492D02*
X0195030Y0021492D01*
X0195030Y0021990D02*
X0194530Y0021990D01*
X0194530Y0022489D02*
X0195030Y0022489D01*
X0189560Y0024982D02*
X0172439Y0024982D01*
X0173402Y0025480D02*
X0188598Y0025480D01*
X0188018Y0025979D02*
X0173982Y0025979D01*
X0174385Y0026477D02*
X0187615Y0026477D01*
X0187319Y0026976D02*
X0174681Y0026976D01*
X0174887Y0027474D02*
X0187113Y0027474D01*
X0186999Y0027973D02*
X0175001Y0027973D01*
X0175065Y0028970D02*
X0186935Y0028970D01*
X0187015Y0029468D02*
X0174985Y0029468D01*
X0174854Y0029967D02*
X0187146Y0029967D01*
X0187353Y0030465D02*
X0174647Y0030465D01*
X0174331Y0030964D02*
X0187669Y0030964D01*
X0188099Y0031462D02*
X0173901Y0031462D01*
X0173281Y0031961D02*
X0188719Y0031961D01*
X0195030Y0018002D02*
X0219790Y0018002D01*
X0222210Y0018002D02*
X0252250Y0018002D01*
X0252250Y0018501D02*
X0222709Y0018501D01*
X0222950Y0018999D02*
X0252250Y0018999D01*
X0252250Y0019498D02*
X0222950Y0019498D01*
X0222950Y0019996D02*
X0252250Y0019996D01*
X0252250Y0020495D02*
X0222813Y0020495D01*
X0222314Y0020993D02*
X0252250Y0020993D01*
X0234245Y0015011D02*
X0198497Y0015011D01*
X0198021Y0014513D02*
X0233734Y0014513D01*
X0180879Y0047913D02*
X0177621Y0047913D01*
X0178119Y0048412D02*
X0180381Y0048412D01*
X0180050Y0048910D02*
X0178450Y0048910D01*
X0178450Y0049409D02*
X0180050Y0049409D01*
X0180050Y0049907D02*
X0178450Y0049907D01*
X0178402Y0050406D02*
X0180098Y0050406D01*
X0180596Y0050904D02*
X0177904Y0050904D01*
X0177405Y0051403D02*
X0181095Y0051403D01*
X0175595Y0051403D02*
X0069950Y0051403D01*
X0069950Y0050904D02*
X0175096Y0050904D01*
X0173098Y0050406D02*
X0069613Y0050406D01*
X0069115Y0049907D02*
X0172599Y0049907D01*
X0167600Y0054892D02*
X0200400Y0054892D01*
X0200692Y0054600D02*
X0202308Y0054600D01*
X0203450Y0055742D01*
X0203450Y0057358D01*
X0202308Y0058500D01*
X0200692Y0058500D01*
X0199550Y0057358D01*
X0199550Y0055742D01*
X0200692Y0054600D01*
X0199902Y0055391D02*
X0168098Y0055391D01*
X0168450Y0055742D02*
X0167308Y0054600D01*
X0165692Y0054600D01*
X0164550Y0055742D01*
X0164550Y0057358D01*
X0165692Y0058500D01*
X0167308Y0058500D01*
X0168450Y0057358D01*
X0168450Y0055742D01*
X0168450Y0055889D02*
X0199550Y0055889D01*
X0199550Y0056388D02*
X0168450Y0056388D01*
X0168450Y0056886D02*
X0199550Y0056886D01*
X0199577Y0057385D02*
X0168423Y0057385D01*
X0167924Y0057883D02*
X0200076Y0057883D01*
X0200574Y0058382D02*
X0167426Y0058382D01*
X0165574Y0058382D02*
X0160450Y0058382D01*
X0160450Y0058858D02*
X0159308Y0060000D01*
X0157692Y0060000D01*
X0156550Y0058858D01*
X0156550Y0057242D01*
X0157692Y0056100D01*
X0159308Y0056100D01*
X0160450Y0057242D01*
X0160450Y0058858D01*
X0160427Y0058880D02*
X0252250Y0058880D01*
X0252250Y0058382D02*
X0202426Y0058382D01*
X0202924Y0057883D02*
X0252250Y0057883D01*
X0252250Y0057385D02*
X0203423Y0057385D01*
X0203450Y0056886D02*
X0252250Y0056886D01*
X0252250Y0056388D02*
X0203450Y0056388D01*
X0203450Y0055889D02*
X0252250Y0055889D01*
X0252250Y0055391D02*
X0203098Y0055391D01*
X0202600Y0054892D02*
X0252250Y0054892D01*
X0252250Y0054394D02*
X0053914Y0054394D01*
X0052086Y0054394D02*
X0005750Y0054394D01*
X0005750Y0054892D02*
X0165400Y0054892D01*
X0164902Y0055391D02*
X0072098Y0055391D01*
X0072597Y0055889D02*
X0164550Y0055889D01*
X0164550Y0056388D02*
X0159595Y0056388D01*
X0160094Y0056886D02*
X0164550Y0056886D01*
X0164577Y0057385D02*
X0160450Y0057385D01*
X0160450Y0057883D02*
X0165076Y0057883D01*
X0159929Y0059379D02*
X0252250Y0059379D01*
X0252250Y0059877D02*
X0159430Y0059877D01*
X0157570Y0059877D02*
X0005750Y0059877D01*
X0005750Y0059379D02*
X0157071Y0059379D01*
X0156573Y0058880D02*
X0071927Y0058880D01*
X0072426Y0058382D02*
X0156550Y0058382D01*
X0156550Y0057883D02*
X0072924Y0057883D01*
X0072950Y0057385D02*
X0156550Y0057385D01*
X0156906Y0056886D02*
X0072950Y0056886D01*
X0072950Y0056388D02*
X0157405Y0056388D01*
X0152250Y0033456D02*
X0151750Y0033456D01*
X0151750Y0032958D02*
X0152250Y0032958D01*
X0152250Y0032459D02*
X0151750Y0032459D01*
X0151750Y0031961D02*
X0152250Y0031961D01*
X0152250Y0031462D02*
X0151750Y0031462D01*
X0151750Y0030964D02*
X0152250Y0030964D01*
X0152250Y0030465D02*
X0151750Y0030465D01*
X0151750Y0029967D02*
X0152250Y0029967D01*
X0152250Y0029468D02*
X0151750Y0029468D01*
X0149048Y0032459D02*
X0054667Y0032459D01*
X0054950Y0032958D02*
X0149762Y0032958D01*
X0151066Y0033456D02*
X0054950Y0033456D01*
X0054168Y0031961D02*
X0148555Y0031961D01*
X0149302Y0017005D02*
X0162533Y0017005D01*
X0162454Y0017504D02*
X0141212Y0017504D01*
X0140713Y0017005D02*
X0146698Y0017005D01*
X0149801Y0016507D02*
X0162682Y0016507D01*
X0162881Y0016008D02*
X0149950Y0016008D01*
X0149950Y0015510D02*
X0163141Y0015510D01*
X0163503Y0015011D02*
X0149950Y0015011D01*
X0149720Y0014513D02*
X0163979Y0014513D01*
X0164620Y0014014D02*
X0149222Y0014014D01*
X0138268Y0010525D02*
X0005750Y0010525D01*
X0005750Y0011023D02*
X0137769Y0011023D01*
X0137550Y0011522D02*
X0005750Y0011522D01*
X0005750Y0012020D02*
X0137550Y0012020D01*
X0137550Y0012519D02*
X0005750Y0012519D01*
X0005750Y0013017D02*
X0137710Y0013017D01*
X0092364Y0042928D02*
X0089636Y0042928D01*
X0089308Y0042600D02*
X0090450Y0043742D01*
X0090450Y0045358D01*
X0089308Y0046500D01*
X0087692Y0046500D01*
X0086550Y0045358D01*
X0086550Y0043742D01*
X0087692Y0042600D01*
X0089308Y0042600D01*
X0090134Y0043426D02*
X0091866Y0043426D01*
X0091550Y0043925D02*
X0090450Y0043925D01*
X0090450Y0044423D02*
X0091550Y0044423D01*
X0091550Y0044922D02*
X0090450Y0044922D01*
X0090387Y0045420D02*
X0091613Y0045420D01*
X0092111Y0045919D02*
X0089889Y0045919D01*
X0089390Y0046418D02*
X0092610Y0046418D01*
X0087610Y0046418D02*
X0084390Y0046418D01*
X0084308Y0046500D02*
X0082692Y0046500D01*
X0081550Y0045358D01*
X0081550Y0043742D01*
X0082692Y0042600D01*
X0084308Y0042600D01*
X0085450Y0043742D01*
X0085450Y0045358D01*
X0084308Y0046500D01*
X0084889Y0045919D02*
X0087111Y0045919D01*
X0086613Y0045420D02*
X0085387Y0045420D01*
X0085450Y0044922D02*
X0086550Y0044922D01*
X0086550Y0044423D02*
X0085450Y0044423D01*
X0085450Y0043925D02*
X0086550Y0043925D01*
X0086866Y0043426D02*
X0085134Y0043426D01*
X0084636Y0042928D02*
X0087364Y0042928D01*
X0082364Y0042928D02*
X0074136Y0042928D01*
X0074634Y0043426D02*
X0081866Y0043426D01*
X0081550Y0043925D02*
X0074950Y0043925D01*
X0074950Y0044423D02*
X0081550Y0044423D01*
X0081550Y0044922D02*
X0074950Y0044922D01*
X0074887Y0045420D02*
X0081613Y0045420D01*
X0082111Y0045919D02*
X0074389Y0045919D01*
X0073890Y0046418D02*
X0082610Y0046418D01*
X0068948Y0070845D02*
X0054950Y0070845D01*
X0054950Y0071343D02*
X0068449Y0071343D01*
X0068050Y0071842D02*
X0054950Y0071842D01*
X0054950Y0072340D02*
X0068050Y0072340D01*
X0068050Y0072839D02*
X0054469Y0072839D01*
X0053971Y0073337D02*
X0064955Y0073337D01*
X0067045Y0073337D02*
X0068050Y0073337D01*
X0068528Y0073836D02*
X0067543Y0073836D01*
X0067950Y0074334D02*
X0069026Y0074334D01*
X0082429Y0099111D02*
X0081886Y0099474D01*
X0081424Y0099936D01*
X0081061Y0100479D01*
X0080811Y0101082D01*
X0080683Y0101723D01*
X0080683Y0101800D01*
X0083750Y0101800D01*
X0083750Y0102300D01*
X0083750Y0105367D01*
X0083673Y0105367D01*
X0083032Y0105239D01*
X0082429Y0104989D01*
X0081886Y0104626D01*
X0081424Y0104164D01*
X0081061Y0103621D01*
X0080811Y0103018D01*
X0080683Y0102377D01*
X0080683Y0102300D01*
X0083750Y0102300D01*
X0084250Y0102300D01*
X0084250Y0105367D01*
X0084327Y0105367D01*
X0084968Y0105239D01*
X0085571Y0104989D01*
X0086114Y0104626D01*
X0086576Y0104164D01*
X0086628Y0104086D01*
X0087234Y0104692D01*
X0088380Y0105167D01*
X0089620Y0105167D01*
X0090766Y0104692D01*
X0091500Y0103958D01*
X0092234Y0104692D01*
X0093380Y0105167D01*
X0094620Y0105167D01*
X0095766Y0104692D01*
X0096500Y0103958D01*
X0097234Y0104692D01*
X0098380Y0105167D01*
X0099620Y0105167D01*
X0100766Y0104692D01*
X0101642Y0103816D01*
X0102117Y0102670D01*
X0102117Y0101430D01*
X0101642Y0100284D01*
X0100766Y0099408D01*
X0099620Y0098933D01*
X0098380Y0098933D01*
X0097234Y0099408D01*
X0096500Y0100142D01*
X0095766Y0099408D01*
X0094620Y0098933D01*
X0093380Y0098933D01*
X0092234Y0099408D01*
X0091500Y0100142D01*
X0090766Y0099408D01*
X0089620Y0098933D01*
X0088380Y0098933D01*
X0087234Y0099408D01*
X0086628Y0100014D01*
X0086576Y0099936D01*
X0086114Y0099474D01*
X0085571Y0099111D01*
X0084968Y0098861D01*
X0084327Y0098733D01*
X0084250Y0098733D01*
X0084250Y0101800D01*
X0083750Y0101800D01*
X0083750Y0098733D01*
X0083673Y0098733D01*
X0083032Y0098861D01*
X0082429Y0099111D01*
X0082206Y0099260D02*
X0005750Y0099260D01*
X0005750Y0099758D02*
X0081601Y0099758D01*
X0081209Y0100257D02*
X0005750Y0100257D01*
X0005750Y0100755D02*
X0080946Y0100755D01*
X0080776Y0101254D02*
X0005750Y0101254D01*
X0005750Y0101752D02*
X0080683Y0101752D01*
X0080757Y0102749D02*
X0005750Y0102749D01*
X0005750Y0102251D02*
X0083750Y0102251D01*
X0083750Y0102749D02*
X0084250Y0102749D01*
X0084250Y0103248D02*
X0083750Y0103248D01*
X0083750Y0103746D02*
X0084250Y0103746D01*
X0084250Y0104245D02*
X0083750Y0104245D01*
X0083750Y0104743D02*
X0084250Y0104743D01*
X0084250Y0105242D02*
X0083750Y0105242D01*
X0083045Y0105242D02*
X0005750Y0105242D01*
X0005750Y0105740D02*
X0196050Y0105740D01*
X0196050Y0105858D02*
X0196050Y0104242D01*
X0196492Y0103800D01*
X0196050Y0103358D01*
X0196050Y0101742D01*
X0197192Y0100600D01*
X0198808Y0100600D01*
X0199950Y0101742D01*
X0199950Y0103358D01*
X0199508Y0103800D01*
X0199950Y0104242D01*
X0199950Y0105858D01*
X0198808Y0107000D01*
X0197192Y0107000D01*
X0196050Y0105858D01*
X0196431Y0106239D02*
X0005750Y0106239D01*
X0005750Y0106737D02*
X0194055Y0106737D01*
X0194192Y0106600D02*
X0195808Y0106600D01*
X0196950Y0107742D01*
X0196950Y0109358D01*
X0196508Y0109800D01*
X0196950Y0110242D01*
X0196950Y0111858D01*
X0195808Y0113000D01*
X0194192Y0113000D01*
X0193050Y0111858D01*
X0193050Y0110242D01*
X0193492Y0109800D01*
X0193050Y0109358D01*
X0193050Y0107742D01*
X0194192Y0106600D01*
X0193556Y0107236D02*
X0005750Y0107236D01*
X0005750Y0107734D02*
X0052058Y0107734D01*
X0052192Y0107600D02*
X0053808Y0107600D01*
X0054950Y0108742D01*
X0054950Y0110358D01*
X0053808Y0111500D01*
X0052192Y0111500D01*
X0051050Y0110358D01*
X0051050Y0108742D01*
X0052192Y0107600D01*
X0051559Y0108233D02*
X0005750Y0108233D01*
X0005750Y0108731D02*
X0051061Y0108731D01*
X0051050Y0109230D02*
X0005750Y0109230D01*
X0005750Y0109728D02*
X0051050Y0109728D01*
X0051050Y0110227D02*
X0005750Y0110227D01*
X0005750Y0110725D02*
X0051418Y0110725D01*
X0051916Y0111224D02*
X0005750Y0111224D01*
X0005750Y0111722D02*
X0193050Y0111722D01*
X0193050Y0111224D02*
X0054084Y0111224D01*
X0054582Y0110725D02*
X0193050Y0110725D01*
X0193065Y0110227D02*
X0054950Y0110227D01*
X0054950Y0109728D02*
X0193421Y0109728D01*
X0193050Y0109230D02*
X0054950Y0109230D01*
X0054939Y0108731D02*
X0193050Y0108731D01*
X0193050Y0108233D02*
X0054441Y0108233D01*
X0053942Y0107734D02*
X0193058Y0107734D01*
X0195945Y0106737D02*
X0196930Y0106737D01*
X0196444Y0107236D02*
X0204050Y0107236D01*
X0204050Y0107734D02*
X0196942Y0107734D01*
X0196950Y0108233D02*
X0204425Y0108233D01*
X0204050Y0107858D02*
X0204050Y0106242D01*
X0205192Y0105100D01*
X0206808Y0105100D01*
X0207250Y0105542D01*
X0207692Y0105100D01*
X0209308Y0105100D01*
X0210450Y0106242D01*
X0210450Y0107858D01*
X0209308Y0109000D01*
X0207692Y0109000D01*
X0207250Y0108558D01*
X0206808Y0109000D01*
X0205192Y0109000D01*
X0204050Y0107858D01*
X0204050Y0106737D02*
X0199070Y0106737D01*
X0199569Y0106239D02*
X0204053Y0106239D01*
X0204552Y0105740D02*
X0199950Y0105740D01*
X0199950Y0105242D02*
X0205050Y0105242D01*
X0206950Y0105242D02*
X0207550Y0105242D01*
X0209450Y0105242D02*
X0252250Y0105242D01*
X0252250Y0105740D02*
X0209948Y0105740D01*
X0210447Y0106239D02*
X0252250Y0106239D01*
X0252250Y0106737D02*
X0210450Y0106737D01*
X0210450Y0107236D02*
X0252250Y0107236D01*
X0252250Y0107734D02*
X0210450Y0107734D01*
X0210075Y0108233D02*
X0252250Y0108233D01*
X0252250Y0108731D02*
X0209576Y0108731D01*
X0207424Y0108731D02*
X0207076Y0108731D01*
X0204924Y0108731D02*
X0196950Y0108731D01*
X0196950Y0109230D02*
X0252250Y0109230D01*
X0252250Y0109728D02*
X0196579Y0109728D01*
X0196935Y0110227D02*
X0252250Y0110227D01*
X0252250Y0110725D02*
X0196950Y0110725D01*
X0196950Y0111224D02*
X0252250Y0111224D01*
X0252250Y0111722D02*
X0196950Y0111722D01*
X0196587Y0112221D02*
X0252250Y0112221D01*
X0252250Y0112720D02*
X0196088Y0112720D01*
X0193912Y0112720D02*
X0148927Y0112720D01*
X0149426Y0113218D02*
X0252250Y0113218D01*
X0252250Y0113717D02*
X0149450Y0113717D01*
X0149450Y0113242D02*
X0148308Y0112100D01*
X0146692Y0112100D01*
X0145550Y0113242D01*
X0145550Y0114858D01*
X0146692Y0116000D01*
X0148308Y0116000D01*
X0149450Y0114858D01*
X0149450Y0113242D01*
X0149450Y0114215D02*
X0252250Y0114215D01*
X0252250Y0114714D02*
X0149450Y0114714D01*
X0149096Y0115212D02*
X0252250Y0115212D01*
X0252250Y0115711D02*
X0148597Y0115711D01*
X0146403Y0115711D02*
X0129597Y0115711D01*
X0129308Y0116000D02*
X0130450Y0114858D01*
X0130450Y0113242D01*
X0129308Y0112100D01*
X0127692Y0112100D01*
X0126550Y0113242D01*
X0126550Y0114858D01*
X0127692Y0116000D01*
X0129308Y0116000D01*
X0130096Y0115212D02*
X0145904Y0115212D01*
X0145550Y0114714D02*
X0130450Y0114714D01*
X0130450Y0114215D02*
X0145550Y0114215D01*
X0145550Y0113717D02*
X0130450Y0113717D01*
X0130426Y0113218D02*
X0145574Y0113218D01*
X0146073Y0112720D02*
X0129927Y0112720D01*
X0129429Y0112221D02*
X0146571Y0112221D01*
X0148429Y0112221D02*
X0193413Y0112221D01*
X0196050Y0105242D02*
X0084955Y0105242D01*
X0085939Y0104743D02*
X0087357Y0104743D01*
X0086787Y0104245D02*
X0086496Y0104245D01*
X0082061Y0104743D02*
X0005750Y0104743D01*
X0005750Y0104245D02*
X0081504Y0104245D01*
X0081144Y0103746D02*
X0005750Y0103746D01*
X0005750Y0103248D02*
X0080906Y0103248D01*
X0083750Y0101752D02*
X0084250Y0101752D01*
X0084250Y0101254D02*
X0083750Y0101254D01*
X0083750Y0100755D02*
X0084250Y0100755D01*
X0084250Y0100257D02*
X0083750Y0100257D01*
X0083750Y0099758D02*
X0084250Y0099758D01*
X0084250Y0099260D02*
X0083750Y0099260D01*
X0083750Y0098761D02*
X0084250Y0098761D01*
X0084468Y0098761D02*
X0129031Y0098761D01*
X0128550Y0099242D02*
X0129692Y0098100D01*
X0131308Y0098100D01*
X0132450Y0099242D01*
X0132450Y0100858D01*
X0131308Y0102000D01*
X0129692Y0102000D01*
X0128550Y0100858D01*
X0128550Y0099242D01*
X0128550Y0099260D02*
X0100409Y0099260D01*
X0101116Y0099758D02*
X0128550Y0099758D01*
X0128550Y0100257D02*
X0101615Y0100257D01*
X0101837Y0100755D02*
X0128550Y0100755D01*
X0128946Y0101254D02*
X0102044Y0101254D01*
X0102117Y0101752D02*
X0129445Y0101752D01*
X0131555Y0101752D02*
X0196050Y0101752D01*
X0196050Y0102251D02*
X0102117Y0102251D01*
X0102084Y0102749D02*
X0196050Y0102749D01*
X0196050Y0103248D02*
X0101878Y0103248D01*
X0101671Y0103746D02*
X0196439Y0103746D01*
X0196050Y0104245D02*
X0101213Y0104245D01*
X0100643Y0104743D02*
X0196050Y0104743D01*
X0199561Y0103746D02*
X0252250Y0103746D01*
X0252250Y0103248D02*
X0199950Y0103248D01*
X0199950Y0102749D02*
X0252250Y0102749D01*
X0252250Y0102251D02*
X0199950Y0102251D01*
X0199950Y0101752D02*
X0252250Y0101752D01*
X0252250Y0101254D02*
X0199461Y0101254D01*
X0198963Y0100755D02*
X0252250Y0100755D01*
X0252250Y0100257D02*
X0132450Y0100257D01*
X0132450Y0100755D02*
X0197037Y0100755D01*
X0196539Y0101254D02*
X0132054Y0101254D01*
X0132450Y0099758D02*
X0160951Y0099758D01*
X0160452Y0099260D02*
X0132450Y0099260D01*
X0131969Y0098761D02*
X0160050Y0098761D01*
X0160050Y0098263D02*
X0131470Y0098263D01*
X0129530Y0098263D02*
X0005750Y0098263D01*
X0005750Y0098761D02*
X0083532Y0098761D01*
X0085794Y0099260D02*
X0087591Y0099260D01*
X0086884Y0099758D02*
X0086399Y0099758D01*
X0090409Y0099260D02*
X0092591Y0099260D01*
X0091884Y0099758D02*
X0091116Y0099758D01*
X0095409Y0099260D02*
X0097591Y0099260D01*
X0096884Y0099758D02*
X0096116Y0099758D01*
X0096213Y0104245D02*
X0096787Y0104245D01*
X0097357Y0104743D02*
X0095643Y0104743D01*
X0092357Y0104743D02*
X0090643Y0104743D01*
X0091213Y0104245D02*
X0091787Y0104245D01*
X0126574Y0113218D02*
X0005750Y0113218D01*
X0005750Y0112720D02*
X0127073Y0112720D01*
X0127571Y0112221D02*
X0005750Y0112221D01*
X0005750Y0113717D02*
X0126550Y0113717D01*
X0126550Y0114215D02*
X0005750Y0114215D01*
X0005750Y0114714D02*
X0126550Y0114714D01*
X0126904Y0115212D02*
X0005750Y0115212D01*
X0005750Y0115711D02*
X0127403Y0115711D01*
X0155550Y0122742D02*
X0156692Y0121600D01*
X0158308Y0121600D01*
X0159450Y0122742D01*
X0159450Y0124358D01*
X0158308Y0125500D01*
X0156692Y0125500D01*
X0155550Y0124358D01*
X0155550Y0122742D01*
X0155603Y0122690D02*
X0005750Y0122690D01*
X0005750Y0123188D02*
X0155550Y0123188D01*
X0155550Y0123687D02*
X0005750Y0123687D01*
X0005750Y0124185D02*
X0155550Y0124185D01*
X0155876Y0124684D02*
X0005750Y0124684D01*
X0005750Y0125182D02*
X0156375Y0125182D01*
X0158625Y0125182D02*
X0232497Y0125182D01*
X0232290Y0124684D02*
X0159124Y0124684D01*
X0159450Y0124185D02*
X0232100Y0124185D01*
X0232100Y0124225D02*
X0232100Y0122276D01*
X0232846Y0120475D01*
X0234225Y0119097D01*
X0236025Y0118351D01*
X0237975Y0118351D01*
X0239775Y0119097D01*
X0241154Y0120475D01*
X0241900Y0122276D01*
X0241900Y0124225D01*
X0241154Y0126026D01*
X0239775Y0127404D01*
X0237975Y0128150D01*
X0236025Y0128150D01*
X0234225Y0127404D01*
X0232846Y0126026D01*
X0232100Y0124225D01*
X0232100Y0123687D02*
X0159450Y0123687D01*
X0159450Y0123188D02*
X0232100Y0123188D01*
X0232100Y0122690D02*
X0159397Y0122690D01*
X0158899Y0122191D02*
X0232136Y0122191D01*
X0232342Y0121693D02*
X0158400Y0121693D01*
X0156600Y0121693D02*
X0005750Y0121693D01*
X0005750Y0122191D02*
X0156101Y0122191D01*
X0163049Y0099758D02*
X0252250Y0099758D01*
X0252250Y0099260D02*
X0163548Y0099260D01*
X0163950Y0098761D02*
X0252250Y0098761D01*
X0252250Y0098263D02*
X0163950Y0098263D01*
X0163950Y0097764D02*
X0171456Y0097764D01*
X0170958Y0097266D02*
X0163950Y0097266D01*
X0163475Y0096767D02*
X0170550Y0096767D01*
X0170550Y0096269D02*
X0162976Y0096269D01*
X0182009Y0086298D02*
X0182491Y0086298D01*
X0182483Y0082809D02*
X0182017Y0082809D01*
X0199950Y0104245D02*
X0252250Y0104245D01*
X0252250Y0104743D02*
X0199950Y0104743D01*
X0232549Y0121194D02*
X0005750Y0121194D01*
X0005750Y0120696D02*
X0232755Y0120696D01*
X0233125Y0120197D02*
X0005750Y0120197D01*
X0005750Y0119699D02*
X0233623Y0119699D01*
X0234122Y0119200D02*
X0005750Y0119200D01*
X0005750Y0118702D02*
X0235179Y0118702D01*
X0238821Y0118702D02*
X0252250Y0118702D01*
X0252250Y0119200D02*
X0239878Y0119200D01*
X0240377Y0119699D02*
X0252250Y0119699D01*
X0252250Y0120197D02*
X0240875Y0120197D01*
X0241245Y0120696D02*
X0252250Y0120696D01*
X0252250Y0121194D02*
X0241451Y0121194D01*
X0241658Y0121693D02*
X0252250Y0121693D01*
X0252250Y0122191D02*
X0241864Y0122191D01*
X0241900Y0122690D02*
X0252250Y0122690D01*
X0252250Y0123188D02*
X0241900Y0123188D01*
X0241900Y0123687D02*
X0252250Y0123687D01*
X0252250Y0124185D02*
X0241900Y0124185D01*
X0241710Y0124684D02*
X0252250Y0124684D01*
X0252250Y0125182D02*
X0241503Y0125182D01*
X0241297Y0125681D02*
X0252250Y0125681D01*
X0252250Y0126179D02*
X0241001Y0126179D01*
X0240502Y0126678D02*
X0252250Y0126678D01*
X0252250Y0127176D02*
X0240004Y0127176D01*
X0239123Y0127675D02*
X0251900Y0127675D01*
X0251402Y0128173D02*
X0006598Y0128173D01*
X0006100Y0127675D02*
X0234877Y0127675D01*
X0233996Y0127176D02*
X0005750Y0127176D01*
X0005750Y0126678D02*
X0233498Y0126678D01*
X0232999Y0126179D02*
X0005750Y0126179D01*
X0005750Y0125681D02*
X0232703Y0125681D01*
X0249408Y0130167D02*
X0008592Y0130167D01*
X0008094Y0129669D02*
X0249906Y0129669D01*
X0250405Y0129170D02*
X0007595Y0129170D01*
X0007097Y0128672D02*
X0250903Y0128672D01*
X0252250Y0118203D02*
X0005750Y0118203D01*
X0005750Y0117705D02*
X0252250Y0117705D01*
X0252250Y0117206D02*
X0005750Y0117206D01*
X0005750Y0116708D02*
X0252250Y0116708D01*
X0252250Y0116209D02*
X0005750Y0116209D01*
D15*
X0007000Y0117050D03*
X0019000Y0129050D03*
X0044000Y0129050D03*
X0069000Y0129050D03*
X0094000Y0129050D03*
X0119000Y0129050D03*
X0128500Y0118050D03*
X0128500Y0114050D03*
X0147500Y0114050D03*
X0147500Y0118050D03*
X0157500Y0123550D03*
X0169000Y0129050D03*
X0144000Y0129050D03*
X0179000Y0108050D03*
X0189000Y0108050D03*
X0195000Y0108550D03*
X0195000Y0111050D03*
X0203000Y0115050D03*
X0203000Y0118050D03*
X0207000Y0118050D03*
X0207000Y0115050D03*
X0199500Y0121550D03*
X0195000Y0121550D03*
X0194000Y0129050D03*
X0217000Y0121550D03*
X0219000Y0129050D03*
X0248000Y0129050D03*
X0251000Y0117050D03*
X0232500Y0109550D03*
X0221000Y0109550D03*
X0208500Y0107050D03*
X0206000Y0107050D03*
X0198000Y0105050D03*
X0194000Y0103050D03*
X0198000Y0102550D03*
X0208000Y0100050D03*
X0208000Y0094050D03*
X0202000Y0092050D03*
X0199500Y0090550D03*
X0194500Y0090550D03*
X0192000Y0089550D03*
X0190000Y0087550D03*
X0188500Y0085050D03*
X0183500Y0084550D03*
X0181000Y0084550D03*
X0172500Y0096050D03*
X0162000Y0098050D03*
X0154500Y0095050D03*
X0150500Y0096050D03*
X0149000Y0093050D03*
X0141500Y0095550D03*
X0139000Y0101050D03*
X0130500Y0100050D03*
X0153500Y0087550D03*
X0157500Y0085550D03*
X0166500Y0071050D03*
X0180000Y0071050D03*
X0184000Y0067050D03*
X0188000Y0071050D03*
X0188000Y0063050D03*
X0180000Y0063050D03*
X0188000Y0057050D03*
X0182000Y0049550D03*
X0184500Y0049050D03*
X0176500Y0049550D03*
X0174000Y0048550D03*
X0163000Y0047050D03*
X0168000Y0038050D03*
X0171500Y0038050D03*
X0174500Y0037550D03*
X0191000Y0038050D03*
X0198500Y0046550D03*
X0201500Y0053550D03*
X0201500Y0056550D03*
X0202000Y0071550D03*
X0219000Y0075050D03*
X0221000Y0079550D03*
X0221000Y0084550D03*
X0221000Y0089550D03*
X0221000Y0094550D03*
X0221000Y0099550D03*
X0232500Y0099550D03*
X0232500Y0094550D03*
X0232500Y0089550D03*
X0232500Y0084550D03*
X0232500Y0079550D03*
X0232500Y0074550D03*
X0232500Y0069550D03*
X0232500Y0064550D03*
X0232500Y0059550D03*
X0232500Y0054550D03*
X0232500Y0049550D03*
X0232500Y0044550D03*
X0232500Y0039550D03*
X0232500Y0034550D03*
X0232500Y0029550D03*
X0232500Y0024550D03*
X0232500Y0019550D03*
X0221000Y0019550D03*
X0221000Y0024550D03*
X0221000Y0029550D03*
X0217000Y0037050D03*
X0221000Y0039550D03*
X0215000Y0043050D03*
X0251000Y0042050D03*
X0207000Y0019550D03*
X0211000Y0005050D03*
X0248000Y0005050D03*
X0251000Y0017050D03*
X0166500Y0056550D03*
X0158500Y0058050D03*
X0093500Y0044550D03*
X0088500Y0044550D03*
X0083500Y0044550D03*
X0073000Y0044550D03*
X0069000Y0042050D03*
X0068000Y0051550D03*
X0071000Y0057050D03*
X0071000Y0062550D03*
X0073000Y0065050D03*
X0079500Y0067550D03*
X0070000Y0072550D03*
X0066000Y0075050D03*
X0070000Y0079050D03*
X0074500Y0080050D03*
X0078000Y0077550D03*
X0066500Y0082550D03*
X0057000Y0090550D03*
X0053000Y0090550D03*
X0044500Y0092050D03*
X0044500Y0097050D03*
X0053000Y0109550D03*
X0057000Y0109550D03*
X0029000Y0082050D03*
X0029000Y0077050D03*
X0029000Y0072050D03*
X0029000Y0067050D03*
X0029000Y0062050D03*
X0029000Y0057050D03*
X0029000Y0052050D03*
X0044500Y0047050D03*
X0044500Y0042050D03*
X0053000Y0033550D03*
X0057000Y0033550D03*
X0078500Y0030550D03*
X0083500Y0030550D03*
X0088500Y0030550D03*
X0093500Y0030550D03*
X0057000Y0052550D03*
X0053000Y0052550D03*
X0053000Y0071550D03*
X0057000Y0071550D03*
X0007000Y0067050D03*
X0007000Y0092050D03*
X0007000Y0042050D03*
X0007000Y0017050D03*
X0019000Y0005050D03*
X0044000Y0005050D03*
X0069000Y0005050D03*
X0094000Y0005050D03*
X0119000Y0005050D03*
X0139500Y0012050D03*
X0148000Y0015550D03*
X0139500Y0018550D03*
X0150000Y0005050D03*
X0251000Y0067050D03*
X0251000Y0092050D03*
X0185000Y0099550D03*
X0166500Y0105550D03*
X0159500Y0105550D03*
M02*
