G75*
%MOIN*%
%OFA0B0*%
%FSLAX25Y25*%
%IPPOS*%
%LPD*%
%AMOC8*
5,1,8,0,0,1.08239X$1,22.5*
%
%ADD10R,0.02362X0.02362*%
%ADD11R,0.03543X0.03937*%
%ADD12R,0.03150X0.03150*%
%ADD13R,0.10630X0.04724*%
%ADD14C,0.00157*%
%ADD15C,0.01260*%
%ADD16R,0.03346X0.01181*%
%ADD17R,0.04134X0.05118*%
%ADD18R,0.01575X0.05512*%
%ADD19R,0.05906X0.06102*%
%ADD20R,0.01969X0.02362*%
%ADD21R,0.03937X0.03543*%
%ADD22R,0.11000X0.03000*%
%ADD23R,0.04724X0.02165*%
%ADD24R,0.02165X0.04724*%
%ADD25R,0.02362X0.03543*%
D10*
X0142031Y0055050D03*
X0145969Y0055050D03*
X0145969Y0060050D03*
X0142031Y0060050D03*
X0142031Y0065050D03*
X0145969Y0065050D03*
X0145969Y0070050D03*
X0142031Y0070050D03*
X0142031Y0075050D03*
X0145969Y0075050D03*
X0145969Y0080050D03*
X0142031Y0080050D03*
X0142031Y0085050D03*
X0145969Y0085050D03*
X0145969Y0090050D03*
X0142031Y0090050D03*
X0141500Y0104081D03*
X0137000Y0104081D03*
X0132500Y0104081D03*
X0132500Y0108019D03*
X0137000Y0108019D03*
X0141500Y0108019D03*
X0176000Y0099019D03*
X0176000Y0095081D03*
X0208000Y0079019D03*
X0212000Y0079019D03*
X0216000Y0079019D03*
X0216000Y0075081D03*
X0212000Y0075081D03*
X0208000Y0075081D03*
X0181200Y0046619D03*
X0177500Y0046619D03*
X0177500Y0042681D03*
X0181200Y0042681D03*
X0168000Y0041081D03*
X0168000Y0045019D03*
X0158500Y0050081D03*
X0158500Y0054019D03*
X0208031Y0043050D03*
X0211969Y0043050D03*
X0211969Y0039050D03*
X0208031Y0039050D03*
D11*
X0213000Y0099507D03*
X0213000Y0106593D03*
X0151000Y0113507D03*
X0151000Y0120593D03*
X0125000Y0120593D03*
X0125000Y0113507D03*
D12*
X0209000Y0091003D03*
X0214500Y0091003D03*
X0224126Y0089550D03*
X0229126Y0089550D03*
X0229126Y0094550D03*
X0224126Y0094550D03*
X0224126Y0099550D03*
X0229126Y0099550D03*
X0229126Y0104550D03*
X0224126Y0104550D03*
X0224126Y0109550D03*
X0229126Y0109550D03*
X0229126Y0114550D03*
X0224126Y0114550D03*
X0214500Y0085097D03*
X0209000Y0085097D03*
X0224126Y0084550D03*
X0229126Y0084550D03*
X0229126Y0079550D03*
X0224126Y0079550D03*
X0224126Y0074550D03*
X0229126Y0074550D03*
X0229126Y0069550D03*
X0224126Y0069550D03*
X0224126Y0064550D03*
X0229126Y0064550D03*
X0229126Y0059550D03*
X0224126Y0059550D03*
X0224126Y0054550D03*
X0229126Y0054550D03*
X0229126Y0049550D03*
X0224126Y0049550D03*
X0224126Y0044550D03*
X0229126Y0044550D03*
X0229126Y0039550D03*
X0224126Y0039550D03*
X0224126Y0034550D03*
X0229126Y0034550D03*
X0229126Y0029550D03*
X0224126Y0029550D03*
X0224126Y0024550D03*
X0229126Y0024550D03*
X0229126Y0019550D03*
X0224126Y0019550D03*
D13*
X0227354Y0009668D03*
X0246646Y0009668D03*
X0246646Y0124432D03*
X0227354Y0124432D03*
D14*
X0193921Y0082227D02*
X0193921Y0078939D01*
X0193921Y0082227D02*
X0194551Y0082227D01*
X0194551Y0078939D01*
X0193921Y0078939D01*
X0193921Y0079095D02*
X0194551Y0079095D01*
X0194551Y0079251D02*
X0193921Y0079251D01*
X0193921Y0079407D02*
X0194551Y0079407D01*
X0194551Y0079563D02*
X0193921Y0079563D01*
X0193921Y0079719D02*
X0194551Y0079719D01*
X0194551Y0079875D02*
X0193921Y0079875D01*
X0193921Y0080031D02*
X0194551Y0080031D01*
X0194551Y0080187D02*
X0193921Y0080187D01*
X0193921Y0080343D02*
X0194551Y0080343D01*
X0194551Y0080499D02*
X0193921Y0080499D01*
X0193921Y0080655D02*
X0194551Y0080655D01*
X0194551Y0080811D02*
X0193921Y0080811D01*
X0193921Y0080967D02*
X0194551Y0080967D01*
X0194551Y0081123D02*
X0193921Y0081123D01*
X0193921Y0081279D02*
X0194551Y0081279D01*
X0194551Y0081435D02*
X0193921Y0081435D01*
X0193921Y0081591D02*
X0194551Y0081591D01*
X0194551Y0081747D02*
X0193921Y0081747D01*
X0193921Y0081903D02*
X0194551Y0081903D01*
X0194551Y0082059D02*
X0193921Y0082059D01*
X0193921Y0082215D02*
X0194551Y0082215D01*
X0192346Y0082227D02*
X0192346Y0078939D01*
X0192346Y0082227D02*
X0192976Y0082227D01*
X0192976Y0078939D01*
X0192346Y0078939D01*
X0192346Y0079095D02*
X0192976Y0079095D01*
X0192976Y0079251D02*
X0192346Y0079251D01*
X0192346Y0079407D02*
X0192976Y0079407D01*
X0192976Y0079563D02*
X0192346Y0079563D01*
X0192346Y0079719D02*
X0192976Y0079719D01*
X0192976Y0079875D02*
X0192346Y0079875D01*
X0192346Y0080031D02*
X0192976Y0080031D01*
X0192976Y0080187D02*
X0192346Y0080187D01*
X0192346Y0080343D02*
X0192976Y0080343D01*
X0192976Y0080499D02*
X0192346Y0080499D01*
X0192346Y0080655D02*
X0192976Y0080655D01*
X0192976Y0080811D02*
X0192346Y0080811D01*
X0192346Y0080967D02*
X0192976Y0080967D01*
X0192976Y0081123D02*
X0192346Y0081123D01*
X0192346Y0081279D02*
X0192976Y0081279D01*
X0192976Y0081435D02*
X0192346Y0081435D01*
X0192346Y0081591D02*
X0192976Y0081591D01*
X0192976Y0081747D02*
X0192346Y0081747D01*
X0192346Y0081903D02*
X0192976Y0081903D01*
X0192976Y0082059D02*
X0192346Y0082059D01*
X0192346Y0082215D02*
X0192976Y0082215D01*
X0190772Y0082227D02*
X0190772Y0078939D01*
X0190772Y0082227D02*
X0191402Y0082227D01*
X0191402Y0078939D01*
X0190772Y0078939D01*
X0190772Y0079095D02*
X0191402Y0079095D01*
X0191402Y0079251D02*
X0190772Y0079251D01*
X0190772Y0079407D02*
X0191402Y0079407D01*
X0191402Y0079563D02*
X0190772Y0079563D01*
X0190772Y0079719D02*
X0191402Y0079719D01*
X0191402Y0079875D02*
X0190772Y0079875D01*
X0190772Y0080031D02*
X0191402Y0080031D01*
X0191402Y0080187D02*
X0190772Y0080187D01*
X0190772Y0080343D02*
X0191402Y0080343D01*
X0191402Y0080499D02*
X0190772Y0080499D01*
X0190772Y0080655D02*
X0191402Y0080655D01*
X0191402Y0080811D02*
X0190772Y0080811D01*
X0190772Y0080967D02*
X0191402Y0080967D01*
X0191402Y0081123D02*
X0190772Y0081123D01*
X0190772Y0081279D02*
X0191402Y0081279D01*
X0191402Y0081435D02*
X0190772Y0081435D01*
X0190772Y0081591D02*
X0191402Y0081591D01*
X0191402Y0081747D02*
X0190772Y0081747D01*
X0190772Y0081903D02*
X0191402Y0081903D01*
X0191402Y0082059D02*
X0190772Y0082059D01*
X0190772Y0082215D02*
X0191402Y0082215D01*
X0189197Y0082227D02*
X0189197Y0078939D01*
X0189197Y0082227D02*
X0189827Y0082227D01*
X0189827Y0078939D01*
X0189197Y0078939D01*
X0189197Y0079095D02*
X0189827Y0079095D01*
X0189827Y0079251D02*
X0189197Y0079251D01*
X0189197Y0079407D02*
X0189827Y0079407D01*
X0189827Y0079563D02*
X0189197Y0079563D01*
X0189197Y0079719D02*
X0189827Y0079719D01*
X0189827Y0079875D02*
X0189197Y0079875D01*
X0189197Y0080031D02*
X0189827Y0080031D01*
X0189827Y0080187D02*
X0189197Y0080187D01*
X0189197Y0080343D02*
X0189827Y0080343D01*
X0189827Y0080499D02*
X0189197Y0080499D01*
X0189197Y0080655D02*
X0189827Y0080655D01*
X0189827Y0080811D02*
X0189197Y0080811D01*
X0189197Y0080967D02*
X0189827Y0080967D01*
X0189827Y0081123D02*
X0189197Y0081123D01*
X0189197Y0081279D02*
X0189827Y0081279D01*
X0189827Y0081435D02*
X0189197Y0081435D01*
X0189197Y0081591D02*
X0189827Y0081591D01*
X0189827Y0081747D02*
X0189197Y0081747D01*
X0189197Y0081903D02*
X0189827Y0081903D01*
X0189827Y0082059D02*
X0189197Y0082059D01*
X0189197Y0082215D02*
X0189827Y0082215D01*
X0187622Y0082227D02*
X0187622Y0078939D01*
X0187622Y0082227D02*
X0188252Y0082227D01*
X0188252Y0078939D01*
X0187622Y0078939D01*
X0187622Y0079095D02*
X0188252Y0079095D01*
X0188252Y0079251D02*
X0187622Y0079251D01*
X0187622Y0079407D02*
X0188252Y0079407D01*
X0188252Y0079563D02*
X0187622Y0079563D01*
X0187622Y0079719D02*
X0188252Y0079719D01*
X0188252Y0079875D02*
X0187622Y0079875D01*
X0187622Y0080031D02*
X0188252Y0080031D01*
X0188252Y0080187D02*
X0187622Y0080187D01*
X0187622Y0080343D02*
X0188252Y0080343D01*
X0188252Y0080499D02*
X0187622Y0080499D01*
X0187622Y0080655D02*
X0188252Y0080655D01*
X0188252Y0080811D02*
X0187622Y0080811D01*
X0187622Y0080967D02*
X0188252Y0080967D01*
X0188252Y0081123D02*
X0187622Y0081123D01*
X0187622Y0081279D02*
X0188252Y0081279D01*
X0188252Y0081435D02*
X0187622Y0081435D01*
X0187622Y0081591D02*
X0188252Y0081591D01*
X0188252Y0081747D02*
X0187622Y0081747D01*
X0187622Y0081903D02*
X0188252Y0081903D01*
X0188252Y0082059D02*
X0187622Y0082059D01*
X0187622Y0082215D02*
X0188252Y0082215D01*
X0186047Y0082227D02*
X0186047Y0078939D01*
X0186047Y0082227D02*
X0186677Y0082227D01*
X0186677Y0078939D01*
X0186047Y0078939D01*
X0186047Y0079095D02*
X0186677Y0079095D01*
X0186677Y0079251D02*
X0186047Y0079251D01*
X0186047Y0079407D02*
X0186677Y0079407D01*
X0186677Y0079563D02*
X0186047Y0079563D01*
X0186047Y0079719D02*
X0186677Y0079719D01*
X0186677Y0079875D02*
X0186047Y0079875D01*
X0186047Y0080031D02*
X0186677Y0080031D01*
X0186677Y0080187D02*
X0186047Y0080187D01*
X0186047Y0080343D02*
X0186677Y0080343D01*
X0186677Y0080499D02*
X0186047Y0080499D01*
X0186047Y0080655D02*
X0186677Y0080655D01*
X0186677Y0080811D02*
X0186047Y0080811D01*
X0186047Y0080967D02*
X0186677Y0080967D01*
X0186677Y0081123D02*
X0186047Y0081123D01*
X0186047Y0081279D02*
X0186677Y0081279D01*
X0186677Y0081435D02*
X0186047Y0081435D01*
X0186047Y0081591D02*
X0186677Y0081591D01*
X0186677Y0081747D02*
X0186047Y0081747D01*
X0186047Y0081903D02*
X0186677Y0081903D01*
X0186677Y0082059D02*
X0186047Y0082059D01*
X0186047Y0082215D02*
X0186677Y0082215D01*
X0184472Y0082227D02*
X0184472Y0078939D01*
X0184472Y0082227D02*
X0185102Y0082227D01*
X0185102Y0078939D01*
X0184472Y0078939D01*
X0184472Y0079095D02*
X0185102Y0079095D01*
X0185102Y0079251D02*
X0184472Y0079251D01*
X0184472Y0079407D02*
X0185102Y0079407D01*
X0185102Y0079563D02*
X0184472Y0079563D01*
X0184472Y0079719D02*
X0185102Y0079719D01*
X0185102Y0079875D02*
X0184472Y0079875D01*
X0184472Y0080031D02*
X0185102Y0080031D01*
X0185102Y0080187D02*
X0184472Y0080187D01*
X0184472Y0080343D02*
X0185102Y0080343D01*
X0185102Y0080499D02*
X0184472Y0080499D01*
X0184472Y0080655D02*
X0185102Y0080655D01*
X0185102Y0080811D02*
X0184472Y0080811D01*
X0184472Y0080967D02*
X0185102Y0080967D01*
X0185102Y0081123D02*
X0184472Y0081123D01*
X0184472Y0081279D02*
X0185102Y0081279D01*
X0185102Y0081435D02*
X0184472Y0081435D01*
X0184472Y0081591D02*
X0185102Y0081591D01*
X0185102Y0081747D02*
X0184472Y0081747D01*
X0184472Y0081903D02*
X0185102Y0081903D01*
X0185102Y0082059D02*
X0184472Y0082059D01*
X0184472Y0082215D02*
X0185102Y0082215D01*
X0182898Y0082227D02*
X0182898Y0078939D01*
X0182898Y0082227D02*
X0183528Y0082227D01*
X0183528Y0078939D01*
X0182898Y0078939D01*
X0182898Y0079095D02*
X0183528Y0079095D01*
X0183528Y0079251D02*
X0182898Y0079251D01*
X0182898Y0079407D02*
X0183528Y0079407D01*
X0183528Y0079563D02*
X0182898Y0079563D01*
X0182898Y0079719D02*
X0183528Y0079719D01*
X0183528Y0079875D02*
X0182898Y0079875D01*
X0182898Y0080031D02*
X0183528Y0080031D01*
X0183528Y0080187D02*
X0182898Y0080187D01*
X0182898Y0080343D02*
X0183528Y0080343D01*
X0183528Y0080499D02*
X0182898Y0080499D01*
X0182898Y0080655D02*
X0183528Y0080655D01*
X0183528Y0080811D02*
X0182898Y0080811D01*
X0182898Y0080967D02*
X0183528Y0080967D01*
X0183528Y0081123D02*
X0182898Y0081123D01*
X0182898Y0081279D02*
X0183528Y0081279D01*
X0183528Y0081435D02*
X0182898Y0081435D01*
X0182898Y0081591D02*
X0183528Y0081591D01*
X0183528Y0081747D02*
X0182898Y0081747D01*
X0182898Y0081903D02*
X0183528Y0081903D01*
X0183528Y0082059D02*
X0182898Y0082059D01*
X0182898Y0082215D02*
X0183528Y0082215D01*
X0181323Y0082227D02*
X0181323Y0078939D01*
X0181323Y0082227D02*
X0181953Y0082227D01*
X0181953Y0078939D01*
X0181323Y0078939D01*
X0181323Y0079095D02*
X0181953Y0079095D01*
X0181953Y0079251D02*
X0181323Y0079251D01*
X0181323Y0079407D02*
X0181953Y0079407D01*
X0181953Y0079563D02*
X0181323Y0079563D01*
X0181323Y0079719D02*
X0181953Y0079719D01*
X0181953Y0079875D02*
X0181323Y0079875D01*
X0181323Y0080031D02*
X0181953Y0080031D01*
X0181953Y0080187D02*
X0181323Y0080187D01*
X0181323Y0080343D02*
X0181953Y0080343D01*
X0181953Y0080499D02*
X0181323Y0080499D01*
X0181323Y0080655D02*
X0181953Y0080655D01*
X0181953Y0080811D02*
X0181323Y0080811D01*
X0181323Y0080967D02*
X0181953Y0080967D01*
X0181953Y0081123D02*
X0181323Y0081123D01*
X0181323Y0081279D02*
X0181953Y0081279D01*
X0181953Y0081435D02*
X0181323Y0081435D01*
X0181323Y0081591D02*
X0181953Y0081591D01*
X0181953Y0081747D02*
X0181323Y0081747D01*
X0181323Y0081903D02*
X0181953Y0081903D01*
X0181953Y0082059D02*
X0181323Y0082059D01*
X0181323Y0082215D02*
X0181953Y0082215D01*
X0179748Y0082227D02*
X0179748Y0078939D01*
X0179748Y0082227D02*
X0180378Y0082227D01*
X0180378Y0078939D01*
X0179748Y0078939D01*
X0179748Y0079095D02*
X0180378Y0079095D01*
X0180378Y0079251D02*
X0179748Y0079251D01*
X0179748Y0079407D02*
X0180378Y0079407D01*
X0180378Y0079563D02*
X0179748Y0079563D01*
X0179748Y0079719D02*
X0180378Y0079719D01*
X0180378Y0079875D02*
X0179748Y0079875D01*
X0179748Y0080031D02*
X0180378Y0080031D01*
X0180378Y0080187D02*
X0179748Y0080187D01*
X0179748Y0080343D02*
X0180378Y0080343D01*
X0180378Y0080499D02*
X0179748Y0080499D01*
X0179748Y0080655D02*
X0180378Y0080655D01*
X0180378Y0080811D02*
X0179748Y0080811D01*
X0179748Y0080967D02*
X0180378Y0080967D01*
X0180378Y0081123D02*
X0179748Y0081123D01*
X0179748Y0081279D02*
X0180378Y0081279D01*
X0180378Y0081435D02*
X0179748Y0081435D01*
X0179748Y0081591D02*
X0180378Y0081591D01*
X0180378Y0081747D02*
X0179748Y0081747D01*
X0179748Y0081903D02*
X0180378Y0081903D01*
X0180378Y0082059D02*
X0179748Y0082059D01*
X0179748Y0082215D02*
X0180378Y0082215D01*
X0178173Y0082227D02*
X0178173Y0078939D01*
X0178173Y0082227D02*
X0178803Y0082227D01*
X0178803Y0078939D01*
X0178173Y0078939D01*
X0178173Y0079095D02*
X0178803Y0079095D01*
X0178803Y0079251D02*
X0178173Y0079251D01*
X0178173Y0079407D02*
X0178803Y0079407D01*
X0178803Y0079563D02*
X0178173Y0079563D01*
X0178173Y0079719D02*
X0178803Y0079719D01*
X0178803Y0079875D02*
X0178173Y0079875D01*
X0178173Y0080031D02*
X0178803Y0080031D01*
X0178803Y0080187D02*
X0178173Y0080187D01*
X0178173Y0080343D02*
X0178803Y0080343D01*
X0178803Y0080499D02*
X0178173Y0080499D01*
X0178173Y0080655D02*
X0178803Y0080655D01*
X0178803Y0080811D02*
X0178173Y0080811D01*
X0178173Y0080967D02*
X0178803Y0080967D01*
X0178803Y0081123D02*
X0178173Y0081123D01*
X0178173Y0081279D02*
X0178803Y0081279D01*
X0178803Y0081435D02*
X0178173Y0081435D01*
X0178173Y0081591D02*
X0178803Y0081591D01*
X0178803Y0081747D02*
X0178173Y0081747D01*
X0178173Y0081903D02*
X0178803Y0081903D01*
X0178803Y0082059D02*
X0178173Y0082059D01*
X0178173Y0082215D02*
X0178803Y0082215D01*
X0176598Y0082227D02*
X0176598Y0078939D01*
X0176598Y0082227D02*
X0177228Y0082227D01*
X0177228Y0078939D01*
X0176598Y0078939D01*
X0176598Y0079095D02*
X0177228Y0079095D01*
X0177228Y0079251D02*
X0176598Y0079251D01*
X0176598Y0079407D02*
X0177228Y0079407D01*
X0177228Y0079563D02*
X0176598Y0079563D01*
X0176598Y0079719D02*
X0177228Y0079719D01*
X0177228Y0079875D02*
X0176598Y0079875D01*
X0176598Y0080031D02*
X0177228Y0080031D01*
X0177228Y0080187D02*
X0176598Y0080187D01*
X0176598Y0080343D02*
X0177228Y0080343D01*
X0177228Y0080499D02*
X0176598Y0080499D01*
X0176598Y0080655D02*
X0177228Y0080655D01*
X0177228Y0080811D02*
X0176598Y0080811D01*
X0176598Y0080967D02*
X0177228Y0080967D01*
X0177228Y0081123D02*
X0176598Y0081123D01*
X0176598Y0081279D02*
X0177228Y0081279D01*
X0177228Y0081435D02*
X0176598Y0081435D01*
X0176598Y0081591D02*
X0177228Y0081591D01*
X0177228Y0081747D02*
X0176598Y0081747D01*
X0176598Y0081903D02*
X0177228Y0081903D01*
X0177228Y0082059D02*
X0176598Y0082059D01*
X0176598Y0082215D02*
X0177228Y0082215D01*
X0175024Y0082227D02*
X0175024Y0078939D01*
X0175024Y0082227D02*
X0175654Y0082227D01*
X0175654Y0078939D01*
X0175024Y0078939D01*
X0175024Y0079095D02*
X0175654Y0079095D01*
X0175654Y0079251D02*
X0175024Y0079251D01*
X0175024Y0079407D02*
X0175654Y0079407D01*
X0175654Y0079563D02*
X0175024Y0079563D01*
X0175024Y0079719D02*
X0175654Y0079719D01*
X0175654Y0079875D02*
X0175024Y0079875D01*
X0175024Y0080031D02*
X0175654Y0080031D01*
X0175654Y0080187D02*
X0175024Y0080187D01*
X0175024Y0080343D02*
X0175654Y0080343D01*
X0175654Y0080499D02*
X0175024Y0080499D01*
X0175024Y0080655D02*
X0175654Y0080655D01*
X0175654Y0080811D02*
X0175024Y0080811D01*
X0175024Y0080967D02*
X0175654Y0080967D01*
X0175654Y0081123D02*
X0175024Y0081123D01*
X0175024Y0081279D02*
X0175654Y0081279D01*
X0175654Y0081435D02*
X0175024Y0081435D01*
X0175024Y0081591D02*
X0175654Y0081591D01*
X0175654Y0081747D02*
X0175024Y0081747D01*
X0175024Y0081903D02*
X0175654Y0081903D01*
X0175654Y0082059D02*
X0175024Y0082059D01*
X0175024Y0082215D02*
X0175654Y0082215D01*
X0173449Y0082227D02*
X0173449Y0078939D01*
X0173449Y0082227D02*
X0174079Y0082227D01*
X0174079Y0078939D01*
X0173449Y0078939D01*
X0173449Y0079095D02*
X0174079Y0079095D01*
X0174079Y0079251D02*
X0173449Y0079251D01*
X0173449Y0079407D02*
X0174079Y0079407D01*
X0174079Y0079563D02*
X0173449Y0079563D01*
X0173449Y0079719D02*
X0174079Y0079719D01*
X0174079Y0079875D02*
X0173449Y0079875D01*
X0173449Y0080031D02*
X0174079Y0080031D01*
X0174079Y0080187D02*
X0173449Y0080187D01*
X0173449Y0080343D02*
X0174079Y0080343D01*
X0174079Y0080499D02*
X0173449Y0080499D01*
X0173449Y0080655D02*
X0174079Y0080655D01*
X0174079Y0080811D02*
X0173449Y0080811D01*
X0173449Y0080967D02*
X0174079Y0080967D01*
X0174079Y0081123D02*
X0173449Y0081123D01*
X0173449Y0081279D02*
X0174079Y0081279D01*
X0174079Y0081435D02*
X0173449Y0081435D01*
X0173449Y0081591D02*
X0174079Y0081591D01*
X0174079Y0081747D02*
X0173449Y0081747D01*
X0173449Y0081903D02*
X0174079Y0081903D01*
X0174079Y0082059D02*
X0173449Y0082059D01*
X0173449Y0082215D02*
X0174079Y0082215D01*
X0172111Y0076971D02*
X0168823Y0076971D01*
X0168823Y0077601D01*
X0172111Y0077601D01*
X0172111Y0076971D01*
X0172111Y0077127D02*
X0168823Y0077127D01*
X0168823Y0077283D02*
X0172111Y0077283D01*
X0172111Y0077439D02*
X0168823Y0077439D01*
X0168823Y0077595D02*
X0172111Y0077595D01*
X0172111Y0075396D02*
X0168823Y0075396D01*
X0168823Y0076026D01*
X0172111Y0076026D01*
X0172111Y0075396D01*
X0172111Y0075552D02*
X0168823Y0075552D01*
X0168823Y0075708D02*
X0172111Y0075708D01*
X0172111Y0075864D02*
X0168823Y0075864D01*
X0168823Y0076020D02*
X0172111Y0076020D01*
X0172111Y0073822D02*
X0168823Y0073822D01*
X0168823Y0074452D01*
X0172111Y0074452D01*
X0172111Y0073822D01*
X0172111Y0073978D02*
X0168823Y0073978D01*
X0168823Y0074134D02*
X0172111Y0074134D01*
X0172111Y0074290D02*
X0168823Y0074290D01*
X0168823Y0074446D02*
X0172111Y0074446D01*
X0172111Y0072247D02*
X0168823Y0072247D01*
X0168823Y0072877D01*
X0172111Y0072877D01*
X0172111Y0072247D01*
X0172111Y0072403D02*
X0168823Y0072403D01*
X0168823Y0072559D02*
X0172111Y0072559D01*
X0172111Y0072715D02*
X0168823Y0072715D01*
X0168823Y0072871D02*
X0172111Y0072871D01*
X0172111Y0070672D02*
X0168823Y0070672D01*
X0168823Y0071302D01*
X0172111Y0071302D01*
X0172111Y0070672D01*
X0172111Y0070828D02*
X0168823Y0070828D01*
X0168823Y0070984D02*
X0172111Y0070984D01*
X0172111Y0071140D02*
X0168823Y0071140D01*
X0168823Y0071296D02*
X0172111Y0071296D01*
X0172111Y0069097D02*
X0168823Y0069097D01*
X0168823Y0069727D01*
X0172111Y0069727D01*
X0172111Y0069097D01*
X0172111Y0069253D02*
X0168823Y0069253D01*
X0168823Y0069409D02*
X0172111Y0069409D01*
X0172111Y0069565D02*
X0168823Y0069565D01*
X0168823Y0069721D02*
X0172111Y0069721D01*
X0172111Y0067522D02*
X0168823Y0067522D01*
X0168823Y0068152D01*
X0172111Y0068152D01*
X0172111Y0067522D01*
X0172111Y0067678D02*
X0168823Y0067678D01*
X0168823Y0067834D02*
X0172111Y0067834D01*
X0172111Y0067990D02*
X0168823Y0067990D01*
X0168823Y0068146D02*
X0172111Y0068146D01*
X0172111Y0065948D02*
X0168823Y0065948D01*
X0168823Y0066578D01*
X0172111Y0066578D01*
X0172111Y0065948D01*
X0172111Y0066104D02*
X0168823Y0066104D01*
X0168823Y0066260D02*
X0172111Y0066260D01*
X0172111Y0066416D02*
X0168823Y0066416D01*
X0168823Y0066572D02*
X0172111Y0066572D01*
X0172111Y0064373D02*
X0168823Y0064373D01*
X0168823Y0065003D01*
X0172111Y0065003D01*
X0172111Y0064373D01*
X0172111Y0064529D02*
X0168823Y0064529D01*
X0168823Y0064685D02*
X0172111Y0064685D01*
X0172111Y0064841D02*
X0168823Y0064841D01*
X0168823Y0064997D02*
X0172111Y0064997D01*
X0172111Y0062798D02*
X0168823Y0062798D01*
X0168823Y0063428D01*
X0172111Y0063428D01*
X0172111Y0062798D01*
X0172111Y0062954D02*
X0168823Y0062954D01*
X0168823Y0063110D02*
X0172111Y0063110D01*
X0172111Y0063266D02*
X0168823Y0063266D01*
X0168823Y0063422D02*
X0172111Y0063422D01*
X0172111Y0061223D02*
X0168823Y0061223D01*
X0168823Y0061853D01*
X0172111Y0061853D01*
X0172111Y0061223D01*
X0172111Y0061379D02*
X0168823Y0061379D01*
X0168823Y0061535D02*
X0172111Y0061535D01*
X0172111Y0061691D02*
X0168823Y0061691D01*
X0168823Y0061847D02*
X0172111Y0061847D01*
X0172111Y0059648D02*
X0168823Y0059648D01*
X0168823Y0060278D01*
X0172111Y0060278D01*
X0172111Y0059648D01*
X0172111Y0059804D02*
X0168823Y0059804D01*
X0168823Y0059960D02*
X0172111Y0059960D01*
X0172111Y0060116D02*
X0168823Y0060116D01*
X0168823Y0060272D02*
X0172111Y0060272D01*
X0172111Y0058074D02*
X0168823Y0058074D01*
X0168823Y0058704D01*
X0172111Y0058704D01*
X0172111Y0058074D01*
X0172111Y0058230D02*
X0168823Y0058230D01*
X0168823Y0058386D02*
X0172111Y0058386D01*
X0172111Y0058542D02*
X0168823Y0058542D01*
X0168823Y0058698D02*
X0172111Y0058698D01*
X0172111Y0056499D02*
X0168823Y0056499D01*
X0168823Y0057129D01*
X0172111Y0057129D01*
X0172111Y0056499D01*
X0172111Y0056655D02*
X0168823Y0056655D01*
X0168823Y0056811D02*
X0172111Y0056811D01*
X0172111Y0056967D02*
X0168823Y0056967D01*
X0168823Y0057123D02*
X0172111Y0057123D01*
X0174079Y0055161D02*
X0174079Y0051873D01*
X0173449Y0051873D01*
X0173449Y0055161D01*
X0174079Y0055161D01*
X0174079Y0052029D02*
X0173449Y0052029D01*
X0173449Y0052185D02*
X0174079Y0052185D01*
X0174079Y0052341D02*
X0173449Y0052341D01*
X0173449Y0052497D02*
X0174079Y0052497D01*
X0174079Y0052653D02*
X0173449Y0052653D01*
X0173449Y0052809D02*
X0174079Y0052809D01*
X0174079Y0052965D02*
X0173449Y0052965D01*
X0173449Y0053121D02*
X0174079Y0053121D01*
X0174079Y0053277D02*
X0173449Y0053277D01*
X0173449Y0053433D02*
X0174079Y0053433D01*
X0174079Y0053589D02*
X0173449Y0053589D01*
X0173449Y0053745D02*
X0174079Y0053745D01*
X0174079Y0053901D02*
X0173449Y0053901D01*
X0173449Y0054057D02*
X0174079Y0054057D01*
X0174079Y0054213D02*
X0173449Y0054213D01*
X0173449Y0054369D02*
X0174079Y0054369D01*
X0174079Y0054525D02*
X0173449Y0054525D01*
X0173449Y0054681D02*
X0174079Y0054681D01*
X0174079Y0054837D02*
X0173449Y0054837D01*
X0173449Y0054993D02*
X0174079Y0054993D01*
X0174079Y0055149D02*
X0173449Y0055149D01*
X0175654Y0055161D02*
X0175654Y0051873D01*
X0175024Y0051873D01*
X0175024Y0055161D01*
X0175654Y0055161D01*
X0175654Y0052029D02*
X0175024Y0052029D01*
X0175024Y0052185D02*
X0175654Y0052185D01*
X0175654Y0052341D02*
X0175024Y0052341D01*
X0175024Y0052497D02*
X0175654Y0052497D01*
X0175654Y0052653D02*
X0175024Y0052653D01*
X0175024Y0052809D02*
X0175654Y0052809D01*
X0175654Y0052965D02*
X0175024Y0052965D01*
X0175024Y0053121D02*
X0175654Y0053121D01*
X0175654Y0053277D02*
X0175024Y0053277D01*
X0175024Y0053433D02*
X0175654Y0053433D01*
X0175654Y0053589D02*
X0175024Y0053589D01*
X0175024Y0053745D02*
X0175654Y0053745D01*
X0175654Y0053901D02*
X0175024Y0053901D01*
X0175024Y0054057D02*
X0175654Y0054057D01*
X0175654Y0054213D02*
X0175024Y0054213D01*
X0175024Y0054369D02*
X0175654Y0054369D01*
X0175654Y0054525D02*
X0175024Y0054525D01*
X0175024Y0054681D02*
X0175654Y0054681D01*
X0175654Y0054837D02*
X0175024Y0054837D01*
X0175024Y0054993D02*
X0175654Y0054993D01*
X0175654Y0055149D02*
X0175024Y0055149D01*
X0177228Y0055161D02*
X0177228Y0051873D01*
X0176598Y0051873D01*
X0176598Y0055161D01*
X0177228Y0055161D01*
X0177228Y0052029D02*
X0176598Y0052029D01*
X0176598Y0052185D02*
X0177228Y0052185D01*
X0177228Y0052341D02*
X0176598Y0052341D01*
X0176598Y0052497D02*
X0177228Y0052497D01*
X0177228Y0052653D02*
X0176598Y0052653D01*
X0176598Y0052809D02*
X0177228Y0052809D01*
X0177228Y0052965D02*
X0176598Y0052965D01*
X0176598Y0053121D02*
X0177228Y0053121D01*
X0177228Y0053277D02*
X0176598Y0053277D01*
X0176598Y0053433D02*
X0177228Y0053433D01*
X0177228Y0053589D02*
X0176598Y0053589D01*
X0176598Y0053745D02*
X0177228Y0053745D01*
X0177228Y0053901D02*
X0176598Y0053901D01*
X0176598Y0054057D02*
X0177228Y0054057D01*
X0177228Y0054213D02*
X0176598Y0054213D01*
X0176598Y0054369D02*
X0177228Y0054369D01*
X0177228Y0054525D02*
X0176598Y0054525D01*
X0176598Y0054681D02*
X0177228Y0054681D01*
X0177228Y0054837D02*
X0176598Y0054837D01*
X0176598Y0054993D02*
X0177228Y0054993D01*
X0177228Y0055149D02*
X0176598Y0055149D01*
X0178803Y0055161D02*
X0178803Y0051873D01*
X0178173Y0051873D01*
X0178173Y0055161D01*
X0178803Y0055161D01*
X0178803Y0052029D02*
X0178173Y0052029D01*
X0178173Y0052185D02*
X0178803Y0052185D01*
X0178803Y0052341D02*
X0178173Y0052341D01*
X0178173Y0052497D02*
X0178803Y0052497D01*
X0178803Y0052653D02*
X0178173Y0052653D01*
X0178173Y0052809D02*
X0178803Y0052809D01*
X0178803Y0052965D02*
X0178173Y0052965D01*
X0178173Y0053121D02*
X0178803Y0053121D01*
X0178803Y0053277D02*
X0178173Y0053277D01*
X0178173Y0053433D02*
X0178803Y0053433D01*
X0178803Y0053589D02*
X0178173Y0053589D01*
X0178173Y0053745D02*
X0178803Y0053745D01*
X0178803Y0053901D02*
X0178173Y0053901D01*
X0178173Y0054057D02*
X0178803Y0054057D01*
X0178803Y0054213D02*
X0178173Y0054213D01*
X0178173Y0054369D02*
X0178803Y0054369D01*
X0178803Y0054525D02*
X0178173Y0054525D01*
X0178173Y0054681D02*
X0178803Y0054681D01*
X0178803Y0054837D02*
X0178173Y0054837D01*
X0178173Y0054993D02*
X0178803Y0054993D01*
X0178803Y0055149D02*
X0178173Y0055149D01*
X0180378Y0055161D02*
X0180378Y0051873D01*
X0179748Y0051873D01*
X0179748Y0055161D01*
X0180378Y0055161D01*
X0180378Y0052029D02*
X0179748Y0052029D01*
X0179748Y0052185D02*
X0180378Y0052185D01*
X0180378Y0052341D02*
X0179748Y0052341D01*
X0179748Y0052497D02*
X0180378Y0052497D01*
X0180378Y0052653D02*
X0179748Y0052653D01*
X0179748Y0052809D02*
X0180378Y0052809D01*
X0180378Y0052965D02*
X0179748Y0052965D01*
X0179748Y0053121D02*
X0180378Y0053121D01*
X0180378Y0053277D02*
X0179748Y0053277D01*
X0179748Y0053433D02*
X0180378Y0053433D01*
X0180378Y0053589D02*
X0179748Y0053589D01*
X0179748Y0053745D02*
X0180378Y0053745D01*
X0180378Y0053901D02*
X0179748Y0053901D01*
X0179748Y0054057D02*
X0180378Y0054057D01*
X0180378Y0054213D02*
X0179748Y0054213D01*
X0179748Y0054369D02*
X0180378Y0054369D01*
X0180378Y0054525D02*
X0179748Y0054525D01*
X0179748Y0054681D02*
X0180378Y0054681D01*
X0180378Y0054837D02*
X0179748Y0054837D01*
X0179748Y0054993D02*
X0180378Y0054993D01*
X0180378Y0055149D02*
X0179748Y0055149D01*
X0181953Y0055161D02*
X0181953Y0051873D01*
X0181323Y0051873D01*
X0181323Y0055161D01*
X0181953Y0055161D01*
X0181953Y0052029D02*
X0181323Y0052029D01*
X0181323Y0052185D02*
X0181953Y0052185D01*
X0181953Y0052341D02*
X0181323Y0052341D01*
X0181323Y0052497D02*
X0181953Y0052497D01*
X0181953Y0052653D02*
X0181323Y0052653D01*
X0181323Y0052809D02*
X0181953Y0052809D01*
X0181953Y0052965D02*
X0181323Y0052965D01*
X0181323Y0053121D02*
X0181953Y0053121D01*
X0181953Y0053277D02*
X0181323Y0053277D01*
X0181323Y0053433D02*
X0181953Y0053433D01*
X0181953Y0053589D02*
X0181323Y0053589D01*
X0181323Y0053745D02*
X0181953Y0053745D01*
X0181953Y0053901D02*
X0181323Y0053901D01*
X0181323Y0054057D02*
X0181953Y0054057D01*
X0181953Y0054213D02*
X0181323Y0054213D01*
X0181323Y0054369D02*
X0181953Y0054369D01*
X0181953Y0054525D02*
X0181323Y0054525D01*
X0181323Y0054681D02*
X0181953Y0054681D01*
X0181953Y0054837D02*
X0181323Y0054837D01*
X0181323Y0054993D02*
X0181953Y0054993D01*
X0181953Y0055149D02*
X0181323Y0055149D01*
X0183528Y0055161D02*
X0183528Y0051873D01*
X0182898Y0051873D01*
X0182898Y0055161D01*
X0183528Y0055161D01*
X0183528Y0052029D02*
X0182898Y0052029D01*
X0182898Y0052185D02*
X0183528Y0052185D01*
X0183528Y0052341D02*
X0182898Y0052341D01*
X0182898Y0052497D02*
X0183528Y0052497D01*
X0183528Y0052653D02*
X0182898Y0052653D01*
X0182898Y0052809D02*
X0183528Y0052809D01*
X0183528Y0052965D02*
X0182898Y0052965D01*
X0182898Y0053121D02*
X0183528Y0053121D01*
X0183528Y0053277D02*
X0182898Y0053277D01*
X0182898Y0053433D02*
X0183528Y0053433D01*
X0183528Y0053589D02*
X0182898Y0053589D01*
X0182898Y0053745D02*
X0183528Y0053745D01*
X0183528Y0053901D02*
X0182898Y0053901D01*
X0182898Y0054057D02*
X0183528Y0054057D01*
X0183528Y0054213D02*
X0182898Y0054213D01*
X0182898Y0054369D02*
X0183528Y0054369D01*
X0183528Y0054525D02*
X0182898Y0054525D01*
X0182898Y0054681D02*
X0183528Y0054681D01*
X0183528Y0054837D02*
X0182898Y0054837D01*
X0182898Y0054993D02*
X0183528Y0054993D01*
X0183528Y0055149D02*
X0182898Y0055149D01*
X0185102Y0055161D02*
X0185102Y0051873D01*
X0184472Y0051873D01*
X0184472Y0055161D01*
X0185102Y0055161D01*
X0185102Y0052029D02*
X0184472Y0052029D01*
X0184472Y0052185D02*
X0185102Y0052185D01*
X0185102Y0052341D02*
X0184472Y0052341D01*
X0184472Y0052497D02*
X0185102Y0052497D01*
X0185102Y0052653D02*
X0184472Y0052653D01*
X0184472Y0052809D02*
X0185102Y0052809D01*
X0185102Y0052965D02*
X0184472Y0052965D01*
X0184472Y0053121D02*
X0185102Y0053121D01*
X0185102Y0053277D02*
X0184472Y0053277D01*
X0184472Y0053433D02*
X0185102Y0053433D01*
X0185102Y0053589D02*
X0184472Y0053589D01*
X0184472Y0053745D02*
X0185102Y0053745D01*
X0185102Y0053901D02*
X0184472Y0053901D01*
X0184472Y0054057D02*
X0185102Y0054057D01*
X0185102Y0054213D02*
X0184472Y0054213D01*
X0184472Y0054369D02*
X0185102Y0054369D01*
X0185102Y0054525D02*
X0184472Y0054525D01*
X0184472Y0054681D02*
X0185102Y0054681D01*
X0185102Y0054837D02*
X0184472Y0054837D01*
X0184472Y0054993D02*
X0185102Y0054993D01*
X0185102Y0055149D02*
X0184472Y0055149D01*
X0186677Y0055161D02*
X0186677Y0051873D01*
X0186047Y0051873D01*
X0186047Y0055161D01*
X0186677Y0055161D01*
X0186677Y0052029D02*
X0186047Y0052029D01*
X0186047Y0052185D02*
X0186677Y0052185D01*
X0186677Y0052341D02*
X0186047Y0052341D01*
X0186047Y0052497D02*
X0186677Y0052497D01*
X0186677Y0052653D02*
X0186047Y0052653D01*
X0186047Y0052809D02*
X0186677Y0052809D01*
X0186677Y0052965D02*
X0186047Y0052965D01*
X0186047Y0053121D02*
X0186677Y0053121D01*
X0186677Y0053277D02*
X0186047Y0053277D01*
X0186047Y0053433D02*
X0186677Y0053433D01*
X0186677Y0053589D02*
X0186047Y0053589D01*
X0186047Y0053745D02*
X0186677Y0053745D01*
X0186677Y0053901D02*
X0186047Y0053901D01*
X0186047Y0054057D02*
X0186677Y0054057D01*
X0186677Y0054213D02*
X0186047Y0054213D01*
X0186047Y0054369D02*
X0186677Y0054369D01*
X0186677Y0054525D02*
X0186047Y0054525D01*
X0186047Y0054681D02*
X0186677Y0054681D01*
X0186677Y0054837D02*
X0186047Y0054837D01*
X0186047Y0054993D02*
X0186677Y0054993D01*
X0186677Y0055149D02*
X0186047Y0055149D01*
X0188252Y0055161D02*
X0188252Y0051873D01*
X0187622Y0051873D01*
X0187622Y0055161D01*
X0188252Y0055161D01*
X0188252Y0052029D02*
X0187622Y0052029D01*
X0187622Y0052185D02*
X0188252Y0052185D01*
X0188252Y0052341D02*
X0187622Y0052341D01*
X0187622Y0052497D02*
X0188252Y0052497D01*
X0188252Y0052653D02*
X0187622Y0052653D01*
X0187622Y0052809D02*
X0188252Y0052809D01*
X0188252Y0052965D02*
X0187622Y0052965D01*
X0187622Y0053121D02*
X0188252Y0053121D01*
X0188252Y0053277D02*
X0187622Y0053277D01*
X0187622Y0053433D02*
X0188252Y0053433D01*
X0188252Y0053589D02*
X0187622Y0053589D01*
X0187622Y0053745D02*
X0188252Y0053745D01*
X0188252Y0053901D02*
X0187622Y0053901D01*
X0187622Y0054057D02*
X0188252Y0054057D01*
X0188252Y0054213D02*
X0187622Y0054213D01*
X0187622Y0054369D02*
X0188252Y0054369D01*
X0188252Y0054525D02*
X0187622Y0054525D01*
X0187622Y0054681D02*
X0188252Y0054681D01*
X0188252Y0054837D02*
X0187622Y0054837D01*
X0187622Y0054993D02*
X0188252Y0054993D01*
X0188252Y0055149D02*
X0187622Y0055149D01*
X0189827Y0055161D02*
X0189827Y0051873D01*
X0189197Y0051873D01*
X0189197Y0055161D01*
X0189827Y0055161D01*
X0189827Y0052029D02*
X0189197Y0052029D01*
X0189197Y0052185D02*
X0189827Y0052185D01*
X0189827Y0052341D02*
X0189197Y0052341D01*
X0189197Y0052497D02*
X0189827Y0052497D01*
X0189827Y0052653D02*
X0189197Y0052653D01*
X0189197Y0052809D02*
X0189827Y0052809D01*
X0189827Y0052965D02*
X0189197Y0052965D01*
X0189197Y0053121D02*
X0189827Y0053121D01*
X0189827Y0053277D02*
X0189197Y0053277D01*
X0189197Y0053433D02*
X0189827Y0053433D01*
X0189827Y0053589D02*
X0189197Y0053589D01*
X0189197Y0053745D02*
X0189827Y0053745D01*
X0189827Y0053901D02*
X0189197Y0053901D01*
X0189197Y0054057D02*
X0189827Y0054057D01*
X0189827Y0054213D02*
X0189197Y0054213D01*
X0189197Y0054369D02*
X0189827Y0054369D01*
X0189827Y0054525D02*
X0189197Y0054525D01*
X0189197Y0054681D02*
X0189827Y0054681D01*
X0189827Y0054837D02*
X0189197Y0054837D01*
X0189197Y0054993D02*
X0189827Y0054993D01*
X0189827Y0055149D02*
X0189197Y0055149D01*
X0191402Y0055161D02*
X0191402Y0051873D01*
X0190772Y0051873D01*
X0190772Y0055161D01*
X0191402Y0055161D01*
X0191402Y0052029D02*
X0190772Y0052029D01*
X0190772Y0052185D02*
X0191402Y0052185D01*
X0191402Y0052341D02*
X0190772Y0052341D01*
X0190772Y0052497D02*
X0191402Y0052497D01*
X0191402Y0052653D02*
X0190772Y0052653D01*
X0190772Y0052809D02*
X0191402Y0052809D01*
X0191402Y0052965D02*
X0190772Y0052965D01*
X0190772Y0053121D02*
X0191402Y0053121D01*
X0191402Y0053277D02*
X0190772Y0053277D01*
X0190772Y0053433D02*
X0191402Y0053433D01*
X0191402Y0053589D02*
X0190772Y0053589D01*
X0190772Y0053745D02*
X0191402Y0053745D01*
X0191402Y0053901D02*
X0190772Y0053901D01*
X0190772Y0054057D02*
X0191402Y0054057D01*
X0191402Y0054213D02*
X0190772Y0054213D01*
X0190772Y0054369D02*
X0191402Y0054369D01*
X0191402Y0054525D02*
X0190772Y0054525D01*
X0190772Y0054681D02*
X0191402Y0054681D01*
X0191402Y0054837D02*
X0190772Y0054837D01*
X0190772Y0054993D02*
X0191402Y0054993D01*
X0191402Y0055149D02*
X0190772Y0055149D01*
X0192976Y0055161D02*
X0192976Y0051873D01*
X0192346Y0051873D01*
X0192346Y0055161D01*
X0192976Y0055161D01*
X0192976Y0052029D02*
X0192346Y0052029D01*
X0192346Y0052185D02*
X0192976Y0052185D01*
X0192976Y0052341D02*
X0192346Y0052341D01*
X0192346Y0052497D02*
X0192976Y0052497D01*
X0192976Y0052653D02*
X0192346Y0052653D01*
X0192346Y0052809D02*
X0192976Y0052809D01*
X0192976Y0052965D02*
X0192346Y0052965D01*
X0192346Y0053121D02*
X0192976Y0053121D01*
X0192976Y0053277D02*
X0192346Y0053277D01*
X0192346Y0053433D02*
X0192976Y0053433D01*
X0192976Y0053589D02*
X0192346Y0053589D01*
X0192346Y0053745D02*
X0192976Y0053745D01*
X0192976Y0053901D02*
X0192346Y0053901D01*
X0192346Y0054057D02*
X0192976Y0054057D01*
X0192976Y0054213D02*
X0192346Y0054213D01*
X0192346Y0054369D02*
X0192976Y0054369D01*
X0192976Y0054525D02*
X0192346Y0054525D01*
X0192346Y0054681D02*
X0192976Y0054681D01*
X0192976Y0054837D02*
X0192346Y0054837D01*
X0192346Y0054993D02*
X0192976Y0054993D01*
X0192976Y0055149D02*
X0192346Y0055149D01*
X0194551Y0055161D02*
X0194551Y0051873D01*
X0193921Y0051873D01*
X0193921Y0055161D01*
X0194551Y0055161D01*
X0194551Y0052029D02*
X0193921Y0052029D01*
X0193921Y0052185D02*
X0194551Y0052185D01*
X0194551Y0052341D02*
X0193921Y0052341D01*
X0193921Y0052497D02*
X0194551Y0052497D01*
X0194551Y0052653D02*
X0193921Y0052653D01*
X0193921Y0052809D02*
X0194551Y0052809D01*
X0194551Y0052965D02*
X0193921Y0052965D01*
X0193921Y0053121D02*
X0194551Y0053121D01*
X0194551Y0053277D02*
X0193921Y0053277D01*
X0193921Y0053433D02*
X0194551Y0053433D01*
X0194551Y0053589D02*
X0193921Y0053589D01*
X0193921Y0053745D02*
X0194551Y0053745D01*
X0194551Y0053901D02*
X0193921Y0053901D01*
X0193921Y0054057D02*
X0194551Y0054057D01*
X0194551Y0054213D02*
X0193921Y0054213D01*
X0193921Y0054369D02*
X0194551Y0054369D01*
X0194551Y0054525D02*
X0193921Y0054525D01*
X0193921Y0054681D02*
X0194551Y0054681D01*
X0194551Y0054837D02*
X0193921Y0054837D01*
X0193921Y0054993D02*
X0194551Y0054993D01*
X0194551Y0055149D02*
X0193921Y0055149D01*
X0195889Y0057129D02*
X0199177Y0057129D01*
X0199177Y0056499D01*
X0195889Y0056499D01*
X0195889Y0057129D01*
X0195889Y0056655D02*
X0199177Y0056655D01*
X0199177Y0056811D02*
X0195889Y0056811D01*
X0195889Y0056967D02*
X0199177Y0056967D01*
X0199177Y0057123D02*
X0195889Y0057123D01*
X0195889Y0058704D02*
X0199177Y0058704D01*
X0199177Y0058074D01*
X0195889Y0058074D01*
X0195889Y0058704D01*
X0195889Y0058230D02*
X0199177Y0058230D01*
X0199177Y0058386D02*
X0195889Y0058386D01*
X0195889Y0058542D02*
X0199177Y0058542D01*
X0199177Y0058698D02*
X0195889Y0058698D01*
X0195889Y0060278D02*
X0199177Y0060278D01*
X0199177Y0059648D01*
X0195889Y0059648D01*
X0195889Y0060278D01*
X0195889Y0059804D02*
X0199177Y0059804D01*
X0199177Y0059960D02*
X0195889Y0059960D01*
X0195889Y0060116D02*
X0199177Y0060116D01*
X0199177Y0060272D02*
X0195889Y0060272D01*
X0195889Y0061853D02*
X0199177Y0061853D01*
X0199177Y0061223D01*
X0195889Y0061223D01*
X0195889Y0061853D01*
X0195889Y0061379D02*
X0199177Y0061379D01*
X0199177Y0061535D02*
X0195889Y0061535D01*
X0195889Y0061691D02*
X0199177Y0061691D01*
X0199177Y0061847D02*
X0195889Y0061847D01*
X0195889Y0063428D02*
X0199177Y0063428D01*
X0199177Y0062798D01*
X0195889Y0062798D01*
X0195889Y0063428D01*
X0195889Y0062954D02*
X0199177Y0062954D01*
X0199177Y0063110D02*
X0195889Y0063110D01*
X0195889Y0063266D02*
X0199177Y0063266D01*
X0199177Y0063422D02*
X0195889Y0063422D01*
X0195889Y0065003D02*
X0199177Y0065003D01*
X0199177Y0064373D01*
X0195889Y0064373D01*
X0195889Y0065003D01*
X0195889Y0064529D02*
X0199177Y0064529D01*
X0199177Y0064685D02*
X0195889Y0064685D01*
X0195889Y0064841D02*
X0199177Y0064841D01*
X0199177Y0064997D02*
X0195889Y0064997D01*
X0195889Y0066578D02*
X0199177Y0066578D01*
X0199177Y0065948D01*
X0195889Y0065948D01*
X0195889Y0066578D01*
X0195889Y0066104D02*
X0199177Y0066104D01*
X0199177Y0066260D02*
X0195889Y0066260D01*
X0195889Y0066416D02*
X0199177Y0066416D01*
X0199177Y0066572D02*
X0195889Y0066572D01*
X0195889Y0068152D02*
X0199177Y0068152D01*
X0199177Y0067522D01*
X0195889Y0067522D01*
X0195889Y0068152D01*
X0195889Y0067678D02*
X0199177Y0067678D01*
X0199177Y0067834D02*
X0195889Y0067834D01*
X0195889Y0067990D02*
X0199177Y0067990D01*
X0199177Y0068146D02*
X0195889Y0068146D01*
X0195889Y0069727D02*
X0199177Y0069727D01*
X0199177Y0069097D01*
X0195889Y0069097D01*
X0195889Y0069727D01*
X0195889Y0069253D02*
X0199177Y0069253D01*
X0199177Y0069409D02*
X0195889Y0069409D01*
X0195889Y0069565D02*
X0199177Y0069565D01*
X0199177Y0069721D02*
X0195889Y0069721D01*
X0195889Y0071302D02*
X0199177Y0071302D01*
X0199177Y0070672D01*
X0195889Y0070672D01*
X0195889Y0071302D01*
X0195889Y0070828D02*
X0199177Y0070828D01*
X0199177Y0070984D02*
X0195889Y0070984D01*
X0195889Y0071140D02*
X0199177Y0071140D01*
X0199177Y0071296D02*
X0195889Y0071296D01*
X0195889Y0072877D02*
X0199177Y0072877D01*
X0199177Y0072247D01*
X0195889Y0072247D01*
X0195889Y0072877D01*
X0195889Y0072403D02*
X0199177Y0072403D01*
X0199177Y0072559D02*
X0195889Y0072559D01*
X0195889Y0072715D02*
X0199177Y0072715D01*
X0199177Y0072871D02*
X0195889Y0072871D01*
X0195889Y0074452D02*
X0199177Y0074452D01*
X0199177Y0073822D01*
X0195889Y0073822D01*
X0195889Y0074452D01*
X0195889Y0073978D02*
X0199177Y0073978D01*
X0199177Y0074134D02*
X0195889Y0074134D01*
X0195889Y0074290D02*
X0199177Y0074290D01*
X0199177Y0074446D02*
X0195889Y0074446D01*
X0195889Y0076026D02*
X0199177Y0076026D01*
X0199177Y0075396D01*
X0195889Y0075396D01*
X0195889Y0076026D01*
X0195889Y0075552D02*
X0199177Y0075552D01*
X0199177Y0075708D02*
X0195889Y0075708D01*
X0195889Y0075864D02*
X0199177Y0075864D01*
X0199177Y0076020D02*
X0195889Y0076020D01*
X0195889Y0077601D02*
X0199177Y0077601D01*
X0199177Y0076971D01*
X0195889Y0076971D01*
X0195889Y0077601D01*
X0195889Y0077127D02*
X0199177Y0077127D01*
X0199177Y0077283D02*
X0195889Y0077283D01*
X0195889Y0077439D02*
X0199177Y0077439D01*
X0199177Y0077595D02*
X0195889Y0077595D01*
D15*
X0189669Y0072719D02*
X0178331Y0072719D01*
X0189669Y0072719D02*
X0189669Y0061381D01*
X0178331Y0061381D01*
X0178331Y0072719D01*
X0178331Y0062640D02*
X0189669Y0062640D01*
X0189669Y0063899D02*
X0178331Y0063899D01*
X0178331Y0065158D02*
X0189669Y0065158D01*
X0189669Y0066417D02*
X0178331Y0066417D01*
X0178331Y0067676D02*
X0189669Y0067676D01*
X0189669Y0068935D02*
X0178331Y0068935D01*
X0178331Y0070194D02*
X0189669Y0070194D01*
X0189669Y0071453D02*
X0178331Y0071453D01*
X0178331Y0072712D02*
X0189669Y0072712D01*
D16*
X0187488Y0044003D03*
X0187488Y0042034D03*
X0187488Y0040066D03*
X0187488Y0038097D03*
X0198512Y0038097D03*
X0198512Y0040066D03*
X0198512Y0042034D03*
X0198512Y0044003D03*
D17*
X0188642Y0094522D03*
X0181358Y0094522D03*
X0181358Y0103578D03*
X0188642Y0103578D03*
D18*
X0186118Y0028680D03*
X0183559Y0028680D03*
X0181000Y0028680D03*
X0178441Y0028680D03*
X0175882Y0028680D03*
D19*
X0177063Y0018050D03*
X0184937Y0018050D03*
D20*
X0172000Y0041081D03*
X0172000Y0045019D03*
X0162000Y0050081D03*
X0162000Y0054019D03*
X0194000Y0096081D03*
X0194000Y0100019D03*
X0176000Y0104081D03*
X0176000Y0108019D03*
D21*
X0206850Y0032121D03*
X0213150Y0032121D03*
X0213150Y0015979D03*
X0206850Y0015979D03*
D22*
X0021000Y0037050D03*
X0021000Y0042050D03*
X0021000Y0047050D03*
X0021000Y0052050D03*
X0021000Y0057050D03*
X0021000Y0062050D03*
X0021000Y0067050D03*
X0021000Y0072050D03*
X0021000Y0077050D03*
X0021000Y0082050D03*
X0021000Y0087050D03*
X0021000Y0092050D03*
X0021000Y0097050D03*
X0037000Y0097050D03*
X0037000Y0092050D03*
X0037000Y0087050D03*
X0037000Y0082050D03*
X0037000Y0077050D03*
X0037000Y0072050D03*
X0037000Y0067050D03*
X0037000Y0062050D03*
X0037000Y0057050D03*
X0037000Y0052050D03*
X0037000Y0047050D03*
X0037000Y0042050D03*
X0037000Y0037050D03*
D23*
X0132881Y0114310D03*
X0132881Y0118050D03*
X0132881Y0121790D03*
X0143119Y0121790D03*
X0143119Y0118050D03*
X0143119Y0114310D03*
D24*
X0060740Y0105169D03*
X0057000Y0105169D03*
X0053260Y0105169D03*
X0053260Y0094931D03*
X0057000Y0094931D03*
X0060740Y0094931D03*
X0060740Y0086169D03*
X0057000Y0086169D03*
X0053260Y0086169D03*
X0053260Y0075931D03*
X0057000Y0075931D03*
X0060740Y0075931D03*
X0060740Y0067169D03*
X0057000Y0067169D03*
X0053260Y0067169D03*
X0053260Y0056931D03*
X0057000Y0056931D03*
X0060740Y0056931D03*
X0060740Y0048169D03*
X0057000Y0048169D03*
X0053260Y0048169D03*
X0053260Y0037931D03*
X0057000Y0037931D03*
X0060740Y0037931D03*
D25*
X0130047Y0025050D03*
X0135953Y0025050D03*
X0135953Y0018550D03*
X0130047Y0018550D03*
X0130047Y0012050D03*
X0135953Y0012050D03*
M02*
