G75*
%MOIN*%
%OFA0B0*%
%FSLAX25Y25*%
%IPPOS*%
%LPD*%
%AMOC8*
5,1,8,0,0,1.08239X$1,22.5*
%
%ADD10C,0.07800*%
%ADD11C,0.04400*%
%ADD12C,0.06000*%
%ADD13R,0.02762X0.02762*%
%ADD14R,0.03943X0.04337*%
%ADD15R,0.03550X0.03550*%
%ADD16R,0.11030X0.05124*%
%ADD17C,0.06699*%
%ADD18C,0.00237*%
%ADD19C,0.01300*%
%ADD20R,0.03746X0.01581*%
%ADD21R,0.04534X0.05518*%
%ADD22C,0.07487*%
%ADD23C,0.05715*%
%ADD24R,0.01975X0.05912*%
%ADD25R,0.06306X0.06502*%
%ADD26R,0.02369X0.02762*%
%ADD27R,0.04337X0.03943*%
%ADD28C,0.00680*%
%ADD29R,0.04400X0.02400*%
%ADD30R,0.11400X0.03400*%
%ADD31R,0.03400X0.09100*%
%ADD32R,0.05124X0.02565*%
%ADD33R,0.02565X0.05124*%
%ADD34C,0.04534*%
%ADD35R,0.02762X0.03943*%
D10*
X0152000Y0029050D03*
D11*
X0161000Y0120050D03*
X0180000Y0120050D03*
X0051000Y0120050D03*
D12*
X0012000Y0010550D03*
X0167500Y0050550D03*
X0200500Y0083550D03*
X0213000Y0124550D03*
X0012000Y0123550D03*
D13*
X0132500Y0108019D03*
X0137000Y0108019D03*
X0141500Y0108019D03*
X0141500Y0104081D03*
X0137000Y0104081D03*
X0132500Y0104081D03*
X0142031Y0090050D03*
X0145969Y0090050D03*
X0145969Y0085050D03*
X0142031Y0085050D03*
X0142031Y0080050D03*
X0145969Y0080050D03*
X0145969Y0075050D03*
X0142031Y0075050D03*
X0142031Y0070050D03*
X0145969Y0070050D03*
X0145969Y0065050D03*
X0142031Y0065050D03*
X0142031Y0060050D03*
X0145969Y0060050D03*
X0145969Y0055050D03*
X0142031Y0055050D03*
X0158500Y0054019D03*
X0158500Y0050081D03*
X0168000Y0045019D03*
X0168000Y0041081D03*
X0177500Y0042681D03*
X0181200Y0042681D03*
X0181200Y0046619D03*
X0177500Y0046619D03*
X0208031Y0043050D03*
X0211969Y0043050D03*
X0211969Y0039050D03*
X0208031Y0039050D03*
X0208000Y0075081D03*
X0212000Y0075081D03*
X0216000Y0075081D03*
X0216000Y0079019D03*
X0212000Y0079019D03*
X0208000Y0079019D03*
X0176000Y0095081D03*
X0176000Y0099019D03*
D14*
X0151000Y0113507D03*
X0151000Y0120593D03*
X0125000Y0120593D03*
X0125000Y0113507D03*
X0213000Y0106593D03*
X0213000Y0099507D03*
D15*
X0224126Y0099550D03*
X0229126Y0099550D03*
X0229126Y0094550D03*
X0224126Y0094550D03*
X0224126Y0089550D03*
X0229126Y0089550D03*
X0229126Y0084550D03*
X0224126Y0084550D03*
X0224126Y0079550D03*
X0229126Y0079550D03*
X0229126Y0074550D03*
X0224126Y0074550D03*
X0224126Y0069550D03*
X0229126Y0069550D03*
X0229126Y0064550D03*
X0224126Y0064550D03*
X0224126Y0059550D03*
X0229126Y0059550D03*
X0229126Y0054550D03*
X0224126Y0054550D03*
X0224126Y0049550D03*
X0229126Y0049550D03*
X0229126Y0044550D03*
X0224126Y0044550D03*
X0224126Y0039550D03*
X0229126Y0039550D03*
X0229126Y0034550D03*
X0224126Y0034550D03*
X0224126Y0029550D03*
X0229126Y0029550D03*
X0229126Y0024550D03*
X0224126Y0024550D03*
X0224126Y0019550D03*
X0229126Y0019550D03*
X0214500Y0085097D03*
X0209000Y0085097D03*
X0209000Y0091003D03*
X0214500Y0091003D03*
X0224126Y0104550D03*
X0229126Y0104550D03*
X0229126Y0109550D03*
X0224126Y0109550D03*
X0224126Y0114550D03*
X0229126Y0114550D03*
D16*
X0227354Y0124432D03*
X0246646Y0124432D03*
X0246646Y0009668D03*
X0227354Y0009668D03*
D17*
X0237000Y0010849D03*
X0237000Y0123251D03*
D18*
X0193761Y0082387D02*
X0193761Y0078779D01*
X0193761Y0082387D02*
X0194711Y0082387D01*
X0194711Y0078779D01*
X0193761Y0078779D01*
X0193761Y0079015D02*
X0194711Y0079015D01*
X0194711Y0079251D02*
X0193761Y0079251D01*
X0193761Y0079487D02*
X0194711Y0079487D01*
X0194711Y0079723D02*
X0193761Y0079723D01*
X0193761Y0079959D02*
X0194711Y0079959D01*
X0194711Y0080195D02*
X0193761Y0080195D01*
X0193761Y0080431D02*
X0194711Y0080431D01*
X0194711Y0080667D02*
X0193761Y0080667D01*
X0193761Y0080903D02*
X0194711Y0080903D01*
X0194711Y0081139D02*
X0193761Y0081139D01*
X0193761Y0081375D02*
X0194711Y0081375D01*
X0194711Y0081611D02*
X0193761Y0081611D01*
X0193761Y0081847D02*
X0194711Y0081847D01*
X0194711Y0082083D02*
X0193761Y0082083D01*
X0193761Y0082319D02*
X0194711Y0082319D01*
X0192186Y0082387D02*
X0192186Y0078779D01*
X0192186Y0082387D02*
X0193136Y0082387D01*
X0193136Y0078779D01*
X0192186Y0078779D01*
X0192186Y0079015D02*
X0193136Y0079015D01*
X0193136Y0079251D02*
X0192186Y0079251D01*
X0192186Y0079487D02*
X0193136Y0079487D01*
X0193136Y0079723D02*
X0192186Y0079723D01*
X0192186Y0079959D02*
X0193136Y0079959D01*
X0193136Y0080195D02*
X0192186Y0080195D01*
X0192186Y0080431D02*
X0193136Y0080431D01*
X0193136Y0080667D02*
X0192186Y0080667D01*
X0192186Y0080903D02*
X0193136Y0080903D01*
X0193136Y0081139D02*
X0192186Y0081139D01*
X0192186Y0081375D02*
X0193136Y0081375D01*
X0193136Y0081611D02*
X0192186Y0081611D01*
X0192186Y0081847D02*
X0193136Y0081847D01*
X0193136Y0082083D02*
X0192186Y0082083D01*
X0192186Y0082319D02*
X0193136Y0082319D01*
X0190612Y0082387D02*
X0190612Y0078779D01*
X0190612Y0082387D02*
X0191562Y0082387D01*
X0191562Y0078779D01*
X0190612Y0078779D01*
X0190612Y0079015D02*
X0191562Y0079015D01*
X0191562Y0079251D02*
X0190612Y0079251D01*
X0190612Y0079487D02*
X0191562Y0079487D01*
X0191562Y0079723D02*
X0190612Y0079723D01*
X0190612Y0079959D02*
X0191562Y0079959D01*
X0191562Y0080195D02*
X0190612Y0080195D01*
X0190612Y0080431D02*
X0191562Y0080431D01*
X0191562Y0080667D02*
X0190612Y0080667D01*
X0190612Y0080903D02*
X0191562Y0080903D01*
X0191562Y0081139D02*
X0190612Y0081139D01*
X0190612Y0081375D02*
X0191562Y0081375D01*
X0191562Y0081611D02*
X0190612Y0081611D01*
X0190612Y0081847D02*
X0191562Y0081847D01*
X0191562Y0082083D02*
X0190612Y0082083D01*
X0190612Y0082319D02*
X0191562Y0082319D01*
X0189037Y0082387D02*
X0189037Y0078779D01*
X0189037Y0082387D02*
X0189987Y0082387D01*
X0189987Y0078779D01*
X0189037Y0078779D01*
X0189037Y0079015D02*
X0189987Y0079015D01*
X0189987Y0079251D02*
X0189037Y0079251D01*
X0189037Y0079487D02*
X0189987Y0079487D01*
X0189987Y0079723D02*
X0189037Y0079723D01*
X0189037Y0079959D02*
X0189987Y0079959D01*
X0189987Y0080195D02*
X0189037Y0080195D01*
X0189037Y0080431D02*
X0189987Y0080431D01*
X0189987Y0080667D02*
X0189037Y0080667D01*
X0189037Y0080903D02*
X0189987Y0080903D01*
X0189987Y0081139D02*
X0189037Y0081139D01*
X0189037Y0081375D02*
X0189987Y0081375D01*
X0189987Y0081611D02*
X0189037Y0081611D01*
X0189037Y0081847D02*
X0189987Y0081847D01*
X0189987Y0082083D02*
X0189037Y0082083D01*
X0189037Y0082319D02*
X0189987Y0082319D01*
X0187462Y0082387D02*
X0187462Y0078779D01*
X0187462Y0082387D02*
X0188412Y0082387D01*
X0188412Y0078779D01*
X0187462Y0078779D01*
X0187462Y0079015D02*
X0188412Y0079015D01*
X0188412Y0079251D02*
X0187462Y0079251D01*
X0187462Y0079487D02*
X0188412Y0079487D01*
X0188412Y0079723D02*
X0187462Y0079723D01*
X0187462Y0079959D02*
X0188412Y0079959D01*
X0188412Y0080195D02*
X0187462Y0080195D01*
X0187462Y0080431D02*
X0188412Y0080431D01*
X0188412Y0080667D02*
X0187462Y0080667D01*
X0187462Y0080903D02*
X0188412Y0080903D01*
X0188412Y0081139D02*
X0187462Y0081139D01*
X0187462Y0081375D02*
X0188412Y0081375D01*
X0188412Y0081611D02*
X0187462Y0081611D01*
X0187462Y0081847D02*
X0188412Y0081847D01*
X0188412Y0082083D02*
X0187462Y0082083D01*
X0187462Y0082319D02*
X0188412Y0082319D01*
X0185887Y0082387D02*
X0185887Y0078779D01*
X0185887Y0082387D02*
X0186837Y0082387D01*
X0186837Y0078779D01*
X0185887Y0078779D01*
X0185887Y0079015D02*
X0186837Y0079015D01*
X0186837Y0079251D02*
X0185887Y0079251D01*
X0185887Y0079487D02*
X0186837Y0079487D01*
X0186837Y0079723D02*
X0185887Y0079723D01*
X0185887Y0079959D02*
X0186837Y0079959D01*
X0186837Y0080195D02*
X0185887Y0080195D01*
X0185887Y0080431D02*
X0186837Y0080431D01*
X0186837Y0080667D02*
X0185887Y0080667D01*
X0185887Y0080903D02*
X0186837Y0080903D01*
X0186837Y0081139D02*
X0185887Y0081139D01*
X0185887Y0081375D02*
X0186837Y0081375D01*
X0186837Y0081611D02*
X0185887Y0081611D01*
X0185887Y0081847D02*
X0186837Y0081847D01*
X0186837Y0082083D02*
X0185887Y0082083D01*
X0185887Y0082319D02*
X0186837Y0082319D01*
X0184312Y0082387D02*
X0184312Y0078779D01*
X0184312Y0082387D02*
X0185262Y0082387D01*
X0185262Y0078779D01*
X0184312Y0078779D01*
X0184312Y0079015D02*
X0185262Y0079015D01*
X0185262Y0079251D02*
X0184312Y0079251D01*
X0184312Y0079487D02*
X0185262Y0079487D01*
X0185262Y0079723D02*
X0184312Y0079723D01*
X0184312Y0079959D02*
X0185262Y0079959D01*
X0185262Y0080195D02*
X0184312Y0080195D01*
X0184312Y0080431D02*
X0185262Y0080431D01*
X0185262Y0080667D02*
X0184312Y0080667D01*
X0184312Y0080903D02*
X0185262Y0080903D01*
X0185262Y0081139D02*
X0184312Y0081139D01*
X0184312Y0081375D02*
X0185262Y0081375D01*
X0185262Y0081611D02*
X0184312Y0081611D01*
X0184312Y0081847D02*
X0185262Y0081847D01*
X0185262Y0082083D02*
X0184312Y0082083D01*
X0184312Y0082319D02*
X0185262Y0082319D01*
X0182738Y0082387D02*
X0182738Y0078779D01*
X0182738Y0082387D02*
X0183688Y0082387D01*
X0183688Y0078779D01*
X0182738Y0078779D01*
X0182738Y0079015D02*
X0183688Y0079015D01*
X0183688Y0079251D02*
X0182738Y0079251D01*
X0182738Y0079487D02*
X0183688Y0079487D01*
X0183688Y0079723D02*
X0182738Y0079723D01*
X0182738Y0079959D02*
X0183688Y0079959D01*
X0183688Y0080195D02*
X0182738Y0080195D01*
X0182738Y0080431D02*
X0183688Y0080431D01*
X0183688Y0080667D02*
X0182738Y0080667D01*
X0182738Y0080903D02*
X0183688Y0080903D01*
X0183688Y0081139D02*
X0182738Y0081139D01*
X0182738Y0081375D02*
X0183688Y0081375D01*
X0183688Y0081611D02*
X0182738Y0081611D01*
X0182738Y0081847D02*
X0183688Y0081847D01*
X0183688Y0082083D02*
X0182738Y0082083D01*
X0182738Y0082319D02*
X0183688Y0082319D01*
X0181163Y0082387D02*
X0181163Y0078779D01*
X0181163Y0082387D02*
X0182113Y0082387D01*
X0182113Y0078779D01*
X0181163Y0078779D01*
X0181163Y0079015D02*
X0182113Y0079015D01*
X0182113Y0079251D02*
X0181163Y0079251D01*
X0181163Y0079487D02*
X0182113Y0079487D01*
X0182113Y0079723D02*
X0181163Y0079723D01*
X0181163Y0079959D02*
X0182113Y0079959D01*
X0182113Y0080195D02*
X0181163Y0080195D01*
X0181163Y0080431D02*
X0182113Y0080431D01*
X0182113Y0080667D02*
X0181163Y0080667D01*
X0181163Y0080903D02*
X0182113Y0080903D01*
X0182113Y0081139D02*
X0181163Y0081139D01*
X0181163Y0081375D02*
X0182113Y0081375D01*
X0182113Y0081611D02*
X0181163Y0081611D01*
X0181163Y0081847D02*
X0182113Y0081847D01*
X0182113Y0082083D02*
X0181163Y0082083D01*
X0181163Y0082319D02*
X0182113Y0082319D01*
X0179588Y0082387D02*
X0179588Y0078779D01*
X0179588Y0082387D02*
X0180538Y0082387D01*
X0180538Y0078779D01*
X0179588Y0078779D01*
X0179588Y0079015D02*
X0180538Y0079015D01*
X0180538Y0079251D02*
X0179588Y0079251D01*
X0179588Y0079487D02*
X0180538Y0079487D01*
X0180538Y0079723D02*
X0179588Y0079723D01*
X0179588Y0079959D02*
X0180538Y0079959D01*
X0180538Y0080195D02*
X0179588Y0080195D01*
X0179588Y0080431D02*
X0180538Y0080431D01*
X0180538Y0080667D02*
X0179588Y0080667D01*
X0179588Y0080903D02*
X0180538Y0080903D01*
X0180538Y0081139D02*
X0179588Y0081139D01*
X0179588Y0081375D02*
X0180538Y0081375D01*
X0180538Y0081611D02*
X0179588Y0081611D01*
X0179588Y0081847D02*
X0180538Y0081847D01*
X0180538Y0082083D02*
X0179588Y0082083D01*
X0179588Y0082319D02*
X0180538Y0082319D01*
X0178013Y0082387D02*
X0178013Y0078779D01*
X0178013Y0082387D02*
X0178963Y0082387D01*
X0178963Y0078779D01*
X0178013Y0078779D01*
X0178013Y0079015D02*
X0178963Y0079015D01*
X0178963Y0079251D02*
X0178013Y0079251D01*
X0178013Y0079487D02*
X0178963Y0079487D01*
X0178963Y0079723D02*
X0178013Y0079723D01*
X0178013Y0079959D02*
X0178963Y0079959D01*
X0178963Y0080195D02*
X0178013Y0080195D01*
X0178013Y0080431D02*
X0178963Y0080431D01*
X0178963Y0080667D02*
X0178013Y0080667D01*
X0178013Y0080903D02*
X0178963Y0080903D01*
X0178963Y0081139D02*
X0178013Y0081139D01*
X0178013Y0081375D02*
X0178963Y0081375D01*
X0178963Y0081611D02*
X0178013Y0081611D01*
X0178013Y0081847D02*
X0178963Y0081847D01*
X0178963Y0082083D02*
X0178013Y0082083D01*
X0178013Y0082319D02*
X0178963Y0082319D01*
X0176438Y0082387D02*
X0176438Y0078779D01*
X0176438Y0082387D02*
X0177388Y0082387D01*
X0177388Y0078779D01*
X0176438Y0078779D01*
X0176438Y0079015D02*
X0177388Y0079015D01*
X0177388Y0079251D02*
X0176438Y0079251D01*
X0176438Y0079487D02*
X0177388Y0079487D01*
X0177388Y0079723D02*
X0176438Y0079723D01*
X0176438Y0079959D02*
X0177388Y0079959D01*
X0177388Y0080195D02*
X0176438Y0080195D01*
X0176438Y0080431D02*
X0177388Y0080431D01*
X0177388Y0080667D02*
X0176438Y0080667D01*
X0176438Y0080903D02*
X0177388Y0080903D01*
X0177388Y0081139D02*
X0176438Y0081139D01*
X0176438Y0081375D02*
X0177388Y0081375D01*
X0177388Y0081611D02*
X0176438Y0081611D01*
X0176438Y0081847D02*
X0177388Y0081847D01*
X0177388Y0082083D02*
X0176438Y0082083D01*
X0176438Y0082319D02*
X0177388Y0082319D01*
X0174864Y0082387D02*
X0174864Y0078779D01*
X0174864Y0082387D02*
X0175814Y0082387D01*
X0175814Y0078779D01*
X0174864Y0078779D01*
X0174864Y0079015D02*
X0175814Y0079015D01*
X0175814Y0079251D02*
X0174864Y0079251D01*
X0174864Y0079487D02*
X0175814Y0079487D01*
X0175814Y0079723D02*
X0174864Y0079723D01*
X0174864Y0079959D02*
X0175814Y0079959D01*
X0175814Y0080195D02*
X0174864Y0080195D01*
X0174864Y0080431D02*
X0175814Y0080431D01*
X0175814Y0080667D02*
X0174864Y0080667D01*
X0174864Y0080903D02*
X0175814Y0080903D01*
X0175814Y0081139D02*
X0174864Y0081139D01*
X0174864Y0081375D02*
X0175814Y0081375D01*
X0175814Y0081611D02*
X0174864Y0081611D01*
X0174864Y0081847D02*
X0175814Y0081847D01*
X0175814Y0082083D02*
X0174864Y0082083D01*
X0174864Y0082319D02*
X0175814Y0082319D01*
X0173289Y0082387D02*
X0173289Y0078779D01*
X0173289Y0082387D02*
X0174239Y0082387D01*
X0174239Y0078779D01*
X0173289Y0078779D01*
X0173289Y0079015D02*
X0174239Y0079015D01*
X0174239Y0079251D02*
X0173289Y0079251D01*
X0173289Y0079487D02*
X0174239Y0079487D01*
X0174239Y0079723D02*
X0173289Y0079723D01*
X0173289Y0079959D02*
X0174239Y0079959D01*
X0174239Y0080195D02*
X0173289Y0080195D01*
X0173289Y0080431D02*
X0174239Y0080431D01*
X0174239Y0080667D02*
X0173289Y0080667D01*
X0173289Y0080903D02*
X0174239Y0080903D01*
X0174239Y0081139D02*
X0173289Y0081139D01*
X0173289Y0081375D02*
X0174239Y0081375D01*
X0174239Y0081611D02*
X0173289Y0081611D01*
X0173289Y0081847D02*
X0174239Y0081847D01*
X0174239Y0082083D02*
X0173289Y0082083D01*
X0173289Y0082319D02*
X0174239Y0082319D01*
X0172271Y0076811D02*
X0168663Y0076811D01*
X0168663Y0077761D01*
X0172271Y0077761D01*
X0172271Y0076811D01*
X0172271Y0077047D02*
X0168663Y0077047D01*
X0168663Y0077283D02*
X0172271Y0077283D01*
X0172271Y0077519D02*
X0168663Y0077519D01*
X0168663Y0077755D02*
X0172271Y0077755D01*
X0172271Y0075236D02*
X0168663Y0075236D01*
X0168663Y0076186D01*
X0172271Y0076186D01*
X0172271Y0075236D01*
X0172271Y0075472D02*
X0168663Y0075472D01*
X0168663Y0075708D02*
X0172271Y0075708D01*
X0172271Y0075944D02*
X0168663Y0075944D01*
X0168663Y0076180D02*
X0172271Y0076180D01*
X0172271Y0073662D02*
X0168663Y0073662D01*
X0168663Y0074612D01*
X0172271Y0074612D01*
X0172271Y0073662D01*
X0172271Y0073898D02*
X0168663Y0073898D01*
X0168663Y0074134D02*
X0172271Y0074134D01*
X0172271Y0074370D02*
X0168663Y0074370D01*
X0168663Y0074606D02*
X0172271Y0074606D01*
X0172271Y0072087D02*
X0168663Y0072087D01*
X0168663Y0073037D01*
X0172271Y0073037D01*
X0172271Y0072087D01*
X0172271Y0072323D02*
X0168663Y0072323D01*
X0168663Y0072559D02*
X0172271Y0072559D01*
X0172271Y0072795D02*
X0168663Y0072795D01*
X0168663Y0073031D02*
X0172271Y0073031D01*
X0172271Y0070512D02*
X0168663Y0070512D01*
X0168663Y0071462D01*
X0172271Y0071462D01*
X0172271Y0070512D01*
X0172271Y0070748D02*
X0168663Y0070748D01*
X0168663Y0070984D02*
X0172271Y0070984D01*
X0172271Y0071220D02*
X0168663Y0071220D01*
X0168663Y0071456D02*
X0172271Y0071456D01*
X0172271Y0068937D02*
X0168663Y0068937D01*
X0168663Y0069887D01*
X0172271Y0069887D01*
X0172271Y0068937D01*
X0172271Y0069173D02*
X0168663Y0069173D01*
X0168663Y0069409D02*
X0172271Y0069409D01*
X0172271Y0069645D02*
X0168663Y0069645D01*
X0168663Y0069881D02*
X0172271Y0069881D01*
X0172271Y0067362D02*
X0168663Y0067362D01*
X0168663Y0068312D01*
X0172271Y0068312D01*
X0172271Y0067362D01*
X0172271Y0067598D02*
X0168663Y0067598D01*
X0168663Y0067834D02*
X0172271Y0067834D01*
X0172271Y0068070D02*
X0168663Y0068070D01*
X0168663Y0068306D02*
X0172271Y0068306D01*
X0172271Y0065788D02*
X0168663Y0065788D01*
X0168663Y0066738D01*
X0172271Y0066738D01*
X0172271Y0065788D01*
X0172271Y0066024D02*
X0168663Y0066024D01*
X0168663Y0066260D02*
X0172271Y0066260D01*
X0172271Y0066496D02*
X0168663Y0066496D01*
X0168663Y0066732D02*
X0172271Y0066732D01*
X0172271Y0064213D02*
X0168663Y0064213D01*
X0168663Y0065163D01*
X0172271Y0065163D01*
X0172271Y0064213D01*
X0172271Y0064449D02*
X0168663Y0064449D01*
X0168663Y0064685D02*
X0172271Y0064685D01*
X0172271Y0064921D02*
X0168663Y0064921D01*
X0168663Y0065157D02*
X0172271Y0065157D01*
X0172271Y0062638D02*
X0168663Y0062638D01*
X0168663Y0063588D01*
X0172271Y0063588D01*
X0172271Y0062638D01*
X0172271Y0062874D02*
X0168663Y0062874D01*
X0168663Y0063110D02*
X0172271Y0063110D01*
X0172271Y0063346D02*
X0168663Y0063346D01*
X0168663Y0063582D02*
X0172271Y0063582D01*
X0172271Y0061063D02*
X0168663Y0061063D01*
X0168663Y0062013D01*
X0172271Y0062013D01*
X0172271Y0061063D01*
X0172271Y0061299D02*
X0168663Y0061299D01*
X0168663Y0061535D02*
X0172271Y0061535D01*
X0172271Y0061771D02*
X0168663Y0061771D01*
X0168663Y0062007D02*
X0172271Y0062007D01*
X0172271Y0059488D02*
X0168663Y0059488D01*
X0168663Y0060438D01*
X0172271Y0060438D01*
X0172271Y0059488D01*
X0172271Y0059724D02*
X0168663Y0059724D01*
X0168663Y0059960D02*
X0172271Y0059960D01*
X0172271Y0060196D02*
X0168663Y0060196D01*
X0168663Y0060432D02*
X0172271Y0060432D01*
X0172271Y0057914D02*
X0168663Y0057914D01*
X0168663Y0058864D01*
X0172271Y0058864D01*
X0172271Y0057914D01*
X0172271Y0058150D02*
X0168663Y0058150D01*
X0168663Y0058386D02*
X0172271Y0058386D01*
X0172271Y0058622D02*
X0168663Y0058622D01*
X0168663Y0058858D02*
X0172271Y0058858D01*
X0172271Y0056339D02*
X0168663Y0056339D01*
X0168663Y0057289D01*
X0172271Y0057289D01*
X0172271Y0056339D01*
X0172271Y0056575D02*
X0168663Y0056575D01*
X0168663Y0056811D02*
X0172271Y0056811D01*
X0172271Y0057047D02*
X0168663Y0057047D01*
X0168663Y0057283D02*
X0172271Y0057283D01*
X0174239Y0055321D02*
X0174239Y0051713D01*
X0173289Y0051713D01*
X0173289Y0055321D01*
X0174239Y0055321D01*
X0174239Y0051949D02*
X0173289Y0051949D01*
X0173289Y0052185D02*
X0174239Y0052185D01*
X0174239Y0052421D02*
X0173289Y0052421D01*
X0173289Y0052657D02*
X0174239Y0052657D01*
X0174239Y0052893D02*
X0173289Y0052893D01*
X0173289Y0053129D02*
X0174239Y0053129D01*
X0174239Y0053365D02*
X0173289Y0053365D01*
X0173289Y0053601D02*
X0174239Y0053601D01*
X0174239Y0053837D02*
X0173289Y0053837D01*
X0173289Y0054073D02*
X0174239Y0054073D01*
X0174239Y0054309D02*
X0173289Y0054309D01*
X0173289Y0054545D02*
X0174239Y0054545D01*
X0174239Y0054781D02*
X0173289Y0054781D01*
X0173289Y0055017D02*
X0174239Y0055017D01*
X0174239Y0055253D02*
X0173289Y0055253D01*
X0175814Y0055321D02*
X0175814Y0051713D01*
X0174864Y0051713D01*
X0174864Y0055321D01*
X0175814Y0055321D01*
X0175814Y0051949D02*
X0174864Y0051949D01*
X0174864Y0052185D02*
X0175814Y0052185D01*
X0175814Y0052421D02*
X0174864Y0052421D01*
X0174864Y0052657D02*
X0175814Y0052657D01*
X0175814Y0052893D02*
X0174864Y0052893D01*
X0174864Y0053129D02*
X0175814Y0053129D01*
X0175814Y0053365D02*
X0174864Y0053365D01*
X0174864Y0053601D02*
X0175814Y0053601D01*
X0175814Y0053837D02*
X0174864Y0053837D01*
X0174864Y0054073D02*
X0175814Y0054073D01*
X0175814Y0054309D02*
X0174864Y0054309D01*
X0174864Y0054545D02*
X0175814Y0054545D01*
X0175814Y0054781D02*
X0174864Y0054781D01*
X0174864Y0055017D02*
X0175814Y0055017D01*
X0175814Y0055253D02*
X0174864Y0055253D01*
X0177388Y0055321D02*
X0177388Y0051713D01*
X0176438Y0051713D01*
X0176438Y0055321D01*
X0177388Y0055321D01*
X0177388Y0051949D02*
X0176438Y0051949D01*
X0176438Y0052185D02*
X0177388Y0052185D01*
X0177388Y0052421D02*
X0176438Y0052421D01*
X0176438Y0052657D02*
X0177388Y0052657D01*
X0177388Y0052893D02*
X0176438Y0052893D01*
X0176438Y0053129D02*
X0177388Y0053129D01*
X0177388Y0053365D02*
X0176438Y0053365D01*
X0176438Y0053601D02*
X0177388Y0053601D01*
X0177388Y0053837D02*
X0176438Y0053837D01*
X0176438Y0054073D02*
X0177388Y0054073D01*
X0177388Y0054309D02*
X0176438Y0054309D01*
X0176438Y0054545D02*
X0177388Y0054545D01*
X0177388Y0054781D02*
X0176438Y0054781D01*
X0176438Y0055017D02*
X0177388Y0055017D01*
X0177388Y0055253D02*
X0176438Y0055253D01*
X0178963Y0055321D02*
X0178963Y0051713D01*
X0178013Y0051713D01*
X0178013Y0055321D01*
X0178963Y0055321D01*
X0178963Y0051949D02*
X0178013Y0051949D01*
X0178013Y0052185D02*
X0178963Y0052185D01*
X0178963Y0052421D02*
X0178013Y0052421D01*
X0178013Y0052657D02*
X0178963Y0052657D01*
X0178963Y0052893D02*
X0178013Y0052893D01*
X0178013Y0053129D02*
X0178963Y0053129D01*
X0178963Y0053365D02*
X0178013Y0053365D01*
X0178013Y0053601D02*
X0178963Y0053601D01*
X0178963Y0053837D02*
X0178013Y0053837D01*
X0178013Y0054073D02*
X0178963Y0054073D01*
X0178963Y0054309D02*
X0178013Y0054309D01*
X0178013Y0054545D02*
X0178963Y0054545D01*
X0178963Y0054781D02*
X0178013Y0054781D01*
X0178013Y0055017D02*
X0178963Y0055017D01*
X0178963Y0055253D02*
X0178013Y0055253D01*
X0180538Y0055321D02*
X0180538Y0051713D01*
X0179588Y0051713D01*
X0179588Y0055321D01*
X0180538Y0055321D01*
X0180538Y0051949D02*
X0179588Y0051949D01*
X0179588Y0052185D02*
X0180538Y0052185D01*
X0180538Y0052421D02*
X0179588Y0052421D01*
X0179588Y0052657D02*
X0180538Y0052657D01*
X0180538Y0052893D02*
X0179588Y0052893D01*
X0179588Y0053129D02*
X0180538Y0053129D01*
X0180538Y0053365D02*
X0179588Y0053365D01*
X0179588Y0053601D02*
X0180538Y0053601D01*
X0180538Y0053837D02*
X0179588Y0053837D01*
X0179588Y0054073D02*
X0180538Y0054073D01*
X0180538Y0054309D02*
X0179588Y0054309D01*
X0179588Y0054545D02*
X0180538Y0054545D01*
X0180538Y0054781D02*
X0179588Y0054781D01*
X0179588Y0055017D02*
X0180538Y0055017D01*
X0180538Y0055253D02*
X0179588Y0055253D01*
X0182113Y0055321D02*
X0182113Y0051713D01*
X0181163Y0051713D01*
X0181163Y0055321D01*
X0182113Y0055321D01*
X0182113Y0051949D02*
X0181163Y0051949D01*
X0181163Y0052185D02*
X0182113Y0052185D01*
X0182113Y0052421D02*
X0181163Y0052421D01*
X0181163Y0052657D02*
X0182113Y0052657D01*
X0182113Y0052893D02*
X0181163Y0052893D01*
X0181163Y0053129D02*
X0182113Y0053129D01*
X0182113Y0053365D02*
X0181163Y0053365D01*
X0181163Y0053601D02*
X0182113Y0053601D01*
X0182113Y0053837D02*
X0181163Y0053837D01*
X0181163Y0054073D02*
X0182113Y0054073D01*
X0182113Y0054309D02*
X0181163Y0054309D01*
X0181163Y0054545D02*
X0182113Y0054545D01*
X0182113Y0054781D02*
X0181163Y0054781D01*
X0181163Y0055017D02*
X0182113Y0055017D01*
X0182113Y0055253D02*
X0181163Y0055253D01*
X0183688Y0055321D02*
X0183688Y0051713D01*
X0182738Y0051713D01*
X0182738Y0055321D01*
X0183688Y0055321D01*
X0183688Y0051949D02*
X0182738Y0051949D01*
X0182738Y0052185D02*
X0183688Y0052185D01*
X0183688Y0052421D02*
X0182738Y0052421D01*
X0182738Y0052657D02*
X0183688Y0052657D01*
X0183688Y0052893D02*
X0182738Y0052893D01*
X0182738Y0053129D02*
X0183688Y0053129D01*
X0183688Y0053365D02*
X0182738Y0053365D01*
X0182738Y0053601D02*
X0183688Y0053601D01*
X0183688Y0053837D02*
X0182738Y0053837D01*
X0182738Y0054073D02*
X0183688Y0054073D01*
X0183688Y0054309D02*
X0182738Y0054309D01*
X0182738Y0054545D02*
X0183688Y0054545D01*
X0183688Y0054781D02*
X0182738Y0054781D01*
X0182738Y0055017D02*
X0183688Y0055017D01*
X0183688Y0055253D02*
X0182738Y0055253D01*
X0185262Y0055321D02*
X0185262Y0051713D01*
X0184312Y0051713D01*
X0184312Y0055321D01*
X0185262Y0055321D01*
X0185262Y0051949D02*
X0184312Y0051949D01*
X0184312Y0052185D02*
X0185262Y0052185D01*
X0185262Y0052421D02*
X0184312Y0052421D01*
X0184312Y0052657D02*
X0185262Y0052657D01*
X0185262Y0052893D02*
X0184312Y0052893D01*
X0184312Y0053129D02*
X0185262Y0053129D01*
X0185262Y0053365D02*
X0184312Y0053365D01*
X0184312Y0053601D02*
X0185262Y0053601D01*
X0185262Y0053837D02*
X0184312Y0053837D01*
X0184312Y0054073D02*
X0185262Y0054073D01*
X0185262Y0054309D02*
X0184312Y0054309D01*
X0184312Y0054545D02*
X0185262Y0054545D01*
X0185262Y0054781D02*
X0184312Y0054781D01*
X0184312Y0055017D02*
X0185262Y0055017D01*
X0185262Y0055253D02*
X0184312Y0055253D01*
X0186837Y0055321D02*
X0186837Y0051713D01*
X0185887Y0051713D01*
X0185887Y0055321D01*
X0186837Y0055321D01*
X0186837Y0051949D02*
X0185887Y0051949D01*
X0185887Y0052185D02*
X0186837Y0052185D01*
X0186837Y0052421D02*
X0185887Y0052421D01*
X0185887Y0052657D02*
X0186837Y0052657D01*
X0186837Y0052893D02*
X0185887Y0052893D01*
X0185887Y0053129D02*
X0186837Y0053129D01*
X0186837Y0053365D02*
X0185887Y0053365D01*
X0185887Y0053601D02*
X0186837Y0053601D01*
X0186837Y0053837D02*
X0185887Y0053837D01*
X0185887Y0054073D02*
X0186837Y0054073D01*
X0186837Y0054309D02*
X0185887Y0054309D01*
X0185887Y0054545D02*
X0186837Y0054545D01*
X0186837Y0054781D02*
X0185887Y0054781D01*
X0185887Y0055017D02*
X0186837Y0055017D01*
X0186837Y0055253D02*
X0185887Y0055253D01*
X0188412Y0055321D02*
X0188412Y0051713D01*
X0187462Y0051713D01*
X0187462Y0055321D01*
X0188412Y0055321D01*
X0188412Y0051949D02*
X0187462Y0051949D01*
X0187462Y0052185D02*
X0188412Y0052185D01*
X0188412Y0052421D02*
X0187462Y0052421D01*
X0187462Y0052657D02*
X0188412Y0052657D01*
X0188412Y0052893D02*
X0187462Y0052893D01*
X0187462Y0053129D02*
X0188412Y0053129D01*
X0188412Y0053365D02*
X0187462Y0053365D01*
X0187462Y0053601D02*
X0188412Y0053601D01*
X0188412Y0053837D02*
X0187462Y0053837D01*
X0187462Y0054073D02*
X0188412Y0054073D01*
X0188412Y0054309D02*
X0187462Y0054309D01*
X0187462Y0054545D02*
X0188412Y0054545D01*
X0188412Y0054781D02*
X0187462Y0054781D01*
X0187462Y0055017D02*
X0188412Y0055017D01*
X0188412Y0055253D02*
X0187462Y0055253D01*
X0189987Y0055321D02*
X0189987Y0051713D01*
X0189037Y0051713D01*
X0189037Y0055321D01*
X0189987Y0055321D01*
X0189987Y0051949D02*
X0189037Y0051949D01*
X0189037Y0052185D02*
X0189987Y0052185D01*
X0189987Y0052421D02*
X0189037Y0052421D01*
X0189037Y0052657D02*
X0189987Y0052657D01*
X0189987Y0052893D02*
X0189037Y0052893D01*
X0189037Y0053129D02*
X0189987Y0053129D01*
X0189987Y0053365D02*
X0189037Y0053365D01*
X0189037Y0053601D02*
X0189987Y0053601D01*
X0189987Y0053837D02*
X0189037Y0053837D01*
X0189037Y0054073D02*
X0189987Y0054073D01*
X0189987Y0054309D02*
X0189037Y0054309D01*
X0189037Y0054545D02*
X0189987Y0054545D01*
X0189987Y0054781D02*
X0189037Y0054781D01*
X0189037Y0055017D02*
X0189987Y0055017D01*
X0189987Y0055253D02*
X0189037Y0055253D01*
X0191562Y0055321D02*
X0191562Y0051713D01*
X0190612Y0051713D01*
X0190612Y0055321D01*
X0191562Y0055321D01*
X0191562Y0051949D02*
X0190612Y0051949D01*
X0190612Y0052185D02*
X0191562Y0052185D01*
X0191562Y0052421D02*
X0190612Y0052421D01*
X0190612Y0052657D02*
X0191562Y0052657D01*
X0191562Y0052893D02*
X0190612Y0052893D01*
X0190612Y0053129D02*
X0191562Y0053129D01*
X0191562Y0053365D02*
X0190612Y0053365D01*
X0190612Y0053601D02*
X0191562Y0053601D01*
X0191562Y0053837D02*
X0190612Y0053837D01*
X0190612Y0054073D02*
X0191562Y0054073D01*
X0191562Y0054309D02*
X0190612Y0054309D01*
X0190612Y0054545D02*
X0191562Y0054545D01*
X0191562Y0054781D02*
X0190612Y0054781D01*
X0190612Y0055017D02*
X0191562Y0055017D01*
X0191562Y0055253D02*
X0190612Y0055253D01*
X0193136Y0055321D02*
X0193136Y0051713D01*
X0192186Y0051713D01*
X0192186Y0055321D01*
X0193136Y0055321D01*
X0193136Y0051949D02*
X0192186Y0051949D01*
X0192186Y0052185D02*
X0193136Y0052185D01*
X0193136Y0052421D02*
X0192186Y0052421D01*
X0192186Y0052657D02*
X0193136Y0052657D01*
X0193136Y0052893D02*
X0192186Y0052893D01*
X0192186Y0053129D02*
X0193136Y0053129D01*
X0193136Y0053365D02*
X0192186Y0053365D01*
X0192186Y0053601D02*
X0193136Y0053601D01*
X0193136Y0053837D02*
X0192186Y0053837D01*
X0192186Y0054073D02*
X0193136Y0054073D01*
X0193136Y0054309D02*
X0192186Y0054309D01*
X0192186Y0054545D02*
X0193136Y0054545D01*
X0193136Y0054781D02*
X0192186Y0054781D01*
X0192186Y0055017D02*
X0193136Y0055017D01*
X0193136Y0055253D02*
X0192186Y0055253D01*
X0194711Y0055321D02*
X0194711Y0051713D01*
X0193761Y0051713D01*
X0193761Y0055321D01*
X0194711Y0055321D01*
X0194711Y0051949D02*
X0193761Y0051949D01*
X0193761Y0052185D02*
X0194711Y0052185D01*
X0194711Y0052421D02*
X0193761Y0052421D01*
X0193761Y0052657D02*
X0194711Y0052657D01*
X0194711Y0052893D02*
X0193761Y0052893D01*
X0193761Y0053129D02*
X0194711Y0053129D01*
X0194711Y0053365D02*
X0193761Y0053365D01*
X0193761Y0053601D02*
X0194711Y0053601D01*
X0194711Y0053837D02*
X0193761Y0053837D01*
X0193761Y0054073D02*
X0194711Y0054073D01*
X0194711Y0054309D02*
X0193761Y0054309D01*
X0193761Y0054545D02*
X0194711Y0054545D01*
X0194711Y0054781D02*
X0193761Y0054781D01*
X0193761Y0055017D02*
X0194711Y0055017D01*
X0194711Y0055253D02*
X0193761Y0055253D01*
X0195729Y0057289D02*
X0199337Y0057289D01*
X0199337Y0056339D01*
X0195729Y0056339D01*
X0195729Y0057289D01*
X0195729Y0056575D02*
X0199337Y0056575D01*
X0199337Y0056811D02*
X0195729Y0056811D01*
X0195729Y0057047D02*
X0199337Y0057047D01*
X0199337Y0057283D02*
X0195729Y0057283D01*
X0195729Y0058864D02*
X0199337Y0058864D01*
X0199337Y0057914D01*
X0195729Y0057914D01*
X0195729Y0058864D01*
X0195729Y0058150D02*
X0199337Y0058150D01*
X0199337Y0058386D02*
X0195729Y0058386D01*
X0195729Y0058622D02*
X0199337Y0058622D01*
X0199337Y0058858D02*
X0195729Y0058858D01*
X0195729Y0060438D02*
X0199337Y0060438D01*
X0199337Y0059488D01*
X0195729Y0059488D01*
X0195729Y0060438D01*
X0195729Y0059724D02*
X0199337Y0059724D01*
X0199337Y0059960D02*
X0195729Y0059960D01*
X0195729Y0060196D02*
X0199337Y0060196D01*
X0199337Y0060432D02*
X0195729Y0060432D01*
X0195729Y0062013D02*
X0199337Y0062013D01*
X0199337Y0061063D01*
X0195729Y0061063D01*
X0195729Y0062013D01*
X0195729Y0061299D02*
X0199337Y0061299D01*
X0199337Y0061535D02*
X0195729Y0061535D01*
X0195729Y0061771D02*
X0199337Y0061771D01*
X0199337Y0062007D02*
X0195729Y0062007D01*
X0195729Y0063588D02*
X0199337Y0063588D01*
X0199337Y0062638D01*
X0195729Y0062638D01*
X0195729Y0063588D01*
X0195729Y0062874D02*
X0199337Y0062874D01*
X0199337Y0063110D02*
X0195729Y0063110D01*
X0195729Y0063346D02*
X0199337Y0063346D01*
X0199337Y0063582D02*
X0195729Y0063582D01*
X0195729Y0065163D02*
X0199337Y0065163D01*
X0199337Y0064213D01*
X0195729Y0064213D01*
X0195729Y0065163D01*
X0195729Y0064449D02*
X0199337Y0064449D01*
X0199337Y0064685D02*
X0195729Y0064685D01*
X0195729Y0064921D02*
X0199337Y0064921D01*
X0199337Y0065157D02*
X0195729Y0065157D01*
X0195729Y0066738D02*
X0199337Y0066738D01*
X0199337Y0065788D01*
X0195729Y0065788D01*
X0195729Y0066738D01*
X0195729Y0066024D02*
X0199337Y0066024D01*
X0199337Y0066260D02*
X0195729Y0066260D01*
X0195729Y0066496D02*
X0199337Y0066496D01*
X0199337Y0066732D02*
X0195729Y0066732D01*
X0195729Y0068312D02*
X0199337Y0068312D01*
X0199337Y0067362D01*
X0195729Y0067362D01*
X0195729Y0068312D01*
X0195729Y0067598D02*
X0199337Y0067598D01*
X0199337Y0067834D02*
X0195729Y0067834D01*
X0195729Y0068070D02*
X0199337Y0068070D01*
X0199337Y0068306D02*
X0195729Y0068306D01*
X0195729Y0069887D02*
X0199337Y0069887D01*
X0199337Y0068937D01*
X0195729Y0068937D01*
X0195729Y0069887D01*
X0195729Y0069173D02*
X0199337Y0069173D01*
X0199337Y0069409D02*
X0195729Y0069409D01*
X0195729Y0069645D02*
X0199337Y0069645D01*
X0199337Y0069881D02*
X0195729Y0069881D01*
X0195729Y0071462D02*
X0199337Y0071462D01*
X0199337Y0070512D01*
X0195729Y0070512D01*
X0195729Y0071462D01*
X0195729Y0070748D02*
X0199337Y0070748D01*
X0199337Y0070984D02*
X0195729Y0070984D01*
X0195729Y0071220D02*
X0199337Y0071220D01*
X0199337Y0071456D02*
X0195729Y0071456D01*
X0195729Y0073037D02*
X0199337Y0073037D01*
X0199337Y0072087D01*
X0195729Y0072087D01*
X0195729Y0073037D01*
X0195729Y0072323D02*
X0199337Y0072323D01*
X0199337Y0072559D02*
X0195729Y0072559D01*
X0195729Y0072795D02*
X0199337Y0072795D01*
X0199337Y0073031D02*
X0195729Y0073031D01*
X0195729Y0074612D02*
X0199337Y0074612D01*
X0199337Y0073662D01*
X0195729Y0073662D01*
X0195729Y0074612D01*
X0195729Y0073898D02*
X0199337Y0073898D01*
X0199337Y0074134D02*
X0195729Y0074134D01*
X0195729Y0074370D02*
X0199337Y0074370D01*
X0199337Y0074606D02*
X0195729Y0074606D01*
X0195729Y0076186D02*
X0199337Y0076186D01*
X0199337Y0075236D01*
X0195729Y0075236D01*
X0195729Y0076186D01*
X0195729Y0075472D02*
X0199337Y0075472D01*
X0199337Y0075708D02*
X0195729Y0075708D01*
X0195729Y0075944D02*
X0199337Y0075944D01*
X0199337Y0076180D02*
X0195729Y0076180D01*
X0195729Y0077761D02*
X0199337Y0077761D01*
X0199337Y0076811D01*
X0195729Y0076811D01*
X0195729Y0077761D01*
X0195729Y0077047D02*
X0199337Y0077047D01*
X0199337Y0077283D02*
X0195729Y0077283D01*
X0195729Y0077519D02*
X0199337Y0077519D01*
X0199337Y0077755D02*
X0195729Y0077755D01*
D19*
X0189849Y0072899D02*
X0178151Y0072899D01*
X0189849Y0072899D02*
X0189849Y0061201D01*
X0178151Y0061201D01*
X0178151Y0072899D01*
X0178151Y0062500D02*
X0189849Y0062500D01*
X0189849Y0063799D02*
X0178151Y0063799D01*
X0178151Y0065098D02*
X0189849Y0065098D01*
X0189849Y0066397D02*
X0178151Y0066397D01*
X0178151Y0067696D02*
X0189849Y0067696D01*
X0189849Y0068995D02*
X0178151Y0068995D01*
X0178151Y0070294D02*
X0189849Y0070294D01*
X0189849Y0071593D02*
X0178151Y0071593D01*
X0178151Y0072892D02*
X0189849Y0072892D01*
D20*
X0187488Y0044003D03*
X0187488Y0042034D03*
X0187488Y0040066D03*
X0187488Y0038097D03*
X0198512Y0038097D03*
X0198512Y0040066D03*
X0198512Y0042034D03*
X0198512Y0044003D03*
D21*
X0188642Y0094522D03*
X0181358Y0094522D03*
X0181358Y0103578D03*
X0188642Y0103578D03*
D22*
X0194780Y0018050D03*
X0167220Y0018050D03*
D23*
X0171157Y0028680D03*
X0190843Y0028680D03*
D24*
X0186118Y0028680D03*
X0183559Y0028680D03*
X0181000Y0028680D03*
X0178441Y0028680D03*
X0175882Y0028680D03*
D25*
X0177063Y0018050D03*
X0184937Y0018050D03*
D26*
X0172000Y0041081D03*
X0172000Y0045019D03*
X0162000Y0050081D03*
X0162000Y0054019D03*
X0194000Y0096081D03*
X0194000Y0100019D03*
X0176000Y0104081D03*
X0176000Y0108019D03*
D27*
X0206850Y0032121D03*
X0213150Y0032121D03*
X0213150Y0015979D03*
X0206850Y0015979D03*
D28*
X0166640Y0092190D02*
X0166640Y0100910D01*
X0169360Y0100910D01*
X0169360Y0092190D01*
X0166640Y0092190D01*
X0166640Y0092869D02*
X0169360Y0092869D01*
X0169360Y0093548D02*
X0166640Y0093548D01*
X0166640Y0094227D02*
X0169360Y0094227D01*
X0169360Y0094906D02*
X0166640Y0094906D01*
X0166640Y0095585D02*
X0169360Y0095585D01*
X0169360Y0096264D02*
X0166640Y0096264D01*
X0166640Y0096943D02*
X0169360Y0096943D01*
X0169360Y0097622D02*
X0166640Y0097622D01*
X0166640Y0098301D02*
X0169360Y0098301D01*
X0169360Y0098980D02*
X0166640Y0098980D01*
X0166640Y0099659D02*
X0169360Y0099659D01*
X0169360Y0100338D02*
X0166640Y0100338D01*
X0161640Y0101190D02*
X0161640Y0109910D01*
X0164360Y0109910D01*
X0164360Y0101190D01*
X0161640Y0101190D01*
X0161640Y0101869D02*
X0164360Y0101869D01*
X0164360Y0102548D02*
X0161640Y0102548D01*
X0161640Y0103227D02*
X0164360Y0103227D01*
X0164360Y0103906D02*
X0161640Y0103906D01*
X0161640Y0104585D02*
X0164360Y0104585D01*
X0164360Y0105264D02*
X0161640Y0105264D01*
X0161640Y0105943D02*
X0164360Y0105943D01*
X0164360Y0106622D02*
X0161640Y0106622D01*
X0161640Y0107301D02*
X0164360Y0107301D01*
X0164360Y0107980D02*
X0161640Y0107980D01*
X0161640Y0108659D02*
X0164360Y0108659D01*
X0164360Y0109338D02*
X0161640Y0109338D01*
X0156640Y0100910D02*
X0156640Y0092190D01*
X0156640Y0100910D02*
X0159360Y0100910D01*
X0159360Y0092190D01*
X0156640Y0092190D01*
X0156640Y0092869D02*
X0159360Y0092869D01*
X0159360Y0093548D02*
X0156640Y0093548D01*
X0156640Y0094227D02*
X0159360Y0094227D01*
X0159360Y0094906D02*
X0156640Y0094906D01*
X0156640Y0095585D02*
X0159360Y0095585D01*
X0159360Y0096264D02*
X0156640Y0096264D01*
X0156640Y0096943D02*
X0159360Y0096943D01*
X0159360Y0097622D02*
X0156640Y0097622D01*
X0156640Y0098301D02*
X0159360Y0098301D01*
X0159360Y0098980D02*
X0156640Y0098980D01*
X0156640Y0099659D02*
X0159360Y0099659D01*
X0159360Y0100338D02*
X0156640Y0100338D01*
D29*
G36*
X0177793Y0089954D02*
X0180904Y0086843D01*
X0179207Y0085146D01*
X0176096Y0088257D01*
X0177793Y0089954D01*
G37*
D30*
X0037000Y0092050D03*
X0037000Y0087050D03*
X0037000Y0082050D03*
X0037000Y0077050D03*
X0037000Y0072050D03*
X0037000Y0067050D03*
X0037000Y0062050D03*
X0037000Y0057050D03*
X0037000Y0052050D03*
X0037000Y0047050D03*
X0037000Y0042050D03*
X0037000Y0037050D03*
X0021000Y0037050D03*
X0021000Y0042050D03*
X0021000Y0047050D03*
X0021000Y0052050D03*
X0021000Y0057050D03*
X0021000Y0062050D03*
X0021000Y0067050D03*
X0021000Y0072050D03*
X0021000Y0077050D03*
X0021000Y0082050D03*
X0021000Y0087050D03*
X0021000Y0092050D03*
X0021000Y0097050D03*
X0037000Y0097050D03*
D31*
X0078500Y0038300D03*
X0083500Y0038300D03*
X0088500Y0038300D03*
X0093500Y0038300D03*
X0093500Y0023800D03*
X0088500Y0023800D03*
X0083500Y0023800D03*
X0078500Y0023800D03*
D32*
X0132881Y0114310D03*
X0132881Y0118050D03*
X0132881Y0121790D03*
X0143119Y0121790D03*
X0143119Y0118050D03*
X0143119Y0114310D03*
D33*
X0060740Y0105169D03*
X0057000Y0105169D03*
X0053260Y0105169D03*
X0053260Y0094931D03*
X0057000Y0094931D03*
X0060740Y0094931D03*
X0060740Y0086169D03*
X0057000Y0086169D03*
X0053260Y0086169D03*
X0053260Y0075931D03*
X0057000Y0075931D03*
X0060740Y0075931D03*
X0060740Y0067169D03*
X0057000Y0067169D03*
X0053260Y0067169D03*
X0053260Y0056931D03*
X0057000Y0056931D03*
X0060740Y0056931D03*
X0060740Y0048169D03*
X0057000Y0048169D03*
X0053260Y0048169D03*
X0053260Y0037931D03*
X0057000Y0037931D03*
X0060740Y0037931D03*
D34*
X0084000Y0102050D02*
X0084000Y0106184D01*
X0089000Y0106184D02*
X0089000Y0102050D01*
X0094000Y0102050D02*
X0094000Y0106184D01*
X0099000Y0106184D02*
X0099000Y0102050D01*
D35*
X0130047Y0025050D03*
X0135953Y0025050D03*
X0135953Y0018550D03*
X0130047Y0018550D03*
X0130047Y0012050D03*
X0135953Y0012050D03*
M02*
