%TF.GenerationSoftware,KiCad,Pcbnew,7.0.10-7.0.10~ubuntu22.04.1*%
%TF.CreationDate,2024-01-03T09:44:53-05:00*%
%TF.ProjectId,source-splitter,736f7572-6365-42d7-9370-6c6974746572,rev?*%
%TF.SameCoordinates,Original*%
%TF.FileFunction,Copper,L4,Bot*%
%TF.FilePolarity,Positive*%
%FSLAX46Y46*%
G04 Gerber Fmt 4.6, Leading zero omitted, Abs format (unit mm)*
G04 Created by KiCad (PCBNEW 7.0.10-7.0.10~ubuntu22.04.1) date 2024-01-03 09:44:53*
%MOMM*%
%LPD*%
G01*
G04 APERTURE LIST*
%TA.AperFunction,ViaPad*%
%ADD10C,0.508000*%
%TD*%
%TA.AperFunction,Conductor*%
%ADD11C,0.304800*%
%TD*%
G04 APERTURE END LIST*
D10*
%TO.N,/LED_3B*%
X36601400Y-30505400D03*
X36195000Y-40513000D03*
%TO.N,/LED_3A*%
X37338000Y-46482000D03*
X36703000Y-38227000D03*
%TO.N,/LED_4A*%
X34798000Y-46609000D03*
X35306000Y-30480000D03*
%TO.N,/LED_5B*%
X30988000Y-40513000D03*
X32766000Y-30480000D03*
%TO.N,/LED_5A*%
X32766000Y-38354000D03*
X32258000Y-46482000D03*
%TO.N,/LED_6A*%
X29718000Y-46482000D03*
X31496000Y-30480000D03*
%TO.N,/LED_7B*%
X28956000Y-30607000D03*
X25908000Y-40513000D03*
%TO.N,/LED_7A*%
X28956000Y-38354000D03*
X27178000Y-46609000D03*
%TO.N,/LED_2A*%
X39878000Y-46482000D03*
X39116000Y-30480000D03*
%TO.N,/LED_0A*%
X42926000Y-30226000D03*
X44958000Y-46482000D03*
%TO.N,/LED_1B*%
X41148000Y-40513000D03*
X40386000Y-30353000D03*
%TO.N,/LED_1A*%
X40386000Y-38354000D03*
X42418000Y-46482000D03*
%TD*%
D11*
%TO.N,/LED_3B*%
X36601400Y-30505400D02*
X36601400Y-36677600D01*
X36068000Y-40386000D02*
X36195000Y-40513000D01*
X36068000Y-37211000D02*
X36068000Y-40386000D01*
X36601400Y-36677600D02*
X36068000Y-37211000D01*
%TO.N,/LED_3A*%
X37338000Y-38862000D02*
X37338000Y-46482000D01*
X36703000Y-38227000D02*
X37338000Y-38862000D01*
%TO.N,/LED_4A*%
X35306000Y-30480000D02*
X34798000Y-30988000D01*
X34798000Y-30988000D02*
X34798000Y-46609000D01*
%TO.N,/LED_5B*%
X32766000Y-30480000D02*
X30988000Y-32258000D01*
X30988000Y-32258000D02*
X30988000Y-40513000D01*
%TO.N,/LED_5A*%
X32766000Y-38354000D02*
X32258000Y-38862000D01*
X32258000Y-38862000D02*
X32258000Y-46482000D01*
%TO.N,/LED_6A*%
X29718000Y-46482000D02*
X29718000Y-32258000D01*
X29718000Y-32258000D02*
X31496000Y-30480000D01*
%TO.N,/LED_7B*%
X25908000Y-40513000D02*
X25908000Y-33655000D01*
X25908000Y-33655000D02*
X28956000Y-30607000D01*
%TO.N,/LED_7A*%
X28956000Y-38354000D02*
X27178000Y-40132000D01*
X27178000Y-40132000D02*
X27178000Y-46609000D01*
%TO.N,/LED_2A*%
X39116000Y-45720000D02*
X39878000Y-46482000D01*
X39116000Y-30480000D02*
X39116000Y-45720000D01*
%TO.N,/LED_0A*%
X44958000Y-46482000D02*
X44958000Y-32258000D01*
X44958000Y-32258000D02*
X42926000Y-30226000D01*
%TO.N,/LED_1B*%
X39674800Y-31064200D02*
X39674800Y-39039800D01*
X40386000Y-30353000D02*
X39674800Y-31064200D01*
X39674800Y-39039800D02*
X41148000Y-40513000D01*
%TO.N,/LED_1A*%
X42037000Y-39497000D02*
X42418000Y-39878000D01*
X40386000Y-38354000D02*
X40894000Y-38354000D01*
X42418000Y-39878000D02*
X42418000Y-46482000D01*
X40894000Y-38354000D02*
X42037000Y-39497000D01*
%TD*%
M02*
