%TF.GenerationSoftware,KiCad,Pcbnew,7.0.10-7.0.10~ubuntu22.04.1*%
%TF.CreationDate,2024-01-03T09:44:53-05:00*%
%TF.ProjectId,source-splitter,736f7572-6365-42d7-9370-6c6974746572,rev?*%
%TF.SameCoordinates,Original*%
%TF.FileFunction,Soldermask,Top*%
%TF.FilePolarity,Negative*%
%FSLAX46Y46*%
G04 Gerber Fmt 4.6, Leading zero omitted, Abs format (unit mm)*
G04 Created by KiCad (PCBNEW 7.0.10-7.0.10~ubuntu22.04.1) date 2024-01-03 09:44:53*
%MOMM*%
%LPD*%
G01*
G04 APERTURE LIST*
G04 Aperture macros list*
%AMRoundRect*
0 Rectangle with rounded corners*
0 $1 Rounding radius*
0 $2 $3 $4 $5 $6 $7 $8 $9 X,Y pos of 4 corners*
0 Add a 4 corners polygon primitive as box body*
4,1,4,$2,$3,$4,$5,$6,$7,$8,$9,$2,$3,0*
0 Add four circle primitives for the rounded corners*
1,1,$1+$1,$2,$3*
1,1,$1+$1,$4,$5*
1,1,$1+$1,$6,$7*
1,1,$1+$1,$8,$9*
0 Add four rect primitives between the rounded corners*
20,1,$1+$1,$2,$3,$4,$5,0*
20,1,$1+$1,$4,$5,$6,$7,0*
20,1,$1+$1,$6,$7,$8,$9,0*
20,1,$1+$1,$8,$9,$2,$3,0*%
G04 Aperture macros list end*
%ADD10RoundRect,0.102000X0.370000X1.397500X-0.370000X1.397500X-0.370000X-1.397500X0.370000X-1.397500X0*%
%ADD11RoundRect,0.102000X-0.370000X-1.110000X0.370000X-1.110000X0.370000X1.110000X-0.370000X1.110000X0*%
G04 APERTURE END LIST*
D10*
%TO.C,J1*%
X42951400Y-32385000D03*
X42951400Y-36450000D03*
X41681400Y-32385000D03*
X41681400Y-36450000D03*
X40411400Y-32385000D03*
X40411400Y-36450000D03*
X39141400Y-32385000D03*
X39141400Y-36450000D03*
X37871400Y-32385000D03*
X37871400Y-36450000D03*
X36601400Y-32385000D03*
X36601400Y-36450000D03*
X35331400Y-32385000D03*
X35331400Y-36450000D03*
X34061400Y-32385000D03*
X34061400Y-36450000D03*
X32791400Y-32385000D03*
X32791400Y-36450000D03*
X31521400Y-32385000D03*
X31521400Y-36450000D03*
X30251400Y-32385000D03*
X30251400Y-36450000D03*
X28981400Y-32385000D03*
X28981400Y-36450000D03*
X27711400Y-32385000D03*
X27711400Y-36450000D03*
%TD*%
D11*
%TO.C,J2*%
X44983400Y-42113200D03*
X44983400Y-44843200D03*
X43713400Y-42113200D03*
X43713400Y-44843200D03*
X42443400Y-42113200D03*
X42443400Y-44843200D03*
X41173400Y-42113200D03*
X41173400Y-44843200D03*
X39903400Y-42113200D03*
X39903400Y-44843200D03*
X38633400Y-42113200D03*
X38633400Y-44843200D03*
X37363400Y-42113200D03*
X37363400Y-44843200D03*
X36093400Y-42113200D03*
X36093400Y-44843200D03*
X34823400Y-42113200D03*
X34823400Y-44843200D03*
X33553400Y-42113200D03*
X33553400Y-44843200D03*
X32283400Y-42113200D03*
X32283400Y-44843200D03*
X31013400Y-42113200D03*
X31013400Y-44843200D03*
X29743400Y-42113200D03*
X29743400Y-44843200D03*
X28473400Y-42113200D03*
X28473400Y-44843200D03*
X27203400Y-42113200D03*
X27203400Y-44843200D03*
X25933400Y-42113200D03*
X25933400Y-44843200D03*
%TD*%
M02*
