%TF.GenerationSoftware,KiCad,Pcbnew,7.0.10-7.0.10~ubuntu22.04.1*%
%TF.CreationDate,2024-01-24T09:48:51-05:00*%
%TF.ProjectId,imu-rj-adapter,696d752d-726a-42d6-9164-61707465722e,rev?*%
%TF.SameCoordinates,Original*%
%TF.FileFunction,Legend,Bot*%
%TF.FilePolarity,Positive*%
%FSLAX46Y46*%
G04 Gerber Fmt 4.6, Leading zero omitted, Abs format (unit mm)*
G04 Created by KiCad (PCBNEW 7.0.10-7.0.10~ubuntu22.04.1) date 2024-01-24 09:48:51*
%MOMM*%
%LPD*%
G01*
G04 APERTURE LIST*
%ADD10C,0.150000*%
G04 APERTURE END LIST*
D10*
X59010839Y-64865057D02*
X58963220Y-64817438D01*
X58963220Y-64817438D02*
X58867982Y-64769819D01*
X58867982Y-64769819D02*
X58629887Y-64769819D01*
X58629887Y-64769819D02*
X58534649Y-64817438D01*
X58534649Y-64817438D02*
X58487030Y-64865057D01*
X58487030Y-64865057D02*
X58439411Y-64960295D01*
X58439411Y-64960295D02*
X58439411Y-65055533D01*
X58439411Y-65055533D02*
X58487030Y-65198390D01*
X58487030Y-65198390D02*
X59058458Y-65769819D01*
X59058458Y-65769819D02*
X58439411Y-65769819D01*
X57820363Y-64769819D02*
X57725125Y-64769819D01*
X57725125Y-64769819D02*
X57629887Y-64817438D01*
X57629887Y-64817438D02*
X57582268Y-64865057D01*
X57582268Y-64865057D02*
X57534649Y-64960295D01*
X57534649Y-64960295D02*
X57487030Y-65150771D01*
X57487030Y-65150771D02*
X57487030Y-65388866D01*
X57487030Y-65388866D02*
X57534649Y-65579342D01*
X57534649Y-65579342D02*
X57582268Y-65674580D01*
X57582268Y-65674580D02*
X57629887Y-65722200D01*
X57629887Y-65722200D02*
X57725125Y-65769819D01*
X57725125Y-65769819D02*
X57820363Y-65769819D01*
X57820363Y-65769819D02*
X57915601Y-65722200D01*
X57915601Y-65722200D02*
X57963220Y-65674580D01*
X57963220Y-65674580D02*
X58010839Y-65579342D01*
X58010839Y-65579342D02*
X58058458Y-65388866D01*
X58058458Y-65388866D02*
X58058458Y-65150771D01*
X58058458Y-65150771D02*
X58010839Y-64960295D01*
X58010839Y-64960295D02*
X57963220Y-64865057D01*
X57963220Y-64865057D02*
X57915601Y-64817438D01*
X57915601Y-64817438D02*
X57820363Y-64769819D01*
X57106077Y-64865057D02*
X57058458Y-64817438D01*
X57058458Y-64817438D02*
X56963220Y-64769819D01*
X56963220Y-64769819D02*
X56725125Y-64769819D01*
X56725125Y-64769819D02*
X56629887Y-64817438D01*
X56629887Y-64817438D02*
X56582268Y-64865057D01*
X56582268Y-64865057D02*
X56534649Y-64960295D01*
X56534649Y-64960295D02*
X56534649Y-65055533D01*
X56534649Y-65055533D02*
X56582268Y-65198390D01*
X56582268Y-65198390D02*
X57153696Y-65769819D01*
X57153696Y-65769819D02*
X56534649Y-65769819D01*
X55677506Y-65103152D02*
X55677506Y-65769819D01*
X55915601Y-64722200D02*
X56153696Y-65436485D01*
X56153696Y-65436485D02*
X55534649Y-65436485D01*
X55153696Y-65388866D02*
X54391792Y-65388866D01*
X53725125Y-64769819D02*
X53629887Y-64769819D01*
X53629887Y-64769819D02*
X53534649Y-64817438D01*
X53534649Y-64817438D02*
X53487030Y-64865057D01*
X53487030Y-64865057D02*
X53439411Y-64960295D01*
X53439411Y-64960295D02*
X53391792Y-65150771D01*
X53391792Y-65150771D02*
X53391792Y-65388866D01*
X53391792Y-65388866D02*
X53439411Y-65579342D01*
X53439411Y-65579342D02*
X53487030Y-65674580D01*
X53487030Y-65674580D02*
X53534649Y-65722200D01*
X53534649Y-65722200D02*
X53629887Y-65769819D01*
X53629887Y-65769819D02*
X53725125Y-65769819D01*
X53725125Y-65769819D02*
X53820363Y-65722200D01*
X53820363Y-65722200D02*
X53867982Y-65674580D01*
X53867982Y-65674580D02*
X53915601Y-65579342D01*
X53915601Y-65579342D02*
X53963220Y-65388866D01*
X53963220Y-65388866D02*
X53963220Y-65150771D01*
X53963220Y-65150771D02*
X53915601Y-64960295D01*
X53915601Y-64960295D02*
X53867982Y-64865057D01*
X53867982Y-64865057D02*
X53820363Y-64817438D01*
X53820363Y-64817438D02*
X53725125Y-64769819D01*
X52439411Y-65769819D02*
X53010839Y-65769819D01*
X52725125Y-65769819D02*
X52725125Y-64769819D01*
X52725125Y-64769819D02*
X52820363Y-64912676D01*
X52820363Y-64912676D02*
X52915601Y-65007914D01*
X52915601Y-65007914D02*
X53010839Y-65055533D01*
X47726009Y-62170112D02*
X47726009Y-61836779D01*
X48249819Y-61836779D02*
X47249819Y-61836779D01*
X47249819Y-61836779D02*
X47249819Y-62312969D01*
X48249819Y-62693922D02*
X47249819Y-62693922D01*
X47249819Y-62693922D02*
X48249819Y-63265350D01*
X48249819Y-63265350D02*
X47249819Y-63265350D01*
X48249819Y-63741541D02*
X47249819Y-63741541D01*
X48249819Y-64789159D02*
X47773628Y-64455826D01*
X48249819Y-64217731D02*
X47249819Y-64217731D01*
X47249819Y-64217731D02*
X47249819Y-64598683D01*
X47249819Y-64598683D02*
X47297438Y-64693921D01*
X47297438Y-64693921D02*
X47345057Y-64741540D01*
X47345057Y-64741540D02*
X47440295Y-64789159D01*
X47440295Y-64789159D02*
X47583152Y-64789159D01*
X47583152Y-64789159D02*
X47678390Y-64741540D01*
X47678390Y-64741540D02*
X47726009Y-64693921D01*
X47726009Y-64693921D02*
X47773628Y-64598683D01*
X47773628Y-64598683D02*
X47773628Y-64217731D01*
X48202200Y-65170112D02*
X48249819Y-65312969D01*
X48249819Y-65312969D02*
X48249819Y-65551064D01*
X48249819Y-65551064D02*
X48202200Y-65646302D01*
X48202200Y-65646302D02*
X48154580Y-65693921D01*
X48154580Y-65693921D02*
X48059342Y-65741540D01*
X48059342Y-65741540D02*
X47964104Y-65741540D01*
X47964104Y-65741540D02*
X47868866Y-65693921D01*
X47868866Y-65693921D02*
X47821247Y-65646302D01*
X47821247Y-65646302D02*
X47773628Y-65551064D01*
X47773628Y-65551064D02*
X47726009Y-65360588D01*
X47726009Y-65360588D02*
X47678390Y-65265350D01*
X47678390Y-65265350D02*
X47630771Y-65217731D01*
X47630771Y-65217731D02*
X47535533Y-65170112D01*
X47535533Y-65170112D02*
X47440295Y-65170112D01*
X47440295Y-65170112D02*
X47345057Y-65217731D01*
X47345057Y-65217731D02*
X47297438Y-65265350D01*
X47297438Y-65265350D02*
X47249819Y-65360588D01*
X47249819Y-65360588D02*
X47249819Y-65598683D01*
X47249819Y-65598683D02*
X47297438Y-65741540D01*
X48249819Y-66932017D02*
X47249819Y-66932017D01*
X48249819Y-67408207D02*
X47249819Y-67408207D01*
X47249819Y-67408207D02*
X47964104Y-67741540D01*
X47964104Y-67741540D02*
X47249819Y-68074873D01*
X47249819Y-68074873D02*
X48249819Y-68074873D01*
X47249819Y-68551064D02*
X48059342Y-68551064D01*
X48059342Y-68551064D02*
X48154580Y-68598683D01*
X48154580Y-68598683D02*
X48202200Y-68646302D01*
X48202200Y-68646302D02*
X48249819Y-68741540D01*
X48249819Y-68741540D02*
X48249819Y-68932016D01*
X48249819Y-68932016D02*
X48202200Y-69027254D01*
X48202200Y-69027254D02*
X48154580Y-69074873D01*
X48154580Y-69074873D02*
X48059342Y-69122492D01*
X48059342Y-69122492D02*
X47249819Y-69122492D01*
X49859819Y-62408207D02*
X49383628Y-62074874D01*
X49859819Y-61836779D02*
X48859819Y-61836779D01*
X48859819Y-61836779D02*
X48859819Y-62217731D01*
X48859819Y-62217731D02*
X48907438Y-62312969D01*
X48907438Y-62312969D02*
X48955057Y-62360588D01*
X48955057Y-62360588D02*
X49050295Y-62408207D01*
X49050295Y-62408207D02*
X49193152Y-62408207D01*
X49193152Y-62408207D02*
X49288390Y-62360588D01*
X49288390Y-62360588D02*
X49336009Y-62312969D01*
X49336009Y-62312969D02*
X49383628Y-62217731D01*
X49383628Y-62217731D02*
X49383628Y-61836779D01*
X48859819Y-63122493D02*
X49574104Y-63122493D01*
X49574104Y-63122493D02*
X49716961Y-63074874D01*
X49716961Y-63074874D02*
X49812200Y-62979636D01*
X49812200Y-62979636D02*
X49859819Y-62836779D01*
X49859819Y-62836779D02*
X49859819Y-62741541D01*
X49574104Y-64312970D02*
X49574104Y-64789160D01*
X49859819Y-64217732D02*
X48859819Y-64551065D01*
X48859819Y-64551065D02*
X49859819Y-64884398D01*
X49859819Y-65646303D02*
X48859819Y-65646303D01*
X49812200Y-65646303D02*
X49859819Y-65551065D01*
X49859819Y-65551065D02*
X49859819Y-65360589D01*
X49859819Y-65360589D02*
X49812200Y-65265351D01*
X49812200Y-65265351D02*
X49764580Y-65217732D01*
X49764580Y-65217732D02*
X49669342Y-65170113D01*
X49669342Y-65170113D02*
X49383628Y-65170113D01*
X49383628Y-65170113D02*
X49288390Y-65217732D01*
X49288390Y-65217732D02*
X49240771Y-65265351D01*
X49240771Y-65265351D02*
X49193152Y-65360589D01*
X49193152Y-65360589D02*
X49193152Y-65551065D01*
X49193152Y-65551065D02*
X49240771Y-65646303D01*
X49859819Y-66551065D02*
X49336009Y-66551065D01*
X49336009Y-66551065D02*
X49240771Y-66503446D01*
X49240771Y-66503446D02*
X49193152Y-66408208D01*
X49193152Y-66408208D02*
X49193152Y-66217732D01*
X49193152Y-66217732D02*
X49240771Y-66122494D01*
X49812200Y-66551065D02*
X49859819Y-66455827D01*
X49859819Y-66455827D02*
X49859819Y-66217732D01*
X49859819Y-66217732D02*
X49812200Y-66122494D01*
X49812200Y-66122494D02*
X49716961Y-66074875D01*
X49716961Y-66074875D02*
X49621723Y-66074875D01*
X49621723Y-66074875D02*
X49526485Y-66122494D01*
X49526485Y-66122494D02*
X49478866Y-66217732D01*
X49478866Y-66217732D02*
X49478866Y-66455827D01*
X49478866Y-66455827D02*
X49431247Y-66551065D01*
X49193152Y-67027256D02*
X50193152Y-67027256D01*
X49240771Y-67027256D02*
X49193152Y-67122494D01*
X49193152Y-67122494D02*
X49193152Y-67312970D01*
X49193152Y-67312970D02*
X49240771Y-67408208D01*
X49240771Y-67408208D02*
X49288390Y-67455827D01*
X49288390Y-67455827D02*
X49383628Y-67503446D01*
X49383628Y-67503446D02*
X49669342Y-67503446D01*
X49669342Y-67503446D02*
X49764580Y-67455827D01*
X49764580Y-67455827D02*
X49812200Y-67408208D01*
X49812200Y-67408208D02*
X49859819Y-67312970D01*
X49859819Y-67312970D02*
X49859819Y-67122494D01*
X49859819Y-67122494D02*
X49812200Y-67027256D01*
X49193152Y-67789161D02*
X49193152Y-68170113D01*
X48859819Y-67932018D02*
X49716961Y-67932018D01*
X49716961Y-67932018D02*
X49812200Y-67979637D01*
X49812200Y-67979637D02*
X49859819Y-68074875D01*
X49859819Y-68074875D02*
X49859819Y-68170113D01*
X49812200Y-68884399D02*
X49859819Y-68789161D01*
X49859819Y-68789161D02*
X49859819Y-68598685D01*
X49859819Y-68598685D02*
X49812200Y-68503447D01*
X49812200Y-68503447D02*
X49716961Y-68455828D01*
X49716961Y-68455828D02*
X49336009Y-68455828D01*
X49336009Y-68455828D02*
X49240771Y-68503447D01*
X49240771Y-68503447D02*
X49193152Y-68598685D01*
X49193152Y-68598685D02*
X49193152Y-68789161D01*
X49193152Y-68789161D02*
X49240771Y-68884399D01*
X49240771Y-68884399D02*
X49336009Y-68932018D01*
X49336009Y-68932018D02*
X49431247Y-68932018D01*
X49431247Y-68932018D02*
X49526485Y-68455828D01*
X49859819Y-69360590D02*
X49193152Y-69360590D01*
X49383628Y-69360590D02*
X49288390Y-69408209D01*
X49288390Y-69408209D02*
X49240771Y-69455828D01*
X49240771Y-69455828D02*
X49193152Y-69551066D01*
X49193152Y-69551066D02*
X49193152Y-69646304D01*
X50469819Y-61693922D02*
X51469819Y-62027255D01*
X51469819Y-62027255D02*
X50469819Y-62360588D01*
X51469819Y-63217731D02*
X51469819Y-62646303D01*
X51469819Y-62932017D02*
X50469819Y-62932017D01*
X50469819Y-62932017D02*
X50612676Y-62836779D01*
X50612676Y-62836779D02*
X50707914Y-62741541D01*
X50707914Y-62741541D02*
X50755533Y-62646303D01*
X51374580Y-63646303D02*
X51422200Y-63693922D01*
X51422200Y-63693922D02*
X51469819Y-63646303D01*
X51469819Y-63646303D02*
X51422200Y-63598684D01*
X51422200Y-63598684D02*
X51374580Y-63646303D01*
X51374580Y-63646303D02*
X51469819Y-63646303D01*
X50469819Y-64312969D02*
X50469819Y-64408207D01*
X50469819Y-64408207D02*
X50517438Y-64503445D01*
X50517438Y-64503445D02*
X50565057Y-64551064D01*
X50565057Y-64551064D02*
X50660295Y-64598683D01*
X50660295Y-64598683D02*
X50850771Y-64646302D01*
X50850771Y-64646302D02*
X51088866Y-64646302D01*
X51088866Y-64646302D02*
X51279342Y-64598683D01*
X51279342Y-64598683D02*
X51374580Y-64551064D01*
X51374580Y-64551064D02*
X51422200Y-64503445D01*
X51422200Y-64503445D02*
X51469819Y-64408207D01*
X51469819Y-64408207D02*
X51469819Y-64312969D01*
X51469819Y-64312969D02*
X51422200Y-64217731D01*
X51422200Y-64217731D02*
X51374580Y-64170112D01*
X51374580Y-64170112D02*
X51279342Y-64122493D01*
X51279342Y-64122493D02*
X51088866Y-64074874D01*
X51088866Y-64074874D02*
X50850771Y-64074874D01*
X50850771Y-64074874D02*
X50660295Y-64122493D01*
X50660295Y-64122493D02*
X50565057Y-64170112D01*
X50565057Y-64170112D02*
X50517438Y-64217731D01*
X50517438Y-64217731D02*
X50469819Y-64312969D01*
X50946009Y-65836779D02*
X50946009Y-66170112D01*
X51469819Y-66312969D02*
X51469819Y-65836779D01*
X51469819Y-65836779D02*
X50469819Y-65836779D01*
X50469819Y-65836779D02*
X50469819Y-66312969D01*
X51422200Y-66693922D02*
X51469819Y-66836779D01*
X51469819Y-66836779D02*
X51469819Y-67074874D01*
X51469819Y-67074874D02*
X51422200Y-67170112D01*
X51422200Y-67170112D02*
X51374580Y-67217731D01*
X51374580Y-67217731D02*
X51279342Y-67265350D01*
X51279342Y-67265350D02*
X51184104Y-67265350D01*
X51184104Y-67265350D02*
X51088866Y-67217731D01*
X51088866Y-67217731D02*
X51041247Y-67170112D01*
X51041247Y-67170112D02*
X50993628Y-67074874D01*
X50993628Y-67074874D02*
X50946009Y-66884398D01*
X50946009Y-66884398D02*
X50898390Y-66789160D01*
X50898390Y-66789160D02*
X50850771Y-66741541D01*
X50850771Y-66741541D02*
X50755533Y-66693922D01*
X50755533Y-66693922D02*
X50660295Y-66693922D01*
X50660295Y-66693922D02*
X50565057Y-66741541D01*
X50565057Y-66741541D02*
X50517438Y-66789160D01*
X50517438Y-66789160D02*
X50469819Y-66884398D01*
X50469819Y-66884398D02*
X50469819Y-67122493D01*
X50469819Y-67122493D02*
X50517438Y-67265350D01*
X51469819Y-67693922D02*
X50469819Y-67693922D01*
X50946009Y-67693922D02*
X50946009Y-68265350D01*
X51469819Y-68265350D02*
X50469819Y-68265350D01*
M02*
