G75*
%MOIN*%
%OFA0B0*%
%FSLAX25Y25*%
%IPPOS*%
%LPD*%
%AMOC8*
5,1,8,0,0,1.08239X$1,22.5*
%
%ADD10C,0.11870*%
%ADD11C,0.05504*%
%ADD12C,0.06000*%
%ADD13OC8,0.06000*%
%ADD14C,0.01600*%
%ADD15C,0.03962*%
D10*
X0031923Y0165018D03*
X0071923Y0165018D03*
X0171923Y0165018D03*
X0211923Y0165018D03*
X0311923Y0165018D03*
X0351923Y0165018D03*
X0451923Y0165018D03*
X0491923Y0165018D03*
D11*
X0471923Y0145018D03*
X0461923Y0145018D03*
X0331923Y0145018D03*
X0321923Y0145018D03*
X0191923Y0145018D03*
X0181923Y0145018D03*
X0051923Y0145018D03*
X0041923Y0145018D03*
D12*
X0143923Y0105018D02*
X0149923Y0105018D01*
X0149923Y0095018D02*
X0143923Y0095018D01*
X0143923Y0085018D02*
X0149923Y0085018D01*
X0149923Y0075018D02*
X0143923Y0075018D01*
X0143923Y0065018D02*
X0149923Y0065018D01*
X0149923Y0055018D02*
X0143923Y0055018D01*
X0143923Y0045018D02*
X0149923Y0045018D01*
D13*
X0161923Y0045018D03*
D14*
X0129223Y0037318D02*
X0129223Y0110970D01*
X0127876Y0112318D01*
X0125971Y0112318D01*
X0019223Y0112318D01*
X0019223Y0196419D01*
X0584545Y0196419D01*
X0584545Y0037318D01*
X0129223Y0037318D01*
X0129223Y0038215D02*
X0584545Y0038215D01*
X0584545Y0039813D02*
X0129223Y0039813D01*
X0129223Y0041412D02*
X0141024Y0041412D01*
X0141318Y0041118D02*
X0143008Y0040418D01*
X0150838Y0040418D01*
X0152529Y0041118D01*
X0153823Y0042412D01*
X0154523Y0044103D01*
X0154523Y0045933D01*
X0153823Y0047623D01*
X0152529Y0048917D01*
X0150838Y0049618D01*
X0143008Y0049618D01*
X0141318Y0048917D01*
X0140024Y0047623D01*
X0139323Y0045933D01*
X0139323Y0044103D01*
X0140024Y0042412D01*
X0141318Y0041118D01*
X0139776Y0043010D02*
X0129223Y0043010D01*
X0129223Y0044609D02*
X0139323Y0044609D01*
X0139437Y0046207D02*
X0129223Y0046207D01*
X0129223Y0047806D02*
X0140206Y0047806D01*
X0142493Y0049404D02*
X0129223Y0049404D01*
X0129223Y0051003D02*
X0141596Y0051003D01*
X0141318Y0051118D02*
X0143008Y0050418D01*
X0150838Y0050418D01*
X0152529Y0051118D01*
X0153823Y0052412D01*
X0154523Y0054103D01*
X0154523Y0055933D01*
X0153823Y0057623D01*
X0152529Y0058917D01*
X0150838Y0059618D01*
X0143008Y0059618D01*
X0141318Y0058917D01*
X0140024Y0057623D01*
X0139323Y0055933D01*
X0139323Y0054103D01*
X0140024Y0052412D01*
X0141318Y0051118D01*
X0139945Y0052601D02*
X0129223Y0052601D01*
X0129223Y0054200D02*
X0139323Y0054200D01*
X0139323Y0055798D02*
X0129223Y0055798D01*
X0129223Y0057397D02*
X0139930Y0057397D01*
X0141506Y0058995D02*
X0129223Y0058995D01*
X0129223Y0060594D02*
X0142583Y0060594D01*
X0143008Y0060418D02*
X0141318Y0061118D01*
X0140024Y0062412D01*
X0139323Y0064103D01*
X0139323Y0065933D01*
X0140024Y0067623D01*
X0141318Y0068917D01*
X0143008Y0069618D01*
X0150838Y0069618D01*
X0152529Y0068917D01*
X0153823Y0067623D01*
X0154523Y0065933D01*
X0154523Y0064103D01*
X0153823Y0062412D01*
X0152529Y0061118D01*
X0150838Y0060418D01*
X0143008Y0060418D01*
X0140243Y0062192D02*
X0129223Y0062192D01*
X0129223Y0063791D02*
X0139452Y0063791D01*
X0139323Y0065390D02*
X0129223Y0065390D01*
X0129223Y0066988D02*
X0139760Y0066988D01*
X0140987Y0068587D02*
X0129223Y0068587D01*
X0129223Y0070185D02*
X0218362Y0070185D01*
X0219960Y0068587D02*
X0152860Y0068587D01*
X0154086Y0066988D02*
X0221559Y0066988D01*
X0223064Y0065483D02*
X0223946Y0065118D01*
X0254523Y0065118D01*
X0254523Y0062682D01*
X0253887Y0062046D01*
X0253342Y0060730D01*
X0253342Y0059305D01*
X0253887Y0057989D01*
X0254895Y0056982D01*
X0256211Y0056437D01*
X0257636Y0056437D01*
X0258952Y0056982D01*
X0259959Y0057989D01*
X0260504Y0059305D01*
X0260504Y0060730D01*
X0259959Y0062046D01*
X0259323Y0062682D01*
X0259323Y0067995D01*
X0258958Y0068877D01*
X0258283Y0069552D01*
X0257401Y0069918D01*
X0225417Y0069918D01*
X0150504Y0144831D01*
X0150504Y0145730D01*
X0149959Y0147046D01*
X0148952Y0148054D01*
X0147636Y0148599D01*
X0146211Y0148599D01*
X0144895Y0148054D01*
X0143887Y0147046D01*
X0143342Y0145730D01*
X0143342Y0144305D01*
X0143887Y0142989D01*
X0144895Y0141982D01*
X0146211Y0141437D01*
X0147110Y0141437D01*
X0223064Y0065483D01*
X0223290Y0065390D02*
X0154523Y0065390D01*
X0154394Y0063791D02*
X0254523Y0063791D01*
X0254034Y0062192D02*
X0153603Y0062192D01*
X0151264Y0060594D02*
X0253342Y0060594D01*
X0253471Y0058995D02*
X0152341Y0058995D01*
X0153917Y0057397D02*
X0254480Y0057397D01*
X0256923Y0060018D02*
X0256923Y0067518D01*
X0224423Y0067518D01*
X0146923Y0145018D01*
X0143586Y0143717D02*
X0084323Y0143717D01*
X0084323Y0145315D02*
X0143342Y0145315D01*
X0143832Y0146914D02*
X0084323Y0146914D01*
X0084323Y0148512D02*
X0146001Y0148512D01*
X0147845Y0148512D02*
X0178989Y0148512D01*
X0178958Y0148490D02*
X0178451Y0147983D01*
X0178030Y0147404D01*
X0177705Y0146765D01*
X0177483Y0146084D01*
X0177371Y0145376D01*
X0177371Y0145094D01*
X0181847Y0145094D01*
X0181847Y0144942D01*
X0177371Y0144942D01*
X0177371Y0144660D01*
X0177483Y0143952D01*
X0177705Y0143270D01*
X0178030Y0142632D01*
X0178451Y0142052D01*
X0178958Y0141546D01*
X0179538Y0141125D01*
X0180176Y0140799D01*
X0180857Y0140578D01*
X0181565Y0140466D01*
X0181847Y0140466D01*
X0181847Y0144942D01*
X0181999Y0144942D01*
X0181999Y0140466D01*
X0182282Y0140466D01*
X0182989Y0140578D01*
X0183671Y0140799D01*
X0184309Y0141125D01*
X0184889Y0141546D01*
X0185395Y0142052D01*
X0185816Y0142632D01*
X0186142Y0143270D01*
X0186363Y0143952D01*
X0186475Y0144660D01*
X0186475Y0144942D01*
X0181999Y0144942D01*
X0181999Y0145094D01*
X0181847Y0145094D01*
X0181847Y0149570D01*
X0181565Y0149570D01*
X0180857Y0149458D01*
X0180176Y0149236D01*
X0179538Y0148911D01*
X0178958Y0148490D01*
X0177780Y0146914D02*
X0150014Y0146914D01*
X0150504Y0145315D02*
X0177371Y0145315D01*
X0177560Y0143717D02*
X0151619Y0143717D01*
X0153217Y0142118D02*
X0178404Y0142118D01*
X0181226Y0140520D02*
X0154816Y0140520D01*
X0156414Y0138921D02*
X0219523Y0138921D01*
X0219523Y0137323D02*
X0158013Y0137323D01*
X0159611Y0135724D02*
X0219523Y0135724D01*
X0219523Y0134126D02*
X0161210Y0134126D01*
X0162808Y0132527D02*
X0219368Y0132527D01*
X0219523Y0132682D02*
X0218887Y0132046D01*
X0218342Y0130730D01*
X0218342Y0129305D01*
X0218887Y0127989D01*
X0219895Y0126982D01*
X0221211Y0126437D01*
X0222636Y0126437D01*
X0223952Y0126982D01*
X0224959Y0127989D01*
X0225504Y0129305D01*
X0225504Y0130730D01*
X0224959Y0132046D01*
X0224323Y0132682D01*
X0224323Y0177618D01*
X0294523Y0177618D01*
X0294523Y0172682D01*
X0293887Y0172046D01*
X0293342Y0170730D01*
X0293342Y0169305D01*
X0293887Y0167989D01*
X0294895Y0166982D01*
X0296211Y0166437D01*
X0297636Y0166437D01*
X0298952Y0166982D01*
X0299959Y0167989D01*
X0300504Y0169305D01*
X0300504Y0170730D01*
X0299959Y0172046D01*
X0299323Y0172682D01*
X0299323Y0177618D01*
X0359523Y0177618D01*
X0359523Y0132682D01*
X0358887Y0132046D01*
X0358342Y0130730D01*
X0358342Y0129305D01*
X0358887Y0127989D01*
X0359895Y0126982D01*
X0361211Y0126437D01*
X0362636Y0126437D01*
X0363952Y0126982D01*
X0364959Y0127989D01*
X0365504Y0129305D01*
X0365504Y0130730D01*
X0364959Y0132046D01*
X0364323Y0132682D01*
X0364323Y0177618D01*
X0434523Y0177618D01*
X0434523Y0172682D01*
X0433887Y0172046D01*
X0433342Y0170730D01*
X0433342Y0169305D01*
X0433887Y0167989D01*
X0434895Y0166982D01*
X0436211Y0166437D01*
X0437636Y0166437D01*
X0438952Y0166982D01*
X0439959Y0167989D01*
X0440504Y0169305D01*
X0440504Y0170730D01*
X0439959Y0172046D01*
X0439323Y0172682D01*
X0439323Y0177618D01*
X0499523Y0177618D01*
X0499523Y0132682D01*
X0498887Y0132046D01*
X0498342Y0130730D01*
X0498342Y0129305D01*
X0498887Y0127989D01*
X0499523Y0127353D01*
X0499523Y0069540D01*
X0499889Y0068658D01*
X0500564Y0067983D01*
X0501446Y0067618D01*
X0509259Y0067618D01*
X0509895Y0066982D01*
X0511211Y0066437D01*
X0512636Y0066437D01*
X0513952Y0066982D01*
X0514959Y0067989D01*
X0515504Y0069305D01*
X0515504Y0070730D01*
X0514959Y0072046D01*
X0513952Y0073054D01*
X0512636Y0073599D01*
X0511211Y0073599D01*
X0509895Y0073054D01*
X0509259Y0072418D01*
X0504323Y0072418D01*
X0504323Y0127353D01*
X0504959Y0127989D01*
X0505504Y0129305D01*
X0505504Y0130730D01*
X0504959Y0132046D01*
X0504323Y0132682D01*
X0504323Y0177618D01*
X0574523Y0177618D01*
X0574523Y0172682D01*
X0573887Y0172046D01*
X0573342Y0170730D01*
X0573342Y0169305D01*
X0573887Y0167989D01*
X0574895Y0166982D01*
X0576211Y0166437D01*
X0577636Y0166437D01*
X0578952Y0166982D01*
X0579959Y0167989D01*
X0580504Y0169305D01*
X0580504Y0170730D01*
X0579959Y0172046D01*
X0579323Y0172682D01*
X0579323Y0180495D01*
X0578958Y0181377D01*
X0578283Y0182052D01*
X0577401Y0182418D01*
X0081446Y0182418D01*
X0080564Y0182052D01*
X0079889Y0181377D01*
X0079523Y0180495D01*
X0079523Y0132682D01*
X0078887Y0132046D01*
X0078342Y0130730D01*
X0078342Y0129305D01*
X0078887Y0127989D01*
X0079523Y0127353D01*
X0079523Y0119540D01*
X0079889Y0118658D01*
X0080564Y0117983D01*
X0081446Y0117618D01*
X0132023Y0117618D01*
X0132023Y0094540D01*
X0132389Y0093658D01*
X0133064Y0092983D01*
X0133946Y0092618D01*
X0139938Y0092618D01*
X0140024Y0092412D01*
X0141318Y0091118D01*
X0143008Y0090418D01*
X0150838Y0090418D01*
X0152529Y0091118D01*
X0153823Y0092412D01*
X0154523Y0094103D01*
X0154523Y0095933D01*
X0153823Y0097623D01*
X0152529Y0098917D01*
X0150838Y0099618D01*
X0143008Y0099618D01*
X0141318Y0098917D01*
X0140024Y0097623D01*
X0139938Y0097418D01*
X0136823Y0097418D01*
X0136823Y0120495D01*
X0136458Y0121377D01*
X0135783Y0122052D01*
X0134901Y0122418D01*
X0084323Y0122418D01*
X0084323Y0127353D01*
X0084959Y0127989D01*
X0085504Y0129305D01*
X0085504Y0130730D01*
X0084959Y0132046D01*
X0084323Y0132682D01*
X0084323Y0177618D01*
X0154523Y0177618D01*
X0154523Y0172682D01*
X0153887Y0172046D01*
X0153342Y0170730D01*
X0153342Y0169305D01*
X0153887Y0167989D01*
X0154895Y0166982D01*
X0156211Y0166437D01*
X0157636Y0166437D01*
X0158952Y0166982D01*
X0159959Y0167989D01*
X0160504Y0169305D01*
X0160504Y0170730D01*
X0159959Y0172046D01*
X0159323Y0172682D01*
X0159323Y0177618D01*
X0219523Y0177618D01*
X0219523Y0132682D01*
X0218424Y0130928D02*
X0164407Y0130928D01*
X0166005Y0129330D02*
X0218342Y0129330D01*
X0219145Y0127731D02*
X0167604Y0127731D01*
X0169202Y0126133D02*
X0258324Y0126133D01*
X0258324Y0126728D02*
X0258324Y0123307D01*
X0259633Y0120147D01*
X0262052Y0117728D01*
X0265213Y0116419D01*
X0268634Y0116419D01*
X0271794Y0117728D01*
X0274213Y0120147D01*
X0275522Y0123307D01*
X0275522Y0126728D01*
X0274213Y0129889D01*
X0271794Y0132308D01*
X0268634Y0133617D01*
X0265213Y0133617D01*
X0262052Y0132308D01*
X0259633Y0129889D01*
X0258324Y0126728D01*
X0258740Y0127731D02*
X0224701Y0127731D01*
X0225504Y0129330D02*
X0259402Y0129330D01*
X0260673Y0130928D02*
X0225422Y0130928D01*
X0224479Y0132527D02*
X0262581Y0132527D01*
X0271265Y0132527D02*
X0359368Y0132527D01*
X0359523Y0134126D02*
X0224323Y0134126D01*
X0224323Y0135724D02*
X0359523Y0135724D01*
X0359523Y0137323D02*
X0224323Y0137323D01*
X0224323Y0138921D02*
X0359523Y0138921D01*
X0359523Y0140520D02*
X0322621Y0140520D01*
X0322282Y0140466D02*
X0322989Y0140578D01*
X0323671Y0140799D01*
X0324309Y0141125D01*
X0324889Y0141546D01*
X0325395Y0142052D01*
X0325816Y0142632D01*
X0326142Y0143270D01*
X0326363Y0143952D01*
X0326475Y0144660D01*
X0326475Y0144942D01*
X0321999Y0144942D01*
X0321999Y0140466D01*
X0322282Y0140466D01*
X0321999Y0140520D02*
X0321847Y0140520D01*
X0321847Y0140466D02*
X0321847Y0144942D01*
X0317371Y0144942D01*
X0317371Y0144660D01*
X0317483Y0143952D01*
X0317705Y0143270D01*
X0318030Y0142632D01*
X0318451Y0142052D01*
X0318958Y0141546D01*
X0319538Y0141125D01*
X0320176Y0140799D01*
X0320857Y0140578D01*
X0321565Y0140466D01*
X0321847Y0140466D01*
X0321226Y0140520D02*
X0224323Y0140520D01*
X0224323Y0142118D02*
X0318404Y0142118D01*
X0317560Y0143717D02*
X0224323Y0143717D01*
X0224323Y0145315D02*
X0317371Y0145315D01*
X0317371Y0145376D02*
X0317371Y0145094D01*
X0321847Y0145094D01*
X0321847Y0144942D01*
X0321999Y0144942D01*
X0321999Y0145094D01*
X0321847Y0145094D01*
X0321847Y0149570D01*
X0321565Y0149570D01*
X0320857Y0149458D01*
X0320176Y0149236D01*
X0319538Y0148911D01*
X0318958Y0148490D01*
X0318451Y0147983D01*
X0318030Y0147404D01*
X0317705Y0146765D01*
X0317483Y0146084D01*
X0317371Y0145376D01*
X0317780Y0146914D02*
X0224323Y0146914D01*
X0224323Y0148512D02*
X0318989Y0148512D01*
X0321847Y0148512D02*
X0321999Y0148512D01*
X0321999Y0149570D02*
X0321999Y0145094D01*
X0326475Y0145094D01*
X0326475Y0145376D01*
X0326363Y0146084D01*
X0326142Y0146765D01*
X0325816Y0147404D01*
X0325395Y0147983D01*
X0324889Y0148490D01*
X0324309Y0148911D01*
X0323671Y0149236D01*
X0322989Y0149458D01*
X0322282Y0149570D01*
X0321999Y0149570D01*
X0321999Y0146914D02*
X0321847Y0146914D01*
X0321847Y0145315D02*
X0321999Y0145315D01*
X0321999Y0143717D02*
X0321847Y0143717D01*
X0321847Y0142118D02*
X0321999Y0142118D01*
X0325443Y0142118D02*
X0328668Y0142118D01*
X0328234Y0142553D02*
X0329458Y0141328D01*
X0331058Y0140666D01*
X0332789Y0140666D01*
X0334388Y0141328D01*
X0335613Y0142553D01*
X0336275Y0144152D01*
X0336275Y0145883D01*
X0335613Y0147483D01*
X0334388Y0148707D01*
X0332789Y0149370D01*
X0331058Y0149370D01*
X0329458Y0148707D01*
X0328234Y0147483D01*
X0327571Y0145883D01*
X0327571Y0144152D01*
X0328234Y0142553D01*
X0327752Y0143717D02*
X0326287Y0143717D01*
X0326475Y0145315D02*
X0327571Y0145315D01*
X0327998Y0146914D02*
X0326066Y0146914D01*
X0324858Y0148512D02*
X0329263Y0148512D01*
X0334584Y0148512D02*
X0359523Y0148512D01*
X0359523Y0146914D02*
X0335849Y0146914D01*
X0336275Y0145315D02*
X0359523Y0145315D01*
X0359523Y0143717D02*
X0336095Y0143717D01*
X0335178Y0142118D02*
X0359523Y0142118D01*
X0364323Y0142118D02*
X0458404Y0142118D01*
X0458451Y0142052D02*
X0458958Y0141546D01*
X0459538Y0141125D01*
X0460176Y0140799D01*
X0460857Y0140578D01*
X0461565Y0140466D01*
X0461847Y0140466D01*
X0461847Y0144942D01*
X0457371Y0144942D01*
X0457371Y0144660D01*
X0457483Y0143952D01*
X0457705Y0143270D01*
X0458030Y0142632D01*
X0458451Y0142052D01*
X0457560Y0143717D02*
X0364323Y0143717D01*
X0364323Y0145315D02*
X0457371Y0145315D01*
X0457371Y0145376D02*
X0457371Y0145094D01*
X0461847Y0145094D01*
X0461847Y0144942D01*
X0461999Y0144942D01*
X0461999Y0140466D01*
X0462282Y0140466D01*
X0462989Y0140578D01*
X0463671Y0140799D01*
X0464309Y0141125D01*
X0464889Y0141546D01*
X0465395Y0142052D01*
X0465816Y0142632D01*
X0466142Y0143270D01*
X0466363Y0143952D01*
X0466475Y0144660D01*
X0466475Y0144942D01*
X0461999Y0144942D01*
X0461999Y0145094D01*
X0461847Y0145094D01*
X0461847Y0149570D01*
X0461565Y0149570D01*
X0460857Y0149458D01*
X0460176Y0149236D01*
X0459538Y0148911D01*
X0458958Y0148490D01*
X0458451Y0147983D01*
X0458030Y0147404D01*
X0457705Y0146765D01*
X0457483Y0146084D01*
X0457371Y0145376D01*
X0457780Y0146914D02*
X0364323Y0146914D01*
X0364323Y0148512D02*
X0458989Y0148512D01*
X0461847Y0148512D02*
X0461999Y0148512D01*
X0461999Y0149570D02*
X0461999Y0145094D01*
X0466475Y0145094D01*
X0466475Y0145376D01*
X0466363Y0146084D01*
X0466142Y0146765D01*
X0465816Y0147404D01*
X0465395Y0147983D01*
X0464889Y0148490D01*
X0464309Y0148911D01*
X0463671Y0149236D01*
X0462989Y0149458D01*
X0462282Y0149570D01*
X0461999Y0149570D01*
X0461999Y0146914D02*
X0461847Y0146914D01*
X0461847Y0145315D02*
X0461999Y0145315D01*
X0461999Y0143717D02*
X0461847Y0143717D01*
X0461847Y0142118D02*
X0461999Y0142118D01*
X0461999Y0140520D02*
X0461847Y0140520D01*
X0461226Y0140520D02*
X0364323Y0140520D01*
X0364323Y0138921D02*
X0499523Y0138921D01*
X0499523Y0137323D02*
X0364323Y0137323D01*
X0364323Y0135724D02*
X0499523Y0135724D01*
X0499523Y0134126D02*
X0364323Y0134126D01*
X0364479Y0132527D02*
X0499368Y0132527D01*
X0498424Y0130928D02*
X0365422Y0130928D01*
X0365504Y0129330D02*
X0498342Y0129330D01*
X0499145Y0127731D02*
X0364701Y0127731D01*
X0361923Y0130018D02*
X0361923Y0180018D01*
X0436923Y0180018D01*
X0436923Y0170018D01*
X0434331Y0172490D02*
X0364323Y0172490D01*
X0364323Y0174088D02*
X0434523Y0174088D01*
X0434523Y0175687D02*
X0364323Y0175687D01*
X0364323Y0177285D02*
X0434523Y0177285D01*
X0436923Y0180018D02*
X0501923Y0180018D01*
X0576923Y0180018D01*
X0576923Y0170018D01*
X0574331Y0172490D02*
X0504323Y0172490D01*
X0504323Y0174088D02*
X0574523Y0174088D01*
X0574523Y0175687D02*
X0504323Y0175687D01*
X0504323Y0177285D02*
X0574523Y0177285D01*
X0579323Y0177285D02*
X0584545Y0177285D01*
X0584545Y0175687D02*
X0579323Y0175687D01*
X0579323Y0174088D02*
X0584545Y0174088D01*
X0584545Y0172490D02*
X0579516Y0172490D01*
X0580438Y0170891D02*
X0584545Y0170891D01*
X0584545Y0169293D02*
X0580499Y0169293D01*
X0579664Y0167694D02*
X0584545Y0167694D01*
X0584545Y0166096D02*
X0504323Y0166096D01*
X0504323Y0167694D02*
X0574182Y0167694D01*
X0573347Y0169293D02*
X0504323Y0169293D01*
X0504323Y0170891D02*
X0573409Y0170891D01*
X0584545Y0164497D02*
X0504323Y0164497D01*
X0504323Y0162899D02*
X0584545Y0162899D01*
X0584545Y0161300D02*
X0504323Y0161300D01*
X0504323Y0159702D02*
X0584545Y0159702D01*
X0584545Y0158103D02*
X0504323Y0158103D01*
X0504323Y0156505D02*
X0584545Y0156505D01*
X0584545Y0154906D02*
X0504323Y0154906D01*
X0504323Y0153308D02*
X0584545Y0153308D01*
X0584545Y0151709D02*
X0504323Y0151709D01*
X0504323Y0150111D02*
X0584545Y0150111D01*
X0584545Y0148512D02*
X0504323Y0148512D01*
X0504323Y0146914D02*
X0584545Y0146914D01*
X0584545Y0145315D02*
X0504323Y0145315D01*
X0504323Y0143717D02*
X0584545Y0143717D01*
X0584545Y0142118D02*
X0504323Y0142118D01*
X0504323Y0140520D02*
X0584545Y0140520D01*
X0584545Y0138921D02*
X0504323Y0138921D01*
X0504323Y0137323D02*
X0584545Y0137323D01*
X0584545Y0135724D02*
X0504323Y0135724D01*
X0504323Y0134126D02*
X0584545Y0134126D01*
X0584545Y0132527D02*
X0576265Y0132527D01*
X0576794Y0132308D02*
X0573634Y0133617D01*
X0570213Y0133617D01*
X0567052Y0132308D01*
X0564633Y0129889D01*
X0563324Y0126728D01*
X0563324Y0123307D01*
X0564633Y0120147D01*
X0567052Y0117728D01*
X0570213Y0116419D01*
X0573634Y0116419D01*
X0576794Y0117728D01*
X0579213Y0120147D01*
X0580522Y0123307D01*
X0580522Y0126728D01*
X0579213Y0129889D01*
X0576794Y0132308D01*
X0578174Y0130928D02*
X0584545Y0130928D01*
X0584545Y0129330D02*
X0579445Y0129330D01*
X0580107Y0127731D02*
X0584545Y0127731D01*
X0584545Y0126133D02*
X0580522Y0126133D01*
X0580522Y0124534D02*
X0584545Y0124534D01*
X0584545Y0122936D02*
X0580369Y0122936D01*
X0579707Y0121337D02*
X0584545Y0121337D01*
X0584545Y0119739D02*
X0578805Y0119739D01*
X0577207Y0118140D02*
X0584545Y0118140D01*
X0584545Y0116542D02*
X0573931Y0116542D01*
X0569915Y0116542D02*
X0504323Y0116542D01*
X0504323Y0118140D02*
X0566640Y0118140D01*
X0565041Y0119739D02*
X0504323Y0119739D01*
X0504323Y0121337D02*
X0564140Y0121337D01*
X0563478Y0122936D02*
X0504323Y0122936D01*
X0504323Y0124534D02*
X0563324Y0124534D01*
X0563324Y0126133D02*
X0504323Y0126133D01*
X0504701Y0127731D02*
X0563740Y0127731D01*
X0564402Y0129330D02*
X0505504Y0129330D01*
X0505422Y0130928D02*
X0565673Y0130928D01*
X0567581Y0132527D02*
X0504479Y0132527D01*
X0501923Y0130018D02*
X0501923Y0070018D01*
X0511923Y0070018D01*
X0515207Y0068587D02*
X0584545Y0068587D01*
X0584545Y0070185D02*
X0515504Y0070185D01*
X0515068Y0071784D02*
X0584545Y0071784D01*
X0584545Y0073382D02*
X0513159Y0073382D01*
X0510687Y0073382D02*
X0504323Y0073382D01*
X0504323Y0074981D02*
X0584545Y0074981D01*
X0584545Y0076579D02*
X0504323Y0076579D01*
X0504323Y0078178D02*
X0584545Y0078178D01*
X0584545Y0079776D02*
X0504323Y0079776D01*
X0504323Y0081375D02*
X0584545Y0081375D01*
X0584545Y0082973D02*
X0504323Y0082973D01*
X0504323Y0084572D02*
X0584545Y0084572D01*
X0584545Y0086170D02*
X0504323Y0086170D01*
X0504323Y0087769D02*
X0584545Y0087769D01*
X0584545Y0089367D02*
X0504323Y0089367D01*
X0504323Y0090966D02*
X0584545Y0090966D01*
X0584545Y0092564D02*
X0504323Y0092564D01*
X0504323Y0094163D02*
X0584545Y0094163D01*
X0584545Y0095761D02*
X0504323Y0095761D01*
X0504323Y0097360D02*
X0584545Y0097360D01*
X0584545Y0098958D02*
X0504323Y0098958D01*
X0504323Y0100557D02*
X0584545Y0100557D01*
X0584545Y0102155D02*
X0504323Y0102155D01*
X0504323Y0103754D02*
X0584545Y0103754D01*
X0584545Y0105352D02*
X0504323Y0105352D01*
X0504323Y0106951D02*
X0584545Y0106951D01*
X0584545Y0108549D02*
X0504323Y0108549D01*
X0504323Y0110148D02*
X0584545Y0110148D01*
X0584545Y0111746D02*
X0504323Y0111746D01*
X0504323Y0113345D02*
X0584545Y0113345D01*
X0584545Y0114943D02*
X0504323Y0114943D01*
X0499523Y0114943D02*
X0344323Y0114943D01*
X0344323Y0113345D02*
X0499523Y0113345D01*
X0499523Y0111746D02*
X0344323Y0111746D01*
X0344323Y0110148D02*
X0499523Y0110148D01*
X0499523Y0108549D02*
X0344323Y0108549D01*
X0344323Y0106951D02*
X0499523Y0106951D01*
X0499523Y0105352D02*
X0344323Y0105352D01*
X0344323Y0103754D02*
X0499523Y0103754D01*
X0499523Y0102155D02*
X0344323Y0102155D01*
X0344323Y0100557D02*
X0499523Y0100557D01*
X0499523Y0098958D02*
X0344323Y0098958D01*
X0344323Y0097360D02*
X0499523Y0097360D01*
X0499523Y0095761D02*
X0344323Y0095761D01*
X0344323Y0094163D02*
X0499523Y0094163D01*
X0499523Y0092564D02*
X0344323Y0092564D01*
X0344323Y0090966D02*
X0499523Y0090966D01*
X0499523Y0089367D02*
X0344323Y0089367D01*
X0344323Y0087769D02*
X0499523Y0087769D01*
X0499523Y0086170D02*
X0344323Y0086170D01*
X0344323Y0084572D02*
X0499523Y0084572D01*
X0499523Y0082973D02*
X0344323Y0082973D01*
X0344323Y0081375D02*
X0499523Y0081375D01*
X0499523Y0079776D02*
X0344323Y0079776D01*
X0344323Y0078178D02*
X0499523Y0078178D01*
X0499523Y0076579D02*
X0344323Y0076579D01*
X0344323Y0074981D02*
X0499523Y0074981D01*
X0499523Y0073382D02*
X0344323Y0073382D01*
X0344323Y0071784D02*
X0499523Y0071784D01*
X0499523Y0070185D02*
X0344323Y0070185D01*
X0344323Y0068587D02*
X0499960Y0068587D01*
X0509889Y0066988D02*
X0344323Y0066988D01*
X0344323Y0065390D02*
X0584545Y0065390D01*
X0584545Y0066988D02*
X0513958Y0066988D01*
X0516923Y0065018D02*
X0521923Y0065018D01*
X0494499Y0054200D02*
X0584545Y0054200D01*
X0584545Y0055798D02*
X0493304Y0055798D01*
X0494213Y0054889D02*
X0491794Y0057308D01*
X0488634Y0058617D01*
X0485213Y0058617D01*
X0482052Y0057308D01*
X0479633Y0054889D01*
X0478324Y0051728D01*
X0478324Y0048307D01*
X0479633Y0045147D01*
X0482052Y0042728D01*
X0485213Y0041419D01*
X0488634Y0041419D01*
X0491794Y0042728D01*
X0494213Y0045147D01*
X0495522Y0048307D01*
X0495522Y0051728D01*
X0494213Y0054889D01*
X0495161Y0052601D02*
X0584545Y0052601D01*
X0584545Y0051003D02*
X0495522Y0051003D01*
X0495522Y0049404D02*
X0584545Y0049404D01*
X0584545Y0047806D02*
X0495315Y0047806D01*
X0494653Y0046207D02*
X0584545Y0046207D01*
X0584545Y0044609D02*
X0493675Y0044609D01*
X0492077Y0043010D02*
X0584545Y0043010D01*
X0584545Y0041412D02*
X0164823Y0041412D01*
X0163829Y0040418D02*
X0166523Y0043112D01*
X0166523Y0046923D01*
X0163829Y0049618D01*
X0160018Y0049618D01*
X0157323Y0046923D01*
X0157323Y0043112D01*
X0160018Y0040418D01*
X0163829Y0040418D01*
X0166421Y0043010D02*
X0316770Y0043010D01*
X0317052Y0042728D02*
X0320213Y0041419D01*
X0323634Y0041419D01*
X0326794Y0042728D01*
X0329213Y0045147D01*
X0330522Y0048307D01*
X0330522Y0051728D01*
X0329213Y0054889D01*
X0326794Y0057308D01*
X0323634Y0058617D01*
X0320213Y0058617D01*
X0317052Y0057308D01*
X0314633Y0054889D01*
X0313324Y0051728D01*
X0313324Y0048307D01*
X0314633Y0045147D01*
X0317052Y0042728D01*
X0315171Y0044609D02*
X0166523Y0044609D01*
X0166523Y0046207D02*
X0314194Y0046207D01*
X0313532Y0047806D02*
X0165641Y0047806D01*
X0164042Y0049404D02*
X0313324Y0049404D01*
X0313324Y0051003D02*
X0152251Y0051003D01*
X0151353Y0049404D02*
X0159805Y0049404D01*
X0158206Y0047806D02*
X0153641Y0047806D01*
X0154410Y0046207D02*
X0157323Y0046207D01*
X0157323Y0044609D02*
X0154523Y0044609D01*
X0154071Y0043010D02*
X0157425Y0043010D01*
X0159024Y0041412D02*
X0152823Y0041412D01*
X0153901Y0052601D02*
X0313686Y0052601D01*
X0314348Y0054200D02*
X0154523Y0054200D01*
X0154523Y0055798D02*
X0315543Y0055798D01*
X0317267Y0057397D02*
X0259367Y0057397D01*
X0260376Y0058995D02*
X0584545Y0058995D01*
X0584545Y0057397D02*
X0491579Y0057397D01*
X0482267Y0057397D02*
X0326579Y0057397D01*
X0328304Y0055798D02*
X0480543Y0055798D01*
X0479348Y0054200D02*
X0329499Y0054200D01*
X0330161Y0052601D02*
X0478686Y0052601D01*
X0478324Y0051003D02*
X0330522Y0051003D01*
X0330522Y0049404D02*
X0478324Y0049404D01*
X0478532Y0047806D02*
X0330315Y0047806D01*
X0329653Y0046207D02*
X0479194Y0046207D01*
X0480171Y0044609D02*
X0328675Y0044609D01*
X0327077Y0043010D02*
X0481770Y0043010D01*
X0576923Y0075018D02*
X0576923Y0080018D01*
X0584545Y0063791D02*
X0344013Y0063791D01*
X0343958Y0063658D02*
X0344323Y0064540D01*
X0344323Y0120495D01*
X0343958Y0121377D01*
X0343283Y0122052D01*
X0342401Y0122418D01*
X0284588Y0122418D01*
X0283952Y0123054D01*
X0282636Y0123599D01*
X0281211Y0123599D01*
X0279895Y0123054D01*
X0278887Y0122046D01*
X0278342Y0120730D01*
X0278342Y0119305D01*
X0278887Y0117989D01*
X0279895Y0116982D01*
X0281211Y0116437D01*
X0282636Y0116437D01*
X0283952Y0116982D01*
X0284588Y0117618D01*
X0339523Y0117618D01*
X0339523Y0102482D01*
X0338952Y0103054D01*
X0337636Y0103599D01*
X0336211Y0103599D01*
X0334895Y0103054D01*
X0333887Y0102046D01*
X0333342Y0100730D01*
X0333342Y0099305D01*
X0333887Y0097989D01*
X0334523Y0097353D01*
X0334523Y0072418D01*
X0309388Y0072418D01*
X0309959Y0072989D01*
X0310504Y0074305D01*
X0310504Y0075730D01*
X0309959Y0077046D01*
X0309323Y0077682D01*
X0309323Y0097995D01*
X0308958Y0098877D01*
X0308283Y0099552D01*
X0307401Y0099918D01*
X0214588Y0099918D01*
X0213952Y0100554D01*
X0212636Y0101099D01*
X0211211Y0101099D01*
X0209895Y0100554D01*
X0208887Y0099546D01*
X0208342Y0098230D01*
X0208342Y0096805D01*
X0208887Y0095489D01*
X0209895Y0094482D01*
X0211211Y0093937D01*
X0212636Y0093937D01*
X0213952Y0094482D01*
X0214588Y0095118D01*
X0304523Y0095118D01*
X0304523Y0077682D01*
X0304323Y0077482D01*
X0304323Y0087995D01*
X0303958Y0088877D01*
X0303283Y0089552D01*
X0302401Y0089918D01*
X0229588Y0089918D01*
X0228952Y0090554D01*
X0227636Y0091099D01*
X0226211Y0091099D01*
X0224895Y0090554D01*
X0223887Y0089546D01*
X0223342Y0088230D01*
X0223342Y0086805D01*
X0223887Y0085489D01*
X0224895Y0084482D01*
X0226211Y0083937D01*
X0227636Y0083937D01*
X0228952Y0084482D01*
X0229588Y0085118D01*
X0299523Y0085118D01*
X0299523Y0069540D01*
X0299889Y0068658D01*
X0300564Y0067983D01*
X0301446Y0067618D01*
X0337401Y0067618D01*
X0338283Y0067983D01*
X0338958Y0068658D01*
X0339323Y0069540D01*
X0339323Y0097353D01*
X0339523Y0097553D01*
X0339523Y0067418D01*
X0299323Y0067418D01*
X0299323Y0077995D01*
X0298958Y0078877D01*
X0298283Y0079552D01*
X0297401Y0079918D01*
X0244588Y0079918D01*
X0243952Y0080554D01*
X0242636Y0081099D01*
X0241211Y0081099D01*
X0239895Y0080554D01*
X0238887Y0079546D01*
X0238342Y0078230D01*
X0238342Y0076805D01*
X0238887Y0075489D01*
X0239895Y0074482D01*
X0241211Y0073937D01*
X0242636Y0073937D01*
X0243952Y0074482D01*
X0244588Y0075118D01*
X0294523Y0075118D01*
X0294523Y0064540D01*
X0294889Y0063658D01*
X0295564Y0062983D01*
X0296446Y0062618D01*
X0342401Y0062618D01*
X0343283Y0062983D01*
X0343958Y0063658D01*
X0341923Y0065018D02*
X0341923Y0120018D01*
X0281923Y0120018D01*
X0278594Y0121337D02*
X0274707Y0121337D01*
X0275369Y0122936D02*
X0279777Y0122936D01*
X0278342Y0119739D02*
X0273805Y0119739D01*
X0272207Y0118140D02*
X0278825Y0118140D01*
X0280957Y0116542D02*
X0268931Y0116542D01*
X0264915Y0116542D02*
X0178793Y0116542D01*
X0177195Y0118140D02*
X0261640Y0118140D01*
X0260041Y0119739D02*
X0175596Y0119739D01*
X0173998Y0121337D02*
X0259140Y0121337D01*
X0258478Y0122936D02*
X0172399Y0122936D01*
X0170801Y0124534D02*
X0258324Y0124534D01*
X0273174Y0130928D02*
X0358424Y0130928D01*
X0358342Y0129330D02*
X0274445Y0129330D01*
X0275107Y0127731D02*
X0359145Y0127731D01*
X0343974Y0121337D02*
X0499523Y0121337D01*
X0499523Y0119739D02*
X0344323Y0119739D01*
X0344323Y0118140D02*
X0499523Y0118140D01*
X0499523Y0116542D02*
X0344323Y0116542D01*
X0339523Y0116542D02*
X0282890Y0116542D01*
X0284070Y0122936D02*
X0499523Y0122936D01*
X0499523Y0124534D02*
X0275522Y0124534D01*
X0275522Y0126133D02*
X0499523Y0126133D01*
X0501923Y0130018D02*
X0501923Y0180018D01*
X0499523Y0177285D02*
X0439323Y0177285D01*
X0439323Y0175687D02*
X0499523Y0175687D01*
X0499523Y0174088D02*
X0439323Y0174088D01*
X0439516Y0172490D02*
X0450272Y0172490D01*
X0450424Y0172553D02*
X0447655Y0171406D01*
X0445535Y0169286D01*
X0444388Y0166517D01*
X0444388Y0163519D01*
X0445535Y0160750D01*
X0447655Y0158630D01*
X0450424Y0157483D01*
X0453422Y0157483D01*
X0456192Y0158630D01*
X0458311Y0160750D01*
X0459458Y0163519D01*
X0459458Y0166517D01*
X0458311Y0169286D01*
X0456192Y0171406D01*
X0453422Y0172553D01*
X0450424Y0172553D01*
X0453574Y0172490D02*
X0490272Y0172490D01*
X0490424Y0172553D02*
X0487655Y0171406D01*
X0485535Y0169286D01*
X0484388Y0166517D01*
X0484388Y0163519D01*
X0485535Y0160750D01*
X0487655Y0158630D01*
X0490424Y0157483D01*
X0493422Y0157483D01*
X0496192Y0158630D01*
X0498311Y0160750D01*
X0499458Y0163519D01*
X0499458Y0166517D01*
X0498311Y0169286D01*
X0496192Y0171406D01*
X0493422Y0172553D01*
X0490424Y0172553D01*
X0493574Y0172490D02*
X0499523Y0172490D01*
X0499523Y0170891D02*
X0496706Y0170891D01*
X0498304Y0169293D02*
X0499523Y0169293D01*
X0499523Y0167694D02*
X0498971Y0167694D01*
X0499458Y0166096D02*
X0499523Y0166096D01*
X0499523Y0164497D02*
X0499458Y0164497D01*
X0499523Y0162899D02*
X0499201Y0162899D01*
X0499523Y0161300D02*
X0498539Y0161300D01*
X0499523Y0159702D02*
X0497263Y0159702D01*
X0499523Y0158103D02*
X0494920Y0158103D01*
X0499523Y0156505D02*
X0364323Y0156505D01*
X0364323Y0158103D02*
X0448927Y0158103D01*
X0446583Y0159702D02*
X0364323Y0159702D01*
X0364323Y0161300D02*
X0445307Y0161300D01*
X0444645Y0162899D02*
X0364323Y0162899D01*
X0364323Y0164497D02*
X0444388Y0164497D01*
X0444388Y0166096D02*
X0364323Y0166096D01*
X0364323Y0167694D02*
X0434182Y0167694D01*
X0433347Y0169293D02*
X0364323Y0169293D01*
X0364323Y0170891D02*
X0433409Y0170891D01*
X0439664Y0167694D02*
X0444876Y0167694D01*
X0445542Y0169293D02*
X0440499Y0169293D01*
X0440438Y0170891D02*
X0447141Y0170891D01*
X0456706Y0170891D02*
X0487141Y0170891D01*
X0485542Y0169293D02*
X0458304Y0169293D01*
X0458971Y0167694D02*
X0484876Y0167694D01*
X0484388Y0166096D02*
X0459458Y0166096D01*
X0459458Y0164497D02*
X0484388Y0164497D01*
X0484645Y0162899D02*
X0459201Y0162899D01*
X0458539Y0161300D02*
X0485307Y0161300D01*
X0486583Y0159702D02*
X0457263Y0159702D01*
X0454920Y0158103D02*
X0488927Y0158103D01*
X0499523Y0154906D02*
X0364323Y0154906D01*
X0364323Y0153308D02*
X0499523Y0153308D01*
X0499523Y0151709D02*
X0364323Y0151709D01*
X0364323Y0150111D02*
X0499523Y0150111D01*
X0499523Y0148512D02*
X0474584Y0148512D01*
X0474388Y0148707D02*
X0475613Y0147483D01*
X0476275Y0145883D01*
X0476275Y0144152D01*
X0475613Y0142553D01*
X0474388Y0141328D01*
X0472789Y0140666D01*
X0471058Y0140666D01*
X0469458Y0141328D01*
X0468234Y0142553D01*
X0467571Y0144152D01*
X0467571Y0145883D01*
X0468234Y0147483D01*
X0469458Y0148707D01*
X0471058Y0149370D01*
X0472789Y0149370D01*
X0474388Y0148707D01*
X0475849Y0146914D02*
X0499523Y0146914D01*
X0499523Y0145315D02*
X0476275Y0145315D01*
X0476095Y0143717D02*
X0499523Y0143717D01*
X0499523Y0142118D02*
X0475178Y0142118D01*
X0468668Y0142118D02*
X0465443Y0142118D01*
X0466287Y0143717D02*
X0467752Y0143717D01*
X0467571Y0145315D02*
X0466475Y0145315D01*
X0466066Y0146914D02*
X0467998Y0146914D01*
X0469263Y0148512D02*
X0464858Y0148512D01*
X0462621Y0140520D02*
X0499523Y0140520D01*
X0579323Y0178884D02*
X0584545Y0178884D01*
X0584545Y0180482D02*
X0579323Y0180482D01*
X0578214Y0182081D02*
X0584545Y0182081D01*
X0584545Y0183679D02*
X0019223Y0183679D01*
X0019223Y0182081D02*
X0080632Y0182081D01*
X0079523Y0180482D02*
X0019223Y0180482D01*
X0019223Y0178884D02*
X0079523Y0178884D01*
X0079523Y0177285D02*
X0019223Y0177285D01*
X0019223Y0175687D02*
X0079523Y0175687D01*
X0079523Y0174088D02*
X0019223Y0174088D01*
X0019223Y0172490D02*
X0030272Y0172490D01*
X0030424Y0172553D02*
X0027655Y0171406D01*
X0025535Y0169286D01*
X0024388Y0166517D01*
X0024388Y0163519D01*
X0025535Y0160750D01*
X0027655Y0158630D01*
X0030424Y0157483D01*
X0033422Y0157483D01*
X0036192Y0158630D01*
X0038311Y0160750D01*
X0039458Y0163519D01*
X0039458Y0166517D01*
X0038311Y0169286D01*
X0036192Y0171406D01*
X0033422Y0172553D01*
X0030424Y0172553D01*
X0033574Y0172490D02*
X0070272Y0172490D01*
X0070424Y0172553D02*
X0067655Y0171406D01*
X0065535Y0169286D01*
X0064388Y0166517D01*
X0064388Y0163519D01*
X0065535Y0160750D01*
X0067655Y0158630D01*
X0070424Y0157483D01*
X0073422Y0157483D01*
X0076192Y0158630D01*
X0078311Y0160750D01*
X0079458Y0163519D01*
X0079458Y0166517D01*
X0078311Y0169286D01*
X0076192Y0171406D01*
X0073422Y0172553D01*
X0070424Y0172553D01*
X0073574Y0172490D02*
X0079523Y0172490D01*
X0079523Y0170891D02*
X0076706Y0170891D01*
X0078304Y0169293D02*
X0079523Y0169293D01*
X0079523Y0167694D02*
X0078971Y0167694D01*
X0079458Y0166096D02*
X0079523Y0166096D01*
X0079523Y0164497D02*
X0079458Y0164497D01*
X0079523Y0162899D02*
X0079201Y0162899D01*
X0079523Y0161300D02*
X0078539Y0161300D01*
X0079523Y0159702D02*
X0077263Y0159702D01*
X0079523Y0158103D02*
X0074920Y0158103D01*
X0079523Y0156505D02*
X0019223Y0156505D01*
X0019223Y0158103D02*
X0028927Y0158103D01*
X0026583Y0159702D02*
X0019223Y0159702D01*
X0019223Y0161300D02*
X0025307Y0161300D01*
X0024645Y0162899D02*
X0019223Y0162899D01*
X0019223Y0164497D02*
X0024388Y0164497D01*
X0024388Y0166096D02*
X0019223Y0166096D01*
X0019223Y0167694D02*
X0024876Y0167694D01*
X0025542Y0169293D02*
X0019223Y0169293D01*
X0019223Y0170891D02*
X0027141Y0170891D01*
X0036706Y0170891D02*
X0067141Y0170891D01*
X0065542Y0169293D02*
X0038304Y0169293D01*
X0038971Y0167694D02*
X0064876Y0167694D01*
X0064388Y0166096D02*
X0039458Y0166096D01*
X0039458Y0164497D02*
X0064388Y0164497D01*
X0064645Y0162899D02*
X0039201Y0162899D01*
X0038539Y0161300D02*
X0065307Y0161300D01*
X0066583Y0159702D02*
X0037263Y0159702D01*
X0034920Y0158103D02*
X0068927Y0158103D01*
X0079523Y0154906D02*
X0019223Y0154906D01*
X0019223Y0153308D02*
X0079523Y0153308D01*
X0079523Y0151709D02*
X0019223Y0151709D01*
X0019223Y0150111D02*
X0079523Y0150111D01*
X0079523Y0148512D02*
X0054584Y0148512D01*
X0054388Y0148707D02*
X0055613Y0147483D01*
X0056275Y0145883D01*
X0056275Y0144152D01*
X0055613Y0142553D01*
X0054388Y0141328D01*
X0052789Y0140666D01*
X0051058Y0140666D01*
X0049458Y0141328D01*
X0048234Y0142553D01*
X0047571Y0144152D01*
X0047571Y0145883D01*
X0048234Y0147483D01*
X0049458Y0148707D01*
X0051058Y0149370D01*
X0052789Y0149370D01*
X0054388Y0148707D01*
X0055849Y0146914D02*
X0079523Y0146914D01*
X0079523Y0145315D02*
X0056275Y0145315D01*
X0056095Y0143717D02*
X0079523Y0143717D01*
X0079523Y0142118D02*
X0055178Y0142118D01*
X0048668Y0142118D02*
X0045443Y0142118D01*
X0045395Y0142052D02*
X0045816Y0142632D01*
X0046142Y0143270D01*
X0046363Y0143952D01*
X0046475Y0144660D01*
X0046475Y0144942D01*
X0041999Y0144942D01*
X0041999Y0140466D01*
X0042282Y0140466D01*
X0042989Y0140578D01*
X0043671Y0140799D01*
X0044309Y0141125D01*
X0044889Y0141546D01*
X0045395Y0142052D01*
X0046287Y0143717D02*
X0047752Y0143717D01*
X0047571Y0145315D02*
X0046475Y0145315D01*
X0046475Y0145376D02*
X0046363Y0146084D01*
X0046142Y0146765D01*
X0045816Y0147404D01*
X0045395Y0147983D01*
X0044889Y0148490D01*
X0044309Y0148911D01*
X0043671Y0149236D01*
X0042989Y0149458D01*
X0042282Y0149570D01*
X0041999Y0149570D01*
X0041999Y0145094D01*
X0041847Y0145094D01*
X0041847Y0144942D01*
X0037371Y0144942D01*
X0037371Y0144660D01*
X0037483Y0143952D01*
X0037705Y0143270D01*
X0038030Y0142632D01*
X0038451Y0142052D01*
X0038958Y0141546D01*
X0039538Y0141125D01*
X0040176Y0140799D01*
X0040857Y0140578D01*
X0041565Y0140466D01*
X0041847Y0140466D01*
X0041847Y0144942D01*
X0041999Y0144942D01*
X0041999Y0145094D01*
X0046475Y0145094D01*
X0046475Y0145376D01*
X0046066Y0146914D02*
X0047998Y0146914D01*
X0049263Y0148512D02*
X0044858Y0148512D01*
X0041999Y0148512D02*
X0041847Y0148512D01*
X0041847Y0149570D02*
X0041847Y0145094D01*
X0037371Y0145094D01*
X0037371Y0145376D01*
X0037483Y0146084D01*
X0037705Y0146765D01*
X0038030Y0147404D01*
X0038451Y0147983D01*
X0038958Y0148490D01*
X0039538Y0148911D01*
X0040176Y0149236D01*
X0040857Y0149458D01*
X0041565Y0149570D01*
X0041847Y0149570D01*
X0041847Y0146914D02*
X0041999Y0146914D01*
X0041999Y0145315D02*
X0041847Y0145315D01*
X0041847Y0143717D02*
X0041999Y0143717D01*
X0041999Y0142118D02*
X0041847Y0142118D01*
X0041847Y0140520D02*
X0041999Y0140520D01*
X0042621Y0140520D02*
X0079523Y0140520D01*
X0079523Y0138921D02*
X0019223Y0138921D01*
X0019223Y0137323D02*
X0079523Y0137323D01*
X0079523Y0135724D02*
X0019223Y0135724D01*
X0019223Y0134126D02*
X0079523Y0134126D01*
X0079368Y0132527D02*
X0036265Y0132527D01*
X0036794Y0132308D02*
X0033634Y0133617D01*
X0030213Y0133617D01*
X0027052Y0132308D01*
X0024633Y0129889D01*
X0023324Y0126728D01*
X0023324Y0123307D01*
X0024633Y0120147D01*
X0027052Y0117728D01*
X0030213Y0116419D01*
X0033634Y0116419D01*
X0036794Y0117728D01*
X0039213Y0120147D01*
X0040522Y0123307D01*
X0040522Y0126728D01*
X0039213Y0129889D01*
X0036794Y0132308D01*
X0038174Y0130928D02*
X0078424Y0130928D01*
X0078342Y0129330D02*
X0039445Y0129330D01*
X0040107Y0127731D02*
X0079145Y0127731D01*
X0079523Y0126133D02*
X0040522Y0126133D01*
X0040522Y0124534D02*
X0079523Y0124534D01*
X0079523Y0122936D02*
X0040369Y0122936D01*
X0039707Y0121337D02*
X0079523Y0121337D01*
X0079523Y0119739D02*
X0038805Y0119739D01*
X0037207Y0118140D02*
X0080407Y0118140D01*
X0081923Y0120018D02*
X0081923Y0130018D01*
X0081923Y0180018D01*
X0156923Y0180018D01*
X0156923Y0170018D01*
X0154331Y0172490D02*
X0084323Y0172490D01*
X0084323Y0174088D02*
X0154523Y0174088D01*
X0154523Y0175687D02*
X0084323Y0175687D01*
X0084323Y0177285D02*
X0154523Y0177285D01*
X0156923Y0180018D02*
X0221923Y0180018D01*
X0221923Y0130018D01*
X0219523Y0140520D02*
X0182621Y0140520D01*
X0181999Y0140520D02*
X0181847Y0140520D01*
X0181847Y0142118D02*
X0181999Y0142118D01*
X0181999Y0143717D02*
X0181847Y0143717D01*
X0181999Y0145094D02*
X0186475Y0145094D01*
X0186475Y0145376D01*
X0186363Y0146084D01*
X0186142Y0146765D01*
X0185816Y0147404D01*
X0185395Y0147983D01*
X0184889Y0148490D01*
X0184309Y0148911D01*
X0183671Y0149236D01*
X0182989Y0149458D01*
X0182282Y0149570D01*
X0181999Y0149570D01*
X0181999Y0145094D01*
X0181999Y0145315D02*
X0181847Y0145315D01*
X0181847Y0146914D02*
X0181999Y0146914D01*
X0181999Y0148512D02*
X0181847Y0148512D01*
X0184858Y0148512D02*
X0189263Y0148512D01*
X0189458Y0148707D02*
X0188234Y0147483D01*
X0187571Y0145883D01*
X0187571Y0144152D01*
X0188234Y0142553D01*
X0189458Y0141328D01*
X0191058Y0140666D01*
X0192789Y0140666D01*
X0194388Y0141328D01*
X0195613Y0142553D01*
X0196275Y0144152D01*
X0196275Y0145883D01*
X0195613Y0147483D01*
X0194388Y0148707D01*
X0192789Y0149370D01*
X0191058Y0149370D01*
X0189458Y0148707D01*
X0187998Y0146914D02*
X0186066Y0146914D01*
X0186475Y0145315D02*
X0187571Y0145315D01*
X0187752Y0143717D02*
X0186287Y0143717D01*
X0185443Y0142118D02*
X0188668Y0142118D01*
X0195178Y0142118D02*
X0219523Y0142118D01*
X0219523Y0143717D02*
X0196095Y0143717D01*
X0196275Y0145315D02*
X0219523Y0145315D01*
X0219523Y0146914D02*
X0195849Y0146914D01*
X0194584Y0148512D02*
X0219523Y0148512D01*
X0219523Y0150111D02*
X0084323Y0150111D01*
X0084323Y0151709D02*
X0219523Y0151709D01*
X0219523Y0153308D02*
X0084323Y0153308D01*
X0084323Y0154906D02*
X0219523Y0154906D01*
X0219523Y0156505D02*
X0084323Y0156505D01*
X0084323Y0158103D02*
X0168927Y0158103D01*
X0167655Y0158630D02*
X0170424Y0157483D01*
X0173422Y0157483D01*
X0176192Y0158630D01*
X0178311Y0160750D01*
X0179458Y0163519D01*
X0179458Y0166517D01*
X0178311Y0169286D01*
X0176192Y0171406D01*
X0173422Y0172553D01*
X0170424Y0172553D01*
X0167655Y0171406D01*
X0165535Y0169286D01*
X0164388Y0166517D01*
X0164388Y0163519D01*
X0165535Y0160750D01*
X0167655Y0158630D01*
X0166583Y0159702D02*
X0084323Y0159702D01*
X0084323Y0161300D02*
X0165307Y0161300D01*
X0164645Y0162899D02*
X0084323Y0162899D01*
X0084323Y0164497D02*
X0164388Y0164497D01*
X0164388Y0166096D02*
X0084323Y0166096D01*
X0084323Y0167694D02*
X0154182Y0167694D01*
X0153347Y0169293D02*
X0084323Y0169293D01*
X0084323Y0170891D02*
X0153409Y0170891D01*
X0159516Y0172490D02*
X0170272Y0172490D01*
X0173574Y0172490D02*
X0210272Y0172490D01*
X0210424Y0172553D02*
X0207655Y0171406D01*
X0205535Y0169286D01*
X0204388Y0166517D01*
X0204388Y0163519D01*
X0205535Y0160750D01*
X0207655Y0158630D01*
X0210424Y0157483D01*
X0213422Y0157483D01*
X0216192Y0158630D01*
X0218311Y0160750D01*
X0219458Y0163519D01*
X0219458Y0166517D01*
X0218311Y0169286D01*
X0216192Y0171406D01*
X0213422Y0172553D01*
X0210424Y0172553D01*
X0213574Y0172490D02*
X0219523Y0172490D01*
X0219523Y0174088D02*
X0159323Y0174088D01*
X0159323Y0175687D02*
X0219523Y0175687D01*
X0219523Y0177285D02*
X0159323Y0177285D01*
X0160438Y0170891D02*
X0167141Y0170891D01*
X0165542Y0169293D02*
X0160499Y0169293D01*
X0159664Y0167694D02*
X0164876Y0167694D01*
X0176706Y0170891D02*
X0207141Y0170891D01*
X0205542Y0169293D02*
X0178304Y0169293D01*
X0178971Y0167694D02*
X0204876Y0167694D01*
X0204388Y0166096D02*
X0179458Y0166096D01*
X0179458Y0164497D02*
X0204388Y0164497D01*
X0204645Y0162899D02*
X0179201Y0162899D01*
X0178539Y0161300D02*
X0205307Y0161300D01*
X0206583Y0159702D02*
X0177263Y0159702D01*
X0174920Y0158103D02*
X0208927Y0158103D01*
X0214920Y0158103D02*
X0219523Y0158103D01*
X0219523Y0159702D02*
X0217263Y0159702D01*
X0218539Y0161300D02*
X0219523Y0161300D01*
X0219523Y0162899D02*
X0219201Y0162899D01*
X0219458Y0164497D02*
X0219523Y0164497D01*
X0219523Y0166096D02*
X0219458Y0166096D01*
X0219523Y0167694D02*
X0218971Y0167694D01*
X0219523Y0169293D02*
X0218304Y0169293D01*
X0219523Y0170891D02*
X0216706Y0170891D01*
X0224323Y0170891D02*
X0293409Y0170891D01*
X0293347Y0169293D02*
X0224323Y0169293D01*
X0224323Y0167694D02*
X0294182Y0167694D01*
X0296923Y0170018D02*
X0296923Y0180018D01*
X0361923Y0180018D01*
X0359523Y0177285D02*
X0299323Y0177285D01*
X0299323Y0175687D02*
X0359523Y0175687D01*
X0359523Y0174088D02*
X0299323Y0174088D01*
X0299516Y0172490D02*
X0310272Y0172490D01*
X0310424Y0172553D02*
X0307655Y0171406D01*
X0305535Y0169286D01*
X0304388Y0166517D01*
X0304388Y0163519D01*
X0305535Y0160750D01*
X0307655Y0158630D01*
X0310424Y0157483D01*
X0313422Y0157483D01*
X0316192Y0158630D01*
X0318311Y0160750D01*
X0319458Y0163519D01*
X0319458Y0166517D01*
X0318311Y0169286D01*
X0316192Y0171406D01*
X0313422Y0172553D01*
X0310424Y0172553D01*
X0313574Y0172490D02*
X0350272Y0172490D01*
X0350424Y0172553D02*
X0347655Y0171406D01*
X0345535Y0169286D01*
X0344388Y0166517D01*
X0344388Y0163519D01*
X0345535Y0160750D01*
X0347655Y0158630D01*
X0350424Y0157483D01*
X0353422Y0157483D01*
X0356192Y0158630D01*
X0358311Y0160750D01*
X0359458Y0163519D01*
X0359458Y0166517D01*
X0358311Y0169286D01*
X0356192Y0171406D01*
X0353422Y0172553D01*
X0350424Y0172553D01*
X0353574Y0172490D02*
X0359523Y0172490D01*
X0359523Y0170891D02*
X0356706Y0170891D01*
X0358304Y0169293D02*
X0359523Y0169293D01*
X0359523Y0167694D02*
X0358971Y0167694D01*
X0359458Y0166096D02*
X0359523Y0166096D01*
X0359523Y0164497D02*
X0359458Y0164497D01*
X0359523Y0162899D02*
X0359201Y0162899D01*
X0359523Y0161300D02*
X0358539Y0161300D01*
X0359523Y0159702D02*
X0357263Y0159702D01*
X0359523Y0158103D02*
X0354920Y0158103D01*
X0359523Y0156505D02*
X0224323Y0156505D01*
X0224323Y0158103D02*
X0308927Y0158103D01*
X0306583Y0159702D02*
X0224323Y0159702D01*
X0224323Y0161300D02*
X0305307Y0161300D01*
X0304645Y0162899D02*
X0224323Y0162899D01*
X0224323Y0164497D02*
X0304388Y0164497D01*
X0304388Y0166096D02*
X0224323Y0166096D01*
X0224323Y0172490D02*
X0294331Y0172490D01*
X0294523Y0174088D02*
X0224323Y0174088D01*
X0224323Y0175687D02*
X0294523Y0175687D01*
X0294523Y0177285D02*
X0224323Y0177285D01*
X0221923Y0180018D02*
X0296923Y0180018D01*
X0300438Y0170891D02*
X0307141Y0170891D01*
X0305542Y0169293D02*
X0300499Y0169293D01*
X0299664Y0167694D02*
X0304876Y0167694D01*
X0316706Y0170891D02*
X0347141Y0170891D01*
X0345542Y0169293D02*
X0318304Y0169293D01*
X0318971Y0167694D02*
X0344876Y0167694D01*
X0344388Y0166096D02*
X0319458Y0166096D01*
X0319458Y0164497D02*
X0344388Y0164497D01*
X0344645Y0162899D02*
X0319201Y0162899D01*
X0318539Y0161300D02*
X0345307Y0161300D01*
X0346583Y0159702D02*
X0317263Y0159702D01*
X0314920Y0158103D02*
X0348927Y0158103D01*
X0359523Y0154906D02*
X0224323Y0154906D01*
X0224323Y0153308D02*
X0359523Y0153308D01*
X0359523Y0151709D02*
X0224323Y0151709D01*
X0224323Y0150111D02*
X0359523Y0150111D01*
X0339523Y0114943D02*
X0180392Y0114943D01*
X0181990Y0113345D02*
X0339523Y0113345D01*
X0339523Y0111746D02*
X0183589Y0111746D01*
X0185187Y0110148D02*
X0339523Y0110148D01*
X0339523Y0108549D02*
X0186786Y0108549D01*
X0188384Y0106951D02*
X0339523Y0106951D01*
X0339523Y0105352D02*
X0189983Y0105352D01*
X0191581Y0103754D02*
X0339523Y0103754D01*
X0336923Y0100018D02*
X0336923Y0070018D01*
X0301923Y0070018D01*
X0301923Y0087518D01*
X0226923Y0087518D01*
X0223605Y0086170D02*
X0209165Y0086170D01*
X0210764Y0084572D02*
X0224805Y0084572D01*
X0223342Y0087769D02*
X0207566Y0087769D01*
X0205968Y0089367D02*
X0223813Y0089367D01*
X0225889Y0090966D02*
X0204369Y0090966D01*
X0202771Y0092564D02*
X0304523Y0092564D01*
X0304523Y0090966D02*
X0227957Y0090966D01*
X0229042Y0084572D02*
X0299523Y0084572D01*
X0299523Y0082973D02*
X0212362Y0082973D01*
X0213961Y0081375D02*
X0299523Y0081375D01*
X0299523Y0079776D02*
X0297743Y0079776D01*
X0299248Y0078178D02*
X0299523Y0078178D01*
X0299523Y0076579D02*
X0299323Y0076579D01*
X0299323Y0074981D02*
X0299523Y0074981D01*
X0299523Y0073382D02*
X0299323Y0073382D01*
X0299323Y0071784D02*
X0299523Y0071784D01*
X0299523Y0070185D02*
X0299323Y0070185D01*
X0299323Y0068587D02*
X0299960Y0068587D01*
X0296923Y0065018D02*
X0341923Y0065018D01*
X0339523Y0068587D02*
X0338886Y0068587D01*
X0339323Y0070185D02*
X0339523Y0070185D01*
X0339523Y0071784D02*
X0339323Y0071784D01*
X0339323Y0073382D02*
X0339523Y0073382D01*
X0339523Y0074981D02*
X0339323Y0074981D01*
X0339323Y0076579D02*
X0339523Y0076579D01*
X0339523Y0078178D02*
X0339323Y0078178D01*
X0339323Y0079776D02*
X0339523Y0079776D01*
X0339523Y0081375D02*
X0339323Y0081375D01*
X0339323Y0082973D02*
X0339523Y0082973D01*
X0339523Y0084572D02*
X0339323Y0084572D01*
X0339323Y0086170D02*
X0339523Y0086170D01*
X0339523Y0087769D02*
X0339323Y0087769D01*
X0339323Y0089367D02*
X0339523Y0089367D01*
X0339523Y0090966D02*
X0339323Y0090966D01*
X0339323Y0092564D02*
X0339523Y0092564D01*
X0339523Y0094163D02*
X0339323Y0094163D01*
X0339323Y0095761D02*
X0339523Y0095761D01*
X0339523Y0097360D02*
X0339330Y0097360D01*
X0334517Y0097360D02*
X0309323Y0097360D01*
X0309323Y0095761D02*
X0334523Y0095761D01*
X0334523Y0094163D02*
X0309323Y0094163D01*
X0309323Y0092564D02*
X0334523Y0092564D01*
X0334523Y0090966D02*
X0309323Y0090966D01*
X0309323Y0089367D02*
X0334523Y0089367D01*
X0334523Y0087769D02*
X0309323Y0087769D01*
X0309323Y0086170D02*
X0334523Y0086170D01*
X0334523Y0084572D02*
X0309323Y0084572D01*
X0309323Y0082973D02*
X0334523Y0082973D01*
X0334523Y0081375D02*
X0309323Y0081375D01*
X0309323Y0079776D02*
X0334523Y0079776D01*
X0334523Y0078178D02*
X0309323Y0078178D01*
X0310153Y0076579D02*
X0334523Y0076579D01*
X0334523Y0074981D02*
X0310504Y0074981D01*
X0310122Y0073382D02*
X0334523Y0073382D01*
X0306923Y0075018D02*
X0306923Y0097518D01*
X0211923Y0097518D01*
X0208644Y0098958D02*
X0196377Y0098958D01*
X0197975Y0097360D02*
X0208342Y0097360D01*
X0208775Y0095761D02*
X0199574Y0095761D01*
X0201172Y0094163D02*
X0210665Y0094163D01*
X0213181Y0094163D02*
X0304523Y0094163D01*
X0304523Y0089367D02*
X0303468Y0089367D01*
X0304323Y0087769D02*
X0304523Y0087769D01*
X0304523Y0086170D02*
X0304323Y0086170D01*
X0304323Y0084572D02*
X0304523Y0084572D01*
X0304523Y0082973D02*
X0304323Y0082973D01*
X0304323Y0081375D02*
X0304523Y0081375D01*
X0304523Y0079776D02*
X0304323Y0079776D01*
X0304323Y0078178D02*
X0304523Y0078178D01*
X0296923Y0077518D02*
X0296923Y0065018D01*
X0294834Y0063791D02*
X0259323Y0063791D01*
X0259323Y0065390D02*
X0294523Y0065390D01*
X0294523Y0066988D02*
X0259323Y0066988D01*
X0259078Y0068587D02*
X0294523Y0068587D01*
X0294523Y0070185D02*
X0225150Y0070185D01*
X0223552Y0071784D02*
X0294523Y0071784D01*
X0294523Y0073382D02*
X0221953Y0073382D01*
X0220355Y0074981D02*
X0239396Y0074981D01*
X0238436Y0076579D02*
X0218756Y0076579D01*
X0217158Y0078178D02*
X0238342Y0078178D01*
X0239117Y0079776D02*
X0215559Y0079776D01*
X0211968Y0076579D02*
X0154256Y0076579D01*
X0154523Y0075933D02*
X0153823Y0077623D01*
X0152529Y0078917D01*
X0150838Y0079618D01*
X0143008Y0079618D01*
X0141318Y0078917D01*
X0140024Y0077623D01*
X0139323Y0075933D01*
X0139323Y0074103D01*
X0140024Y0072412D01*
X0141318Y0071118D01*
X0143008Y0070418D01*
X0150838Y0070418D01*
X0152529Y0071118D01*
X0153823Y0072412D01*
X0154523Y0074103D01*
X0154523Y0075933D01*
X0154523Y0074981D02*
X0213566Y0074981D01*
X0215165Y0073382D02*
X0154225Y0073382D01*
X0153194Y0071784D02*
X0216763Y0071784D01*
X0210369Y0078178D02*
X0153269Y0078178D01*
X0152529Y0081118D02*
X0153823Y0082412D01*
X0154523Y0084103D01*
X0154523Y0085933D01*
X0153823Y0087623D01*
X0152529Y0088917D01*
X0150838Y0089618D01*
X0143008Y0089618D01*
X0141318Y0088917D01*
X0140024Y0087623D01*
X0139323Y0085933D01*
X0139323Y0084103D01*
X0140024Y0082412D01*
X0141318Y0081118D01*
X0143008Y0080418D01*
X0150838Y0080418D01*
X0152529Y0081118D01*
X0152785Y0081375D02*
X0207172Y0081375D01*
X0205574Y0082973D02*
X0154055Y0082973D01*
X0154523Y0084572D02*
X0203975Y0084572D01*
X0202377Y0086170D02*
X0154425Y0086170D01*
X0153678Y0087769D02*
X0200778Y0087769D01*
X0199180Y0089367D02*
X0151443Y0089367D01*
X0152161Y0090966D02*
X0197581Y0090966D01*
X0195983Y0092564D02*
X0153886Y0092564D01*
X0154523Y0094163D02*
X0194384Y0094163D01*
X0192786Y0095761D02*
X0154523Y0095761D01*
X0153932Y0097360D02*
X0191187Y0097360D01*
X0189589Y0098958D02*
X0152431Y0098958D01*
X0151766Y0100569D02*
X0152439Y0100912D01*
X0153050Y0101357D01*
X0153584Y0101891D01*
X0154029Y0102502D01*
X0154372Y0103175D01*
X0154605Y0103894D01*
X0154723Y0104640D01*
X0154723Y0104818D01*
X0147123Y0104818D01*
X0147123Y0100218D01*
X0150301Y0100218D01*
X0151047Y0100336D01*
X0151766Y0100569D01*
X0151727Y0100557D02*
X0187990Y0100557D01*
X0186392Y0102155D02*
X0153777Y0102155D01*
X0154560Y0103754D02*
X0184793Y0103754D01*
X0183195Y0105352D02*
X0154723Y0105352D01*
X0154723Y0105396D02*
X0154605Y0106142D01*
X0154372Y0106860D01*
X0154029Y0107534D01*
X0153584Y0108145D01*
X0153050Y0108679D01*
X0152439Y0109123D01*
X0151766Y0109466D01*
X0151047Y0109700D01*
X0150301Y0109818D01*
X0147123Y0109818D01*
X0147123Y0105218D01*
X0146723Y0105218D01*
X0146723Y0104818D01*
X0139123Y0104818D01*
X0139123Y0104640D01*
X0139241Y0103894D01*
X0139475Y0103175D01*
X0139818Y0102502D01*
X0140262Y0101891D01*
X0140796Y0101357D01*
X0141408Y0100912D01*
X0142081Y0100569D01*
X0142799Y0100336D01*
X0143545Y0100218D01*
X0146723Y0100218D01*
X0146723Y0104818D01*
X0147123Y0104818D01*
X0147123Y0105218D01*
X0154723Y0105218D01*
X0154723Y0105396D01*
X0154326Y0106951D02*
X0181596Y0106951D01*
X0179998Y0108549D02*
X0153180Y0108549D01*
X0147123Y0108549D02*
X0146723Y0108549D01*
X0146723Y0109818D02*
X0143545Y0109818D01*
X0142799Y0109700D01*
X0142081Y0109466D01*
X0141408Y0109123D01*
X0140796Y0108679D01*
X0140262Y0108145D01*
X0139818Y0107534D01*
X0139475Y0106860D01*
X0139241Y0106142D01*
X0139123Y0105396D01*
X0139123Y0105218D01*
X0146723Y0105218D01*
X0146723Y0109818D01*
X0146723Y0106951D02*
X0147123Y0106951D01*
X0147123Y0105352D02*
X0146723Y0105352D01*
X0146723Y0103754D02*
X0147123Y0103754D01*
X0147123Y0102155D02*
X0146723Y0102155D01*
X0146723Y0100557D02*
X0147123Y0100557D01*
X0142120Y0100557D02*
X0136823Y0100557D01*
X0136823Y0102155D02*
X0140070Y0102155D01*
X0139287Y0103754D02*
X0136823Y0103754D01*
X0136823Y0105352D02*
X0139123Y0105352D01*
X0139521Y0106951D02*
X0136823Y0106951D01*
X0136823Y0108549D02*
X0140667Y0108549D01*
X0136823Y0110148D02*
X0178399Y0110148D01*
X0176801Y0111746D02*
X0136823Y0111746D01*
X0136823Y0113345D02*
X0175202Y0113345D01*
X0173604Y0114943D02*
X0136823Y0114943D01*
X0136823Y0116542D02*
X0172005Y0116542D01*
X0170407Y0118140D02*
X0136823Y0118140D01*
X0136823Y0119739D02*
X0168808Y0119739D01*
X0167210Y0121337D02*
X0136474Y0121337D01*
X0134423Y0120018D02*
X0081923Y0120018D01*
X0084323Y0122936D02*
X0165611Y0122936D01*
X0164013Y0124534D02*
X0084323Y0124534D01*
X0084323Y0126133D02*
X0162414Y0126133D01*
X0160816Y0127731D02*
X0084701Y0127731D01*
X0085504Y0129330D02*
X0159217Y0129330D01*
X0157618Y0130928D02*
X0085422Y0130928D01*
X0084479Y0132527D02*
X0156020Y0132527D01*
X0154421Y0134126D02*
X0084323Y0134126D01*
X0084323Y0135724D02*
X0152823Y0135724D01*
X0151224Y0137323D02*
X0084323Y0137323D01*
X0084323Y0138921D02*
X0149626Y0138921D01*
X0148027Y0140520D02*
X0084323Y0140520D01*
X0084323Y0142118D02*
X0144759Y0142118D01*
X0134423Y0120018D02*
X0134423Y0095018D01*
X0146923Y0095018D01*
X0141686Y0090966D02*
X0129223Y0090966D01*
X0129223Y0092564D02*
X0139961Y0092564D01*
X0132180Y0094163D02*
X0129223Y0094163D01*
X0129223Y0095761D02*
X0132023Y0095761D01*
X0132023Y0097360D02*
X0129223Y0097360D01*
X0129223Y0098958D02*
X0132023Y0098958D01*
X0132023Y0100557D02*
X0129223Y0100557D01*
X0129223Y0102155D02*
X0132023Y0102155D01*
X0132023Y0103754D02*
X0129223Y0103754D01*
X0129223Y0105352D02*
X0132023Y0105352D01*
X0132023Y0106951D02*
X0129223Y0106951D01*
X0129223Y0108549D02*
X0132023Y0108549D01*
X0132023Y0110148D02*
X0129223Y0110148D01*
X0128447Y0111746D02*
X0132023Y0111746D01*
X0132023Y0113345D02*
X0019223Y0113345D01*
X0019223Y0114943D02*
X0132023Y0114943D01*
X0132023Y0116542D02*
X0033931Y0116542D01*
X0029915Y0116542D02*
X0019223Y0116542D01*
X0019223Y0118140D02*
X0026640Y0118140D01*
X0025041Y0119739D02*
X0019223Y0119739D01*
X0019223Y0121337D02*
X0024140Y0121337D01*
X0023478Y0122936D02*
X0019223Y0122936D01*
X0019223Y0124534D02*
X0023324Y0124534D01*
X0023324Y0126133D02*
X0019223Y0126133D01*
X0019223Y0127731D02*
X0023740Y0127731D01*
X0024402Y0129330D02*
X0019223Y0129330D01*
X0019223Y0130928D02*
X0025673Y0130928D01*
X0027581Y0132527D02*
X0019223Y0132527D01*
X0019223Y0140520D02*
X0041226Y0140520D01*
X0038404Y0142118D02*
X0019223Y0142118D01*
X0019223Y0143717D02*
X0037560Y0143717D01*
X0037371Y0145315D02*
X0019223Y0145315D01*
X0019223Y0146914D02*
X0037780Y0146914D01*
X0038989Y0148512D02*
X0019223Y0148512D01*
X0019223Y0185278D02*
X0584545Y0185278D01*
X0584545Y0186876D02*
X0019223Y0186876D01*
X0019223Y0188475D02*
X0584545Y0188475D01*
X0584545Y0190073D02*
X0019223Y0190073D01*
X0019223Y0191672D02*
X0584545Y0191672D01*
X0584545Y0193270D02*
X0019223Y0193270D01*
X0019223Y0194869D02*
X0584545Y0194869D01*
X0333996Y0102155D02*
X0193180Y0102155D01*
X0194778Y0100557D02*
X0209902Y0100557D01*
X0213944Y0100557D02*
X0333342Y0100557D01*
X0333486Y0098958D02*
X0308877Y0098958D01*
X0296923Y0077518D02*
X0241923Y0077518D01*
X0244450Y0074981D02*
X0294523Y0074981D01*
X0260504Y0060594D02*
X0584545Y0060594D01*
X0584545Y0062192D02*
X0259813Y0062192D01*
X0271923Y0057518D02*
X0271923Y0055018D01*
X0266923Y0055018D01*
X0236923Y0045018D02*
X0231923Y0045018D01*
X0221923Y0055018D02*
X0216923Y0055018D01*
X0206923Y0065018D02*
X0201923Y0065018D01*
X0191923Y0075018D02*
X0186923Y0075018D01*
X0208771Y0079776D02*
X0129223Y0079776D01*
X0129223Y0078178D02*
X0140578Y0078178D01*
X0139591Y0076579D02*
X0129223Y0076579D01*
X0129223Y0074981D02*
X0139323Y0074981D01*
X0139622Y0073382D02*
X0129223Y0073382D01*
X0129223Y0071784D02*
X0140652Y0071784D01*
X0141061Y0081375D02*
X0129223Y0081375D01*
X0129223Y0082973D02*
X0139791Y0082973D01*
X0139323Y0084572D02*
X0129223Y0084572D01*
X0129223Y0086170D02*
X0139422Y0086170D01*
X0140169Y0087769D02*
X0129223Y0087769D01*
X0129223Y0089367D02*
X0142403Y0089367D01*
X0141416Y0098958D02*
X0136823Y0098958D01*
D15*
X0191923Y0075018D03*
X0206923Y0065018D03*
X0221923Y0055018D03*
X0236923Y0045018D03*
X0256923Y0060018D03*
X0271923Y0057518D03*
X0306923Y0075018D03*
X0336923Y0100018D03*
X0281923Y0120018D03*
X0221923Y0130018D03*
X0211923Y0097518D03*
X0226923Y0087518D03*
X0241923Y0077518D03*
X0361923Y0130018D03*
X0296923Y0170018D03*
X0156923Y0170018D03*
X0146923Y0145018D03*
X0081923Y0130018D03*
X0436923Y0170018D03*
X0501923Y0130018D03*
X0576923Y0170018D03*
X0576923Y0075018D03*
X0521923Y0065018D03*
X0511923Y0070018D03*
M02*
