G75*
%MOIN*%
%OFA0B0*%
%FSLAX25Y25*%
%IPPOS*%
%LPD*%
%AMOC8*
5,1,8,0,0,1.08239X$1,22.5*
%
%ADD10C,0.00800*%
%ADD11C,0.00500*%
%ADD12C,0.00600*%
%ADD13C,0.00400*%
%ADD14C,0.03000*%
%ADD15R,0.02000X0.03000*%
%ADD16R,0.04000X0.03000*%
%ADD17R,0.00984X0.00984*%
%ADD18C,0.00200*%
%ADD19R,0.01181X0.00591*%
%ADD20R,0.01181X0.01181*%
D10*
X0165724Y0129418D02*
X0165724Y0133621D01*
X0164323Y0133621D02*
X0167126Y0133621D01*
X0168927Y0133621D02*
X0171029Y0133621D01*
X0171730Y0132921D01*
X0171730Y0131520D01*
X0171029Y0130819D01*
X0168927Y0130819D01*
X0168927Y0129418D02*
X0168927Y0133621D01*
X0170328Y0130819D02*
X0171730Y0129418D01*
X0173531Y0129418D02*
X0174932Y0129418D01*
X0174232Y0129418D02*
X0174232Y0133621D01*
X0174932Y0133621D02*
X0173531Y0133621D01*
X0176600Y0132921D02*
X0176600Y0130118D01*
X0177301Y0129418D01*
X0178702Y0129418D01*
X0179403Y0130118D01*
X0179403Y0131520D01*
X0178002Y0131520D01*
X0179403Y0132921D02*
X0178702Y0133621D01*
X0177301Y0133621D01*
X0176600Y0132921D01*
X0181204Y0132921D02*
X0181905Y0133621D01*
X0183306Y0133621D01*
X0184007Y0132921D01*
X0184007Y0132220D01*
X0181204Y0129418D01*
X0184007Y0129418D01*
X0304323Y0132621D02*
X0307126Y0132621D01*
X0305724Y0132621D02*
X0305724Y0128418D01*
X0308927Y0128418D02*
X0308927Y0132621D01*
X0311029Y0132621D01*
X0311730Y0131921D01*
X0311730Y0130520D01*
X0311029Y0129819D01*
X0308927Y0129819D01*
X0310328Y0129819D02*
X0311730Y0128418D01*
X0313531Y0128418D02*
X0314932Y0128418D01*
X0314232Y0128418D02*
X0314232Y0132621D01*
X0314932Y0132621D02*
X0313531Y0132621D01*
X0316600Y0131921D02*
X0316600Y0129118D01*
X0317301Y0128418D01*
X0318702Y0128418D01*
X0319403Y0129118D01*
X0319403Y0130520D01*
X0318002Y0130520D01*
X0319403Y0131921D02*
X0318702Y0132621D01*
X0317301Y0132621D01*
X0316600Y0131921D01*
X0321204Y0131921D02*
X0321905Y0132621D01*
X0323306Y0132621D01*
X0324007Y0131921D01*
X0324007Y0131220D01*
X0323306Y0130520D01*
X0324007Y0129819D01*
X0324007Y0129118D01*
X0323306Y0128418D01*
X0321905Y0128418D01*
X0321204Y0129118D01*
X0322606Y0130520D02*
X0323306Y0130520D01*
X0337323Y0077121D02*
X0340126Y0077121D01*
X0338724Y0077121D02*
X0338724Y0072918D01*
X0341927Y0072918D02*
X0341927Y0077121D01*
X0344029Y0077121D01*
X0344730Y0076421D01*
X0344730Y0075020D01*
X0344029Y0074319D01*
X0341927Y0074319D01*
X0343328Y0074319D02*
X0344730Y0072918D01*
X0346531Y0072918D02*
X0347932Y0072918D01*
X0347232Y0072918D02*
X0347232Y0077121D01*
X0347932Y0077121D02*
X0346531Y0077121D01*
X0349600Y0076421D02*
X0349600Y0073618D01*
X0350301Y0072918D01*
X0351702Y0072918D01*
X0352403Y0073618D01*
X0352403Y0075020D01*
X0351002Y0075020D01*
X0352403Y0076421D02*
X0351702Y0077121D01*
X0350301Y0077121D01*
X0349600Y0076421D01*
X0354204Y0076421D02*
X0354204Y0073618D01*
X0354905Y0072918D01*
X0356306Y0072918D01*
X0357007Y0073618D01*
X0357007Y0075020D01*
X0355606Y0075020D01*
X0357007Y0076421D02*
X0356306Y0077121D01*
X0354905Y0077121D01*
X0354204Y0076421D01*
X0358808Y0077121D02*
X0358808Y0072918D01*
X0361611Y0072918D01*
X0363412Y0072918D02*
X0363412Y0077121D01*
X0365514Y0077121D01*
X0366215Y0076421D01*
X0366215Y0075020D01*
X0365514Y0074319D01*
X0363412Y0074319D01*
X0364813Y0074319D02*
X0366215Y0072918D01*
X0361611Y0077121D02*
X0358808Y0077121D01*
X0358808Y0075020D02*
X0360209Y0075020D01*
X0361043Y0069621D02*
X0362445Y0069621D01*
X0363145Y0068921D01*
X0360343Y0066118D01*
X0361043Y0065418D01*
X0362445Y0065418D01*
X0363145Y0066118D01*
X0363145Y0068921D01*
X0364947Y0068921D02*
X0365647Y0069621D01*
X0367049Y0069621D01*
X0367749Y0068921D01*
X0367749Y0068220D01*
X0364947Y0065418D01*
X0367749Y0065418D01*
X0369551Y0066118D02*
X0372353Y0068921D01*
X0372353Y0066118D01*
X0371653Y0065418D01*
X0370251Y0065418D01*
X0369551Y0066118D01*
X0369551Y0068921D01*
X0370251Y0069621D01*
X0371653Y0069621D01*
X0372353Y0068921D01*
X0374855Y0066118D02*
X0374855Y0065418D01*
X0375556Y0065418D01*
X0375556Y0066118D01*
X0374855Y0066118D01*
X0375556Y0065418D02*
X0374155Y0064017D01*
X0373955Y0060720D02*
X0373254Y0060720D01*
X0371853Y0059319D01*
X0371853Y0057918D02*
X0371853Y0060720D01*
X0370051Y0060020D02*
X0370051Y0059319D01*
X0367249Y0059319D01*
X0367249Y0060020D02*
X0367949Y0060720D01*
X0369351Y0060720D01*
X0370051Y0060020D01*
X0369351Y0057918D02*
X0367949Y0057918D01*
X0367249Y0058618D01*
X0367249Y0060020D01*
X0365447Y0060720D02*
X0363345Y0060720D01*
X0362645Y0060020D01*
X0362645Y0058618D01*
X0363345Y0057918D01*
X0365447Y0057918D01*
X0365447Y0057217D02*
X0365447Y0060720D01*
X0365447Y0057217D02*
X0364747Y0056517D01*
X0364046Y0056517D01*
X0360843Y0057217D02*
X0360843Y0060720D01*
X0358742Y0060720D01*
X0358041Y0060020D01*
X0358041Y0058618D01*
X0358742Y0057918D01*
X0360843Y0057918D01*
X0360843Y0057217D02*
X0360143Y0056517D01*
X0359442Y0056517D01*
X0356373Y0057918D02*
X0354972Y0057918D01*
X0355672Y0057918D02*
X0355672Y0060720D01*
X0354972Y0060720D01*
X0355672Y0062121D02*
X0355672Y0062822D01*
X0355739Y0065418D02*
X0358541Y0068220D01*
X0358541Y0068921D01*
X0357841Y0069621D01*
X0356440Y0069621D01*
X0355739Y0068921D01*
X0355739Y0065418D02*
X0358541Y0065418D01*
X0360343Y0066118D02*
X0360343Y0068921D01*
X0361043Y0069621D01*
X0372620Y0072918D02*
X0374722Y0072918D01*
X0375422Y0073618D01*
X0375422Y0074319D01*
X0374722Y0075020D01*
X0372620Y0075020D01*
X0372620Y0077121D02*
X0372620Y0072918D01*
X0374722Y0075020D02*
X0375422Y0075720D01*
X0375422Y0076421D01*
X0374722Y0077121D01*
X0372620Y0077121D01*
X0377224Y0076421D02*
X0377224Y0073618D01*
X0377925Y0072918D01*
X0379326Y0072918D01*
X0380026Y0073618D01*
X0380026Y0076421D01*
X0379326Y0077121D01*
X0377925Y0077121D01*
X0377224Y0076421D01*
X0381828Y0077121D02*
X0384630Y0072918D01*
X0381828Y0072918D02*
X0384630Y0077121D01*
X0391036Y0075020D02*
X0392437Y0075020D01*
X0391736Y0076421D02*
X0391736Y0072918D01*
X0394105Y0073618D02*
X0394806Y0072918D01*
X0396207Y0072918D01*
X0396907Y0073618D01*
X0396907Y0075020D01*
X0396207Y0075720D01*
X0394806Y0075720D01*
X0394105Y0075020D01*
X0394105Y0073618D01*
X0391736Y0076421D02*
X0392437Y0077121D01*
X0398709Y0075720D02*
X0398709Y0072918D01*
X0398709Y0074319D02*
X0400110Y0075720D01*
X0400811Y0075720D01*
X0407149Y0076421D02*
X0407149Y0073618D01*
X0407850Y0072918D01*
X0409251Y0072918D01*
X0409952Y0073618D01*
X0409952Y0076421D01*
X0409251Y0077121D01*
X0407850Y0077121D01*
X0407149Y0076421D01*
X0408551Y0074319D02*
X0409952Y0072918D01*
X0411753Y0072918D02*
X0413155Y0072918D01*
X0412454Y0072918D02*
X0412454Y0075720D01*
X0411753Y0075720D01*
X0412454Y0077121D02*
X0412454Y0077822D01*
X0415523Y0075720D02*
X0416924Y0075720D01*
X0417625Y0075020D01*
X0417625Y0072918D01*
X0415523Y0072918D01*
X0414823Y0073618D01*
X0415523Y0074319D01*
X0417625Y0074319D01*
X0419427Y0073618D02*
X0420127Y0072918D01*
X0422229Y0072918D01*
X0424031Y0072918D02*
X0424031Y0077121D01*
X0424731Y0075720D02*
X0426132Y0075720D01*
X0426833Y0075020D01*
X0426833Y0072918D01*
X0428634Y0072918D02*
X0430036Y0072918D01*
X0429335Y0072918D02*
X0429335Y0075720D01*
X0428634Y0075720D01*
X0429335Y0077121D02*
X0429335Y0077822D01*
X0431704Y0075720D02*
X0433806Y0075720D01*
X0434506Y0075020D01*
X0434506Y0073618D01*
X0433806Y0072918D01*
X0431704Y0072918D01*
X0431704Y0071517D02*
X0431704Y0075720D01*
X0424731Y0075720D02*
X0424031Y0075020D01*
X0422229Y0075720D02*
X0420127Y0075720D01*
X0419427Y0075020D01*
X0419427Y0073618D01*
X0403046Y0067520D02*
X0403046Y0065418D01*
X0400944Y0065418D01*
X0400244Y0066118D01*
X0400944Y0066819D01*
X0403046Y0066819D01*
X0403046Y0067520D02*
X0402345Y0068220D01*
X0400944Y0068220D01*
X0398442Y0065418D02*
X0395640Y0065418D01*
X0397041Y0065418D02*
X0397041Y0069621D01*
X0395640Y0068220D01*
X0393838Y0068220D02*
X0392437Y0065418D01*
X0391036Y0068220D01*
X0389234Y0067520D02*
X0389234Y0066819D01*
X0386432Y0066819D01*
X0386432Y0066118D02*
X0386432Y0067520D01*
X0387132Y0068220D01*
X0388534Y0068220D01*
X0389234Y0067520D01*
X0388534Y0065418D02*
X0387132Y0065418D01*
X0386432Y0066118D01*
X0384630Y0065418D02*
X0383229Y0066819D01*
X0383930Y0066819D02*
X0381828Y0066819D01*
X0381828Y0065418D02*
X0381828Y0069621D01*
X0383930Y0069621D01*
X0384630Y0068921D01*
X0384630Y0067520D01*
X0383930Y0066819D01*
X0380994Y0062822D02*
X0380994Y0062121D01*
X0380994Y0060720D02*
X0380994Y0057918D01*
X0381694Y0057918D02*
X0380293Y0057918D01*
X0380293Y0060720D02*
X0380994Y0060720D01*
X0383363Y0060720D02*
X0383363Y0057918D01*
X0386165Y0057918D02*
X0386165Y0060020D01*
X0385464Y0060720D01*
X0383363Y0060720D01*
X0387966Y0060720D02*
X0390068Y0060720D01*
X0390769Y0060020D01*
X0390769Y0058618D01*
X0390068Y0057918D01*
X0387966Y0057918D01*
X0387966Y0056517D02*
X0387966Y0060720D01*
X0392570Y0060720D02*
X0392570Y0058618D01*
X0393271Y0057918D01*
X0395373Y0057918D01*
X0395373Y0060720D01*
X0397174Y0060720D02*
X0398575Y0060720D01*
X0397875Y0061421D02*
X0397875Y0058618D01*
X0398575Y0057918D01*
X0400244Y0057918D02*
X0402345Y0057918D01*
X0403046Y0058618D01*
X0402345Y0059319D01*
X0400944Y0059319D01*
X0400244Y0060020D01*
X0400944Y0060720D01*
X0403046Y0060720D01*
X0404847Y0060720D02*
X0404847Y0060020D01*
X0405548Y0060020D01*
X0405548Y0060720D01*
X0404847Y0060720D01*
X0404847Y0058618D02*
X0404847Y0057918D01*
X0405548Y0057918D01*
X0405548Y0058618D01*
X0404847Y0058618D01*
X0405481Y0053921D02*
X0405481Y0051118D01*
X0404080Y0052520D02*
X0406883Y0052520D01*
X0408684Y0052520D02*
X0408684Y0054621D01*
X0411486Y0054621D01*
X0410786Y0053220D02*
X0411486Y0052520D01*
X0411486Y0051118D01*
X0410786Y0050418D01*
X0409385Y0050418D01*
X0408684Y0051118D01*
X0408684Y0052520D02*
X0410085Y0053220D01*
X0410786Y0053220D01*
X0413288Y0051819D02*
X0414689Y0050418D01*
X0416090Y0051819D01*
X0416090Y0054621D01*
X0413288Y0054621D02*
X0413288Y0051819D01*
X0414556Y0057918D02*
X0414556Y0060720D01*
X0413155Y0062121D01*
X0411753Y0060720D01*
X0411753Y0057918D01*
X0411753Y0060020D02*
X0414556Y0060020D01*
X0416357Y0061421D02*
X0416357Y0058618D01*
X0417058Y0057918D01*
X0418459Y0057918D01*
X0419160Y0058618D01*
X0419160Y0061421D02*
X0418459Y0062121D01*
X0417058Y0062121D01*
X0416357Y0061421D01*
X0420961Y0062121D02*
X0423764Y0062121D01*
X0422362Y0062121D02*
X0422362Y0057918D01*
X0425565Y0057918D02*
X0426966Y0057918D01*
X0426266Y0057918D02*
X0426266Y0062121D01*
X0426966Y0062121D02*
X0425565Y0062121D01*
X0428634Y0062121D02*
X0428634Y0059319D01*
X0430036Y0057918D01*
X0431437Y0059319D01*
X0431437Y0062121D01*
X0433238Y0062121D02*
X0433238Y0057918D01*
X0436041Y0057918D01*
X0434640Y0060020D02*
X0433238Y0060020D01*
X0433238Y0062121D02*
X0436041Y0062121D01*
X0442446Y0062121D02*
X0442446Y0057918D01*
X0445249Y0057918D01*
X0447050Y0058618D02*
X0447751Y0057918D01*
X0449152Y0057918D01*
X0449853Y0058618D01*
X0449853Y0061421D01*
X0449152Y0062121D01*
X0447751Y0062121D01*
X0447050Y0061421D01*
X0447050Y0058618D01*
X0451654Y0057918D02*
X0453055Y0059319D01*
X0454456Y0057918D01*
X0454456Y0062121D01*
X0451654Y0062121D02*
X0451654Y0057918D01*
X0451521Y0072918D02*
X0451521Y0077121D01*
X0450119Y0075720D01*
X0448318Y0077121D02*
X0445515Y0072918D01*
X0448318Y0072918D02*
X0445515Y0077121D01*
X0443714Y0077121D02*
X0440912Y0077121D01*
X0442313Y0077121D02*
X0442313Y0072918D01*
X0450119Y0072918D02*
X0452922Y0072918D01*
X0454723Y0072918D02*
X0457526Y0072918D01*
X0456125Y0072918D02*
X0456125Y0077121D01*
X0454723Y0075720D01*
X0459327Y0075720D02*
X0460028Y0075020D01*
X0461429Y0075020D01*
X0462130Y0074319D01*
X0462130Y0073618D01*
X0461429Y0072918D01*
X0460028Y0072918D01*
X0459327Y0073618D01*
X0459327Y0074319D01*
X0460028Y0075020D01*
X0459327Y0075720D02*
X0459327Y0076421D01*
X0460028Y0077121D01*
X0461429Y0077121D01*
X0462130Y0076421D01*
X0462130Y0075720D01*
X0461429Y0075020D01*
X0463931Y0075720D02*
X0464632Y0075020D01*
X0466033Y0075020D01*
X0466734Y0074319D01*
X0466734Y0073618D01*
X0466033Y0072918D01*
X0464632Y0072918D01*
X0463931Y0073618D01*
X0463931Y0075720D02*
X0463931Y0076421D01*
X0464632Y0077121D01*
X0466033Y0077121D01*
X0466734Y0076421D01*
X0468535Y0075720D02*
X0469936Y0077121D01*
X0471337Y0075720D01*
X0471337Y0072918D01*
X0471337Y0075020D02*
X0468535Y0075020D01*
X0468535Y0075720D02*
X0468535Y0072918D01*
X0473139Y0075020D02*
X0475941Y0075020D01*
X0477743Y0075020D02*
X0479845Y0077121D01*
X0479845Y0072918D01*
X0480545Y0075020D02*
X0477743Y0075020D01*
X0397875Y0053220D02*
X0397875Y0052520D01*
X0397174Y0052520D01*
X0397174Y0053220D01*
X0397875Y0053220D01*
X0397875Y0051118D02*
X0397875Y0050418D01*
X0397174Y0050418D01*
X0397174Y0051118D01*
X0397875Y0051118D01*
X0395373Y0051819D02*
X0392570Y0051819D01*
X0392570Y0052520D02*
X0393271Y0053220D01*
X0394672Y0053220D01*
X0395373Y0052520D01*
X0395373Y0051819D01*
X0394672Y0050418D02*
X0393271Y0050418D01*
X0392570Y0051118D01*
X0392570Y0052520D01*
X0390769Y0053220D02*
X0388667Y0053220D01*
X0387966Y0052520D01*
X0387966Y0051118D01*
X0388667Y0050418D01*
X0390769Y0050418D01*
X0390769Y0049717D02*
X0390769Y0053220D01*
X0390769Y0049717D02*
X0390068Y0049017D01*
X0389368Y0049017D01*
X0386165Y0050418D02*
X0386165Y0052520D01*
X0385464Y0053220D01*
X0384063Y0053220D01*
X0384063Y0051819D02*
X0386165Y0051819D01*
X0386165Y0050418D02*
X0384063Y0050418D01*
X0383363Y0051118D01*
X0384063Y0051819D01*
X0381694Y0050418D02*
X0380994Y0051118D01*
X0380994Y0053921D01*
X0381694Y0053220D02*
X0380293Y0053220D01*
X0377925Y0054621D02*
X0377925Y0050418D01*
X0378625Y0050418D02*
X0377224Y0050418D01*
X0375422Y0051118D02*
X0375422Y0052520D01*
X0374722Y0053220D01*
X0373321Y0053220D01*
X0372620Y0052520D01*
X0372620Y0051118D01*
X0373321Y0050418D01*
X0374722Y0050418D01*
X0375422Y0051118D01*
X0377224Y0054621D02*
X0377925Y0054621D01*
X0370818Y0054621D02*
X0370818Y0051819D01*
X0369417Y0050418D01*
X0368016Y0051819D01*
X0368016Y0054621D01*
X0361611Y0053220D02*
X0361611Y0049717D01*
X0360910Y0049017D01*
X0360209Y0049017D01*
X0359509Y0050418D02*
X0361611Y0050418D01*
X0359509Y0050418D02*
X0358808Y0051118D01*
X0358808Y0053220D01*
X0356440Y0054621D02*
X0356440Y0050418D01*
X0357140Y0050418D02*
X0355739Y0050418D01*
X0353937Y0051118D02*
X0353237Y0050418D01*
X0351135Y0050418D01*
X0351135Y0049017D02*
X0351135Y0053220D01*
X0353237Y0053220D01*
X0353937Y0052520D01*
X0353937Y0051118D01*
X0355739Y0054621D02*
X0356440Y0054621D01*
X0351135Y0057918D02*
X0351135Y0060720D01*
X0351135Y0059319D02*
X0352536Y0060720D01*
X0353237Y0060720D01*
X0349334Y0062121D02*
X0346531Y0062121D01*
X0347932Y0062121D02*
X0347932Y0057918D01*
X0340126Y0060020D02*
X0337323Y0060020D01*
X0339425Y0062121D01*
X0339425Y0057918D01*
X0339425Y0054621D02*
X0338024Y0054621D01*
X0337323Y0053921D01*
X0337323Y0053220D01*
X0338024Y0052520D01*
X0339425Y0052520D01*
X0340126Y0051819D01*
X0340126Y0051118D01*
X0339425Y0050418D01*
X0338024Y0050418D01*
X0337323Y0051118D01*
X0340126Y0053921D02*
X0339425Y0054621D01*
X0341927Y0053220D02*
X0341927Y0051118D01*
X0342628Y0050418D01*
X0344730Y0050418D01*
X0344730Y0053220D01*
X0346531Y0053220D02*
X0346531Y0049017D01*
X0346531Y0050418D02*
X0348633Y0050418D01*
X0349334Y0051118D01*
X0349334Y0052520D01*
X0348633Y0053220D01*
X0346531Y0053220D01*
X0346531Y0065418D02*
X0349334Y0065418D01*
X0346531Y0065418D02*
X0346531Y0069621D01*
X0344730Y0068220D02*
X0343328Y0065418D01*
X0341927Y0068220D01*
X0340126Y0068220D02*
X0340126Y0065418D01*
X0340126Y0067520D02*
X0337323Y0067520D01*
X0337323Y0068220D02*
X0338724Y0069621D01*
X0340126Y0068220D01*
X0337323Y0068220D02*
X0337323Y0065418D01*
X0445724Y0128418D02*
X0445724Y0132621D01*
X0444323Y0132621D02*
X0447126Y0132621D01*
X0448927Y0132621D02*
X0451029Y0132621D01*
X0451730Y0131921D01*
X0451730Y0130520D01*
X0451029Y0129819D01*
X0448927Y0129819D01*
X0448927Y0128418D02*
X0448927Y0132621D01*
X0450328Y0129819D02*
X0451730Y0128418D01*
X0453531Y0128418D02*
X0454932Y0128418D01*
X0454232Y0128418D02*
X0454232Y0132621D01*
X0454932Y0132621D02*
X0453531Y0132621D01*
X0456600Y0131921D02*
X0456600Y0129118D01*
X0457301Y0128418D01*
X0458702Y0128418D01*
X0459403Y0129118D01*
X0459403Y0130520D01*
X0458002Y0130520D01*
X0459403Y0131921D02*
X0458702Y0132621D01*
X0457301Y0132621D01*
X0456600Y0131921D01*
X0461204Y0130520D02*
X0464007Y0130520D01*
X0463306Y0132621D02*
X0463306Y0128418D01*
X0461204Y0130520D02*
X0463306Y0132621D01*
X0062007Y0135418D02*
X0059204Y0135418D01*
X0060606Y0135418D02*
X0060606Y0139621D01*
X0059204Y0138220D01*
X0057403Y0137520D02*
X0056002Y0137520D01*
X0057403Y0137520D02*
X0057403Y0136118D01*
X0056702Y0135418D01*
X0055301Y0135418D01*
X0054600Y0136118D01*
X0054600Y0138921D01*
X0055301Y0139621D01*
X0056702Y0139621D01*
X0057403Y0138921D01*
X0052932Y0139621D02*
X0051531Y0139621D01*
X0052232Y0139621D02*
X0052232Y0135418D01*
X0052932Y0135418D02*
X0051531Y0135418D01*
X0049730Y0135418D02*
X0048328Y0136819D01*
X0049029Y0136819D02*
X0046927Y0136819D01*
X0046927Y0135418D02*
X0046927Y0139621D01*
X0049029Y0139621D01*
X0049730Y0138921D01*
X0049730Y0137520D01*
X0049029Y0136819D01*
X0045126Y0139621D02*
X0042323Y0139621D01*
X0043724Y0139621D02*
X0043724Y0135418D01*
D11*
X0051923Y0141396D02*
X0080978Y0141396D01*
X0080978Y0192577D01*
X0077179Y0192577D01*
X0077179Y0224073D01*
X0073104Y0224073D01*
X0073104Y0279191D01*
X0030742Y0279191D01*
X0030742Y0224073D01*
X0073104Y0224073D01*
X0101293Y0207813D02*
X0105230Y0207813D01*
X0105230Y0233010D01*
X0117041Y0233010D01*
X0117041Y0207813D01*
X0120978Y0207813D01*
X0120978Y0189703D01*
X0127671Y0189703D01*
X0127671Y0157419D01*
X0094600Y0157419D01*
X0094600Y0189703D01*
X0101293Y0189703D01*
X0101293Y0207813D01*
X0105230Y0207813D02*
X0117041Y0207813D01*
X0134387Y0192270D02*
X0134387Y0189568D01*
X0136189Y0189568D01*
X0137334Y0189568D02*
X0139135Y0189568D01*
X0140280Y0189568D02*
X0141631Y0189568D01*
X0142082Y0190018D01*
X0142082Y0191820D01*
X0141631Y0192270D01*
X0140280Y0192270D01*
X0140280Y0189568D01*
X0138234Y0190919D02*
X0137334Y0190919D01*
X0137334Y0192270D02*
X0137334Y0189568D01*
X0137334Y0192270D02*
X0139135Y0192270D01*
X0143227Y0191820D02*
X0143677Y0192270D01*
X0144578Y0192270D01*
X0145028Y0191820D01*
X0145028Y0191369D01*
X0143227Y0189568D01*
X0145028Y0189568D01*
X0158971Y0186615D02*
X0161673Y0186615D01*
X0161673Y0185714D02*
X0161673Y0187516D01*
X0159872Y0185714D02*
X0158971Y0186615D01*
X0158971Y0184569D02*
X0158971Y0182768D01*
X0158971Y0183669D02*
X0161673Y0183669D01*
X0162868Y0192577D02*
X0166667Y0192577D01*
X0166667Y0224073D01*
X0170742Y0224073D01*
X0170742Y0279191D01*
X0213104Y0279191D01*
X0213104Y0224073D01*
X0217179Y0224073D01*
X0217179Y0192577D01*
X0220978Y0192577D01*
X0220978Y0141396D01*
X0191923Y0141396D01*
X0162868Y0141396D01*
X0162868Y0192577D01*
X0166667Y0192577D02*
X0217179Y0192577D01*
X0225971Y0190565D02*
X0226421Y0191016D01*
X0226872Y0191016D01*
X0227322Y0190565D01*
X0227773Y0191016D01*
X0228223Y0191016D01*
X0228673Y0190565D01*
X0228673Y0189665D01*
X0228223Y0189214D01*
X0228223Y0188069D02*
X0228673Y0187619D01*
X0228673Y0186718D01*
X0228223Y0186268D01*
X0227322Y0186718D02*
X0227322Y0187619D01*
X0227773Y0188069D01*
X0228223Y0188069D01*
X0227322Y0186718D02*
X0226872Y0186268D01*
X0226421Y0186268D01*
X0225971Y0186718D01*
X0225971Y0187619D01*
X0226421Y0188069D01*
X0226421Y0189214D02*
X0225971Y0189665D01*
X0225971Y0190565D01*
X0227322Y0190565D02*
X0227322Y0190115D01*
X0234600Y0189703D02*
X0241293Y0189703D01*
X0241293Y0207813D01*
X0245230Y0207813D01*
X0245230Y0233010D01*
X0257041Y0233010D01*
X0257041Y0207813D01*
X0260978Y0207813D01*
X0260978Y0189703D01*
X0267671Y0189703D01*
X0267671Y0157419D01*
X0234600Y0157419D01*
X0234600Y0189703D01*
X0241293Y0189703D02*
X0260978Y0189703D01*
X0265387Y0193568D02*
X0267189Y0193568D01*
X0268334Y0193568D02*
X0270135Y0193568D01*
X0271280Y0193568D02*
X0272631Y0193568D01*
X0273082Y0194018D01*
X0273082Y0195820D01*
X0272631Y0196270D01*
X0271280Y0196270D01*
X0271280Y0193568D01*
X0269234Y0194919D02*
X0268334Y0194919D01*
X0268334Y0196270D02*
X0268334Y0193568D01*
X0268334Y0196270D02*
X0270135Y0196270D01*
X0274227Y0195820D02*
X0274677Y0196270D01*
X0275578Y0196270D01*
X0276028Y0195820D01*
X0276028Y0195369D01*
X0275578Y0194919D01*
X0276028Y0194469D01*
X0276028Y0194018D01*
X0275578Y0193568D01*
X0274677Y0193568D01*
X0274227Y0194018D01*
X0275128Y0194919D02*
X0275578Y0194919D01*
X0265387Y0196270D02*
X0265387Y0193568D01*
X0257041Y0207813D02*
X0245230Y0207813D01*
X0213104Y0224073D02*
X0170742Y0224073D01*
X0120978Y0189703D02*
X0101293Y0189703D01*
X0088673Y0189214D02*
X0086872Y0191016D01*
X0086421Y0191016D01*
X0085971Y0190565D01*
X0085971Y0189665D01*
X0086421Y0189214D01*
X0086421Y0188069D02*
X0085971Y0187619D01*
X0085971Y0186718D01*
X0086421Y0186268D01*
X0086872Y0186268D01*
X0087322Y0186718D01*
X0087322Y0187619D01*
X0087773Y0188069D01*
X0088223Y0188069D01*
X0088673Y0187619D01*
X0088673Y0186718D01*
X0088223Y0186268D01*
X0088673Y0189214D02*
X0088673Y0191016D01*
X0077179Y0192577D02*
X0026667Y0192577D01*
X0026667Y0224073D01*
X0030742Y0224073D01*
X0026667Y0192577D02*
X0022868Y0192577D01*
X0022868Y0141396D01*
X0051923Y0141396D01*
X0028921Y0139520D02*
X0028471Y0139970D01*
X0027570Y0139970D01*
X0027120Y0139520D01*
X0025975Y0139970D02*
X0024173Y0137268D01*
X0025975Y0137268D02*
X0024173Y0139970D01*
X0027120Y0137268D02*
X0028921Y0139069D01*
X0028921Y0139520D01*
X0028921Y0137268D02*
X0027120Y0137268D01*
X0066280Y0124770D02*
X0066280Y0122068D01*
X0066280Y0122969D02*
X0067631Y0122969D01*
X0068082Y0123419D01*
X0068082Y0124320D01*
X0067631Y0124770D01*
X0066280Y0124770D01*
X0067181Y0122969D02*
X0068082Y0122068D01*
X0069227Y0123419D02*
X0071028Y0123419D01*
X0070578Y0124770D02*
X0069227Y0123419D01*
X0070578Y0122068D02*
X0070578Y0124770D01*
X0096280Y0124770D02*
X0096280Y0122068D01*
X0096280Y0122969D02*
X0097631Y0122969D01*
X0098082Y0123419D01*
X0098082Y0124320D01*
X0097631Y0124770D01*
X0096280Y0124770D01*
X0097181Y0122969D02*
X0098082Y0122068D01*
X0099227Y0122518D02*
X0099677Y0122068D01*
X0100578Y0122068D01*
X0101028Y0122518D01*
X0101028Y0122969D01*
X0100578Y0123419D01*
X0100128Y0123419D01*
X0100578Y0123419D02*
X0101028Y0123869D01*
X0101028Y0124320D01*
X0100578Y0124770D01*
X0099677Y0124770D01*
X0099227Y0124320D01*
X0121280Y0132518D02*
X0121731Y0132068D01*
X0122631Y0132068D01*
X0123082Y0132518D01*
X0124227Y0132518D02*
X0124677Y0132068D01*
X0125578Y0132068D01*
X0126028Y0132518D01*
X0126028Y0133419D01*
X0125578Y0133869D01*
X0125128Y0133869D01*
X0124227Y0133419D01*
X0124227Y0134770D01*
X0126028Y0134770D01*
X0123082Y0134320D02*
X0122631Y0134770D01*
X0121731Y0134770D01*
X0121280Y0134320D01*
X0121280Y0132518D01*
X0104868Y0145268D02*
X0103066Y0145268D01*
X0103967Y0145268D02*
X0103967Y0147970D01*
X0103066Y0147069D01*
X0101921Y0145268D02*
X0100120Y0145268D01*
X0101021Y0145268D02*
X0101021Y0147970D01*
X0100120Y0147069D01*
X0098975Y0146619D02*
X0098524Y0146169D01*
X0097173Y0146169D01*
X0098074Y0146169D02*
X0098975Y0145268D01*
X0098975Y0146619D02*
X0098975Y0147520D01*
X0098524Y0147970D01*
X0097173Y0147970D01*
X0097173Y0145268D01*
X0128971Y0165268D02*
X0128971Y0166619D01*
X0129421Y0167069D01*
X0130322Y0167069D01*
X0130773Y0166619D01*
X0130773Y0165268D01*
X0131673Y0165268D02*
X0128971Y0165268D01*
X0130773Y0166169D02*
X0131673Y0167069D01*
X0131673Y0168214D02*
X0131673Y0170016D01*
X0131673Y0169115D02*
X0128971Y0169115D01*
X0129872Y0168214D01*
X0130322Y0171161D02*
X0130322Y0172512D01*
X0130773Y0172962D01*
X0131223Y0172962D01*
X0131673Y0172512D01*
X0131673Y0171611D01*
X0131223Y0171161D01*
X0130322Y0171161D01*
X0129421Y0172062D01*
X0128971Y0172962D01*
X0151971Y0166962D02*
X0151971Y0165161D01*
X0153322Y0165161D01*
X0152872Y0166062D01*
X0152872Y0166512D01*
X0153322Y0166962D01*
X0154223Y0166962D01*
X0154673Y0166512D01*
X0154673Y0165611D01*
X0154223Y0165161D01*
X0154673Y0164016D02*
X0154673Y0162214D01*
X0154673Y0163115D02*
X0151971Y0163115D01*
X0152872Y0162214D01*
X0153322Y0161069D02*
X0153773Y0160619D01*
X0153773Y0159268D01*
X0154673Y0159268D02*
X0151971Y0159268D01*
X0151971Y0160619D01*
X0152421Y0161069D01*
X0153322Y0161069D01*
X0153773Y0160169D02*
X0154673Y0161069D01*
X0164173Y0139970D02*
X0165975Y0137268D01*
X0167120Y0137718D02*
X0167570Y0137268D01*
X0168471Y0137268D01*
X0168921Y0137718D01*
X0168921Y0138169D01*
X0168471Y0138619D01*
X0168021Y0138619D01*
X0168471Y0138619D02*
X0168921Y0139069D01*
X0168921Y0139520D01*
X0168471Y0139970D01*
X0167570Y0139970D01*
X0167120Y0139520D01*
X0165975Y0139970D02*
X0164173Y0137268D01*
X0203334Y0124770D02*
X0203334Y0122068D01*
X0203334Y0122969D02*
X0204685Y0122969D01*
X0205135Y0123419D01*
X0205135Y0124320D01*
X0204685Y0124770D01*
X0203334Y0124770D01*
X0204234Y0122969D02*
X0205135Y0122068D01*
X0206280Y0122068D02*
X0208082Y0122068D01*
X0207181Y0122068D02*
X0207181Y0124770D01*
X0206280Y0123869D01*
X0209227Y0124320D02*
X0209227Y0122518D01*
X0211028Y0124320D01*
X0211028Y0122518D01*
X0210578Y0122068D01*
X0209677Y0122068D01*
X0209227Y0122518D01*
X0209227Y0124320D02*
X0209677Y0124770D01*
X0210578Y0124770D01*
X0211028Y0124320D01*
X0236280Y0124770D02*
X0236280Y0122068D01*
X0236280Y0122969D02*
X0237631Y0122969D01*
X0238082Y0123419D01*
X0238082Y0124320D01*
X0237631Y0124770D01*
X0236280Y0124770D01*
X0237181Y0122969D02*
X0238082Y0122068D01*
X0239227Y0122518D02*
X0239227Y0122969D01*
X0239677Y0123419D01*
X0240578Y0123419D01*
X0241028Y0122969D01*
X0241028Y0122518D01*
X0240578Y0122068D01*
X0239677Y0122068D01*
X0239227Y0122518D01*
X0239677Y0123419D02*
X0239227Y0123869D01*
X0239227Y0124320D01*
X0239677Y0124770D01*
X0240578Y0124770D01*
X0241028Y0124320D01*
X0241028Y0123869D01*
X0240578Y0123419D01*
X0268673Y0142218D02*
X0269124Y0141768D01*
X0270024Y0141768D01*
X0270475Y0142218D01*
X0271620Y0142218D02*
X0271620Y0141768D01*
X0271620Y0142218D02*
X0273421Y0144020D01*
X0273421Y0144470D01*
X0271620Y0144470D01*
X0270475Y0144020D02*
X0270024Y0144470D01*
X0269124Y0144470D01*
X0268673Y0144020D01*
X0268673Y0142218D01*
X0244868Y0145268D02*
X0243066Y0145268D01*
X0244868Y0147069D01*
X0244868Y0147520D01*
X0244417Y0147970D01*
X0243517Y0147970D01*
X0243066Y0147520D01*
X0241021Y0147970D02*
X0241021Y0145268D01*
X0241921Y0145268D02*
X0240120Y0145268D01*
X0238975Y0145268D02*
X0238074Y0146169D01*
X0238524Y0146169D02*
X0237173Y0146169D01*
X0237173Y0145268D02*
X0237173Y0147970D01*
X0238524Y0147970D01*
X0238975Y0147520D01*
X0238975Y0146619D01*
X0238524Y0146169D01*
X0240120Y0147069D02*
X0241021Y0147970D01*
X0268971Y0165268D02*
X0268971Y0166619D01*
X0269421Y0167069D01*
X0270322Y0167069D01*
X0270773Y0166619D01*
X0270773Y0165268D01*
X0271673Y0165268D02*
X0268971Y0165268D01*
X0270773Y0166169D02*
X0271673Y0167069D01*
X0271673Y0168214D02*
X0271673Y0170016D01*
X0271673Y0169115D02*
X0268971Y0169115D01*
X0269872Y0168214D01*
X0269872Y0171161D02*
X0269421Y0171161D01*
X0268971Y0171611D01*
X0268971Y0172512D01*
X0269421Y0172962D01*
X0269872Y0172962D01*
X0270322Y0172512D01*
X0270322Y0171611D01*
X0269872Y0171161D01*
X0270322Y0171611D02*
X0270773Y0171161D01*
X0271223Y0171161D01*
X0271673Y0171611D01*
X0271673Y0172512D01*
X0271223Y0172962D01*
X0270773Y0172962D01*
X0270322Y0172512D01*
X0293971Y0157962D02*
X0294421Y0157962D01*
X0296223Y0156161D01*
X0296673Y0156161D01*
X0296673Y0155016D02*
X0296673Y0153214D01*
X0296673Y0154115D02*
X0293971Y0154115D01*
X0294872Y0153214D01*
X0295322Y0152069D02*
X0295773Y0151619D01*
X0295773Y0150268D01*
X0296673Y0150268D02*
X0293971Y0150268D01*
X0293971Y0151619D01*
X0294421Y0152069D01*
X0295322Y0152069D01*
X0295773Y0151169D02*
X0296673Y0152069D01*
X0293971Y0156161D02*
X0293971Y0157962D01*
X0302868Y0141396D02*
X0302868Y0192577D01*
X0306667Y0192577D01*
X0306667Y0224073D01*
X0310742Y0224073D01*
X0310742Y0279191D01*
X0353104Y0279191D01*
X0353104Y0224073D01*
X0357179Y0224073D01*
X0357179Y0192577D01*
X0360978Y0192577D01*
X0360978Y0141396D01*
X0331923Y0141396D01*
X0302868Y0141396D01*
X0304173Y0138970D02*
X0305975Y0136268D01*
X0307120Y0137619D02*
X0308921Y0137619D01*
X0308471Y0138970D02*
X0307120Y0137619D01*
X0305975Y0138970D02*
X0304173Y0136268D01*
X0308471Y0136268D02*
X0308471Y0138970D01*
X0346280Y0124770D02*
X0346280Y0122068D01*
X0346280Y0122969D02*
X0347631Y0122969D01*
X0348082Y0123419D01*
X0348082Y0124320D01*
X0347631Y0124770D01*
X0346280Y0124770D01*
X0347181Y0122969D02*
X0348082Y0122068D01*
X0349227Y0122518D02*
X0349677Y0122068D01*
X0350578Y0122068D01*
X0351028Y0122518D01*
X0351028Y0124320D01*
X0350578Y0124770D01*
X0349677Y0124770D01*
X0349227Y0124320D01*
X0349227Y0123869D01*
X0349677Y0123419D01*
X0351028Y0123419D01*
X0376280Y0122969D02*
X0377631Y0122969D01*
X0378082Y0123419D01*
X0378082Y0124320D01*
X0377631Y0124770D01*
X0376280Y0124770D01*
X0376280Y0122068D01*
X0377181Y0122969D02*
X0378082Y0122068D01*
X0379227Y0122068D02*
X0379227Y0122518D01*
X0381028Y0124320D01*
X0381028Y0124770D01*
X0379227Y0124770D01*
X0401280Y0132518D02*
X0401731Y0132068D01*
X0402631Y0132068D01*
X0403082Y0132518D01*
X0404227Y0132518D02*
X0404227Y0132969D01*
X0404677Y0133419D01*
X0405578Y0133419D01*
X0406028Y0132969D01*
X0406028Y0132518D01*
X0405578Y0132068D01*
X0404677Y0132068D01*
X0404227Y0132518D01*
X0404677Y0133419D02*
X0404227Y0133869D01*
X0404227Y0134320D01*
X0404677Y0134770D01*
X0405578Y0134770D01*
X0406028Y0134320D01*
X0406028Y0133869D01*
X0405578Y0133419D01*
X0403082Y0134320D02*
X0402631Y0134770D01*
X0401731Y0134770D01*
X0401280Y0134320D01*
X0401280Y0132518D01*
X0384417Y0145268D02*
X0384417Y0147970D01*
X0383066Y0146619D01*
X0384868Y0146619D01*
X0381921Y0145268D02*
X0380120Y0145268D01*
X0381021Y0145268D02*
X0381021Y0147970D01*
X0380120Y0147069D01*
X0378975Y0146619D02*
X0378524Y0146169D01*
X0377173Y0146169D01*
X0378074Y0146169D02*
X0378975Y0145268D01*
X0378975Y0146619D02*
X0378975Y0147520D01*
X0378524Y0147970D01*
X0377173Y0147970D01*
X0377173Y0145268D01*
X0374600Y0157419D02*
X0374600Y0189703D01*
X0381293Y0189703D01*
X0381293Y0207813D01*
X0385230Y0207813D01*
X0385230Y0233010D01*
X0397041Y0233010D01*
X0397041Y0207813D01*
X0400978Y0207813D01*
X0400978Y0189703D01*
X0407671Y0189703D01*
X0407671Y0157419D01*
X0374600Y0157419D01*
X0408971Y0165268D02*
X0408971Y0166619D01*
X0409421Y0167069D01*
X0410322Y0167069D01*
X0410773Y0166619D01*
X0410773Y0165268D01*
X0411673Y0165268D02*
X0408971Y0165268D01*
X0410773Y0166169D02*
X0411673Y0167069D01*
X0411673Y0168214D02*
X0409872Y0170016D01*
X0409421Y0170016D01*
X0408971Y0169565D01*
X0408971Y0168665D01*
X0409421Y0168214D01*
X0411673Y0168214D02*
X0411673Y0170016D01*
X0411673Y0171161D02*
X0409872Y0172962D01*
X0409421Y0172962D01*
X0408971Y0172512D01*
X0408971Y0171611D01*
X0409421Y0171161D01*
X0411673Y0171161D02*
X0411673Y0172962D01*
X0431971Y0166062D02*
X0434673Y0166062D01*
X0434673Y0166962D02*
X0434673Y0165161D01*
X0434673Y0164016D02*
X0434673Y0162214D01*
X0432872Y0164016D01*
X0432421Y0164016D01*
X0431971Y0163565D01*
X0431971Y0162665D01*
X0432421Y0162214D01*
X0432421Y0161069D02*
X0433322Y0161069D01*
X0433773Y0160619D01*
X0433773Y0159268D01*
X0434673Y0159268D02*
X0431971Y0159268D01*
X0431971Y0160619D01*
X0432421Y0161069D01*
X0433773Y0160169D02*
X0434673Y0161069D01*
X0432872Y0165161D02*
X0431971Y0166062D01*
X0436574Y0189268D02*
X0436574Y0191970D01*
X0435673Y0191970D02*
X0437475Y0191970D01*
X0438620Y0190619D02*
X0440421Y0190619D01*
X0439971Y0189268D02*
X0439971Y0191970D01*
X0438620Y0190619D01*
X0442868Y0192577D02*
X0446667Y0192577D01*
X0446667Y0224073D01*
X0450742Y0224073D01*
X0450742Y0279191D01*
X0493104Y0279191D01*
X0493104Y0224073D01*
X0497179Y0224073D01*
X0497179Y0192577D01*
X0500978Y0192577D01*
X0500978Y0141396D01*
X0471923Y0141396D01*
X0442868Y0141396D01*
X0442868Y0192577D01*
X0446667Y0192577D02*
X0497179Y0192577D01*
X0505971Y0191016D02*
X0505971Y0189214D01*
X0507322Y0189214D01*
X0506872Y0190115D01*
X0506872Y0190565D01*
X0507322Y0191016D01*
X0508223Y0191016D01*
X0508673Y0190565D01*
X0508673Y0189665D01*
X0508223Y0189214D01*
X0508223Y0188069D02*
X0508673Y0187619D01*
X0508673Y0186718D01*
X0508223Y0186268D01*
X0507322Y0186718D02*
X0507322Y0187619D01*
X0507773Y0188069D01*
X0508223Y0188069D01*
X0507322Y0186718D02*
X0506872Y0186268D01*
X0506421Y0186268D01*
X0505971Y0186718D01*
X0505971Y0187619D01*
X0506421Y0188069D01*
X0514600Y0189703D02*
X0521293Y0189703D01*
X0521293Y0207813D01*
X0525230Y0207813D01*
X0525230Y0233010D01*
X0537041Y0233010D01*
X0537041Y0207813D01*
X0540978Y0207813D01*
X0540978Y0189703D01*
X0547671Y0189703D01*
X0547671Y0157419D01*
X0514600Y0157419D01*
X0514600Y0189703D01*
X0521293Y0189703D02*
X0540978Y0189703D01*
X0545387Y0193568D02*
X0547189Y0193568D01*
X0548334Y0193568D02*
X0550135Y0193568D01*
X0551280Y0193568D02*
X0552631Y0193568D01*
X0553082Y0194018D01*
X0553082Y0195820D01*
X0552631Y0196270D01*
X0551280Y0196270D01*
X0551280Y0193568D01*
X0549234Y0194919D02*
X0548334Y0194919D01*
X0548334Y0196270D02*
X0548334Y0193568D01*
X0548334Y0196270D02*
X0550135Y0196270D01*
X0554227Y0194919D02*
X0556028Y0194919D01*
X0555578Y0196270D02*
X0554227Y0194919D01*
X0555578Y0193568D02*
X0555578Y0196270D01*
X0545387Y0196270D02*
X0545387Y0193568D01*
X0537041Y0207813D02*
X0525230Y0207813D01*
X0493104Y0224073D02*
X0450742Y0224073D01*
X0397041Y0207813D02*
X0385230Y0207813D01*
X0405387Y0196270D02*
X0405387Y0193568D01*
X0407189Y0193568D01*
X0408334Y0193568D02*
X0410135Y0193568D01*
X0411280Y0193568D02*
X0412631Y0193568D01*
X0413082Y0194018D01*
X0413082Y0195820D01*
X0412631Y0196270D01*
X0411280Y0196270D01*
X0411280Y0193568D01*
X0409234Y0194919D02*
X0408334Y0194919D01*
X0408334Y0196270D02*
X0408334Y0193568D01*
X0408334Y0196270D02*
X0410135Y0196270D01*
X0414227Y0196270D02*
X0414227Y0194919D01*
X0415128Y0195369D01*
X0415578Y0195369D01*
X0416028Y0194919D01*
X0416028Y0194018D01*
X0415578Y0193568D01*
X0414677Y0193568D01*
X0414227Y0194018D01*
X0414227Y0196270D02*
X0416028Y0196270D01*
X0400978Y0189703D02*
X0381293Y0189703D01*
X0368673Y0190565D02*
X0365971Y0190565D01*
X0367322Y0189214D01*
X0367322Y0191016D01*
X0367773Y0188069D02*
X0368223Y0188069D01*
X0368673Y0187619D01*
X0368673Y0186718D01*
X0368223Y0186268D01*
X0367322Y0186718D02*
X0367322Y0187619D01*
X0367773Y0188069D01*
X0366421Y0188069D02*
X0365971Y0187619D01*
X0365971Y0186718D01*
X0366421Y0186268D01*
X0366872Y0186268D01*
X0367322Y0186718D01*
X0357179Y0192577D02*
X0306667Y0192577D01*
X0299421Y0192520D02*
X0298971Y0192970D01*
X0298070Y0192970D01*
X0297620Y0192520D01*
X0296475Y0192970D02*
X0294673Y0192970D01*
X0295574Y0192970D02*
X0295574Y0190268D01*
X0297620Y0190268D02*
X0299421Y0192069D01*
X0299421Y0192520D01*
X0299421Y0190268D02*
X0297620Y0190268D01*
X0310742Y0224073D02*
X0353104Y0224073D01*
X0517173Y0147970D02*
X0518524Y0147970D01*
X0518975Y0147520D01*
X0518975Y0146619D01*
X0518524Y0146169D01*
X0517173Y0146169D01*
X0518074Y0146169D02*
X0518975Y0145268D01*
X0520120Y0145268D02*
X0521921Y0145268D01*
X0521021Y0145268D02*
X0521021Y0147970D01*
X0520120Y0147069D01*
X0523066Y0147520D02*
X0523517Y0147970D01*
X0524417Y0147970D01*
X0524868Y0147520D01*
X0524868Y0147069D01*
X0524417Y0146619D01*
X0524868Y0146169D01*
X0524868Y0145718D01*
X0524417Y0145268D01*
X0523517Y0145268D01*
X0523066Y0145718D01*
X0523967Y0146619D02*
X0524417Y0146619D01*
X0517173Y0145268D02*
X0517173Y0147970D01*
X0541280Y0134320D02*
X0541731Y0134770D01*
X0542631Y0134770D01*
X0543082Y0134320D01*
X0544227Y0133419D02*
X0545578Y0133419D01*
X0546028Y0132969D01*
X0546028Y0132518D01*
X0545578Y0132068D01*
X0544677Y0132068D01*
X0544227Y0132518D01*
X0544227Y0133419D01*
X0545128Y0134320D01*
X0546028Y0134770D01*
X0543082Y0132518D02*
X0542631Y0132068D01*
X0541731Y0132068D01*
X0541280Y0132518D01*
X0541280Y0134320D01*
X0521028Y0124770D02*
X0519227Y0124770D01*
X0519227Y0123419D01*
X0520128Y0123869D01*
X0520578Y0123869D01*
X0521028Y0123419D01*
X0521028Y0122518D01*
X0520578Y0122068D01*
X0519677Y0122068D01*
X0519227Y0122518D01*
X0518082Y0122068D02*
X0517181Y0122969D01*
X0517631Y0122969D02*
X0516280Y0122969D01*
X0516280Y0122068D02*
X0516280Y0124770D01*
X0517631Y0124770D01*
X0518082Y0124320D01*
X0518082Y0123419D01*
X0517631Y0122969D01*
X0491028Y0122969D02*
X0490578Y0123419D01*
X0489227Y0123419D01*
X0489227Y0122518D01*
X0489677Y0122068D01*
X0490578Y0122068D01*
X0491028Y0122518D01*
X0491028Y0122969D01*
X0490128Y0124320D02*
X0489227Y0123419D01*
X0488082Y0123419D02*
X0487631Y0122969D01*
X0486280Y0122969D01*
X0487181Y0122969D02*
X0488082Y0122068D01*
X0488082Y0123419D02*
X0488082Y0124320D01*
X0487631Y0124770D01*
X0486280Y0124770D01*
X0486280Y0122068D01*
X0490128Y0124320D02*
X0491028Y0124770D01*
X0448921Y0136718D02*
X0448471Y0136268D01*
X0447570Y0136268D01*
X0447120Y0136718D01*
X0447120Y0137619D02*
X0448021Y0138069D01*
X0448471Y0138069D01*
X0448921Y0137619D01*
X0448921Y0136718D01*
X0447120Y0137619D02*
X0447120Y0138970D01*
X0448921Y0138970D01*
X0445975Y0138970D02*
X0444173Y0136268D01*
X0445975Y0136268D02*
X0444173Y0138970D01*
X0548971Y0165268D02*
X0548971Y0166619D01*
X0549421Y0167069D01*
X0550322Y0167069D01*
X0550773Y0166619D01*
X0550773Y0165268D01*
X0551673Y0165268D02*
X0548971Y0165268D01*
X0550773Y0166169D02*
X0551673Y0167069D01*
X0551673Y0168214D02*
X0549872Y0170016D01*
X0549421Y0170016D01*
X0548971Y0169565D01*
X0548971Y0168665D01*
X0549421Y0168214D01*
X0551673Y0168214D02*
X0551673Y0170016D01*
X0551223Y0171161D02*
X0549421Y0172962D01*
X0551223Y0172962D01*
X0551673Y0172512D01*
X0551673Y0171611D01*
X0551223Y0171161D01*
X0549421Y0171161D01*
X0548971Y0171611D01*
X0548971Y0172512D01*
X0549421Y0172962D01*
X0571971Y0165512D02*
X0571971Y0164611D01*
X0572421Y0164161D01*
X0572872Y0164161D01*
X0573322Y0164611D01*
X0573322Y0165962D01*
X0572421Y0165962D02*
X0571971Y0165512D01*
X0572421Y0165962D02*
X0574223Y0165962D01*
X0574673Y0165512D01*
X0574673Y0164611D01*
X0574223Y0164161D01*
X0574673Y0163016D02*
X0574673Y0161214D01*
X0574673Y0162115D02*
X0571971Y0162115D01*
X0572872Y0161214D01*
X0573322Y0160069D02*
X0573773Y0159619D01*
X0573773Y0158268D01*
X0574673Y0158268D02*
X0571971Y0158268D01*
X0571971Y0159619D01*
X0572421Y0160069D01*
X0573322Y0160069D01*
X0573773Y0159169D02*
X0574673Y0160069D01*
X0575574Y0189268D02*
X0575574Y0191970D01*
X0574673Y0191970D02*
X0576475Y0191970D01*
X0577620Y0191520D02*
X0578070Y0191970D01*
X0578971Y0191970D01*
X0579421Y0191520D01*
X0579421Y0191069D01*
X0578971Y0190619D01*
X0579421Y0190169D01*
X0579421Y0189718D01*
X0578971Y0189268D01*
X0578070Y0189268D01*
X0577620Y0189718D01*
X0578521Y0190619D02*
X0578971Y0190619D01*
X0551021Y0087970D02*
X0551021Y0085268D01*
X0551921Y0085268D02*
X0550120Y0085268D01*
X0548975Y0085268D02*
X0548074Y0086169D01*
X0548524Y0086169D02*
X0547173Y0086169D01*
X0547173Y0085268D02*
X0547173Y0087970D01*
X0548524Y0087970D01*
X0548975Y0087520D01*
X0548975Y0086619D01*
X0548524Y0086169D01*
X0550120Y0087069D02*
X0551021Y0087970D01*
X0516673Y0085016D02*
X0516673Y0083214D01*
X0514872Y0085016D01*
X0514421Y0085016D01*
X0513971Y0084565D01*
X0513971Y0083665D01*
X0514421Y0083214D01*
X0514421Y0082069D02*
X0513971Y0081619D01*
X0513971Y0080718D01*
X0514421Y0080268D01*
X0516223Y0080268D01*
X0516673Y0080718D01*
X0516673Y0081619D01*
X0516223Y0082069D01*
X0494173Y0082516D02*
X0494173Y0080714D01*
X0494173Y0081615D02*
X0491471Y0081615D01*
X0492372Y0080714D01*
X0491921Y0079569D02*
X0491471Y0079119D01*
X0491471Y0078218D01*
X0491921Y0077768D01*
X0493723Y0077768D01*
X0494173Y0078218D01*
X0494173Y0079119D01*
X0493723Y0079569D01*
X0501734Y0066820D02*
X0501734Y0065018D01*
X0500834Y0065919D02*
X0502635Y0065919D01*
X0503780Y0065919D02*
X0504681Y0066369D01*
X0505131Y0066369D01*
X0505582Y0065919D01*
X0505582Y0065018D01*
X0505131Y0064568D01*
X0504231Y0064568D01*
X0503780Y0065018D01*
X0503780Y0065919D02*
X0503780Y0067270D01*
X0505582Y0067270D01*
X0506727Y0067270D02*
X0506727Y0065469D01*
X0507628Y0064568D01*
X0508528Y0065469D01*
X0508528Y0067270D01*
X0527171Y0053672D02*
X0527171Y0052772D01*
X0527621Y0052321D01*
X0527621Y0051176D02*
X0528522Y0051176D01*
X0528973Y0050726D01*
X0528973Y0049375D01*
X0529873Y0049375D02*
X0527171Y0049375D01*
X0527171Y0050726D01*
X0527621Y0051176D01*
X0528973Y0050276D02*
X0529873Y0051176D01*
X0529873Y0052321D02*
X0528072Y0054123D01*
X0527621Y0054123D01*
X0527171Y0053672D01*
X0529873Y0054123D02*
X0529873Y0052321D01*
X0511914Y0045470D02*
X0511914Y0042768D01*
X0512814Y0042768D02*
X0511013Y0042768D01*
X0509868Y0043218D02*
X0509868Y0045020D01*
X0509417Y0045470D01*
X0508066Y0045470D01*
X0508066Y0042768D01*
X0509417Y0042768D01*
X0509868Y0043218D01*
X0511013Y0044569D02*
X0511914Y0045470D01*
X0506921Y0045470D02*
X0505120Y0045470D01*
X0505120Y0042768D01*
X0506921Y0042768D01*
X0506021Y0044119D02*
X0505120Y0044119D01*
X0503975Y0042768D02*
X0502173Y0042768D01*
X0502173Y0045470D01*
X0564780Y0069068D02*
X0566582Y0071770D01*
X0567727Y0070869D02*
X0568628Y0071770D01*
X0568628Y0069068D01*
X0569528Y0069068D02*
X0567727Y0069068D01*
X0566582Y0069068D02*
X0564780Y0071770D01*
X0304421Y0070020D02*
X0304421Y0069569D01*
X0303971Y0069119D01*
X0304421Y0068669D01*
X0304421Y0068218D01*
X0303971Y0067768D01*
X0303070Y0067768D01*
X0302620Y0068218D01*
X0301475Y0068218D02*
X0301024Y0067768D01*
X0300124Y0067768D01*
X0299673Y0068218D01*
X0299673Y0070020D01*
X0300124Y0070470D01*
X0301024Y0070470D01*
X0301475Y0070020D01*
X0302620Y0070020D02*
X0303070Y0070470D01*
X0303971Y0070470D01*
X0304421Y0070020D01*
X0303971Y0069119D02*
X0303521Y0069119D01*
X0303971Y0055470D02*
X0302620Y0054119D01*
X0304421Y0054119D01*
X0303971Y0052768D02*
X0303971Y0055470D01*
X0301475Y0055020D02*
X0301024Y0055470D01*
X0300124Y0055470D01*
X0299673Y0055020D01*
X0299673Y0053218D01*
X0300124Y0052768D01*
X0301024Y0052768D01*
X0301475Y0053218D01*
X0244868Y0073218D02*
X0244417Y0072768D01*
X0243517Y0072768D01*
X0243066Y0073218D01*
X0241921Y0072768D02*
X0240120Y0072768D01*
X0241921Y0074569D01*
X0241921Y0075020D01*
X0241471Y0075470D01*
X0240570Y0075470D01*
X0240120Y0075020D01*
X0238975Y0075020D02*
X0238975Y0074119D01*
X0238524Y0073669D01*
X0237173Y0073669D01*
X0238074Y0073669D02*
X0238975Y0072768D01*
X0237173Y0072768D02*
X0237173Y0075470D01*
X0238524Y0075470D01*
X0238975Y0075020D01*
X0243066Y0075020D02*
X0243517Y0075470D01*
X0244417Y0075470D01*
X0244868Y0075020D01*
X0244868Y0074569D01*
X0244417Y0074119D01*
X0244868Y0073669D01*
X0244868Y0073218D01*
X0244417Y0074119D02*
X0243967Y0074119D01*
X0229417Y0082768D02*
X0229417Y0085470D01*
X0228066Y0084119D01*
X0229868Y0084119D01*
X0226921Y0084569D02*
X0226921Y0085020D01*
X0226471Y0085470D01*
X0225570Y0085470D01*
X0225120Y0085020D01*
X0223975Y0085020D02*
X0223975Y0084119D01*
X0223524Y0083669D01*
X0222173Y0083669D01*
X0223074Y0083669D02*
X0223975Y0082768D01*
X0225120Y0082768D02*
X0226921Y0084569D01*
X0226921Y0082768D02*
X0225120Y0082768D01*
X0223975Y0085020D02*
X0223524Y0085470D01*
X0222173Y0085470D01*
X0222173Y0082768D01*
X0214417Y0092768D02*
X0214868Y0093218D01*
X0214868Y0093669D01*
X0214417Y0094119D01*
X0213066Y0094119D01*
X0213066Y0093218D01*
X0213517Y0092768D01*
X0214417Y0092768D01*
X0213066Y0094119D02*
X0213967Y0095020D01*
X0214868Y0095470D01*
X0211921Y0095020D02*
X0211471Y0095470D01*
X0210570Y0095470D01*
X0210120Y0095020D01*
X0208975Y0095020D02*
X0208975Y0094119D01*
X0208524Y0093669D01*
X0207173Y0093669D01*
X0208074Y0093669D02*
X0208975Y0092768D01*
X0210120Y0092768D02*
X0211921Y0094569D01*
X0211921Y0095020D01*
X0211921Y0092768D02*
X0210120Y0092768D01*
X0208975Y0095020D02*
X0208524Y0095470D01*
X0207173Y0095470D01*
X0207173Y0092768D01*
X0199417Y0102768D02*
X0198517Y0102768D01*
X0198066Y0103218D01*
X0198066Y0104119D02*
X0198967Y0104569D01*
X0199417Y0104569D01*
X0199868Y0104119D01*
X0199868Y0103218D01*
X0199417Y0102768D01*
X0198066Y0104119D02*
X0198066Y0105470D01*
X0199868Y0105470D01*
X0196921Y0105020D02*
X0196471Y0105470D01*
X0195570Y0105470D01*
X0195120Y0105020D01*
X0193975Y0105020D02*
X0193975Y0104119D01*
X0193524Y0103669D01*
X0192173Y0103669D01*
X0193074Y0103669D02*
X0193975Y0102768D01*
X0195120Y0102768D02*
X0196921Y0104569D01*
X0196921Y0105020D01*
X0196921Y0102768D02*
X0195120Y0102768D01*
X0193975Y0105020D02*
X0193524Y0105470D01*
X0192173Y0105470D01*
X0192173Y0102768D01*
X0179173Y0110718D02*
X0179173Y0111619D01*
X0178723Y0112069D01*
X0178723Y0113214D02*
X0179173Y0113665D01*
X0179173Y0114565D01*
X0178723Y0115016D01*
X0176921Y0115016D01*
X0176471Y0114565D01*
X0176471Y0113665D01*
X0176921Y0113214D01*
X0177372Y0113214D01*
X0177822Y0113665D01*
X0177822Y0115016D01*
X0176921Y0112069D02*
X0176471Y0111619D01*
X0176471Y0110718D01*
X0176921Y0110268D01*
X0178723Y0110268D01*
X0179173Y0110718D01*
X0164173Y0110714D02*
X0164173Y0112516D01*
X0164173Y0111615D02*
X0161471Y0111615D01*
X0162372Y0110714D01*
X0161921Y0109569D02*
X0161471Y0109119D01*
X0161471Y0108218D01*
X0161921Y0107768D01*
X0163723Y0107768D01*
X0164173Y0108218D01*
X0164173Y0109119D01*
X0163723Y0109569D01*
X0163723Y0113661D02*
X0161921Y0113661D01*
X0161471Y0114111D01*
X0161471Y0115012D01*
X0161921Y0115462D01*
X0163723Y0113661D01*
X0164173Y0114111D01*
X0164173Y0115012D01*
X0163723Y0115462D01*
X0161921Y0115462D01*
X0149868Y0112520D02*
X0149868Y0110718D01*
X0149417Y0110268D01*
X0148066Y0110268D01*
X0148066Y0112970D01*
X0149417Y0112970D01*
X0149868Y0112520D01*
X0146921Y0112970D02*
X0146921Y0110268D01*
X0145120Y0112970D01*
X0145120Y0110268D01*
X0143975Y0110718D02*
X0143975Y0111619D01*
X0143074Y0111619D01*
X0142173Y0112520D02*
X0142173Y0110718D01*
X0142624Y0110268D01*
X0143524Y0110268D01*
X0143975Y0110718D01*
X0143975Y0112520D02*
X0143524Y0112970D01*
X0142624Y0112970D01*
X0142173Y0112520D01*
X0157173Y0086470D02*
X0158975Y0086470D01*
X0158074Y0086470D02*
X0158074Y0083768D01*
X0160120Y0083768D02*
X0160120Y0086470D01*
X0161471Y0086470D01*
X0161921Y0086020D01*
X0161921Y0085119D01*
X0161471Y0084669D01*
X0160120Y0084669D01*
X0161021Y0084669D02*
X0161921Y0083768D01*
X0163066Y0083768D02*
X0163967Y0083768D01*
X0163517Y0083768D02*
X0163517Y0086470D01*
X0163967Y0086470D02*
X0163066Y0086470D01*
X0165031Y0086020D02*
X0165031Y0084218D01*
X0165481Y0083768D01*
X0166382Y0083768D01*
X0166832Y0084218D01*
X0166832Y0085119D01*
X0165931Y0085119D01*
X0165031Y0086020D02*
X0165481Y0086470D01*
X0166382Y0086470D01*
X0166832Y0086020D01*
X0167977Y0085119D02*
X0169779Y0085119D01*
X0169328Y0086470D02*
X0167977Y0085119D01*
X0169328Y0083768D02*
X0169328Y0086470D01*
X0169328Y0076470D02*
X0168428Y0076470D01*
X0167977Y0076020D01*
X0166832Y0076020D02*
X0166382Y0076470D01*
X0165481Y0076470D01*
X0165031Y0076020D01*
X0165031Y0074218D01*
X0165481Y0073768D01*
X0166382Y0073768D01*
X0166832Y0074218D01*
X0166832Y0075119D01*
X0165931Y0075119D01*
X0167977Y0074218D02*
X0168428Y0073768D01*
X0169328Y0073768D01*
X0169779Y0074218D01*
X0169779Y0074669D01*
X0169328Y0075119D01*
X0168878Y0075119D01*
X0169328Y0075119D02*
X0169779Y0075569D01*
X0169779Y0076020D01*
X0169328Y0076470D01*
X0163967Y0076470D02*
X0163066Y0076470D01*
X0163517Y0076470D02*
X0163517Y0073768D01*
X0163967Y0073768D02*
X0163066Y0073768D01*
X0161921Y0073768D02*
X0161021Y0074669D01*
X0161471Y0074669D02*
X0160120Y0074669D01*
X0160120Y0073768D02*
X0160120Y0076470D01*
X0161471Y0076470D01*
X0161921Y0076020D01*
X0161921Y0075119D01*
X0161471Y0074669D01*
X0158975Y0076470D02*
X0157173Y0076470D01*
X0158074Y0076470D02*
X0158074Y0073768D01*
X0158074Y0066470D02*
X0158074Y0063768D01*
X0160120Y0063768D02*
X0160120Y0066470D01*
X0161471Y0066470D01*
X0161921Y0066020D01*
X0161921Y0065119D01*
X0161471Y0064669D01*
X0160120Y0064669D01*
X0161021Y0064669D02*
X0161921Y0063768D01*
X0163066Y0063768D02*
X0163967Y0063768D01*
X0163517Y0063768D02*
X0163517Y0066470D01*
X0163967Y0066470D02*
X0163066Y0066470D01*
X0165031Y0066020D02*
X0165031Y0064218D01*
X0165481Y0063768D01*
X0166382Y0063768D01*
X0166832Y0064218D01*
X0166832Y0065119D01*
X0165931Y0065119D01*
X0165031Y0066020D02*
X0165481Y0066470D01*
X0166382Y0066470D01*
X0166832Y0066020D01*
X0167977Y0066020D02*
X0168428Y0066470D01*
X0169328Y0066470D01*
X0169779Y0066020D01*
X0169779Y0065569D01*
X0167977Y0063768D01*
X0169779Y0063768D01*
X0168878Y0056470D02*
X0168878Y0053768D01*
X0167977Y0053768D02*
X0169779Y0053768D01*
X0167977Y0055569D02*
X0168878Y0056470D01*
X0166832Y0056020D02*
X0166382Y0056470D01*
X0165481Y0056470D01*
X0165031Y0056020D01*
X0165031Y0054218D01*
X0165481Y0053768D01*
X0166382Y0053768D01*
X0166832Y0054218D01*
X0166832Y0055119D01*
X0165931Y0055119D01*
X0163967Y0056470D02*
X0163066Y0056470D01*
X0163517Y0056470D02*
X0163517Y0053768D01*
X0163967Y0053768D02*
X0163066Y0053768D01*
X0161921Y0053768D02*
X0161021Y0054669D01*
X0161471Y0054669D02*
X0160120Y0054669D01*
X0160120Y0053768D02*
X0160120Y0056470D01*
X0161471Y0056470D01*
X0161921Y0056020D01*
X0161921Y0055119D01*
X0161471Y0054669D01*
X0158975Y0056470D02*
X0157173Y0056470D01*
X0158074Y0056470D02*
X0158074Y0053768D01*
X0170274Y0046170D02*
X0171175Y0046170D01*
X0170724Y0046170D02*
X0170724Y0043918D01*
X0170274Y0043468D01*
X0169824Y0043468D01*
X0169373Y0043918D01*
X0172320Y0043468D02*
X0172320Y0046170D01*
X0173671Y0046170D01*
X0174121Y0045720D01*
X0174121Y0044819D01*
X0173671Y0044369D01*
X0172320Y0044369D01*
X0175266Y0043468D02*
X0177068Y0045269D01*
X0177068Y0045720D01*
X0176617Y0046170D01*
X0175717Y0046170D01*
X0175266Y0045720D01*
X0175266Y0043468D02*
X0177068Y0043468D01*
X0150868Y0037768D02*
X0149066Y0037768D01*
X0149967Y0037768D02*
X0149967Y0040470D01*
X0149066Y0039569D01*
X0147921Y0040020D02*
X0147921Y0039119D01*
X0147471Y0038669D01*
X0146120Y0038669D01*
X0146120Y0037768D02*
X0146120Y0040470D01*
X0147471Y0040470D01*
X0147921Y0040020D01*
X0144975Y0040470D02*
X0144074Y0040470D01*
X0144524Y0040470D02*
X0144524Y0038218D01*
X0144074Y0037768D01*
X0143624Y0037768D01*
X0143173Y0038218D01*
X0157173Y0066470D02*
X0158975Y0066470D01*
X0189673Y0077470D02*
X0191475Y0077470D01*
X0190574Y0077470D02*
X0190574Y0074768D01*
X0192620Y0075218D02*
X0193070Y0074768D01*
X0193971Y0074768D01*
X0194421Y0075218D01*
X0194421Y0075669D01*
X0193971Y0076119D01*
X0192620Y0076119D01*
X0192620Y0075218D01*
X0192620Y0076119D02*
X0193521Y0077020D01*
X0194421Y0077470D01*
X0204673Y0067470D02*
X0206475Y0067470D01*
X0205574Y0067470D02*
X0205574Y0064768D01*
X0207620Y0064768D02*
X0207620Y0065218D01*
X0209421Y0067020D01*
X0209421Y0067470D01*
X0207620Y0067470D01*
X0219673Y0057470D02*
X0221475Y0057470D01*
X0220574Y0057470D02*
X0220574Y0054768D01*
X0222620Y0055218D02*
X0222620Y0055669D01*
X0223070Y0056119D01*
X0223971Y0056119D01*
X0224421Y0055669D01*
X0224421Y0055218D01*
X0223971Y0054768D01*
X0223070Y0054768D01*
X0222620Y0055218D01*
X0223070Y0056119D02*
X0222620Y0056569D01*
X0222620Y0057020D01*
X0223070Y0057470D01*
X0223971Y0057470D01*
X0224421Y0057020D01*
X0224421Y0056569D01*
X0223971Y0056119D01*
X0234673Y0047470D02*
X0236475Y0047470D01*
X0235574Y0047470D02*
X0235574Y0044768D01*
X0237620Y0045218D02*
X0238070Y0044768D01*
X0238971Y0044768D01*
X0239421Y0045218D01*
X0239421Y0046119D01*
X0238971Y0046569D01*
X0238521Y0046569D01*
X0237620Y0046119D01*
X0237620Y0047470D01*
X0239421Y0047470D01*
X0279673Y0114268D02*
X0280574Y0114268D01*
X0280124Y0114268D02*
X0280124Y0116970D01*
X0280574Y0116970D02*
X0279673Y0116970D01*
X0281638Y0116520D02*
X0281638Y0114718D01*
X0282088Y0114268D01*
X0282989Y0114268D01*
X0283439Y0114718D01*
X0284584Y0114268D02*
X0286386Y0114268D01*
X0285485Y0114268D02*
X0285485Y0116970D01*
X0284584Y0116069D01*
X0283439Y0116520D02*
X0282989Y0116970D01*
X0282088Y0116970D01*
X0281638Y0116520D01*
D12*
X0280723Y0112518D02*
X0284923Y0112518D01*
X0288923Y0112518D01*
X0293123Y0112518D01*
X0293199Y0112516D01*
X0293275Y0112510D01*
X0293350Y0112501D01*
X0293425Y0112487D01*
X0293499Y0112470D01*
X0293572Y0112449D01*
X0293644Y0112425D01*
X0293715Y0112396D01*
X0293784Y0112365D01*
X0293851Y0112330D01*
X0293916Y0112291D01*
X0293980Y0112249D01*
X0294041Y0112204D01*
X0294100Y0112156D01*
X0294156Y0112105D01*
X0294210Y0112051D01*
X0294261Y0111995D01*
X0294309Y0111936D01*
X0294354Y0111875D01*
X0294396Y0111811D01*
X0294435Y0111746D01*
X0294470Y0111679D01*
X0294501Y0111610D01*
X0294530Y0111539D01*
X0294554Y0111467D01*
X0294575Y0111394D01*
X0294592Y0111320D01*
X0294606Y0111245D01*
X0294615Y0111170D01*
X0294621Y0111094D01*
X0294623Y0111018D01*
X0288923Y0112518D02*
X0288921Y0112430D01*
X0288915Y0112341D01*
X0288905Y0112253D01*
X0288892Y0112166D01*
X0288874Y0112079D01*
X0288853Y0111993D01*
X0288828Y0111908D01*
X0288799Y0111825D01*
X0288766Y0111742D01*
X0288730Y0111662D01*
X0288691Y0111583D01*
X0288648Y0111505D01*
X0288601Y0111430D01*
X0288551Y0111357D01*
X0288498Y0111286D01*
X0288442Y0111217D01*
X0288383Y0111151D01*
X0288321Y0111088D01*
X0288257Y0111028D01*
X0288190Y0110970D01*
X0288120Y0110916D01*
X0288048Y0110864D01*
X0287974Y0110816D01*
X0287897Y0110771D01*
X0287819Y0110730D01*
X0287739Y0110692D01*
X0287658Y0110658D01*
X0287575Y0110627D01*
X0287490Y0110600D01*
X0287405Y0110577D01*
X0287319Y0110558D01*
X0287231Y0110542D01*
X0287144Y0110530D01*
X0287056Y0110522D01*
X0286967Y0110518D01*
X0286879Y0110518D01*
X0286790Y0110522D01*
X0286702Y0110530D01*
X0286615Y0110542D01*
X0286527Y0110558D01*
X0286441Y0110577D01*
X0286356Y0110600D01*
X0286271Y0110627D01*
X0286188Y0110658D01*
X0286107Y0110692D01*
X0286027Y0110730D01*
X0285949Y0110771D01*
X0285872Y0110816D01*
X0285798Y0110864D01*
X0285726Y0110916D01*
X0285656Y0110970D01*
X0285589Y0111028D01*
X0285525Y0111088D01*
X0285463Y0111151D01*
X0285404Y0111217D01*
X0285348Y0111286D01*
X0285295Y0111357D01*
X0285245Y0111430D01*
X0285198Y0111505D01*
X0285155Y0111583D01*
X0285116Y0111662D01*
X0285080Y0111742D01*
X0285047Y0111825D01*
X0285018Y0111908D01*
X0284993Y0111993D01*
X0284972Y0112079D01*
X0284954Y0112166D01*
X0284941Y0112253D01*
X0284931Y0112341D01*
X0284925Y0112430D01*
X0284923Y0112518D01*
X0280723Y0112518D02*
X0280647Y0112516D01*
X0280571Y0112510D01*
X0280496Y0112501D01*
X0280421Y0112487D01*
X0280347Y0112470D01*
X0280274Y0112449D01*
X0280202Y0112425D01*
X0280131Y0112396D01*
X0280062Y0112365D01*
X0279995Y0112330D01*
X0279930Y0112291D01*
X0279866Y0112249D01*
X0279805Y0112204D01*
X0279746Y0112156D01*
X0279690Y0112105D01*
X0279636Y0112051D01*
X0279585Y0111995D01*
X0279537Y0111936D01*
X0279492Y0111875D01*
X0279450Y0111811D01*
X0279411Y0111746D01*
X0279376Y0111679D01*
X0279345Y0111610D01*
X0279316Y0111539D01*
X0279292Y0111467D01*
X0279271Y0111394D01*
X0279254Y0111320D01*
X0279240Y0111245D01*
X0279231Y0111170D01*
X0279225Y0111094D01*
X0279223Y0111018D01*
X0279223Y0079018D02*
X0279225Y0078942D01*
X0279231Y0078866D01*
X0279240Y0078791D01*
X0279254Y0078716D01*
X0279271Y0078642D01*
X0279292Y0078569D01*
X0279316Y0078497D01*
X0279345Y0078426D01*
X0279376Y0078357D01*
X0279411Y0078290D01*
X0279450Y0078225D01*
X0279492Y0078161D01*
X0279537Y0078100D01*
X0279585Y0078041D01*
X0279636Y0077985D01*
X0279690Y0077931D01*
X0279746Y0077880D01*
X0279805Y0077832D01*
X0279866Y0077787D01*
X0279930Y0077745D01*
X0279995Y0077706D01*
X0280062Y0077671D01*
X0280131Y0077640D01*
X0280202Y0077611D01*
X0280274Y0077587D01*
X0280347Y0077566D01*
X0280421Y0077549D01*
X0280496Y0077535D01*
X0280571Y0077526D01*
X0280647Y0077520D01*
X0280723Y0077518D01*
X0293123Y0077518D01*
X0293199Y0077520D01*
X0293275Y0077526D01*
X0293350Y0077535D01*
X0293425Y0077549D01*
X0293499Y0077566D01*
X0293572Y0077587D01*
X0293644Y0077611D01*
X0293715Y0077640D01*
X0293784Y0077671D01*
X0293851Y0077706D01*
X0293916Y0077745D01*
X0293980Y0077787D01*
X0294041Y0077832D01*
X0294100Y0077880D01*
X0294156Y0077931D01*
X0294210Y0077985D01*
X0294261Y0078041D01*
X0294309Y0078100D01*
X0294354Y0078161D01*
X0294396Y0078225D01*
X0294435Y0078290D01*
X0294470Y0078357D01*
X0294501Y0078426D01*
X0294530Y0078497D01*
X0294554Y0078569D01*
X0294575Y0078642D01*
X0294592Y0078716D01*
X0294606Y0078791D01*
X0294615Y0078866D01*
X0294621Y0078942D01*
X0294623Y0079018D01*
X0204591Y0045586D02*
X0204591Y0043318D01*
X0204591Y0045019D02*
X0202322Y0045019D01*
X0202322Y0045586D02*
X0203456Y0046721D01*
X0204591Y0045586D01*
X0202322Y0045586D02*
X0202322Y0043318D01*
X0200908Y0043318D02*
X0200908Y0046721D01*
X0198639Y0046721D02*
X0198639Y0043318D01*
X0197224Y0043318D02*
X0197224Y0046721D01*
X0198639Y0046721D02*
X0200908Y0043318D01*
X0197224Y0043318D02*
X0194956Y0046721D01*
X0194956Y0043318D01*
X0193541Y0043318D02*
X0191273Y0043318D01*
X0191273Y0046721D01*
X0193541Y0046721D01*
X0192407Y0045019D02*
X0191273Y0045019D01*
X0189858Y0046721D02*
X0187590Y0046721D01*
X0188724Y0046721D02*
X0188724Y0043318D01*
X0186175Y0043318D02*
X0186175Y0046721D01*
X0183906Y0046721D02*
X0186175Y0043318D01*
X0183906Y0043318D02*
X0183906Y0046721D01*
X0182492Y0045586D02*
X0182492Y0043318D01*
X0182492Y0045019D02*
X0180223Y0045019D01*
X0180223Y0045586D02*
X0181358Y0046721D01*
X0182492Y0045586D01*
X0180223Y0045586D02*
X0180223Y0043318D01*
X0166923Y0042518D02*
X0164423Y0040018D01*
X0159423Y0040018D01*
X0156923Y0042518D01*
X0156923Y0047518D01*
X0159423Y0050018D01*
X0164423Y0050018D01*
X0166923Y0047518D01*
X0166923Y0042518D01*
X0139423Y0040018D02*
X0129423Y0040018D01*
X0129423Y0050018D01*
X0129423Y0060018D01*
X0129423Y0070018D01*
X0129423Y0080018D01*
X0129423Y0090018D01*
X0129423Y0100018D01*
X0129423Y0110018D01*
X0139423Y0110018D01*
X0139423Y0100018D01*
X0129423Y0100018D01*
X0139423Y0100018D02*
X0139423Y0090018D01*
X0129423Y0090018D01*
X0139423Y0090018D02*
X0139423Y0080018D01*
X0129423Y0080018D01*
X0139423Y0080018D02*
X0139423Y0070018D01*
X0129423Y0070018D01*
X0139423Y0070018D02*
X0139423Y0060018D01*
X0129423Y0060018D01*
X0139423Y0060018D02*
X0139423Y0050018D01*
X0129423Y0050018D01*
X0139423Y0050018D02*
X0139423Y0040018D01*
D13*
X0532635Y0040446D02*
X0532635Y0040446D01*
X0532634Y0040446D02*
X0532636Y0040398D01*
X0532641Y0040351D01*
X0532650Y0040304D01*
X0532663Y0040258D01*
X0532679Y0040213D01*
X0532699Y0040169D01*
X0532723Y0040128D01*
X0532749Y0040088D01*
X0532779Y0040050D01*
X0532811Y0040015D01*
X0532846Y0039983D01*
X0532884Y0039953D01*
X0532923Y0039927D01*
X0532965Y0039904D01*
X0533008Y0039884D01*
X0533053Y0039867D01*
X0533099Y0039854D01*
X0533146Y0039845D01*
X0533194Y0039840D01*
X0533241Y0039838D01*
X0533242Y0039839D02*
X0536940Y0039839D01*
X0534787Y0041991D02*
X0534787Y0042102D01*
X0534787Y0042101D02*
X0534785Y0042159D01*
X0534780Y0042216D01*
X0534770Y0042273D01*
X0534757Y0042330D01*
X0534740Y0042385D01*
X0534720Y0042439D01*
X0534696Y0042492D01*
X0534669Y0042543D01*
X0534638Y0042592D01*
X0534605Y0042639D01*
X0534568Y0042683D01*
X0534529Y0042726D01*
X0534486Y0042765D01*
X0534442Y0042802D01*
X0534395Y0042835D01*
X0534346Y0042866D01*
X0534295Y0042893D01*
X0534242Y0042917D01*
X0534188Y0042937D01*
X0534133Y0042954D01*
X0534076Y0042967D01*
X0534019Y0042977D01*
X0533962Y0042982D01*
X0533904Y0042984D01*
X0533904Y0042985D02*
X0533242Y0042985D01*
X0533194Y0042987D01*
X0533147Y0042992D01*
X0533100Y0043002D01*
X0533054Y0043015D01*
X0533010Y0043031D01*
X0532966Y0043051D01*
X0532925Y0043074D01*
X0532885Y0043101D01*
X0532848Y0043130D01*
X0532813Y0043163D01*
X0532780Y0043198D01*
X0532751Y0043235D01*
X0532724Y0043275D01*
X0532701Y0043316D01*
X0532681Y0043360D01*
X0532665Y0043404D01*
X0532652Y0043450D01*
X0532642Y0043497D01*
X0532637Y0043544D01*
X0532635Y0043592D01*
X0532637Y0043641D01*
X0532642Y0043691D01*
X0532652Y0043739D01*
X0532664Y0043787D01*
X0532681Y0043834D01*
X0532701Y0043879D01*
X0532724Y0043923D01*
X0532750Y0043965D01*
X0532779Y0044005D01*
X0532812Y0044042D01*
X0532847Y0044077D01*
X0532884Y0044110D01*
X0532924Y0044139D01*
X0532966Y0044165D01*
X0533010Y0044188D01*
X0533055Y0044208D01*
X0533102Y0044225D01*
X0533150Y0044237D01*
X0533198Y0044247D01*
X0533248Y0044252D01*
X0533297Y0044254D01*
X0536719Y0044254D01*
X0534787Y0041991D02*
X0534785Y0041933D01*
X0534780Y0041876D01*
X0534770Y0041819D01*
X0534757Y0041762D01*
X0534740Y0041707D01*
X0534720Y0041653D01*
X0534696Y0041600D01*
X0534669Y0041549D01*
X0534638Y0041500D01*
X0534605Y0041453D01*
X0534568Y0041409D01*
X0534529Y0041366D01*
X0534486Y0041327D01*
X0534442Y0041290D01*
X0534395Y0041257D01*
X0534346Y0041226D01*
X0534295Y0041199D01*
X0534242Y0041175D01*
X0534188Y0041155D01*
X0534133Y0041138D01*
X0534076Y0041125D01*
X0534019Y0041115D01*
X0533962Y0041110D01*
X0533904Y0041108D01*
X0533297Y0041108D01*
X0533248Y0041106D01*
X0533198Y0041101D01*
X0533150Y0041091D01*
X0533102Y0041079D01*
X0533055Y0041062D01*
X0533010Y0041042D01*
X0532966Y0041019D01*
X0532924Y0040993D01*
X0532884Y0040964D01*
X0532847Y0040931D01*
X0532812Y0040896D01*
X0532779Y0040859D01*
X0532750Y0040819D01*
X0532724Y0040777D01*
X0532701Y0040733D01*
X0532681Y0040688D01*
X0532664Y0040641D01*
X0532652Y0040593D01*
X0532642Y0040545D01*
X0532637Y0040495D01*
X0532635Y0040446D01*
X0537160Y0034706D02*
X0543232Y0034706D01*
X0543232Y0034705D02*
X0543304Y0034707D01*
X0543376Y0034713D01*
X0543448Y0034722D01*
X0543519Y0034735D01*
X0543589Y0034752D01*
X0543658Y0034772D01*
X0543726Y0034797D01*
X0543793Y0034824D01*
X0543858Y0034855D01*
X0543922Y0034890D01*
X0543984Y0034928D01*
X0544043Y0034969D01*
X0544100Y0035013D01*
X0544155Y0035059D01*
X0544208Y0035109D01*
X0544258Y0035162D01*
X0544304Y0035217D01*
X0544348Y0035274D01*
X0544389Y0035333D01*
X0544427Y0035395D01*
X0544462Y0035459D01*
X0544493Y0035524D01*
X0544520Y0035591D01*
X0544545Y0035659D01*
X0544565Y0035728D01*
X0544582Y0035798D01*
X0544595Y0035869D01*
X0544604Y0035941D01*
X0544610Y0036013D01*
X0544612Y0036085D01*
X0544611Y0036086D02*
X0544611Y0036251D01*
X0545274Y0050712D01*
X0545273Y0050712D02*
X0545274Y0050760D01*
X0545270Y0050807D01*
X0545262Y0050854D01*
X0545251Y0050901D01*
X0545235Y0050946D01*
X0545216Y0050990D01*
X0545194Y0051032D01*
X0545168Y0051073D01*
X0545138Y0051111D01*
X0545106Y0051146D01*
X0545071Y0051179D01*
X0545034Y0051208D01*
X0544994Y0051235D01*
X0544952Y0051258D01*
X0544908Y0051277D01*
X0544863Y0051293D01*
X0544816Y0051305D01*
X0544769Y0051313D01*
X0544722Y0051317D01*
X0544674Y0051318D01*
X0544626Y0051314D01*
X0544579Y0051306D01*
X0544532Y0051295D01*
X0544487Y0051280D01*
X0544443Y0051261D01*
X0544401Y0051238D01*
X0544360Y0051212D01*
X0544322Y0051183D01*
X0544287Y0051151D01*
X0544254Y0051116D01*
X0544224Y0051079D01*
X0544198Y0051039D01*
X0544175Y0050997D01*
X0544155Y0050953D01*
X0544139Y0050908D01*
X0544127Y0050862D01*
X0544119Y0050814D01*
X0544115Y0050767D01*
X0543232Y0037410D01*
X0543226Y0037349D01*
X0543216Y0037288D01*
X0543202Y0037228D01*
X0543184Y0037168D01*
X0543163Y0037110D01*
X0543138Y0037054D01*
X0543109Y0036999D01*
X0543077Y0036946D01*
X0543042Y0036896D01*
X0543004Y0036847D01*
X0542962Y0036802D01*
X0542918Y0036759D01*
X0542871Y0036719D01*
X0542821Y0036682D01*
X0542770Y0036648D01*
X0542716Y0036617D01*
X0542660Y0036591D01*
X0542603Y0036567D01*
X0542544Y0036548D01*
X0542485Y0036532D01*
X0542424Y0036520D01*
X0542363Y0036512D01*
X0542301Y0036508D01*
X0542239Y0036507D01*
X0542178Y0036511D01*
X0542116Y0036519D01*
X0542056Y0036530D01*
X0541996Y0036546D01*
X0541937Y0036565D01*
X0541880Y0036588D01*
X0541824Y0036614D01*
X0541770Y0036644D01*
X0541718Y0036678D01*
X0541668Y0036714D01*
X0541621Y0036754D01*
X0541577Y0036797D01*
X0541535Y0036842D01*
X0541496Y0036890D01*
X0541460Y0036941D01*
X0541428Y0036993D01*
X0541399Y0037048D01*
X0541373Y0037104D01*
X0541352Y0037162D01*
X0541334Y0037221D01*
X0541319Y0037281D01*
X0541309Y0037342D01*
X0541303Y0037404D01*
X0541300Y0037465D01*
X0540417Y0050877D01*
X0540416Y0050877D02*
X0540412Y0050918D01*
X0540404Y0050958D01*
X0540392Y0050997D01*
X0540378Y0051035D01*
X0540360Y0051072D01*
X0540339Y0051107D01*
X0540315Y0051140D01*
X0540288Y0051171D01*
X0540258Y0051199D01*
X0540227Y0051225D01*
X0540193Y0051248D01*
X0540157Y0051268D01*
X0540120Y0051285D01*
X0540082Y0051299D01*
X0540042Y0051309D01*
X0540002Y0051315D01*
X0539961Y0051319D01*
X0539920Y0051318D01*
X0539920Y0051319D02*
X0537160Y0051319D01*
X0547647Y0051153D02*
X0546819Y0035313D01*
X0546818Y0035268D01*
X0546822Y0035224D01*
X0546829Y0035180D01*
X0546839Y0035136D01*
X0546854Y0035094D01*
X0546872Y0035053D01*
X0546893Y0035014D01*
X0546918Y0034977D01*
X0546945Y0034942D01*
X0546976Y0034910D01*
X0547009Y0034880D01*
X0547045Y0034853D01*
X0547082Y0034829D01*
X0547122Y0034809D01*
X0547163Y0034792D01*
X0547206Y0034778D01*
X0547249Y0034768D01*
X0547293Y0034762D01*
X0547338Y0034760D01*
X0547382Y0034761D01*
X0547427Y0034767D01*
X0547470Y0034776D01*
X0547513Y0034788D01*
X0547554Y0034804D01*
X0547594Y0034824D01*
X0547633Y0034847D01*
X0547669Y0034873D01*
X0547702Y0034902D01*
X0547734Y0034934D01*
X0547762Y0034969D01*
X0547787Y0035005D01*
X0547809Y0035044D01*
X0547828Y0035084D01*
X0547843Y0035126D01*
X0547855Y0035169D01*
X0547863Y0035213D01*
X0547867Y0035257D01*
X0547868Y0035258D02*
X0548530Y0047510D01*
X0548532Y0047591D01*
X0548538Y0047673D01*
X0548547Y0047754D01*
X0548561Y0047834D01*
X0548578Y0047913D01*
X0548599Y0047992D01*
X0548624Y0048070D01*
X0548653Y0048146D01*
X0548685Y0048221D01*
X0548720Y0048294D01*
X0548759Y0048366D01*
X0548802Y0048435D01*
X0548847Y0048502D01*
X0548896Y0048568D01*
X0548948Y0048630D01*
X0549003Y0048691D01*
X0549060Y0048748D01*
X0549121Y0048803D01*
X0549183Y0048855D01*
X0549249Y0048904D01*
X0549316Y0048949D01*
X0549386Y0048992D01*
X0549457Y0049031D01*
X0549530Y0049066D01*
X0549605Y0049098D01*
X0549681Y0049127D01*
X0549759Y0049152D01*
X0549838Y0049173D01*
X0549917Y0049190D01*
X0549997Y0049204D01*
X0550078Y0049213D01*
X0550160Y0049219D01*
X0550241Y0049221D01*
X0553718Y0049221D01*
X0553797Y0049219D01*
X0553875Y0049214D01*
X0553954Y0049204D01*
X0554031Y0049191D01*
X0554108Y0049174D01*
X0554185Y0049154D01*
X0554260Y0049130D01*
X0554333Y0049102D01*
X0554406Y0049071D01*
X0554477Y0049037D01*
X0554546Y0048999D01*
X0554613Y0048958D01*
X0554679Y0048914D01*
X0554742Y0048867D01*
X0554802Y0048817D01*
X0554861Y0048764D01*
X0554917Y0048708D01*
X0554970Y0048649D01*
X0555020Y0048589D01*
X0555067Y0048526D01*
X0555111Y0048460D01*
X0555152Y0048393D01*
X0555190Y0048324D01*
X0555224Y0048253D01*
X0555255Y0048180D01*
X0555283Y0048107D01*
X0555307Y0048032D01*
X0555327Y0047955D01*
X0555344Y0047878D01*
X0555357Y0047801D01*
X0555367Y0047722D01*
X0555372Y0047644D01*
X0555374Y0047565D01*
X0555374Y0047289D01*
X0555926Y0035313D01*
X0555927Y0035312D02*
X0555931Y0035266D01*
X0555939Y0035220D01*
X0555951Y0035175D01*
X0555966Y0035131D01*
X0555986Y0035088D01*
X0556009Y0035047D01*
X0556035Y0035009D01*
X0556064Y0034972D01*
X0556097Y0034939D01*
X0556132Y0034908D01*
X0556170Y0034880D01*
X0556209Y0034856D01*
X0556251Y0034835D01*
X0556295Y0034817D01*
X0556339Y0034804D01*
X0556385Y0034794D01*
X0556431Y0034788D01*
X0556478Y0034786D01*
X0556525Y0034788D01*
X0556571Y0034794D01*
X0556617Y0034804D01*
X0556661Y0034817D01*
X0556705Y0034835D01*
X0556747Y0034856D01*
X0556786Y0034880D01*
X0556824Y0034908D01*
X0556859Y0034939D01*
X0556892Y0034972D01*
X0556921Y0035009D01*
X0556947Y0035047D01*
X0556970Y0035088D01*
X0556990Y0035131D01*
X0557005Y0035175D01*
X0557017Y0035220D01*
X0557025Y0035266D01*
X0557029Y0035312D01*
X0557030Y0035313D02*
X0556202Y0051043D01*
X0556200Y0051118D01*
X0556194Y0051193D01*
X0556184Y0051267D01*
X0556171Y0051341D01*
X0556153Y0051414D01*
X0556132Y0051486D01*
X0556107Y0051557D01*
X0556078Y0051627D01*
X0556046Y0051694D01*
X0556010Y0051761D01*
X0555970Y0051825D01*
X0555928Y0051886D01*
X0555882Y0051946D01*
X0555833Y0052003D01*
X0555782Y0052058D01*
X0555727Y0052109D01*
X0555670Y0052158D01*
X0555610Y0052204D01*
X0555549Y0052246D01*
X0555485Y0052286D01*
X0555418Y0052322D01*
X0555351Y0052354D01*
X0555281Y0052383D01*
X0555210Y0052408D01*
X0555138Y0052429D01*
X0555065Y0052447D01*
X0554991Y0052460D01*
X0554917Y0052470D01*
X0554842Y0052476D01*
X0554767Y0052478D01*
X0548972Y0052478D01*
X0548971Y0052478D02*
X0548899Y0052476D01*
X0548828Y0052470D01*
X0548757Y0052460D01*
X0548686Y0052447D01*
X0548617Y0052430D01*
X0548548Y0052408D01*
X0548481Y0052384D01*
X0548415Y0052355D01*
X0548351Y0052323D01*
X0548288Y0052288D01*
X0548228Y0052249D01*
X0548169Y0052208D01*
X0548114Y0052163D01*
X0548060Y0052115D01*
X0548009Y0052064D01*
X0547961Y0052010D01*
X0547916Y0051955D01*
X0547875Y0051896D01*
X0547836Y0051836D01*
X0547801Y0051773D01*
X0547769Y0051709D01*
X0547740Y0051643D01*
X0547716Y0051576D01*
X0547694Y0051507D01*
X0547677Y0051438D01*
X0547664Y0051367D01*
X0547654Y0051296D01*
X0547648Y0051225D01*
X0547646Y0051153D01*
X0558575Y0050712D02*
X0559237Y0036251D01*
X0559237Y0036086D01*
X0559238Y0036086D02*
X0559240Y0036013D01*
X0559246Y0035941D01*
X0559255Y0035870D01*
X0559268Y0035799D01*
X0559285Y0035729D01*
X0559306Y0035659D01*
X0559330Y0035591D01*
X0559357Y0035525D01*
X0559388Y0035459D01*
X0559423Y0035396D01*
X0559461Y0035334D01*
X0559502Y0035275D01*
X0559546Y0035217D01*
X0559592Y0035163D01*
X0559642Y0035110D01*
X0559695Y0035060D01*
X0559749Y0035014D01*
X0559807Y0034970D01*
X0559866Y0034929D01*
X0559928Y0034891D01*
X0559991Y0034856D01*
X0560057Y0034825D01*
X0560123Y0034798D01*
X0560191Y0034774D01*
X0560261Y0034753D01*
X0560331Y0034736D01*
X0560402Y0034723D01*
X0560473Y0034714D01*
X0560545Y0034708D01*
X0560618Y0034706D01*
X0560617Y0034706D02*
X0566689Y0034706D01*
X0562549Y0037465D02*
X0563432Y0050877D01*
X0563433Y0050877D02*
X0563437Y0050918D01*
X0563445Y0050958D01*
X0563457Y0050997D01*
X0563471Y0051035D01*
X0563489Y0051072D01*
X0563510Y0051107D01*
X0563534Y0051140D01*
X0563561Y0051171D01*
X0563591Y0051199D01*
X0563622Y0051225D01*
X0563656Y0051248D01*
X0563692Y0051268D01*
X0563729Y0051285D01*
X0563767Y0051299D01*
X0563807Y0051309D01*
X0563847Y0051315D01*
X0563888Y0051319D01*
X0563929Y0051318D01*
X0563929Y0051319D02*
X0566689Y0051319D01*
X0559734Y0050767D02*
X0560617Y0037410D01*
X0560623Y0037349D01*
X0560633Y0037288D01*
X0560647Y0037228D01*
X0560665Y0037168D01*
X0560686Y0037110D01*
X0560711Y0037054D01*
X0560740Y0036999D01*
X0560772Y0036946D01*
X0560807Y0036896D01*
X0560845Y0036847D01*
X0560887Y0036802D01*
X0560931Y0036759D01*
X0560978Y0036719D01*
X0561028Y0036682D01*
X0561079Y0036648D01*
X0561133Y0036617D01*
X0561189Y0036591D01*
X0561246Y0036567D01*
X0561305Y0036548D01*
X0561364Y0036532D01*
X0561425Y0036520D01*
X0561486Y0036512D01*
X0561548Y0036508D01*
X0561610Y0036507D01*
X0561671Y0036511D01*
X0561733Y0036519D01*
X0561793Y0036530D01*
X0561853Y0036546D01*
X0561912Y0036565D01*
X0561969Y0036588D01*
X0562025Y0036614D01*
X0562079Y0036644D01*
X0562131Y0036678D01*
X0562181Y0036714D01*
X0562228Y0036754D01*
X0562272Y0036797D01*
X0562314Y0036842D01*
X0562353Y0036890D01*
X0562389Y0036941D01*
X0562421Y0036993D01*
X0562450Y0037048D01*
X0562476Y0037104D01*
X0562497Y0037162D01*
X0562515Y0037221D01*
X0562530Y0037281D01*
X0562540Y0037342D01*
X0562546Y0037404D01*
X0562549Y0037465D01*
X0567130Y0039838D02*
X0570552Y0039838D01*
X0570601Y0039840D01*
X0570651Y0039845D01*
X0570699Y0039855D01*
X0570747Y0039867D01*
X0570794Y0039884D01*
X0570839Y0039904D01*
X0570883Y0039927D01*
X0570925Y0039953D01*
X0570965Y0039982D01*
X0571002Y0040015D01*
X0571037Y0040050D01*
X0571070Y0040087D01*
X0571099Y0040127D01*
X0571125Y0040169D01*
X0571148Y0040213D01*
X0571168Y0040258D01*
X0571185Y0040305D01*
X0571197Y0040353D01*
X0571207Y0040401D01*
X0571212Y0040451D01*
X0571214Y0040500D01*
X0571212Y0040548D01*
X0571207Y0040595D01*
X0571197Y0040642D01*
X0571184Y0040688D01*
X0571168Y0040732D01*
X0571148Y0040776D01*
X0571125Y0040817D01*
X0571098Y0040857D01*
X0571069Y0040894D01*
X0571036Y0040929D01*
X0571001Y0040962D01*
X0570964Y0040991D01*
X0570924Y0041018D01*
X0570883Y0041041D01*
X0570839Y0041061D01*
X0570795Y0041077D01*
X0570749Y0041090D01*
X0570702Y0041100D01*
X0570655Y0041105D01*
X0570607Y0041107D01*
X0570607Y0041108D02*
X0569945Y0041108D01*
X0569945Y0041107D02*
X0569888Y0041109D01*
X0569830Y0041115D01*
X0569773Y0041124D01*
X0569717Y0041137D01*
X0569661Y0041154D01*
X0569607Y0041174D01*
X0569555Y0041198D01*
X0569504Y0041225D01*
X0569455Y0041256D01*
X0569408Y0041289D01*
X0569363Y0041326D01*
X0569321Y0041366D01*
X0569281Y0041408D01*
X0569244Y0041453D01*
X0569211Y0041500D01*
X0569180Y0041549D01*
X0569153Y0041600D01*
X0569129Y0041652D01*
X0569109Y0041706D01*
X0569092Y0041762D01*
X0569079Y0041818D01*
X0569070Y0041875D01*
X0569064Y0041933D01*
X0569062Y0041990D01*
X0569062Y0041991D02*
X0569062Y0042101D01*
X0569064Y0042159D01*
X0569069Y0042216D01*
X0569079Y0042273D01*
X0569092Y0042330D01*
X0569109Y0042385D01*
X0569129Y0042439D01*
X0569153Y0042492D01*
X0569180Y0042543D01*
X0569210Y0042592D01*
X0569244Y0042639D01*
X0569281Y0042683D01*
X0569320Y0042726D01*
X0569363Y0042765D01*
X0569407Y0042802D01*
X0569454Y0042836D01*
X0569503Y0042866D01*
X0569554Y0042893D01*
X0569607Y0042917D01*
X0569661Y0042937D01*
X0569716Y0042954D01*
X0569773Y0042967D01*
X0569830Y0042977D01*
X0569887Y0042982D01*
X0569945Y0042984D01*
X0570552Y0042984D01*
X0570552Y0042985D02*
X0570601Y0042987D01*
X0570651Y0042992D01*
X0570699Y0043002D01*
X0570747Y0043014D01*
X0570794Y0043031D01*
X0570839Y0043051D01*
X0570883Y0043074D01*
X0570925Y0043100D01*
X0570965Y0043129D01*
X0571002Y0043162D01*
X0571037Y0043197D01*
X0571070Y0043234D01*
X0571099Y0043274D01*
X0571125Y0043316D01*
X0571148Y0043360D01*
X0571168Y0043405D01*
X0571185Y0043452D01*
X0571197Y0043500D01*
X0571207Y0043548D01*
X0571212Y0043598D01*
X0571214Y0043647D01*
X0571214Y0043646D01*
X0571212Y0043694D01*
X0571207Y0043741D01*
X0571198Y0043788D01*
X0571185Y0043834D01*
X0571169Y0043879D01*
X0571149Y0043923D01*
X0571125Y0043964D01*
X0571099Y0044004D01*
X0571069Y0044042D01*
X0571037Y0044077D01*
X0571002Y0044109D01*
X0570964Y0044139D01*
X0570925Y0044165D01*
X0570883Y0044188D01*
X0570840Y0044208D01*
X0570795Y0044225D01*
X0570749Y0044238D01*
X0570702Y0044247D01*
X0570654Y0044252D01*
X0570607Y0044254D01*
X0566909Y0044254D01*
X0566909Y0030014D01*
X0536939Y0030014D01*
X0536939Y0065062D01*
X0541907Y0065062D01*
X0541979Y0065060D01*
X0542052Y0065055D01*
X0542124Y0065046D01*
X0542196Y0065033D01*
X0542266Y0065016D01*
X0542336Y0064996D01*
X0542405Y0064973D01*
X0542473Y0064946D01*
X0542539Y0064915D01*
X0542603Y0064882D01*
X0542666Y0064845D01*
X0542727Y0064805D01*
X0542785Y0064762D01*
X0542842Y0064716D01*
X0542896Y0064667D01*
X0542947Y0064616D01*
X0542996Y0064562D01*
X0543042Y0064505D01*
X0543085Y0064447D01*
X0543125Y0064386D01*
X0543162Y0064323D01*
X0543195Y0064259D01*
X0543226Y0064193D01*
X0543253Y0064125D01*
X0543276Y0064056D01*
X0543296Y0063986D01*
X0543313Y0063916D01*
X0543326Y0063844D01*
X0543335Y0063772D01*
X0543340Y0063699D01*
X0543342Y0063627D01*
X0543342Y0063626D02*
X0543342Y0061529D01*
X0536940Y0060647D02*
X0533242Y0060647D01*
X0533242Y0060646D02*
X0533194Y0060648D01*
X0533146Y0060653D01*
X0533100Y0060663D01*
X0533054Y0060675D01*
X0533009Y0060692D01*
X0532965Y0060712D01*
X0532924Y0060735D01*
X0532884Y0060762D01*
X0532846Y0060791D01*
X0532811Y0060824D01*
X0532779Y0060859D01*
X0532749Y0060896D01*
X0532723Y0060936D01*
X0532700Y0060978D01*
X0532680Y0061021D01*
X0532663Y0061066D01*
X0532650Y0061112D01*
X0532641Y0061159D01*
X0532636Y0061206D01*
X0532634Y0061254D01*
X0532635Y0061254D02*
X0532635Y0061254D01*
X0532637Y0061303D01*
X0532642Y0061353D01*
X0532652Y0061401D01*
X0532664Y0061449D01*
X0532681Y0061496D01*
X0532701Y0061541D01*
X0532724Y0061585D01*
X0532750Y0061627D01*
X0532779Y0061667D01*
X0532812Y0061704D01*
X0532847Y0061739D01*
X0532884Y0061772D01*
X0532924Y0061801D01*
X0532966Y0061827D01*
X0533010Y0061850D01*
X0533055Y0061870D01*
X0533102Y0061887D01*
X0533150Y0061899D01*
X0533198Y0061909D01*
X0533248Y0061914D01*
X0533297Y0061916D01*
X0533904Y0061916D01*
X0533962Y0061918D01*
X0534019Y0061924D01*
X0534076Y0061933D01*
X0534133Y0061946D01*
X0534188Y0061963D01*
X0534242Y0061983D01*
X0534295Y0062007D01*
X0534346Y0062034D01*
X0534395Y0062065D01*
X0534442Y0062098D01*
X0534486Y0062135D01*
X0534528Y0062175D01*
X0534568Y0062217D01*
X0534605Y0062261D01*
X0534638Y0062308D01*
X0534669Y0062358D01*
X0534696Y0062408D01*
X0534720Y0062461D01*
X0534740Y0062515D01*
X0534757Y0062570D01*
X0534770Y0062627D01*
X0534779Y0062684D01*
X0534785Y0062741D01*
X0534787Y0062799D01*
X0534787Y0062910D01*
X0534785Y0062967D01*
X0534779Y0063025D01*
X0534770Y0063082D01*
X0534757Y0063138D01*
X0534740Y0063194D01*
X0534720Y0063248D01*
X0534696Y0063300D01*
X0534669Y0063351D01*
X0534638Y0063400D01*
X0534605Y0063447D01*
X0534568Y0063492D01*
X0534528Y0063534D01*
X0534486Y0063574D01*
X0534441Y0063611D01*
X0534394Y0063644D01*
X0534345Y0063675D01*
X0534294Y0063702D01*
X0534242Y0063726D01*
X0534188Y0063746D01*
X0534132Y0063763D01*
X0534076Y0063776D01*
X0534019Y0063785D01*
X0533961Y0063791D01*
X0533904Y0063793D01*
X0533242Y0063793D01*
X0533194Y0063795D01*
X0533147Y0063800D01*
X0533100Y0063810D01*
X0533054Y0063823D01*
X0533010Y0063839D01*
X0532966Y0063859D01*
X0532925Y0063882D01*
X0532885Y0063909D01*
X0532848Y0063938D01*
X0532813Y0063971D01*
X0532780Y0064006D01*
X0532751Y0064043D01*
X0532724Y0064083D01*
X0532701Y0064124D01*
X0532681Y0064168D01*
X0532665Y0064212D01*
X0532652Y0064258D01*
X0532642Y0064305D01*
X0532637Y0064352D01*
X0532635Y0064400D01*
X0532637Y0064449D01*
X0532642Y0064499D01*
X0532652Y0064547D01*
X0532664Y0064595D01*
X0532681Y0064642D01*
X0532701Y0064687D01*
X0532724Y0064731D01*
X0532750Y0064773D01*
X0532779Y0064813D01*
X0532812Y0064850D01*
X0532847Y0064885D01*
X0532884Y0064918D01*
X0532924Y0064947D01*
X0532966Y0064973D01*
X0533010Y0064996D01*
X0533055Y0065016D01*
X0533102Y0065033D01*
X0533150Y0065045D01*
X0533198Y0065055D01*
X0533248Y0065060D01*
X0533297Y0065062D01*
X0536995Y0065062D01*
X0560507Y0063682D02*
X0560507Y0061363D01*
X0560506Y0063682D02*
X0560508Y0063754D01*
X0560514Y0063826D01*
X0560523Y0063898D01*
X0560536Y0063969D01*
X0560553Y0064039D01*
X0560573Y0064108D01*
X0560598Y0064176D01*
X0560625Y0064243D01*
X0560656Y0064308D01*
X0560691Y0064372D01*
X0560729Y0064434D01*
X0560770Y0064493D01*
X0560814Y0064550D01*
X0560860Y0064605D01*
X0560910Y0064658D01*
X0560963Y0064708D01*
X0561018Y0064754D01*
X0561075Y0064798D01*
X0561134Y0064839D01*
X0561196Y0064877D01*
X0561260Y0064912D01*
X0561325Y0064943D01*
X0561392Y0064970D01*
X0561460Y0064995D01*
X0561529Y0065015D01*
X0561599Y0065032D01*
X0561670Y0065045D01*
X0561742Y0065054D01*
X0561814Y0065060D01*
X0561886Y0065062D01*
X0561887Y0065062D02*
X0566909Y0065062D01*
X0570607Y0065062D01*
X0570607Y0065061D02*
X0570655Y0065059D01*
X0570702Y0065054D01*
X0570749Y0065045D01*
X0570795Y0065032D01*
X0570840Y0065015D01*
X0570883Y0064995D01*
X0570925Y0064972D01*
X0570964Y0064946D01*
X0571002Y0064916D01*
X0571037Y0064884D01*
X0571069Y0064849D01*
X0571099Y0064811D01*
X0571125Y0064771D01*
X0571149Y0064730D01*
X0571168Y0064686D01*
X0571185Y0064642D01*
X0571198Y0064596D01*
X0571207Y0064549D01*
X0571212Y0064501D01*
X0571214Y0064454D01*
X0571214Y0064454D01*
X0571212Y0064405D01*
X0571207Y0064355D01*
X0571197Y0064307D01*
X0571185Y0064259D01*
X0571168Y0064212D01*
X0571148Y0064167D01*
X0571125Y0064123D01*
X0571099Y0064081D01*
X0571070Y0064041D01*
X0571037Y0064004D01*
X0571002Y0063969D01*
X0570965Y0063936D01*
X0570925Y0063907D01*
X0570883Y0063881D01*
X0570839Y0063858D01*
X0570794Y0063838D01*
X0570747Y0063821D01*
X0570699Y0063809D01*
X0570651Y0063799D01*
X0570601Y0063794D01*
X0570552Y0063792D01*
X0569945Y0063792D01*
X0569887Y0063790D01*
X0569830Y0063785D01*
X0569773Y0063775D01*
X0569716Y0063762D01*
X0569661Y0063745D01*
X0569607Y0063725D01*
X0569554Y0063701D01*
X0569503Y0063674D01*
X0569454Y0063644D01*
X0569407Y0063610D01*
X0569363Y0063573D01*
X0569320Y0063534D01*
X0569281Y0063491D01*
X0569244Y0063447D01*
X0569210Y0063400D01*
X0569180Y0063351D01*
X0569153Y0063300D01*
X0569129Y0063247D01*
X0569109Y0063193D01*
X0569092Y0063138D01*
X0569079Y0063081D01*
X0569069Y0063024D01*
X0569064Y0062967D01*
X0569062Y0062909D01*
X0569062Y0062799D01*
X0569064Y0062741D01*
X0569070Y0062684D01*
X0569079Y0062627D01*
X0569092Y0062570D01*
X0569109Y0062515D01*
X0569129Y0062461D01*
X0569153Y0062408D01*
X0569180Y0062358D01*
X0569211Y0062308D01*
X0569244Y0062261D01*
X0569281Y0062217D01*
X0569321Y0062175D01*
X0569363Y0062135D01*
X0569407Y0062098D01*
X0569454Y0062065D01*
X0569504Y0062034D01*
X0569554Y0062007D01*
X0569607Y0061983D01*
X0569661Y0061963D01*
X0569716Y0061946D01*
X0569773Y0061933D01*
X0569830Y0061924D01*
X0569887Y0061918D01*
X0569945Y0061916D01*
X0569945Y0061915D02*
X0570607Y0061915D01*
X0570655Y0061913D01*
X0570702Y0061908D01*
X0570749Y0061898D01*
X0570795Y0061885D01*
X0570839Y0061869D01*
X0570883Y0061849D01*
X0570924Y0061826D01*
X0570964Y0061799D01*
X0571001Y0061770D01*
X0571036Y0061737D01*
X0571069Y0061702D01*
X0571098Y0061665D01*
X0571125Y0061625D01*
X0571148Y0061584D01*
X0571168Y0061540D01*
X0571184Y0061496D01*
X0571197Y0061450D01*
X0571207Y0061403D01*
X0571212Y0061356D01*
X0571214Y0061308D01*
X0571212Y0061259D01*
X0571207Y0061209D01*
X0571197Y0061161D01*
X0571185Y0061113D01*
X0571168Y0061066D01*
X0571148Y0061021D01*
X0571125Y0060977D01*
X0571099Y0060935D01*
X0571070Y0060895D01*
X0571037Y0060858D01*
X0571002Y0060823D01*
X0570965Y0060790D01*
X0570925Y0060761D01*
X0570883Y0060735D01*
X0570839Y0060712D01*
X0570794Y0060692D01*
X0570747Y0060675D01*
X0570699Y0060663D01*
X0570651Y0060653D01*
X0570601Y0060648D01*
X0570552Y0060646D01*
X0567130Y0060646D01*
X0566909Y0065062D02*
X0566909Y0044254D01*
X0559734Y0050767D02*
X0559730Y0050814D01*
X0559722Y0050862D01*
X0559710Y0050908D01*
X0559694Y0050953D01*
X0559674Y0050997D01*
X0559651Y0051039D01*
X0559625Y0051079D01*
X0559595Y0051116D01*
X0559562Y0051151D01*
X0559527Y0051183D01*
X0559489Y0051212D01*
X0559448Y0051238D01*
X0559406Y0051261D01*
X0559362Y0051280D01*
X0559317Y0051295D01*
X0559270Y0051306D01*
X0559223Y0051314D01*
X0559175Y0051318D01*
X0559127Y0051317D01*
X0559080Y0051313D01*
X0559033Y0051305D01*
X0558986Y0051293D01*
X0558941Y0051277D01*
X0558897Y0051258D01*
X0558855Y0051235D01*
X0558815Y0051208D01*
X0558778Y0051179D01*
X0558743Y0051146D01*
X0558711Y0051111D01*
X0558681Y0051073D01*
X0558655Y0051032D01*
X0558633Y0050990D01*
X0558614Y0050946D01*
X0558598Y0050901D01*
X0558587Y0050854D01*
X0558579Y0050807D01*
X0558575Y0050760D01*
X0558576Y0050712D01*
D14*
X0126923Y0045018D02*
X0104423Y0045018D01*
X0104423Y0055018D02*
X0126923Y0055018D01*
X0126923Y0065018D02*
X0104423Y0065018D01*
X0104423Y0075018D02*
X0126923Y0075018D01*
X0126923Y0085018D02*
X0104423Y0085018D01*
X0104423Y0095018D02*
X0126923Y0095018D01*
X0126923Y0105018D02*
X0104423Y0105018D01*
D15*
X0128423Y0105018D03*
X0128423Y0095018D03*
X0128423Y0085018D03*
X0128423Y0075018D03*
X0128423Y0065018D03*
X0128423Y0055018D03*
X0128423Y0045018D03*
D16*
X0141423Y0045018D03*
X0141423Y0055018D03*
X0141423Y0065018D03*
X0141423Y0075018D03*
X0141423Y0085018D03*
X0141423Y0095018D03*
X0141423Y0105018D03*
D17*
X0507415Y0040018D03*
D18*
X0280623Y0077518D02*
X0280623Y0112518D01*
D19*
X0281333Y0193541D03*
X0281333Y0196494D03*
X0141333Y0196494D03*
X0141333Y0193541D03*
X0421333Y0193541D03*
X0421333Y0196494D03*
X0561333Y0196494D03*
X0561333Y0193541D03*
D20*
X0561333Y0195018D03*
X0421333Y0195018D03*
X0281333Y0195018D03*
X0141333Y0195018D03*
M02*
