G75*
%MOIN*%
%OFA0B0*%
%FSLAX25Y25*%
%IPPOS*%
%LPD*%
%AMOC8*
5,1,8,0,0,1.08239X$1,22.5*
%
%ADD10C,0.00000*%
D10*
X0126923Y0035018D02*
X0126923Y0110018D01*
X0016923Y0110018D01*
X0016923Y0198719D01*
X0586845Y0198719D01*
X0586845Y0035018D01*
X0126923Y0035018D01*
X0315624Y0050018D02*
X0315626Y0050176D01*
X0315632Y0050334D01*
X0315642Y0050492D01*
X0315656Y0050650D01*
X0315674Y0050807D01*
X0315695Y0050964D01*
X0315721Y0051120D01*
X0315751Y0051276D01*
X0315784Y0051431D01*
X0315822Y0051584D01*
X0315863Y0051737D01*
X0315908Y0051889D01*
X0315957Y0052040D01*
X0316010Y0052189D01*
X0316066Y0052337D01*
X0316126Y0052483D01*
X0316190Y0052628D01*
X0316258Y0052771D01*
X0316329Y0052913D01*
X0316403Y0053053D01*
X0316481Y0053190D01*
X0316563Y0053326D01*
X0316647Y0053460D01*
X0316736Y0053591D01*
X0316827Y0053720D01*
X0316922Y0053847D01*
X0317019Y0053972D01*
X0317120Y0054094D01*
X0317224Y0054213D01*
X0317331Y0054330D01*
X0317441Y0054444D01*
X0317554Y0054555D01*
X0317669Y0054664D01*
X0317787Y0054769D01*
X0317908Y0054871D01*
X0318031Y0054971D01*
X0318157Y0055067D01*
X0318285Y0055160D01*
X0318415Y0055250D01*
X0318548Y0055336D01*
X0318683Y0055420D01*
X0318819Y0055499D01*
X0318958Y0055576D01*
X0319099Y0055648D01*
X0319241Y0055718D01*
X0319385Y0055783D01*
X0319531Y0055845D01*
X0319678Y0055903D01*
X0319827Y0055958D01*
X0319977Y0056009D01*
X0320128Y0056056D01*
X0320280Y0056099D01*
X0320433Y0056138D01*
X0320588Y0056174D01*
X0320743Y0056205D01*
X0320899Y0056233D01*
X0321055Y0056257D01*
X0321212Y0056277D01*
X0321370Y0056293D01*
X0321527Y0056305D01*
X0321686Y0056313D01*
X0321844Y0056317D01*
X0322002Y0056317D01*
X0322160Y0056313D01*
X0322319Y0056305D01*
X0322476Y0056293D01*
X0322634Y0056277D01*
X0322791Y0056257D01*
X0322947Y0056233D01*
X0323103Y0056205D01*
X0323258Y0056174D01*
X0323413Y0056138D01*
X0323566Y0056099D01*
X0323718Y0056056D01*
X0323869Y0056009D01*
X0324019Y0055958D01*
X0324168Y0055903D01*
X0324315Y0055845D01*
X0324461Y0055783D01*
X0324605Y0055718D01*
X0324747Y0055648D01*
X0324888Y0055576D01*
X0325027Y0055499D01*
X0325163Y0055420D01*
X0325298Y0055336D01*
X0325431Y0055250D01*
X0325561Y0055160D01*
X0325689Y0055067D01*
X0325815Y0054971D01*
X0325938Y0054871D01*
X0326059Y0054769D01*
X0326177Y0054664D01*
X0326292Y0054555D01*
X0326405Y0054444D01*
X0326515Y0054330D01*
X0326622Y0054213D01*
X0326726Y0054094D01*
X0326827Y0053972D01*
X0326924Y0053847D01*
X0327019Y0053720D01*
X0327110Y0053591D01*
X0327199Y0053460D01*
X0327283Y0053326D01*
X0327365Y0053190D01*
X0327443Y0053053D01*
X0327517Y0052913D01*
X0327588Y0052771D01*
X0327656Y0052628D01*
X0327720Y0052483D01*
X0327780Y0052337D01*
X0327836Y0052189D01*
X0327889Y0052040D01*
X0327938Y0051889D01*
X0327983Y0051737D01*
X0328024Y0051584D01*
X0328062Y0051431D01*
X0328095Y0051276D01*
X0328125Y0051120D01*
X0328151Y0050964D01*
X0328172Y0050807D01*
X0328190Y0050650D01*
X0328204Y0050492D01*
X0328214Y0050334D01*
X0328220Y0050176D01*
X0328222Y0050018D01*
X0328220Y0049860D01*
X0328214Y0049702D01*
X0328204Y0049544D01*
X0328190Y0049386D01*
X0328172Y0049229D01*
X0328151Y0049072D01*
X0328125Y0048916D01*
X0328095Y0048760D01*
X0328062Y0048605D01*
X0328024Y0048452D01*
X0327983Y0048299D01*
X0327938Y0048147D01*
X0327889Y0047996D01*
X0327836Y0047847D01*
X0327780Y0047699D01*
X0327720Y0047553D01*
X0327656Y0047408D01*
X0327588Y0047265D01*
X0327517Y0047123D01*
X0327443Y0046983D01*
X0327365Y0046846D01*
X0327283Y0046710D01*
X0327199Y0046576D01*
X0327110Y0046445D01*
X0327019Y0046316D01*
X0326924Y0046189D01*
X0326827Y0046064D01*
X0326726Y0045942D01*
X0326622Y0045823D01*
X0326515Y0045706D01*
X0326405Y0045592D01*
X0326292Y0045481D01*
X0326177Y0045372D01*
X0326059Y0045267D01*
X0325938Y0045165D01*
X0325815Y0045065D01*
X0325689Y0044969D01*
X0325561Y0044876D01*
X0325431Y0044786D01*
X0325298Y0044700D01*
X0325163Y0044616D01*
X0325027Y0044537D01*
X0324888Y0044460D01*
X0324747Y0044388D01*
X0324605Y0044318D01*
X0324461Y0044253D01*
X0324315Y0044191D01*
X0324168Y0044133D01*
X0324019Y0044078D01*
X0323869Y0044027D01*
X0323718Y0043980D01*
X0323566Y0043937D01*
X0323413Y0043898D01*
X0323258Y0043862D01*
X0323103Y0043831D01*
X0322947Y0043803D01*
X0322791Y0043779D01*
X0322634Y0043759D01*
X0322476Y0043743D01*
X0322319Y0043731D01*
X0322160Y0043723D01*
X0322002Y0043719D01*
X0321844Y0043719D01*
X0321686Y0043723D01*
X0321527Y0043731D01*
X0321370Y0043743D01*
X0321212Y0043759D01*
X0321055Y0043779D01*
X0320899Y0043803D01*
X0320743Y0043831D01*
X0320588Y0043862D01*
X0320433Y0043898D01*
X0320280Y0043937D01*
X0320128Y0043980D01*
X0319977Y0044027D01*
X0319827Y0044078D01*
X0319678Y0044133D01*
X0319531Y0044191D01*
X0319385Y0044253D01*
X0319241Y0044318D01*
X0319099Y0044388D01*
X0318958Y0044460D01*
X0318819Y0044537D01*
X0318683Y0044616D01*
X0318548Y0044700D01*
X0318415Y0044786D01*
X0318285Y0044876D01*
X0318157Y0044969D01*
X0318031Y0045065D01*
X0317908Y0045165D01*
X0317787Y0045267D01*
X0317669Y0045372D01*
X0317554Y0045481D01*
X0317441Y0045592D01*
X0317331Y0045706D01*
X0317224Y0045823D01*
X0317120Y0045942D01*
X0317019Y0046064D01*
X0316922Y0046189D01*
X0316827Y0046316D01*
X0316736Y0046445D01*
X0316647Y0046576D01*
X0316563Y0046710D01*
X0316481Y0046846D01*
X0316403Y0046983D01*
X0316329Y0047123D01*
X0316258Y0047265D01*
X0316190Y0047408D01*
X0316126Y0047553D01*
X0316066Y0047699D01*
X0316010Y0047847D01*
X0315957Y0047996D01*
X0315908Y0048147D01*
X0315863Y0048299D01*
X0315822Y0048452D01*
X0315784Y0048605D01*
X0315751Y0048760D01*
X0315721Y0048916D01*
X0315695Y0049072D01*
X0315674Y0049229D01*
X0315656Y0049386D01*
X0315642Y0049544D01*
X0315632Y0049702D01*
X0315626Y0049860D01*
X0315624Y0050018D01*
X0260624Y0125018D02*
X0260626Y0125176D01*
X0260632Y0125334D01*
X0260642Y0125492D01*
X0260656Y0125650D01*
X0260674Y0125807D01*
X0260695Y0125964D01*
X0260721Y0126120D01*
X0260751Y0126276D01*
X0260784Y0126431D01*
X0260822Y0126584D01*
X0260863Y0126737D01*
X0260908Y0126889D01*
X0260957Y0127040D01*
X0261010Y0127189D01*
X0261066Y0127337D01*
X0261126Y0127483D01*
X0261190Y0127628D01*
X0261258Y0127771D01*
X0261329Y0127913D01*
X0261403Y0128053D01*
X0261481Y0128190D01*
X0261563Y0128326D01*
X0261647Y0128460D01*
X0261736Y0128591D01*
X0261827Y0128720D01*
X0261922Y0128847D01*
X0262019Y0128972D01*
X0262120Y0129094D01*
X0262224Y0129213D01*
X0262331Y0129330D01*
X0262441Y0129444D01*
X0262554Y0129555D01*
X0262669Y0129664D01*
X0262787Y0129769D01*
X0262908Y0129871D01*
X0263031Y0129971D01*
X0263157Y0130067D01*
X0263285Y0130160D01*
X0263415Y0130250D01*
X0263548Y0130336D01*
X0263683Y0130420D01*
X0263819Y0130499D01*
X0263958Y0130576D01*
X0264099Y0130648D01*
X0264241Y0130718D01*
X0264385Y0130783D01*
X0264531Y0130845D01*
X0264678Y0130903D01*
X0264827Y0130958D01*
X0264977Y0131009D01*
X0265128Y0131056D01*
X0265280Y0131099D01*
X0265433Y0131138D01*
X0265588Y0131174D01*
X0265743Y0131205D01*
X0265899Y0131233D01*
X0266055Y0131257D01*
X0266212Y0131277D01*
X0266370Y0131293D01*
X0266527Y0131305D01*
X0266686Y0131313D01*
X0266844Y0131317D01*
X0267002Y0131317D01*
X0267160Y0131313D01*
X0267319Y0131305D01*
X0267476Y0131293D01*
X0267634Y0131277D01*
X0267791Y0131257D01*
X0267947Y0131233D01*
X0268103Y0131205D01*
X0268258Y0131174D01*
X0268413Y0131138D01*
X0268566Y0131099D01*
X0268718Y0131056D01*
X0268869Y0131009D01*
X0269019Y0130958D01*
X0269168Y0130903D01*
X0269315Y0130845D01*
X0269461Y0130783D01*
X0269605Y0130718D01*
X0269747Y0130648D01*
X0269888Y0130576D01*
X0270027Y0130499D01*
X0270163Y0130420D01*
X0270298Y0130336D01*
X0270431Y0130250D01*
X0270561Y0130160D01*
X0270689Y0130067D01*
X0270815Y0129971D01*
X0270938Y0129871D01*
X0271059Y0129769D01*
X0271177Y0129664D01*
X0271292Y0129555D01*
X0271405Y0129444D01*
X0271515Y0129330D01*
X0271622Y0129213D01*
X0271726Y0129094D01*
X0271827Y0128972D01*
X0271924Y0128847D01*
X0272019Y0128720D01*
X0272110Y0128591D01*
X0272199Y0128460D01*
X0272283Y0128326D01*
X0272365Y0128190D01*
X0272443Y0128053D01*
X0272517Y0127913D01*
X0272588Y0127771D01*
X0272656Y0127628D01*
X0272720Y0127483D01*
X0272780Y0127337D01*
X0272836Y0127189D01*
X0272889Y0127040D01*
X0272938Y0126889D01*
X0272983Y0126737D01*
X0273024Y0126584D01*
X0273062Y0126431D01*
X0273095Y0126276D01*
X0273125Y0126120D01*
X0273151Y0125964D01*
X0273172Y0125807D01*
X0273190Y0125650D01*
X0273204Y0125492D01*
X0273214Y0125334D01*
X0273220Y0125176D01*
X0273222Y0125018D01*
X0273220Y0124860D01*
X0273214Y0124702D01*
X0273204Y0124544D01*
X0273190Y0124386D01*
X0273172Y0124229D01*
X0273151Y0124072D01*
X0273125Y0123916D01*
X0273095Y0123760D01*
X0273062Y0123605D01*
X0273024Y0123452D01*
X0272983Y0123299D01*
X0272938Y0123147D01*
X0272889Y0122996D01*
X0272836Y0122847D01*
X0272780Y0122699D01*
X0272720Y0122553D01*
X0272656Y0122408D01*
X0272588Y0122265D01*
X0272517Y0122123D01*
X0272443Y0121983D01*
X0272365Y0121846D01*
X0272283Y0121710D01*
X0272199Y0121576D01*
X0272110Y0121445D01*
X0272019Y0121316D01*
X0271924Y0121189D01*
X0271827Y0121064D01*
X0271726Y0120942D01*
X0271622Y0120823D01*
X0271515Y0120706D01*
X0271405Y0120592D01*
X0271292Y0120481D01*
X0271177Y0120372D01*
X0271059Y0120267D01*
X0270938Y0120165D01*
X0270815Y0120065D01*
X0270689Y0119969D01*
X0270561Y0119876D01*
X0270431Y0119786D01*
X0270298Y0119700D01*
X0270163Y0119616D01*
X0270027Y0119537D01*
X0269888Y0119460D01*
X0269747Y0119388D01*
X0269605Y0119318D01*
X0269461Y0119253D01*
X0269315Y0119191D01*
X0269168Y0119133D01*
X0269019Y0119078D01*
X0268869Y0119027D01*
X0268718Y0118980D01*
X0268566Y0118937D01*
X0268413Y0118898D01*
X0268258Y0118862D01*
X0268103Y0118831D01*
X0267947Y0118803D01*
X0267791Y0118779D01*
X0267634Y0118759D01*
X0267476Y0118743D01*
X0267319Y0118731D01*
X0267160Y0118723D01*
X0267002Y0118719D01*
X0266844Y0118719D01*
X0266686Y0118723D01*
X0266527Y0118731D01*
X0266370Y0118743D01*
X0266212Y0118759D01*
X0266055Y0118779D01*
X0265899Y0118803D01*
X0265743Y0118831D01*
X0265588Y0118862D01*
X0265433Y0118898D01*
X0265280Y0118937D01*
X0265128Y0118980D01*
X0264977Y0119027D01*
X0264827Y0119078D01*
X0264678Y0119133D01*
X0264531Y0119191D01*
X0264385Y0119253D01*
X0264241Y0119318D01*
X0264099Y0119388D01*
X0263958Y0119460D01*
X0263819Y0119537D01*
X0263683Y0119616D01*
X0263548Y0119700D01*
X0263415Y0119786D01*
X0263285Y0119876D01*
X0263157Y0119969D01*
X0263031Y0120065D01*
X0262908Y0120165D01*
X0262787Y0120267D01*
X0262669Y0120372D01*
X0262554Y0120481D01*
X0262441Y0120592D01*
X0262331Y0120706D01*
X0262224Y0120823D01*
X0262120Y0120942D01*
X0262019Y0121064D01*
X0261922Y0121189D01*
X0261827Y0121316D01*
X0261736Y0121445D01*
X0261647Y0121576D01*
X0261563Y0121710D01*
X0261481Y0121846D01*
X0261403Y0121983D01*
X0261329Y0122123D01*
X0261258Y0122265D01*
X0261190Y0122408D01*
X0261126Y0122553D01*
X0261066Y0122699D01*
X0261010Y0122847D01*
X0260957Y0122996D01*
X0260908Y0123147D01*
X0260863Y0123299D01*
X0260822Y0123452D01*
X0260784Y0123605D01*
X0260751Y0123760D01*
X0260721Y0123916D01*
X0260695Y0124072D01*
X0260674Y0124229D01*
X0260656Y0124386D01*
X0260642Y0124544D01*
X0260632Y0124702D01*
X0260626Y0124860D01*
X0260624Y0125018D01*
X0025624Y0125018D02*
X0025626Y0125176D01*
X0025632Y0125334D01*
X0025642Y0125492D01*
X0025656Y0125650D01*
X0025674Y0125807D01*
X0025695Y0125964D01*
X0025721Y0126120D01*
X0025751Y0126276D01*
X0025784Y0126431D01*
X0025822Y0126584D01*
X0025863Y0126737D01*
X0025908Y0126889D01*
X0025957Y0127040D01*
X0026010Y0127189D01*
X0026066Y0127337D01*
X0026126Y0127483D01*
X0026190Y0127628D01*
X0026258Y0127771D01*
X0026329Y0127913D01*
X0026403Y0128053D01*
X0026481Y0128190D01*
X0026563Y0128326D01*
X0026647Y0128460D01*
X0026736Y0128591D01*
X0026827Y0128720D01*
X0026922Y0128847D01*
X0027019Y0128972D01*
X0027120Y0129094D01*
X0027224Y0129213D01*
X0027331Y0129330D01*
X0027441Y0129444D01*
X0027554Y0129555D01*
X0027669Y0129664D01*
X0027787Y0129769D01*
X0027908Y0129871D01*
X0028031Y0129971D01*
X0028157Y0130067D01*
X0028285Y0130160D01*
X0028415Y0130250D01*
X0028548Y0130336D01*
X0028683Y0130420D01*
X0028819Y0130499D01*
X0028958Y0130576D01*
X0029099Y0130648D01*
X0029241Y0130718D01*
X0029385Y0130783D01*
X0029531Y0130845D01*
X0029678Y0130903D01*
X0029827Y0130958D01*
X0029977Y0131009D01*
X0030128Y0131056D01*
X0030280Y0131099D01*
X0030433Y0131138D01*
X0030588Y0131174D01*
X0030743Y0131205D01*
X0030899Y0131233D01*
X0031055Y0131257D01*
X0031212Y0131277D01*
X0031370Y0131293D01*
X0031527Y0131305D01*
X0031686Y0131313D01*
X0031844Y0131317D01*
X0032002Y0131317D01*
X0032160Y0131313D01*
X0032319Y0131305D01*
X0032476Y0131293D01*
X0032634Y0131277D01*
X0032791Y0131257D01*
X0032947Y0131233D01*
X0033103Y0131205D01*
X0033258Y0131174D01*
X0033413Y0131138D01*
X0033566Y0131099D01*
X0033718Y0131056D01*
X0033869Y0131009D01*
X0034019Y0130958D01*
X0034168Y0130903D01*
X0034315Y0130845D01*
X0034461Y0130783D01*
X0034605Y0130718D01*
X0034747Y0130648D01*
X0034888Y0130576D01*
X0035027Y0130499D01*
X0035163Y0130420D01*
X0035298Y0130336D01*
X0035431Y0130250D01*
X0035561Y0130160D01*
X0035689Y0130067D01*
X0035815Y0129971D01*
X0035938Y0129871D01*
X0036059Y0129769D01*
X0036177Y0129664D01*
X0036292Y0129555D01*
X0036405Y0129444D01*
X0036515Y0129330D01*
X0036622Y0129213D01*
X0036726Y0129094D01*
X0036827Y0128972D01*
X0036924Y0128847D01*
X0037019Y0128720D01*
X0037110Y0128591D01*
X0037199Y0128460D01*
X0037283Y0128326D01*
X0037365Y0128190D01*
X0037443Y0128053D01*
X0037517Y0127913D01*
X0037588Y0127771D01*
X0037656Y0127628D01*
X0037720Y0127483D01*
X0037780Y0127337D01*
X0037836Y0127189D01*
X0037889Y0127040D01*
X0037938Y0126889D01*
X0037983Y0126737D01*
X0038024Y0126584D01*
X0038062Y0126431D01*
X0038095Y0126276D01*
X0038125Y0126120D01*
X0038151Y0125964D01*
X0038172Y0125807D01*
X0038190Y0125650D01*
X0038204Y0125492D01*
X0038214Y0125334D01*
X0038220Y0125176D01*
X0038222Y0125018D01*
X0038220Y0124860D01*
X0038214Y0124702D01*
X0038204Y0124544D01*
X0038190Y0124386D01*
X0038172Y0124229D01*
X0038151Y0124072D01*
X0038125Y0123916D01*
X0038095Y0123760D01*
X0038062Y0123605D01*
X0038024Y0123452D01*
X0037983Y0123299D01*
X0037938Y0123147D01*
X0037889Y0122996D01*
X0037836Y0122847D01*
X0037780Y0122699D01*
X0037720Y0122553D01*
X0037656Y0122408D01*
X0037588Y0122265D01*
X0037517Y0122123D01*
X0037443Y0121983D01*
X0037365Y0121846D01*
X0037283Y0121710D01*
X0037199Y0121576D01*
X0037110Y0121445D01*
X0037019Y0121316D01*
X0036924Y0121189D01*
X0036827Y0121064D01*
X0036726Y0120942D01*
X0036622Y0120823D01*
X0036515Y0120706D01*
X0036405Y0120592D01*
X0036292Y0120481D01*
X0036177Y0120372D01*
X0036059Y0120267D01*
X0035938Y0120165D01*
X0035815Y0120065D01*
X0035689Y0119969D01*
X0035561Y0119876D01*
X0035431Y0119786D01*
X0035298Y0119700D01*
X0035163Y0119616D01*
X0035027Y0119537D01*
X0034888Y0119460D01*
X0034747Y0119388D01*
X0034605Y0119318D01*
X0034461Y0119253D01*
X0034315Y0119191D01*
X0034168Y0119133D01*
X0034019Y0119078D01*
X0033869Y0119027D01*
X0033718Y0118980D01*
X0033566Y0118937D01*
X0033413Y0118898D01*
X0033258Y0118862D01*
X0033103Y0118831D01*
X0032947Y0118803D01*
X0032791Y0118779D01*
X0032634Y0118759D01*
X0032476Y0118743D01*
X0032319Y0118731D01*
X0032160Y0118723D01*
X0032002Y0118719D01*
X0031844Y0118719D01*
X0031686Y0118723D01*
X0031527Y0118731D01*
X0031370Y0118743D01*
X0031212Y0118759D01*
X0031055Y0118779D01*
X0030899Y0118803D01*
X0030743Y0118831D01*
X0030588Y0118862D01*
X0030433Y0118898D01*
X0030280Y0118937D01*
X0030128Y0118980D01*
X0029977Y0119027D01*
X0029827Y0119078D01*
X0029678Y0119133D01*
X0029531Y0119191D01*
X0029385Y0119253D01*
X0029241Y0119318D01*
X0029099Y0119388D01*
X0028958Y0119460D01*
X0028819Y0119537D01*
X0028683Y0119616D01*
X0028548Y0119700D01*
X0028415Y0119786D01*
X0028285Y0119876D01*
X0028157Y0119969D01*
X0028031Y0120065D01*
X0027908Y0120165D01*
X0027787Y0120267D01*
X0027669Y0120372D01*
X0027554Y0120481D01*
X0027441Y0120592D01*
X0027331Y0120706D01*
X0027224Y0120823D01*
X0027120Y0120942D01*
X0027019Y0121064D01*
X0026922Y0121189D01*
X0026827Y0121316D01*
X0026736Y0121445D01*
X0026647Y0121576D01*
X0026563Y0121710D01*
X0026481Y0121846D01*
X0026403Y0121983D01*
X0026329Y0122123D01*
X0026258Y0122265D01*
X0026190Y0122408D01*
X0026126Y0122553D01*
X0026066Y0122699D01*
X0026010Y0122847D01*
X0025957Y0122996D01*
X0025908Y0123147D01*
X0025863Y0123299D01*
X0025822Y0123452D01*
X0025784Y0123605D01*
X0025751Y0123760D01*
X0025721Y0123916D01*
X0025695Y0124072D01*
X0025674Y0124229D01*
X0025656Y0124386D01*
X0025642Y0124544D01*
X0025632Y0124702D01*
X0025626Y0124860D01*
X0025624Y0125018D01*
X0480624Y0050018D02*
X0480626Y0050176D01*
X0480632Y0050334D01*
X0480642Y0050492D01*
X0480656Y0050650D01*
X0480674Y0050807D01*
X0480695Y0050964D01*
X0480721Y0051120D01*
X0480751Y0051276D01*
X0480784Y0051431D01*
X0480822Y0051584D01*
X0480863Y0051737D01*
X0480908Y0051889D01*
X0480957Y0052040D01*
X0481010Y0052189D01*
X0481066Y0052337D01*
X0481126Y0052483D01*
X0481190Y0052628D01*
X0481258Y0052771D01*
X0481329Y0052913D01*
X0481403Y0053053D01*
X0481481Y0053190D01*
X0481563Y0053326D01*
X0481647Y0053460D01*
X0481736Y0053591D01*
X0481827Y0053720D01*
X0481922Y0053847D01*
X0482019Y0053972D01*
X0482120Y0054094D01*
X0482224Y0054213D01*
X0482331Y0054330D01*
X0482441Y0054444D01*
X0482554Y0054555D01*
X0482669Y0054664D01*
X0482787Y0054769D01*
X0482908Y0054871D01*
X0483031Y0054971D01*
X0483157Y0055067D01*
X0483285Y0055160D01*
X0483415Y0055250D01*
X0483548Y0055336D01*
X0483683Y0055420D01*
X0483819Y0055499D01*
X0483958Y0055576D01*
X0484099Y0055648D01*
X0484241Y0055718D01*
X0484385Y0055783D01*
X0484531Y0055845D01*
X0484678Y0055903D01*
X0484827Y0055958D01*
X0484977Y0056009D01*
X0485128Y0056056D01*
X0485280Y0056099D01*
X0485433Y0056138D01*
X0485588Y0056174D01*
X0485743Y0056205D01*
X0485899Y0056233D01*
X0486055Y0056257D01*
X0486212Y0056277D01*
X0486370Y0056293D01*
X0486527Y0056305D01*
X0486686Y0056313D01*
X0486844Y0056317D01*
X0487002Y0056317D01*
X0487160Y0056313D01*
X0487319Y0056305D01*
X0487476Y0056293D01*
X0487634Y0056277D01*
X0487791Y0056257D01*
X0487947Y0056233D01*
X0488103Y0056205D01*
X0488258Y0056174D01*
X0488413Y0056138D01*
X0488566Y0056099D01*
X0488718Y0056056D01*
X0488869Y0056009D01*
X0489019Y0055958D01*
X0489168Y0055903D01*
X0489315Y0055845D01*
X0489461Y0055783D01*
X0489605Y0055718D01*
X0489747Y0055648D01*
X0489888Y0055576D01*
X0490027Y0055499D01*
X0490163Y0055420D01*
X0490298Y0055336D01*
X0490431Y0055250D01*
X0490561Y0055160D01*
X0490689Y0055067D01*
X0490815Y0054971D01*
X0490938Y0054871D01*
X0491059Y0054769D01*
X0491177Y0054664D01*
X0491292Y0054555D01*
X0491405Y0054444D01*
X0491515Y0054330D01*
X0491622Y0054213D01*
X0491726Y0054094D01*
X0491827Y0053972D01*
X0491924Y0053847D01*
X0492019Y0053720D01*
X0492110Y0053591D01*
X0492199Y0053460D01*
X0492283Y0053326D01*
X0492365Y0053190D01*
X0492443Y0053053D01*
X0492517Y0052913D01*
X0492588Y0052771D01*
X0492656Y0052628D01*
X0492720Y0052483D01*
X0492780Y0052337D01*
X0492836Y0052189D01*
X0492889Y0052040D01*
X0492938Y0051889D01*
X0492983Y0051737D01*
X0493024Y0051584D01*
X0493062Y0051431D01*
X0493095Y0051276D01*
X0493125Y0051120D01*
X0493151Y0050964D01*
X0493172Y0050807D01*
X0493190Y0050650D01*
X0493204Y0050492D01*
X0493214Y0050334D01*
X0493220Y0050176D01*
X0493222Y0050018D01*
X0493220Y0049860D01*
X0493214Y0049702D01*
X0493204Y0049544D01*
X0493190Y0049386D01*
X0493172Y0049229D01*
X0493151Y0049072D01*
X0493125Y0048916D01*
X0493095Y0048760D01*
X0493062Y0048605D01*
X0493024Y0048452D01*
X0492983Y0048299D01*
X0492938Y0048147D01*
X0492889Y0047996D01*
X0492836Y0047847D01*
X0492780Y0047699D01*
X0492720Y0047553D01*
X0492656Y0047408D01*
X0492588Y0047265D01*
X0492517Y0047123D01*
X0492443Y0046983D01*
X0492365Y0046846D01*
X0492283Y0046710D01*
X0492199Y0046576D01*
X0492110Y0046445D01*
X0492019Y0046316D01*
X0491924Y0046189D01*
X0491827Y0046064D01*
X0491726Y0045942D01*
X0491622Y0045823D01*
X0491515Y0045706D01*
X0491405Y0045592D01*
X0491292Y0045481D01*
X0491177Y0045372D01*
X0491059Y0045267D01*
X0490938Y0045165D01*
X0490815Y0045065D01*
X0490689Y0044969D01*
X0490561Y0044876D01*
X0490431Y0044786D01*
X0490298Y0044700D01*
X0490163Y0044616D01*
X0490027Y0044537D01*
X0489888Y0044460D01*
X0489747Y0044388D01*
X0489605Y0044318D01*
X0489461Y0044253D01*
X0489315Y0044191D01*
X0489168Y0044133D01*
X0489019Y0044078D01*
X0488869Y0044027D01*
X0488718Y0043980D01*
X0488566Y0043937D01*
X0488413Y0043898D01*
X0488258Y0043862D01*
X0488103Y0043831D01*
X0487947Y0043803D01*
X0487791Y0043779D01*
X0487634Y0043759D01*
X0487476Y0043743D01*
X0487319Y0043731D01*
X0487160Y0043723D01*
X0487002Y0043719D01*
X0486844Y0043719D01*
X0486686Y0043723D01*
X0486527Y0043731D01*
X0486370Y0043743D01*
X0486212Y0043759D01*
X0486055Y0043779D01*
X0485899Y0043803D01*
X0485743Y0043831D01*
X0485588Y0043862D01*
X0485433Y0043898D01*
X0485280Y0043937D01*
X0485128Y0043980D01*
X0484977Y0044027D01*
X0484827Y0044078D01*
X0484678Y0044133D01*
X0484531Y0044191D01*
X0484385Y0044253D01*
X0484241Y0044318D01*
X0484099Y0044388D01*
X0483958Y0044460D01*
X0483819Y0044537D01*
X0483683Y0044616D01*
X0483548Y0044700D01*
X0483415Y0044786D01*
X0483285Y0044876D01*
X0483157Y0044969D01*
X0483031Y0045065D01*
X0482908Y0045165D01*
X0482787Y0045267D01*
X0482669Y0045372D01*
X0482554Y0045481D01*
X0482441Y0045592D01*
X0482331Y0045706D01*
X0482224Y0045823D01*
X0482120Y0045942D01*
X0482019Y0046064D01*
X0481922Y0046189D01*
X0481827Y0046316D01*
X0481736Y0046445D01*
X0481647Y0046576D01*
X0481563Y0046710D01*
X0481481Y0046846D01*
X0481403Y0046983D01*
X0481329Y0047123D01*
X0481258Y0047265D01*
X0481190Y0047408D01*
X0481126Y0047553D01*
X0481066Y0047699D01*
X0481010Y0047847D01*
X0480957Y0047996D01*
X0480908Y0048147D01*
X0480863Y0048299D01*
X0480822Y0048452D01*
X0480784Y0048605D01*
X0480751Y0048760D01*
X0480721Y0048916D01*
X0480695Y0049072D01*
X0480674Y0049229D01*
X0480656Y0049386D01*
X0480642Y0049544D01*
X0480632Y0049702D01*
X0480626Y0049860D01*
X0480624Y0050018D01*
X0565624Y0125018D02*
X0565626Y0125176D01*
X0565632Y0125334D01*
X0565642Y0125492D01*
X0565656Y0125650D01*
X0565674Y0125807D01*
X0565695Y0125964D01*
X0565721Y0126120D01*
X0565751Y0126276D01*
X0565784Y0126431D01*
X0565822Y0126584D01*
X0565863Y0126737D01*
X0565908Y0126889D01*
X0565957Y0127040D01*
X0566010Y0127189D01*
X0566066Y0127337D01*
X0566126Y0127483D01*
X0566190Y0127628D01*
X0566258Y0127771D01*
X0566329Y0127913D01*
X0566403Y0128053D01*
X0566481Y0128190D01*
X0566563Y0128326D01*
X0566647Y0128460D01*
X0566736Y0128591D01*
X0566827Y0128720D01*
X0566922Y0128847D01*
X0567019Y0128972D01*
X0567120Y0129094D01*
X0567224Y0129213D01*
X0567331Y0129330D01*
X0567441Y0129444D01*
X0567554Y0129555D01*
X0567669Y0129664D01*
X0567787Y0129769D01*
X0567908Y0129871D01*
X0568031Y0129971D01*
X0568157Y0130067D01*
X0568285Y0130160D01*
X0568415Y0130250D01*
X0568548Y0130336D01*
X0568683Y0130420D01*
X0568819Y0130499D01*
X0568958Y0130576D01*
X0569099Y0130648D01*
X0569241Y0130718D01*
X0569385Y0130783D01*
X0569531Y0130845D01*
X0569678Y0130903D01*
X0569827Y0130958D01*
X0569977Y0131009D01*
X0570128Y0131056D01*
X0570280Y0131099D01*
X0570433Y0131138D01*
X0570588Y0131174D01*
X0570743Y0131205D01*
X0570899Y0131233D01*
X0571055Y0131257D01*
X0571212Y0131277D01*
X0571370Y0131293D01*
X0571527Y0131305D01*
X0571686Y0131313D01*
X0571844Y0131317D01*
X0572002Y0131317D01*
X0572160Y0131313D01*
X0572319Y0131305D01*
X0572476Y0131293D01*
X0572634Y0131277D01*
X0572791Y0131257D01*
X0572947Y0131233D01*
X0573103Y0131205D01*
X0573258Y0131174D01*
X0573413Y0131138D01*
X0573566Y0131099D01*
X0573718Y0131056D01*
X0573869Y0131009D01*
X0574019Y0130958D01*
X0574168Y0130903D01*
X0574315Y0130845D01*
X0574461Y0130783D01*
X0574605Y0130718D01*
X0574747Y0130648D01*
X0574888Y0130576D01*
X0575027Y0130499D01*
X0575163Y0130420D01*
X0575298Y0130336D01*
X0575431Y0130250D01*
X0575561Y0130160D01*
X0575689Y0130067D01*
X0575815Y0129971D01*
X0575938Y0129871D01*
X0576059Y0129769D01*
X0576177Y0129664D01*
X0576292Y0129555D01*
X0576405Y0129444D01*
X0576515Y0129330D01*
X0576622Y0129213D01*
X0576726Y0129094D01*
X0576827Y0128972D01*
X0576924Y0128847D01*
X0577019Y0128720D01*
X0577110Y0128591D01*
X0577199Y0128460D01*
X0577283Y0128326D01*
X0577365Y0128190D01*
X0577443Y0128053D01*
X0577517Y0127913D01*
X0577588Y0127771D01*
X0577656Y0127628D01*
X0577720Y0127483D01*
X0577780Y0127337D01*
X0577836Y0127189D01*
X0577889Y0127040D01*
X0577938Y0126889D01*
X0577983Y0126737D01*
X0578024Y0126584D01*
X0578062Y0126431D01*
X0578095Y0126276D01*
X0578125Y0126120D01*
X0578151Y0125964D01*
X0578172Y0125807D01*
X0578190Y0125650D01*
X0578204Y0125492D01*
X0578214Y0125334D01*
X0578220Y0125176D01*
X0578222Y0125018D01*
X0578220Y0124860D01*
X0578214Y0124702D01*
X0578204Y0124544D01*
X0578190Y0124386D01*
X0578172Y0124229D01*
X0578151Y0124072D01*
X0578125Y0123916D01*
X0578095Y0123760D01*
X0578062Y0123605D01*
X0578024Y0123452D01*
X0577983Y0123299D01*
X0577938Y0123147D01*
X0577889Y0122996D01*
X0577836Y0122847D01*
X0577780Y0122699D01*
X0577720Y0122553D01*
X0577656Y0122408D01*
X0577588Y0122265D01*
X0577517Y0122123D01*
X0577443Y0121983D01*
X0577365Y0121846D01*
X0577283Y0121710D01*
X0577199Y0121576D01*
X0577110Y0121445D01*
X0577019Y0121316D01*
X0576924Y0121189D01*
X0576827Y0121064D01*
X0576726Y0120942D01*
X0576622Y0120823D01*
X0576515Y0120706D01*
X0576405Y0120592D01*
X0576292Y0120481D01*
X0576177Y0120372D01*
X0576059Y0120267D01*
X0575938Y0120165D01*
X0575815Y0120065D01*
X0575689Y0119969D01*
X0575561Y0119876D01*
X0575431Y0119786D01*
X0575298Y0119700D01*
X0575163Y0119616D01*
X0575027Y0119537D01*
X0574888Y0119460D01*
X0574747Y0119388D01*
X0574605Y0119318D01*
X0574461Y0119253D01*
X0574315Y0119191D01*
X0574168Y0119133D01*
X0574019Y0119078D01*
X0573869Y0119027D01*
X0573718Y0118980D01*
X0573566Y0118937D01*
X0573413Y0118898D01*
X0573258Y0118862D01*
X0573103Y0118831D01*
X0572947Y0118803D01*
X0572791Y0118779D01*
X0572634Y0118759D01*
X0572476Y0118743D01*
X0572319Y0118731D01*
X0572160Y0118723D01*
X0572002Y0118719D01*
X0571844Y0118719D01*
X0571686Y0118723D01*
X0571527Y0118731D01*
X0571370Y0118743D01*
X0571212Y0118759D01*
X0571055Y0118779D01*
X0570899Y0118803D01*
X0570743Y0118831D01*
X0570588Y0118862D01*
X0570433Y0118898D01*
X0570280Y0118937D01*
X0570128Y0118980D01*
X0569977Y0119027D01*
X0569827Y0119078D01*
X0569678Y0119133D01*
X0569531Y0119191D01*
X0569385Y0119253D01*
X0569241Y0119318D01*
X0569099Y0119388D01*
X0568958Y0119460D01*
X0568819Y0119537D01*
X0568683Y0119616D01*
X0568548Y0119700D01*
X0568415Y0119786D01*
X0568285Y0119876D01*
X0568157Y0119969D01*
X0568031Y0120065D01*
X0567908Y0120165D01*
X0567787Y0120267D01*
X0567669Y0120372D01*
X0567554Y0120481D01*
X0567441Y0120592D01*
X0567331Y0120706D01*
X0567224Y0120823D01*
X0567120Y0120942D01*
X0567019Y0121064D01*
X0566922Y0121189D01*
X0566827Y0121316D01*
X0566736Y0121445D01*
X0566647Y0121576D01*
X0566563Y0121710D01*
X0566481Y0121846D01*
X0566403Y0121983D01*
X0566329Y0122123D01*
X0566258Y0122265D01*
X0566190Y0122408D01*
X0566126Y0122553D01*
X0566066Y0122699D01*
X0566010Y0122847D01*
X0565957Y0122996D01*
X0565908Y0123147D01*
X0565863Y0123299D01*
X0565822Y0123452D01*
X0565784Y0123605D01*
X0565751Y0123760D01*
X0565721Y0123916D01*
X0565695Y0124072D01*
X0565674Y0124229D01*
X0565656Y0124386D01*
X0565642Y0124544D01*
X0565632Y0124702D01*
X0565626Y0124860D01*
X0565624Y0125018D01*
M02*
