%TF.GenerationSoftware,KiCad,Pcbnew,7.0.8-7.0.8~ubuntu22.04.1*%
%TF.CreationDate,2023-10-12T13:08:16-04:00*%
%TF.ProjectId,flex-IQ80xL,666c6578-2d49-4513-9830-784c2e6b6963,rev?*%
%TF.SameCoordinates,Original*%
%TF.FileFunction,Copper,L2,Bot*%
%TF.FilePolarity,Positive*%
%FSLAX46Y46*%
G04 Gerber Fmt 4.6, Leading zero omitted, Abs format (unit mm)*
G04 Created by KiCad (PCBNEW 7.0.8-7.0.8~ubuntu22.04.1) date 2023-10-12 13:08:16*
%MOMM*%
%LPD*%
G01*
G04 APERTURE LIST*
G04 Aperture macros list*
%AMRoundRect*
0 Rectangle with rounded corners*
0 $1 Rounding radius*
0 $2 $3 $4 $5 $6 $7 $8 $9 X,Y pos of 4 corners*
0 Add a 4 corners polygon primitive as box body*
4,1,4,$2,$3,$4,$5,$6,$7,$8,$9,$2,$3,0*
0 Add four circle primitives for the rounded corners*
1,1,$1+$1,$2,$3*
1,1,$1+$1,$4,$5*
1,1,$1+$1,$6,$7*
1,1,$1+$1,$8,$9*
0 Add four rect primitives between the rounded corners*
20,1,$1+$1,$2,$3,$4,$5,0*
20,1,$1+$1,$4,$5,$6,$7,0*
20,1,$1+$1,$6,$7,$8,$9,0*
20,1,$1+$1,$8,$9,$2,$3,0*%
G04 Aperture macros list end*
%TA.AperFunction,ComponentPad*%
%ADD10C,1.143000*%
%TD*%
%TA.AperFunction,SMDPad,CuDef*%
%ADD11RoundRect,0.225000X0.250000X-0.225000X0.250000X0.225000X-0.250000X0.225000X-0.250000X-0.225000X0*%
%TD*%
%TA.AperFunction,SMDPad,CuDef*%
%ADD12RoundRect,0.200000X-0.275000X0.200000X-0.275000X-0.200000X0.275000X-0.200000X0.275000X0.200000X0*%
%TD*%
%TA.AperFunction,ViaPad*%
%ADD13C,0.400000*%
%TD*%
%TA.AperFunction,Conductor*%
%ADD14C,0.500000*%
%TD*%
%TA.AperFunction,Conductor*%
%ADD15C,0.600000*%
%TD*%
%TA.AperFunction,Conductor*%
%ADD16C,0.700000*%
%TD*%
G04 APERTURE END LIST*
D10*
%TO.P,U1,1,GND*%
%TO.N,GND*%
X25000000Y-22460000D03*
%TO.P,U1,2,OUT*%
%TO.N,Net-(U1-OUT)*%
X22460000Y-25000000D03*
%TO.P,U1,3,V+*%
%TO.N,VCC*%
X25000000Y-27540000D03*
%TO.P,U1,4,V-*%
%TO.N,VSS*%
X27540000Y-25000000D03*
%TO.P,U1,5,CASE*%
%TO.N,GND*%
X25000000Y-25000000D03*
%TD*%
D11*
%TO.P,C2,1*%
%TO.N,VSS*%
X27000000Y-23725000D03*
%TO.P,C2,2*%
%TO.N,GND*%
X27000000Y-22175000D03*
%TD*%
%TO.P,C1,1*%
%TO.N,VCC*%
X27000000Y-27825000D03*
%TO.P,C1,2*%
%TO.N,GND*%
X27000000Y-26275000D03*
%TD*%
D12*
%TO.P,R1,1*%
%TO.N,Net-(U1-OUT)*%
X23100000Y-26325000D03*
%TO.P,R1,2*%
%TO.N,Net-(J1-Pin_2)*%
X23100000Y-27975000D03*
%TD*%
D13*
%TO.N,GND*%
X27975000Y-26275000D03*
%TO.N,VCC*%
X29950000Y-234000000D03*
%TO.N,VSS*%
X24250000Y-29900000D03*
X30050000Y-232500000D03*
X24000000Y-26900000D03*
%TO.N,Net-(J1-Pin_2)*%
X34850000Y-233250000D03*
%TD*%
D14*
%TO.N,Net-(U1-OUT)*%
X22460000Y-25000000D02*
X22460000Y-25685000D01*
X22460000Y-25685000D02*
X23100000Y-26325000D01*
%TO.N,VCC*%
X25000000Y-27540000D02*
X25000000Y-28325000D01*
X25000000Y-28325000D02*
X25750000Y-29075000D01*
%TO.N,GND*%
X27000000Y-26275000D02*
X27975000Y-26275000D01*
X28000000Y-26300000D02*
X27975000Y-26275000D01*
X27000000Y-22175000D02*
X25285000Y-22175000D01*
X25285000Y-22175000D02*
X25000000Y-22460000D01*
D15*
%TO.N,VCC*%
X25750000Y-29075000D02*
X25750000Y-29100000D01*
X27000000Y-27825000D02*
X25750000Y-29075000D01*
X25750000Y-29100000D02*
X25750000Y-32500000D01*
X29950000Y-234000000D02*
X245000000Y-234000000D01*
X27000000Y-27825000D02*
X26925000Y-27825000D01*
X25750000Y-32500000D02*
X245000000Y-32500000D01*
X245000000Y-234000000D02*
G75*
G03*
X245000000Y-32500000I0J100750000D01*
G01*
%TO.N,VSS*%
X26750000Y-25000000D02*
X25550000Y-26200000D01*
X27000000Y-24460000D02*
X27540000Y-25000000D01*
X30050000Y-232500000D02*
X245000000Y-232500000D01*
X27000000Y-23725000D02*
X27000000Y-24460000D01*
X24250000Y-29900000D02*
X24250000Y-34000000D01*
X27540000Y-25000000D02*
X26750000Y-25000000D01*
X25550000Y-26200000D02*
X24700000Y-26200000D01*
X24250000Y-34000000D02*
X245000000Y-34000000D01*
X24700000Y-26200000D02*
X24000000Y-26900000D01*
X245000000Y-232500000D02*
G75*
G03*
X245000000Y-34000000I0J99250000D01*
G01*
D16*
%TO.N,Net-(J1-Pin_2)*%
X23100000Y-27975000D02*
X23575000Y-27975000D01*
X23575000Y-27975000D02*
X25000000Y-29400000D01*
X25000000Y-33250000D02*
X245000000Y-33250000D01*
X25000000Y-29400000D02*
X25000000Y-33250000D01*
D15*
X34850000Y-233250000D02*
X245000000Y-233250000D01*
D16*
X245000000Y-233250000D02*
G75*
G03*
X245000000Y-33250000I0J100000000D01*
G01*
%TD*%
M02*
