M48
; DRILL file {KiCad 7.0.6-7.0.6~ubuntu22.04.1} date Tue 01 Aug 2023 10:33:06 AM EDT
; FORMAT={-:-/ absolute / inch / decimal}
; #@! TF.CreationDate,2023-08-01T10:33:06-04:00
; #@! TF.GenerationSoftware,Kicad,Pcbnew,7.0.6-7.0.6~ubuntu22.04.1
; #@! TF.FileFunction,Plated,1,4,PTH
FMAT,2
INCH
; #@! TA.AperFunction,Plated,PTH,ViaDrill
T1C0.0120
; #@! TA.AperFunction,Plated,PTH,ComponentDrill
T2C0.0350
; #@! TA.AperFunction,Plated,PTH,ComponentDrill
T3C0.0394
; #@! TA.AperFunction,Plated,PTH,ComponentDrill
T4C0.0791
; #@! TA.AperFunction,Plated,PTH,ComponentDrill
T5C0.1063
%
G90
G05
T1
X4.4Y-1.25
X4.4Y-1.35
X4.4Y-1.45
X4.4Y-1.55
X4.4Y-1.65
X4.4Y-1.75
X4.4Y-1.85
X4.4Y-2.0
X4.8Y-1.25
X4.8Y-1.35
X4.8Y-1.45
X4.8Y-1.55
X4.8Y-1.65
X4.8Y-1.75
X4.8Y-1.85
X4.8Y-1.95
X4.9Y-1.2
X4.9Y-1.3
X4.9Y-1.4
X4.9Y-1.5
X4.9Y-1.6
X4.9Y-1.7
X4.9Y-1.8
X4.9Y-1.9
X5.5Y-1.9
X5.85Y-1.9829
T2
X3.1Y-1.325
X3.1Y-1.425
T3
X2.8744Y-1.8748
X2.8744Y-1.9748
X2.9744Y-1.8748
X2.9744Y-1.9748
X3.0744Y-1.8748
X3.0744Y-1.9748
X3.875Y-1.05
X3.875Y-1.15
X3.875Y-1.25
X3.875Y-1.35
X3.875Y-1.45
X3.875Y-1.55
X3.875Y-1.65
X3.875Y-1.75
X3.975Y-1.05
X3.975Y-1.15
X3.975Y-1.25
X3.975Y-1.35
X3.975Y-1.45
X3.975Y-1.55
X3.975Y-1.65
X3.975Y-1.75
T4
X2.9Y-1.125
X2.9Y-1.525
T5
X2.7Y-0.9
X2.7Y-2.125
X6.775Y-0.9
X6.775Y-2.125
T0
M30
