%TF.GenerationSoftware,KiCad,Pcbnew,7.0.6-7.0.6~ubuntu22.04.1*%
%TF.CreationDate,2023-08-01T10:33:02-04:00*%
%TF.ProjectId,test-board,74657374-2d62-46f6-9172-642e6b696361,rev?*%
%TF.SameCoordinates,Original*%
%TF.FileFunction,Copper,L4,Bot*%
%TF.FilePolarity,Positive*%
%FSLAX46Y46*%
G04 Gerber Fmt 4.6, Leading zero omitted, Abs format (unit mm)*
G04 Created by KiCad (PCBNEW 7.0.6-7.0.6~ubuntu22.04.1) date 2023-08-01 10:33:02*
%MOMM*%
%LPD*%
G01*
G04 APERTURE LIST*
%TA.AperFunction,ComponentPad*%
%ADD10C,4.700000*%
%TD*%
%TA.AperFunction,ComponentPad*%
%ADD11R,1.700000X1.700000*%
%TD*%
%TA.AperFunction,ComponentPad*%
%ADD12O,1.700000X1.700000*%
%TD*%
%TA.AperFunction,SMDPad,CuDef*%
%ADD13R,2.400000X0.740000*%
%TD*%
%TA.AperFunction,ComponentPad*%
%ADD14O,2.500000X1.600000*%
%TD*%
%TA.AperFunction,ComponentPad*%
%ADD15O,7.000000X3.500000*%
%TD*%
%TA.AperFunction,ViaPad*%
%ADD16C,1.143000*%
%TD*%
%TA.AperFunction,Conductor*%
%ADD17C,0.254000*%
%TD*%
%TA.AperFunction,Conductor*%
%ADD18C,1.270000*%
%TD*%
G04 APERTURE END LIST*
D10*
%TO.P,H4,1*%
%TO.N,N/C*%
X172085000Y-53975000D03*
%TD*%
%TO.P,H3,1*%
%TO.N,N/C*%
X68580000Y-53975000D03*
%TD*%
%TO.P,H2,1*%
%TO.N,N/C*%
X172085000Y-22860000D03*
%TD*%
%TO.P,H1,1*%
%TO.N,N/C*%
X68580000Y-22860000D03*
%TD*%
D11*
%TO.P,J5,1,Pin_1*%
%TO.N,/OUT_0*%
X98425000Y-26670000D03*
D12*
%TO.P,J5,2,Pin_2*%
%TO.N,GND*%
X100965000Y-26670000D03*
%TO.P,J5,3,Pin_3*%
%TO.N,/OUT_1*%
X98425000Y-29210000D03*
%TO.P,J5,4,Pin_4*%
%TO.N,GND*%
X100965000Y-29210000D03*
%TO.P,J5,5,Pin_5*%
%TO.N,/OUT_2*%
X98425000Y-31750000D03*
%TO.P,J5,6,Pin_6*%
%TO.N,GND*%
X100965000Y-31750000D03*
%TO.P,J5,7,Pin_7*%
%TO.N,/OUT_3*%
X98425000Y-34290000D03*
%TO.P,J5,8,Pin_8*%
%TO.N,GND*%
X100965000Y-34290000D03*
%TO.P,J5,9,Pin_9*%
%TO.N,/OUT_4*%
X98425000Y-36830000D03*
%TO.P,J5,10,Pin_10*%
%TO.N,GND*%
X100965000Y-36830000D03*
%TO.P,J5,11,Pin_11*%
%TO.N,/OUT_5*%
X98425000Y-39370000D03*
%TO.P,J5,12,Pin_12*%
%TO.N,GND*%
X100965000Y-39370000D03*
%TO.P,J5,13,Pin_13*%
%TO.N,/OUT_6*%
X98425000Y-41910000D03*
%TO.P,J5,14,Pin_14*%
%TO.N,GND*%
X100965000Y-41910000D03*
%TO.P,J5,15,Pin_15*%
%TO.N,/OUT_7*%
X98425000Y-44450000D03*
%TO.P,J5,16,Pin_16*%
%TO.N,GND*%
X100965000Y-44450000D03*
%TD*%
D11*
%TO.P,J6,1,Pin_1*%
%TO.N,/+6.5V*%
X78090000Y-47620000D03*
D12*
%TO.P,J6,2,Pin_2*%
%TO.N,GND*%
X78090000Y-50160000D03*
%TO.P,J6,3,Pin_3*%
%TO.N,/+5V*%
X75550000Y-47620000D03*
%TO.P,J6,4,Pin_4*%
%TO.N,GND*%
X75550000Y-50160000D03*
%TO.P,J6,5,Pin_5*%
%TO.N,/-20V*%
X73010000Y-47620000D03*
%TO.P,J6,6,Pin_6*%
%TO.N,GND*%
X73010000Y-50160000D03*
%TD*%
D13*
%TO.P,J2,4,Pin_4*%
%TO.N,Net-(J2-Pin_4)*%
X154350000Y-50165000D03*
%TO.P,J2,3,Pin_3*%
%TO.N,GND*%
X150450000Y-50165000D03*
%TO.P,J2,2,Pin_2*%
%TO.N,unconnected-(J2-Pin_2-Pad2)*%
X154350000Y-51435000D03*
%TO.P,J2,1,Pin_1*%
%TO.N,/+5V*%
X150450000Y-51435000D03*
%TD*%
D14*
%TO.P,J4,1,In*%
%TO.N,Net-(J4-In)*%
X78740000Y-33655000D03*
D15*
%TO.P,J4,2,Ext*%
%TO.N,GND*%
X73660000Y-38735000D03*
D14*
X78740000Y-36195000D03*
D15*
X73660000Y-28575000D03*
%TD*%
D16*
%TO.N,Net-(J2-Pin_4)*%
X139700000Y-48260000D03*
%TO.N,GND*%
X148590000Y-50366500D03*
%TO.N,/+6.5V*%
X111760000Y-50800000D03*
X111760000Y-46990000D03*
X111760000Y-44450000D03*
X111760000Y-41910000D03*
X111760000Y-39370000D03*
X111760000Y-36830000D03*
X111760000Y-34290000D03*
X111760000Y-31750000D03*
%TO.N,/-20V*%
X124460000Y-48260000D03*
X124460000Y-45720000D03*
X124460000Y-43180000D03*
X124460000Y-40640000D03*
X124460000Y-38100000D03*
X124460000Y-35560000D03*
X124460000Y-33020000D03*
X124460000Y-30480000D03*
%TO.N,/OUT_7*%
X121920000Y-49530000D03*
%TO.N,/OUT_6*%
X121920000Y-46990000D03*
%TO.N,/OUT_5*%
X121920000Y-44450000D03*
%TO.N,/OUT_4*%
X121920000Y-41910000D03*
%TO.N,/OUT_3*%
X121920000Y-39370000D03*
%TO.N,/OUT_2*%
X121920000Y-36830000D03*
%TO.N,/OUT_1*%
X121920000Y-34290000D03*
%TO.N,/OUT_0*%
X121920000Y-31750000D03*
%TD*%
D17*
%TO.N,GND*%
X150450000Y-50165000D02*
X148791500Y-50165000D01*
%TO.N,Net-(J2-Pin_4)*%
X153599000Y-49414000D02*
X145934000Y-49414000D01*
%TO.N,GND*%
X148791500Y-50165000D02*
X148590000Y-50366500D01*
%TO.N,Net-(J2-Pin_4)*%
X144780000Y-48260000D02*
X139700000Y-48260000D01*
X154350000Y-50165000D02*
X153599000Y-49414000D01*
X145934000Y-49414000D02*
X144780000Y-48260000D01*
%TO.N,/+5V*%
X75550000Y-47620000D02*
X74295000Y-48875000D01*
X74295000Y-48875000D02*
X74295000Y-52070000D01*
X74295000Y-52070000D02*
X76200000Y-53975000D01*
D18*
X147955000Y-53975000D02*
X76200000Y-53975000D01*
X149225000Y-53975000D02*
X147955000Y-53975000D01*
D17*
X150450000Y-51435000D02*
X150450000Y-52750000D01*
X150450000Y-52750000D02*
X149225000Y-53975000D01*
%TO.N,/OUT_7*%
X98425000Y-44450000D02*
X103505000Y-49530000D01*
X103505000Y-49530000D02*
X121920000Y-49530000D01*
%TO.N,/OUT_6*%
X98425000Y-41910000D02*
X99656000Y-43141000D01*
X99656000Y-43141000D02*
X118071000Y-43141000D01*
X118071000Y-43141000D02*
X121920000Y-46990000D01*
%TO.N,/OUT_5*%
X98425000Y-39370000D02*
X99656000Y-40601000D01*
X99656000Y-40601000D02*
X118071000Y-40601000D01*
X118071000Y-40601000D02*
X121920000Y-44450000D01*
%TO.N,/OUT_4*%
X98425000Y-36830000D02*
X99734000Y-38139000D01*
X99734000Y-38139000D02*
X118149000Y-38139000D01*
X118149000Y-38139000D02*
X121920000Y-41910000D01*
%TO.N,/OUT_3*%
X98425000Y-34290000D02*
X99656000Y-35521000D01*
X99656000Y-35521000D02*
X118071000Y-35521000D01*
X118071000Y-35521000D02*
X121920000Y-39370000D01*
%TO.N,/OUT_2*%
X98425000Y-31750000D02*
X99734000Y-33059000D01*
X99734000Y-33059000D02*
X118149000Y-33059000D01*
X118149000Y-33059000D02*
X121920000Y-36830000D01*
%TO.N,/OUT_1*%
X98425000Y-29210000D02*
X99734000Y-30519000D01*
X118149000Y-30519000D02*
X121920000Y-34290000D01*
X99734000Y-30519000D02*
X118149000Y-30519000D01*
%TO.N,/OUT_0*%
X98425000Y-26670000D02*
X99734000Y-27979000D01*
X99734000Y-27979000D02*
X118149000Y-27979000D01*
X118149000Y-27979000D02*
X121920000Y-31750000D01*
%TD*%
M02*
