%TF.GenerationSoftware,KiCad,Pcbnew,7.0.6-7.0.6~ubuntu22.04.1*%
%TF.CreationDate,2023-08-01T10:33:02-04:00*%
%TF.ProjectId,test-board,74657374-2d62-46f6-9172-642e6b696361,rev?*%
%TF.SameCoordinates,Original*%
%TF.FileFunction,Copper,L3,Inr*%
%TF.FilePolarity,Positive*%
%FSLAX46Y46*%
G04 Gerber Fmt 4.6, Leading zero omitted, Abs format (unit mm)*
G04 Created by KiCad (PCBNEW 7.0.6-7.0.6~ubuntu22.04.1) date 2023-08-01 10:33:02*
%MOMM*%
%LPD*%
G01*
G04 APERTURE LIST*
%TA.AperFunction,ComponentPad*%
%ADD10C,4.700000*%
%TD*%
%TA.AperFunction,ComponentPad*%
%ADD11R,1.700000X1.700000*%
%TD*%
%TA.AperFunction,ComponentPad*%
%ADD12O,1.700000X1.700000*%
%TD*%
%TA.AperFunction,ComponentPad*%
%ADD13O,2.500000X1.600000*%
%TD*%
%TA.AperFunction,ComponentPad*%
%ADD14O,7.000000X3.500000*%
%TD*%
%TA.AperFunction,ViaPad*%
%ADD15C,1.143000*%
%TD*%
G04 APERTURE END LIST*
D10*
%TO.N,N/C*%
%TO.C,H4*%
X172085000Y-53975000D03*
%TD*%
%TO.N,N/C*%
%TO.C,H3*%
X68580000Y-53975000D03*
%TD*%
%TO.N,N/C*%
%TO.C,H2*%
X172085000Y-22860000D03*
%TD*%
%TO.N,N/C*%
%TO.C,H1*%
X68580000Y-22860000D03*
%TD*%
D11*
%TO.N,/OUT_0*%
%TO.C,J5*%
X98425000Y-26670000D03*
D12*
%TO.N,GND*%
X100965000Y-26670000D03*
%TO.N,/OUT_1*%
X98425000Y-29210000D03*
%TO.N,GND*%
X100965000Y-29210000D03*
%TO.N,/OUT_2*%
X98425000Y-31750000D03*
%TO.N,GND*%
X100965000Y-31750000D03*
%TO.N,/OUT_3*%
X98425000Y-34290000D03*
%TO.N,GND*%
X100965000Y-34290000D03*
%TO.N,/OUT_4*%
X98425000Y-36830000D03*
%TO.N,GND*%
X100965000Y-36830000D03*
%TO.N,/OUT_5*%
X98425000Y-39370000D03*
%TO.N,GND*%
X100965000Y-39370000D03*
%TO.N,/OUT_6*%
X98425000Y-41910000D03*
%TO.N,GND*%
X100965000Y-41910000D03*
%TO.N,/OUT_7*%
X98425000Y-44450000D03*
%TO.N,GND*%
X100965000Y-44450000D03*
%TD*%
D11*
%TO.N,/+6.5V*%
%TO.C,J6*%
X78090000Y-47620000D03*
D12*
%TO.N,GND*%
X78090000Y-50160000D03*
%TO.N,/+5V*%
X75550000Y-47620000D03*
%TO.N,GND*%
X75550000Y-50160000D03*
%TO.N,/-20V*%
X73010000Y-47620000D03*
%TO.N,GND*%
X73010000Y-50160000D03*
%TD*%
D13*
%TO.N,Net-(J4-In)*%
%TO.C,J4*%
X78740000Y-33655000D03*
D14*
%TO.N,GND*%
X73660000Y-38735000D03*
D13*
X78740000Y-36195000D03*
D14*
X73660000Y-28575000D03*
%TD*%
D15*
%TO.N,Net-(J2-Pin_4)*%
X139700000Y-48260000D03*
%TO.N,GND*%
X148590000Y-50366500D03*
%TO.N,/+6.5V*%
X111760000Y-50800000D03*
X111760000Y-46990000D03*
X111760000Y-44450000D03*
X111760000Y-41910000D03*
X111760000Y-39370000D03*
X111760000Y-36830000D03*
X111760000Y-34290000D03*
X111760000Y-31750000D03*
%TO.N,/-20V*%
X124460000Y-48260000D03*
X124460000Y-45720000D03*
X124460000Y-43180000D03*
X124460000Y-40640000D03*
X124460000Y-38100000D03*
X124460000Y-35560000D03*
X124460000Y-33020000D03*
X124460000Y-30480000D03*
%TO.N,/OUT_7*%
X121920000Y-49530000D03*
%TO.N,/OUT_6*%
X121920000Y-46990000D03*
%TO.N,/OUT_5*%
X121920000Y-44450000D03*
%TO.N,/OUT_4*%
X121920000Y-41910000D03*
%TO.N,/OUT_3*%
X121920000Y-39370000D03*
%TO.N,/OUT_2*%
X121920000Y-36830000D03*
%TO.N,/OUT_1*%
X121920000Y-34290000D03*
%TO.N,/OUT_0*%
X121920000Y-31750000D03*
%TD*%
%TA.AperFunction,Conductor*%
%TO.N,/+6.5V*%
G36*
X170482057Y-20594502D02*
G01*
X170528550Y-20648158D01*
X170538654Y-20718432D01*
X170509160Y-20783012D01*
X170491643Y-20799685D01*
X170354739Y-20906942D01*
X170354733Y-20906947D01*
X170131947Y-21129733D01*
X170131942Y-21129739D01*
X169937620Y-21377771D01*
X169774615Y-21647416D01*
X169645299Y-21934746D01*
X169551559Y-22235566D01*
X169551557Y-22235575D01*
X169494764Y-22545487D01*
X169494763Y-22545490D01*
X169475740Y-22859998D01*
X169475740Y-22860001D01*
X169494763Y-23174509D01*
X169494764Y-23174512D01*
X169551557Y-23484424D01*
X169551559Y-23484433D01*
X169551560Y-23484437D01*
X169645300Y-23785256D01*
X169774615Y-24072584D01*
X169937621Y-24342229D01*
X170085564Y-24531064D01*
X170131942Y-24590260D01*
X170131947Y-24590266D01*
X170354733Y-24813052D01*
X170354739Y-24813057D01*
X170354741Y-24813059D01*
X170602771Y-25007379D01*
X170872416Y-25170385D01*
X171159744Y-25299700D01*
X171460563Y-25393440D01*
X171770488Y-25450236D01*
X171980162Y-25462918D01*
X172084999Y-25469260D01*
X172085000Y-25469260D01*
X172085001Y-25469260D01*
X172163627Y-25464504D01*
X172399512Y-25450236D01*
X172709437Y-25393440D01*
X173010256Y-25299700D01*
X173297584Y-25170385D01*
X173567229Y-25007379D01*
X173815259Y-24813059D01*
X174038059Y-24590259D01*
X174145315Y-24453356D01*
X174203072Y-24412070D01*
X174273981Y-24408562D01*
X174335531Y-24443947D01*
X174368179Y-24506992D01*
X174370500Y-24531064D01*
X174370500Y-52303935D01*
X174350498Y-52372056D01*
X174296842Y-52418549D01*
X174226568Y-52428653D01*
X174161988Y-52399159D01*
X174145315Y-52381642D01*
X174038057Y-52244739D01*
X174038052Y-52244733D01*
X173815266Y-52021947D01*
X173815260Y-52021942D01*
X173567228Y-51827620D01*
X173403954Y-51728918D01*
X173297584Y-51664615D01*
X173010256Y-51535300D01*
X172709437Y-51441560D01*
X172709435Y-51441559D01*
X172709433Y-51441559D01*
X172709424Y-51441557D01*
X172399512Y-51384764D01*
X172399509Y-51384763D01*
X172085001Y-51365740D01*
X172084999Y-51365740D01*
X171770490Y-51384763D01*
X171770487Y-51384764D01*
X171460575Y-51441557D01*
X171460566Y-51441559D01*
X171159746Y-51535299D01*
X170872416Y-51664615D01*
X170602771Y-51827620D01*
X170354739Y-52021942D01*
X170354733Y-52021947D01*
X170131947Y-52244733D01*
X170131942Y-52244739D01*
X169937620Y-52492771D01*
X169774615Y-52762416D01*
X169645299Y-53049746D01*
X169551559Y-53350566D01*
X169551557Y-53350575D01*
X169494764Y-53660487D01*
X169494763Y-53660490D01*
X169475740Y-53974998D01*
X169475740Y-53975001D01*
X169494763Y-54289509D01*
X169494764Y-54289512D01*
X169551557Y-54599424D01*
X169551559Y-54599433D01*
X169551560Y-54599437D01*
X169645300Y-54900256D01*
X169774615Y-55187584D01*
X169937621Y-55457229D01*
X170085564Y-55646064D01*
X170131942Y-55705260D01*
X170131947Y-55705266D01*
X170354733Y-55928052D01*
X170354739Y-55928057D01*
X170354741Y-55928059D01*
X170491643Y-56035315D01*
X170532930Y-56093072D01*
X170536438Y-56163981D01*
X170501053Y-56225531D01*
X170438008Y-56258179D01*
X170413936Y-56260500D01*
X70251064Y-56260500D01*
X70182943Y-56240498D01*
X70136450Y-56186842D01*
X70126346Y-56116568D01*
X70155840Y-56051988D01*
X70173357Y-56035315D01*
X70310259Y-55928059D01*
X70533059Y-55705259D01*
X70727379Y-55457229D01*
X70890385Y-55187584D01*
X71019700Y-54900256D01*
X71113440Y-54599437D01*
X71170236Y-54289512D01*
X71189260Y-53975000D01*
X71170236Y-53660488D01*
X71113440Y-53350563D01*
X71019700Y-53049744D01*
X70890385Y-52762416D01*
X70727379Y-52492771D01*
X70533059Y-52244741D01*
X70533057Y-52244739D01*
X70533052Y-52244733D01*
X70310266Y-52021947D01*
X70310260Y-52021942D01*
X70062228Y-51827620D01*
X69898954Y-51728918D01*
X69792584Y-51664615D01*
X69505256Y-51535300D01*
X69204437Y-51441560D01*
X69204435Y-51441559D01*
X69204433Y-51441559D01*
X69204424Y-51441557D01*
X68894512Y-51384764D01*
X68894509Y-51384763D01*
X68580001Y-51365740D01*
X68579999Y-51365740D01*
X68265490Y-51384763D01*
X68265487Y-51384764D01*
X67955575Y-51441557D01*
X67955566Y-51441559D01*
X67654746Y-51535299D01*
X67367416Y-51664615D01*
X67097771Y-51827620D01*
X66849739Y-52021942D01*
X66849733Y-52021947D01*
X66626947Y-52244733D01*
X66626933Y-52244749D01*
X66519683Y-52381642D01*
X66461926Y-52422930D01*
X66391017Y-52426437D01*
X66329467Y-52391051D01*
X66296820Y-52328006D01*
X66294500Y-52303945D01*
X66294500Y-50160004D01*
X71900768Y-50160004D01*
X71919654Y-50363819D01*
X71969549Y-50539181D01*
X71975672Y-50560701D01*
X72066912Y-50743935D01*
X72066913Y-50743936D01*
X72190266Y-50907284D01*
X72341536Y-51045185D01*
X72515566Y-51152940D01*
X72515568Y-51152940D01*
X72515573Y-51152944D01*
X72706444Y-51226888D01*
X72907653Y-51264500D01*
X72907655Y-51264500D01*
X73112345Y-51264500D01*
X73112347Y-51264500D01*
X73313556Y-51226888D01*
X73504427Y-51152944D01*
X73678462Y-51045186D01*
X73829732Y-50907285D01*
X73953088Y-50743935D01*
X74044328Y-50560701D01*
X74100345Y-50363821D01*
X74110959Y-50249277D01*
X74119232Y-50160004D01*
X74440768Y-50160004D01*
X74459654Y-50363819D01*
X74509549Y-50539181D01*
X74515672Y-50560701D01*
X74606912Y-50743935D01*
X74606913Y-50743936D01*
X74730266Y-50907284D01*
X74881536Y-51045185D01*
X75055566Y-51152940D01*
X75055568Y-51152940D01*
X75055573Y-51152944D01*
X75246444Y-51226888D01*
X75447653Y-51264500D01*
X75447655Y-51264500D01*
X75652345Y-51264500D01*
X75652347Y-51264500D01*
X75853556Y-51226888D01*
X76044427Y-51152944D01*
X76218462Y-51045186D01*
X76369732Y-50907285D01*
X76493088Y-50743935D01*
X76584328Y-50560701D01*
X76640345Y-50363821D01*
X76650959Y-50249277D01*
X76659232Y-50160004D01*
X76980768Y-50160004D01*
X76999654Y-50363819D01*
X77049549Y-50539181D01*
X77055672Y-50560701D01*
X77146912Y-50743935D01*
X77146913Y-50743936D01*
X77270266Y-50907284D01*
X77421536Y-51045185D01*
X77595566Y-51152940D01*
X77595568Y-51152940D01*
X77595573Y-51152944D01*
X77786444Y-51226888D01*
X77987653Y-51264500D01*
X77987655Y-51264500D01*
X78192345Y-51264500D01*
X78192347Y-51264500D01*
X78393556Y-51226888D01*
X78584427Y-51152944D01*
X78758462Y-51045186D01*
X78909732Y-50907285D01*
X79033088Y-50743935D01*
X79081058Y-50647599D01*
X141853786Y-50647599D01*
X141872613Y-50886821D01*
X141928630Y-51120151D01*
X141943645Y-51156399D01*
X142020460Y-51341849D01*
X142145840Y-51546449D01*
X142301682Y-51728918D01*
X142484151Y-51884760D01*
X142688751Y-52010140D01*
X142910447Y-52101969D01*
X143143778Y-52157987D01*
X143383000Y-52176814D01*
X143622222Y-52157987D01*
X143855553Y-52101969D01*
X144077249Y-52010140D01*
X144281849Y-51884760D01*
X144464318Y-51728918D01*
X144620160Y-51546449D01*
X144745540Y-51341849D01*
X144837369Y-51120153D01*
X144893387Y-50886822D01*
X144912214Y-50647600D01*
X144893387Y-50408378D01*
X144883333Y-50366500D01*
X147759450Y-50366500D01*
X147768172Y-50449486D01*
X147777601Y-50539186D01*
X147831252Y-50704310D01*
X147831256Y-50704317D01*
X147918069Y-50854683D01*
X147918070Y-50854685D01*
X148034251Y-50983717D01*
X148174720Y-51085774D01*
X148174722Y-51085775D01*
X148174725Y-51085777D01*
X148333346Y-51156400D01*
X148503184Y-51192500D01*
X148676816Y-51192500D01*
X148846654Y-51156400D01*
X149005275Y-51085777D01*
X149145746Y-50983719D01*
X149261929Y-50854685D01*
X149348745Y-50704315D01*
X149402400Y-50539181D01*
X149420550Y-50366500D01*
X149402400Y-50193819D01*
X149366529Y-50083418D01*
X149348747Y-50028689D01*
X149348743Y-50028682D01*
X149342681Y-50018183D01*
X149261930Y-49878316D01*
X149261929Y-49878314D01*
X149145748Y-49749282D01*
X149005279Y-49647225D01*
X148846654Y-49576600D01*
X148676816Y-49540500D01*
X148503184Y-49540500D01*
X148333345Y-49576600D01*
X148174720Y-49647225D01*
X148034251Y-49749282D01*
X147918070Y-49878314D01*
X147918069Y-49878316D01*
X147831256Y-50028682D01*
X147831252Y-50028689D01*
X147777601Y-50193813D01*
X147777600Y-50193817D01*
X147777600Y-50193819D01*
X147771771Y-50249277D01*
X147759732Y-50363821D01*
X147759450Y-50366500D01*
X144883333Y-50366500D01*
X144837369Y-50175047D01*
X144745540Y-49953351D01*
X144620160Y-49748751D01*
X144464318Y-49566282D01*
X144281849Y-49410440D01*
X144077249Y-49285060D01*
X143855553Y-49193231D01*
X143855551Y-49193230D01*
X143673401Y-49149500D01*
X143622222Y-49137213D01*
X143383000Y-49118386D01*
X143382999Y-49118386D01*
X143143778Y-49137213D01*
X142910448Y-49193230D01*
X142688752Y-49285059D01*
X142484152Y-49410439D01*
X142301682Y-49566282D01*
X142145839Y-49748752D01*
X142020459Y-49953352D01*
X141928630Y-50175048D01*
X141872613Y-50408378D01*
X141853786Y-50647599D01*
X79081058Y-50647599D01*
X79124328Y-50560701D01*
X79180345Y-50363821D01*
X79190959Y-50249277D01*
X79199232Y-50160004D01*
X79199232Y-50159995D01*
X79180345Y-49956180D01*
X79180345Y-49956179D01*
X79124328Y-49759299D01*
X79033088Y-49576065D01*
X78998301Y-49530000D01*
X121089450Y-49530000D01*
X121102232Y-49651613D01*
X121107601Y-49702686D01*
X121161252Y-49867810D01*
X121161256Y-49867817D01*
X121248069Y-50018183D01*
X121248070Y-50018185D01*
X121364251Y-50147217D01*
X121504720Y-50249274D01*
X121504722Y-50249275D01*
X121504725Y-50249277D01*
X121663346Y-50319900D01*
X121833184Y-50356000D01*
X122006816Y-50356000D01*
X122176654Y-50319900D01*
X122335275Y-50249277D01*
X122475746Y-50147219D01*
X122591929Y-50018185D01*
X122678745Y-49867815D01*
X122732400Y-49702681D01*
X122750550Y-49530000D01*
X122732400Y-49357319D01*
X122708922Y-49285060D01*
X122678747Y-49192189D01*
X122678743Y-49192182D01*
X122664238Y-49167059D01*
X122596597Y-49049900D01*
X122591930Y-49041816D01*
X122591929Y-49041814D01*
X122475748Y-48912782D01*
X122335279Y-48810725D01*
X122301530Y-48795699D01*
X122176654Y-48740100D01*
X122006816Y-48704000D01*
X121833184Y-48704000D01*
X121663345Y-48740100D01*
X121504720Y-48810725D01*
X121364251Y-48912782D01*
X121248070Y-49041814D01*
X121248069Y-49041816D01*
X121161256Y-49192182D01*
X121161252Y-49192189D01*
X121107601Y-49357313D01*
X121107600Y-49357317D01*
X121107600Y-49357319D01*
X121089450Y-49530000D01*
X78998301Y-49530000D01*
X78992538Y-49522368D01*
X78909733Y-49412715D01*
X78758463Y-49274814D01*
X78584433Y-49167059D01*
X78584428Y-49167057D01*
X78584427Y-49167056D01*
X78393559Y-49093113D01*
X78393560Y-49093113D01*
X78393557Y-49093112D01*
X78393556Y-49093112D01*
X78192347Y-49055500D01*
X77987653Y-49055500D01*
X77786444Y-49093112D01*
X77786439Y-49093113D01*
X77595577Y-49167054D01*
X77595566Y-49167059D01*
X77421536Y-49274814D01*
X77270266Y-49412715D01*
X77146913Y-49576063D01*
X77055671Y-49759301D01*
X76999654Y-49956180D01*
X76980768Y-50159995D01*
X76980768Y-50160004D01*
X76659232Y-50160004D01*
X76659232Y-50159995D01*
X76640345Y-49956180D01*
X76640345Y-49956179D01*
X76584328Y-49759299D01*
X76493088Y-49576065D01*
X76452538Y-49522368D01*
X76369733Y-49412715D01*
X76218463Y-49274814D01*
X76044433Y-49167059D01*
X76044428Y-49167057D01*
X76044427Y-49167056D01*
X75853559Y-49093113D01*
X75853560Y-49093113D01*
X75853557Y-49093112D01*
X75853556Y-49093112D01*
X75652347Y-49055500D01*
X75447653Y-49055500D01*
X75246444Y-49093112D01*
X75246439Y-49093113D01*
X75055577Y-49167054D01*
X75055566Y-49167059D01*
X74881536Y-49274814D01*
X74730266Y-49412715D01*
X74606913Y-49576063D01*
X74515671Y-49759301D01*
X74459654Y-49956180D01*
X74440768Y-50159995D01*
X74440768Y-50160004D01*
X74119232Y-50160004D01*
X74119232Y-50159995D01*
X74100345Y-49956180D01*
X74100345Y-49956179D01*
X74044328Y-49759299D01*
X73953088Y-49576065D01*
X73912538Y-49522368D01*
X73829733Y-49412715D01*
X73678463Y-49274814D01*
X73504433Y-49167059D01*
X73504428Y-49167057D01*
X73504427Y-49167056D01*
X73313559Y-49093113D01*
X73313560Y-49093113D01*
X73313557Y-49093112D01*
X73313556Y-49093112D01*
X73112347Y-49055500D01*
X72907653Y-49055500D01*
X72706444Y-49093112D01*
X72706439Y-49093113D01*
X72515577Y-49167054D01*
X72515566Y-49167059D01*
X72341536Y-49274814D01*
X72190266Y-49412715D01*
X72066913Y-49576063D01*
X71975671Y-49759301D01*
X71919654Y-49956180D01*
X71900768Y-50159995D01*
X71900768Y-50160004D01*
X66294500Y-50160004D01*
X66294500Y-47620004D01*
X71900768Y-47620004D01*
X71919654Y-47823819D01*
X71947641Y-47922182D01*
X71975672Y-48020701D01*
X72066912Y-48203935D01*
X72066913Y-48203936D01*
X72190266Y-48367284D01*
X72341536Y-48505185D01*
X72515566Y-48612940D01*
X72515568Y-48612940D01*
X72515573Y-48612944D01*
X72706444Y-48686888D01*
X72907653Y-48724500D01*
X72907655Y-48724500D01*
X73112345Y-48724500D01*
X73112347Y-48724500D01*
X73313556Y-48686888D01*
X73504427Y-48612944D01*
X73678462Y-48505186D01*
X73829732Y-48367285D01*
X73953088Y-48203935D01*
X74044328Y-48020701D01*
X74100345Y-47823821D01*
X74110959Y-47709277D01*
X74119232Y-47620004D01*
X74440768Y-47620004D01*
X74459654Y-47823819D01*
X74487641Y-47922182D01*
X74515672Y-48020701D01*
X74606912Y-48203935D01*
X74606913Y-48203936D01*
X74730266Y-48367284D01*
X74881536Y-48505185D01*
X75055566Y-48612940D01*
X75055568Y-48612940D01*
X75055573Y-48612944D01*
X75246444Y-48686888D01*
X75447653Y-48724500D01*
X75447655Y-48724500D01*
X75652345Y-48724500D01*
X75652347Y-48724500D01*
X75853556Y-48686888D01*
X76044427Y-48612944D01*
X76218462Y-48505186D01*
X76369732Y-48367285D01*
X76493088Y-48203935D01*
X76584328Y-48020701D01*
X76640345Y-47823821D01*
X76650959Y-47709277D01*
X76659232Y-47620004D01*
X76659232Y-47619995D01*
X76647464Y-47493000D01*
X76986000Y-47493000D01*
X77606182Y-47493000D01*
X77590000Y-47548111D01*
X77590000Y-47691889D01*
X77606182Y-47747000D01*
X76986001Y-47747000D01*
X76986001Y-48495022D01*
X77000737Y-48569105D01*
X77000737Y-48569107D01*
X77056875Y-48653124D01*
X77140893Y-48709262D01*
X77140894Y-48709263D01*
X77214980Y-48723999D01*
X77963000Y-48723999D01*
X77963000Y-48106881D01*
X78054237Y-48120000D01*
X78125763Y-48120000D01*
X78217000Y-48106881D01*
X78217000Y-48723999D01*
X78965014Y-48723999D01*
X78965022Y-48723998D01*
X79039105Y-48709262D01*
X79039107Y-48709262D01*
X79123124Y-48653124D01*
X79179262Y-48569106D01*
X79179263Y-48569105D01*
X79193999Y-48495022D01*
X79194000Y-48495015D01*
X79194000Y-48260000D01*
X123629450Y-48260000D01*
X123640726Y-48367285D01*
X123647601Y-48432686D01*
X123701252Y-48597810D01*
X123701256Y-48597817D01*
X123788069Y-48748183D01*
X123788070Y-48748185D01*
X123904251Y-48877217D01*
X124044720Y-48979274D01*
X124044722Y-48979275D01*
X124044725Y-48979277D01*
X124203346Y-49049900D01*
X124373184Y-49086000D01*
X124546816Y-49086000D01*
X124716654Y-49049900D01*
X124875275Y-48979277D01*
X125015746Y-48877219D01*
X125022307Y-48869933D01*
X125131929Y-48748185D01*
X125131930Y-48748183D01*
X125136597Y-48740100D01*
X125218745Y-48597815D01*
X125228074Y-48569105D01*
X125252144Y-48495022D01*
X125272400Y-48432681D01*
X125290550Y-48260000D01*
X138869450Y-48260000D01*
X138880726Y-48367285D01*
X138887601Y-48432686D01*
X138941252Y-48597810D01*
X138941256Y-48597817D01*
X139028069Y-48748183D01*
X139028070Y-48748185D01*
X139144251Y-48877217D01*
X139284720Y-48979274D01*
X139284722Y-48979275D01*
X139284725Y-48979277D01*
X139443346Y-49049900D01*
X139613184Y-49086000D01*
X139786816Y-49086000D01*
X139956654Y-49049900D01*
X140115275Y-48979277D01*
X140231270Y-48895002D01*
X147060514Y-48895002D01*
X147064278Y-48913927D01*
X147064279Y-48913931D01*
X147080266Y-48994302D01*
X147136515Y-49078484D01*
X147220697Y-49134733D01*
X147220699Y-49134734D01*
X147320000Y-49154486D01*
X147332895Y-49151920D01*
X147357476Y-49149500D01*
X157734500Y-49149500D01*
X157802621Y-49169502D01*
X157849114Y-49223158D01*
X157860500Y-49275500D01*
X157860500Y-55207523D01*
X157858079Y-55232103D01*
X157855514Y-55244998D01*
X157855514Y-55245002D01*
X157859278Y-55263927D01*
X157859279Y-55263931D01*
X157875266Y-55344302D01*
X157931515Y-55428484D01*
X158015697Y-55484733D01*
X158015699Y-55484734D01*
X158115000Y-55504486D01*
X158127895Y-55501920D01*
X158152476Y-55499500D01*
X168237524Y-55499500D01*
X168262104Y-55501920D01*
X168275000Y-55504486D01*
X168374301Y-55484734D01*
X168458484Y-55428484D01*
X168514734Y-55344301D01*
X168529500Y-55270067D01*
X168529500Y-55270066D01*
X168534486Y-55245000D01*
X168531921Y-55232103D01*
X168529500Y-55207523D01*
X168529500Y-30657800D01*
X170352586Y-30657800D01*
X170365179Y-30817817D01*
X170371413Y-30897021D01*
X170427430Y-31130351D01*
X170485233Y-31269899D01*
X170519260Y-31352049D01*
X170644640Y-31556649D01*
X170800482Y-31739118D01*
X170982951Y-31894960D01*
X171187551Y-32020340D01*
X171409247Y-32112169D01*
X171642578Y-32168187D01*
X171881800Y-32187014D01*
X172121022Y-32168187D01*
X172354353Y-32112169D01*
X172576049Y-32020340D01*
X172780649Y-31894960D01*
X172963118Y-31739118D01*
X173118960Y-31556649D01*
X173244340Y-31352049D01*
X173336169Y-31130353D01*
X173392187Y-30897022D01*
X173411014Y-30657800D01*
X173392187Y-30418578D01*
X173336169Y-30185247D01*
X173244340Y-29963551D01*
X173118960Y-29758951D01*
X172963118Y-29576482D01*
X172780649Y-29420640D01*
X172576049Y-29295260D01*
X172354353Y-29203431D01*
X172354351Y-29203430D01*
X172194736Y-29165110D01*
X172121022Y-29147413D01*
X171881800Y-29128586D01*
X171642578Y-29147413D01*
X171409248Y-29203430D01*
X171187552Y-29295259D01*
X170982952Y-29420639D01*
X170800482Y-29576482D01*
X170644639Y-29758952D01*
X170519259Y-29963552D01*
X170427430Y-30185248D01*
X170398125Y-30307313D01*
X170371413Y-30418578D01*
X170352586Y-30657800D01*
X168529500Y-30657800D01*
X168529500Y-22897476D01*
X168531921Y-22872894D01*
X168534486Y-22859999D01*
X168529581Y-22835342D01*
X168514734Y-22760699D01*
X168514733Y-22760697D01*
X168458484Y-22676515D01*
X168374302Y-22620266D01*
X168300067Y-22605500D01*
X168275000Y-22600514D01*
X168274999Y-22600514D01*
X168262104Y-22603079D01*
X168237523Y-22605500D01*
X147357477Y-22605500D01*
X147332896Y-22603079D01*
X147320001Y-22600514D01*
X147320000Y-22600514D01*
X147294933Y-22605500D01*
X147220697Y-22620266D01*
X147136515Y-22676515D01*
X147080266Y-22760697D01*
X147060514Y-22859999D01*
X147063079Y-22872894D01*
X147065500Y-22897476D01*
X147065500Y-48857523D01*
X147063079Y-48882103D01*
X147060514Y-48894998D01*
X147060514Y-48895002D01*
X140231270Y-48895002D01*
X140255746Y-48877219D01*
X140262307Y-48869933D01*
X140371929Y-48748185D01*
X140371930Y-48748183D01*
X140376597Y-48740100D01*
X140458745Y-48597815D01*
X140468074Y-48569105D01*
X140492144Y-48495022D01*
X140512400Y-48432681D01*
X140530550Y-48260000D01*
X140512400Y-48087319D01*
X140468042Y-47950798D01*
X140458747Y-47922189D01*
X140458743Y-47922182D01*
X140371930Y-47771816D01*
X140371929Y-47771814D01*
X140255748Y-47642782D01*
X140115279Y-47540725D01*
X139956654Y-47470100D01*
X139786816Y-47434000D01*
X139613184Y-47434000D01*
X139443345Y-47470100D01*
X139284720Y-47540725D01*
X139144251Y-47642782D01*
X139028070Y-47771814D01*
X139028069Y-47771816D01*
X138941256Y-47922182D01*
X138941252Y-47922189D01*
X138887601Y-48087313D01*
X138887600Y-48087317D01*
X138887600Y-48087319D01*
X138869450Y-48260000D01*
X125290550Y-48260000D01*
X125272400Y-48087319D01*
X125228042Y-47950798D01*
X125218747Y-47922189D01*
X125218743Y-47922182D01*
X125131930Y-47771816D01*
X125131929Y-47771814D01*
X125015748Y-47642782D01*
X124875279Y-47540725D01*
X124716654Y-47470100D01*
X124546816Y-47434000D01*
X124373184Y-47434000D01*
X124203345Y-47470100D01*
X124044720Y-47540725D01*
X123904251Y-47642782D01*
X123788070Y-47771814D01*
X123788069Y-47771816D01*
X123701256Y-47922182D01*
X123701252Y-47922189D01*
X123647601Y-48087313D01*
X123647600Y-48087317D01*
X123647600Y-48087319D01*
X123629450Y-48260000D01*
X79194000Y-48260000D01*
X79194000Y-47747000D01*
X78573818Y-47747000D01*
X78590000Y-47691889D01*
X78590000Y-47548111D01*
X78573818Y-47493000D01*
X79193999Y-47493000D01*
X79193999Y-46990000D01*
X121089450Y-46990000D01*
X121104724Y-47135320D01*
X121107601Y-47162686D01*
X121161252Y-47327810D01*
X121161256Y-47327817D01*
X121248069Y-47478183D01*
X121248070Y-47478185D01*
X121364251Y-47607217D01*
X121504720Y-47709274D01*
X121504722Y-47709275D01*
X121504725Y-47709277D01*
X121663346Y-47779900D01*
X121833184Y-47816000D01*
X122006816Y-47816000D01*
X122176654Y-47779900D01*
X122335275Y-47709277D01*
X122475746Y-47607219D01*
X122535620Y-47540723D01*
X122591929Y-47478185D01*
X122591930Y-47478183D01*
X122617439Y-47434000D01*
X122678745Y-47327815D01*
X122732400Y-47162681D01*
X122750550Y-46990000D01*
X122732400Y-46817319D01*
X122705593Y-46734814D01*
X122678747Y-46652189D01*
X122678743Y-46652182D01*
X122664238Y-46627059D01*
X122608627Y-46530736D01*
X122591930Y-46501816D01*
X122591929Y-46501814D01*
X122475748Y-46372782D01*
X122335279Y-46270725D01*
X122176654Y-46200100D01*
X122006816Y-46164000D01*
X121833184Y-46164000D01*
X121663345Y-46200100D01*
X121504720Y-46270725D01*
X121364251Y-46372782D01*
X121248070Y-46501814D01*
X121248069Y-46501816D01*
X121161256Y-46652182D01*
X121161252Y-46652189D01*
X121107601Y-46817313D01*
X121107600Y-46817317D01*
X121107600Y-46817319D01*
X121089450Y-46990000D01*
X79193999Y-46990000D01*
X79193999Y-46744986D01*
X79193998Y-46744977D01*
X79179262Y-46670894D01*
X79179262Y-46670892D01*
X79123124Y-46586875D01*
X79039106Y-46530737D01*
X79039105Y-46530736D01*
X78965022Y-46516000D01*
X78217000Y-46516000D01*
X78217000Y-47133118D01*
X78125763Y-47120000D01*
X78054237Y-47120000D01*
X77963000Y-47133118D01*
X77963000Y-46516000D01*
X77214986Y-46516000D01*
X77214976Y-46516001D01*
X77140894Y-46530737D01*
X77140892Y-46530737D01*
X77056875Y-46586875D01*
X77000737Y-46670893D01*
X77000736Y-46670894D01*
X76986000Y-46744977D01*
X76986000Y-47493000D01*
X76647464Y-47493000D01*
X76640345Y-47416180D01*
X76604217Y-47289202D01*
X76584328Y-47219299D01*
X76493088Y-47036065D01*
X76452538Y-46982368D01*
X76369733Y-46872715D01*
X76218463Y-46734814D01*
X76044433Y-46627059D01*
X76044428Y-46627057D01*
X76044427Y-46627056D01*
X75853559Y-46553113D01*
X75853560Y-46553113D01*
X75853557Y-46553112D01*
X75853556Y-46553112D01*
X75652347Y-46515500D01*
X75447653Y-46515500D01*
X75246444Y-46553112D01*
X75246439Y-46553113D01*
X75055577Y-46627054D01*
X75055566Y-46627059D01*
X74881536Y-46734814D01*
X74730266Y-46872715D01*
X74606913Y-47036063D01*
X74515671Y-47219301D01*
X74459654Y-47416180D01*
X74440768Y-47619995D01*
X74440768Y-47620004D01*
X74119232Y-47620004D01*
X74119232Y-47619995D01*
X74100345Y-47416180D01*
X74064217Y-47289202D01*
X74044328Y-47219299D01*
X73953088Y-47036065D01*
X73912538Y-46982368D01*
X73829733Y-46872715D01*
X73678463Y-46734814D01*
X73504433Y-46627059D01*
X73504428Y-46627057D01*
X73504427Y-46627056D01*
X73313559Y-46553113D01*
X73313560Y-46553113D01*
X73313557Y-46553112D01*
X73313556Y-46553112D01*
X73112347Y-46515500D01*
X72907653Y-46515500D01*
X72706444Y-46553112D01*
X72706439Y-46553113D01*
X72515577Y-46627054D01*
X72515566Y-46627059D01*
X72341536Y-46734814D01*
X72190266Y-46872715D01*
X72066913Y-47036063D01*
X71975671Y-47219301D01*
X71919654Y-47416180D01*
X71900768Y-47619995D01*
X71900768Y-47620004D01*
X66294500Y-47620004D01*
X66294499Y-45720000D01*
X123629450Y-45720000D01*
X123647601Y-45892686D01*
X123701252Y-46057810D01*
X123701256Y-46057817D01*
X123788069Y-46208183D01*
X123788070Y-46208185D01*
X123904251Y-46337217D01*
X124044720Y-46439274D01*
X124044722Y-46439275D01*
X124044725Y-46439277D01*
X124203346Y-46509900D01*
X124373184Y-46546000D01*
X124546816Y-46546000D01*
X124716654Y-46509900D01*
X124875275Y-46439277D01*
X125015746Y-46337219D01*
X125075620Y-46270723D01*
X125131929Y-46208185D01*
X125131930Y-46208183D01*
X125157439Y-46164000D01*
X125218745Y-46057815D01*
X125272400Y-45892681D01*
X125290550Y-45720000D01*
X125272400Y-45547319D01*
X125268789Y-45536208D01*
X125218747Y-45382189D01*
X125218743Y-45382182D01*
X125131930Y-45231816D01*
X125131929Y-45231814D01*
X125015748Y-45102782D01*
X124875279Y-45000725D01*
X124716654Y-44930100D01*
X124546816Y-44894000D01*
X124373184Y-44894000D01*
X124203345Y-44930100D01*
X124044720Y-45000725D01*
X123904251Y-45102782D01*
X123788070Y-45231814D01*
X123788069Y-45231816D01*
X123701256Y-45382182D01*
X123701252Y-45382189D01*
X123647601Y-45547313D01*
X123647600Y-45547317D01*
X123647600Y-45547319D01*
X123629450Y-45719999D01*
X123629450Y-45720000D01*
X66294499Y-45720000D01*
X66294499Y-44450004D01*
X97315768Y-44450004D01*
X97334654Y-44653819D01*
X97334655Y-44653821D01*
X97390672Y-44850701D01*
X97481912Y-45033935D01*
X97481913Y-45033936D01*
X97605266Y-45197284D01*
X97756536Y-45335185D01*
X97930566Y-45442940D01*
X97930568Y-45442940D01*
X97930573Y-45442944D01*
X98121444Y-45516888D01*
X98322653Y-45554500D01*
X98322655Y-45554500D01*
X98527345Y-45554500D01*
X98527347Y-45554500D01*
X98728556Y-45516888D01*
X98919427Y-45442944D01*
X99093462Y-45335186D01*
X99244732Y-45197285D01*
X99368088Y-45033935D01*
X99459328Y-44850701D01*
X99515345Y-44653821D01*
X99534232Y-44450004D01*
X99855768Y-44450004D01*
X99874654Y-44653819D01*
X99874655Y-44653821D01*
X99930672Y-44850701D01*
X100021912Y-45033935D01*
X100021913Y-45033936D01*
X100145266Y-45197284D01*
X100296536Y-45335185D01*
X100470566Y-45442940D01*
X100470568Y-45442940D01*
X100470573Y-45442944D01*
X100661444Y-45516888D01*
X100862653Y-45554500D01*
X100862655Y-45554500D01*
X101067345Y-45554500D01*
X101067347Y-45554500D01*
X101268556Y-45516888D01*
X101459427Y-45442944D01*
X101633462Y-45335186D01*
X101784732Y-45197285D01*
X101908088Y-45033935D01*
X101999328Y-44850701D01*
X102055345Y-44653821D01*
X102074232Y-44450000D01*
X121089450Y-44450000D01*
X121107601Y-44622686D01*
X121161252Y-44787810D01*
X121161256Y-44787817D01*
X121248069Y-44938183D01*
X121248070Y-44938185D01*
X121364251Y-45067217D01*
X121504720Y-45169274D01*
X121504722Y-45169275D01*
X121504725Y-45169277D01*
X121663346Y-45239900D01*
X121833184Y-45276000D01*
X122006816Y-45276000D01*
X122176654Y-45239900D01*
X122335275Y-45169277D01*
X122475746Y-45067219D01*
X122535620Y-45000723D01*
X122591929Y-44938185D01*
X122591930Y-44938183D01*
X122617439Y-44894000D01*
X122678745Y-44787815D01*
X122732400Y-44622681D01*
X122750550Y-44450000D01*
X122732400Y-44277319D01*
X122722282Y-44246179D01*
X122678747Y-44112189D01*
X122678743Y-44112182D01*
X122591930Y-43961816D01*
X122591929Y-43961814D01*
X122475748Y-43832782D01*
X122335279Y-43730725D01*
X122176654Y-43660100D01*
X122006816Y-43624000D01*
X121833184Y-43624000D01*
X121663345Y-43660100D01*
X121504720Y-43730725D01*
X121364251Y-43832782D01*
X121248070Y-43961814D01*
X121248069Y-43961816D01*
X121161256Y-44112182D01*
X121161252Y-44112189D01*
X121107601Y-44277313D01*
X121089450Y-44450000D01*
X102074232Y-44450000D01*
X102055345Y-44246179D01*
X101999328Y-44049299D01*
X101908088Y-43866065D01*
X101856098Y-43797219D01*
X101784733Y-43702715D01*
X101633463Y-43564814D01*
X101459433Y-43457059D01*
X101459428Y-43457057D01*
X101459427Y-43457056D01*
X101268559Y-43383113D01*
X101268560Y-43383113D01*
X101268557Y-43383112D01*
X101268556Y-43383112D01*
X101067347Y-43345500D01*
X100862653Y-43345500D01*
X100661444Y-43383112D01*
X100661439Y-43383113D01*
X100470577Y-43457054D01*
X100470566Y-43457059D01*
X100296536Y-43564814D01*
X100145266Y-43702715D01*
X100021913Y-43866063D01*
X99930671Y-44049301D01*
X99874654Y-44246180D01*
X99855768Y-44449995D01*
X99855768Y-44450004D01*
X99534232Y-44450004D01*
X99534232Y-44450000D01*
X99515345Y-44246179D01*
X99459328Y-44049299D01*
X99368088Y-43866065D01*
X99316098Y-43797219D01*
X99244733Y-43702715D01*
X99093463Y-43564814D01*
X98919433Y-43457059D01*
X98919428Y-43457057D01*
X98919427Y-43457056D01*
X98728559Y-43383113D01*
X98728560Y-43383113D01*
X98728557Y-43383112D01*
X98728556Y-43383112D01*
X98527347Y-43345500D01*
X98322653Y-43345500D01*
X98121444Y-43383112D01*
X98121439Y-43383113D01*
X97930577Y-43457054D01*
X97930566Y-43457059D01*
X97756536Y-43564814D01*
X97605266Y-43702715D01*
X97481913Y-43866063D01*
X97390671Y-44049301D01*
X97334654Y-44246180D01*
X97315768Y-44449995D01*
X97315768Y-44450004D01*
X66294499Y-44450004D01*
X66294499Y-43180000D01*
X123629450Y-43180000D01*
X123646845Y-43345500D01*
X123647601Y-43352686D01*
X123701252Y-43517810D01*
X123701256Y-43517817D01*
X123788069Y-43668183D01*
X123788070Y-43668185D01*
X123904251Y-43797217D01*
X124044720Y-43899274D01*
X124044722Y-43899275D01*
X124044725Y-43899277D01*
X124203346Y-43969900D01*
X124373184Y-44006000D01*
X124546816Y-44006000D01*
X124716654Y-43969900D01*
X124875275Y-43899277D01*
X125015746Y-43797219D01*
X125075620Y-43730723D01*
X125131929Y-43668185D01*
X125131930Y-43668183D01*
X125191610Y-43564814D01*
X125218745Y-43517815D01*
X125272400Y-43352681D01*
X125290550Y-43180000D01*
X125272400Y-43007319D01*
X125268789Y-42996208D01*
X125218747Y-42842189D01*
X125218743Y-42842182D01*
X125131930Y-42691816D01*
X125131929Y-42691814D01*
X125015748Y-42562782D01*
X124875279Y-42460725D01*
X124716654Y-42390100D01*
X124546816Y-42354000D01*
X124373184Y-42354000D01*
X124203345Y-42390100D01*
X124044720Y-42460725D01*
X123904251Y-42562782D01*
X123788070Y-42691814D01*
X123788069Y-42691816D01*
X123701256Y-42842182D01*
X123701252Y-42842189D01*
X123647601Y-43007313D01*
X123647600Y-43007317D01*
X123647600Y-43007319D01*
X123629450Y-43180000D01*
X66294499Y-43180000D01*
X66294499Y-41910004D01*
X97315768Y-41910004D01*
X97334654Y-42113819D01*
X97334655Y-42113821D01*
X97390672Y-42310701D01*
X97481912Y-42493935D01*
X97481913Y-42493936D01*
X97605266Y-42657284D01*
X97756536Y-42795185D01*
X97930566Y-42902940D01*
X97930568Y-42902940D01*
X97930573Y-42902944D01*
X98121444Y-42976888D01*
X98322653Y-43014500D01*
X98322655Y-43014500D01*
X98527345Y-43014500D01*
X98527347Y-43014500D01*
X98728556Y-42976888D01*
X98919427Y-42902944D01*
X99093462Y-42795186D01*
X99244732Y-42657285D01*
X99368088Y-42493935D01*
X99459328Y-42310701D01*
X99515345Y-42113821D01*
X99534232Y-41910004D01*
X99855768Y-41910004D01*
X99874654Y-42113819D01*
X99874655Y-42113821D01*
X99930672Y-42310701D01*
X100021912Y-42493935D01*
X100021913Y-42493936D01*
X100145266Y-42657284D01*
X100296536Y-42795185D01*
X100470566Y-42902940D01*
X100470568Y-42902940D01*
X100470573Y-42902944D01*
X100661444Y-42976888D01*
X100862653Y-43014500D01*
X100862655Y-43014500D01*
X101067345Y-43014500D01*
X101067347Y-43014500D01*
X101268556Y-42976888D01*
X101459427Y-42902944D01*
X101633462Y-42795186D01*
X101784732Y-42657285D01*
X101908088Y-42493935D01*
X101999328Y-42310701D01*
X102055345Y-42113821D01*
X102074232Y-41910004D01*
X121089450Y-41910004D01*
X121107601Y-42082686D01*
X121161252Y-42247810D01*
X121161256Y-42247817D01*
X121248069Y-42398183D01*
X121248070Y-42398185D01*
X121364251Y-42527217D01*
X121504720Y-42629274D01*
X121504722Y-42629275D01*
X121504725Y-42629277D01*
X121663346Y-42699900D01*
X121833184Y-42736000D01*
X122006816Y-42736000D01*
X122176654Y-42699900D01*
X122335275Y-42629277D01*
X122475746Y-42527219D01*
X122535620Y-42460723D01*
X122591929Y-42398185D01*
X122591930Y-42398183D01*
X122617439Y-42354000D01*
X122678745Y-42247815D01*
X122732400Y-42082681D01*
X122750550Y-41910000D01*
X122732400Y-41737319D01*
X122722282Y-41706179D01*
X122678747Y-41572189D01*
X122678743Y-41572182D01*
X122591930Y-41421816D01*
X122591929Y-41421814D01*
X122475748Y-41292782D01*
X122335279Y-41190725D01*
X122176654Y-41120100D01*
X122006816Y-41084000D01*
X121833184Y-41084000D01*
X121663345Y-41120100D01*
X121504720Y-41190725D01*
X121364251Y-41292782D01*
X121248070Y-41421814D01*
X121248069Y-41421816D01*
X121161256Y-41572182D01*
X121161252Y-41572189D01*
X121107601Y-41737313D01*
X121089451Y-41909995D01*
X121089450Y-41910000D01*
X121089450Y-41910004D01*
X102074232Y-41910004D01*
X102074232Y-41910000D01*
X102055345Y-41706179D01*
X101999328Y-41509299D01*
X101908088Y-41326065D01*
X101856098Y-41257219D01*
X101784733Y-41162715D01*
X101633463Y-41024814D01*
X101459433Y-40917059D01*
X101459428Y-40917057D01*
X101459427Y-40917056D01*
X101268559Y-40843113D01*
X101268560Y-40843113D01*
X101268557Y-40843112D01*
X101268556Y-40843112D01*
X101067347Y-40805500D01*
X100862653Y-40805500D01*
X100661444Y-40843112D01*
X100661439Y-40843113D01*
X100470577Y-40917054D01*
X100470566Y-40917059D01*
X100296536Y-41024814D01*
X100145266Y-41162715D01*
X100021913Y-41326063D01*
X99930671Y-41509301D01*
X99874654Y-41706180D01*
X99855768Y-41909995D01*
X99855768Y-41910004D01*
X99534232Y-41910004D01*
X99534232Y-41910000D01*
X99515345Y-41706179D01*
X99459328Y-41509299D01*
X99368088Y-41326065D01*
X99316098Y-41257219D01*
X99244733Y-41162715D01*
X99093463Y-41024814D01*
X98919433Y-40917059D01*
X98919428Y-40917057D01*
X98919427Y-40917056D01*
X98728559Y-40843113D01*
X98728560Y-40843113D01*
X98728557Y-40843112D01*
X98728556Y-40843112D01*
X98527347Y-40805500D01*
X98322653Y-40805500D01*
X98121444Y-40843112D01*
X98121439Y-40843113D01*
X97930577Y-40917054D01*
X97930566Y-40917059D01*
X97756536Y-41024814D01*
X97605266Y-41162715D01*
X97481913Y-41326063D01*
X97390671Y-41509301D01*
X97334654Y-41706180D01*
X97315768Y-41909995D01*
X97315768Y-41910004D01*
X66294499Y-41910004D01*
X66294499Y-38735000D01*
X69900380Y-38735000D01*
X69920835Y-39021002D01*
X69981781Y-39301166D01*
X69981781Y-39301167D01*
X70081984Y-39569825D01*
X70081985Y-39569826D01*
X70191669Y-39770698D01*
X70219402Y-39821486D01*
X70391226Y-40051015D01*
X70391229Y-40051018D01*
X70391231Y-40051021D01*
X70593979Y-40253769D01*
X70593982Y-40253771D01*
X70593984Y-40253773D01*
X70739819Y-40362944D01*
X70823517Y-40425600D01*
X71075174Y-40563015D01*
X71343825Y-40663216D01*
X71343828Y-40663216D01*
X71343832Y-40663218D01*
X71505972Y-40698489D01*
X71624001Y-40724165D01*
X71838413Y-40739500D01*
X71838419Y-40739500D01*
X75481581Y-40739500D01*
X75481587Y-40739500D01*
X75695999Y-40724165D01*
X75976166Y-40663218D01*
X75976167Y-40663218D01*
X75976168Y-40663217D01*
X75976175Y-40663216D01*
X76038420Y-40640000D01*
X123629450Y-40640000D01*
X123646845Y-40805500D01*
X123647601Y-40812686D01*
X123701252Y-40977810D01*
X123701256Y-40977817D01*
X123788069Y-41128183D01*
X123788070Y-41128185D01*
X123904251Y-41257217D01*
X124044720Y-41359274D01*
X124044722Y-41359275D01*
X124044725Y-41359277D01*
X124203346Y-41429900D01*
X124373184Y-41466000D01*
X124546816Y-41466000D01*
X124716654Y-41429900D01*
X124875275Y-41359277D01*
X125015746Y-41257219D01*
X125075620Y-41190723D01*
X125131929Y-41128185D01*
X125131930Y-41128183D01*
X125191610Y-41024814D01*
X125218745Y-40977815D01*
X125272400Y-40812681D01*
X125290550Y-40640000D01*
X125272400Y-40467319D01*
X125268789Y-40456208D01*
X125218747Y-40302189D01*
X125218743Y-40302182D01*
X125131930Y-40151816D01*
X125131929Y-40151814D01*
X125015748Y-40022782D01*
X124875279Y-39920725D01*
X124716654Y-39850100D01*
X124546816Y-39814000D01*
X124373184Y-39814000D01*
X124203345Y-39850100D01*
X124044720Y-39920725D01*
X123904251Y-40022782D01*
X123788070Y-40151814D01*
X123788069Y-40151816D01*
X123701256Y-40302182D01*
X123701252Y-40302189D01*
X123647601Y-40467313D01*
X123647600Y-40467317D01*
X123647600Y-40467319D01*
X123629450Y-40640000D01*
X76038420Y-40640000D01*
X76244826Y-40563015D01*
X76496483Y-40425600D01*
X76726021Y-40253769D01*
X76928769Y-40051021D01*
X77100600Y-39821483D01*
X77238015Y-39569826D01*
X77312544Y-39370004D01*
X97315768Y-39370004D01*
X97334654Y-39573819D01*
X97334655Y-39573821D01*
X97390672Y-39770701D01*
X97481912Y-39953935D01*
X97481913Y-39953936D01*
X97605266Y-40117284D01*
X97756536Y-40255185D01*
X97930566Y-40362940D01*
X97930568Y-40362940D01*
X97930573Y-40362944D01*
X98121444Y-40436888D01*
X98322653Y-40474500D01*
X98322655Y-40474500D01*
X98527345Y-40474500D01*
X98527347Y-40474500D01*
X98728556Y-40436888D01*
X98919427Y-40362944D01*
X99093462Y-40255186D01*
X99244732Y-40117285D01*
X99368088Y-39953935D01*
X99459328Y-39770701D01*
X99515345Y-39573821D01*
X99534232Y-39370004D01*
X99855768Y-39370004D01*
X99874654Y-39573819D01*
X99874655Y-39573821D01*
X99930672Y-39770701D01*
X100021912Y-39953935D01*
X100021913Y-39953936D01*
X100145266Y-40117284D01*
X100296536Y-40255185D01*
X100470566Y-40362940D01*
X100470568Y-40362940D01*
X100470573Y-40362944D01*
X100661444Y-40436888D01*
X100862653Y-40474500D01*
X100862655Y-40474500D01*
X101067345Y-40474500D01*
X101067347Y-40474500D01*
X101268556Y-40436888D01*
X101459427Y-40362944D01*
X101633462Y-40255186D01*
X101784732Y-40117285D01*
X101908088Y-39953935D01*
X101999328Y-39770701D01*
X102055345Y-39573821D01*
X102074232Y-39370000D01*
X121089450Y-39370000D01*
X121107601Y-39542686D01*
X121161252Y-39707810D01*
X121161256Y-39707817D01*
X121248069Y-39858183D01*
X121248070Y-39858185D01*
X121364251Y-39987217D01*
X121504720Y-40089274D01*
X121504722Y-40089275D01*
X121504725Y-40089277D01*
X121663346Y-40159900D01*
X121833184Y-40196000D01*
X122006816Y-40196000D01*
X122176654Y-40159900D01*
X122335275Y-40089277D01*
X122475746Y-39987219D01*
X122535620Y-39920723D01*
X122591929Y-39858185D01*
X122591930Y-39858183D01*
X122617439Y-39814000D01*
X122678745Y-39707815D01*
X122732400Y-39542681D01*
X122750550Y-39370000D01*
X122732400Y-39197319D01*
X122722282Y-39166179D01*
X122678747Y-39032189D01*
X122678743Y-39032182D01*
X122672288Y-39021002D01*
X122596597Y-38889900D01*
X122591930Y-38881816D01*
X122591929Y-38881814D01*
X122475748Y-38752782D01*
X122335279Y-38650725D01*
X122176654Y-38580100D01*
X122006816Y-38544000D01*
X121833184Y-38544000D01*
X121663345Y-38580100D01*
X121504720Y-38650725D01*
X121364251Y-38752782D01*
X121248070Y-38881814D01*
X121248069Y-38881816D01*
X121161256Y-39032182D01*
X121161252Y-39032189D01*
X121107601Y-39197313D01*
X121089450Y-39370000D01*
X102074232Y-39370000D01*
X102067854Y-39301175D01*
X102055345Y-39166180D01*
X102055345Y-39166179D01*
X101999328Y-38969299D01*
X101908088Y-38786065D01*
X101856098Y-38717219D01*
X101784733Y-38622715D01*
X101633463Y-38484814D01*
X101459433Y-38377059D01*
X101459428Y-38377057D01*
X101459427Y-38377056D01*
X101268559Y-38303113D01*
X101268560Y-38303113D01*
X101268557Y-38303112D01*
X101268556Y-38303112D01*
X101067347Y-38265500D01*
X100862653Y-38265500D01*
X100661444Y-38303112D01*
X100661439Y-38303113D01*
X100470577Y-38377054D01*
X100470566Y-38377059D01*
X100296536Y-38484814D01*
X100145266Y-38622715D01*
X100021913Y-38786063D01*
X99930671Y-38969301D01*
X99874654Y-39166180D01*
X99855768Y-39369995D01*
X99855768Y-39370004D01*
X99534232Y-39370004D01*
X99534232Y-39370000D01*
X99527854Y-39301175D01*
X99515345Y-39166180D01*
X99515345Y-39166179D01*
X99459328Y-38969299D01*
X99368088Y-38786065D01*
X99316098Y-38717219D01*
X99244733Y-38622715D01*
X99093463Y-38484814D01*
X98919433Y-38377059D01*
X98919428Y-38377057D01*
X98919427Y-38377056D01*
X98728559Y-38303113D01*
X98728560Y-38303113D01*
X98728557Y-38303112D01*
X98728556Y-38303112D01*
X98527347Y-38265500D01*
X98322653Y-38265500D01*
X98121444Y-38303112D01*
X98121439Y-38303113D01*
X97930577Y-38377054D01*
X97930566Y-38377059D01*
X97756536Y-38484814D01*
X97605266Y-38622715D01*
X97481913Y-38786063D01*
X97390671Y-38969301D01*
X97334654Y-39166180D01*
X97315768Y-39369995D01*
X97315768Y-39370004D01*
X77312544Y-39370004D01*
X77338216Y-39301175D01*
X77399165Y-39020999D01*
X77419620Y-38735000D01*
X77399165Y-38449001D01*
X77338216Y-38168825D01*
X77312546Y-38100000D01*
X123629450Y-38100000D01*
X123646845Y-38265500D01*
X123647601Y-38272686D01*
X123701252Y-38437810D01*
X123701256Y-38437817D01*
X123788069Y-38588183D01*
X123788070Y-38588185D01*
X123904251Y-38717217D01*
X124044720Y-38819274D01*
X124044722Y-38819275D01*
X124044725Y-38819277D01*
X124203346Y-38889900D01*
X124373184Y-38926000D01*
X124546816Y-38926000D01*
X124716654Y-38889900D01*
X124875275Y-38819277D01*
X125015746Y-38717219D01*
X125075620Y-38650723D01*
X125131929Y-38588185D01*
X125131930Y-38588183D01*
X125191610Y-38484814D01*
X125218745Y-38437815D01*
X125272400Y-38272681D01*
X125290550Y-38100000D01*
X125272400Y-37927319D01*
X125263580Y-37900174D01*
X125218747Y-37762189D01*
X125218743Y-37762182D01*
X125131930Y-37611816D01*
X125131929Y-37611814D01*
X125015748Y-37482782D01*
X124875279Y-37380725D01*
X124716654Y-37310100D01*
X124546816Y-37274000D01*
X124373184Y-37274000D01*
X124203345Y-37310100D01*
X124044720Y-37380725D01*
X123904251Y-37482782D01*
X123788070Y-37611814D01*
X123788069Y-37611816D01*
X123701256Y-37762182D01*
X123701252Y-37762189D01*
X123647601Y-37927313D01*
X123647600Y-37927317D01*
X123647600Y-37927319D01*
X123629450Y-38100000D01*
X77312546Y-38100000D01*
X77238015Y-37900174D01*
X77100600Y-37648517D01*
X77047275Y-37577284D01*
X76928773Y-37418984D01*
X76928765Y-37418975D01*
X76726024Y-37216234D01*
X76726015Y-37216226D01*
X76496486Y-37044402D01*
X76496484Y-37044401D01*
X76496483Y-37044400D01*
X76384857Y-36983448D01*
X76244825Y-36906984D01*
X75976167Y-36806781D01*
X75696001Y-36745835D01*
X75696002Y-36745835D01*
X75624528Y-36740723D01*
X75481587Y-36730500D01*
X71838413Y-36730500D01*
X71709765Y-36739701D01*
X71623997Y-36745835D01*
X71343833Y-36806781D01*
X71343832Y-36806781D01*
X71075174Y-36906984D01*
X70823513Y-37044402D01*
X70593984Y-37216226D01*
X70593975Y-37216234D01*
X70391234Y-37418975D01*
X70391226Y-37418984D01*
X70219402Y-37648513D01*
X70081984Y-37900174D01*
X69981781Y-38168832D01*
X69981781Y-38168833D01*
X69920835Y-38448997D01*
X69900380Y-38735000D01*
X66294499Y-38735000D01*
X66294499Y-36195003D01*
X77230398Y-36195003D01*
X77250756Y-36401711D01*
X77311055Y-36600492D01*
X77408974Y-36783686D01*
X77540747Y-36944252D01*
X77701313Y-37076024D01*
X77701313Y-37076025D01*
X77701317Y-37076027D01*
X77884508Y-37173945D01*
X78083282Y-37234242D01*
X78083286Y-37234242D01*
X78083288Y-37234243D01*
X78171340Y-37242915D01*
X78238199Y-37249500D01*
X78238208Y-37249500D01*
X79241792Y-37249500D01*
X79241801Y-37249500D01*
X79329859Y-37240826D01*
X79396711Y-37234243D01*
X79396712Y-37234242D01*
X79396718Y-37234242D01*
X79595492Y-37173945D01*
X79778683Y-37076027D01*
X79778684Y-37076025D01*
X79778686Y-37076025D01*
X79778686Y-37076024D01*
X79939252Y-36944252D01*
X80033013Y-36830004D01*
X97315768Y-36830004D01*
X97334654Y-37033819D01*
X97386555Y-37216231D01*
X97390672Y-37230701D01*
X97481912Y-37413935D01*
X97481913Y-37413936D01*
X97605266Y-37577284D01*
X97756536Y-37715185D01*
X97930566Y-37822940D01*
X97930568Y-37822940D01*
X97930573Y-37822944D01*
X98121444Y-37896888D01*
X98322653Y-37934500D01*
X98322655Y-37934500D01*
X98527345Y-37934500D01*
X98527347Y-37934500D01*
X98728556Y-37896888D01*
X98919427Y-37822944D01*
X99093462Y-37715186D01*
X99244732Y-37577285D01*
X99368088Y-37413935D01*
X99459328Y-37230701D01*
X99515345Y-37033821D01*
X99534232Y-36830004D01*
X99855768Y-36830004D01*
X99874654Y-37033819D01*
X99926555Y-37216231D01*
X99930672Y-37230701D01*
X100021912Y-37413935D01*
X100021913Y-37413936D01*
X100145266Y-37577284D01*
X100296536Y-37715185D01*
X100470566Y-37822940D01*
X100470568Y-37822940D01*
X100470573Y-37822944D01*
X100661444Y-37896888D01*
X100862653Y-37934500D01*
X100862655Y-37934500D01*
X101067345Y-37934500D01*
X101067347Y-37934500D01*
X101268556Y-37896888D01*
X101459427Y-37822944D01*
X101633462Y-37715186D01*
X101784732Y-37577285D01*
X101908088Y-37413935D01*
X101999328Y-37230701D01*
X102055345Y-37033821D01*
X102074232Y-36830004D01*
X121089450Y-36830004D01*
X121107601Y-37002686D01*
X121161252Y-37167810D01*
X121161256Y-37167817D01*
X121248069Y-37318183D01*
X121248070Y-37318185D01*
X121364251Y-37447217D01*
X121504720Y-37549274D01*
X121504722Y-37549275D01*
X121504725Y-37549277D01*
X121663346Y-37619900D01*
X121833184Y-37656000D01*
X122006816Y-37656000D01*
X122176654Y-37619900D01*
X122335275Y-37549277D01*
X122475746Y-37447219D01*
X122501174Y-37418979D01*
X122591929Y-37318185D01*
X122591930Y-37318183D01*
X122631584Y-37249500D01*
X122678745Y-37167815D01*
X122732400Y-37002681D01*
X122750550Y-36830000D01*
X122732400Y-36657319D01*
X122713936Y-36600492D01*
X122678747Y-36492189D01*
X122678743Y-36492182D01*
X122591930Y-36341816D01*
X122591929Y-36341814D01*
X122475748Y-36212782D01*
X122335279Y-36110725D01*
X122176654Y-36040100D01*
X122006816Y-36004000D01*
X121833184Y-36004000D01*
X121663345Y-36040100D01*
X121504720Y-36110725D01*
X121364251Y-36212782D01*
X121248070Y-36341814D01*
X121248069Y-36341816D01*
X121161256Y-36492182D01*
X121161252Y-36492189D01*
X121107601Y-36657313D01*
X121089451Y-36829995D01*
X121089450Y-36830000D01*
X121089450Y-36830004D01*
X102074232Y-36830004D01*
X102074232Y-36830000D01*
X102072080Y-36806781D01*
X102055345Y-36626180D01*
X102048036Y-36600492D01*
X101999328Y-36429299D01*
X101908088Y-36246065D01*
X101856098Y-36177219D01*
X101784733Y-36082715D01*
X101633463Y-35944814D01*
X101459433Y-35837059D01*
X101459428Y-35837057D01*
X101459427Y-35837056D01*
X101336692Y-35789508D01*
X101268559Y-35763113D01*
X101268560Y-35763113D01*
X101268557Y-35763112D01*
X101268556Y-35763112D01*
X101067347Y-35725500D01*
X100862653Y-35725500D01*
X100661444Y-35763112D01*
X100661439Y-35763113D01*
X100470577Y-35837054D01*
X100470566Y-35837059D01*
X100296536Y-35944814D01*
X100145266Y-36082715D01*
X100021913Y-36246063D01*
X99930671Y-36429301D01*
X99874654Y-36626180D01*
X99855768Y-36829995D01*
X99855768Y-36830004D01*
X99534232Y-36830004D01*
X99534232Y-36830000D01*
X99532080Y-36806781D01*
X99515345Y-36626180D01*
X99508036Y-36600492D01*
X99459328Y-36429299D01*
X99368088Y-36246065D01*
X99316098Y-36177219D01*
X99244733Y-36082715D01*
X99093463Y-35944814D01*
X98919433Y-35837059D01*
X98919428Y-35837057D01*
X98919427Y-35837056D01*
X98796692Y-35789508D01*
X98728559Y-35763113D01*
X98728560Y-35763113D01*
X98728557Y-35763112D01*
X98728556Y-35763112D01*
X98527347Y-35725500D01*
X98322653Y-35725500D01*
X98121444Y-35763112D01*
X98121439Y-35763113D01*
X97930577Y-35837054D01*
X97930566Y-35837059D01*
X97756536Y-35944814D01*
X97605266Y-36082715D01*
X97481913Y-36246063D01*
X97390671Y-36429301D01*
X97334654Y-36626180D01*
X97315768Y-36829995D01*
X97315768Y-36830004D01*
X80033013Y-36830004D01*
X80071027Y-36783683D01*
X80168945Y-36600492D01*
X80229242Y-36401718D01*
X80241302Y-36279277D01*
X80249602Y-36195003D01*
X80249602Y-36194996D01*
X80229243Y-35988288D01*
X80229242Y-35988286D01*
X80229242Y-35988282D01*
X80168945Y-35789508D01*
X80071027Y-35606317D01*
X80071025Y-35606313D01*
X80033017Y-35560000D01*
X123629450Y-35560000D01*
X123646845Y-35725500D01*
X123647601Y-35732686D01*
X123701252Y-35897810D01*
X123701256Y-35897817D01*
X123788069Y-36048183D01*
X123788070Y-36048185D01*
X123904251Y-36177217D01*
X124044720Y-36279274D01*
X124044722Y-36279275D01*
X124044725Y-36279277D01*
X124203346Y-36349900D01*
X124373184Y-36386000D01*
X124546816Y-36386000D01*
X124716654Y-36349900D01*
X124875275Y-36279277D01*
X125015746Y-36177219D01*
X125075620Y-36110723D01*
X125131929Y-36048185D01*
X125131930Y-36048183D01*
X125191610Y-35944814D01*
X125218745Y-35897815D01*
X125272400Y-35732681D01*
X125290550Y-35560000D01*
X125272400Y-35387319D01*
X125268789Y-35376208D01*
X125218747Y-35222189D01*
X125218743Y-35222182D01*
X125131930Y-35071816D01*
X125131929Y-35071814D01*
X125015748Y-34942782D01*
X124875279Y-34840725D01*
X124716654Y-34770100D01*
X124546816Y-34734000D01*
X124373184Y-34734000D01*
X124203345Y-34770100D01*
X124044720Y-34840725D01*
X123904251Y-34942782D01*
X123788070Y-35071814D01*
X123788069Y-35071816D01*
X123701256Y-35222182D01*
X123701252Y-35222189D01*
X123647601Y-35387313D01*
X123647600Y-35387317D01*
X123647600Y-35387319D01*
X123629450Y-35560000D01*
X80033017Y-35560000D01*
X79939252Y-35445747D01*
X79778686Y-35313975D01*
X79778686Y-35313974D01*
X79595492Y-35216055D01*
X79460764Y-35175186D01*
X79396718Y-35155758D01*
X79396717Y-35155757D01*
X79396711Y-35155756D01*
X79241807Y-35140500D01*
X79241801Y-35140500D01*
X78238199Y-35140500D01*
X78238192Y-35140500D01*
X78083288Y-35155756D01*
X77884507Y-35216055D01*
X77701313Y-35313974D01*
X77701313Y-35313975D01*
X77540747Y-35445747D01*
X77408975Y-35606313D01*
X77408974Y-35606313D01*
X77311055Y-35789507D01*
X77250756Y-35988288D01*
X77230398Y-36194996D01*
X77230398Y-36195003D01*
X66294499Y-36195003D01*
X66294499Y-33655003D01*
X77230398Y-33655003D01*
X77250756Y-33861711D01*
X77311055Y-34060492D01*
X77408974Y-34243686D01*
X77540747Y-34404252D01*
X77701313Y-34536024D01*
X77701313Y-34536025D01*
X77701317Y-34536027D01*
X77884508Y-34633945D01*
X78083282Y-34694242D01*
X78083286Y-34694242D01*
X78083288Y-34694243D01*
X78171340Y-34702915D01*
X78238199Y-34709500D01*
X78238208Y-34709500D01*
X79241792Y-34709500D01*
X79241801Y-34709500D01*
X79329859Y-34700826D01*
X79396711Y-34694243D01*
X79396712Y-34694242D01*
X79396718Y-34694242D01*
X79595492Y-34633945D01*
X79778683Y-34536027D01*
X79778684Y-34536025D01*
X79778686Y-34536025D01*
X79778686Y-34536024D01*
X79939252Y-34404252D01*
X80033013Y-34290004D01*
X97315768Y-34290004D01*
X97334654Y-34493819D01*
X97390671Y-34690698D01*
X97390672Y-34690701D01*
X97481912Y-34873935D01*
X97481913Y-34873936D01*
X97605266Y-35037284D01*
X97756536Y-35175185D01*
X97930566Y-35282940D01*
X97930568Y-35282940D01*
X97930573Y-35282944D01*
X98121444Y-35356888D01*
X98322653Y-35394500D01*
X98322655Y-35394500D01*
X98527345Y-35394500D01*
X98527347Y-35394500D01*
X98728556Y-35356888D01*
X98919427Y-35282944D01*
X99093462Y-35175186D01*
X99244732Y-35037285D01*
X99368088Y-34873935D01*
X99459328Y-34690701D01*
X99515345Y-34493821D01*
X99534232Y-34290004D01*
X99855768Y-34290004D01*
X99874654Y-34493819D01*
X99930671Y-34690698D01*
X99930672Y-34690701D01*
X100021912Y-34873935D01*
X100021913Y-34873936D01*
X100145266Y-35037284D01*
X100296536Y-35175185D01*
X100470566Y-35282940D01*
X100470568Y-35282940D01*
X100470573Y-35282944D01*
X100661444Y-35356888D01*
X100862653Y-35394500D01*
X100862655Y-35394500D01*
X101067345Y-35394500D01*
X101067347Y-35394500D01*
X101268556Y-35356888D01*
X101459427Y-35282944D01*
X101633462Y-35175186D01*
X101784732Y-35037285D01*
X101908088Y-34873935D01*
X101999328Y-34690701D01*
X102055345Y-34493821D01*
X102074232Y-34290004D01*
X121089450Y-34290004D01*
X121107601Y-34462686D01*
X121161252Y-34627810D01*
X121161256Y-34627817D01*
X121248069Y-34778183D01*
X121248070Y-34778185D01*
X121364251Y-34907217D01*
X121504720Y-35009274D01*
X121504722Y-35009275D01*
X121504725Y-35009277D01*
X121663346Y-35079900D01*
X121833184Y-35116000D01*
X122006816Y-35116000D01*
X122176654Y-35079900D01*
X122335275Y-35009277D01*
X122475746Y-34907219D01*
X122535620Y-34840723D01*
X122591929Y-34778185D01*
X122591930Y-34778183D01*
X122631584Y-34709500D01*
X122678745Y-34627815D01*
X122732400Y-34462681D01*
X122750550Y-34290000D01*
X122732400Y-34117319D01*
X122713936Y-34060492D01*
X122678747Y-33952189D01*
X122678743Y-33952182D01*
X122591930Y-33801816D01*
X122591929Y-33801814D01*
X122475748Y-33672782D01*
X122335279Y-33570725D01*
X122176654Y-33500100D01*
X122006816Y-33464000D01*
X121833184Y-33464000D01*
X121663345Y-33500100D01*
X121504720Y-33570725D01*
X121364251Y-33672782D01*
X121248070Y-33801814D01*
X121248069Y-33801816D01*
X121161256Y-33952182D01*
X121161252Y-33952189D01*
X121107601Y-34117313D01*
X121089451Y-34289995D01*
X121089450Y-34290000D01*
X121089450Y-34290004D01*
X102074232Y-34290004D01*
X102074232Y-34290000D01*
X102069940Y-34243686D01*
X102055345Y-34086180D01*
X102048036Y-34060492D01*
X101999328Y-33889299D01*
X101908088Y-33706065D01*
X101856098Y-33637219D01*
X101784733Y-33542715D01*
X101633463Y-33404814D01*
X101459433Y-33297059D01*
X101459428Y-33297057D01*
X101459427Y-33297056D01*
X101336692Y-33249508D01*
X101268559Y-33223113D01*
X101268560Y-33223113D01*
X101268557Y-33223112D01*
X101268556Y-33223112D01*
X101067347Y-33185500D01*
X100862653Y-33185500D01*
X100661444Y-33223112D01*
X100661439Y-33223113D01*
X100470577Y-33297054D01*
X100470566Y-33297059D01*
X100296536Y-33404814D01*
X100145266Y-33542715D01*
X100021913Y-33706063D01*
X99930671Y-33889301D01*
X99874654Y-34086180D01*
X99855768Y-34289995D01*
X99855768Y-34290004D01*
X99534232Y-34290004D01*
X99534232Y-34290000D01*
X99529940Y-34243686D01*
X99515345Y-34086180D01*
X99508036Y-34060492D01*
X99459328Y-33889299D01*
X99368088Y-33706065D01*
X99316098Y-33637219D01*
X99244733Y-33542715D01*
X99093463Y-33404814D01*
X98919433Y-33297059D01*
X98919428Y-33297057D01*
X98919427Y-33297056D01*
X98796692Y-33249508D01*
X98728559Y-33223113D01*
X98728560Y-33223113D01*
X98728557Y-33223112D01*
X98728556Y-33223112D01*
X98527347Y-33185500D01*
X98322653Y-33185500D01*
X98121444Y-33223112D01*
X98121439Y-33223113D01*
X97930577Y-33297054D01*
X97930566Y-33297059D01*
X97756536Y-33404814D01*
X97605266Y-33542715D01*
X97481913Y-33706063D01*
X97390671Y-33889301D01*
X97334654Y-34086180D01*
X97315768Y-34289995D01*
X97315768Y-34290004D01*
X80033013Y-34290004D01*
X80071027Y-34243683D01*
X80168945Y-34060492D01*
X80229242Y-33861718D01*
X80241302Y-33739277D01*
X80249602Y-33655003D01*
X80249602Y-33654996D01*
X80229243Y-33448288D01*
X80229242Y-33448286D01*
X80229242Y-33448282D01*
X80168945Y-33249508D01*
X80071027Y-33066317D01*
X80071025Y-33066313D01*
X80033017Y-33020000D01*
X123629450Y-33020000D01*
X123646845Y-33185500D01*
X123647601Y-33192686D01*
X123701252Y-33357810D01*
X123701256Y-33357817D01*
X123788069Y-33508183D01*
X123788070Y-33508185D01*
X123904251Y-33637217D01*
X124044720Y-33739274D01*
X124044722Y-33739275D01*
X124044725Y-33739277D01*
X124203346Y-33809900D01*
X124373184Y-33846000D01*
X124546816Y-33846000D01*
X124716654Y-33809900D01*
X124875275Y-33739277D01*
X125015746Y-33637219D01*
X125075620Y-33570723D01*
X125131929Y-33508185D01*
X125131930Y-33508183D01*
X125191610Y-33404814D01*
X125218745Y-33357815D01*
X125272400Y-33192681D01*
X125290550Y-33020000D01*
X125272400Y-32847319D01*
X125268789Y-32836208D01*
X125218747Y-32682189D01*
X125218743Y-32682182D01*
X125131930Y-32531816D01*
X125131929Y-32531814D01*
X125015748Y-32402782D01*
X124875279Y-32300725D01*
X124716654Y-32230100D01*
X124546816Y-32194000D01*
X124373184Y-32194000D01*
X124203345Y-32230100D01*
X124044720Y-32300725D01*
X123904251Y-32402782D01*
X123788070Y-32531814D01*
X123788069Y-32531816D01*
X123701256Y-32682182D01*
X123701252Y-32682189D01*
X123647601Y-32847313D01*
X123647600Y-32847317D01*
X123647600Y-32847319D01*
X123629450Y-33020000D01*
X80033017Y-33020000D01*
X79939252Y-32905747D01*
X79778686Y-32773975D01*
X79778686Y-32773974D01*
X79595492Y-32676055D01*
X79460764Y-32635186D01*
X79396718Y-32615758D01*
X79396717Y-32615757D01*
X79396711Y-32615756D01*
X79241807Y-32600500D01*
X79241801Y-32600500D01*
X78238199Y-32600500D01*
X78238192Y-32600500D01*
X78083288Y-32615756D01*
X77884507Y-32676055D01*
X77701313Y-32773974D01*
X77701313Y-32773975D01*
X77540747Y-32905747D01*
X77408975Y-33066313D01*
X77408974Y-33066313D01*
X77311055Y-33249507D01*
X77250756Y-33448288D01*
X77230398Y-33654996D01*
X77230398Y-33655003D01*
X66294499Y-33655003D01*
X66294499Y-31750004D01*
X97315768Y-31750004D01*
X97334654Y-31953819D01*
X97334655Y-31953821D01*
X97390672Y-32150701D01*
X97481912Y-32333935D01*
X97481913Y-32333936D01*
X97605266Y-32497284D01*
X97756536Y-32635185D01*
X97930566Y-32742940D01*
X97930568Y-32742940D01*
X97930573Y-32742944D01*
X98121444Y-32816888D01*
X98322653Y-32854500D01*
X98322655Y-32854500D01*
X98527345Y-32854500D01*
X98527347Y-32854500D01*
X98728556Y-32816888D01*
X98919427Y-32742944D01*
X99093462Y-32635186D01*
X99244732Y-32497285D01*
X99368088Y-32333935D01*
X99459328Y-32150701D01*
X99515345Y-31953821D01*
X99534232Y-31750004D01*
X99855768Y-31750004D01*
X99874654Y-31953819D01*
X99874655Y-31953821D01*
X99930672Y-32150701D01*
X100021912Y-32333935D01*
X100021913Y-32333936D01*
X100145266Y-32497284D01*
X100296536Y-32635185D01*
X100470566Y-32742940D01*
X100470568Y-32742940D01*
X100470573Y-32742944D01*
X100661444Y-32816888D01*
X100862653Y-32854500D01*
X100862655Y-32854500D01*
X101067345Y-32854500D01*
X101067347Y-32854500D01*
X101268556Y-32816888D01*
X101459427Y-32742944D01*
X101633462Y-32635186D01*
X101784732Y-32497285D01*
X101908088Y-32333935D01*
X101999328Y-32150701D01*
X102055345Y-31953821D01*
X102074232Y-31750000D01*
X121089450Y-31750000D01*
X121104686Y-31894960D01*
X121107601Y-31922686D01*
X121161252Y-32087810D01*
X121161256Y-32087817D01*
X121248069Y-32238183D01*
X121248070Y-32238185D01*
X121364251Y-32367217D01*
X121504720Y-32469274D01*
X121504722Y-32469275D01*
X121504725Y-32469277D01*
X121663346Y-32539900D01*
X121833184Y-32576000D01*
X122006816Y-32576000D01*
X122176654Y-32539900D01*
X122335275Y-32469277D01*
X122475746Y-32367219D01*
X122535620Y-32300723D01*
X122591929Y-32238185D01*
X122591930Y-32238183D01*
X122617439Y-32194000D01*
X122678745Y-32087815D01*
X122732400Y-31922681D01*
X122750550Y-31750000D01*
X122732400Y-31577319D01*
X122707979Y-31502157D01*
X122678747Y-31412189D01*
X122678743Y-31412182D01*
X122591930Y-31261816D01*
X122591929Y-31261814D01*
X122475748Y-31132782D01*
X122335279Y-31030725D01*
X122176654Y-30960100D01*
X122006816Y-30924000D01*
X121833184Y-30924000D01*
X121663345Y-30960100D01*
X121504720Y-31030725D01*
X121364251Y-31132782D01*
X121248070Y-31261814D01*
X121248069Y-31261816D01*
X121161256Y-31412182D01*
X121161252Y-31412189D01*
X121107601Y-31577313D01*
X121107600Y-31577317D01*
X121107600Y-31577319D01*
X121089450Y-31750000D01*
X102074232Y-31750000D01*
X102065316Y-31653787D01*
X102055345Y-31546180D01*
X102055345Y-31546179D01*
X101999328Y-31349299D01*
X101908088Y-31166065D01*
X101856098Y-31097219D01*
X101784733Y-31002715D01*
X101633463Y-30864814D01*
X101459433Y-30757059D01*
X101459428Y-30757057D01*
X101459427Y-30757056D01*
X101268559Y-30683113D01*
X101268560Y-30683113D01*
X101268557Y-30683112D01*
X101268556Y-30683112D01*
X101067347Y-30645500D01*
X100862653Y-30645500D01*
X100661444Y-30683112D01*
X100661439Y-30683113D01*
X100470577Y-30757054D01*
X100470566Y-30757059D01*
X100296536Y-30864814D01*
X100145266Y-31002715D01*
X100021913Y-31166063D01*
X99930671Y-31349301D01*
X99874654Y-31546180D01*
X99855768Y-31749995D01*
X99855768Y-31750004D01*
X99534232Y-31750004D01*
X99534232Y-31750000D01*
X99525316Y-31653787D01*
X99515345Y-31546180D01*
X99515345Y-31546179D01*
X99459328Y-31349299D01*
X99368088Y-31166065D01*
X99316098Y-31097219D01*
X99244733Y-31002715D01*
X99093463Y-30864814D01*
X98919433Y-30757059D01*
X98919428Y-30757057D01*
X98919427Y-30757056D01*
X98728559Y-30683113D01*
X98728560Y-30683113D01*
X98728557Y-30683112D01*
X98728556Y-30683112D01*
X98527347Y-30645500D01*
X98322653Y-30645500D01*
X98121444Y-30683112D01*
X98121439Y-30683113D01*
X97930577Y-30757054D01*
X97930566Y-30757059D01*
X97756536Y-30864814D01*
X97605266Y-31002715D01*
X97481913Y-31166063D01*
X97390671Y-31349301D01*
X97334654Y-31546180D01*
X97315768Y-31749995D01*
X97315768Y-31750004D01*
X66294499Y-31750004D01*
X66294499Y-28575000D01*
X69900380Y-28575000D01*
X69920835Y-28861002D01*
X69981781Y-29141166D01*
X69981781Y-29141167D01*
X70081984Y-29409825D01*
X70158448Y-29549857D01*
X70208925Y-29642300D01*
X70219402Y-29661486D01*
X70391226Y-29891015D01*
X70391229Y-29891018D01*
X70391231Y-29891021D01*
X70593979Y-30093769D01*
X70593982Y-30093771D01*
X70593984Y-30093773D01*
X70739819Y-30202944D01*
X70823517Y-30265600D01*
X71075174Y-30403015D01*
X71343825Y-30503216D01*
X71343828Y-30503216D01*
X71343832Y-30503218D01*
X71505972Y-30538489D01*
X71624001Y-30564165D01*
X71838413Y-30579500D01*
X71838419Y-30579500D01*
X75481581Y-30579500D01*
X75481587Y-30579500D01*
X75695999Y-30564165D01*
X75976166Y-30503218D01*
X75976167Y-30503218D01*
X75976168Y-30503217D01*
X75976175Y-30503216D01*
X76038420Y-30480000D01*
X123629450Y-30480000D01*
X123646845Y-30645500D01*
X123647601Y-30652686D01*
X123701252Y-30817810D01*
X123701256Y-30817817D01*
X123788069Y-30968183D01*
X123788070Y-30968185D01*
X123904251Y-31097217D01*
X124044720Y-31199274D01*
X124044722Y-31199275D01*
X124044725Y-31199277D01*
X124203346Y-31269900D01*
X124373184Y-31306000D01*
X124546816Y-31306000D01*
X124716654Y-31269900D01*
X124875275Y-31199277D01*
X125015746Y-31097219D01*
X125075620Y-31030723D01*
X125131929Y-30968185D01*
X125131930Y-30968183D01*
X125157439Y-30924000D01*
X125218745Y-30817815D01*
X125272400Y-30652681D01*
X125290550Y-30480000D01*
X125272400Y-30307319D01*
X125268789Y-30296208D01*
X125218747Y-30142189D01*
X125218743Y-30142182D01*
X125131930Y-29991816D01*
X125131929Y-29991814D01*
X125015748Y-29862782D01*
X124875279Y-29760725D01*
X124716654Y-29690100D01*
X124546816Y-29654000D01*
X124373184Y-29654000D01*
X124203345Y-29690100D01*
X124044720Y-29760725D01*
X123904251Y-29862782D01*
X123788070Y-29991814D01*
X123788069Y-29991816D01*
X123701256Y-30142182D01*
X123701252Y-30142189D01*
X123647601Y-30307313D01*
X123647600Y-30307317D01*
X123647600Y-30307319D01*
X123629450Y-30480000D01*
X76038420Y-30480000D01*
X76244826Y-30403015D01*
X76496483Y-30265600D01*
X76726021Y-30093769D01*
X76928769Y-29891021D01*
X77100600Y-29661483D01*
X77238015Y-29409826D01*
X77312544Y-29210004D01*
X97315768Y-29210004D01*
X97334654Y-29413819D01*
X97336595Y-29420640D01*
X97390672Y-29610701D01*
X97481912Y-29793935D01*
X97481913Y-29793936D01*
X97605266Y-29957284D01*
X97756536Y-30095185D01*
X97930566Y-30202940D01*
X97930568Y-30202940D01*
X97930573Y-30202944D01*
X98121444Y-30276888D01*
X98322653Y-30314500D01*
X98322655Y-30314500D01*
X98527345Y-30314500D01*
X98527347Y-30314500D01*
X98728556Y-30276888D01*
X98919427Y-30202944D01*
X99093462Y-30095186D01*
X99244732Y-29957285D01*
X99368088Y-29793935D01*
X99459328Y-29610701D01*
X99515345Y-29413821D01*
X99521640Y-29345880D01*
X99534232Y-29210004D01*
X99855768Y-29210004D01*
X99874654Y-29413819D01*
X99876595Y-29420640D01*
X99930672Y-29610701D01*
X100021912Y-29793935D01*
X100021913Y-29793936D01*
X100145266Y-29957284D01*
X100296536Y-30095185D01*
X100470566Y-30202940D01*
X100470568Y-30202940D01*
X100470573Y-30202944D01*
X100661444Y-30276888D01*
X100862653Y-30314500D01*
X100862655Y-30314500D01*
X101067345Y-30314500D01*
X101067347Y-30314500D01*
X101268556Y-30276888D01*
X101459427Y-30202944D01*
X101633462Y-30095186D01*
X101784732Y-29957285D01*
X101908088Y-29793935D01*
X101999328Y-29610701D01*
X102055345Y-29413821D01*
X102061640Y-29345880D01*
X102074232Y-29210004D01*
X102074232Y-29209995D01*
X102055345Y-29006180D01*
X102055345Y-29006179D01*
X101999328Y-28809299D01*
X101908088Y-28626065D01*
X101867538Y-28572368D01*
X101784733Y-28462715D01*
X101633463Y-28324814D01*
X101459433Y-28217059D01*
X101459428Y-28217057D01*
X101459427Y-28217056D01*
X101268559Y-28143113D01*
X101268560Y-28143113D01*
X101268557Y-28143112D01*
X101268556Y-28143112D01*
X101067347Y-28105500D01*
X100862653Y-28105500D01*
X100661444Y-28143112D01*
X100661439Y-28143113D01*
X100470577Y-28217054D01*
X100470566Y-28217059D01*
X100296536Y-28324814D01*
X100145266Y-28462715D01*
X100021913Y-28626063D01*
X99930671Y-28809301D01*
X99874654Y-29006180D01*
X99855768Y-29209995D01*
X99855768Y-29210004D01*
X99534232Y-29210004D01*
X99534232Y-29209995D01*
X99515345Y-29006180D01*
X99515345Y-29006179D01*
X99459328Y-28809299D01*
X99368088Y-28626065D01*
X99327538Y-28572368D01*
X99244733Y-28462715D01*
X99093463Y-28324814D01*
X98919433Y-28217059D01*
X98919428Y-28217057D01*
X98919427Y-28217056D01*
X98728559Y-28143113D01*
X98728560Y-28143113D01*
X98728557Y-28143112D01*
X98728556Y-28143112D01*
X98527347Y-28105500D01*
X98322653Y-28105500D01*
X98121444Y-28143112D01*
X98121439Y-28143113D01*
X97930577Y-28217054D01*
X97930566Y-28217059D01*
X97756536Y-28324814D01*
X97605266Y-28462715D01*
X97481913Y-28626063D01*
X97390671Y-28809301D01*
X97334654Y-29006180D01*
X97315768Y-29209995D01*
X97315768Y-29210004D01*
X77312544Y-29210004D01*
X77338216Y-29141175D01*
X77399165Y-28860999D01*
X77419620Y-28575000D01*
X77399165Y-28289001D01*
X77338216Y-28008825D01*
X77238015Y-27740174D01*
X77131476Y-27545063D01*
X97320500Y-27545063D01*
X97320501Y-27545073D01*
X97335265Y-27619300D01*
X97391516Y-27703484D01*
X97475697Y-27759733D01*
X97475699Y-27759734D01*
X97549933Y-27774500D01*
X99300066Y-27774499D01*
X99300069Y-27774498D01*
X99300073Y-27774498D01*
X99349326Y-27764701D01*
X99374301Y-27759734D01*
X99458484Y-27703484D01*
X99514734Y-27619301D01*
X99529500Y-27545067D01*
X99529500Y-26670004D01*
X99855768Y-26670004D01*
X99874654Y-26873819D01*
X99926555Y-27056231D01*
X99930672Y-27070701D01*
X100021912Y-27253935D01*
X100021913Y-27253936D01*
X100145266Y-27417284D01*
X100296536Y-27555185D01*
X100470566Y-27662940D01*
X100470568Y-27662940D01*
X100470573Y-27662944D01*
X100661444Y-27736888D01*
X100862653Y-27774500D01*
X100862655Y-27774500D01*
X101067345Y-27774500D01*
X101067347Y-27774500D01*
X101268556Y-27736888D01*
X101459427Y-27662944D01*
X101633462Y-27555186D01*
X101784732Y-27417285D01*
X101908088Y-27253935D01*
X101999328Y-27070701D01*
X102055345Y-26873821D01*
X102074232Y-26670000D01*
X102072080Y-26646781D01*
X102055345Y-26466180D01*
X102055345Y-26466179D01*
X101999328Y-26269299D01*
X101908088Y-26086065D01*
X101867538Y-26032368D01*
X101784733Y-25922715D01*
X101633463Y-25784814D01*
X101459433Y-25677059D01*
X101459428Y-25677057D01*
X101459427Y-25677056D01*
X101459422Y-25677054D01*
X101268559Y-25603113D01*
X101268560Y-25603113D01*
X101268557Y-25603112D01*
X101268556Y-25603112D01*
X101067347Y-25565500D01*
X100862653Y-25565500D01*
X100661444Y-25603112D01*
X100661439Y-25603113D01*
X100470577Y-25677054D01*
X100470566Y-25677059D01*
X100296536Y-25784814D01*
X100145266Y-25922715D01*
X100021913Y-26086063D01*
X99930671Y-26269301D01*
X99874654Y-26466180D01*
X99855768Y-26669995D01*
X99855768Y-26670004D01*
X99529500Y-26670004D01*
X99529499Y-25794934D01*
X99529498Y-25794930D01*
X99529498Y-25794926D01*
X99514734Y-25720699D01*
X99458483Y-25636515D01*
X99374302Y-25580266D01*
X99300067Y-25565500D01*
X97549936Y-25565500D01*
X97549926Y-25565501D01*
X97475699Y-25580265D01*
X97391515Y-25636516D01*
X97335266Y-25720697D01*
X97320500Y-25794930D01*
X97320500Y-27545063D01*
X77131476Y-27545063D01*
X77100600Y-27488517D01*
X76928769Y-27258979D01*
X76726021Y-27056231D01*
X76726018Y-27056229D01*
X76726015Y-27056226D01*
X76496486Y-26884402D01*
X76496484Y-26884401D01*
X76496483Y-26884400D01*
X76384857Y-26823448D01*
X76244825Y-26746984D01*
X75976167Y-26646781D01*
X75696001Y-26585835D01*
X75696002Y-26585835D01*
X75624528Y-26580723D01*
X75481587Y-26570500D01*
X71838413Y-26570500D01*
X71709765Y-26579701D01*
X71623997Y-26585835D01*
X71343833Y-26646781D01*
X71343832Y-26646781D01*
X71075174Y-26746984D01*
X70823513Y-26884402D01*
X70593984Y-27056226D01*
X70593975Y-27056234D01*
X70391234Y-27258975D01*
X70391226Y-27258984D01*
X70219402Y-27488513D01*
X70081984Y-27740174D01*
X69981781Y-28008832D01*
X69981781Y-28008833D01*
X69920835Y-28288997D01*
X69900380Y-28575000D01*
X66294499Y-28575000D01*
X66294499Y-24531060D01*
X66314501Y-24462943D01*
X66368157Y-24416450D01*
X66438431Y-24406346D01*
X66503011Y-24435840D01*
X66519684Y-24453357D01*
X66626942Y-24590260D01*
X66626947Y-24590266D01*
X66849733Y-24813052D01*
X66849739Y-24813057D01*
X66849741Y-24813059D01*
X67097771Y-25007379D01*
X67367416Y-25170385D01*
X67654744Y-25299700D01*
X67955563Y-25393440D01*
X68265488Y-25450236D01*
X68475162Y-25462918D01*
X68579999Y-25469260D01*
X68580000Y-25469260D01*
X68580001Y-25469260D01*
X68658628Y-25464504D01*
X68894512Y-25450236D01*
X69204437Y-25393440D01*
X69505256Y-25299700D01*
X69792584Y-25170385D01*
X70062229Y-25007379D01*
X70310259Y-24813059D01*
X70533059Y-24590259D01*
X70727379Y-24342229D01*
X70890385Y-24072584D01*
X71019700Y-23785256D01*
X71113440Y-23484437D01*
X71170236Y-23174512D01*
X71189260Y-22860000D01*
X71170236Y-22545488D01*
X71113440Y-22235563D01*
X71019700Y-21934744D01*
X70890385Y-21647416D01*
X70727379Y-21377771D01*
X70533059Y-21129741D01*
X70533057Y-21129739D01*
X70533052Y-21129733D01*
X70310266Y-20906947D01*
X70310260Y-20906942D01*
X70173357Y-20799685D01*
X70132070Y-20741928D01*
X70128562Y-20671019D01*
X70163947Y-20609469D01*
X70226992Y-20576821D01*
X70251064Y-20574500D01*
X170413936Y-20574500D01*
X170482057Y-20594502D01*
G37*
%TD.AperFunction*%
%TD*%
M02*
