%TF.GenerationSoftware,KiCad,Pcbnew,7.0.6-7.0.6~ubuntu22.04.1*%
%TF.CreationDate,2023-08-01T10:33:02-04:00*%
%TF.ProjectId,test-board,74657374-2d62-46f6-9172-642e6b696361,rev?*%
%TF.SameCoordinates,Original*%
%TF.FileFunction,Legend,Bot*%
%TF.FilePolarity,Positive*%
%FSLAX46Y46*%
G04 Gerber Fmt 4.6, Leading zero omitted, Abs format (unit mm)*
G04 Created by KiCad (PCBNEW 7.0.6-7.0.6~ubuntu22.04.1) date 2023-08-01 10:33:02*
%MOMM*%
%LPD*%
G01*
G04 APERTURE LIST*
%ADD10C,0.150000*%
%ADD11C,0.120000*%
G04 APERTURE END LIST*
D10*
X152733333Y-52584819D02*
X152733333Y-53299104D01*
X152733333Y-53299104D02*
X152780952Y-53441961D01*
X152780952Y-53441961D02*
X152876190Y-53537200D01*
X152876190Y-53537200D02*
X153019047Y-53584819D01*
X153019047Y-53584819D02*
X153114285Y-53584819D01*
X152304761Y-52680057D02*
X152257142Y-52632438D01*
X152257142Y-52632438D02*
X152161904Y-52584819D01*
X152161904Y-52584819D02*
X151923809Y-52584819D01*
X151923809Y-52584819D02*
X151828571Y-52632438D01*
X151828571Y-52632438D02*
X151780952Y-52680057D01*
X151780952Y-52680057D02*
X151733333Y-52775295D01*
X151733333Y-52775295D02*
X151733333Y-52870533D01*
X151733333Y-52870533D02*
X151780952Y-53013390D01*
X151780952Y-53013390D02*
X152352380Y-53584819D01*
X152352380Y-53584819D02*
X151733333Y-53584819D01*
D11*
%TO.C,J2*%
X154165000Y-49535000D02*
X154165000Y-49470000D01*
X154165000Y-52130000D02*
X154165000Y-52065000D01*
X150635000Y-49470000D02*
X154165000Y-49470000D01*
X150635000Y-49535000D02*
X150635000Y-49470000D01*
X150635000Y-52130000D02*
X154165000Y-52130000D01*
X150635000Y-52130000D02*
X150635000Y-52065000D01*
X149310000Y-52065000D02*
X150635000Y-52065000D01*
%TD*%
M02*
