%TF.GenerationSoftware,KiCad,Pcbnew,7.0.9-7.0.9~ubuntu22.04.1*%
%TF.CreationDate,2024-01-17T07:25:15-05:00*%
%TF.ProjectId,imu-board,696d752d-626f-4617-9264-2e6b69636164,rev?*%
%TF.SameCoordinates,Original*%
%TF.FileFunction,Copper,L1,Top*%
%TF.FilePolarity,Positive*%
%FSLAX46Y46*%
G04 Gerber Fmt 4.6, Leading zero omitted, Abs format (unit mm)*
G04 Created by KiCad (PCBNEW 7.0.9-7.0.9~ubuntu22.04.1) date 2024-01-17 07:25:15*
%MOMM*%
%LPD*%
G01*
G04 APERTURE LIST*
G04 Aperture macros list*
%AMRoundRect*
0 Rectangle with rounded corners*
0 $1 Rounding radius*
0 $2 $3 $4 $5 $6 $7 $8 $9 X,Y pos of 4 corners*
0 Add a 4 corners polygon primitive as box body*
4,1,4,$2,$3,$4,$5,$6,$7,$8,$9,$2,$3,0*
0 Add four circle primitives for the rounded corners*
1,1,$1+$1,$2,$3*
1,1,$1+$1,$4,$5*
1,1,$1+$1,$6,$7*
1,1,$1+$1,$8,$9*
0 Add four rect primitives between the rounded corners*
20,1,$1+$1,$2,$3,$4,$5,0*
20,1,$1+$1,$4,$5,$6,$7,0*
20,1,$1+$1,$6,$7,$8,$9,0*
20,1,$1+$1,$8,$9,$2,$3,0*%
%AMFreePoly0*
4,1,14,0.318306,0.106694,0.381694,0.043306,0.400000,-0.000888,0.400000,-0.062500,0.381694,-0.106694,0.337500,-0.125000,-0.337500,-0.125000,-0.381694,-0.106694,-0.400000,-0.062500,-0.400000,0.062500,-0.381694,0.106694,-0.337500,0.125000,0.274112,0.125000,0.318306,0.106694,0.318306,0.106694,$1*%
%AMFreePoly1*
4,1,14,0.381694,0.106694,0.400000,0.062500,0.400000,0.000888,0.381694,-0.043306,0.318306,-0.106694,0.274112,-0.125000,-0.337500,-0.125000,-0.381694,-0.106694,-0.400000,-0.062500,-0.400000,0.062500,-0.381694,0.106694,-0.337500,0.125000,0.337500,0.125000,0.381694,0.106694,0.381694,0.106694,$1*%
%AMFreePoly2*
4,1,14,0.106694,0.381694,0.125000,0.337500,0.125000,-0.337500,0.106694,-0.381694,0.062500,-0.400000,-0.062500,-0.400000,-0.106694,-0.381694,-0.125000,-0.337500,-0.125000,0.274112,-0.106694,0.318306,-0.043306,0.381694,0.000888,0.400000,0.062500,0.400000,0.106694,0.381694,0.106694,0.381694,$1*%
%AMFreePoly3*
4,1,14,0.043306,0.381694,0.106694,0.318306,0.125000,0.274112,0.125000,-0.337500,0.106694,-0.381694,0.062500,-0.400000,-0.062500,-0.400000,-0.106694,-0.381694,-0.125000,-0.337500,-0.125000,0.337500,-0.106694,0.381694,-0.062500,0.400000,-0.000888,0.400000,0.043306,0.381694,0.043306,0.381694,$1*%
%AMFreePoly4*
4,1,14,0.381694,0.106694,0.400000,0.062500,0.400000,-0.062500,0.381694,-0.106694,0.337500,-0.125000,-0.274112,-0.125000,-0.318306,-0.106694,-0.381694,-0.043306,-0.400000,0.000888,-0.400000,0.062500,-0.381694,0.106694,-0.337500,0.125000,0.337500,0.125000,0.381694,0.106694,0.381694,0.106694,$1*%
%AMFreePoly5*
4,1,14,0.381694,0.106694,0.400000,0.062500,0.400000,-0.062500,0.381694,-0.106694,0.337500,-0.125000,-0.337500,-0.125000,-0.381694,-0.106694,-0.400000,-0.062500,-0.400000,-0.000888,-0.381694,0.043306,-0.318306,0.106694,-0.274112,0.125000,0.337500,0.125000,0.381694,0.106694,0.381694,0.106694,$1*%
%AMFreePoly6*
4,1,14,0.106694,0.381694,0.125000,0.337500,0.125000,-0.274112,0.106694,-0.318306,0.043306,-0.381694,-0.000888,-0.400000,-0.062500,-0.400000,-0.106694,-0.381694,-0.125000,-0.337500,-0.125000,0.337500,-0.106694,0.381694,-0.062500,0.400000,0.062500,0.400000,0.106694,0.381694,0.106694,0.381694,$1*%
%AMFreePoly7*
4,1,14,0.106694,0.381694,0.125000,0.337500,0.125000,-0.337500,0.106694,-0.381694,0.062500,-0.400000,0.000888,-0.400000,-0.043306,-0.381694,-0.106694,-0.318306,-0.125000,-0.274112,-0.125000,0.337500,-0.106694,0.381694,-0.062500,0.400000,0.062500,0.400000,0.106694,0.381694,0.106694,0.381694,$1*%
G04 Aperture macros list end*
%TA.AperFunction,SMDPad,CuDef*%
%ADD10RoundRect,0.140000X-0.170000X0.140000X-0.170000X-0.140000X0.170000X-0.140000X0.170000X0.140000X0*%
%TD*%
%TA.AperFunction,SMDPad,CuDef*%
%ADD11FreePoly0,270.000000*%
%TD*%
%TA.AperFunction,SMDPad,CuDef*%
%ADD12RoundRect,0.062500X-0.062500X0.337500X-0.062500X-0.337500X0.062500X-0.337500X0.062500X0.337500X0*%
%TD*%
%TA.AperFunction,SMDPad,CuDef*%
%ADD13FreePoly1,270.000000*%
%TD*%
%TA.AperFunction,SMDPad,CuDef*%
%ADD14FreePoly2,270.000000*%
%TD*%
%TA.AperFunction,SMDPad,CuDef*%
%ADD15RoundRect,0.062500X-0.337500X0.062500X-0.337500X-0.062500X0.337500X-0.062500X0.337500X0.062500X0*%
%TD*%
%TA.AperFunction,SMDPad,CuDef*%
%ADD16FreePoly3,270.000000*%
%TD*%
%TA.AperFunction,SMDPad,CuDef*%
%ADD17FreePoly4,270.000000*%
%TD*%
%TA.AperFunction,SMDPad,CuDef*%
%ADD18FreePoly5,270.000000*%
%TD*%
%TA.AperFunction,SMDPad,CuDef*%
%ADD19FreePoly6,270.000000*%
%TD*%
%TA.AperFunction,SMDPad,CuDef*%
%ADD20FreePoly7,270.000000*%
%TD*%
%TA.AperFunction,SMDPad,CuDef*%
%ADD21R,2.400000X2.400000*%
%TD*%
%TA.AperFunction,SMDPad,CuDef*%
%ADD22RoundRect,0.147500X0.172500X-0.147500X0.172500X0.147500X-0.172500X0.147500X-0.172500X-0.147500X0*%
%TD*%
%TA.AperFunction,ComponentPad*%
%ADD23R,1.000000X1.000000*%
%TD*%
%TA.AperFunction,ComponentPad*%
%ADD24O,1.000000X1.000000*%
%TD*%
%TA.AperFunction,SMDPad,CuDef*%
%ADD25R,0.300000X0.480000*%
%TD*%
%TA.AperFunction,SMDPad,CuDef*%
%ADD26R,0.480000X0.300000*%
%TD*%
%TA.AperFunction,SMDPad,CuDef*%
%ADD27RoundRect,0.135000X-0.185000X0.135000X-0.185000X-0.135000X0.185000X-0.135000X0.185000X0.135000X0*%
%TD*%
%TA.AperFunction,SMDPad,CuDef*%
%ADD28RoundRect,0.135000X0.185000X-0.135000X0.185000X0.135000X-0.185000X0.135000X-0.185000X-0.135000X0*%
%TD*%
%TA.AperFunction,ComponentPad*%
%ADD29R,0.850000X0.850000*%
%TD*%
%TA.AperFunction,ComponentPad*%
%ADD30O,0.850000X0.850000*%
%TD*%
%TA.AperFunction,ViaPad*%
%ADD31C,0.508000*%
%TD*%
%TA.AperFunction,Conductor*%
%ADD32C,0.152400*%
%TD*%
G04 APERTURE END LIST*
D10*
%TO.P,C2,1*%
%TO.N,VCC*%
X58400000Y-61220000D03*
%TO.P,C2,2*%
%TO.N,GND*%
X58400000Y-62180000D03*
%TD*%
D11*
%TO.P,U3,1,PD3*%
%TO.N,Net-(JP2-A)*%
X56500000Y-57750000D03*
D12*
%TO.P,U3,2,PD4*%
%TO.N,Net-(JP1-A)*%
X56050000Y-57750000D03*
%TO.P,U3,3,VCC*%
%TO.N,VCC*%
X55600000Y-57750000D03*
%TO.P,U3,4,GND*%
%TO.N,GND*%
X55150000Y-57750000D03*
%TO.P,U3,5,XTAL1/PB6*%
%TO.N,unconnected-(U3-XTAL1{slash}PB6-Pad5)*%
X54700000Y-57750000D03*
%TO.P,U3,6,XTAL2/PB7*%
%TO.N,unconnected-(U3-XTAL2{slash}PB7-Pad6)*%
X54250000Y-57750000D03*
D13*
%TO.P,U3,7,PD5*%
%TO.N,unconnected-(U3-PD5-Pad7)*%
X53800000Y-57750000D03*
D14*
%TO.P,U3,8,PD6*%
%TO.N,unconnected-(U3-PD6-Pad8)*%
X53200000Y-58350000D03*
D15*
%TO.P,U3,9,PD7*%
%TO.N,unconnected-(U3-PD7-Pad9)*%
X53200000Y-58800000D03*
%TO.P,U3,10,PB0*%
%TO.N,unconnected-(U3-PB0-Pad10)*%
X53200000Y-59250000D03*
%TO.P,U3,11,PB1*%
%TO.N,unconnected-(U3-PB1-Pad11)*%
X53200000Y-59700000D03*
%TO.P,U3,12,PB2*%
%TO.N,unconnected-(U3-PB2-Pad12)*%
X53200000Y-60150000D03*
%TO.P,U3,13,PB3*%
%TO.N,/MOSI*%
X53200000Y-60600000D03*
D16*
%TO.P,U3,14,PB4*%
%TO.N,/MISO*%
X53200000Y-61050000D03*
D17*
%TO.P,U3,15,PB5*%
%TO.N,/SCK*%
X53800000Y-61650000D03*
D12*
%TO.P,U3,16,AVCC*%
%TO.N,VCC*%
X54250000Y-61650000D03*
%TO.P,U3,17,AREF*%
%TO.N,unconnected-(U3-AREF-Pad17)*%
X54700000Y-61650000D03*
%TO.P,U3,18,GND*%
%TO.N,GND*%
X55150000Y-61650000D03*
%TO.P,U3,19,PC0*%
%TO.N,unconnected-(U3-PC0-Pad19)*%
X55600000Y-61650000D03*
%TO.P,U3,20,PC1*%
%TO.N,unconnected-(U3-PC1-Pad20)*%
X56050000Y-61650000D03*
D18*
%TO.P,U3,21,PC2*%
%TO.N,unconnected-(U3-PC2-Pad21)*%
X56500000Y-61650000D03*
D19*
%TO.P,U3,22,PC3*%
%TO.N,Net-(U3-PC3)*%
X57100000Y-61050000D03*
D15*
%TO.P,U3,23,PC4*%
%TO.N,/SDA*%
X57100000Y-60600000D03*
%TO.P,U3,24,PC5*%
%TO.N,/SCL*%
X57100000Y-60150000D03*
%TO.P,U3,25,~{RESET}/PC6*%
%TO.N,/nRESET*%
X57100000Y-59700000D03*
%TO.P,U3,26,PD0*%
%TO.N,/RXD*%
X57100000Y-59250000D03*
%TO.P,U3,27,PD1*%
%TO.N,/TXD*%
X57100000Y-58800000D03*
D20*
%TO.P,U3,28,PD2*%
%TO.N,unconnected-(U3-PD2-Pad28)*%
X57100000Y-58350000D03*
D21*
%TO.P,U3,29,GND*%
%TO.N,GND*%
X55150000Y-59700000D03*
%TD*%
D22*
%TO.P,D1,1,K*%
%TO.N,GND*%
X60400000Y-62185000D03*
%TO.P,D1,2,A*%
%TO.N,Net-(D1-A)*%
X60400000Y-61215000D03*
%TD*%
D23*
%TO.P,J1,1,Pin_1*%
%TO.N,VCC*%
X51200000Y-58090000D03*
D24*
%TO.P,J1,2,Pin_2*%
%TO.N,/TXD*%
X51200000Y-59360000D03*
%TO.P,J1,3,Pin_3*%
%TO.N,/RXD*%
X51200000Y-60630000D03*
%TO.P,J1,4,Pin_4*%
%TO.N,GND*%
X51200000Y-61900000D03*
%TD*%
D25*
%TO.P,U2,P1,SDO/SA0*%
%TO.N,GND*%
X59450000Y-60162500D03*
%TO.P,U2,P2,SDX*%
X59950000Y-60162500D03*
%TO.P,U2,P3,SCX*%
X60450000Y-60162500D03*
%TO.P,U2,P4,INT1*%
%TO.N,unconnected-(U2-INT1-PadP4)*%
X60950000Y-60162500D03*
D26*
%TO.P,U2,P5,VDD_IO*%
%TO.N,VCC*%
X61200000Y-59500000D03*
%TO.P,U2,P6,GND@6*%
%TO.N,GND*%
X61200000Y-59000000D03*
%TO.P,U2,P7,GND@7*%
X61200000Y-58500000D03*
D25*
%TO.P,U2,P8,VDD*%
%TO.N,VCC*%
X60950000Y-57837500D03*
%TO.P,U2,P9,INT2*%
%TO.N,unconnected-(U2-INT2-PadP9)*%
X60450000Y-57837500D03*
%TO.P,U2,P10,OCS_AUX*%
%TO.N,unconnected-(U2-OCS_AUX-PadP10)*%
X59950000Y-57837500D03*
%TO.P,U2,P11,SDO_AUX*%
%TO.N,unconnected-(U2-SDO_AUX-PadP11)*%
X59450000Y-57837500D03*
D26*
%TO.P,U2,P12,~{CS}*%
%TO.N,VCC*%
X59200000Y-58500000D03*
%TO.P,U2,P13,SCL*%
%TO.N,/SCL*%
X59200000Y-59000000D03*
%TO.P,U2,P14,SDA/SDI/SDO*%
%TO.N,/SDA*%
X59200000Y-59500000D03*
%TD*%
D27*
%TO.P,R1,1*%
%TO.N,Net-(U3-PC3)*%
X59400000Y-61190000D03*
%TO.P,R1,2*%
%TO.N,Net-(D1-A)*%
X59400000Y-62210000D03*
%TD*%
D28*
%TO.P,JP1,1,A*%
%TO.N,Net-(JP1-A)*%
X58700000Y-56610000D03*
%TO.P,JP1,2,B*%
%TO.N,GND*%
X58700000Y-55590000D03*
%TD*%
%TO.P,JP2,1,A*%
%TO.N,Net-(JP2-A)*%
X59900000Y-56610000D03*
%TO.P,JP2,2,B*%
%TO.N,GND*%
X59900000Y-55590000D03*
%TD*%
D29*
%TO.P,J3,1,MISO*%
%TO.N,/MISO*%
X51200000Y-56200000D03*
D30*
%TO.P,J3,2,VCC*%
%TO.N,VCC*%
X52200000Y-56200000D03*
%TO.P,J3,3,SCK*%
%TO.N,/SCK*%
X53200000Y-56200000D03*
%TO.P,J3,4,MOSI*%
%TO.N,/MOSI*%
X54200000Y-56200000D03*
%TO.P,J3,5,~{RST}*%
%TO.N,/nRESET*%
X55200000Y-56200000D03*
%TO.P,J3,6,GND*%
%TO.N,GND*%
X56200000Y-56200000D03*
%TD*%
D10*
%TO.P,C1,1*%
%TO.N,VCC*%
X61400000Y-61220000D03*
%TO.P,C1,2*%
%TO.N,GND*%
X61400000Y-62180000D03*
%TD*%
D31*
%TO.N,VCC*%
X54400000Y-62500000D03*
X57800000Y-61500000D03*
X55600000Y-57300000D03*
X61546000Y-60400000D03*
X61400000Y-57700000D03*
X59800000Y-58600000D03*
%TO.N,GND*%
X60600000Y-58800000D03*
X59300000Y-55600000D03*
X55100000Y-58500000D03*
X57800000Y-62200000D03*
X55100000Y-61000000D03*
X60900000Y-62400000D03*
X60000000Y-59500000D03*
%TO.N,/nRESET*%
X58893598Y-57600000D03*
%TO.N,/TXD*%
X57500000Y-57900000D03*
%TO.N,/RXD*%
X58175272Y-57842024D03*
%TO.N,/SCK*%
X53300000Y-62500000D03*
%TD*%
D32*
%TO.N,VCC*%
X61262500Y-57837500D02*
X61400000Y-57700000D01*
X54250000Y-62350000D02*
X54400000Y-62500000D01*
X60950000Y-57837500D02*
X61262500Y-57837500D01*
X61546000Y-60400000D02*
X61400000Y-60946000D01*
X55600000Y-58050000D02*
X55600000Y-57300000D01*
X61546000Y-59846000D02*
X61546000Y-60400000D01*
X61400000Y-60946000D02*
X61400000Y-61220000D01*
X59700000Y-58500000D02*
X59800000Y-58600000D01*
X57800000Y-61500000D02*
X58080002Y-61220000D01*
X61200000Y-59500000D02*
X61546000Y-59846000D01*
X59200000Y-58500000D02*
X59700000Y-58500000D01*
X54250000Y-61650000D02*
X54250000Y-62350000D01*
X58080002Y-61220000D02*
X58400000Y-61220000D01*
%TO.N,GND*%
X59950000Y-60162500D02*
X59950000Y-59550000D01*
X60600000Y-58800000D02*
X61000000Y-58800000D01*
X60900000Y-58500000D02*
X60600000Y-58800000D01*
X59290000Y-55590000D02*
X59300000Y-55600000D01*
X61180000Y-62400000D02*
X61400000Y-62180000D01*
X55150000Y-61950000D02*
X55150000Y-60000000D01*
X57820000Y-62180000D02*
X57800000Y-62200000D01*
X59890000Y-55600000D02*
X59900000Y-55590000D01*
X61000000Y-58800000D02*
X61200000Y-59000000D01*
X60585000Y-62185000D02*
X60800000Y-62400000D01*
X61200000Y-58500000D02*
X60900000Y-58500000D01*
X59950000Y-59550000D02*
X60000000Y-59500000D01*
X55150000Y-58050000D02*
X55150000Y-58650000D01*
X55150000Y-58650000D02*
X55100000Y-58700000D01*
X60900000Y-62400000D02*
X61180000Y-62400000D01*
X58700000Y-55590000D02*
X59290000Y-55590000D01*
X59300000Y-55600000D02*
X59890000Y-55600000D01*
X55150000Y-58750000D02*
X55150000Y-60000000D01*
X60450000Y-58950000D02*
X60600000Y-58800000D01*
X58400000Y-62180000D02*
X57820000Y-62180000D01*
X55100000Y-58700000D02*
X55150000Y-58750000D01*
X59950000Y-60162500D02*
X59450000Y-60162500D01*
X59950000Y-60162500D02*
X60450000Y-60162500D01*
X60400000Y-62185000D02*
X60585000Y-62185000D01*
%TO.N,/nRESET*%
X58700000Y-57793598D02*
X58893598Y-57600000D01*
X58700000Y-58463410D02*
X58700000Y-57793598D01*
X57559810Y-59603600D02*
X58700000Y-58463410D01*
%TO.N,Net-(D1-A)*%
X59400000Y-62210000D02*
X59405000Y-62210000D01*
X59405000Y-62210000D02*
X60400000Y-61215000D01*
%TO.N,/TXD*%
X57733750Y-58133750D02*
X57500000Y-57900000D01*
X57733750Y-58133750D02*
X57733750Y-58566249D01*
X57733750Y-58566249D02*
X57499999Y-58800000D01*
X57499999Y-58800000D02*
X57100000Y-58800000D01*
%TO.N,/RXD*%
X58175272Y-58557086D02*
X58175272Y-57842024D01*
X57482358Y-59250000D02*
X58175272Y-58557086D01*
X57100000Y-59250000D02*
X57482358Y-59250000D01*
%TO.N,/MISO*%
X51928600Y-56928600D02*
X51928600Y-60600000D01*
X52378600Y-61050000D02*
X53200000Y-61050000D01*
X51200000Y-56200000D02*
X51928600Y-56928600D01*
X51928600Y-60600000D02*
X52378600Y-61050000D01*
%TO.N,/SCK*%
X53300000Y-62450000D02*
X53800000Y-61950000D01*
X53300000Y-62500000D02*
X53300000Y-62450000D01*
%TO.N,/MOSI*%
X53200000Y-60600000D02*
X52800001Y-60600000D01*
X52900000Y-57100000D02*
X53300000Y-57100000D01*
X53300000Y-57100000D02*
X54200000Y-56200000D01*
X52400000Y-60199999D02*
X52400000Y-57600000D01*
X52800001Y-60600000D02*
X52400000Y-60199999D01*
X52400000Y-57600000D02*
X52900000Y-57100000D01*
%TO.N,Net-(JP1-A)*%
X56082600Y-57717400D02*
X56082600Y-57317400D01*
X56082600Y-57317400D02*
X56790000Y-56610000D01*
X56050000Y-57750000D02*
X56082600Y-57717400D01*
X56790000Y-56610000D02*
X58700000Y-56610000D01*
%TO.N,Net-(JP2-A)*%
X59401400Y-57108600D02*
X59900000Y-56610000D01*
X56500000Y-57750000D02*
X57141400Y-57108600D01*
X57141400Y-57108600D02*
X59401400Y-57108600D01*
%TO.N,/SCL*%
X59200000Y-59000000D02*
X58631052Y-59000000D01*
X58631052Y-59000000D02*
X57481052Y-60150000D01*
X57481052Y-60150000D02*
X57100000Y-60150000D01*
%TO.N,/SDA*%
X57707600Y-60600000D02*
X57100000Y-60600000D01*
X59200000Y-59500000D02*
X58807600Y-59500000D01*
X58807600Y-59500000D02*
X57707600Y-60600000D01*
%TO.N,Net-(U3-PC3)*%
X57867440Y-60917400D02*
X58073440Y-60711400D01*
X57567502Y-61050000D02*
X57700102Y-60917400D01*
X57700102Y-60917400D02*
X57867440Y-60917400D01*
X58921400Y-60711400D02*
X59400000Y-61190000D01*
X57100000Y-61050000D02*
X57567502Y-61050000D01*
X58073440Y-60711400D02*
X58921400Y-60711400D01*
%TD*%
M02*
