%TF.GenerationSoftware,KiCad,Pcbnew,7.0.9-7.0.9~ubuntu22.04.1*%
%TF.CreationDate,2024-01-17T07:25:15-05:00*%
%TF.ProjectId,imu-board,696d752d-626f-4617-9264-2e6b69636164,rev?*%
%TF.SameCoordinates,Original*%
%TF.FileFunction,Profile,NP*%
%FSLAX46Y46*%
G04 Gerber Fmt 4.6, Leading zero omitted, Abs format (unit mm)*
G04 Created by KiCad (PCBNEW 7.0.9-7.0.9~ubuntu22.04.1) date 2024-01-17 07:25:15*
%MOMM*%
%LPD*%
G01*
G04 APERTURE LIST*
%TA.AperFunction,Profile*%
%ADD10C,0.100000*%
%TD*%
G04 APERTURE END LIST*
D10*
X61600000Y-63000000D02*
X50200000Y-63000000D01*
X46400000Y-62500000D02*
X47000000Y-62500000D01*
X61600000Y-63000000D02*
G75*
G03*
X62000000Y-62600000I0J400000D01*
G01*
X49600000Y-57500000D02*
X49000000Y-57500000D01*
X47000000Y-62500000D02*
X47000000Y-62000000D01*
X46400000Y-57500000D02*
G75*
G03*
X46000000Y-57900000I0J-400000D01*
G01*
X62000000Y-55400000D02*
X62000000Y-62600000D01*
X50000000Y-62800000D02*
X50000000Y-62700000D01*
X46000000Y-57900000D02*
X46000000Y-62100000D01*
X62000000Y-55400000D02*
G75*
G03*
X61600000Y-55000000I-400000J0D01*
G01*
X47000000Y-58000000D02*
X47000000Y-57500000D01*
X49000000Y-58000000D02*
X47000000Y-58000000D01*
X50000000Y-62800000D02*
G75*
G03*
X50200000Y-63000000I200000J0D01*
G01*
X47000000Y-57500000D02*
X46400000Y-57500000D01*
X47000000Y-62000000D02*
X49000000Y-62000000D01*
X49000000Y-62000000D02*
X49000000Y-62500000D01*
X50000000Y-62700000D02*
G75*
G03*
X49800000Y-62500000I-200000J0D01*
G01*
X50400000Y-55000000D02*
X61600000Y-55000000D01*
X49600000Y-57500000D02*
G75*
G03*
X50000000Y-57100000I0J400000D01*
G01*
X50400000Y-55000000D02*
G75*
G03*
X50000000Y-55400000I0J-400000D01*
G01*
X46000000Y-62100000D02*
G75*
G03*
X46400000Y-62500000I400000J0D01*
G01*
X49000000Y-57500000D02*
X49000000Y-58000000D01*
X50000000Y-55400000D02*
X50000000Y-57100000D01*
X49000000Y-62500000D02*
X49800000Y-62500000D01*
M02*
